%TF.GenerationSoftware,KiCad,Pcbnew,9.0.0*%
%TF.CreationDate,2025-05-12T15:29:59-04:00*%
%TF.ProjectId,design-files_TM,64657369-676e-42d6-9669-6c65735f544d,rev?*%
%TF.SameCoordinates,Original*%
%TF.FileFunction,Copper,L2,Inr*%
%TF.FilePolarity,Positive*%
%FSLAX46Y46*%
G04 Gerber Fmt 4.6, Leading zero omitted, Abs format (unit mm)*
G04 Created by KiCad (PCBNEW 9.0.0) date 2025-05-12 15:29:59*
%MOMM*%
%LPD*%
G01*
G04 APERTURE LIST*
%TA.AperFunction,ViaPad*%
%ADD10C,0.457300*%
%TD*%
%TA.AperFunction,Conductor*%
%ADD11C,0.127000*%
%TD*%
G04 APERTURE END LIST*
D10*
%TO.N,+5V*%
X13190000Y-2100000D03*
X18640000Y-36750000D03*
X25180000Y-20879350D03*
X37130000Y-2000000D03*
X15570000Y-28970000D03*
X12560000Y-55970000D03*
X16960000Y-36750000D03*
X17820000Y-36740000D03*
X37860000Y-13050000D03*
X7965000Y-13055000D03*
X38800000Y-56300000D03*
X9070000Y-36740000D03*
X11470000Y-36750000D03*
X3800000Y-44570000D03*
X7800000Y-56000000D03*
X19460000Y-36740000D03*
X7130000Y-2090000D03*
X23340000Y-13040000D03*
X34500000Y-56300000D03*
X12010000Y-28980000D03*
X33110000Y-2010000D03*
%TO.N,/~{RESET}*%
X17350000Y-28920000D03*
X8850000Y-20840000D03*
%TO.N,VCC*%
X1037329Y-5752873D03*
X1682329Y-5752873D03*
X1000000Y-6950000D03*
X1700000Y-6950000D03*
%TO.N,/DOUT*%
X29860000Y-36740000D03*
X12070000Y-44550000D03*
X30380000Y-5510000D03*
X30480000Y-28950000D03*
X13570000Y-13070000D03*
X23240000Y-28430000D03*
%TO.N,/DIN*%
X18420000Y-28920000D03*
X12590000Y-13040000D03*
%TO.N,/CLK*%
X32790000Y-36760000D03*
X25640000Y-28910000D03*
X7810000Y-20840000D03*
X6790000Y-44550000D03*
X34220000Y-13010650D03*
X24970000Y-44560000D03*
%TO.N,GND*%
X3830000Y-54330000D03*
X20574000Y-28450000D03*
X3270000Y-13050000D03*
X16550000Y-4300000D03*
X1000000Y-51800000D03*
X39820000Y-13010650D03*
X1650000Y-50700000D03*
X38150000Y-4250000D03*
X25700000Y-52700000D03*
X17490000Y-44540000D03*
X16860000Y-44550000D03*
X2090000Y-13050000D03*
X18790000Y-44540000D03*
X27290000Y-53270000D03*
X23240000Y-20830000D03*
X8460000Y-28390000D03*
X1000000Y-50700000D03*
X9130000Y-13050000D03*
X19420000Y-44550000D03*
X5810000Y-36770000D03*
X40150000Y-4900000D03*
X5770000Y-53330000D03*
X6430000Y-29200000D03*
X1650000Y-51800000D03*
X18560000Y-3500000D03*
X17950000Y-13050000D03*
X22360000Y-13050000D03*
X18150000Y-44540000D03*
%TO.N,/LGAD1*%
X15520000Y-20840000D03*
X17270000Y-53330000D03*
X6800000Y-54900000D03*
%TO.N,/ETROC1*%
X10300000Y-55920000D03*
X19750000Y-55000000D03*
X16420000Y-20840000D03*
%TO.N,/CS_T1*%
X29360000Y-5470000D03*
X26520000Y-20879350D03*
%TO.N,/CS_T3*%
X5470000Y-44550000D03*
X29690000Y-44530000D03*
%TO.N,/LGAD2*%
X38840000Y-52860000D03*
X30250000Y-54710000D03*
X17320000Y-20840000D03*
%TO.N,/ETROC2*%
X18220000Y-20850000D03*
X34500000Y-55200000D03*
X42300000Y-54400000D03*
%TO.N,/LGAD3*%
X13720000Y-20840000D03*
X5290000Y-3800000D03*
X10370000Y-3820000D03*
%TO.N,/ETROC3*%
X4080000Y-2480000D03*
X11480000Y-3830000D03*
X14620000Y-20850000D03*
%TO.N,/LGAD4*%
X26310000Y-13050000D03*
X26970000Y-3580000D03*
%TO.N,/ETROC4*%
X24960000Y-13050000D03*
X24321000Y-4509000D03*
%TO.N,Net-(U1-TP1)*%
X3050000Y-53370000D03*
%TO.N,Net-(U1-TP2)*%
X4340000Y-52330000D03*
%TO.N,Net-(U1-TP3)*%
X6410000Y-52879150D03*
%TO.N,Net-(U1-TP4)*%
X8580000Y-53330000D03*
%TO.N,Net-(U1-TP5)*%
X10700000Y-53310000D03*
%TO.N,Net-(U1-TP6)*%
X14140000Y-53750000D03*
%TO.N,Net-(U1-TP7)*%
X16280000Y-53340000D03*
%TO.N,Net-(U1-TP8)*%
X18070000Y-53320000D03*
%TO.N,Net-(U1-TP9)*%
X21280000Y-53030000D03*
%TO.N,Net-(U2-TP1)*%
X24490000Y-53370000D03*
%TO.N,Net-(U2-TP2)*%
X26630000Y-52110000D03*
%TO.N,Net-(U2-TP3)*%
X28050000Y-52800000D03*
%TO.N,Net-(U2-TP4)*%
X30570000Y-52440000D03*
%TO.N,Net-(U2-TP5)*%
X31510000Y-52500000D03*
%TO.N,Net-(U2-TP6)*%
X35350000Y-53360000D03*
%TO.N,Net-(U2-TP7)*%
X38030000Y-52880000D03*
%TO.N,Net-(U2-TP8)*%
X39520000Y-53540000D03*
%TO.N,Net-(U2-TP9)*%
X42630000Y-52740000D03*
%TO.N,Net-(U3-TP1)*%
X19180000Y-4370000D03*
%TO.N,Net-(U3-TP2)*%
X17520000Y-5350000D03*
%TO.N,Net-(U3-TP3)*%
X14670000Y-4800000D03*
%TO.N,Net-(U3-TP4)*%
X13230000Y-3860000D03*
%TO.N,Net-(U3-TP5)*%
X9300000Y-4130000D03*
%TO.N,Net-(U3-TP6)*%
X7900000Y-4200000D03*
%TO.N,Net-(U3-TP7)*%
X6140000Y-4200000D03*
%TO.N,Net-(U3-TP8)*%
X4410000Y-3990000D03*
%TO.N,Net-(U3-TP9)*%
X1440000Y-2590000D03*
%TO.N,Net-(U4-TP1)*%
X40270000Y-2920000D03*
%TO.N,Net-(U4-TP2)*%
X41210000Y-5440000D03*
%TO.N,Net-(U4-TP3)*%
X36540000Y-4360000D03*
%TO.N,Net-(U4-TP4)*%
X35450000Y-4180000D03*
%TO.N,Net-(U4-TP5)*%
X31950000Y-4160000D03*
%TO.N,Net-(U4-TP6)*%
X29560000Y-4170000D03*
%TO.N,Net-(U4-TP7)*%
X27810000Y-4170000D03*
%TO.N,Net-(U4-TP8)*%
X26130000Y-3810000D03*
%TO.N,Net-(U4-TP9)*%
X22260000Y-4370000D03*
%TD*%
D11*
%TO.N,/DOUT*%
X29170000Y-7850000D02*
X29170000Y-27100000D01*
X30380000Y-5510000D02*
X30380000Y-6640000D01*
X30380000Y-6640000D02*
X29170000Y-7850000D01*
X29170000Y-27100000D02*
X30480000Y-28410000D01*
X29860000Y-36740000D02*
X30410000Y-36190000D01*
X30480000Y-28950000D02*
X30510000Y-28920000D01*
X30480000Y-28410000D02*
X30480000Y-28950000D01*
X30410000Y-29020000D02*
X30480000Y-28950000D01*
X30410000Y-36190000D02*
X30410000Y-29020000D01*
%TO.N,/CLK*%
X24970000Y-44560000D02*
X32770000Y-36760000D01*
%TO.N,/LGAD1*%
X12110000Y-53880000D02*
X13040000Y-52950000D01*
X6800000Y-54900000D02*
X7820000Y-53880000D01*
X13040000Y-23320000D02*
X15520000Y-20840000D01*
X7820000Y-53880000D02*
X12110000Y-53880000D01*
X13040000Y-52950000D02*
X13040000Y-23320000D01*
%TO.N,/ETROC1*%
X10300000Y-55920000D02*
X10320000Y-55900000D01*
X10320000Y-54950000D02*
X10950000Y-54320000D01*
X13600000Y-23660000D02*
X16420000Y-20840000D01*
X13600000Y-52820000D02*
X13600000Y-23660000D01*
X10320000Y-55900000D02*
X10320000Y-54950000D01*
X10950000Y-54320000D02*
X12100000Y-54320000D01*
X12100000Y-54320000D02*
X13600000Y-52820000D01*
%TO.N,/CS_T1*%
X29360000Y-6890000D02*
X28490000Y-7760000D01*
X26570650Y-20879350D02*
X26520000Y-20879350D01*
X28490000Y-7760000D02*
X28490000Y-18960000D01*
X29360000Y-5470000D02*
X29360000Y-6890000D01*
X28490000Y-18960000D02*
X26570650Y-20879350D01*
%TO.N,/LGAD2*%
X30250000Y-54710000D02*
X30250000Y-53750000D01*
X30250000Y-53750000D02*
X26900000Y-50400000D01*
X26900000Y-50400000D02*
X19080000Y-50400000D01*
X19080000Y-50400000D02*
X14090000Y-45410000D01*
X14090000Y-45410000D02*
X14090000Y-24070000D01*
X14090000Y-24070000D02*
X17320000Y-20840000D01*
%TO.N,/ETROC2*%
X33440000Y-53200000D02*
X34500000Y-54260000D01*
X14630000Y-45070000D02*
X19460000Y-49900000D01*
X27090000Y-49900000D02*
X30390000Y-53200000D01*
X19460000Y-49900000D02*
X27090000Y-49900000D01*
X34500000Y-54260000D02*
X34500000Y-55200000D01*
X30390000Y-53200000D02*
X33440000Y-53200000D01*
X18210000Y-20870000D02*
X14630000Y-24450000D01*
X14630000Y-24450000D02*
X14630000Y-45070000D01*
%TO.N,/LGAD3*%
X10370000Y-3820000D02*
X14510000Y-7960000D01*
X14510000Y-20050000D02*
X13720000Y-20840000D01*
X14510000Y-7960000D02*
X14510000Y-20050000D01*
X13720000Y-20840000D02*
X13720000Y-20580000D01*
%TO.N,/ETROC3*%
X15110000Y-20360000D02*
X14620000Y-20850000D01*
X15110000Y-7460000D02*
X15110000Y-20360000D01*
X11480000Y-3830000D02*
X15110000Y-7460000D01*
%TO.N,/LGAD4*%
X26970000Y-3580000D02*
X26730000Y-3820000D01*
X25010000Y-11750000D02*
X26310000Y-13050000D01*
X25010000Y-6340000D02*
X25010000Y-11750000D01*
X26730000Y-3820000D02*
X26730000Y-4620000D01*
X26730000Y-4620000D02*
X25010000Y-6340000D01*
%TO.N,/ETROC4*%
X24050000Y-4780000D02*
X24050000Y-12140000D01*
X24050000Y-12140000D02*
X24960000Y-13050000D01*
X24321000Y-4509000D02*
X24050000Y-4780000D01*
%TD*%
%TA.AperFunction,Conductor*%
%TO.N,/LGAD2*%
G36*
X17139647Y-20719458D02*
G01*
X17140259Y-20719837D01*
X17318722Y-20837979D01*
X17322020Y-20841277D01*
X17439718Y-21019069D01*
X17441427Y-21027859D01*
X17436420Y-21035283D01*
X17435165Y-21036007D01*
X17338928Y-21083785D01*
X17336149Y-21084751D01*
X17250559Y-21102876D01*
X17249917Y-21102994D01*
X17240053Y-21104513D01*
X17229729Y-21106104D01*
X17229726Y-21106104D01*
X17229725Y-21106105D01*
X17142777Y-21131641D01*
X17096494Y-21159921D01*
X17096493Y-21159921D01*
X17052884Y-21197969D01*
X17044397Y-21200826D01*
X17036919Y-21197426D01*
X16962496Y-21123003D01*
X16959069Y-21114730D01*
X16961875Y-21107128D01*
X17004907Y-21056796D01*
X17033856Y-21005077D01*
X17057054Y-20909769D01*
X17074607Y-20825726D01*
X17075177Y-20823829D01*
X17095105Y-20773511D01*
X17095847Y-20771977D01*
X17123667Y-20723745D01*
X17130768Y-20718293D01*
X17139647Y-20719458D01*
G37*
%TD.AperFunction*%
%TD*%
%TA.AperFunction,Conductor*%
%TO.N,/ETROC4*%
G36*
X24274177Y-4498895D02*
G01*
X24316196Y-4507066D01*
X24323663Y-4512009D01*
X24323707Y-4512074D01*
X24440756Y-4688172D01*
X24442482Y-4696959D01*
X24437489Y-4704393D01*
X24436318Y-4705076D01*
X24399699Y-4723711D01*
X24397360Y-4724601D01*
X24349751Y-4737083D01*
X24347522Y-4737443D01*
X24314983Y-4739499D01*
X24253491Y-4743386D01*
X24238209Y-4744569D01*
X24173716Y-4749565D01*
X24132015Y-4775422D01*
X24118316Y-4805251D01*
X24118314Y-4805257D01*
X24114632Y-4839217D01*
X24110333Y-4847073D01*
X24103000Y-4849656D01*
X23999617Y-4849656D01*
X23991344Y-4846229D01*
X23987917Y-4837956D01*
X23987993Y-4836625D01*
X23997964Y-4749566D01*
X24001043Y-4722682D01*
X24001861Y-4719530D01*
X24035978Y-4637414D01*
X24036223Y-4636868D01*
X24055077Y-4597772D01*
X24093621Y-4474385D01*
X24099358Y-4467512D01*
X24107019Y-4466391D01*
X24274177Y-4498895D01*
G37*
%TD.AperFunction*%
%TD*%
%TA.AperFunction,Conductor*%
%TO.N,/ETROC1*%
G36*
X10380836Y-55470520D02*
G01*
X10384236Y-55478006D01*
X10388688Y-55544019D01*
X10388690Y-55544026D01*
X10402645Y-55601533D01*
X10402646Y-55601537D01*
X10402647Y-55601538D01*
X10447187Y-55687410D01*
X10482738Y-55749143D01*
X10483412Y-55750516D01*
X10505204Y-55803360D01*
X10505703Y-55804844D01*
X10521108Y-55863419D01*
X10519898Y-55872292D01*
X10512769Y-55877710D01*
X10512125Y-55877860D01*
X10304803Y-55920023D01*
X10296013Y-55918314D01*
X10295936Y-55918263D01*
X10119986Y-55799772D01*
X10115038Y-55792308D01*
X10116816Y-55783532D01*
X10117064Y-55783179D01*
X10176252Y-55702481D01*
X10176388Y-55702301D01*
X10186991Y-55688688D01*
X10236259Y-55609606D01*
X10251470Y-55550822D01*
X10255839Y-55478090D01*
X10259756Y-55470039D01*
X10267518Y-55467093D01*
X10372563Y-55467093D01*
X10380836Y-55470520D01*
G37*
%TD.AperFunction*%
%TD*%
%TA.AperFunction,Conductor*%
%TO.N,/LGAD1*%
G36*
X15339647Y-20719458D02*
G01*
X15340259Y-20719837D01*
X15518722Y-20837979D01*
X15522020Y-20841277D01*
X15639718Y-21019069D01*
X15641427Y-21027859D01*
X15636420Y-21035283D01*
X15635165Y-21036007D01*
X15538928Y-21083785D01*
X15536149Y-21084751D01*
X15450559Y-21102876D01*
X15449917Y-21102994D01*
X15440053Y-21104513D01*
X15429729Y-21106104D01*
X15429726Y-21106104D01*
X15429725Y-21106105D01*
X15342777Y-21131641D01*
X15296494Y-21159921D01*
X15296493Y-21159921D01*
X15252884Y-21197969D01*
X15244397Y-21200826D01*
X15236919Y-21197426D01*
X15162496Y-21123003D01*
X15159069Y-21114730D01*
X15161875Y-21107128D01*
X15204907Y-21056796D01*
X15233856Y-21005077D01*
X15257054Y-20909769D01*
X15274607Y-20825726D01*
X15275177Y-20823829D01*
X15295105Y-20773511D01*
X15295847Y-20771977D01*
X15323667Y-20723745D01*
X15330768Y-20718293D01*
X15339647Y-20719458D01*
G37*
%TD.AperFunction*%
%TD*%
%TA.AperFunction,Conductor*%
%TO.N,/DOUT*%
G36*
X30483986Y-28951685D02*
G01*
X30484063Y-28951736D01*
X30659592Y-29069944D01*
X30664540Y-29077408D01*
X30662762Y-29086184D01*
X30662202Y-29086947D01*
X30615233Y-29145804D01*
X30614130Y-29147004D01*
X30564505Y-29193961D01*
X30564363Y-29194094D01*
X30536623Y-29219483D01*
X30491908Y-29281138D01*
X30491907Y-29281140D01*
X30478301Y-29328271D01*
X30478300Y-29328276D01*
X30474311Y-29381563D01*
X30470276Y-29389557D01*
X30462644Y-29392389D01*
X30357233Y-29392389D01*
X30348960Y-29388962D01*
X30345576Y-29381697D01*
X30344277Y-29366675D01*
X30334666Y-29255471D01*
X30305654Y-29164330D01*
X30305650Y-29164321D01*
X30305648Y-29164312D01*
X30300439Y-29150613D01*
X30300127Y-29149675D01*
X30279442Y-29077408D01*
X30259224Y-29006769D01*
X30260242Y-28997873D01*
X30267252Y-28992302D01*
X30268119Y-28992089D01*
X30475198Y-28949976D01*
X30483986Y-28951685D01*
G37*
%TD.AperFunction*%
%TD*%
%TA.AperFunction,Conductor*%
%TO.N,/DOUT*%
G36*
X30591276Y-5551967D02*
G01*
X30598699Y-5556973D01*
X30600408Y-5565763D01*
X30600032Y-5567162D01*
X30565769Y-5668992D01*
X30564488Y-5671641D01*
X30516767Y-5745002D01*
X30516395Y-5745539D01*
X30504337Y-5761987D01*
X30504330Y-5761998D01*
X30460903Y-5841540D01*
X30448176Y-5894260D01*
X30444243Y-5952002D01*
X30440262Y-5960023D01*
X30432570Y-5962907D01*
X30327320Y-5962907D01*
X30319047Y-5959480D01*
X30315656Y-5952119D01*
X30315647Y-5952002D01*
X30310494Y-5886102D01*
X30294393Y-5829061D01*
X30243403Y-5745265D01*
X30196387Y-5673423D01*
X30195447Y-5671675D01*
X30173960Y-5622007D01*
X30173402Y-5620408D01*
X30158968Y-5566624D01*
X30160133Y-5557746D01*
X30167235Y-5552292D01*
X30167926Y-5552129D01*
X30377669Y-5509474D01*
X30382331Y-5509474D01*
X30591276Y-5551967D01*
G37*
%TD.AperFunction*%
%TD*%
%TA.AperFunction,Conductor*%
%TO.N,/LGAD3*%
G36*
X10565283Y-3703579D02*
G01*
X10566007Y-3704834D01*
X10613785Y-3801071D01*
X10614751Y-3803850D01*
X10632876Y-3889439D01*
X10632994Y-3890081D01*
X10636104Y-3910270D01*
X10661642Y-3997224D01*
X10689922Y-4043507D01*
X10727969Y-4087115D01*
X10730826Y-4095602D01*
X10727426Y-4103080D01*
X10653003Y-4177503D01*
X10644730Y-4180930D01*
X10637127Y-4178123D01*
X10586799Y-4135094D01*
X10586797Y-4135092D01*
X10586796Y-4135092D01*
X10535077Y-4106143D01*
X10535076Y-4106142D01*
X10535073Y-4106141D01*
X10439774Y-4082947D01*
X10355736Y-4065393D01*
X10353820Y-4064818D01*
X10303515Y-4044895D01*
X10301977Y-4044152D01*
X10253747Y-4016333D01*
X10248293Y-4009231D01*
X10249458Y-4000352D01*
X10249824Y-3999760D01*
X10367980Y-3821275D01*
X10371275Y-3817980D01*
X10549071Y-3700280D01*
X10557859Y-3698572D01*
X10565283Y-3703579D01*
G37*
%TD.AperFunction*%
%TD*%
%TA.AperFunction,Conductor*%
%TO.N,/ETROC3*%
G36*
X11675283Y-3713579D02*
G01*
X11676007Y-3714834D01*
X11723785Y-3811071D01*
X11724751Y-3813850D01*
X11742876Y-3899439D01*
X11742994Y-3900081D01*
X11746104Y-3920270D01*
X11771642Y-4007224D01*
X11799922Y-4053507D01*
X11837969Y-4097115D01*
X11840826Y-4105602D01*
X11837426Y-4113080D01*
X11763003Y-4187503D01*
X11754730Y-4190930D01*
X11747127Y-4188123D01*
X11696799Y-4145094D01*
X11696797Y-4145092D01*
X11696796Y-4145092D01*
X11645077Y-4116143D01*
X11645076Y-4116142D01*
X11645073Y-4116141D01*
X11549774Y-4092947D01*
X11465736Y-4075393D01*
X11463820Y-4074818D01*
X11413515Y-4054895D01*
X11411977Y-4054152D01*
X11363747Y-4026333D01*
X11358293Y-4019231D01*
X11359458Y-4010352D01*
X11359824Y-4009760D01*
X11477980Y-3831275D01*
X11481275Y-3827980D01*
X11659071Y-3710280D01*
X11667859Y-3708572D01*
X11675283Y-3713579D01*
G37*
%TD.AperFunction*%
%TD*%
%TA.AperFunction,Conductor*%
%TO.N,/ETROC3*%
G36*
X14903080Y-20492573D02*
G01*
X14977503Y-20566996D01*
X14980930Y-20575269D01*
X14978123Y-20582872D01*
X14935094Y-20633200D01*
X14906141Y-20684926D01*
X14882947Y-20780224D01*
X14865393Y-20864263D01*
X14864818Y-20866179D01*
X14844895Y-20916484D01*
X14844152Y-20918022D01*
X14816333Y-20966252D01*
X14809231Y-20971706D01*
X14800352Y-20970541D01*
X14799740Y-20970162D01*
X14621277Y-20852020D01*
X14617979Y-20848722D01*
X14572638Y-20780231D01*
X14500280Y-20670929D01*
X14498572Y-20662140D01*
X14503579Y-20654716D01*
X14504818Y-20654000D01*
X14601073Y-20606212D01*
X14603847Y-20605247D01*
X14689441Y-20587123D01*
X14690080Y-20587007D01*
X14707316Y-20584350D01*
X14710270Y-20583895D01*
X14797224Y-20558358D01*
X14843507Y-20530078D01*
X14887117Y-20492029D01*
X14895602Y-20489173D01*
X14903080Y-20492573D01*
G37*
%TD.AperFunction*%
%TD*%
%TA.AperFunction,Conductor*%
%TO.N,/LGAD3*%
G36*
X13781532Y-20583427D02*
G01*
X13784856Y-20590151D01*
X13787789Y-20612119D01*
X13787789Y-20612120D01*
X13787790Y-20612121D01*
X13799512Y-20632970D01*
X13799513Y-20632970D01*
X13799513Y-20632971D01*
X13838351Y-20657257D01*
X13861418Y-20668662D01*
X13864168Y-20670553D01*
X13899243Y-20702932D01*
X13902998Y-20711062D01*
X13899904Y-20719465D01*
X13897842Y-20721234D01*
X13726535Y-20836599D01*
X13717759Y-20838377D01*
X13713465Y-20836599D01*
X13541535Y-20720815D01*
X13536587Y-20713351D01*
X13538365Y-20704575D01*
X13539704Y-20702932D01*
X13564099Y-20677998D01*
X13566920Y-20675878D01*
X13601644Y-20657259D01*
X13639124Y-20634437D01*
X13651828Y-20613273D01*
X13655086Y-20590073D01*
X13659629Y-20582357D01*
X13666672Y-20580000D01*
X13773259Y-20580000D01*
X13781532Y-20583427D01*
G37*
%TD.AperFunction*%
%TD*%
%TA.AperFunction,Conductor*%
%TO.N,/CLK*%
G36*
X32609646Y-36639455D02*
G01*
X32610214Y-36639807D01*
X32786620Y-36756587D01*
X32791627Y-36764011D01*
X32791645Y-36764102D01*
X32832295Y-36972413D01*
X32830517Y-36981189D01*
X32823053Y-36986137D01*
X32822697Y-36986201D01*
X32732050Y-37001000D01*
X32624273Y-37025087D01*
X32570116Y-37056917D01*
X32570110Y-37056922D01*
X32512893Y-37107820D01*
X32504434Y-37110758D01*
X32496844Y-37107351D01*
X32422554Y-37033061D01*
X32419127Y-37024788D01*
X32421989Y-37017120D01*
X32465346Y-36967173D01*
X32495587Y-36916306D01*
X32523030Y-36823210D01*
X32541466Y-36749697D01*
X32541988Y-36748112D01*
X32563291Y-36696122D01*
X32564003Y-36694677D01*
X32593651Y-36643688D01*
X32600772Y-36638258D01*
X32609646Y-36639455D01*
G37*
%TD.AperFunction*%
%TD*%
%TA.AperFunction,Conductor*%
%TO.N,/LGAD1*%
G36*
X7083080Y-54542573D02*
G01*
X7157503Y-54616996D01*
X7160930Y-54625269D01*
X7158123Y-54632872D01*
X7115094Y-54683200D01*
X7086141Y-54734926D01*
X7062947Y-54830224D01*
X7045393Y-54914263D01*
X7044818Y-54916179D01*
X7024895Y-54966484D01*
X7024152Y-54968022D01*
X6996333Y-55016252D01*
X6989231Y-55021706D01*
X6980352Y-55020541D01*
X6979740Y-55020162D01*
X6801277Y-54902020D01*
X6797979Y-54898722D01*
X6752638Y-54830231D01*
X6680280Y-54720929D01*
X6678572Y-54712140D01*
X6683579Y-54704716D01*
X6684818Y-54704000D01*
X6781073Y-54656212D01*
X6783847Y-54655247D01*
X6869441Y-54637123D01*
X6870080Y-54637007D01*
X6887316Y-54634350D01*
X6890270Y-54633895D01*
X6977224Y-54608358D01*
X7023507Y-54580078D01*
X7067117Y-54542029D01*
X7075602Y-54539173D01*
X7083080Y-54542573D01*
G37*
%TD.AperFunction*%
%TD*%
%TA.AperFunction,Conductor*%
%TO.N,/CLK*%
G36*
X25253080Y-44202573D02*
G01*
X25327503Y-44276996D01*
X25330930Y-44285269D01*
X25328123Y-44292872D01*
X25285094Y-44343200D01*
X25256141Y-44394926D01*
X25232947Y-44490224D01*
X25215393Y-44574263D01*
X25214818Y-44576179D01*
X25194895Y-44626484D01*
X25194152Y-44628022D01*
X25166333Y-44676252D01*
X25159231Y-44681706D01*
X25150352Y-44680541D01*
X25149740Y-44680162D01*
X24971277Y-44562020D01*
X24967979Y-44558722D01*
X24922638Y-44490231D01*
X24850280Y-44380929D01*
X24848572Y-44372140D01*
X24853579Y-44364716D01*
X24854818Y-44364000D01*
X24951073Y-44316212D01*
X24953847Y-44315247D01*
X25039441Y-44297123D01*
X25040080Y-44297007D01*
X25057316Y-44294350D01*
X25060270Y-44293895D01*
X25147224Y-44268358D01*
X25193507Y-44240078D01*
X25237117Y-44202029D01*
X25245602Y-44199173D01*
X25253080Y-44202573D01*
G37*
%TD.AperFunction*%
%TD*%
%TA.AperFunction,Conductor*%
%TO.N,/ETROC1*%
G36*
X16239647Y-20719458D02*
G01*
X16240259Y-20719837D01*
X16418722Y-20837979D01*
X16422020Y-20841277D01*
X16539718Y-21019069D01*
X16541427Y-21027859D01*
X16536420Y-21035283D01*
X16535165Y-21036007D01*
X16438928Y-21083785D01*
X16436149Y-21084751D01*
X16350559Y-21102876D01*
X16349917Y-21102994D01*
X16340053Y-21104513D01*
X16329729Y-21106104D01*
X16329726Y-21106104D01*
X16329725Y-21106105D01*
X16242777Y-21131641D01*
X16196494Y-21159921D01*
X16196493Y-21159921D01*
X16152884Y-21197969D01*
X16144397Y-21200826D01*
X16136919Y-21197426D01*
X16062496Y-21123003D01*
X16059069Y-21114730D01*
X16061875Y-21107128D01*
X16104907Y-21056796D01*
X16133856Y-21005077D01*
X16157054Y-20909769D01*
X16174607Y-20825726D01*
X16175177Y-20823829D01*
X16195105Y-20773511D01*
X16195847Y-20771977D01*
X16223667Y-20723745D01*
X16230768Y-20718293D01*
X16239647Y-20719458D01*
G37*
%TD.AperFunction*%
%TD*%
%TA.AperFunction,Conductor*%
%TO.N,/LGAD4*%
G36*
X26042871Y-12691875D02*
G01*
X26093203Y-12734907D01*
X26144922Y-12763856D01*
X26144924Y-12763856D01*
X26144925Y-12763857D01*
X26188229Y-12774397D01*
X26240230Y-12787054D01*
X26324270Y-12804607D01*
X26326173Y-12805178D01*
X26372042Y-12823345D01*
X26376484Y-12825104D01*
X26378023Y-12825847D01*
X26426252Y-12853666D01*
X26431706Y-12860768D01*
X26430541Y-12869647D01*
X26430162Y-12870259D01*
X26312020Y-13048722D01*
X26308722Y-13052020D01*
X26130930Y-13169718D01*
X26122140Y-13171427D01*
X26114716Y-13166420D01*
X26113997Y-13165174D01*
X26066213Y-13068927D01*
X26065247Y-13066148D01*
X26062255Y-13052020D01*
X26047124Y-12980560D01*
X26047007Y-12979918D01*
X26043897Y-12959742D01*
X26043895Y-12959729D01*
X26018358Y-12872776D01*
X25990078Y-12826493D01*
X25952029Y-12782882D01*
X25949173Y-12774397D01*
X25952572Y-12766920D01*
X26026997Y-12692495D01*
X26035269Y-12689069D01*
X26042871Y-12691875D01*
G37*
%TD.AperFunction*%
%TD*%
%TA.AperFunction,Conductor*%
%TO.N,/LGAD4*%
G36*
X26929069Y-3571040D02*
G01*
X26965196Y-3578066D01*
X26972663Y-3583009D01*
X26972707Y-3583074D01*
X27089235Y-3758387D01*
X27090961Y-3767174D01*
X27085968Y-3774608D01*
X27084072Y-3775630D01*
X27009881Y-3807199D01*
X27006943Y-3808017D01*
X26924726Y-3819678D01*
X26854280Y-3830496D01*
X26854275Y-3830498D01*
X26811997Y-3858556D01*
X26811997Y-3858557D01*
X26798313Y-3888897D01*
X26798310Y-3888906D01*
X26794627Y-3923051D01*
X26790333Y-3930909D01*
X26782995Y-3933496D01*
X26679076Y-3933496D01*
X26670803Y-3930069D01*
X26667376Y-3921796D01*
X26667406Y-3920953D01*
X26669721Y-3888900D01*
X26676600Y-3793665D01*
X26676981Y-3791438D01*
X26681564Y-3774608D01*
X26702546Y-3697539D01*
X26742930Y-3545950D01*
X26748371Y-3538839D01*
X26756467Y-3537478D01*
X26929069Y-3571040D01*
G37*
%TD.AperFunction*%
%TD*%
%TA.AperFunction,Conductor*%
%TO.N,/LGAD3*%
G36*
X14003080Y-20482573D02*
G01*
X14077503Y-20556996D01*
X14080930Y-20565269D01*
X14078123Y-20572872D01*
X14035094Y-20623200D01*
X14006141Y-20674926D01*
X13982947Y-20770224D01*
X13965393Y-20854263D01*
X13964818Y-20856179D01*
X13944895Y-20906484D01*
X13944152Y-20908022D01*
X13916333Y-20956252D01*
X13909231Y-20961706D01*
X13900352Y-20960541D01*
X13899740Y-20960162D01*
X13721277Y-20842020D01*
X13717979Y-20838722D01*
X13672638Y-20770231D01*
X13600280Y-20660929D01*
X13598572Y-20652140D01*
X13603579Y-20644716D01*
X13604818Y-20644000D01*
X13701073Y-20596212D01*
X13703847Y-20595247D01*
X13789441Y-20577123D01*
X13790080Y-20577007D01*
X13807316Y-20574350D01*
X13810270Y-20573895D01*
X13897224Y-20548358D01*
X13943507Y-20520078D01*
X13987117Y-20482029D01*
X13995602Y-20479173D01*
X14003080Y-20482573D01*
G37*
%TD.AperFunction*%
%TD*%
%TA.AperFunction,Conductor*%
%TO.N,/CS_T1*%
G36*
X29571276Y-5511967D02*
G01*
X29578699Y-5516973D01*
X29580408Y-5525763D01*
X29580032Y-5527162D01*
X29545769Y-5628992D01*
X29544488Y-5631641D01*
X29496767Y-5705002D01*
X29496395Y-5705539D01*
X29484337Y-5721987D01*
X29484330Y-5721998D01*
X29440903Y-5801540D01*
X29428176Y-5854260D01*
X29424243Y-5912002D01*
X29420262Y-5920023D01*
X29412570Y-5922907D01*
X29307320Y-5922907D01*
X29299047Y-5919480D01*
X29295656Y-5912119D01*
X29295647Y-5912002D01*
X29290494Y-5846102D01*
X29274393Y-5789061D01*
X29223403Y-5705265D01*
X29176387Y-5633423D01*
X29175447Y-5631675D01*
X29153960Y-5582007D01*
X29153402Y-5580408D01*
X29138968Y-5526624D01*
X29140133Y-5517746D01*
X29147235Y-5512292D01*
X29147926Y-5512129D01*
X29357669Y-5469474D01*
X29362331Y-5469474D01*
X29571276Y-5511967D01*
G37*
%TD.AperFunction*%
%TD*%
%TA.AperFunction,Conductor*%
%TO.N,+5V*%
G36*
X21194910Y-401502D02*
G01*
X21241403Y-455158D01*
X21251507Y-525432D01*
X21222013Y-590012D01*
X21206258Y-604472D01*
X21206550Y-604814D01*
X21202778Y-608035D01*
X21058034Y-752779D01*
X20937714Y-918387D01*
X20844781Y-1100779D01*
X20844778Y-1100785D01*
X20781524Y-1295461D01*
X20781523Y-1295464D01*
X20781523Y-1295466D01*
X20749500Y-1497648D01*
X20749500Y-1702352D01*
X20773337Y-1852850D01*
X20781524Y-1904538D01*
X20815822Y-2010098D01*
X20844780Y-2099219D01*
X20860886Y-2130828D01*
X20937714Y-2281612D01*
X21058034Y-2447220D01*
X21202779Y-2591965D01*
X21358334Y-2704981D01*
X21368390Y-2712287D01*
X21550781Y-2805220D01*
X21745466Y-2868477D01*
X21947648Y-2900500D01*
X21947651Y-2900500D01*
X22152349Y-2900500D01*
X22152352Y-2900500D01*
X22354534Y-2868477D01*
X22549219Y-2805220D01*
X22731610Y-2712287D01*
X22897219Y-2591966D01*
X23041966Y-2447219D01*
X23162287Y-2281610D01*
X23255220Y-2099219D01*
X23318477Y-1904534D01*
X23350500Y-1702352D01*
X23350500Y-1497648D01*
X23318477Y-1295466D01*
X23255220Y-1100781D01*
X23162287Y-918390D01*
X23041966Y-752781D01*
X23041965Y-752779D01*
X22897221Y-608035D01*
X22893450Y-604814D01*
X22894571Y-603501D01*
X22855794Y-553208D01*
X22849722Y-482472D01*
X22882857Y-419682D01*
X22944678Y-384773D01*
X22973211Y-381500D01*
X43592500Y-381500D01*
X43660621Y-401502D01*
X43707114Y-455158D01*
X43718500Y-507500D01*
X43718500Y-56992500D01*
X43698498Y-57060621D01*
X43644842Y-57107114D01*
X43592500Y-57118500D01*
X22973211Y-57118500D01*
X22905090Y-57098498D01*
X22858597Y-57044842D01*
X22848493Y-56974568D01*
X22877987Y-56909988D01*
X22893741Y-56895527D01*
X22893450Y-56895186D01*
X22897221Y-56891964D01*
X23041965Y-56747220D01*
X23107405Y-56657149D01*
X23162287Y-56581610D01*
X23255220Y-56399219D01*
X23318477Y-56204534D01*
X23350500Y-56002352D01*
X23350500Y-55797648D01*
X23318477Y-55595466D01*
X23255220Y-55400781D01*
X23162287Y-55218390D01*
X23162285Y-55218387D01*
X23041965Y-55052779D01*
X22897220Y-54908034D01*
X22731612Y-54787714D01*
X22674007Y-54758363D01*
X22549219Y-54694780D01*
X22549216Y-54694779D01*
X22549214Y-54694778D01*
X22354538Y-54631524D01*
X22354536Y-54631523D01*
X22354534Y-54631523D01*
X22152352Y-54599500D01*
X21947648Y-54599500D01*
X21745466Y-54631523D01*
X21745464Y-54631523D01*
X21745461Y-54631524D01*
X21550785Y-54694778D01*
X21550779Y-54694781D01*
X21368387Y-54787714D01*
X21202779Y-54908034D01*
X21058034Y-55052779D01*
X20937714Y-55218387D01*
X20844781Y-55400779D01*
X20844778Y-55400785D01*
X20781524Y-55595461D01*
X20781523Y-55595464D01*
X20781523Y-55595466D01*
X20749500Y-55797648D01*
X20749500Y-56002352D01*
X20770513Y-56135019D01*
X20781524Y-56204538D01*
X20841754Y-56389908D01*
X20844780Y-56399219D01*
X20892351Y-56492582D01*
X20937714Y-56581612D01*
X21058034Y-56747220D01*
X21202778Y-56891964D01*
X21206550Y-56895186D01*
X21205428Y-56896498D01*
X21244206Y-56946792D01*
X21250278Y-57017528D01*
X21217143Y-57080318D01*
X21155322Y-57115227D01*
X21126789Y-57118500D01*
X2210213Y-57118500D01*
X2142092Y-57098498D01*
X2121118Y-57081595D01*
X418405Y-55378882D01*
X384379Y-55316570D01*
X381500Y-55289787D01*
X381500Y-53297394D01*
X2312850Y-53297394D01*
X2312850Y-53442605D01*
X2341178Y-53585019D01*
X2341180Y-53585024D01*
X2349218Y-53604430D01*
X2396746Y-53719172D01*
X2477418Y-53839906D01*
X2580094Y-53942582D01*
X2700828Y-54023254D01*
X2834981Y-54078822D01*
X2949068Y-54101515D01*
X2977396Y-54107150D01*
X2981582Y-54107562D01*
X3047416Y-54134139D01*
X3088431Y-54192090D01*
X3092394Y-54251128D01*
X3093457Y-54251233D01*
X3092850Y-54257398D01*
X3092850Y-54402605D01*
X3116430Y-54521149D01*
X3121178Y-54545019D01*
X3176746Y-54679172D01*
X3257418Y-54799906D01*
X3360094Y-54902582D01*
X3480828Y-54983254D01*
X3614981Y-55038822D01*
X3757397Y-55067150D01*
X3757398Y-55067150D01*
X3902602Y-55067150D01*
X3902603Y-55067150D01*
X4045019Y-55038822D01*
X4179172Y-54983254D01*
X4299906Y-54902582D01*
X4375094Y-54827394D01*
X6062850Y-54827394D01*
X6062850Y-54972605D01*
X6080984Y-55063770D01*
X6091178Y-55115019D01*
X6146746Y-55249172D01*
X6227418Y-55369906D01*
X6330094Y-55472582D01*
X6450828Y-55553254D01*
X6584981Y-55608822D01*
X6727397Y-55637150D01*
X6727398Y-55637150D01*
X6872602Y-55637150D01*
X6872603Y-55637150D01*
X7015019Y-55608822D01*
X7149172Y-55553254D01*
X7269906Y-55472582D01*
X7372582Y-55369906D01*
X7413793Y-55308230D01*
X7419484Y-55300383D01*
X7441143Y-55272818D01*
X7468962Y-55224588D01*
X7486524Y-55191392D01*
X7487267Y-55189854D01*
X7502316Y-55155564D01*
X7522239Y-55105259D01*
X7536648Y-55063779D01*
X7537223Y-55061863D01*
X7548045Y-55019256D01*
X7555775Y-54982245D01*
X7589279Y-54919655D01*
X7589899Y-54919030D01*
X8020026Y-54488904D01*
X8082338Y-54454879D01*
X8109121Y-54452000D01*
X9728793Y-54452000D01*
X9796914Y-54472002D01*
X9843407Y-54525658D01*
X9853511Y-54595932D01*
X9837913Y-54640999D01*
X9786982Y-54729213D01*
X9786980Y-54729218D01*
X9748000Y-54874696D01*
X9748000Y-55376870D01*
X9742880Y-55394304D01*
X9742865Y-55412473D01*
X9729790Y-55438885D01*
X9727998Y-55444991D01*
X9727939Y-55445083D01*
X9725865Y-55448303D01*
X9702998Y-55479482D01*
X9696892Y-55487988D01*
X9696644Y-55488341D01*
X9662653Y-55543911D01*
X9660598Y-55549666D01*
X9653582Y-55560564D01*
X9653275Y-55560828D01*
X9652411Y-55562348D01*
X9646749Y-55570822D01*
X9646747Y-55570825D01*
X9646746Y-55570828D01*
X9612604Y-55653254D01*
X9591179Y-55704979D01*
X9591178Y-55704980D01*
X9562850Y-55847394D01*
X9562850Y-55847397D01*
X9562850Y-55992603D01*
X9591178Y-56135019D01*
X9646746Y-56269172D01*
X9727418Y-56389906D01*
X9830094Y-56492582D01*
X9950828Y-56573254D01*
X10084981Y-56628822D01*
X10227397Y-56657150D01*
X10227398Y-56657150D01*
X10372602Y-56657150D01*
X10372603Y-56657150D01*
X10515019Y-56628822D01*
X10649172Y-56573254D01*
X10769906Y-56492582D01*
X10872582Y-56389906D01*
X10953254Y-56269172D01*
X11008822Y-56135019D01*
X11037150Y-55992603D01*
X11037150Y-55847397D01*
X11023326Y-55777899D01*
X11021728Y-55767697D01*
X11018219Y-55737149D01*
X11017721Y-55732812D01*
X11011412Y-55708822D01*
X11002320Y-55674250D01*
X11000803Y-55669182D01*
X10992424Y-55641182D01*
X10991925Y-55639698D01*
X10991925Y-55639697D01*
X10979925Y-55607598D01*
X10965485Y-55572584D01*
X10958131Y-55554750D01*
X10944367Y-55524235D01*
X10944346Y-55524194D01*
X10943700Y-55522875D01*
X10942239Y-55520133D01*
X10927724Y-55492883D01*
X10927711Y-55492860D01*
X10909330Y-55460942D01*
X10906163Y-55451167D01*
X10901959Y-55445916D01*
X10893198Y-55411139D01*
X10892680Y-55406175D01*
X10892000Y-55393098D01*
X10892000Y-55239120D01*
X10912002Y-55170999D01*
X10928905Y-55150025D01*
X11150025Y-54928905D01*
X11152792Y-54927394D01*
X19012850Y-54927394D01*
X19012850Y-55072605D01*
X19020054Y-55108821D01*
X19041178Y-55215019D01*
X19096746Y-55349172D01*
X19177418Y-55469906D01*
X19280094Y-55572582D01*
X19400828Y-55653254D01*
X19534981Y-55708822D01*
X19677397Y-55737150D01*
X19677398Y-55737150D01*
X19822602Y-55737150D01*
X19822603Y-55737150D01*
X19965019Y-55708822D01*
X20099172Y-55653254D01*
X20219906Y-55572582D01*
X20322582Y-55469906D01*
X20403254Y-55349172D01*
X20458822Y-55215019D01*
X20487150Y-55072603D01*
X20487150Y-54927397D01*
X20458822Y-54784981D01*
X20403254Y-54650828D01*
X20322582Y-54530094D01*
X20219906Y-54427418D01*
X20099172Y-54346746D01*
X19965019Y-54291178D01*
X19822605Y-54262850D01*
X19822603Y-54262850D01*
X19677397Y-54262850D01*
X19677394Y-54262850D01*
X19534980Y-54291178D01*
X19534975Y-54291180D01*
X19400828Y-54346746D01*
X19280098Y-54427415D01*
X19280091Y-54427420D01*
X19177420Y-54530091D01*
X19177415Y-54530098D01*
X19096746Y-54650828D01*
X19041180Y-54784975D01*
X19041178Y-54784980D01*
X19012850Y-54927394D01*
X11152792Y-54927394D01*
X11212337Y-54894879D01*
X11239120Y-54892000D01*
X12175303Y-54892000D01*
X12175305Y-54892000D01*
X12320784Y-54853019D01*
X12382622Y-54817317D01*
X12391679Y-54812088D01*
X12424459Y-54793162D01*
X12451216Y-54777714D01*
X12557714Y-54671216D01*
X12617218Y-54611712D01*
X12617231Y-54611697D01*
X13248847Y-53980081D01*
X13311157Y-53946057D01*
X13381972Y-53951122D01*
X13438808Y-53993669D01*
X13454349Y-54020959D01*
X13486746Y-54099172D01*
X13567418Y-54219906D01*
X13670094Y-54322582D01*
X13790828Y-54403254D01*
X13924981Y-54458822D01*
X14067397Y-54487150D01*
X14067398Y-54487150D01*
X14212602Y-54487150D01*
X14212603Y-54487150D01*
X14355019Y-54458822D01*
X14489172Y-54403254D01*
X14609906Y-54322582D01*
X14712582Y-54219906D01*
X14793254Y-54099172D01*
X14848822Y-53965019D01*
X14877150Y-53822603D01*
X14877150Y-53677397D01*
X14848822Y-53534981D01*
X14793254Y-53400828D01*
X14712582Y-53280094D01*
X14699882Y-53267394D01*
X15542850Y-53267394D01*
X15542850Y-53412605D01*
X15567623Y-53537149D01*
X15571178Y-53555019D01*
X15626746Y-53689172D01*
X15707418Y-53809906D01*
X15810094Y-53912582D01*
X15930828Y-53993254D01*
X16064981Y-54048822D01*
X16207397Y-54077150D01*
X16207398Y-54077150D01*
X16352602Y-54077150D01*
X16352603Y-54077150D01*
X16495019Y-54048822D01*
X16629172Y-53993254D01*
X16712482Y-53937587D01*
X16780233Y-53916373D01*
X16848700Y-53935156D01*
X16852461Y-53937572D01*
X16920828Y-53983254D01*
X17054981Y-54038822D01*
X17197397Y-54067150D01*
X17197398Y-54067150D01*
X17342602Y-54067150D01*
X17342603Y-54067150D01*
X17485019Y-54038822D01*
X17619172Y-53983254D01*
X17619175Y-53983251D01*
X17621533Y-53981992D01*
X17622911Y-53981704D01*
X17624891Y-53980885D01*
X17625046Y-53981260D01*
X17691038Y-53967517D01*
X17729152Y-53976702D01*
X17854981Y-54028822D01*
X17997397Y-54057150D01*
X17997398Y-54057150D01*
X18142602Y-54057150D01*
X18142603Y-54057150D01*
X18285019Y-54028822D01*
X18419172Y-53973254D01*
X18539906Y-53892582D01*
X18642582Y-53789906D01*
X18723254Y-53669172D01*
X18778822Y-53535019D01*
X18807150Y-53392603D01*
X18807150Y-53247397D01*
X18778822Y-53104981D01*
X18723254Y-52970828D01*
X18714278Y-52957394D01*
X20542850Y-52957394D01*
X20542850Y-53102605D01*
X20560399Y-53190828D01*
X20571178Y-53245019D01*
X20626746Y-53379172D01*
X20707418Y-53499906D01*
X20810094Y-53602582D01*
X20930828Y-53683254D01*
X21064981Y-53738822D01*
X21207397Y-53767150D01*
X21207398Y-53767150D01*
X21352602Y-53767150D01*
X21352603Y-53767150D01*
X21495019Y-53738822D01*
X21629172Y-53683254D01*
X21749906Y-53602582D01*
X21852582Y-53499906D01*
X21933254Y-53379172D01*
X21988822Y-53245019D01*
X22017150Y-53102603D01*
X22017150Y-52957397D01*
X21988822Y-52814981D01*
X21933254Y-52680828D01*
X21852582Y-52560094D01*
X21749906Y-52457418D01*
X21629172Y-52376746D01*
X21495019Y-52321178D01*
X21352605Y-52292850D01*
X21352603Y-52292850D01*
X21207397Y-52292850D01*
X21207394Y-52292850D01*
X21064980Y-52321178D01*
X21064975Y-52321180D01*
X20930828Y-52376746D01*
X20810098Y-52457415D01*
X20810091Y-52457420D01*
X20707420Y-52560091D01*
X20707415Y-52560098D01*
X20626746Y-52680828D01*
X20571180Y-52814975D01*
X20571178Y-52814980D01*
X20542850Y-52957394D01*
X18714278Y-52957394D01*
X18642582Y-52850094D01*
X18539906Y-52747418D01*
X18419172Y-52666746D01*
X18285019Y-52611178D01*
X18243151Y-52602850D01*
X18142605Y-52582850D01*
X18142603Y-52582850D01*
X17997397Y-52582850D01*
X17997394Y-52582850D01*
X17854980Y-52611178D01*
X17854975Y-52611180D01*
X17720816Y-52666750D01*
X17718449Y-52668016D01*
X17717068Y-52668303D01*
X17715109Y-52669115D01*
X17714954Y-52668743D01*
X17648941Y-52682481D01*
X17610847Y-52673297D01*
X17485024Y-52621180D01*
X17485019Y-52621178D01*
X17342605Y-52592850D01*
X17342603Y-52592850D01*
X17197397Y-52592850D01*
X17197394Y-52592850D01*
X17054980Y-52621178D01*
X17054975Y-52621180D01*
X16920829Y-52676745D01*
X16837517Y-52732412D01*
X16769764Y-52753626D01*
X16701297Y-52734842D01*
X16697514Y-52732411D01*
X16692411Y-52729001D01*
X16629172Y-52686746D01*
X16495019Y-52631178D01*
X16479042Y-52628000D01*
X16352605Y-52602850D01*
X16352603Y-52602850D01*
X16207397Y-52602850D01*
X16207394Y-52602850D01*
X16064980Y-52631178D01*
X16064975Y-52631180D01*
X15930828Y-52686746D01*
X15810098Y-52767415D01*
X15810091Y-52767420D01*
X15707420Y-52870091D01*
X15707415Y-52870098D01*
X15626746Y-52990828D01*
X15571180Y-53124975D01*
X15571178Y-53124980D01*
X15542850Y-53267394D01*
X14699882Y-53267394D01*
X14609906Y-53177418D01*
X14489172Y-53096746D01*
X14374318Y-53049172D01*
X14355024Y-53041180D01*
X14355023Y-53041179D01*
X14355019Y-53041178D01*
X14305798Y-53031387D01*
X14273417Y-53024946D01*
X14210508Y-52992037D01*
X14175377Y-52930342D01*
X14172000Y-52901367D01*
X14172000Y-46605120D01*
X14192002Y-46536999D01*
X14245658Y-46490506D01*
X14315932Y-46480402D01*
X14380512Y-46509896D01*
X14387095Y-46516025D01*
X18622286Y-50751216D01*
X18728784Y-50857714D01*
X18859216Y-50933019D01*
X19004695Y-50972000D01*
X19155306Y-50972000D01*
X26610880Y-50972000D01*
X26679001Y-50992002D01*
X26699975Y-51008905D01*
X26859928Y-51168858D01*
X26893954Y-51231170D01*
X26888889Y-51301985D01*
X26846342Y-51358821D01*
X26779822Y-51383632D01*
X26746251Y-51381532D01*
X26702605Y-51372850D01*
X26702603Y-51372850D01*
X26557397Y-51372850D01*
X26557394Y-51372850D01*
X26414980Y-51401178D01*
X26414975Y-51401180D01*
X26280828Y-51456746D01*
X26160098Y-51537415D01*
X26160091Y-51537420D01*
X26057420Y-51640091D01*
X26057415Y-51640098D01*
X25976745Y-51760828D01*
X25976743Y-51760832D01*
X25923466Y-51889453D01*
X25878918Y-51944734D01*
X25811554Y-51967154D01*
X25782482Y-51964814D01*
X25772610Y-51962850D01*
X25772603Y-51962850D01*
X25627397Y-51962850D01*
X25627394Y-51962850D01*
X25484980Y-51991178D01*
X25484975Y-51991180D01*
X25350828Y-52046746D01*
X25230098Y-52127415D01*
X25230091Y-52127420D01*
X25127420Y-52230091D01*
X25127415Y-52230098D01*
X25046746Y-52350828D01*
X24991180Y-52484975D01*
X24991178Y-52484980D01*
X24966968Y-52606693D01*
X24934060Y-52669602D01*
X24872365Y-52704734D01*
X24801470Y-52700934D01*
X24795171Y-52698520D01*
X24705024Y-52661180D01*
X24705019Y-52661178D01*
X24562605Y-52632850D01*
X24562603Y-52632850D01*
X24417397Y-52632850D01*
X24417394Y-52632850D01*
X24274980Y-52661178D01*
X24274975Y-52661180D01*
X24140828Y-52716746D01*
X24020098Y-52797415D01*
X24020091Y-52797420D01*
X23917420Y-52900091D01*
X23917415Y-52900098D01*
X23836746Y-53020828D01*
X23781180Y-53154975D01*
X23781178Y-53154980D01*
X23752850Y-53297394D01*
X23752850Y-53442605D01*
X23781178Y-53585019D01*
X23781180Y-53585024D01*
X23789218Y-53604430D01*
X23836746Y-53719172D01*
X23917418Y-53839906D01*
X24020094Y-53942582D01*
X24140828Y-54023254D01*
X24274981Y-54078822D01*
X24417397Y-54107150D01*
X24417398Y-54107150D01*
X24562602Y-54107150D01*
X24562603Y-54107150D01*
X24705019Y-54078822D01*
X24839172Y-54023254D01*
X24959906Y-53942582D01*
X25062582Y-53839906D01*
X25143254Y-53719172D01*
X25198822Y-53585019D01*
X25223032Y-53463304D01*
X25255938Y-53400397D01*
X25317633Y-53365265D01*
X25388528Y-53369065D01*
X25394802Y-53371468D01*
X25484981Y-53408822D01*
X25627397Y-53437150D01*
X25627398Y-53437150D01*
X25772602Y-53437150D01*
X25772603Y-53437150D01*
X25915019Y-53408822D01*
X26049172Y-53353254D01*
X26169906Y-53272582D01*
X26272582Y-53169906D01*
X26327514Y-53087694D01*
X26381988Y-53042169D01*
X26452431Y-53033320D01*
X26516475Y-53063961D01*
X26553787Y-53124362D01*
X26555857Y-53182275D01*
X26552850Y-53197391D01*
X26552850Y-53342605D01*
X26570752Y-53432603D01*
X26581178Y-53485019D01*
X26636746Y-53619172D01*
X26717418Y-53739906D01*
X26820094Y-53842582D01*
X26940828Y-53923254D01*
X27074981Y-53978822D01*
X27217397Y-54007150D01*
X27217398Y-54007150D01*
X27362602Y-54007150D01*
X27362603Y-54007150D01*
X27505019Y-53978822D01*
X27639172Y-53923254D01*
X27759906Y-53842582D01*
X27862582Y-53739906D01*
X27943254Y-53619172D01*
X27945010Y-53614933D01*
X27989557Y-53559652D01*
X28056920Y-53537230D01*
X28061419Y-53537150D01*
X28122602Y-53537150D01*
X28122603Y-53537150D01*
X28265019Y-53508822D01*
X28399172Y-53453254D01*
X28519906Y-53372582D01*
X28622582Y-53269906D01*
X28672828Y-53194707D01*
X28727302Y-53149182D01*
X28797745Y-53140333D01*
X28861789Y-53170974D01*
X28866686Y-53175616D01*
X29641095Y-53950025D01*
X29656039Y-53977393D01*
X29672896Y-54003622D01*
X29673801Y-54009920D01*
X29675121Y-54012337D01*
X29678000Y-54039120D01*
X29678000Y-54164979D01*
X29657998Y-54233100D01*
X29657621Y-54233682D01*
X29635075Y-54268342D01*
X29635062Y-54268363D01*
X29603295Y-54324662D01*
X29603294Y-54324664D01*
X29602010Y-54327317D01*
X29577543Y-54387241D01*
X29577533Y-54387267D01*
X29543736Y-54487715D01*
X29543720Y-54487767D01*
X29543274Y-54489093D01*
X29542350Y-54492151D01*
X29541178Y-54494981D01*
X29540566Y-54498055D01*
X29538836Y-54503779D01*
X29538715Y-54504179D01*
X29534014Y-54519743D01*
X29533636Y-54521152D01*
X29517585Y-54610433D01*
X29516373Y-54619680D01*
X29512851Y-54637387D01*
X29512850Y-54637399D01*
X29512850Y-54782605D01*
X29539963Y-54918910D01*
X29541178Y-54925019D01*
X29596746Y-55059172D01*
X29677418Y-55179906D01*
X29780094Y-55282582D01*
X29900828Y-55363254D01*
X30034981Y-55418822D01*
X30177397Y-55447150D01*
X30177398Y-55447150D01*
X30322602Y-55447150D01*
X30322603Y-55447150D01*
X30465019Y-55418822D01*
X30599172Y-55363254D01*
X30719906Y-55282582D01*
X30822582Y-55179906D01*
X30903254Y-55059172D01*
X30958822Y-54925019D01*
X30987150Y-54782603D01*
X30987150Y-54637397D01*
X30972674Y-54564625D01*
X30971154Y-54555069D01*
X30970645Y-54550828D01*
X30967086Y-54521152D01*
X30966981Y-54520277D01*
X30966977Y-54520257D01*
X30952549Y-54466498D01*
X30948084Y-54452000D01*
X30941509Y-54430648D01*
X30940947Y-54429035D01*
X30927324Y-54394098D01*
X30905840Y-54344438D01*
X30886700Y-54304923D01*
X30885752Y-54303162D01*
X30863274Y-54265378D01*
X30842570Y-54233741D01*
X30822004Y-54165788D01*
X30822000Y-54164745D01*
X30822000Y-53898000D01*
X30842002Y-53829879D01*
X30895658Y-53783386D01*
X30948000Y-53772000D01*
X33150880Y-53772000D01*
X33219001Y-53792002D01*
X33239975Y-53808905D01*
X33891095Y-54460025D01*
X33906039Y-54487393D01*
X33922896Y-54513622D01*
X33923801Y-54519920D01*
X33925121Y-54522337D01*
X33928000Y-54549120D01*
X33928000Y-54654979D01*
X33907998Y-54723100D01*
X33907621Y-54723682D01*
X33885075Y-54758342D01*
X33885062Y-54758363D01*
X33853295Y-54814662D01*
X33853294Y-54814664D01*
X33852010Y-54817317D01*
X33827543Y-54877241D01*
X33827533Y-54877267D01*
X33793736Y-54977715D01*
X33793720Y-54977767D01*
X33793274Y-54979093D01*
X33792350Y-54982151D01*
X33791178Y-54984981D01*
X33790566Y-54988055D01*
X33788836Y-54993779D01*
X33788715Y-54994179D01*
X33784014Y-55009743D01*
X33783636Y-55011152D01*
X33767585Y-55100433D01*
X33766373Y-55109680D01*
X33762851Y-55127387D01*
X33762850Y-55127399D01*
X33762850Y-55272605D01*
X33789380Y-55405981D01*
X33791178Y-55415019D01*
X33846746Y-55549172D01*
X33927418Y-55669906D01*
X34030094Y-55772582D01*
X34150828Y-55853254D01*
X34284981Y-55908822D01*
X34427397Y-55937150D01*
X34427398Y-55937150D01*
X34572602Y-55937150D01*
X34572603Y-55937150D01*
X34715019Y-55908822D01*
X34849172Y-55853254D01*
X34969906Y-55772582D01*
X35072582Y-55669906D01*
X35153254Y-55549172D01*
X35208822Y-55415019D01*
X35237150Y-55272603D01*
X35237150Y-55127397D01*
X35222674Y-55054625D01*
X35221154Y-55045069D01*
X35220404Y-55038819D01*
X35217086Y-55011152D01*
X35216981Y-55010277D01*
X35216977Y-55010257D01*
X35202549Y-54956498D01*
X35196879Y-54938088D01*
X35191509Y-54920648D01*
X35190947Y-54919035D01*
X35177324Y-54884098D01*
X35155840Y-54834438D01*
X35136700Y-54794923D01*
X35135752Y-54793162D01*
X35113274Y-54755378D01*
X35092570Y-54723741D01*
X35072004Y-54655788D01*
X35072000Y-54654745D01*
X35072000Y-54327394D01*
X41562850Y-54327394D01*
X41562850Y-54472605D01*
X41574286Y-54530098D01*
X41591178Y-54615019D01*
X41646746Y-54749172D01*
X41727418Y-54869906D01*
X41830094Y-54972582D01*
X41950828Y-55053254D01*
X42084981Y-55108822D01*
X42227397Y-55137150D01*
X42227398Y-55137150D01*
X42372602Y-55137150D01*
X42372603Y-55137150D01*
X42515019Y-55108822D01*
X42649172Y-55053254D01*
X42769906Y-54972582D01*
X42872582Y-54869906D01*
X42953254Y-54749172D01*
X43008822Y-54615019D01*
X43037150Y-54472603D01*
X43037150Y-54327397D01*
X43008822Y-54184981D01*
X42953254Y-54050828D01*
X42872582Y-53930094D01*
X42769906Y-53827418D01*
X42649172Y-53746746D01*
X42583537Y-53719559D01*
X42528256Y-53675010D01*
X42505835Y-53607647D01*
X42523393Y-53538856D01*
X42575356Y-53490477D01*
X42631755Y-53477150D01*
X42702602Y-53477150D01*
X42702603Y-53477150D01*
X42845019Y-53448822D01*
X42979172Y-53393254D01*
X43099906Y-53312582D01*
X43202582Y-53209906D01*
X43283254Y-53089172D01*
X43338822Y-52955019D01*
X43367150Y-52812603D01*
X43367150Y-52667397D01*
X43338822Y-52524981D01*
X43283254Y-52390828D01*
X43202582Y-52270094D01*
X43099906Y-52167418D01*
X42979172Y-52086746D01*
X42845019Y-52031178D01*
X42839554Y-52030091D01*
X42702605Y-52002850D01*
X42702603Y-52002850D01*
X42557397Y-52002850D01*
X42557394Y-52002850D01*
X42414980Y-52031178D01*
X42414975Y-52031180D01*
X42280828Y-52086746D01*
X42160098Y-52167415D01*
X42160091Y-52167420D01*
X42057420Y-52270091D01*
X42057415Y-52270098D01*
X41976746Y-52390828D01*
X41921180Y-52524975D01*
X41921178Y-52524980D01*
X41892850Y-52667394D01*
X41892850Y-52812605D01*
X41913543Y-52916635D01*
X41921178Y-52955019D01*
X41976746Y-53089172D01*
X42057418Y-53209906D01*
X42160094Y-53312582D01*
X42280828Y-53393254D01*
X42341102Y-53418220D01*
X42346463Y-53420441D01*
X42401744Y-53464990D01*
X42424165Y-53532353D01*
X42406607Y-53601144D01*
X42354644Y-53649523D01*
X42298245Y-53662850D01*
X42227394Y-53662850D01*
X42084980Y-53691178D01*
X42084975Y-53691180D01*
X41950828Y-53746746D01*
X41830098Y-53827415D01*
X41830091Y-53827420D01*
X41727420Y-53930091D01*
X41727415Y-53930098D01*
X41646746Y-54050828D01*
X41591180Y-54184975D01*
X41591178Y-54184980D01*
X41562850Y-54327394D01*
X35072000Y-54327394D01*
X35072000Y-54209825D01*
X35092002Y-54141704D01*
X35145658Y-54095211D01*
X35215932Y-54085107D01*
X35222549Y-54086240D01*
X35277397Y-54097150D01*
X35277398Y-54097150D01*
X35422602Y-54097150D01*
X35422603Y-54097150D01*
X35565019Y-54068822D01*
X35699172Y-54013254D01*
X35819906Y-53932582D01*
X35922582Y-53829906D01*
X36003254Y-53709172D01*
X36058822Y-53575019D01*
X36087150Y-53432603D01*
X36087150Y-53287397D01*
X36058822Y-53144981D01*
X36003254Y-53010828D01*
X35922582Y-52890094D01*
X35839882Y-52807394D01*
X37292850Y-52807394D01*
X37292850Y-52952605D01*
X37316220Y-53070094D01*
X37321178Y-53095019D01*
X37376746Y-53229172D01*
X37457418Y-53349906D01*
X37560094Y-53452582D01*
X37680828Y-53533254D01*
X37814981Y-53588822D01*
X37957397Y-53617150D01*
X37957398Y-53617150D01*
X38102602Y-53617150D01*
X38102603Y-53617150D01*
X38245019Y-53588822D01*
X38379172Y-53533254D01*
X38384376Y-53529776D01*
X38387587Y-53528771D01*
X38389875Y-53526304D01*
X38421221Y-53518237D01*
X38452127Y-53508559D01*
X38456344Y-53509199D01*
X38458632Y-53508611D01*
X38473115Y-53511746D01*
X38493937Y-53514909D01*
X38498331Y-53516361D01*
X38624981Y-53568822D01*
X38705318Y-53584801D01*
X38712686Y-53587238D01*
X38735762Y-53603192D01*
X38760622Y-53616197D01*
X38764551Y-53623097D01*
X38771084Y-53627614D01*
X38781870Y-53653512D01*
X38795754Y-53677892D01*
X38796710Y-53682285D01*
X38802009Y-53708925D01*
X38811178Y-53755019D01*
X38811179Y-53755023D01*
X38811180Y-53755024D01*
X38816202Y-53767149D01*
X38866746Y-53889172D01*
X38947418Y-54009906D01*
X39050094Y-54112582D01*
X39170828Y-54193254D01*
X39304981Y-54248822D01*
X39447397Y-54277150D01*
X39447398Y-54277150D01*
X39592602Y-54277150D01*
X39592603Y-54277150D01*
X39735019Y-54248822D01*
X39869172Y-54193254D01*
X39989906Y-54112582D01*
X40092582Y-54009906D01*
X40173254Y-53889172D01*
X40228822Y-53755019D01*
X40257150Y-53612603D01*
X40257150Y-53467397D01*
X40228822Y-53324981D01*
X40173254Y-53190828D01*
X40092582Y-53070094D01*
X39989906Y-52967418D01*
X39869172Y-52886746D01*
X39735019Y-52831178D01*
X39685379Y-52821304D01*
X39662285Y-52816710D01*
X39599376Y-52783801D01*
X39564245Y-52722106D01*
X39563289Y-52717713D01*
X39563097Y-52716746D01*
X39548822Y-52644981D01*
X39493254Y-52510828D01*
X39412582Y-52390094D01*
X39309906Y-52287418D01*
X39189172Y-52206746D01*
X39055019Y-52151178D01*
X39008878Y-52142000D01*
X38912605Y-52122850D01*
X38912603Y-52122850D01*
X38767397Y-52122850D01*
X38767394Y-52122850D01*
X38624980Y-52151178D01*
X38624975Y-52151180D01*
X38490827Y-52206746D01*
X38490822Y-52206749D01*
X38485607Y-52210233D01*
X38417852Y-52231440D01*
X38367399Y-52221869D01*
X38245024Y-52171180D01*
X38245019Y-52171178D01*
X38102605Y-52142850D01*
X38102603Y-52142850D01*
X37957397Y-52142850D01*
X37957394Y-52142850D01*
X37814980Y-52171178D01*
X37814975Y-52171180D01*
X37680828Y-52226746D01*
X37560098Y-52307415D01*
X37560091Y-52307420D01*
X37457420Y-52410091D01*
X37457415Y-52410098D01*
X37376746Y-52530828D01*
X37321180Y-52664975D01*
X37321178Y-52664980D01*
X37292850Y-52807394D01*
X35839882Y-52807394D01*
X35819906Y-52787418D01*
X35699172Y-52706746D01*
X35565019Y-52651178D01*
X35422605Y-52622850D01*
X35422603Y-52622850D01*
X35277397Y-52622850D01*
X35277394Y-52622850D01*
X35134980Y-52651178D01*
X35134975Y-52651180D01*
X35000828Y-52706746D01*
X34880098Y-52787415D01*
X34880091Y-52787420D01*
X34777420Y-52890091D01*
X34777415Y-52890098D01*
X34696746Y-53010828D01*
X34641180Y-53144975D01*
X34641178Y-53144980D01*
X34612960Y-53286842D01*
X34580052Y-53349751D01*
X34518357Y-53384883D01*
X34447462Y-53381083D01*
X34400286Y-53351355D01*
X33791222Y-52742291D01*
X33791212Y-52742283D01*
X33768069Y-52728922D01*
X33660788Y-52666983D01*
X33660785Y-52666982D01*
X33660784Y-52666981D01*
X33660782Y-52666980D01*
X33660781Y-52666980D01*
X33601806Y-52651178D01*
X33515305Y-52628000D01*
X33515303Y-52628000D01*
X32373150Y-52628000D01*
X32305029Y-52607998D01*
X32258536Y-52554342D01*
X32247150Y-52502000D01*
X32247150Y-52427398D01*
X32247149Y-52427394D01*
X32243708Y-52410094D01*
X32218822Y-52284981D01*
X32163254Y-52150828D01*
X32082582Y-52030094D01*
X31979906Y-51927418D01*
X31859172Y-51846746D01*
X31725019Y-51791178D01*
X31702738Y-51786746D01*
X31582605Y-51762850D01*
X31582603Y-51762850D01*
X31437397Y-51762850D01*
X31437394Y-51762850D01*
X31294980Y-51791178D01*
X31294975Y-51791180D01*
X31160824Y-51846747D01*
X31160823Y-51846748D01*
X31154890Y-51850712D01*
X31087135Y-51871921D01*
X31018670Y-51853132D01*
X31014895Y-51850706D01*
X30996480Y-51838401D01*
X30919172Y-51786746D01*
X30785019Y-51731178D01*
X30642605Y-51702850D01*
X30642603Y-51702850D01*
X30497397Y-51702850D01*
X30497394Y-51702850D01*
X30354980Y-51731178D01*
X30354975Y-51731180D01*
X30220828Y-51786746D01*
X30100098Y-51867415D01*
X30100095Y-51867417D01*
X30072313Y-51895198D01*
X30009999Y-51929221D01*
X29939184Y-51924154D01*
X29894125Y-51895195D01*
X27441222Y-49442291D01*
X27441212Y-49442283D01*
X27310788Y-49366983D01*
X27310785Y-49366982D01*
X27310784Y-49366981D01*
X27310782Y-49366980D01*
X27310781Y-49366980D01*
X27271800Y-49356535D01*
X27165305Y-49328000D01*
X27165303Y-49328000D01*
X19749120Y-49328000D01*
X19680999Y-49307998D01*
X19660025Y-49291095D01*
X15238905Y-44869975D01*
X15204879Y-44807663D01*
X15202000Y-44780880D01*
X15202000Y-44477394D01*
X16122850Y-44477394D01*
X16122850Y-44622605D01*
X16151178Y-44765019D01*
X16151180Y-44765024D01*
X16155320Y-44775019D01*
X16206746Y-44899172D01*
X16287418Y-45019906D01*
X16390094Y-45122582D01*
X16510828Y-45203254D01*
X16644981Y-45258822D01*
X16787397Y-45287150D01*
X16787398Y-45287150D01*
X16932602Y-45287150D01*
X16932603Y-45287150D01*
X17075019Y-45258822D01*
X17138850Y-45232381D01*
X17209440Y-45224792D01*
X17235288Y-45232381D01*
X17274975Y-45248820D01*
X17274977Y-45248820D01*
X17274981Y-45248822D01*
X17417397Y-45277150D01*
X17417398Y-45277150D01*
X17562602Y-45277150D01*
X17562603Y-45277150D01*
X17705019Y-45248822D01*
X17729164Y-45238821D01*
X17771781Y-45221168D01*
X17842370Y-45213578D01*
X17868219Y-45221168D01*
X17934970Y-45248818D01*
X17934974Y-45248819D01*
X17934981Y-45248822D01*
X18077397Y-45277150D01*
X18077398Y-45277150D01*
X18222602Y-45277150D01*
X18222603Y-45277150D01*
X18365019Y-45248822D01*
X18371145Y-45246284D01*
X18421781Y-45225311D01*
X18492371Y-45217721D01*
X18518219Y-45225311D01*
X18574973Y-45248819D01*
X18574974Y-45248819D01*
X18574981Y-45248822D01*
X18717397Y-45277150D01*
X18717398Y-45277150D01*
X18862602Y-45277150D01*
X18862603Y-45277150D01*
X19005019Y-45248822D01*
X19044711Y-45232380D01*
X19115295Y-45224790D01*
X19141140Y-45232378D01*
X19204981Y-45258822D01*
X19347397Y-45287150D01*
X19347398Y-45287150D01*
X19492602Y-45287150D01*
X19492603Y-45287150D01*
X19635019Y-45258822D01*
X19769172Y-45203254D01*
X19889906Y-45122582D01*
X19992582Y-45019906D01*
X20073254Y-44899172D01*
X20128822Y-44765019D01*
X20157150Y-44622603D01*
X20157150Y-44487394D01*
X24232850Y-44487394D01*
X24232850Y-44632605D01*
X24250984Y-44723770D01*
X24261178Y-44775019D01*
X24316746Y-44909172D01*
X24397418Y-45029906D01*
X24500094Y-45132582D01*
X24620828Y-45213254D01*
X24754981Y-45268822D01*
X24897397Y-45297150D01*
X24897398Y-45297150D01*
X25042602Y-45297150D01*
X25042603Y-45297150D01*
X25185019Y-45268822D01*
X25319172Y-45213254D01*
X25439906Y-45132582D01*
X25542582Y-45029906D01*
X25548143Y-45021583D01*
X25583793Y-44968230D01*
X25589484Y-44960383D01*
X25611143Y-44932818D01*
X25638962Y-44884588D01*
X25656524Y-44851392D01*
X25657267Y-44849854D01*
X25672316Y-44815564D01*
X25692239Y-44765259D01*
X25706648Y-44723779D01*
X25707223Y-44721863D01*
X25718045Y-44679256D01*
X25725775Y-44642243D01*
X25759281Y-44579652D01*
X25759871Y-44579057D01*
X25881534Y-44457394D01*
X28952850Y-44457394D01*
X28952850Y-44602605D01*
X28960735Y-44642245D01*
X28981178Y-44745019D01*
X29036746Y-44879172D01*
X29117418Y-44999906D01*
X29220094Y-45102582D01*
X29340828Y-45183254D01*
X29474981Y-45238822D01*
X29617397Y-45267150D01*
X29617398Y-45267150D01*
X29762602Y-45267150D01*
X29762603Y-45267150D01*
X29905019Y-45238822D01*
X30039172Y-45183254D01*
X30159906Y-45102582D01*
X30262582Y-44999906D01*
X30343254Y-44879172D01*
X30398822Y-44745019D01*
X30427150Y-44602603D01*
X30427150Y-44457397D01*
X30398822Y-44314981D01*
X30343254Y-44180828D01*
X30262582Y-44060094D01*
X30159906Y-43957418D01*
X30039172Y-43876746D01*
X29905019Y-43821178D01*
X29863151Y-43812850D01*
X29762605Y-43792850D01*
X29762603Y-43792850D01*
X29617397Y-43792850D01*
X29617394Y-43792850D01*
X29474980Y-43821178D01*
X29474975Y-43821180D01*
X29340828Y-43876746D01*
X29220098Y-43957415D01*
X29220091Y-43957420D01*
X29117420Y-44060091D01*
X29117415Y-44060098D01*
X29036746Y-44180828D01*
X28981180Y-44314975D01*
X28981178Y-44314980D01*
X28952850Y-44457394D01*
X25881534Y-44457394D01*
X32805616Y-37533312D01*
X32821308Y-37524678D01*
X32833622Y-37512208D01*
X32861651Y-37502482D01*
X32867143Y-37499461D01*
X32870733Y-37498656D01*
X32905435Y-37492991D01*
X32913555Y-37491599D01*
X32913911Y-37491535D01*
X32974705Y-37476732D01*
X32980257Y-37474100D01*
X32992737Y-37471302D01*
X32993297Y-37471338D01*
X32995724Y-37470670D01*
X33005019Y-37468822D01*
X33139172Y-37413254D01*
X33259906Y-37332582D01*
X33362582Y-37229906D01*
X33443254Y-37109172D01*
X33498822Y-36975019D01*
X33527150Y-36832603D01*
X33527150Y-36687397D01*
X33498822Y-36544981D01*
X33443254Y-36410828D01*
X33362582Y-36290094D01*
X33259906Y-36187418D01*
X33139172Y-36106746D01*
X33005019Y-36051178D01*
X32862605Y-36022850D01*
X32862603Y-36022850D01*
X32717397Y-36022850D01*
X32717394Y-36022850D01*
X32574980Y-36051178D01*
X32574975Y-36051180D01*
X32440828Y-36106746D01*
X32320098Y-36187415D01*
X32320096Y-36187416D01*
X32217418Y-36290093D01*
X32177492Y-36349845D01*
X32171534Y-36358029D01*
X32149741Y-36385568D01*
X32149736Y-36385574D01*
X32120096Y-36436550D01*
X32103378Y-36467724D01*
X32102683Y-36469135D01*
X32088129Y-36501432D01*
X32066831Y-36553411D01*
X32054256Y-36587489D01*
X32053739Y-36589057D01*
X32043391Y-36624781D01*
X32034161Y-36661585D01*
X32001041Y-36720027D01*
X24950922Y-43770146D01*
X24888610Y-43804172D01*
X24887932Y-43804317D01*
X24847478Y-43812883D01*
X24785146Y-43830250D01*
X24785104Y-43830263D01*
X24782387Y-43831208D01*
X24782335Y-43831229D01*
X24722747Y-43856268D01*
X24722737Y-43856272D01*
X24641215Y-43896746D01*
X24626473Y-43904065D01*
X24623669Y-43905569D01*
X24620828Y-43906746D01*
X24618190Y-43908508D01*
X24612971Y-43911307D01*
X24612637Y-43911486D01*
X24597873Y-43919408D01*
X24596652Y-43920114D01*
X24522450Y-43971745D01*
X24515124Y-43977374D01*
X24500096Y-43987416D01*
X24500091Y-43987420D01*
X24397416Y-44090096D01*
X24397415Y-44090098D01*
X24316746Y-44210828D01*
X24261180Y-44344975D01*
X24261178Y-44344980D01*
X24232850Y-44487394D01*
X20157150Y-44487394D01*
X20157150Y-44477397D01*
X20128822Y-44334981D01*
X20073254Y-44200828D01*
X19992582Y-44080094D01*
X19889906Y-43977418D01*
X19769172Y-43896746D01*
X19635019Y-43841178D01*
X19492605Y-43812850D01*
X19492603Y-43812850D01*
X19347397Y-43812850D01*
X19347394Y-43812850D01*
X19204980Y-43841178D01*
X19204975Y-43841180D01*
X19165287Y-43857619D01*
X19094697Y-43865207D01*
X19068854Y-43857618D01*
X19005029Y-43831181D01*
X19005019Y-43831178D01*
X18862605Y-43802850D01*
X18862603Y-43802850D01*
X18717397Y-43802850D01*
X18717394Y-43802850D01*
X18574980Y-43831178D01*
X18574970Y-43831181D01*
X18518217Y-43854689D01*
X18447627Y-43862278D01*
X18421783Y-43854689D01*
X18365029Y-43831181D01*
X18365019Y-43831178D01*
X18222605Y-43802850D01*
X18222603Y-43802850D01*
X18077397Y-43802850D01*
X18077394Y-43802850D01*
X17934980Y-43831178D01*
X17934970Y-43831181D01*
X17868217Y-43858831D01*
X17797627Y-43866420D01*
X17771783Y-43858831D01*
X17705029Y-43831181D01*
X17705019Y-43831178D01*
X17562605Y-43802850D01*
X17562603Y-43802850D01*
X17417397Y-43802850D01*
X17417394Y-43802850D01*
X17274980Y-43831178D01*
X17274975Y-43831180D01*
X17211144Y-43857619D01*
X17140554Y-43865207D01*
X17114711Y-43857618D01*
X17075029Y-43841181D01*
X17075019Y-43841178D01*
X16932605Y-43812850D01*
X16932603Y-43812850D01*
X16787397Y-43812850D01*
X16787394Y-43812850D01*
X16644980Y-43841178D01*
X16644975Y-43841180D01*
X16510828Y-43896746D01*
X16390098Y-43977415D01*
X16390091Y-43977420D01*
X16287420Y-44080091D01*
X16287415Y-44080098D01*
X16206746Y-44200828D01*
X16151180Y-44334975D01*
X16151178Y-44334980D01*
X16122850Y-44477394D01*
X15202000Y-44477394D01*
X15202000Y-28847394D01*
X16612850Y-28847394D01*
X16612850Y-28992605D01*
X16636538Y-29111693D01*
X16641178Y-29135019D01*
X16696746Y-29269172D01*
X16777418Y-29389906D01*
X16880094Y-29492582D01*
X17000828Y-29573254D01*
X17134981Y-29628822D01*
X17277397Y-29657150D01*
X17277398Y-29657150D01*
X17422602Y-29657150D01*
X17422603Y-29657150D01*
X17565019Y-29628822D01*
X17699172Y-29573254D01*
X17814999Y-29495860D01*
X17882751Y-29474646D01*
X17951218Y-29493429D01*
X17954985Y-29495850D01*
X18070828Y-29573254D01*
X18204981Y-29628822D01*
X18347397Y-29657150D01*
X18347398Y-29657150D01*
X18492602Y-29657150D01*
X18492603Y-29657150D01*
X18635019Y-29628822D01*
X18769172Y-29573254D01*
X18889906Y-29492582D01*
X18992582Y-29389906D01*
X19073254Y-29269172D01*
X19128822Y-29135019D01*
X19157150Y-28992603D01*
X19157150Y-28847397D01*
X19128822Y-28704981D01*
X19073254Y-28570828D01*
X18992582Y-28450094D01*
X18919882Y-28377394D01*
X19836850Y-28377394D01*
X19836850Y-28522605D01*
X19861200Y-28645019D01*
X19865178Y-28665019D01*
X19920746Y-28799172D01*
X20001418Y-28919906D01*
X20104094Y-29022582D01*
X20224828Y-29103254D01*
X20358981Y-29158822D01*
X20501397Y-29187150D01*
X20501398Y-29187150D01*
X20646602Y-29187150D01*
X20646603Y-29187150D01*
X20789019Y-29158822D01*
X20923172Y-29103254D01*
X21043906Y-29022582D01*
X21146582Y-28919906D01*
X21227254Y-28799172D01*
X21282822Y-28665019D01*
X21311150Y-28522603D01*
X21311150Y-28377397D01*
X21307171Y-28357394D01*
X22502850Y-28357394D01*
X22502850Y-28502605D01*
X22527644Y-28627251D01*
X22531178Y-28645019D01*
X22586746Y-28779172D01*
X22667418Y-28899906D01*
X22770094Y-29002582D01*
X22890828Y-29083254D01*
X23024981Y-29138822D01*
X23167397Y-29167150D01*
X23167398Y-29167150D01*
X23312602Y-29167150D01*
X23312603Y-29167150D01*
X23455019Y-29138822D01*
X23589172Y-29083254D01*
X23709906Y-29002582D01*
X23812582Y-28899906D01*
X23854351Y-28837394D01*
X24902850Y-28837394D01*
X24902850Y-28982605D01*
X24926849Y-29103254D01*
X24931178Y-29125019D01*
X24986746Y-29259172D01*
X25067418Y-29379906D01*
X25170094Y-29482582D01*
X25290828Y-29563254D01*
X25424981Y-29618822D01*
X25567397Y-29647150D01*
X25567398Y-29647150D01*
X25712602Y-29647150D01*
X25712603Y-29647150D01*
X25855019Y-29618822D01*
X25989172Y-29563254D01*
X26109906Y-29482582D01*
X26212582Y-29379906D01*
X26293254Y-29259172D01*
X26348822Y-29125019D01*
X26377150Y-28982603D01*
X26377150Y-28837397D01*
X26348822Y-28694981D01*
X26293254Y-28560828D01*
X26212582Y-28440094D01*
X26109906Y-28337418D01*
X25989172Y-28256746D01*
X25855019Y-28201178D01*
X25712605Y-28172850D01*
X25712603Y-28172850D01*
X25567397Y-28172850D01*
X25567394Y-28172850D01*
X25424980Y-28201178D01*
X25424975Y-28201180D01*
X25290828Y-28256746D01*
X25170098Y-28337415D01*
X25170091Y-28337420D01*
X25067420Y-28440091D01*
X25067415Y-28440098D01*
X24986746Y-28560828D01*
X24931180Y-28694975D01*
X24931178Y-28694980D01*
X24902850Y-28837394D01*
X23854351Y-28837394D01*
X23893254Y-28779172D01*
X23948822Y-28645019D01*
X23977150Y-28502603D01*
X23977150Y-28357397D01*
X23948822Y-28214981D01*
X23893254Y-28080828D01*
X23812582Y-27960094D01*
X23709906Y-27857418D01*
X23589172Y-27776746D01*
X23455019Y-27721178D01*
X23413151Y-27712850D01*
X23312605Y-27692850D01*
X23312603Y-27692850D01*
X23167397Y-27692850D01*
X23167394Y-27692850D01*
X23024980Y-27721178D01*
X23024975Y-27721180D01*
X22890828Y-27776746D01*
X22770098Y-27857415D01*
X22770091Y-27857420D01*
X22667420Y-27960091D01*
X22667415Y-27960098D01*
X22586746Y-28080828D01*
X22531180Y-28214975D01*
X22531178Y-28214980D01*
X22502850Y-28357394D01*
X21307171Y-28357394D01*
X21282822Y-28234981D01*
X21227254Y-28100828D01*
X21146582Y-27980094D01*
X21043906Y-27877418D01*
X20923172Y-27796746D01*
X20789019Y-27741178D01*
X20766738Y-27736746D01*
X20646605Y-27712850D01*
X20646603Y-27712850D01*
X20501397Y-27712850D01*
X20501394Y-27712850D01*
X20358980Y-27741178D01*
X20358975Y-27741180D01*
X20224828Y-27796746D01*
X20104098Y-27877415D01*
X20104091Y-27877420D01*
X20001420Y-27980091D01*
X20001415Y-27980098D01*
X19920746Y-28100828D01*
X19865180Y-28234975D01*
X19865178Y-28234980D01*
X19836850Y-28377394D01*
X18919882Y-28377394D01*
X18889906Y-28347418D01*
X18769172Y-28266746D01*
X18635019Y-28211178D01*
X18492605Y-28182850D01*
X18492603Y-28182850D01*
X18347397Y-28182850D01*
X18347394Y-28182850D01*
X18204980Y-28211178D01*
X18204975Y-28211180D01*
X18070827Y-28266746D01*
X17955002Y-28344138D01*
X17887249Y-28365353D01*
X17818782Y-28346570D01*
X17814998Y-28344138D01*
X17699172Y-28266746D01*
X17565024Y-28211180D01*
X17565019Y-28211178D01*
X17422605Y-28182850D01*
X17422603Y-28182850D01*
X17277397Y-28182850D01*
X17277394Y-28182850D01*
X17134980Y-28211178D01*
X17134975Y-28211180D01*
X17000828Y-28266746D01*
X16880098Y-28347415D01*
X16880091Y-28347420D01*
X16777420Y-28450091D01*
X16777415Y-28450098D01*
X16696746Y-28570828D01*
X16641180Y-28704975D01*
X16641178Y-28704980D01*
X16612850Y-28847394D01*
X15202000Y-28847394D01*
X15202000Y-24739119D01*
X15222002Y-24670998D01*
X15238900Y-24650029D01*
X18249720Y-21639208D01*
X18309838Y-21605682D01*
X18355876Y-21594805D01*
X18397957Y-21582194D01*
X18413971Y-21577396D01*
X18413974Y-21577394D01*
X18413990Y-21577390D01*
X18416585Y-21576442D01*
X18472361Y-21552233D01*
X18567283Y-21504167D01*
X18568292Y-21503618D01*
X18569172Y-21503254D01*
X18570084Y-21502644D01*
X18593573Y-21489878D01*
X18594745Y-21489196D01*
X18664066Y-21440805D01*
X18664072Y-21440798D01*
X18666903Y-21438822D01*
X18675541Y-21432180D01*
X18689906Y-21422582D01*
X18792582Y-21319906D01*
X18873254Y-21199172D01*
X18928822Y-21065019D01*
X18957150Y-20922603D01*
X18957150Y-20777397D01*
X18953171Y-20757394D01*
X22502850Y-20757394D01*
X22502850Y-20902605D01*
X22515857Y-20967996D01*
X22531178Y-21045019D01*
X22586746Y-21179172D01*
X22667418Y-21299906D01*
X22770094Y-21402582D01*
X22890828Y-21483254D01*
X23024981Y-21538822D01*
X23167397Y-21567150D01*
X23167398Y-21567150D01*
X23312602Y-21567150D01*
X23312603Y-21567150D01*
X23455019Y-21538822D01*
X23589172Y-21483254D01*
X23709906Y-21402582D01*
X23812582Y-21299906D01*
X23893254Y-21179172D01*
X23948822Y-21045019D01*
X23977150Y-20902603D01*
X23977150Y-20806744D01*
X25782850Y-20806744D01*
X25782850Y-20951955D01*
X25800100Y-21038678D01*
X25811178Y-21094369D01*
X25866746Y-21228522D01*
X25947418Y-21349256D01*
X26050094Y-21451932D01*
X26170828Y-21532604D01*
X26304981Y-21588172D01*
X26447397Y-21616500D01*
X26447398Y-21616500D01*
X26592602Y-21616500D01*
X26592603Y-21616500D01*
X26735019Y-21588172D01*
X26869172Y-21532604D01*
X26989906Y-21451932D01*
X27092582Y-21349256D01*
X27162140Y-21245153D01*
X27164407Y-21241877D01*
X27171761Y-21231623D01*
X27229837Y-21119865D01*
X27248033Y-21080955D01*
X27248788Y-21079147D01*
X27263722Y-21038683D01*
X27273160Y-21009372D01*
X27276648Y-21002984D01*
X27277155Y-20998662D01*
X27295745Y-20968003D01*
X27312262Y-20947905D01*
X27312263Y-20947901D01*
X27314074Y-20945699D01*
X27322314Y-20936614D01*
X28382906Y-19876022D01*
X28445217Y-19841998D01*
X28516033Y-19847063D01*
X28572868Y-19889610D01*
X28597679Y-19956130D01*
X28598000Y-19965119D01*
X28598000Y-27175305D01*
X28626535Y-27281800D01*
X28636980Y-27320781D01*
X28636983Y-27320788D01*
X28712283Y-27451212D01*
X28712291Y-27451222D01*
X29772639Y-28511569D01*
X29780358Y-28525706D01*
X29792115Y-28536724D01*
X29797025Y-28556229D01*
X29806664Y-28573881D01*
X29805729Y-28590802D01*
X29809448Y-28605572D01*
X29802966Y-28640845D01*
X29773159Y-28729435D01*
X29771590Y-28733620D01*
X29770338Y-28737745D01*
X29768799Y-28743903D01*
X29764014Y-28759743D01*
X29763636Y-28761152D01*
X29747585Y-28850433D01*
X29746373Y-28859680D01*
X29742851Y-28877387D01*
X29742850Y-28877399D01*
X29742850Y-29022605D01*
X29758892Y-29103253D01*
X29760571Y-29111693D01*
X29765548Y-29148071D01*
X29806451Y-29290977D01*
X29812874Y-29311746D01*
X29813186Y-29312684D01*
X29820467Y-29333121D01*
X29820640Y-29333578D01*
X29822225Y-29338559D01*
X29822234Y-29338590D01*
X29823737Y-29343307D01*
X29829209Y-29370686D01*
X29833982Y-29425909D01*
X29837120Y-29452311D01*
X29838000Y-29467179D01*
X29838000Y-35869485D01*
X29817998Y-35937606D01*
X29764342Y-35984099D01*
X29739391Y-35992328D01*
X29739412Y-35992410D01*
X29738368Y-35992665D01*
X29738119Y-35992748D01*
X29737482Y-35992882D01*
X29675146Y-36010250D01*
X29675104Y-36010263D01*
X29672387Y-36011208D01*
X29672335Y-36011229D01*
X29612747Y-36036268D01*
X29612737Y-36036272D01*
X29562572Y-36061178D01*
X29516473Y-36084065D01*
X29513669Y-36085569D01*
X29510828Y-36086746D01*
X29508190Y-36088508D01*
X29502971Y-36091307D01*
X29502637Y-36091486D01*
X29487873Y-36099408D01*
X29486652Y-36100114D01*
X29412450Y-36151745D01*
X29405124Y-36157374D01*
X29390096Y-36167416D01*
X29390091Y-36167420D01*
X29287416Y-36270096D01*
X29287415Y-36270098D01*
X29206746Y-36390828D01*
X29151180Y-36524975D01*
X29151178Y-36524980D01*
X29122850Y-36667394D01*
X29122850Y-36812605D01*
X29140984Y-36903770D01*
X29151178Y-36955019D01*
X29206746Y-37089172D01*
X29287418Y-37209906D01*
X29390094Y-37312582D01*
X29510828Y-37393254D01*
X29644981Y-37448822D01*
X29787397Y-37477150D01*
X29787398Y-37477150D01*
X29932602Y-37477150D01*
X29932603Y-37477150D01*
X30075019Y-37448822D01*
X30209172Y-37393254D01*
X30329906Y-37312582D01*
X30432582Y-37209906D01*
X30473793Y-37148230D01*
X30479484Y-37140383D01*
X30496151Y-37119171D01*
X30501143Y-37112818D01*
X30528962Y-37064588D01*
X30546524Y-37031392D01*
X30547267Y-37029854D01*
X30562316Y-36995564D01*
X30582239Y-36945259D01*
X30596648Y-36903779D01*
X30597223Y-36901863D01*
X30608045Y-36859256D01*
X30615775Y-36822245D01*
X30649279Y-36759655D01*
X30649884Y-36759044D01*
X30867713Y-36541217D01*
X30868869Y-36539216D01*
X30943019Y-36410784D01*
X30972091Y-36302286D01*
X30982000Y-36265306D01*
X30982000Y-36114695D01*
X30982000Y-29553075D01*
X30987899Y-29532981D01*
X30988861Y-29512065D01*
X30999495Y-29493490D01*
X31002002Y-29484954D01*
X31005241Y-29480160D01*
X31008568Y-29475471D01*
X31016597Y-29466100D01*
X31063566Y-29407243D01*
X31076170Y-29390777D01*
X31076730Y-29390014D01*
X31116925Y-29325805D01*
X31118605Y-29321095D01*
X31133254Y-29299172D01*
X31188822Y-29165019D01*
X31217150Y-29022603D01*
X31217150Y-28877397D01*
X31202674Y-28804625D01*
X31201154Y-28795069D01*
X31196981Y-28760277D01*
X31196977Y-28760257D01*
X31182549Y-28706498D01*
X31178879Y-28694584D01*
X31171509Y-28670648D01*
X31170947Y-28669035D01*
X31157324Y-28634098D01*
X31135840Y-28584438D01*
X31116700Y-28544923D01*
X31115752Y-28543162D01*
X31093274Y-28505378D01*
X31072570Y-28473741D01*
X31052004Y-28405788D01*
X31052000Y-28404745D01*
X31052000Y-28334696D01*
X31033793Y-28266746D01*
X31013019Y-28189216D01*
X30937714Y-28058784D01*
X30831216Y-27952286D01*
X29778905Y-26899975D01*
X29744879Y-26837663D01*
X29742000Y-26810880D01*
X29742000Y-12938044D01*
X33482850Y-12938044D01*
X33482850Y-13083255D01*
X33492425Y-13131391D01*
X33511178Y-13225669D01*
X33566746Y-13359822D01*
X33647418Y-13480556D01*
X33750094Y-13583232D01*
X33870828Y-13663904D01*
X34004981Y-13719472D01*
X34147397Y-13747800D01*
X34147398Y-13747800D01*
X34292602Y-13747800D01*
X34292603Y-13747800D01*
X34435019Y-13719472D01*
X34569172Y-13663904D01*
X34689906Y-13583232D01*
X34792582Y-13480556D01*
X34873254Y-13359822D01*
X34928822Y-13225669D01*
X34957150Y-13083253D01*
X34957150Y-12938047D01*
X34957149Y-12938044D01*
X39082850Y-12938044D01*
X39082850Y-13083255D01*
X39092425Y-13131391D01*
X39111178Y-13225669D01*
X39166746Y-13359822D01*
X39247418Y-13480556D01*
X39350094Y-13583232D01*
X39470828Y-13663904D01*
X39604981Y-13719472D01*
X39747397Y-13747800D01*
X39747398Y-13747800D01*
X39892602Y-13747800D01*
X39892603Y-13747800D01*
X40035019Y-13719472D01*
X40169172Y-13663904D01*
X40289906Y-13583232D01*
X40392582Y-13480556D01*
X40473254Y-13359822D01*
X40528822Y-13225669D01*
X40557150Y-13083253D01*
X40557150Y-12938047D01*
X40528822Y-12795631D01*
X40473254Y-12661478D01*
X40392582Y-12540744D01*
X40289906Y-12438068D01*
X40169172Y-12357396D01*
X40035019Y-12301828D01*
X39996791Y-12294224D01*
X39892605Y-12273500D01*
X39892603Y-12273500D01*
X39747397Y-12273500D01*
X39747394Y-12273500D01*
X39604980Y-12301828D01*
X39604975Y-12301830D01*
X39470828Y-12357396D01*
X39350098Y-12438065D01*
X39350091Y-12438070D01*
X39247420Y-12540741D01*
X39247415Y-12540748D01*
X39166746Y-12661478D01*
X39111180Y-12795625D01*
X39111178Y-12795630D01*
X39082850Y-12938044D01*
X34957149Y-12938044D01*
X34928822Y-12795631D01*
X34873254Y-12661478D01*
X34792582Y-12540744D01*
X34689906Y-12438068D01*
X34569172Y-12357396D01*
X34435019Y-12301828D01*
X34396791Y-12294224D01*
X34292605Y-12273500D01*
X34292603Y-12273500D01*
X34147397Y-12273500D01*
X34147394Y-12273500D01*
X34004980Y-12301828D01*
X34004975Y-12301830D01*
X33870828Y-12357396D01*
X33750098Y-12438065D01*
X33750091Y-12438070D01*
X33647420Y-12540741D01*
X33647415Y-12540748D01*
X33566746Y-12661478D01*
X33511180Y-12795625D01*
X33511178Y-12795630D01*
X33482850Y-12938044D01*
X29742000Y-12938044D01*
X29742000Y-8139120D01*
X29762002Y-8070999D01*
X29778905Y-8050025D01*
X30837710Y-6991220D01*
X30837713Y-6991217D01*
X30852674Y-6965305D01*
X30903430Y-6877394D01*
X30913017Y-6860788D01*
X30913017Y-6860787D01*
X30913019Y-6860784D01*
X30952000Y-6715305D01*
X30952000Y-6055013D01*
X30972002Y-5986892D01*
X30972382Y-5986305D01*
X30994931Y-5951642D01*
X31026773Y-5895192D01*
X31028054Y-5892543D01*
X31052458Y-5832749D01*
X31086721Y-5730919D01*
X31087647Y-5727855D01*
X31088822Y-5725019D01*
X31089432Y-5721948D01*
X31095934Y-5700442D01*
X31096310Y-5699043D01*
X31111662Y-5613741D01*
X31111661Y-5613738D01*
X31112417Y-5609543D01*
X31113625Y-5600319D01*
X31117150Y-5582603D01*
X31117150Y-5437397D01*
X31088822Y-5294981D01*
X31033254Y-5160828D01*
X30952582Y-5040094D01*
X30849906Y-4937418D01*
X30729172Y-4856746D01*
X30595019Y-4801178D01*
X30590444Y-4800268D01*
X30452605Y-4772850D01*
X30452603Y-4772850D01*
X30307397Y-4772850D01*
X30307391Y-4772850D01*
X30301677Y-4773987D01*
X30230964Y-4767654D01*
X30174899Y-4724096D01*
X30151284Y-4657142D01*
X30167616Y-4588049D01*
X30172331Y-4580416D01*
X30213254Y-4519172D01*
X30268822Y-4385019D01*
X30297150Y-4242603D01*
X30297150Y-4097397D01*
X30297149Y-4097394D01*
X30295160Y-4087394D01*
X31212850Y-4087394D01*
X31212850Y-4232605D01*
X31241178Y-4375019D01*
X31241180Y-4375024D01*
X31245320Y-4385019D01*
X31296746Y-4509172D01*
X31377418Y-4629906D01*
X31480094Y-4732582D01*
X31600828Y-4813254D01*
X31734981Y-4868822D01*
X31877397Y-4897150D01*
X31877398Y-4897150D01*
X32022602Y-4897150D01*
X32022603Y-4897150D01*
X32165019Y-4868822D01*
X32299172Y-4813254D01*
X32419906Y-4732582D01*
X32522582Y-4629906D01*
X32603254Y-4509172D01*
X32658822Y-4375019D01*
X32687150Y-4232603D01*
X32687150Y-4107394D01*
X34712850Y-4107394D01*
X34712850Y-4252605D01*
X34741178Y-4395019D01*
X34741180Y-4395024D01*
X34748964Y-4413816D01*
X34796746Y-4529172D01*
X34877418Y-4649906D01*
X34980094Y-4752582D01*
X35100828Y-4833254D01*
X35234981Y-4888822D01*
X35377397Y-4917150D01*
X35377398Y-4917150D01*
X35522602Y-4917150D01*
X35522603Y-4917150D01*
X35665019Y-4888822D01*
X35799172Y-4833254D01*
X35816055Y-4821972D01*
X35883808Y-4800757D01*
X35952275Y-4819539D01*
X35975153Y-4837641D01*
X36070094Y-4932582D01*
X36190828Y-5013254D01*
X36324981Y-5068822D01*
X36467397Y-5097150D01*
X36467398Y-5097150D01*
X36612602Y-5097150D01*
X36612603Y-5097150D01*
X36755019Y-5068822D01*
X36889172Y-5013254D01*
X37009906Y-4932582D01*
X37112582Y-4829906D01*
X37193254Y-4709172D01*
X37248822Y-4575019D01*
X37248821Y-4575019D01*
X37251191Y-4569300D01*
X37253806Y-4570383D01*
X37285956Y-4521172D01*
X37350755Y-4492163D01*
X37420952Y-4502792D01*
X37474258Y-4549686D01*
X37484161Y-4568791D01*
X37496744Y-4599169D01*
X37496745Y-4599171D01*
X37528521Y-4646727D01*
X37577418Y-4719906D01*
X37680094Y-4822582D01*
X37800828Y-4903254D01*
X37934981Y-4958822D01*
X38077397Y-4987150D01*
X38077398Y-4987150D01*
X38222602Y-4987150D01*
X38222603Y-4987150D01*
X38365019Y-4958822D01*
X38499172Y-4903254D01*
X38612704Y-4827394D01*
X39412850Y-4827394D01*
X39412850Y-4972605D01*
X39436531Y-5091659D01*
X39441178Y-5115019D01*
X39496746Y-5249172D01*
X39577418Y-5369906D01*
X39680094Y-5472582D01*
X39800828Y-5553254D01*
X39934981Y-5608822D01*
X40077397Y-5637150D01*
X40077398Y-5637150D01*
X40222602Y-5637150D01*
X40222603Y-5637150D01*
X40365019Y-5608822D01*
X40365021Y-5608820D01*
X40371089Y-5607614D01*
X40371631Y-5610342D01*
X40430620Y-5609782D01*
X40490708Y-5647596D01*
X40512681Y-5682791D01*
X40556746Y-5789172D01*
X40637418Y-5909906D01*
X40740094Y-6012582D01*
X40860828Y-6093254D01*
X40994981Y-6148822D01*
X41137397Y-6177150D01*
X41137398Y-6177150D01*
X41282602Y-6177150D01*
X41282603Y-6177150D01*
X41425019Y-6148822D01*
X41559172Y-6093254D01*
X41679906Y-6012582D01*
X41782582Y-5909906D01*
X41863254Y-5789172D01*
X41918822Y-5655019D01*
X41947150Y-5512603D01*
X41947150Y-5367397D01*
X41918822Y-5224981D01*
X41863254Y-5090828D01*
X41782582Y-4970094D01*
X41679906Y-4867418D01*
X41559172Y-4786746D01*
X41444507Y-4739250D01*
X41425024Y-4731180D01*
X41425019Y-4731178D01*
X41282605Y-4702850D01*
X41282603Y-4702850D01*
X41137397Y-4702850D01*
X41137394Y-4702850D01*
X41064264Y-4717396D01*
X40994981Y-4731178D01*
X40994978Y-4731179D01*
X40988911Y-4732386D01*
X40988377Y-4729702D01*
X40929139Y-4730149D01*
X40869126Y-4692216D01*
X40847318Y-4657210D01*
X40803254Y-4550828D01*
X40722582Y-4430094D01*
X40619906Y-4327418D01*
X40499172Y-4246746D01*
X40365019Y-4191178D01*
X40222605Y-4162850D01*
X40222603Y-4162850D01*
X40077397Y-4162850D01*
X40077394Y-4162850D01*
X39934980Y-4191178D01*
X39934975Y-4191180D01*
X39800828Y-4246746D01*
X39680098Y-4327415D01*
X39680091Y-4327420D01*
X39577420Y-4430091D01*
X39577415Y-4430098D01*
X39496746Y-4550828D01*
X39441180Y-4684975D01*
X39441178Y-4684980D01*
X39412850Y-4827394D01*
X38612704Y-4827394D01*
X38619906Y-4822582D01*
X38722582Y-4719906D01*
X38803254Y-4599172D01*
X38858822Y-4465019D01*
X38887150Y-4322603D01*
X38887150Y-4177397D01*
X38858822Y-4034981D01*
X38803254Y-3900828D01*
X38722582Y-3780094D01*
X38619906Y-3677418D01*
X38499172Y-3596746D01*
X38365019Y-3541178D01*
X38222605Y-3512850D01*
X38222603Y-3512850D01*
X38077397Y-3512850D01*
X38077394Y-3512850D01*
X37934980Y-3541178D01*
X37934975Y-3541180D01*
X37800828Y-3596746D01*
X37680098Y-3677415D01*
X37680091Y-3677420D01*
X37577420Y-3780091D01*
X37577415Y-3780098D01*
X37496746Y-3900828D01*
X37438809Y-4040700D01*
X37436244Y-4039637D01*
X37403817Y-4089020D01*
X37338949Y-4117876D01*
X37268778Y-4107081D01*
X37215583Y-4060062D01*
X37205837Y-4041206D01*
X37204961Y-4039091D01*
X37193254Y-4010828D01*
X37112582Y-3890094D01*
X37009906Y-3787418D01*
X36889172Y-3706746D01*
X36755019Y-3651178D01*
X36725212Y-3645249D01*
X36612605Y-3622850D01*
X36612603Y-3622850D01*
X36467397Y-3622850D01*
X36467394Y-3622850D01*
X36324980Y-3651178D01*
X36324975Y-3651180D01*
X36190828Y-3706746D01*
X36173939Y-3718030D01*
X36106185Y-3739242D01*
X36037719Y-3720456D01*
X36014846Y-3702358D01*
X35969637Y-3657149D01*
X35919906Y-3607418D01*
X35799172Y-3526746D01*
X35665019Y-3471178D01*
X35663259Y-3470828D01*
X35522605Y-3442850D01*
X35522603Y-3442850D01*
X35377397Y-3442850D01*
X35377394Y-3442850D01*
X35234980Y-3471178D01*
X35234975Y-3471180D01*
X35100828Y-3526746D01*
X34980098Y-3607415D01*
X34980091Y-3607420D01*
X34877420Y-3710091D01*
X34877415Y-3710098D01*
X34796746Y-3830828D01*
X34741180Y-3964975D01*
X34741178Y-3964980D01*
X34712850Y-4107394D01*
X32687150Y-4107394D01*
X32687150Y-4087397D01*
X32658822Y-3944981D01*
X32603254Y-3810828D01*
X32522582Y-3690094D01*
X32419906Y-3587418D01*
X32299172Y-3506746D01*
X32165019Y-3451178D01*
X32123151Y-3442850D01*
X32022605Y-3422850D01*
X32022603Y-3422850D01*
X31877397Y-3422850D01*
X31877394Y-3422850D01*
X31734980Y-3451178D01*
X31734975Y-3451180D01*
X31600828Y-3506746D01*
X31480098Y-3587415D01*
X31480091Y-3587420D01*
X31377420Y-3690091D01*
X31377415Y-3690098D01*
X31296746Y-3810828D01*
X31241180Y-3944975D01*
X31241178Y-3944980D01*
X31212850Y-4087394D01*
X30295160Y-4087394D01*
X30290278Y-4062850D01*
X30268822Y-3954981D01*
X30213254Y-3820828D01*
X30132582Y-3700094D01*
X30029906Y-3597418D01*
X29909172Y-3516746D01*
X29775019Y-3461178D01*
X29771520Y-3460482D01*
X29632605Y-3432850D01*
X29632603Y-3432850D01*
X29487397Y-3432850D01*
X29487394Y-3432850D01*
X29344980Y-3461178D01*
X29344975Y-3461180D01*
X29210828Y-3516746D01*
X29090098Y-3597415D01*
X29090091Y-3597420D01*
X28987420Y-3700091D01*
X28987415Y-3700098D01*
X28906746Y-3820828D01*
X28851180Y-3954975D01*
X28851178Y-3954980D01*
X28822850Y-4097394D01*
X28822850Y-4242605D01*
X28848708Y-4372601D01*
X28851178Y-4385019D01*
X28906746Y-4519172D01*
X28987418Y-4639906D01*
X28987420Y-4639908D01*
X28994239Y-4646727D01*
X29028265Y-4709039D01*
X29023200Y-4779854D01*
X28980653Y-4836690D01*
X28975147Y-4840587D01*
X28890094Y-4897418D01*
X28890091Y-4897420D01*
X28787420Y-5000091D01*
X28787415Y-5000098D01*
X28706746Y-5120828D01*
X28651180Y-5254975D01*
X28651178Y-5254980D01*
X28622850Y-5397394D01*
X28622850Y-5542607D01*
X28630806Y-5582602D01*
X28636323Y-5610342D01*
X28637315Y-5615326D01*
X28638839Y-5624898D01*
X28643016Y-5659715D01*
X28643017Y-5659723D01*
X28657453Y-5713516D01*
X28668573Y-5749594D01*
X28669136Y-5751207D01*
X28682661Y-5785869D01*
X28682671Y-5785892D01*
X28699796Y-5825478D01*
X28704164Y-5835573D01*
X28723188Y-5874871D01*
X28723192Y-5874878D01*
X28724132Y-5876626D01*
X28746719Y-5914613D01*
X28767428Y-5946258D01*
X28787996Y-6014207D01*
X28788000Y-6015255D01*
X28788000Y-6600880D01*
X28767998Y-6669001D01*
X28751095Y-6689975D01*
X28138784Y-7302286D01*
X28089886Y-7351184D01*
X28032287Y-7408782D01*
X28032283Y-7408787D01*
X27956983Y-7539211D01*
X27956980Y-7539218D01*
X27939822Y-7603253D01*
X27924934Y-7658819D01*
X27918000Y-7684696D01*
X27918000Y-18670879D01*
X27897998Y-18739000D01*
X27881095Y-18759974D01*
X26538120Y-20102948D01*
X26521107Y-20112237D01*
X26507120Y-20125661D01*
X26482414Y-20133366D01*
X26475808Y-20136974D01*
X26473267Y-20137499D01*
X26469047Y-20138326D01*
X26423555Y-20144063D01*
X26406071Y-20146574D01*
X26405308Y-20146697D01*
X26335380Y-20163057D01*
X26330201Y-20165511D01*
X26317454Y-20168046D01*
X26317213Y-20168094D01*
X26304982Y-20170527D01*
X26170827Y-20226096D01*
X26050098Y-20306765D01*
X26050091Y-20306770D01*
X25947420Y-20409441D01*
X25947415Y-20409448D01*
X25866746Y-20530178D01*
X25811180Y-20664325D01*
X25811178Y-20664330D01*
X25782850Y-20806744D01*
X23977150Y-20806744D01*
X23977150Y-20757397D01*
X23948822Y-20614981D01*
X23893254Y-20480828D01*
X23812582Y-20360094D01*
X23709906Y-20257418D01*
X23589172Y-20176746D01*
X23455019Y-20121178D01*
X23413151Y-20112850D01*
X23312605Y-20092850D01*
X23312603Y-20092850D01*
X23167397Y-20092850D01*
X23167394Y-20092850D01*
X23024980Y-20121178D01*
X23024975Y-20121180D01*
X22890828Y-20176746D01*
X22770098Y-20257415D01*
X22770091Y-20257420D01*
X22667420Y-20360091D01*
X22667415Y-20360098D01*
X22586746Y-20480828D01*
X22531180Y-20614975D01*
X22531178Y-20614980D01*
X22502850Y-20757394D01*
X18953171Y-20757394D01*
X18928822Y-20634981D01*
X18873254Y-20500828D01*
X18792582Y-20380094D01*
X18689906Y-20277418D01*
X18569172Y-20196746D01*
X18435019Y-20141178D01*
X18292605Y-20112850D01*
X18292603Y-20112850D01*
X18147397Y-20112850D01*
X18147394Y-20112850D01*
X18004980Y-20141178D01*
X18004975Y-20141180D01*
X17870829Y-20196745D01*
X17847484Y-20212344D01*
X17779731Y-20233558D01*
X17711264Y-20214774D01*
X17707482Y-20212344D01*
X17684138Y-20196746D01*
X17669172Y-20186746D01*
X17630018Y-20170528D01*
X17535024Y-20131180D01*
X17535019Y-20131178D01*
X17392605Y-20102850D01*
X17392603Y-20102850D01*
X17247397Y-20102850D01*
X17247394Y-20102850D01*
X17104980Y-20131178D01*
X17104975Y-20131180D01*
X16970829Y-20186745D01*
X16940001Y-20207344D01*
X16872248Y-20228558D01*
X16803781Y-20209774D01*
X16799999Y-20207344D01*
X16784138Y-20196746D01*
X16769172Y-20186746D01*
X16730018Y-20170528D01*
X16635024Y-20131180D01*
X16635019Y-20131178D01*
X16492605Y-20102850D01*
X16492603Y-20102850D01*
X16347397Y-20102850D01*
X16347394Y-20102850D01*
X16204980Y-20131178D01*
X16204975Y-20131180D01*
X16070829Y-20186745D01*
X16040001Y-20207344D01*
X15972248Y-20228558D01*
X15915595Y-20216227D01*
X15907478Y-20212341D01*
X15869172Y-20186746D01*
X15756655Y-20140140D01*
X15753595Y-20138675D01*
X15729605Y-20117116D01*
X15704501Y-20096886D01*
X15703394Y-20093562D01*
X15700788Y-20091220D01*
X15692264Y-20060122D01*
X15682080Y-20029523D01*
X15682000Y-20025026D01*
X15682000Y-12977394D01*
X17212850Y-12977394D01*
X17212850Y-13122605D01*
X17235710Y-13237528D01*
X17241178Y-13265019D01*
X17296746Y-13399172D01*
X17377418Y-13519906D01*
X17480094Y-13622582D01*
X17600828Y-13703254D01*
X17734981Y-13758822D01*
X17877397Y-13787150D01*
X17877398Y-13787150D01*
X18022602Y-13787150D01*
X18022603Y-13787150D01*
X18165019Y-13758822D01*
X18299172Y-13703254D01*
X18419906Y-13622582D01*
X18522582Y-13519906D01*
X18603254Y-13399172D01*
X18658822Y-13265019D01*
X18687150Y-13122603D01*
X18687150Y-12977397D01*
X18687149Y-12977394D01*
X21622850Y-12977394D01*
X21622850Y-13122605D01*
X21645710Y-13237528D01*
X21651178Y-13265019D01*
X21706746Y-13399172D01*
X21787418Y-13519906D01*
X21890094Y-13622582D01*
X22010828Y-13703254D01*
X22144981Y-13758822D01*
X22287397Y-13787150D01*
X22287398Y-13787150D01*
X22432602Y-13787150D01*
X22432603Y-13787150D01*
X22575019Y-13758822D01*
X22709172Y-13703254D01*
X22829906Y-13622582D01*
X22932582Y-13519906D01*
X23013254Y-13399172D01*
X23068822Y-13265019D01*
X23097150Y-13122603D01*
X23097150Y-12977397D01*
X23068822Y-12834981D01*
X23013254Y-12700828D01*
X22932582Y-12580094D01*
X22829906Y-12477418D01*
X22709172Y-12396746D01*
X22575019Y-12341178D01*
X22533151Y-12332850D01*
X22432605Y-12312850D01*
X22432603Y-12312850D01*
X22287397Y-12312850D01*
X22287394Y-12312850D01*
X22144980Y-12341178D01*
X22144975Y-12341180D01*
X22010828Y-12396746D01*
X21890098Y-12477415D01*
X21890091Y-12477420D01*
X21787420Y-12580091D01*
X21787415Y-12580098D01*
X21706746Y-12700828D01*
X21651180Y-12834975D01*
X21651178Y-12834980D01*
X21622850Y-12977394D01*
X18687149Y-12977394D01*
X18658822Y-12834981D01*
X18603254Y-12700828D01*
X18522582Y-12580094D01*
X18419906Y-12477418D01*
X18299172Y-12396746D01*
X18165019Y-12341178D01*
X18123151Y-12332850D01*
X18022605Y-12312850D01*
X18022603Y-12312850D01*
X17877397Y-12312850D01*
X17877394Y-12312850D01*
X17734980Y-12341178D01*
X17734975Y-12341180D01*
X17600828Y-12396746D01*
X17480098Y-12477415D01*
X17480091Y-12477420D01*
X17377420Y-12580091D01*
X17377415Y-12580098D01*
X17296746Y-12700828D01*
X17241180Y-12834975D01*
X17241178Y-12834980D01*
X17212850Y-12977394D01*
X15682000Y-12977394D01*
X15682000Y-7384696D01*
X15682000Y-7384695D01*
X15643019Y-7239216D01*
X15643018Y-7239214D01*
X15643017Y-7239210D01*
X15627307Y-7212001D01*
X15627306Y-7212000D01*
X15567716Y-7108786D01*
X15567708Y-7108776D01*
X13263666Y-4804736D01*
X13229641Y-4742424D01*
X13230716Y-4727394D01*
X13932850Y-4727394D01*
X13932850Y-4872605D01*
X13958209Y-5000091D01*
X13961178Y-5015019D01*
X14016746Y-5149172D01*
X14097418Y-5269906D01*
X14200094Y-5372582D01*
X14320828Y-5453254D01*
X14454981Y-5508822D01*
X14597397Y-5537150D01*
X14597398Y-5537150D01*
X14742602Y-5537150D01*
X14742603Y-5537150D01*
X14885019Y-5508822D01*
X15019172Y-5453254D01*
X15139906Y-5372582D01*
X15242582Y-5269906D01*
X15323254Y-5149172D01*
X15378822Y-5015019D01*
X15407150Y-4872603D01*
X15407150Y-4727397D01*
X15378822Y-4584981D01*
X15323254Y-4450828D01*
X15242582Y-4330094D01*
X15139906Y-4227418D01*
X15139870Y-4227394D01*
X15812850Y-4227394D01*
X15812850Y-4372605D01*
X15841178Y-4515019D01*
X15841180Y-4515024D01*
X15844328Y-4522623D01*
X15896746Y-4649172D01*
X15977418Y-4769906D01*
X16080094Y-4872582D01*
X16200828Y-4953254D01*
X16334981Y-5008822D01*
X16477397Y-5037150D01*
X16477398Y-5037150D01*
X16622602Y-5037150D01*
X16622603Y-5037150D01*
X16654259Y-5030853D01*
X16724971Y-5037180D01*
X16781039Y-5080734D01*
X16804659Y-5147686D01*
X16802419Y-5179013D01*
X16782850Y-5277391D01*
X16782850Y-5422605D01*
X16805773Y-5537848D01*
X16811178Y-5565019D01*
X16866746Y-5699172D01*
X16947418Y-5819906D01*
X17050094Y-5922582D01*
X17170828Y-6003254D01*
X17304981Y-6058822D01*
X17447397Y-6087150D01*
X17447398Y-6087150D01*
X17592602Y-6087150D01*
X17592603Y-6087150D01*
X17735019Y-6058822D01*
X17869172Y-6003254D01*
X17989906Y-5922582D01*
X18092582Y-5819906D01*
X18173254Y-5699172D01*
X18228822Y-5565019D01*
X18257150Y-5422603D01*
X18257150Y-5277397D01*
X18228822Y-5134981D01*
X18173254Y-5000828D01*
X18092582Y-4880094D01*
X17989906Y-4777418D01*
X17869172Y-4696746D01*
X17754316Y-4649171D01*
X17735024Y-4641180D01*
X17735019Y-4641178D01*
X17592605Y-4612850D01*
X17592603Y-4612850D01*
X17447397Y-4612850D01*
X17447389Y-4612850D01*
X17415739Y-4619146D01*
X17345025Y-4612817D01*
X17288958Y-4569262D01*
X17265340Y-4502309D01*
X17267579Y-4470991D01*
X17287150Y-4372603D01*
X17287150Y-4227397D01*
X17258822Y-4084981D01*
X17203254Y-3950828D01*
X17122582Y-3830094D01*
X17019906Y-3727418D01*
X16899172Y-3646746D01*
X16765019Y-3591178D01*
X16746101Y-3587415D01*
X16622605Y-3562850D01*
X16622603Y-3562850D01*
X16477397Y-3562850D01*
X16477394Y-3562850D01*
X16334980Y-3591178D01*
X16334975Y-3591180D01*
X16200828Y-3646746D01*
X16080098Y-3727415D01*
X16080091Y-3727420D01*
X15977420Y-3830091D01*
X15977415Y-3830098D01*
X15896746Y-3950828D01*
X15841180Y-4084975D01*
X15841178Y-4084980D01*
X15812850Y-4227394D01*
X15139870Y-4227394D01*
X15019172Y-4146746D01*
X14885019Y-4091178D01*
X14874170Y-4089020D01*
X14742605Y-4062850D01*
X14742603Y-4062850D01*
X14597397Y-4062850D01*
X14597394Y-4062850D01*
X14454980Y-4091178D01*
X14454975Y-4091180D01*
X14320828Y-4146746D01*
X14200098Y-4227415D01*
X14200096Y-4227416D01*
X14103809Y-4323702D01*
X14103807Y-4323704D01*
X14097418Y-4330094D01*
X14016746Y-4450828D01*
X14006970Y-4474429D01*
X14006967Y-4474434D01*
X13961180Y-4584975D01*
X13961178Y-4584980D01*
X13932850Y-4727394D01*
X13230716Y-4727394D01*
X13234705Y-4671609D01*
X13277252Y-4614773D01*
X13328178Y-4592062D01*
X13445019Y-4568822D01*
X13579172Y-4513254D01*
X13699906Y-4432582D01*
X13802582Y-4329906D01*
X13883254Y-4209172D01*
X13938822Y-4075019D01*
X13967150Y-3932603D01*
X13967150Y-3787397D01*
X13938822Y-3644981D01*
X13883254Y-3510828D01*
X13827505Y-3427394D01*
X17822850Y-3427394D01*
X17822850Y-3572605D01*
X17846220Y-3690094D01*
X17851178Y-3715019D01*
X17906746Y-3849172D01*
X17987418Y-3969906D01*
X18090094Y-4072582D01*
X18210828Y-4153254D01*
X18344981Y-4208822D01*
X18344992Y-4208824D01*
X18350898Y-4210616D01*
X18350255Y-4212735D01*
X18404325Y-4241007D01*
X18439468Y-4302696D01*
X18442850Y-4331694D01*
X18442850Y-4442605D01*
X18471178Y-4585019D01*
X18471180Y-4585024D01*
X18474770Y-4593691D01*
X18526746Y-4719172D01*
X18607418Y-4839906D01*
X18710094Y-4942582D01*
X18830828Y-5023254D01*
X18964981Y-5078822D01*
X19107397Y-5107150D01*
X19107398Y-5107150D01*
X19252602Y-5107150D01*
X19252603Y-5107150D01*
X19395019Y-5078822D01*
X19529172Y-5023254D01*
X19649906Y-4942582D01*
X19752582Y-4839906D01*
X19833254Y-4719172D01*
X19888822Y-4585019D01*
X19917150Y-4442603D01*
X19917150Y-4297397D01*
X19917149Y-4297394D01*
X21522850Y-4297394D01*
X21522850Y-4442605D01*
X21551178Y-4585019D01*
X21551180Y-4585024D01*
X21554770Y-4593691D01*
X21606746Y-4719172D01*
X21687418Y-4839906D01*
X21790094Y-4942582D01*
X21910828Y-5023254D01*
X22044981Y-5078822D01*
X22187397Y-5107150D01*
X22187398Y-5107150D01*
X22332602Y-5107150D01*
X22332603Y-5107150D01*
X22475019Y-5078822D01*
X22609172Y-5023254D01*
X22729906Y-4942582D01*
X22832582Y-4839906D01*
X22853445Y-4808683D01*
X23475252Y-4808683D01*
X23477259Y-4888819D01*
X23477518Y-4899163D01*
X23478000Y-4906159D01*
X23478000Y-12215305D01*
X23489971Y-12259980D01*
X23516980Y-12360782D01*
X23516983Y-12360789D01*
X23544734Y-12408854D01*
X23544736Y-12408857D01*
X23544737Y-12408858D01*
X23592286Y-12491216D01*
X24170150Y-13069080D01*
X24204174Y-13131391D01*
X24204321Y-13132071D01*
X24212888Y-13172531D01*
X24230213Y-13234742D01*
X24230220Y-13234764D01*
X24231179Y-13237522D01*
X24231186Y-13237541D01*
X24256278Y-13297271D01*
X24256286Y-13297290D01*
X24303418Y-13392224D01*
X24303433Y-13392253D01*
X24304062Y-13393519D01*
X24305568Y-13396330D01*
X24306746Y-13399172D01*
X24308496Y-13401792D01*
X24311379Y-13407170D01*
X24311380Y-13407171D01*
X24319243Y-13421840D01*
X24319953Y-13423071D01*
X24319956Y-13423074D01*
X24371728Y-13497526D01*
X24377377Y-13504879D01*
X24381561Y-13511140D01*
X24387418Y-13519906D01*
X24490094Y-13622582D01*
X24610828Y-13703254D01*
X24744981Y-13758822D01*
X24887397Y-13787150D01*
X24887398Y-13787150D01*
X25032602Y-13787150D01*
X25032603Y-13787150D01*
X25175019Y-13758822D01*
X25309172Y-13703254D01*
X25429906Y-13622582D01*
X25532582Y-13519906D01*
X25532587Y-13519897D01*
X25536513Y-13515116D01*
X25538361Y-13516633D01*
X25584689Y-13477900D01*
X25655130Y-13469038D01*
X25719180Y-13499667D01*
X25732953Y-13515562D01*
X25733491Y-13515121D01*
X25737417Y-13519905D01*
X25737418Y-13519906D01*
X25840094Y-13622582D01*
X25960828Y-13703254D01*
X26094981Y-13758822D01*
X26237397Y-13787150D01*
X26237398Y-13787150D01*
X26382602Y-13787150D01*
X26382603Y-13787150D01*
X26525019Y-13758822D01*
X26659172Y-13703254D01*
X26779906Y-13622582D01*
X26882582Y-13519906D01*
X26963254Y-13399172D01*
X27018822Y-13265019D01*
X27047150Y-13122603D01*
X27047150Y-12977397D01*
X27018822Y-12834981D01*
X26963254Y-12700828D01*
X26882582Y-12580094D01*
X26779906Y-12477418D01*
X26779903Y-12477416D01*
X26737482Y-12449071D01*
X26718239Y-12436213D01*
X26710397Y-12430525D01*
X26692861Y-12416746D01*
X26682822Y-12408858D01*
X26644491Y-12386748D01*
X26634601Y-12381043D01*
X26601267Y-12363414D01*
X26599734Y-12362674D01*
X26565555Y-12347679D01*
X26515268Y-12327763D01*
X26515258Y-12327759D01*
X26473750Y-12313341D01*
X26473743Y-12313339D01*
X26473729Y-12313334D01*
X26471861Y-12312773D01*
X26429263Y-12301955D01*
X26419686Y-12299955D01*
X26392241Y-12294222D01*
X26329652Y-12260717D01*
X26328910Y-12259980D01*
X25618905Y-11549975D01*
X25584879Y-11487663D01*
X25582000Y-11460880D01*
X25582000Y-6629120D01*
X25602002Y-6560999D01*
X25618900Y-6540029D01*
X27187714Y-4971217D01*
X27241058Y-4878822D01*
X27258125Y-4849261D01*
X27309507Y-4800268D01*
X27379221Y-4786832D01*
X27437243Y-4807495D01*
X27460828Y-4823254D01*
X27594981Y-4878822D01*
X27737397Y-4907150D01*
X27737398Y-4907150D01*
X27882602Y-4907150D01*
X27882603Y-4907150D01*
X28025019Y-4878822D01*
X28159172Y-4823254D01*
X28279906Y-4742582D01*
X28382582Y-4639906D01*
X28463254Y-4519172D01*
X28518822Y-4385019D01*
X28547150Y-4242603D01*
X28547150Y-4097397D01*
X28518822Y-3954981D01*
X28463254Y-3820828D01*
X28382582Y-3700094D01*
X28279906Y-3597418D01*
X28159172Y-3516746D01*
X28025019Y-3461178D01*
X28021520Y-3460482D01*
X27882605Y-3432850D01*
X27882603Y-3432850D01*
X27791125Y-3432850D01*
X27723004Y-3412848D01*
X27676511Y-3359192D01*
X27674716Y-3355068D01*
X27651418Y-3298822D01*
X27623254Y-3230828D01*
X27542582Y-3110094D01*
X27439906Y-3007418D01*
X27382032Y-2968748D01*
X27347946Y-2945972D01*
X27337188Y-2938784D01*
X27319172Y-2926746D01*
X27185019Y-2871178D01*
X27171430Y-2868475D01*
X27065449Y-2847394D01*
X39532850Y-2847394D01*
X39532850Y-2992605D01*
X39556220Y-3110094D01*
X39561178Y-3135019D01*
X39616746Y-3269172D01*
X39697418Y-3389906D01*
X39800094Y-3492582D01*
X39920828Y-3573254D01*
X40054981Y-3628822D01*
X40197397Y-3657150D01*
X40197398Y-3657150D01*
X40342602Y-3657150D01*
X40342603Y-3657150D01*
X40485019Y-3628822D01*
X40619172Y-3573254D01*
X40739906Y-3492582D01*
X40842582Y-3389906D01*
X40923254Y-3269172D01*
X40978822Y-3135019D01*
X41007150Y-2992603D01*
X41007150Y-2847397D01*
X40978822Y-2704981D01*
X40923254Y-2570828D01*
X40842582Y-2450094D01*
X40739906Y-2347418D01*
X40619172Y-2266746D01*
X40485019Y-2211178D01*
X40342605Y-2182850D01*
X40342603Y-2182850D01*
X40197397Y-2182850D01*
X40197394Y-2182850D01*
X40054980Y-2211178D01*
X40054975Y-2211180D01*
X39920828Y-2266746D01*
X39800098Y-2347415D01*
X39800091Y-2347420D01*
X39697420Y-2450091D01*
X39697415Y-2450098D01*
X39616746Y-2570828D01*
X39561180Y-2704975D01*
X39561178Y-2704980D01*
X39532850Y-2847394D01*
X27065449Y-2847394D01*
X27042605Y-2842850D01*
X27042603Y-2842850D01*
X26897397Y-2842850D01*
X26897394Y-2842850D01*
X26754980Y-2871178D01*
X26754975Y-2871180D01*
X26620828Y-2926746D01*
X26500098Y-3007415D01*
X26500096Y-3007416D01*
X26443783Y-3063729D01*
X26381470Y-3097754D01*
X26330107Y-3098211D01*
X26252877Y-3082850D01*
X26202605Y-3072850D01*
X26202603Y-3072850D01*
X26057397Y-3072850D01*
X26057394Y-3072850D01*
X25914980Y-3101178D01*
X25914975Y-3101180D01*
X25780828Y-3156746D01*
X25660098Y-3237415D01*
X25660091Y-3237420D01*
X25557420Y-3340091D01*
X25557415Y-3340098D01*
X25476746Y-3460828D01*
X25421180Y-3594975D01*
X25421178Y-3594980D01*
X25392850Y-3737394D01*
X25392850Y-3882605D01*
X25409236Y-3964981D01*
X25421178Y-4025019D01*
X25476746Y-4159172D01*
X25557418Y-4279906D01*
X25660094Y-4382582D01*
X25745321Y-4439529D01*
X25780828Y-4463254D01*
X25780830Y-4463255D01*
X25816609Y-4478075D01*
X25871891Y-4522623D01*
X25894312Y-4589986D01*
X25876754Y-4658777D01*
X25857488Y-4683579D01*
X24837096Y-5703973D01*
X24774783Y-5737998D01*
X24703968Y-5732934D01*
X24647132Y-5690387D01*
X24622321Y-5623867D01*
X24622000Y-5614878D01*
X24622000Y-5263273D01*
X24624087Y-5256162D01*
X24622827Y-5248859D01*
X24633955Y-5222556D01*
X24642002Y-5195152D01*
X24648283Y-5188690D01*
X24650491Y-5183474D01*
X24665252Y-5171237D01*
X24676922Y-5159235D01*
X24682123Y-5155681D01*
X24695032Y-5148640D01*
X24696203Y-5147957D01*
X24765836Y-5099197D01*
X24767498Y-5097354D01*
X24775835Y-5091659D01*
X24776064Y-5091584D01*
X24776908Y-5090933D01*
X24790906Y-5081582D01*
X24893582Y-4978906D01*
X24974254Y-4858172D01*
X25029822Y-4724019D01*
X25058150Y-4581603D01*
X25058150Y-4436397D01*
X25029822Y-4293981D01*
X24974254Y-4159828D01*
X24893582Y-4039094D01*
X24790906Y-3936418D01*
X24670172Y-3855746D01*
X24536019Y-3800178D01*
X24393605Y-3771850D01*
X24393603Y-3771850D01*
X24248397Y-3771850D01*
X24248394Y-3771850D01*
X24105980Y-3800178D01*
X24105975Y-3800180D01*
X23971828Y-3855746D01*
X23851098Y-3936415D01*
X23851091Y-3936420D01*
X23748420Y-4039091D01*
X23748415Y-4039098D01*
X23667746Y-4159827D01*
X23639750Y-4227416D01*
X23612179Y-4293980D01*
X23612177Y-4293984D01*
X23612161Y-4294065D01*
X23608505Y-4308138D01*
X23605915Y-4316171D01*
X23603479Y-4321273D01*
X23578705Y-4400573D01*
X23578501Y-4401209D01*
X23578326Y-4401465D01*
X23572819Y-4415702D01*
X23567716Y-4426669D01*
X23567468Y-4427221D01*
X23561784Y-4440377D01*
X23527658Y-4522514D01*
X23504824Y-4590544D01*
X23504011Y-4593680D01*
X23504008Y-4593691D01*
X23496416Y-4634489D01*
X23494250Y-4644044D01*
X23478000Y-4704692D01*
X23478000Y-4770797D01*
X23477635Y-4779313D01*
X23477674Y-4779859D01*
X23477614Y-4780689D01*
X23475328Y-4807352D01*
X23475252Y-4808683D01*
X22853445Y-4808683D01*
X22913254Y-4719172D01*
X22968822Y-4585019D01*
X22997150Y-4442603D01*
X22997150Y-4297397D01*
X22968822Y-4154981D01*
X22913254Y-4020828D01*
X22832582Y-3900094D01*
X22729906Y-3797418D01*
X22609172Y-3716746D01*
X22475021Y-3661179D01*
X22475019Y-3661178D01*
X22332605Y-3632850D01*
X22332603Y-3632850D01*
X22187397Y-3632850D01*
X22187394Y-3632850D01*
X22044980Y-3661178D01*
X22044975Y-3661180D01*
X21910828Y-3716746D01*
X21790098Y-3797415D01*
X21790091Y-3797420D01*
X21687420Y-3900091D01*
X21687415Y-3900098D01*
X21606746Y-4020828D01*
X21551180Y-4154975D01*
X21551178Y-4154980D01*
X21522850Y-4297394D01*
X19917149Y-4297394D01*
X19888822Y-4154981D01*
X19833254Y-4020828D01*
X19752582Y-3900094D01*
X19649906Y-3797418D01*
X19529172Y-3716746D01*
X19395024Y-3661180D01*
X19395022Y-3661179D01*
X19389100Y-3659383D01*
X19389740Y-3657270D01*
X19335647Y-3628965D01*
X19300523Y-3567265D01*
X19297150Y-3538305D01*
X19297150Y-3427398D01*
X19297149Y-3427394D01*
X19268822Y-3284981D01*
X19213254Y-3150828D01*
X19132582Y-3030094D01*
X19029906Y-2927418D01*
X18909172Y-2846746D01*
X18775019Y-2791178D01*
X18632605Y-2762850D01*
X18632603Y-2762850D01*
X18487397Y-2762850D01*
X18487394Y-2762850D01*
X18344980Y-2791178D01*
X18344975Y-2791180D01*
X18210828Y-2846746D01*
X18090098Y-2927415D01*
X18090091Y-2927420D01*
X17987420Y-3030091D01*
X17987415Y-3030098D01*
X17906746Y-3150828D01*
X17851180Y-3284975D01*
X17851178Y-3284980D01*
X17822850Y-3427394D01*
X13827505Y-3427394D01*
X13802582Y-3390094D01*
X13699906Y-3287418D01*
X13579172Y-3206746D01*
X13445019Y-3151178D01*
X13422738Y-3146746D01*
X13302605Y-3122850D01*
X13302603Y-3122850D01*
X13157397Y-3122850D01*
X13157394Y-3122850D01*
X13014980Y-3151178D01*
X13014975Y-3151180D01*
X12880828Y-3206746D01*
X12760098Y-3287415D01*
X12760091Y-3287420D01*
X12657420Y-3390091D01*
X12657415Y-3390098D01*
X12576746Y-3510828D01*
X12521180Y-3644975D01*
X12521178Y-3644980D01*
X12497937Y-3761820D01*
X12493150Y-3770969D01*
X12492414Y-3781270D01*
X12476973Y-3801896D01*
X12465029Y-3824730D01*
X12456054Y-3829840D01*
X12449867Y-3838106D01*
X12425726Y-3847110D01*
X12403334Y-3859861D01*
X12393022Y-3859308D01*
X12383347Y-3862917D01*
X12358169Y-3857440D01*
X12332439Y-3856061D01*
X12322216Y-3849619D01*
X12313973Y-3847826D01*
X12285263Y-3826333D01*
X12269849Y-3810919D01*
X12235823Y-3748607D01*
X12235677Y-3747925D01*
X12227110Y-3707466D01*
X12209783Y-3645249D01*
X12209689Y-3644980D01*
X12208819Y-3642476D01*
X12208817Y-3642470D01*
X12183722Y-3582730D01*
X12135944Y-3486493D01*
X12134432Y-3483672D01*
X12133254Y-3480828D01*
X12131503Y-3478207D01*
X12128569Y-3472733D01*
X12120800Y-3458238D01*
X12120080Y-3456990D01*
X12120077Y-3456986D01*
X12120075Y-3456982D01*
X12070717Y-3385991D01*
X12070715Y-3385989D01*
X12068272Y-3382475D01*
X12062624Y-3375122D01*
X12052583Y-3360096D01*
X12052583Y-3360095D01*
X12015056Y-3322568D01*
X11949906Y-3257418D01*
X11829172Y-3176746D01*
X11695019Y-3121178D01*
X11689650Y-3120110D01*
X11552605Y-3092850D01*
X11552603Y-3092850D01*
X11407397Y-3092850D01*
X11407394Y-3092850D01*
X11264980Y-3121178D01*
X11264975Y-3121180D01*
X11130828Y-3176746D01*
X11004947Y-3260857D01*
X11004234Y-3259790D01*
X10945044Y-3284930D01*
X10875065Y-3272949D01*
X10844733Y-3251281D01*
X10844685Y-3251341D01*
X10843803Y-3250617D01*
X10841360Y-3248872D01*
X10839908Y-3247420D01*
X10839906Y-3247418D01*
X10719172Y-3166746D01*
X10585019Y-3111178D01*
X10579554Y-3110091D01*
X10442605Y-3082850D01*
X10442603Y-3082850D01*
X10297397Y-3082850D01*
X10297394Y-3082850D01*
X10154980Y-3111178D01*
X10154975Y-3111180D01*
X10020828Y-3166746D01*
X9900098Y-3247415D01*
X9900091Y-3247420D01*
X9797420Y-3350091D01*
X9797418Y-3350094D01*
X9756449Y-3411408D01*
X9701971Y-3456935D01*
X9631528Y-3465782D01*
X9603466Y-3457814D01*
X9515024Y-3421180D01*
X9515019Y-3421178D01*
X9372605Y-3392850D01*
X9372603Y-3392850D01*
X9227397Y-3392850D01*
X9227394Y-3392850D01*
X9084980Y-3421178D01*
X9084975Y-3421180D01*
X8950828Y-3476746D01*
X8830098Y-3557415D01*
X8830091Y-3557420D01*
X8727420Y-3660091D01*
X8727412Y-3660100D01*
X8681377Y-3728997D01*
X8626900Y-3774524D01*
X8556457Y-3783371D01*
X8492413Y-3752730D01*
X8476768Y-3734674D01*
X8476513Y-3734884D01*
X8472584Y-3730097D01*
X8472582Y-3730094D01*
X8369906Y-3627418D01*
X8249172Y-3546746D01*
X8134669Y-3499317D01*
X8115024Y-3491180D01*
X8115019Y-3491178D01*
X7972605Y-3462850D01*
X7972603Y-3462850D01*
X7827397Y-3462850D01*
X7827394Y-3462850D01*
X7684980Y-3491178D01*
X7684975Y-3491180D01*
X7550828Y-3546746D01*
X7430098Y-3627415D01*
X7430091Y-3627420D01*
X7327420Y-3730091D01*
X7327415Y-3730098D01*
X7246746Y-3850828D01*
X7191180Y-3984975D01*
X7191178Y-3984980D01*
X7162850Y-4127394D01*
X7162850Y-4272605D01*
X7184725Y-4382579D01*
X7191178Y-4415019D01*
X7246746Y-4549172D01*
X7327418Y-4669906D01*
X7430094Y-4772582D01*
X7550828Y-4853254D01*
X7684981Y-4908822D01*
X7827397Y-4937150D01*
X7827398Y-4937150D01*
X7972602Y-4937150D01*
X7972603Y-4937150D01*
X8115019Y-4908822D01*
X8249172Y-4853254D01*
X8369906Y-4772582D01*
X8472582Y-4669906D01*
X8518622Y-4601002D01*
X8573097Y-4555476D01*
X8643540Y-4546627D01*
X8707584Y-4577268D01*
X8723231Y-4595325D01*
X8723487Y-4595116D01*
X8727416Y-4599903D01*
X8727418Y-4599906D01*
X8830094Y-4702582D01*
X8950828Y-4783254D01*
X9084981Y-4838822D01*
X9227397Y-4867150D01*
X9227398Y-4867150D01*
X9372602Y-4867150D01*
X9372603Y-4867150D01*
X9515019Y-4838822D01*
X9649172Y-4783254D01*
X9769906Y-4702582D01*
X9872582Y-4599906D01*
X9909316Y-4544928D01*
X9963791Y-4499403D01*
X10034234Y-4490554D01*
X10073003Y-4503559D01*
X10078607Y-4506524D01*
X10080145Y-4507267D01*
X10114435Y-4522316D01*
X10164740Y-4542239D01*
X10206220Y-4556648D01*
X10208136Y-4557223D01*
X10229206Y-4562574D01*
X10250742Y-4568045D01*
X10287756Y-4575776D01*
X10350348Y-4609283D01*
X10351089Y-4610019D01*
X13901095Y-8160025D01*
X13935121Y-8222337D01*
X13938000Y-8249120D01*
X13938000Y-12238076D01*
X13917998Y-12306197D01*
X13864342Y-12352690D01*
X13794068Y-12362794D01*
X13787419Y-12361655D01*
X13642608Y-12332850D01*
X13642603Y-12332850D01*
X13497397Y-12332850D01*
X13497394Y-12332850D01*
X13354980Y-12361178D01*
X13354975Y-12361180D01*
X13220829Y-12416745D01*
X13172450Y-12449071D01*
X13104697Y-12470285D01*
X13036230Y-12451501D01*
X13032448Y-12449070D01*
X12939176Y-12386748D01*
X12939172Y-12386746D01*
X12805024Y-12331180D01*
X12805019Y-12331178D01*
X12662605Y-12302850D01*
X12662603Y-12302850D01*
X12517397Y-12302850D01*
X12517394Y-12302850D01*
X12374980Y-12331178D01*
X12374975Y-12331180D01*
X12240828Y-12386746D01*
X12120098Y-12467415D01*
X12120091Y-12467420D01*
X12017420Y-12570091D01*
X12017415Y-12570098D01*
X11936746Y-12690828D01*
X11881180Y-12824975D01*
X11881178Y-12824980D01*
X11852850Y-12967394D01*
X11852850Y-13112605D01*
X11856587Y-13131391D01*
X11881178Y-13255019D01*
X11936746Y-13389172D01*
X12017418Y-13509906D01*
X12120094Y-13612582D01*
X12240828Y-13693254D01*
X12374981Y-13748822D01*
X12517397Y-13777150D01*
X12517398Y-13777150D01*
X12662602Y-13777150D01*
X12662603Y-13777150D01*
X12805019Y-13748822D01*
X12939172Y-13693254D01*
X12987549Y-13660929D01*
X13055299Y-13639714D01*
X13123766Y-13658496D01*
X13127552Y-13660929D01*
X13137812Y-13667784D01*
X13220828Y-13723254D01*
X13354981Y-13778822D01*
X13497397Y-13807150D01*
X13497398Y-13807150D01*
X13642602Y-13807150D01*
X13642603Y-13807150D01*
X13785019Y-13778822D01*
X13785022Y-13778820D01*
X13787418Y-13778344D01*
X13858132Y-13784672D01*
X13914200Y-13828226D01*
X13937819Y-13895178D01*
X13938000Y-13901923D01*
X13938000Y-19760880D01*
X13929216Y-19790795D01*
X13922588Y-19821265D01*
X13918773Y-19826360D01*
X13917998Y-19829001D01*
X13901095Y-19849975D01*
X13779975Y-19971095D01*
X13717663Y-20005121D01*
X13690880Y-20008000D01*
X13644695Y-20008000D01*
X13566735Y-20028889D01*
X13499218Y-20046980D01*
X13499211Y-20046983D01*
X13368787Y-20122283D01*
X13368777Y-20122291D01*
X13262292Y-20228776D01*
X13262282Y-20228790D01*
X13234455Y-20276985D01*
X13214433Y-20303077D01*
X13212800Y-20304710D01*
X13206832Y-20310304D01*
X13197060Y-20318882D01*
X13172641Y-20343840D01*
X13166732Y-20350452D01*
X13166509Y-20350704D01*
X13164021Y-20353490D01*
X13147418Y-20370094D01*
X13142164Y-20377956D01*
X13141652Y-20378530D01*
X13140313Y-20380173D01*
X13139533Y-20381351D01*
X13139529Y-20381356D01*
X13101921Y-20438180D01*
X13101617Y-20438638D01*
X13066745Y-20490828D01*
X13011180Y-20624975D01*
X13011178Y-20624980D01*
X12982850Y-20767394D01*
X12982850Y-20912605D01*
X12997120Y-20984345D01*
X13011178Y-21055019D01*
X13066746Y-21189172D01*
X13147418Y-21309906D01*
X13250094Y-21412582D01*
X13370828Y-21493254D01*
X13504981Y-21548822D01*
X13647397Y-21577150D01*
X13647398Y-21577150D01*
X13669729Y-21577150D01*
X13737850Y-21597152D01*
X13784343Y-21650808D01*
X13794447Y-21721082D01*
X13764953Y-21785662D01*
X13758824Y-21792245D01*
X12688784Y-22862286D01*
X12635535Y-22915534D01*
X12582287Y-22968782D01*
X12582283Y-22968787D01*
X12506983Y-23099211D01*
X12506980Y-23099218D01*
X12468000Y-23244696D01*
X12468000Y-43728398D01*
X12447998Y-43796519D01*
X12394342Y-43843012D01*
X12324068Y-43853116D01*
X12293786Y-43844809D01*
X12289011Y-43842831D01*
X12285019Y-43841178D01*
X12142605Y-43812850D01*
X12142603Y-43812850D01*
X11997397Y-43812850D01*
X11997394Y-43812850D01*
X11854980Y-43841178D01*
X11854975Y-43841180D01*
X11720828Y-43896746D01*
X11600098Y-43977415D01*
X11600091Y-43977420D01*
X11497420Y-44080091D01*
X11497415Y-44080098D01*
X11416746Y-44200828D01*
X11361180Y-44334975D01*
X11361178Y-44334980D01*
X11332850Y-44477394D01*
X11332850Y-44622605D01*
X11361178Y-44765019D01*
X11361180Y-44765024D01*
X11365320Y-44775019D01*
X11416746Y-44899172D01*
X11497418Y-45019906D01*
X11600094Y-45122582D01*
X11720828Y-45203254D01*
X11854981Y-45258822D01*
X11997397Y-45287150D01*
X11997398Y-45287150D01*
X12142602Y-45287150D01*
X12142603Y-45287150D01*
X12285019Y-45258822D01*
X12293780Y-45255192D01*
X12364369Y-45247603D01*
X12427857Y-45279380D01*
X12464085Y-45340438D01*
X12468000Y-45371601D01*
X12468000Y-52660880D01*
X12447998Y-52729001D01*
X12431095Y-52749975D01*
X11909975Y-53271095D01*
X11847663Y-53305121D01*
X11820880Y-53308000D01*
X11554600Y-53308000D01*
X11486479Y-53287998D01*
X11439986Y-53234342D01*
X11431021Y-53206582D01*
X11423398Y-53168262D01*
X11408822Y-53094981D01*
X11353254Y-52960828D01*
X11272582Y-52840094D01*
X11169906Y-52737418D01*
X11049172Y-52656746D01*
X10915019Y-52601178D01*
X10772605Y-52572850D01*
X10772603Y-52572850D01*
X10627397Y-52572850D01*
X10627394Y-52572850D01*
X10484980Y-52601178D01*
X10484975Y-52601180D01*
X10350828Y-52656746D01*
X10230098Y-52737415D01*
X10230091Y-52737420D01*
X10127420Y-52840091D01*
X10127415Y-52840098D01*
X10046746Y-52960828D01*
X9991180Y-53094975D01*
X9991178Y-53094980D01*
X9968979Y-53206582D01*
X9936071Y-53269492D01*
X9874376Y-53304623D01*
X9845400Y-53308000D01*
X9430621Y-53308000D01*
X9362500Y-53287998D01*
X9316007Y-53234342D01*
X9307042Y-53206581D01*
X9304681Y-53194710D01*
X9288822Y-53114981D01*
X9233254Y-52980828D01*
X9152582Y-52860094D01*
X9049906Y-52757418D01*
X8929172Y-52676746D01*
X8795021Y-52621179D01*
X8795019Y-52621178D01*
X8652605Y-52592850D01*
X8652603Y-52592850D01*
X8507397Y-52592850D01*
X8507394Y-52592850D01*
X8364980Y-52621178D01*
X8364975Y-52621180D01*
X8230828Y-52676746D01*
X8110098Y-52757415D01*
X8110091Y-52757420D01*
X8007420Y-52860091D01*
X8007415Y-52860098D01*
X7926746Y-52980828D01*
X7875321Y-53104980D01*
X7871178Y-53114981D01*
X7869189Y-53124981D01*
X7852767Y-53207537D01*
X7819858Y-53270446D01*
X7758163Y-53305577D01*
X7745640Y-53307875D01*
X7744702Y-53307998D01*
X7599218Y-53346980D01*
X7599211Y-53346983D01*
X7471385Y-53420784D01*
X7471383Y-53420785D01*
X7468785Y-53422284D01*
X6780921Y-54110147D01*
X6718609Y-54144172D01*
X6717931Y-54144317D01*
X6677478Y-54152883D01*
X6615146Y-54170250D01*
X6615104Y-54170263D01*
X6612387Y-54171208D01*
X6612335Y-54171229D01*
X6552747Y-54196268D01*
X6552737Y-54196272D01*
X6457778Y-54243417D01*
X6456473Y-54244065D01*
X6453669Y-54245569D01*
X6450828Y-54246746D01*
X6448190Y-54248508D01*
X6442971Y-54251307D01*
X6442637Y-54251486D01*
X6427873Y-54259408D01*
X6426652Y-54260114D01*
X6352450Y-54311745D01*
X6345124Y-54317374D01*
X6330096Y-54327416D01*
X6330091Y-54327420D01*
X6227416Y-54430096D01*
X6227415Y-54430098D01*
X6146746Y-54550828D01*
X6091180Y-54684975D01*
X6091178Y-54684980D01*
X6062850Y-54827394D01*
X4375094Y-54827394D01*
X4402582Y-54799906D01*
X4483254Y-54679172D01*
X4538822Y-54545019D01*
X4567150Y-54402603D01*
X4567150Y-54257397D01*
X4538822Y-54114981D01*
X4483254Y-53980828D01*
X4402582Y-53860094D01*
X4299906Y-53757418D01*
X4179172Y-53676746D01*
X4045019Y-53621178D01*
X4024764Y-53617149D01*
X3902597Y-53592848D01*
X3898407Y-53592436D01*
X3832574Y-53565853D01*
X3791565Y-53507899D01*
X3784782Y-53469568D01*
X3784507Y-53455886D01*
X3787150Y-53442603D01*
X3787150Y-53297397D01*
X3779193Y-53257394D01*
X5032850Y-53257394D01*
X5032850Y-53402605D01*
X5052205Y-53499908D01*
X5061178Y-53545019D01*
X5116746Y-53679172D01*
X5197418Y-53799906D01*
X5300094Y-53902582D01*
X5420828Y-53983254D01*
X5554981Y-54038822D01*
X5697397Y-54067150D01*
X5697398Y-54067150D01*
X5842602Y-54067150D01*
X5842603Y-54067150D01*
X5985019Y-54038822D01*
X6119172Y-53983254D01*
X6239906Y-53902582D01*
X6342582Y-53799906D01*
X6423254Y-53679172D01*
X6423260Y-53679156D01*
X6425701Y-53674592D01*
X6475451Y-53623942D01*
X6512243Y-53610404D01*
X6625019Y-53587972D01*
X6759172Y-53532404D01*
X6879906Y-53451732D01*
X6982582Y-53349056D01*
X7063254Y-53228322D01*
X7118822Y-53094169D01*
X7147150Y-52951753D01*
X7147150Y-52806547D01*
X7118822Y-52664131D01*
X7063254Y-52529978D01*
X6982582Y-52409244D01*
X6879906Y-52306568D01*
X6759172Y-52225896D01*
X6625019Y-52170328D01*
X6482605Y-52142000D01*
X6482603Y-52142000D01*
X6337397Y-52142000D01*
X6337394Y-52142000D01*
X6194980Y-52170328D01*
X6194975Y-52170330D01*
X6060828Y-52225896D01*
X5940098Y-52306565D01*
X5940091Y-52306570D01*
X5837420Y-52409241D01*
X5837415Y-52409248D01*
X5756744Y-52529979D01*
X5754291Y-52534570D01*
X5704535Y-52585215D01*
X5667756Y-52598745D01*
X5605255Y-52611178D01*
X5554981Y-52621178D01*
X5554979Y-52621179D01*
X5554975Y-52621180D01*
X5420828Y-52676746D01*
X5300098Y-52757415D01*
X5300091Y-52757420D01*
X5197420Y-52860091D01*
X5197415Y-52860098D01*
X5116746Y-52980828D01*
X5061180Y-53114975D01*
X5061178Y-53114980D01*
X5032850Y-53257394D01*
X3779193Y-53257394D01*
X3758822Y-53154981D01*
X3730637Y-53086938D01*
X3723049Y-53016350D01*
X3754828Y-52952863D01*
X3815886Y-52916635D01*
X3886837Y-52919169D01*
X3917046Y-52933954D01*
X3990828Y-52983254D01*
X4124981Y-53038822D01*
X4267397Y-53067150D01*
X4267398Y-53067150D01*
X4412602Y-53067150D01*
X4412603Y-53067150D01*
X4555019Y-53038822D01*
X4689172Y-52983254D01*
X4809906Y-52902582D01*
X4912582Y-52799906D01*
X4993254Y-52679172D01*
X5048822Y-52545019D01*
X5077150Y-52402603D01*
X5077150Y-52257397D01*
X5048822Y-52114981D01*
X4993254Y-51980828D01*
X4912582Y-51860094D01*
X4809906Y-51757418D01*
X4689172Y-51676746D01*
X4555019Y-51621178D01*
X4412605Y-51592850D01*
X4412603Y-51592850D01*
X4267397Y-51592850D01*
X4267394Y-51592850D01*
X4124980Y-51621178D01*
X4124975Y-51621180D01*
X3990828Y-51676746D01*
X3870098Y-51757415D01*
X3870091Y-51757420D01*
X3767420Y-51860091D01*
X3767415Y-51860098D01*
X3686746Y-51980828D01*
X3631180Y-52114975D01*
X3631178Y-52114980D01*
X3602850Y-52257394D01*
X3602850Y-52402605D01*
X3631178Y-52545019D01*
X3631180Y-52545025D01*
X3659361Y-52613060D01*
X3666950Y-52683650D01*
X3635170Y-52747137D01*
X3574112Y-52783364D01*
X3503161Y-52780830D01*
X3472950Y-52766043D01*
X3460037Y-52757415D01*
X3399172Y-52716746D01*
X3265019Y-52661178D01*
X3242738Y-52656746D01*
X3122605Y-52632850D01*
X3122603Y-52632850D01*
X2977397Y-52632850D01*
X2977394Y-52632850D01*
X2834980Y-52661178D01*
X2834975Y-52661180D01*
X2700828Y-52716746D01*
X2580098Y-52797415D01*
X2580091Y-52797420D01*
X2477420Y-52900091D01*
X2477415Y-52900098D01*
X2396746Y-53020828D01*
X2341180Y-53154975D01*
X2341178Y-53154980D01*
X2312850Y-53297394D01*
X381500Y-53297394D01*
X381500Y-52509024D01*
X401502Y-52440903D01*
X455158Y-52394410D01*
X525432Y-52384306D01*
X577501Y-52404258D01*
X650828Y-52453254D01*
X784981Y-52508822D01*
X927397Y-52537150D01*
X927398Y-52537150D01*
X1072602Y-52537150D01*
X1072603Y-52537150D01*
X1215019Y-52508822D01*
X1276781Y-52483238D01*
X1347369Y-52475649D01*
X1373215Y-52483237D01*
X1405852Y-52496756D01*
X1434975Y-52508820D01*
X1434977Y-52508820D01*
X1434981Y-52508822D01*
X1577397Y-52537150D01*
X1577398Y-52537150D01*
X1722602Y-52537150D01*
X1722603Y-52537150D01*
X1865019Y-52508822D01*
X1999172Y-52453254D01*
X2119906Y-52372582D01*
X2222582Y-52269906D01*
X2303254Y-52149172D01*
X2358822Y-52015019D01*
X2387150Y-51872603D01*
X2387150Y-51727397D01*
X2358822Y-51584981D01*
X2303254Y-51450828D01*
X2222582Y-51330094D01*
X2222578Y-51330090D01*
X2222457Y-51329942D01*
X2222415Y-51329845D01*
X2219143Y-51324947D01*
X2220071Y-51324326D01*
X2194697Y-51264598D01*
X2206673Y-51194618D01*
X2219215Y-51175101D01*
X2219143Y-51175053D01*
X2221863Y-51170981D01*
X2222457Y-51170058D01*
X2222574Y-51169913D01*
X2222582Y-51169906D01*
X2303254Y-51049172D01*
X2358822Y-50915019D01*
X2387150Y-50772603D01*
X2387150Y-50627397D01*
X2358822Y-50484981D01*
X2303254Y-50350828D01*
X2222582Y-50230094D01*
X2119906Y-50127418D01*
X1999172Y-50046746D01*
X1865019Y-49991178D01*
X1863998Y-49990975D01*
X1722605Y-49962850D01*
X1722603Y-49962850D01*
X1577397Y-49962850D01*
X1577394Y-49962850D01*
X1434980Y-49991178D01*
X1434970Y-49991181D01*
X1373217Y-50016760D01*
X1302627Y-50024349D01*
X1276783Y-50016760D01*
X1215029Y-49991181D01*
X1215019Y-49991178D01*
X1072605Y-49962850D01*
X1072603Y-49962850D01*
X927397Y-49962850D01*
X927394Y-49962850D01*
X784980Y-49991178D01*
X784975Y-49991180D01*
X650829Y-50046745D01*
X577501Y-50095741D01*
X509748Y-50116955D01*
X441281Y-50098171D01*
X393838Y-50045354D01*
X381500Y-49990975D01*
X381500Y-44477394D01*
X4732850Y-44477394D01*
X4732850Y-44622605D01*
X4761178Y-44765019D01*
X4761180Y-44765024D01*
X4765320Y-44775019D01*
X4816746Y-44899172D01*
X4897418Y-45019906D01*
X5000094Y-45122582D01*
X5120828Y-45203254D01*
X5254981Y-45258822D01*
X5397397Y-45287150D01*
X5397398Y-45287150D01*
X5542602Y-45287150D01*
X5542603Y-45287150D01*
X5685019Y-45258822D01*
X5819172Y-45203254D01*
X5939906Y-45122582D01*
X6040905Y-45021583D01*
X6103217Y-44987557D01*
X6174032Y-44992622D01*
X6219095Y-45021583D01*
X6320094Y-45122582D01*
X6440828Y-45203254D01*
X6574981Y-45258822D01*
X6717397Y-45287150D01*
X6717398Y-45287150D01*
X6862602Y-45287150D01*
X6862603Y-45287150D01*
X7005019Y-45258822D01*
X7139172Y-45203254D01*
X7259906Y-45122582D01*
X7362582Y-45019906D01*
X7443254Y-44899172D01*
X7498822Y-44765019D01*
X7527150Y-44622603D01*
X7527150Y-44477397D01*
X7498822Y-44334981D01*
X7443254Y-44200828D01*
X7362582Y-44080094D01*
X7259906Y-43977418D01*
X7139172Y-43896746D01*
X7005019Y-43841178D01*
X6862605Y-43812850D01*
X6862603Y-43812850D01*
X6717397Y-43812850D01*
X6717394Y-43812850D01*
X6574980Y-43841178D01*
X6574975Y-43841180D01*
X6440828Y-43896746D01*
X6320098Y-43977415D01*
X6320091Y-43977420D01*
X6219095Y-44078417D01*
X6156783Y-44112443D01*
X6085968Y-44107378D01*
X6040905Y-44078417D01*
X5939908Y-43977420D01*
X5939906Y-43977418D01*
X5819172Y-43896746D01*
X5685019Y-43841178D01*
X5542605Y-43812850D01*
X5542603Y-43812850D01*
X5397397Y-43812850D01*
X5397394Y-43812850D01*
X5254980Y-43841178D01*
X5254975Y-43841180D01*
X5120828Y-43896746D01*
X5000098Y-43977415D01*
X5000091Y-43977420D01*
X4897420Y-44080091D01*
X4897415Y-44080098D01*
X4816746Y-44200828D01*
X4761180Y-44334975D01*
X4761178Y-44334980D01*
X4732850Y-44477394D01*
X381500Y-44477394D01*
X381500Y-36697394D01*
X5072850Y-36697394D01*
X5072850Y-36842605D01*
X5093269Y-36945259D01*
X5101178Y-36985019D01*
X5156746Y-37119172D01*
X5237418Y-37239906D01*
X5340094Y-37342582D01*
X5460828Y-37423254D01*
X5594981Y-37478822D01*
X5737397Y-37507150D01*
X5737398Y-37507150D01*
X5882602Y-37507150D01*
X5882603Y-37507150D01*
X6025019Y-37478822D01*
X6159172Y-37423254D01*
X6279906Y-37342582D01*
X6382582Y-37239906D01*
X6463254Y-37119172D01*
X6518822Y-36985019D01*
X6547150Y-36842603D01*
X6547150Y-36697397D01*
X6518822Y-36554981D01*
X6463254Y-36420828D01*
X6382582Y-36300094D01*
X6279906Y-36197418D01*
X6159172Y-36116746D01*
X6025019Y-36061178D01*
X5882605Y-36032850D01*
X5882603Y-36032850D01*
X5737397Y-36032850D01*
X5737394Y-36032850D01*
X5594980Y-36061178D01*
X5594975Y-36061180D01*
X5460828Y-36116746D01*
X5340098Y-36197415D01*
X5340091Y-36197420D01*
X5237420Y-36300091D01*
X5237415Y-36300098D01*
X5156746Y-36420828D01*
X5101180Y-36554975D01*
X5101178Y-36554980D01*
X5072850Y-36697394D01*
X381500Y-36697394D01*
X381500Y-29127394D01*
X5692850Y-29127394D01*
X5692850Y-29272605D01*
X5705975Y-29338590D01*
X5721178Y-29415019D01*
X5776746Y-29549172D01*
X5857418Y-29669906D01*
X5960094Y-29772582D01*
X6080828Y-29853254D01*
X6214981Y-29908822D01*
X6357397Y-29937150D01*
X6357398Y-29937150D01*
X6502602Y-29937150D01*
X6502603Y-29937150D01*
X6645019Y-29908822D01*
X6779172Y-29853254D01*
X6899906Y-29772582D01*
X7002582Y-29669906D01*
X7083254Y-29549172D01*
X7138822Y-29415019D01*
X7167150Y-29272603D01*
X7167150Y-29127397D01*
X7138822Y-28984981D01*
X7083254Y-28850828D01*
X7002582Y-28730094D01*
X6899906Y-28627418D01*
X6779172Y-28546746D01*
X6645019Y-28491178D01*
X6502605Y-28462850D01*
X6502603Y-28462850D01*
X6357397Y-28462850D01*
X6357394Y-28462850D01*
X6214980Y-28491178D01*
X6214975Y-28491180D01*
X6080828Y-28546746D01*
X5960098Y-28627415D01*
X5960091Y-28627420D01*
X5857420Y-28730091D01*
X5857415Y-28730098D01*
X5776746Y-28850828D01*
X5721180Y-28984975D01*
X5721178Y-28984980D01*
X5692850Y-29127394D01*
X381500Y-29127394D01*
X381500Y-28317394D01*
X7722850Y-28317394D01*
X7722850Y-28462605D01*
X7734785Y-28522605D01*
X7751178Y-28605019D01*
X7806746Y-28739172D01*
X7887418Y-28859906D01*
X7990094Y-28962582D01*
X8110828Y-29043254D01*
X8244981Y-29098822D01*
X8387397Y-29127150D01*
X8387398Y-29127150D01*
X8532602Y-29127150D01*
X8532603Y-29127150D01*
X8675019Y-29098822D01*
X8809172Y-29043254D01*
X8929906Y-28962582D01*
X9032582Y-28859906D01*
X9113254Y-28739172D01*
X9168822Y-28605019D01*
X9197150Y-28462603D01*
X9197150Y-28317397D01*
X9168822Y-28174981D01*
X9113254Y-28040828D01*
X9032582Y-27920094D01*
X8929906Y-27817418D01*
X8809172Y-27736746D01*
X8675019Y-27681178D01*
X8532605Y-27652850D01*
X8532603Y-27652850D01*
X8387397Y-27652850D01*
X8387394Y-27652850D01*
X8244980Y-27681178D01*
X8244975Y-27681180D01*
X8110828Y-27736746D01*
X7990098Y-27817415D01*
X7990091Y-27817420D01*
X7887420Y-27920091D01*
X7887415Y-27920098D01*
X7806746Y-28040828D01*
X7751180Y-28174975D01*
X7751178Y-28174980D01*
X7722850Y-28317394D01*
X381500Y-28317394D01*
X381500Y-20767394D01*
X7072850Y-20767394D01*
X7072850Y-20912605D01*
X7087120Y-20984345D01*
X7101178Y-21055019D01*
X7156746Y-21189172D01*
X7237418Y-21309906D01*
X7340094Y-21412582D01*
X7460828Y-21493254D01*
X7594981Y-21548822D01*
X7737397Y-21577150D01*
X7737398Y-21577150D01*
X7882602Y-21577150D01*
X7882603Y-21577150D01*
X8025019Y-21548822D01*
X8159172Y-21493254D01*
X8259998Y-21425883D01*
X8327751Y-21404669D01*
X8396218Y-21423452D01*
X8399997Y-21425880D01*
X8500828Y-21493254D01*
X8634981Y-21548822D01*
X8777397Y-21577150D01*
X8777398Y-21577150D01*
X8922602Y-21577150D01*
X8922603Y-21577150D01*
X9065019Y-21548822D01*
X9199172Y-21493254D01*
X9319906Y-21412582D01*
X9422582Y-21309906D01*
X9503254Y-21189172D01*
X9558822Y-21055019D01*
X9587150Y-20912603D01*
X9587150Y-20767397D01*
X9558822Y-20624981D01*
X9503254Y-20490828D01*
X9422582Y-20370094D01*
X9319906Y-20267418D01*
X9199172Y-20186746D01*
X9065019Y-20131178D01*
X9020341Y-20122291D01*
X8922605Y-20102850D01*
X8922603Y-20102850D01*
X8777397Y-20102850D01*
X8777394Y-20102850D01*
X8634980Y-20131178D01*
X8634975Y-20131180D01*
X8500829Y-20186745D01*
X8400001Y-20254116D01*
X8332248Y-20275330D01*
X8263781Y-20256547D01*
X8259999Y-20254116D01*
X8174138Y-20196746D01*
X8159172Y-20186746D01*
X8120018Y-20170528D01*
X8025024Y-20131180D01*
X8025019Y-20131178D01*
X7882605Y-20102850D01*
X7882603Y-20102850D01*
X7737397Y-20102850D01*
X7737394Y-20102850D01*
X7594980Y-20131178D01*
X7594975Y-20131180D01*
X7460828Y-20186746D01*
X7340098Y-20267415D01*
X7340091Y-20267420D01*
X7237420Y-20370091D01*
X7237415Y-20370098D01*
X7156746Y-20490828D01*
X7101180Y-20624975D01*
X7101178Y-20624980D01*
X7072850Y-20767394D01*
X381500Y-20767394D01*
X381500Y-12977394D01*
X1352850Y-12977394D01*
X1352850Y-13122605D01*
X1375710Y-13237528D01*
X1381178Y-13265019D01*
X1436746Y-13399172D01*
X1517418Y-13519906D01*
X1620094Y-13622582D01*
X1740828Y-13703254D01*
X1874981Y-13758822D01*
X2017397Y-13787150D01*
X2017398Y-13787150D01*
X2162602Y-13787150D01*
X2162603Y-13787150D01*
X2305019Y-13758822D01*
X2439172Y-13703254D01*
X2559906Y-13622582D01*
X2590905Y-13591583D01*
X2653217Y-13557557D01*
X2724032Y-13562622D01*
X2769095Y-13591583D01*
X2800094Y-13622582D01*
X2920828Y-13703254D01*
X3054981Y-13758822D01*
X3197397Y-13787150D01*
X3197398Y-13787150D01*
X3342602Y-13787150D01*
X3342603Y-13787150D01*
X3485019Y-13758822D01*
X3619172Y-13703254D01*
X3739906Y-13622582D01*
X3842582Y-13519906D01*
X3923254Y-13399172D01*
X3978822Y-13265019D01*
X4007150Y-13122603D01*
X4007150Y-12977397D01*
X4007149Y-12977394D01*
X8392850Y-12977394D01*
X8392850Y-13122605D01*
X8415710Y-13237528D01*
X8421178Y-13265019D01*
X8476746Y-13399172D01*
X8557418Y-13519906D01*
X8660094Y-13622582D01*
X8780828Y-13703254D01*
X8914981Y-13758822D01*
X9057397Y-13787150D01*
X9057398Y-13787150D01*
X9202602Y-13787150D01*
X9202603Y-13787150D01*
X9345019Y-13758822D01*
X9479172Y-13703254D01*
X9599906Y-13622582D01*
X9702582Y-13519906D01*
X9783254Y-13399172D01*
X9838822Y-13265019D01*
X9867150Y-13122603D01*
X9867150Y-12977397D01*
X9838822Y-12834981D01*
X9783254Y-12700828D01*
X9702582Y-12580094D01*
X9599906Y-12477418D01*
X9479172Y-12396746D01*
X9345019Y-12341178D01*
X9303151Y-12332850D01*
X9202605Y-12312850D01*
X9202603Y-12312850D01*
X9057397Y-12312850D01*
X9057394Y-12312850D01*
X8914980Y-12341178D01*
X8914975Y-12341180D01*
X8780828Y-12396746D01*
X8660098Y-12477415D01*
X8660091Y-12477420D01*
X8557420Y-12580091D01*
X8557415Y-12580098D01*
X8476746Y-12700828D01*
X8421180Y-12834975D01*
X8421178Y-12834980D01*
X8392850Y-12977394D01*
X4007149Y-12977394D01*
X3978822Y-12834981D01*
X3923254Y-12700828D01*
X3842582Y-12580094D01*
X3739906Y-12477418D01*
X3619172Y-12396746D01*
X3485019Y-12341178D01*
X3443151Y-12332850D01*
X3342605Y-12312850D01*
X3342603Y-12312850D01*
X3197397Y-12312850D01*
X3197394Y-12312850D01*
X3054980Y-12341178D01*
X3054975Y-12341180D01*
X2920828Y-12396746D01*
X2800098Y-12477415D01*
X2800096Y-12477416D01*
X2769094Y-12508418D01*
X2706781Y-12542442D01*
X2635966Y-12537376D01*
X2590906Y-12508418D01*
X2579906Y-12497418D01*
X2559906Y-12477418D01*
X2439172Y-12396746D01*
X2305019Y-12341178D01*
X2263151Y-12332850D01*
X2162605Y-12312850D01*
X2162603Y-12312850D01*
X2017397Y-12312850D01*
X2017394Y-12312850D01*
X1874980Y-12341178D01*
X1874975Y-12341180D01*
X1740828Y-12396746D01*
X1620098Y-12477415D01*
X1620091Y-12477420D01*
X1517420Y-12580091D01*
X1517415Y-12580098D01*
X1436746Y-12700828D01*
X1381180Y-12834975D01*
X1381178Y-12834980D01*
X1352850Y-12977394D01*
X381500Y-12977394D01*
X381500Y-7659024D01*
X401502Y-7590903D01*
X455158Y-7544410D01*
X525432Y-7534306D01*
X577501Y-7554258D01*
X650828Y-7603254D01*
X784981Y-7658822D01*
X927397Y-7687150D01*
X927398Y-7687150D01*
X1072602Y-7687150D01*
X1072603Y-7687150D01*
X1215019Y-7658822D01*
X1301784Y-7622882D01*
X1372371Y-7615294D01*
X1398210Y-7622880D01*
X1484981Y-7658822D01*
X1627397Y-7687150D01*
X1627398Y-7687150D01*
X1772602Y-7687150D01*
X1772603Y-7687150D01*
X1915019Y-7658822D01*
X2049172Y-7603254D01*
X2169906Y-7522582D01*
X2272582Y-7419906D01*
X2353254Y-7299172D01*
X2408822Y-7165019D01*
X2437150Y-7022603D01*
X2437150Y-6877397D01*
X2408822Y-6734981D01*
X2353254Y-6600828D01*
X2272582Y-6480094D01*
X2224183Y-6431695D01*
X2190158Y-6369382D01*
X2195224Y-6298566D01*
X2224181Y-6253508D01*
X2254911Y-6222779D01*
X2335583Y-6102045D01*
X2391151Y-5967892D01*
X2419479Y-5825476D01*
X2419479Y-5680270D01*
X2391151Y-5537854D01*
X2335583Y-5403701D01*
X2254911Y-5282967D01*
X2152235Y-5180291D01*
X2031501Y-5099619D01*
X1897348Y-5044051D01*
X1862649Y-5037149D01*
X1754934Y-5015723D01*
X1754932Y-5015723D01*
X1609726Y-5015723D01*
X1609723Y-5015723D01*
X1467309Y-5044051D01*
X1467300Y-5044054D01*
X1408046Y-5068598D01*
X1337457Y-5076187D01*
X1311612Y-5068598D01*
X1252357Y-5044054D01*
X1252348Y-5044051D01*
X1109934Y-5015723D01*
X1109932Y-5015723D01*
X964726Y-5015723D01*
X964723Y-5015723D01*
X822309Y-5044051D01*
X822304Y-5044053D01*
X688156Y-5099619D01*
X577502Y-5173556D01*
X509749Y-5194771D01*
X441282Y-5175988D01*
X393839Y-5123170D01*
X381500Y-5068791D01*
X381500Y-2517394D01*
X702850Y-2517394D01*
X702850Y-2662605D01*
X722790Y-2762850D01*
X731178Y-2805019D01*
X786746Y-2939172D01*
X867418Y-3059906D01*
X970094Y-3162582D01*
X1090828Y-3243254D01*
X1224981Y-3298822D01*
X1367397Y-3327150D01*
X1367398Y-3327150D01*
X1512602Y-3327150D01*
X1512603Y-3327150D01*
X1655019Y-3298822D01*
X1789172Y-3243254D01*
X1909906Y-3162582D01*
X2012582Y-3059906D01*
X2093254Y-2939172D01*
X2148822Y-2805019D01*
X2177150Y-2662603D01*
X2177150Y-2517397D01*
X2155269Y-2407394D01*
X3342850Y-2407394D01*
X3342850Y-2552605D01*
X3371178Y-2695019D01*
X3426746Y-2829172D01*
X3507418Y-2949906D01*
X3610094Y-3052582D01*
X3730828Y-3133254D01*
X3864981Y-3188822D01*
X3888357Y-3193471D01*
X3951266Y-3226377D01*
X3986398Y-3288072D01*
X3982599Y-3358967D01*
X3943725Y-3414436D01*
X3940100Y-3417411D01*
X3837420Y-3520091D01*
X3837415Y-3520098D01*
X3756746Y-3640828D01*
X3701180Y-3774975D01*
X3701178Y-3774980D01*
X3672850Y-3917394D01*
X3672850Y-4062605D01*
X3692189Y-4159827D01*
X3701178Y-4205019D01*
X3756746Y-4339172D01*
X3837418Y-4459906D01*
X3940094Y-4562582D01*
X4060828Y-4643254D01*
X4194981Y-4698822D01*
X4337397Y-4727150D01*
X4337398Y-4727150D01*
X4482602Y-4727150D01*
X4482603Y-4727150D01*
X4625019Y-4698822D01*
X4759172Y-4643254D01*
X4879906Y-4562582D01*
X4915524Y-4526963D01*
X4977833Y-4492938D01*
X5048649Y-4498001D01*
X5052794Y-4499631D01*
X5074981Y-4508822D01*
X5217397Y-4537150D01*
X5217398Y-4537150D01*
X5362603Y-4537150D01*
X5382515Y-4533189D01*
X5453228Y-4539514D01*
X5509297Y-4583066D01*
X5511861Y-4586760D01*
X5567418Y-4669906D01*
X5670094Y-4772582D01*
X5790828Y-4853254D01*
X5924981Y-4908822D01*
X6067397Y-4937150D01*
X6067398Y-4937150D01*
X6212602Y-4937150D01*
X6212603Y-4937150D01*
X6355019Y-4908822D01*
X6489172Y-4853254D01*
X6609906Y-4772582D01*
X6712582Y-4669906D01*
X6793254Y-4549172D01*
X6848822Y-4415019D01*
X6877150Y-4272603D01*
X6877150Y-4127397D01*
X6848822Y-3984981D01*
X6793254Y-3850828D01*
X6712582Y-3730094D01*
X6609906Y-3627418D01*
X6489172Y-3546746D01*
X6374669Y-3499317D01*
X6355024Y-3491180D01*
X6355019Y-3491178D01*
X6212605Y-3462850D01*
X6212603Y-3462850D01*
X6067397Y-3462850D01*
X6067389Y-3462850D01*
X6047479Y-3466811D01*
X5976765Y-3460482D01*
X5920698Y-3416927D01*
X5918134Y-3413233D01*
X5862588Y-3330102D01*
X5862584Y-3330097D01*
X5862582Y-3330094D01*
X5759906Y-3227418D01*
X5639172Y-3146746D01*
X5505019Y-3091178D01*
X5463151Y-3082850D01*
X5362605Y-3062850D01*
X5362603Y-3062850D01*
X5217397Y-3062850D01*
X5217394Y-3062850D01*
X5074980Y-3091178D01*
X5074975Y-3091180D01*
X4940828Y-3146746D01*
X4820095Y-3227417D01*
X4820092Y-3227419D01*
X4784472Y-3263038D01*
X4771963Y-3269867D01*
X4762533Y-3280553D01*
X4741420Y-3286544D01*
X4722159Y-3297061D01*
X4706573Y-3296433D01*
X4694233Y-3299935D01*
X4669754Y-3294949D01*
X4658783Y-3294508D01*
X4652860Y-3292710D01*
X4625019Y-3281178D01*
X4595564Y-3275319D01*
X4589627Y-3273517D01*
X4564915Y-3257316D01*
X4538731Y-3243619D01*
X4535579Y-3238084D01*
X4530252Y-3234592D01*
X4518221Y-3207600D01*
X4503600Y-3181924D01*
X4503941Y-3175563D01*
X4501348Y-3169746D01*
X4505818Y-3140536D01*
X4507401Y-3111029D01*
X4511155Y-3105672D01*
X4512090Y-3099567D01*
X4528343Y-3081150D01*
X4546286Y-3055552D01*
X4549893Y-3052590D01*
X4549906Y-3052582D01*
X4652582Y-2949906D01*
X4733254Y-2829172D01*
X4788822Y-2695019D01*
X4817150Y-2552603D01*
X4817150Y-2407397D01*
X4788822Y-2264981D01*
X4733254Y-2130828D01*
X4652582Y-2010094D01*
X4549906Y-1907418D01*
X4429172Y-1826746D01*
X4295019Y-1771178D01*
X4152605Y-1742850D01*
X4152603Y-1742850D01*
X4007397Y-1742850D01*
X4007394Y-1742850D01*
X3864980Y-1771178D01*
X3864975Y-1771180D01*
X3730828Y-1826746D01*
X3610098Y-1907415D01*
X3610091Y-1907420D01*
X3507420Y-2010091D01*
X3507415Y-2010098D01*
X3426746Y-2130828D01*
X3371180Y-2264975D01*
X3371178Y-2264980D01*
X3342850Y-2407394D01*
X2155269Y-2407394D01*
X2148822Y-2374981D01*
X2093254Y-2240828D01*
X2012582Y-2120094D01*
X1909906Y-2017418D01*
X1789172Y-1936746D01*
X1655019Y-1881178D01*
X1512605Y-1852850D01*
X1512603Y-1852850D01*
X1367397Y-1852850D01*
X1367394Y-1852850D01*
X1224980Y-1881178D01*
X1224975Y-1881180D01*
X1090828Y-1936746D01*
X970098Y-2017415D01*
X970091Y-2017420D01*
X867420Y-2120091D01*
X867415Y-2120098D01*
X786746Y-2240828D01*
X731180Y-2374975D01*
X731178Y-2374980D01*
X702850Y-2517394D01*
X381500Y-2517394D01*
X381500Y-507500D01*
X401502Y-439379D01*
X455158Y-392886D01*
X507500Y-381500D01*
X21126789Y-381500D01*
X21194910Y-401502D01*
G37*
%TD.AperFunction*%
%TD*%
%TA.AperFunction,Conductor*%
%TO.N,/DOUT*%
G36*
X30143080Y-36382573D02*
G01*
X30217503Y-36456996D01*
X30220930Y-36465269D01*
X30218123Y-36472872D01*
X30175094Y-36523200D01*
X30146141Y-36574926D01*
X30122947Y-36670224D01*
X30105393Y-36754263D01*
X30104818Y-36756179D01*
X30084895Y-36806484D01*
X30084152Y-36808022D01*
X30056333Y-36856252D01*
X30049231Y-36861706D01*
X30040352Y-36860541D01*
X30039740Y-36860162D01*
X29861277Y-36742020D01*
X29857979Y-36738722D01*
X29812638Y-36670231D01*
X29740280Y-36560929D01*
X29738572Y-36552140D01*
X29743579Y-36544716D01*
X29744818Y-36544000D01*
X29841073Y-36496212D01*
X29843847Y-36495247D01*
X29929441Y-36477123D01*
X29930080Y-36477007D01*
X29947316Y-36474350D01*
X29950270Y-36473895D01*
X30037224Y-36448358D01*
X30083507Y-36420078D01*
X30127117Y-36382029D01*
X30135602Y-36379173D01*
X30143080Y-36382573D01*
G37*
%TD.AperFunction*%
%TD*%
%TA.AperFunction,Conductor*%
%TO.N,/ETROC2*%
G36*
X34560953Y-54750520D02*
G01*
X34564344Y-54757881D01*
X34569506Y-54823898D01*
X34585605Y-54880936D01*
X34585606Y-54880939D01*
X34615367Y-54929846D01*
X34636596Y-54964734D01*
X34669095Y-55014395D01*
X34683605Y-55036566D01*
X34684553Y-55038327D01*
X34706037Y-55087987D01*
X34706599Y-55089600D01*
X34721031Y-55143374D01*
X34719866Y-55152253D01*
X34712764Y-55157707D01*
X34712063Y-55157872D01*
X34502332Y-55200525D01*
X34497668Y-55200525D01*
X34288724Y-55158033D01*
X34281300Y-55153026D01*
X34279591Y-55144236D01*
X34279964Y-55142846D01*
X34314230Y-55041004D01*
X34315511Y-55038357D01*
X34316676Y-55036566D01*
X34363241Y-54964982D01*
X34363582Y-54964489D01*
X34375667Y-54948004D01*
X34419095Y-54868461D01*
X34431824Y-54815737D01*
X34435757Y-54757997D01*
X34439738Y-54749977D01*
X34447430Y-54747093D01*
X34552680Y-54747093D01*
X34560953Y-54750520D01*
G37*
%TD.AperFunction*%
%TD*%
%TA.AperFunction,Conductor*%
%TO.N,/CS_T1*%
G36*
X26828434Y-20547277D02*
G01*
X26902678Y-20621521D01*
X26906105Y-20629794D01*
X26903149Y-20637568D01*
X26858950Y-20687278D01*
X26826561Y-20737012D01*
X26792419Y-20827009D01*
X26774943Y-20881275D01*
X26774188Y-20883083D01*
X26716112Y-20994841D01*
X26709256Y-21000602D01*
X26700335Y-20999828D01*
X26699272Y-20999202D01*
X26523379Y-20882762D01*
X26518372Y-20875338D01*
X26518354Y-20875247D01*
X26508941Y-20827012D01*
X26477790Y-20667376D01*
X26479568Y-20658600D01*
X26487032Y-20653652D01*
X26487795Y-20653529D01*
X26604740Y-20638783D01*
X26605241Y-20638732D01*
X26630138Y-20636775D01*
X26714614Y-20618385D01*
X26763354Y-20589907D01*
X26812439Y-20546760D01*
X26820913Y-20543874D01*
X26828434Y-20547277D01*
G37*
%TD.AperFunction*%
%TD*%
%TA.AperFunction,Conductor*%
%TO.N,/ETROC4*%
G36*
X24692871Y-12691875D02*
G01*
X24743203Y-12734907D01*
X24794922Y-12763856D01*
X24794924Y-12763856D01*
X24794925Y-12763857D01*
X24838229Y-12774397D01*
X24890230Y-12787054D01*
X24974270Y-12804607D01*
X24976173Y-12805178D01*
X25022042Y-12823345D01*
X25026484Y-12825104D01*
X25028023Y-12825847D01*
X25076252Y-12853666D01*
X25081706Y-12860768D01*
X25080541Y-12869647D01*
X25080162Y-12870259D01*
X24962020Y-13048722D01*
X24958722Y-13052020D01*
X24780930Y-13169718D01*
X24772140Y-13171427D01*
X24764716Y-13166420D01*
X24763997Y-13165174D01*
X24716213Y-13068927D01*
X24715247Y-13066148D01*
X24712255Y-13052020D01*
X24697124Y-12980560D01*
X24697007Y-12979918D01*
X24693897Y-12959742D01*
X24693895Y-12959729D01*
X24668358Y-12872776D01*
X24640078Y-12826493D01*
X24602029Y-12782882D01*
X24599173Y-12774397D01*
X24602572Y-12766920D01*
X24676997Y-12692495D01*
X24685269Y-12689069D01*
X24692871Y-12691875D01*
G37*
%TD.AperFunction*%
%TD*%
%TA.AperFunction,Conductor*%
%TO.N,/DOUT*%
G36*
X30540953Y-28500520D02*
G01*
X30544344Y-28507881D01*
X30549506Y-28573898D01*
X30565605Y-28630936D01*
X30565606Y-28630939D01*
X30595367Y-28679846D01*
X30616596Y-28714734D01*
X30649095Y-28764395D01*
X30663605Y-28786566D01*
X30664553Y-28788327D01*
X30686037Y-28837987D01*
X30686599Y-28839600D01*
X30701031Y-28893374D01*
X30699866Y-28902253D01*
X30692764Y-28907707D01*
X30692063Y-28907872D01*
X30482332Y-28950525D01*
X30477668Y-28950525D01*
X30268724Y-28908033D01*
X30261300Y-28903026D01*
X30259591Y-28894236D01*
X30259964Y-28892846D01*
X30294230Y-28791004D01*
X30295511Y-28788357D01*
X30296676Y-28786566D01*
X30343241Y-28714982D01*
X30343582Y-28714489D01*
X30355667Y-28698004D01*
X30399095Y-28618461D01*
X30411824Y-28565737D01*
X30415757Y-28507997D01*
X30419738Y-28499977D01*
X30427430Y-28497093D01*
X30532680Y-28497093D01*
X30540953Y-28500520D01*
G37*
%TD.AperFunction*%
%TD*%
%TA.AperFunction,Conductor*%
%TO.N,/ETROC2*%
G36*
X18039648Y-20729460D02*
G01*
X18040265Y-20729841D01*
X18194507Y-20831949D01*
X18218722Y-20847979D01*
X18222020Y-20851277D01*
X18339776Y-21029157D01*
X18341485Y-21037947D01*
X18336478Y-21045371D01*
X18335306Y-21046053D01*
X18240384Y-21094119D01*
X18237789Y-21095067D01*
X18153793Y-21114915D01*
X18153172Y-21115045D01*
X18137685Y-21117828D01*
X18049460Y-21144894D01*
X18049458Y-21144895D01*
X18002545Y-21173861D01*
X17957885Y-21212946D01*
X17949403Y-21215815D01*
X17941907Y-21212414D01*
X17867468Y-21137975D01*
X17864041Y-21129702D01*
X17866819Y-21122133D01*
X17909738Y-21071559D01*
X17938064Y-21019391D01*
X17959160Y-20922944D01*
X17975970Y-20834016D01*
X17976560Y-20831958D01*
X17995887Y-20782386D01*
X17996642Y-20780812D01*
X18023674Y-20733773D01*
X18030767Y-20728309D01*
X18039648Y-20729460D01*
G37*
%TD.AperFunction*%
%TD*%
%TA.AperFunction,Conductor*%
%TO.N,/LGAD2*%
G36*
X30310953Y-54260520D02*
G01*
X30314344Y-54267881D01*
X30319506Y-54333898D01*
X30335605Y-54390936D01*
X30335606Y-54390939D01*
X30365367Y-54439846D01*
X30386596Y-54474734D01*
X30419095Y-54524395D01*
X30433605Y-54546566D01*
X30434553Y-54548327D01*
X30456037Y-54597987D01*
X30456599Y-54599600D01*
X30471031Y-54653374D01*
X30469866Y-54662253D01*
X30462764Y-54667707D01*
X30462063Y-54667872D01*
X30252332Y-54710525D01*
X30247668Y-54710525D01*
X30038724Y-54668033D01*
X30031300Y-54663026D01*
X30029591Y-54654236D01*
X30029964Y-54652846D01*
X30064230Y-54551004D01*
X30065511Y-54548357D01*
X30066676Y-54546566D01*
X30113241Y-54474982D01*
X30113582Y-54474489D01*
X30125667Y-54458004D01*
X30169095Y-54378461D01*
X30181824Y-54325737D01*
X30185757Y-54267997D01*
X30189738Y-54259977D01*
X30197430Y-54257093D01*
X30302680Y-54257093D01*
X30310953Y-54260520D01*
G37*
%TD.AperFunction*%
%TD*%
M02*
