%TF.GenerationSoftware,KiCad,Pcbnew,7.0.7*%
%TF.CreationDate,2024-12-12T20:45:32-05:00*%
%TF.ProjectId,design-files_TM,64657369-676e-42d6-9669-6c65735f544d,rev?*%
%TF.SameCoordinates,Original*%
%TF.FileFunction,Copper,L4,Bot*%
%TF.FilePolarity,Positive*%
%FSLAX46Y46*%
G04 Gerber Fmt 4.6, Leading zero omitted, Abs format (unit mm)*
G04 Created by KiCad (PCBNEW 7.0.7) date 2024-12-12 20:45:32*
%MOMM*%
%LPD*%
G01*
G04 APERTURE LIST*
G04 Aperture macros list*
%AMRoundRect*
0 Rectangle with rounded corners*
0 $1 Rounding radius*
0 $2 $3 $4 $5 $6 $7 $8 $9 X,Y pos of 4 corners*
0 Add a 4 corners polygon primitive as box body*
4,1,4,$2,$3,$4,$5,$6,$7,$8,$9,$2,$3,0*
0 Add four circle primitives for the rounded corners*
1,1,$1+$1,$2,$3*
1,1,$1+$1,$4,$5*
1,1,$1+$1,$6,$7*
1,1,$1+$1,$8,$9*
0 Add four rect primitives between the rounded corners*
20,1,$1+$1,$2,$3,$4,$5,0*
20,1,$1+$1,$4,$5,$6,$7,0*
20,1,$1+$1,$6,$7,$8,$9,0*
20,1,$1+$1,$8,$9,$2,$3,0*%
G04 Aperture macros list end*
%TA.AperFunction,SMDPad,CuDef*%
%ADD10RoundRect,0.150000X0.825000X0.150000X-0.825000X0.150000X-0.825000X-0.150000X0.825000X-0.150000X0*%
%TD*%
%TA.AperFunction,SMDPad,CuDef*%
%ADD11R,3.150000X1.000000*%
%TD*%
%TA.AperFunction,SMDPad,CuDef*%
%ADD12R,1.000000X1.000000*%
%TD*%
%TA.AperFunction,SMDPad,CuDef*%
%ADD13RoundRect,0.150000X0.512500X0.150000X-0.512500X0.150000X-0.512500X-0.150000X0.512500X-0.150000X0*%
%TD*%
%TA.AperFunction,SMDPad,CuDef*%
%ADD14RoundRect,0.250000X0.337500X0.475000X-0.337500X0.475000X-0.337500X-0.475000X0.337500X-0.475000X0*%
%TD*%
%TA.AperFunction,SMDPad,CuDef*%
%ADD15RoundRect,0.250000X-0.450000X0.350000X-0.450000X-0.350000X0.450000X-0.350000X0.450000X0.350000X0*%
%TD*%
%TA.AperFunction,SMDPad,CuDef*%
%ADD16RoundRect,0.250000X0.350000X0.450000X-0.350000X0.450000X-0.350000X-0.450000X0.350000X-0.450000X0*%
%TD*%
%TA.AperFunction,SMDPad,CuDef*%
%ADD17R,1.800000X1.000000*%
%TD*%
%TA.AperFunction,SMDPad,CuDef*%
%ADD18RoundRect,0.250000X-0.475000X0.337500X-0.475000X-0.337500X0.475000X-0.337500X0.475000X0.337500X0*%
%TD*%
%TA.AperFunction,SMDPad,CuDef*%
%ADD19RoundRect,0.150000X-0.150000X0.512500X-0.150000X-0.512500X0.150000X-0.512500X0.150000X0.512500X0*%
%TD*%
%TA.AperFunction,SMDPad,CuDef*%
%ADD20RoundRect,0.250000X-0.350000X-0.450000X0.350000X-0.450000X0.350000X0.450000X-0.350000X0.450000X0*%
%TD*%
%TA.AperFunction,SMDPad,CuDef*%
%ADD21RoundRect,0.150000X0.150000X-0.512500X0.150000X0.512500X-0.150000X0.512500X-0.150000X-0.512500X0*%
%TD*%
%TA.AperFunction,SMDPad,CuDef*%
%ADD22RoundRect,0.250000X-0.337500X-0.475000X0.337500X-0.475000X0.337500X0.475000X-0.337500X0.475000X0*%
%TD*%
%TA.AperFunction,SMDPad,CuDef*%
%ADD23RoundRect,0.150000X0.750000X0.150000X-0.750000X0.150000X-0.750000X-0.150000X0.750000X-0.150000X0*%
%TD*%
%TA.AperFunction,SMDPad,CuDef*%
%ADD24R,1.300000X1.600000*%
%TD*%
%TA.AperFunction,SMDPad,CuDef*%
%ADD25R,2.000000X1.600000*%
%TD*%
%TA.AperFunction,ViaPad*%
%ADD26C,0.457300*%
%TD*%
%TA.AperFunction,Conductor*%
%ADD27C,0.127000*%
%TD*%
%TA.AperFunction,Conductor*%
%ADD28C,0.500000*%
%TD*%
%TA.AperFunction,Conductor*%
%ADD29C,0.600000*%
%TD*%
%TA.AperFunction,Conductor*%
%ADD30C,0.200000*%
%TD*%
G04 APERTURE END LIST*
D10*
%TO.P,U6,1,DNC*%
%TO.N,unconnected-(U6-DNC-Pad1)*%
X38035000Y-13335000D03*
%TO.P,U6,2,+V_{IN}*%
%TO.N,+5V*%
X38035000Y-14605000D03*
%TO.P,U6,3,TEMP*%
%TO.N,unconnected-(U6-TEMP-Pad3)*%
X38035000Y-15875000D03*
%TO.P,U6,4,GND*%
%TO.N,GND*%
X38035000Y-17145000D03*
%TO.P,U6,5,TRIM*%
%TO.N,/2.5V*%
X33085000Y-17145000D03*
%TO.P,U6,6,V_{OUT}*%
%TO.N,unconnected-(U6-V_{OUT}-Pad6)*%
X33085000Y-15875000D03*
%TO.P,U6,7,DNC*%
%TO.N,unconnected-(U6-DNC-Pad7)*%
X33085000Y-14605000D03*
%TO.P,U6,8,Vsel*%
%TO.N,unconnected-(U6-Vsel-Pad8)*%
X33085000Y-13335000D03*
%TD*%
D11*
%TO.P,J1,1,Pin_1*%
%TO.N,/CS*%
X27500000Y-31670000D03*
%TO.P,J1,2,Pin_2*%
%TO.N,/DIN*%
X22450000Y-31670000D03*
%TO.P,J1,3,Pin_3*%
%TO.N,/~{RDY}*%
X27500000Y-34210000D03*
%TO.P,J1,4,Pin_4*%
%TO.N,/~{RESET}*%
X22450000Y-34210000D03*
%TO.P,J1,5,Pin_5*%
%TO.N,/DOUT*%
X27500000Y-36750000D03*
%TO.P,J1,6,Pin_6*%
%TO.N,+5V*%
X22450000Y-36750000D03*
%TO.P,J1,7,Pin_7*%
%TO.N,/CS_T1*%
X27500000Y-39290000D03*
%TO.P,J1,8,Pin_8*%
%TO.N,/CS_T2*%
X22450000Y-39290000D03*
%TO.P,J1,9,Pin_9*%
%TO.N,VCC*%
X27500000Y-41830000D03*
%TO.P,J1,10,Pin_10*%
%TO.N,/CLK*%
X22450000Y-41830000D03*
%TO.P,J1,11,Pin_11*%
%TO.N,/CS_T3*%
X27500000Y-44370000D03*
%TO.P,J1,12,Pin_12*%
%TO.N,GND*%
X22450000Y-44370000D03*
%TD*%
D12*
%TO.P,5V,1,1*%
%TO.N,+5V*%
X18700000Y-39000000D03*
%TD*%
%TO.P,E3,1,1*%
%TO.N,/ETROC3*%
X15700000Y-1700000D03*
%TD*%
D13*
%TO.P,U7,1,NC*%
%TO.N,unconnected-(U7-NC-Pad1)*%
X35297500Y-7930000D03*
%TO.P,U7,2,GND*%
%TO.N,GND*%
X35297500Y-8880000D03*
%TO.P,U7,3,V+*%
%TO.N,+5V*%
X35297500Y-9830000D03*
%TO.P,U7,4,SCLK*%
%TO.N,/CLK*%
X33022500Y-9830000D03*
%TO.P,U7,5,~{CS}*%
%TO.N,/CS_T1*%
X33022500Y-8880000D03*
%TO.P,U7,6,SO*%
%TO.N,/DOUT*%
X33022500Y-7930000D03*
%TD*%
D14*
%TO.P,C8,1*%
%TO.N,GND*%
X10567500Y-49340000D03*
%TO.P,C8,2*%
%TO.N,+5V*%
X8492500Y-49340000D03*
%TD*%
D12*
%TO.P,L4,1,1*%
%TO.N,/LGAD4*%
X28650000Y-1700000D03*
%TD*%
D15*
%TO.P,R13,1*%
%TO.N,/2.5V*%
X36000000Y-21000000D03*
%TO.P,R13,2*%
%TO.N,Net-(R13-Pad2)*%
X36000000Y-23000000D03*
%TD*%
D16*
%TO.P,R7,1*%
%TO.N,+5V*%
X33500000Y-56000000D03*
%TO.P,R7,2*%
%TO.N,/LGAD2*%
X31500000Y-56000000D03*
%TD*%
D12*
%TO.P,TP-3,1,1*%
%TO.N,Net-(U3-VSS)*%
X3000000Y-4700000D03*
%TD*%
D14*
%TO.P,C2,1*%
%TO.N,+5V*%
X7975329Y-5000000D03*
%TO.P,C2,2*%
%TO.N,GND*%
X5900329Y-5000000D03*
%TD*%
D17*
%TO.P,Y1,1,1*%
%TO.N,Net-(U5-XTAL2)*%
X5500000Y-10650000D03*
%TO.P,Y1,2,2*%
%TO.N,Net-(U5-XTAL1)*%
X5500000Y-8150000D03*
%TD*%
D16*
%TO.P,R9,1*%
%TO.N,+5V*%
X12000000Y-2100000D03*
%TO.P,R9,2*%
%TO.N,/LGAD3*%
X10000000Y-2100000D03*
%TD*%
D14*
%TO.P,C3,1*%
%TO.N,+5V*%
X12037500Y-5000000D03*
%TO.P,C3,2*%
%TO.N,GND*%
X9962500Y-5000000D03*
%TD*%
D18*
%TO.P,C1,1*%
%TO.N,+5V*%
X41000000Y-14962500D03*
%TO.P,C1,2*%
%TO.N,GND*%
X41000000Y-17037500D03*
%TD*%
D12*
%TO.P,GND,1,1*%
%TO.N,GND*%
X18700000Y-41000000D03*
%TD*%
D16*
%TO.P,R5,1*%
%TO.N,+5V*%
X8750000Y-56000000D03*
%TO.P,R5,2*%
%TO.N,/LGAD1*%
X6750000Y-56000000D03*
%TD*%
D19*
%TO.P,U8,1,NC*%
%TO.N,unconnected-(U8-NC-Pad1)*%
X23250000Y-24582500D03*
%TO.P,U8,2,GND*%
%TO.N,GND*%
X24200000Y-24582500D03*
%TO.P,U8,3,V+*%
%TO.N,+5V*%
X25150000Y-24582500D03*
%TO.P,U8,4,SCLK*%
%TO.N,/CLK*%
X25150000Y-26857500D03*
%TO.P,U8,5,~{CS}*%
%TO.N,/CS_T2*%
X24200000Y-26857500D03*
%TO.P,U8,6,SO*%
%TO.N,/DOUT*%
X23250000Y-26857500D03*
%TD*%
D18*
%TO.P,C6,1*%
%TO.N,GND*%
X37870000Y-7972500D03*
%TO.P,C6,2*%
%TO.N,+5V*%
X37870000Y-10047500D03*
%TD*%
%TO.P,C4,1*%
%TO.N,Net-(U5-XTAL1)*%
X2750000Y-8712500D03*
%TO.P,C4,2*%
%TO.N,GND*%
X2750000Y-10787500D03*
%TD*%
D12*
%TO.P,L1,1,1*%
%TO.N,/LGAD1*%
X16150000Y-56000000D03*
%TD*%
D15*
%TO.P,R14,1*%
%TO.N,Net-(U5-XTAL1)*%
X8000000Y-8250000D03*
%TO.P,R14,2*%
%TO.N,Net-(U5-XTAL2)*%
X8000000Y-10250000D03*
%TD*%
D12*
%TO.P,TP-4,1,1*%
%TO.N,Net-(U4-VSS)*%
X22000000Y-5200000D03*
%TD*%
D20*
%TO.P,JMPR1,1*%
%TO.N,Net-(JMPR1-Pad1)*%
X4550000Y-26940000D03*
%TO.P,JMPR1,2*%
%TO.N,GND*%
X6550000Y-26940000D03*
%TD*%
D21*
%TO.P,U9,1,NC*%
%TO.N,unconnected-(U9-NC-Pad1)*%
X10670000Y-46767500D03*
%TO.P,U9,2,GND*%
%TO.N,GND*%
X9720000Y-46767500D03*
%TO.P,U9,3,V+*%
%TO.N,+5V*%
X8770000Y-46767500D03*
%TO.P,U9,4,SCLK*%
%TO.N,/CLK*%
X8770000Y-44492500D03*
%TO.P,U9,5,~{CS}*%
%TO.N,/CS_T3*%
X9720000Y-44492500D03*
%TO.P,U9,6,SO*%
%TO.N,/DOUT*%
X10670000Y-44492500D03*
%TD*%
D12*
%TO.P,TP-1,1,1*%
%TO.N,Net-(U1-VSS)*%
X19600000Y-51200000D03*
%TD*%
%TO.P,E4,1,1*%
%TO.N,/ETROC4*%
X26500000Y-1700000D03*
%TD*%
D16*
%TO.P,R3,1*%
%TO.N,+5V*%
X8430000Y-33620000D03*
%TO.P,R3,2*%
%TO.N,/V_{ref}*%
X6430000Y-33620000D03*
%TD*%
D12*
%TO.P,TP+,1,1*%
%TO.N,TP+*%
X41000000Y-28800000D03*
%TD*%
%TO.P,L3,1,1*%
%TO.N,/LGAD3*%
X17600000Y-1700000D03*
%TD*%
D16*
%TO.P,R10,1*%
%TO.N,+5V*%
X8000000Y-2100000D03*
%TO.P,R10,2*%
%TO.N,/ETROC3*%
X6000000Y-2100000D03*
%TD*%
D12*
%TO.P,E1,1,1*%
%TO.N,/ETROC1*%
X18000000Y-56000000D03*
%TD*%
D16*
%TO.P,R12,1*%
%TO.N,+5V*%
X34000000Y-2000000D03*
%TO.P,R12,2*%
%TO.N,/ETROC4*%
X32000000Y-2000000D03*
%TD*%
%TO.P,R6,1*%
%TO.N,+5V*%
X13500000Y-56000000D03*
%TO.P,R6,2*%
%TO.N,/ETROC1*%
X11500000Y-56000000D03*
%TD*%
D12*
%TO.P,TP-2,1,1*%
%TO.N,Net-(U2-VSS)*%
X42000000Y-44500000D03*
%TD*%
D16*
%TO.P,R4,1*%
%TO.N,/V_{ref}*%
X8430000Y-30620000D03*
%TO.P,R4,2*%
%TO.N,GND*%
X6430000Y-30620000D03*
%TD*%
D14*
%TO.P,C5,1*%
%TO.N,Net-(U5-XTAL2)*%
X6437500Y-13010000D03*
%TO.P,C5,2*%
%TO.N,GND*%
X4362500Y-13010000D03*
%TD*%
D12*
%TO.P,L2,1,1*%
%TO.N,/LGAD2*%
X26250000Y-56000000D03*
%TD*%
D22*
%TO.P,C7,1*%
%TO.N,GND*%
X24242500Y-22460000D03*
%TO.P,C7,2*%
%TO.N,+5V*%
X26317500Y-22460000D03*
%TD*%
D12*
%TO.P,2.5V,1,1*%
%TO.N,/2.5V*%
X33060000Y-19220000D03*
%TD*%
%TO.P,E2,1,1*%
%TO.N,/ETROC2*%
X28100000Y-56000000D03*
%TD*%
%TO.P,VCC,1,1*%
%TO.N,VCC*%
X31900000Y-31000000D03*
%TD*%
%TO.P,V_{ref},1,1*%
%TO.N,/V_{ref}*%
X6880000Y-35620000D03*
%TD*%
D23*
%TO.P,U5,1,AIN7*%
%TO.N,/LGAD4*%
X20550000Y-8745000D03*
%TO.P,U5,2,AIN8*%
%TO.N,/ETROC4*%
X20550000Y-10015000D03*
%TO.P,U5,3,AV_{DD}*%
%TO.N,+5V*%
X20550000Y-11285000D03*
%TO.P,U5,4,AGND*%
%TO.N,GND*%
X20550000Y-12555000D03*
%TO.P,U5,5,REFIN1(-)*%
X20550000Y-13825000D03*
%TO.P,U5,6,REFIN1(+)*%
%TO.N,/V_{ref}*%
X20550000Y-15095000D03*
%TO.P,U5,7,AIN1*%
%TO.N,/ETROC3*%
X20550000Y-16365000D03*
%TO.P,U5,8,AIN2*%
%TO.N,/LGAD1*%
X20550000Y-17635000D03*
%TO.P,U5,9,AIN3*%
%TO.N,/ETROC1*%
X20550000Y-18905000D03*
%TO.P,U5,10,AIN4*%
%TO.N,/LGAD2*%
X20550000Y-20175000D03*
%TO.P,U5,11,AIN5*%
%TO.N,/ETROC2*%
X20550000Y-21445000D03*
%TO.P,U5,12,AINCOM*%
%TO.N,/V_{ref}*%
X20550000Y-22715000D03*
%TO.P,U5,13,REFIN2(+)/AIN9*%
%TO.N,/2.5V*%
X20550000Y-23985000D03*
%TO.P,U5,14,REFIN2(-)/AIN10*%
%TO.N,GND*%
X20550000Y-25255000D03*
%TO.P,U5,15,AIN6*%
%TO.N,/LGAD3*%
X10950000Y-25255000D03*
%TO.P,U5,16,P2*%
%TO.N,unconnected-(U5-P2-Pad16)*%
X10950000Y-23985000D03*
%TO.P,U5,17,AGND*%
%TO.N,GND*%
X10950000Y-22715000D03*
%TO.P,U5,18,P1*%
%TO.N,unconnected-(U5-P1-Pad18)*%
X10950000Y-21445000D03*
%TO.P,U5,19,~{RESET}*%
%TO.N,/~{RESET}*%
X10950000Y-20175000D03*
%TO.P,U5,20,SCLK*%
%TO.N,/CLK*%
X10950000Y-18905000D03*
%TO.P,U5,21,~{CS}*%
%TO.N,/CS*%
X10950000Y-17635000D03*
%TO.P,U5,22,~{RDY}*%
%TO.N,/~{RDY}*%
X10950000Y-16365000D03*
%TO.P,U5,23,DOUT*%
%TO.N,/DOUT*%
X10950000Y-15095000D03*
%TO.P,U5,24,DIN*%
%TO.N,/DIN*%
X10950000Y-13825000D03*
%TO.P,U5,25,DGND*%
%TO.N,GND*%
X10950000Y-12555000D03*
%TO.P,U5,26,DV_{DD}*%
%TO.N,+5V*%
X10950000Y-11285000D03*
%TO.P,U5,27,XTAL2*%
%TO.N,Net-(U5-XTAL2)*%
X10950000Y-10015000D03*
%TO.P,U5,28,XTAL1*%
%TO.N,Net-(U5-XTAL1)*%
X10950000Y-8745000D03*
%TD*%
D24*
%TO.P,RV1,1,1*%
%TO.N,GND*%
X38750000Y-20550000D03*
D25*
%TO.P,RV1,2,2*%
%TO.N,Net-(R13-Pad2)*%
X40000000Y-23450000D03*
D24*
%TO.P,RV1,3,3*%
%TO.N,/2.5V*%
X41250000Y-20550000D03*
%TD*%
D16*
%TO.P,R11,1*%
%TO.N,+5V*%
X38000000Y-2000000D03*
%TO.P,R11,2*%
%TO.N,/LGAD4*%
X36000000Y-2000000D03*
%TD*%
%TO.P,R8,1*%
%TO.N,+5V*%
X37500000Y-56000000D03*
%TO.P,R8,2*%
%TO.N,/ETROC2*%
X35500000Y-56000000D03*
%TD*%
D26*
%TO.N,+5V*%
X13190000Y-2100000D03*
X18640000Y-36750000D03*
X37130000Y-2000000D03*
X15570000Y-28970000D03*
X26180000Y-20850000D03*
X13150000Y-3880000D03*
X12560000Y-55970000D03*
X7970000Y-3970000D03*
X16960000Y-36750000D03*
X17820000Y-36740000D03*
X41650000Y-5340000D03*
X9800000Y-52040000D03*
X7965000Y-13055000D03*
X38800000Y-56300000D03*
X9070000Y-36740000D03*
X11470000Y-36750000D03*
X7800000Y-56000000D03*
X19460000Y-36740000D03*
X7130000Y-2090000D03*
X23340000Y-13040000D03*
X34500000Y-56300000D03*
X12010000Y-28980000D03*
X39800000Y-13050000D03*
X33110000Y-2010000D03*
%TO.N,/~{RESET}*%
X17350000Y-28920000D03*
X8850000Y-20840000D03*
%TO.N,VCC*%
X1037329Y-5752873D03*
X1682329Y-5752873D03*
X1000000Y-6950000D03*
X1700000Y-6950000D03*
%TO.N,/DOUT*%
X29860000Y-36740000D03*
X12070000Y-44550000D03*
X31620000Y-5400000D03*
X30480000Y-28950000D03*
X13570000Y-13070000D03*
X23240000Y-28430000D03*
%TO.N,/DIN*%
X18420000Y-28920000D03*
X12590000Y-13040000D03*
%TO.N,/CLK*%
X32790000Y-36760000D03*
X25640000Y-28910000D03*
X7810000Y-20840000D03*
X6790000Y-44550000D03*
X30150000Y-13040000D03*
X24970000Y-44560000D03*
%TO.N,GND*%
X3830000Y-54330000D03*
X20574000Y-28450000D03*
X3270000Y-13050000D03*
X16550000Y-4300000D03*
X36070000Y-5410000D03*
X38150000Y-4250000D03*
X12030000Y-52030000D03*
X25700000Y-52700000D03*
X17490000Y-44540000D03*
X16860000Y-44550000D03*
X2090000Y-13050000D03*
X18790000Y-44540000D03*
X27600000Y-53100000D03*
X8460000Y-28390000D03*
X24220000Y-20850000D03*
X9181842Y-28390000D03*
X9130000Y-13050000D03*
X7470000Y-28870000D03*
X19420000Y-44550000D03*
X5810000Y-36770000D03*
X41350000Y-13050000D03*
X40150000Y-4900000D03*
X6020000Y-53330000D03*
X9250000Y-4020000D03*
X18540000Y-4830000D03*
X5900000Y-3850000D03*
X6430000Y-29200000D03*
X40000000Y-20850000D03*
X17950000Y-13050000D03*
X22360000Y-13050000D03*
X18150000Y-44540000D03*
X6530000Y-28450000D03*
%TO.N,Net-(JMPR1-Pad1)*%
X1000000Y-51800000D03*
X1650000Y-50700000D03*
X1000000Y-50700000D03*
X1650000Y-51800000D03*
%TO.N,/LGAD1*%
X15520000Y-20840000D03*
X17850000Y-53350000D03*
X6800000Y-54900000D03*
%TO.N,/ETROC1*%
X10300000Y-55920000D03*
X19750000Y-55000000D03*
X16420000Y-20840000D03*
%TO.N,/CS_T1*%
X30880000Y-5370000D03*
X27570000Y-20870000D03*
%TO.N,/CS_T3*%
X5470000Y-44550000D03*
X29690000Y-44530000D03*
%TO.N,/2.5V*%
X33100000Y-20850000D03*
X22900000Y-20840000D03*
%TO.N,/LGAD2*%
X39600000Y-53400000D03*
X30250000Y-54710000D03*
X17320000Y-20840000D03*
%TO.N,/ETROC2*%
X18220000Y-20850000D03*
X34500000Y-55200000D03*
X42300000Y-54400000D03*
%TO.N,/LGAD3*%
X4400000Y-4200000D03*
X13720000Y-20840000D03*
X10370000Y-3820000D03*
%TO.N,/ETROC3*%
X1500000Y-3250000D03*
X11480000Y-3830000D03*
X14620000Y-20850000D03*
%TO.N,/LGAD4*%
X26310000Y-13050000D03*
X27440000Y-3870000D03*
%TO.N,/ETROC4*%
X24960000Y-13050000D03*
X24321000Y-4509000D03*
%TO.N,TP+*%
X24310000Y-52720000D03*
X18790000Y-3320000D03*
X3060000Y-52740000D03*
X42450000Y-3750000D03*
%TO.N,Net-(U1-VSS)*%
X21300000Y-52500000D03*
%TO.N,Net-(U2-VSS)*%
X42900000Y-52700000D03*
%TO.N,Net-(U3-VSS)*%
X900000Y-4400000D03*
%TO.N,Net-(U4-VSS)*%
X22300000Y-4000000D03*
%TD*%
D27*
%TO.N,+5V*%
X37500000Y-56000000D02*
X37800000Y-56300000D01*
X20550000Y-11285000D02*
X21585000Y-11285000D01*
X41000000Y-14962500D02*
X41000000Y-14250000D01*
X19490000Y-36750000D02*
X19460000Y-36720000D01*
X8492500Y-49340000D02*
X8570000Y-49262500D01*
X33500000Y-56000000D02*
X34200000Y-56000000D01*
X26180000Y-22322500D02*
X26317500Y-22460000D01*
D28*
X12010000Y-28980000D02*
X15560000Y-28980000D01*
D27*
X35297500Y-9830000D02*
X37652500Y-9830000D01*
X25150000Y-23627500D02*
X26317500Y-22460000D01*
X8510000Y-33700000D02*
X8510000Y-36210000D01*
X37652500Y-9830000D02*
X37870000Y-10047500D01*
X12000000Y-2100000D02*
X13190000Y-2100000D01*
X7140000Y-2100000D02*
X7130000Y-2090000D01*
X26180000Y-20850000D02*
X26180000Y-22322500D01*
D28*
X18640000Y-36750000D02*
X17830000Y-36750000D01*
X15560000Y-28980000D02*
X15570000Y-28970000D01*
D27*
X25150000Y-24582500D02*
X25150000Y-23627500D01*
X10950000Y-11285000D02*
X9735000Y-11285000D01*
X33120000Y-2000000D02*
X33110000Y-2010000D01*
X17830000Y-36750000D02*
X17820000Y-36740000D01*
X16970000Y-36740000D02*
X16960000Y-36750000D01*
X34000000Y-2000000D02*
X33120000Y-2000000D01*
X16960000Y-36750000D02*
X16960000Y-37260000D01*
X8492500Y-50712500D02*
X9800000Y-52020000D01*
X37870000Y-10047500D02*
X41650000Y-6267500D01*
D29*
X22450000Y-36750000D02*
X19490000Y-36750000D01*
D27*
X38035000Y-14605000D02*
X40642500Y-14605000D01*
X7975329Y-3975329D02*
X7970000Y-3970000D01*
X12037500Y-4992500D02*
X13150000Y-3880000D01*
D28*
X19460000Y-36740000D02*
X18650000Y-36740000D01*
D27*
X16960000Y-37260000D02*
X18700000Y-39000000D01*
X41650000Y-6267500D02*
X41650000Y-5340000D01*
X21585000Y-11285000D02*
X23340000Y-13040000D01*
X15460000Y-28860000D02*
X15570000Y-28970000D01*
X8750000Y-56000000D02*
X7800000Y-56000000D01*
X34200000Y-56000000D02*
X34500000Y-56300000D01*
X9735000Y-11285000D02*
X7950000Y-13070000D01*
X8570000Y-49262500D02*
X8570000Y-46967500D01*
X8510000Y-36210000D02*
X9050000Y-36750000D01*
X8492500Y-49340000D02*
X8492500Y-50712500D01*
X38000000Y-2000000D02*
X37130000Y-2000000D01*
X41000000Y-14250000D02*
X39800000Y-13050000D01*
X12037500Y-5000000D02*
X12037500Y-4992500D01*
X37800000Y-56300000D02*
X38800000Y-56300000D01*
D28*
X16960000Y-36750000D02*
X11470000Y-36750000D01*
D27*
X8430000Y-33620000D02*
X8510000Y-33700000D01*
D28*
X17820000Y-36740000D02*
X16970000Y-36740000D01*
D27*
X40642500Y-14605000D02*
X41000000Y-14962500D01*
X8000000Y-2100000D02*
X7140000Y-2100000D01*
X12590000Y-56000000D02*
X12560000Y-55970000D01*
X18650000Y-36740000D02*
X18640000Y-36750000D01*
X13500000Y-56000000D02*
X12590000Y-56000000D01*
X7975329Y-5000000D02*
X7975329Y-3975329D01*
X8570000Y-46967500D02*
X8770000Y-46767500D01*
%TO.N,/CS*%
X28330000Y-18950000D02*
X23860000Y-14480000D01*
X28330000Y-30870000D02*
X28330000Y-18950000D01*
X14740000Y-14480000D02*
X11585000Y-17635000D01*
X11585000Y-17635000D02*
X10950000Y-17635000D01*
X27500000Y-31670000D02*
X27530000Y-31670000D01*
X27530000Y-31670000D02*
X28330000Y-30870000D01*
X23860000Y-14480000D02*
X14740000Y-14480000D01*
%TO.N,/~{RESET}*%
X17350000Y-28920000D02*
X17350000Y-30304000D01*
X9515000Y-20175000D02*
X8830000Y-20860000D01*
X10950000Y-20175000D02*
X9515000Y-20175000D01*
X17350000Y-30304000D02*
X21256000Y-34210000D01*
X21256000Y-34210000D02*
X22450000Y-34210000D01*
%TO.N,/~{RDY}*%
X28670000Y-34210000D02*
X27500000Y-34210000D01*
X29650000Y-33170000D02*
X29680000Y-33200000D01*
X18070000Y-12120000D02*
X19170000Y-13220000D01*
X29650000Y-19160000D02*
X29650000Y-33170000D01*
X22190000Y-13940000D02*
X24430000Y-13940000D01*
X15840000Y-12120000D02*
X18070000Y-12120000D01*
X10950000Y-16365000D02*
X11595000Y-16365000D01*
X24430000Y-13940000D02*
X29650000Y-19160000D01*
X21470000Y-13220000D02*
X22190000Y-13940000D01*
X11595000Y-16365000D02*
X15840000Y-12120000D01*
X29680000Y-33200000D02*
X28670000Y-34210000D01*
X19170000Y-13220000D02*
X21470000Y-13220000D01*
D29*
%TO.N,VCC*%
X30950000Y-36240000D02*
X30950000Y-39455000D01*
X33240000Y-31000000D02*
X33240000Y-23710000D01*
D27*
X1037329Y-5752873D02*
X1037329Y-5777329D01*
D29*
X2274456Y-6375544D02*
X1700000Y-6950000D01*
X30950000Y-21490000D02*
X30950000Y-15830000D01*
X1605000Y-6345000D02*
X2274456Y-6345000D01*
X30950000Y-36240000D02*
X33240000Y-33950000D01*
X4495000Y-6345000D02*
X2274456Y-6345000D01*
X22120000Y-7000000D02*
X5150000Y-7000000D01*
X33240000Y-33950000D02*
X33240000Y-31000000D01*
X30950000Y-15830000D02*
X22120000Y-7000000D01*
X28575000Y-41830000D02*
X27500000Y-41830000D01*
X33240000Y-23710000D02*
X31020000Y-21490000D01*
X1000000Y-6950000D02*
X1605000Y-6345000D01*
X30950000Y-39455000D02*
X28575000Y-41830000D01*
D27*
X31900000Y-31000000D02*
X33240000Y-31000000D01*
D29*
X2274456Y-6345000D02*
X1682329Y-5752873D01*
X31020000Y-21490000D02*
X30950000Y-21490000D01*
X5150000Y-7000000D02*
X4495000Y-6345000D01*
X1037329Y-5777329D02*
X1605000Y-6345000D01*
D27*
X2274456Y-6345000D02*
X2274456Y-6375544D01*
%TO.N,/DOUT*%
X12070000Y-44550000D02*
X12012500Y-44492500D01*
X12012500Y-44492500D02*
X10670000Y-44492500D01*
X13570000Y-13070000D02*
X13510000Y-13130000D01*
X23250000Y-28420000D02*
X23240000Y-28430000D01*
X29850000Y-36750000D02*
X29860000Y-36740000D01*
X11545000Y-15095000D02*
X10950000Y-15095000D01*
X31620000Y-6920000D02*
X32630000Y-7930000D01*
X27500000Y-36750000D02*
X29850000Y-36750000D01*
X13510000Y-13130000D02*
X11545000Y-15095000D01*
X23250000Y-26857500D02*
X23250000Y-28420000D01*
X32630000Y-7930000D02*
X33022500Y-7930000D01*
X31620000Y-5400000D02*
X31620000Y-6920000D01*
X13510000Y-13120000D02*
X13570000Y-13070000D01*
%TO.N,/DIN*%
X11805000Y-13825000D02*
X12590000Y-13040000D01*
X18420000Y-28920000D02*
X21170000Y-31670000D01*
X10950000Y-13825000D02*
X11805000Y-13825000D01*
X21170000Y-31670000D02*
X22450000Y-31670000D01*
%TO.N,/CLK*%
X6790000Y-44550000D02*
X8712500Y-44550000D01*
X8712500Y-44550000D02*
X8770000Y-44492500D01*
X32588000Y-9830000D02*
X33022500Y-9830000D01*
X24970000Y-41360000D02*
X24970000Y-41350000D01*
D30*
X22450000Y-41830000D02*
X23540000Y-41830000D01*
D27*
X30150000Y-12268000D02*
X32588000Y-9830000D01*
X24500000Y-41830000D02*
X24970000Y-41360000D01*
X24970000Y-29580000D02*
X25640000Y-28910000D01*
X25640000Y-27670000D02*
X25640000Y-28910000D01*
X24970000Y-41350000D02*
X24970000Y-29580000D01*
X9725000Y-18905000D02*
X7820000Y-20810000D01*
X25150000Y-26857500D02*
X25390000Y-27097500D01*
X10950000Y-18905000D02*
X9725000Y-18905000D01*
X24970000Y-43290000D02*
X24970000Y-44560000D01*
X22450000Y-41830000D02*
X24500000Y-41830000D01*
X30150000Y-13040000D02*
X30150000Y-12268000D01*
X24970000Y-42300000D02*
X24970000Y-43290000D01*
X24500000Y-41830000D02*
X24970000Y-42300000D01*
X25390000Y-27420000D02*
X25640000Y-27670000D01*
X25390000Y-27097500D02*
X25390000Y-27420000D01*
D28*
%TO.N,GND*%
X22300000Y-44520000D02*
X19450000Y-44520000D01*
D27*
X41262500Y-17037500D02*
X42050000Y-16250000D01*
D28*
X13590000Y-44550000D02*
X5810000Y-36770000D01*
X16890000Y-44520000D02*
X16990000Y-44520000D01*
D27*
X16790000Y-44340000D02*
X16990000Y-44540000D01*
X6550000Y-28430000D02*
X6530000Y-28450000D01*
X21885000Y-12555000D02*
X22360000Y-13030000D01*
D28*
X16870000Y-44540000D02*
X18590000Y-44540000D01*
D27*
X37870000Y-7210000D02*
X36070000Y-5410000D01*
D28*
X18790000Y-44540000D02*
X18610000Y-44540000D01*
D27*
X20550000Y-25255000D02*
X20550000Y-28450000D01*
X40892500Y-17145000D02*
X41000000Y-17037500D01*
X24200000Y-22502500D02*
X24242500Y-22460000D01*
X8460000Y-25093460D02*
X8460000Y-28390000D01*
X41000000Y-17037500D02*
X41262500Y-17037500D01*
X16790000Y-42910000D02*
X16790000Y-44340000D01*
X39700000Y-20550000D02*
X40000000Y-20850000D01*
X18700000Y-41000000D02*
X16790000Y-42910000D01*
X24200000Y-24582500D02*
X24200000Y-22502500D01*
X20550000Y-13825000D02*
X18705000Y-13825000D01*
D28*
X22450000Y-44370000D02*
X22300000Y-44520000D01*
X9720000Y-46767500D02*
X9720000Y-46240000D01*
X7030000Y-28430000D02*
X7470000Y-28870000D01*
D27*
X37870000Y-7972500D02*
X37870000Y-7210000D01*
X9720000Y-46767500D02*
X9720000Y-48492500D01*
X36962500Y-8880000D02*
X37870000Y-7972500D01*
X5900329Y-5000000D02*
X5900329Y-3850329D01*
D29*
X8460000Y-28390000D02*
X9181842Y-28390000D01*
D27*
X35297500Y-8880000D02*
X36962500Y-8880000D01*
D28*
X16860000Y-44550000D02*
X13590000Y-44550000D01*
D27*
X12030000Y-50802500D02*
X12030000Y-52030000D01*
X10838460Y-22715000D02*
X8460000Y-25093460D01*
D28*
X18610000Y-44540000D02*
X18600000Y-44550000D01*
X18590000Y-44540000D02*
X18600000Y-44550000D01*
D27*
X38035000Y-17145000D02*
X40892500Y-17145000D01*
D28*
X19450000Y-44520000D02*
X19420000Y-44550000D01*
X16860000Y-44550000D02*
X16890000Y-44520000D01*
D27*
X9720000Y-48492500D02*
X10567500Y-49340000D01*
X10950000Y-12555000D02*
X9625000Y-12555000D01*
D28*
X7980000Y-28870000D02*
X8460000Y-28390000D01*
D27*
X18705000Y-13825000D02*
X17950000Y-13070000D01*
D28*
X19420000Y-44550000D02*
X18600000Y-44550000D01*
D27*
X42050000Y-16250000D02*
X42050000Y-13750000D01*
X24242500Y-20872500D02*
X24220000Y-20850000D01*
X24242500Y-22460000D02*
X24242500Y-20872500D01*
X10567500Y-49340000D02*
X12030000Y-50802500D01*
D28*
X6550000Y-26940000D02*
X6550000Y-28430000D01*
D27*
X4362500Y-13010000D02*
X3310000Y-13010000D01*
D28*
X16860000Y-44550000D02*
X16870000Y-44540000D01*
X7470000Y-28870000D02*
X7980000Y-28870000D01*
D27*
X38750000Y-20550000D02*
X39700000Y-20550000D01*
X9962500Y-5000000D02*
X9962500Y-4732500D01*
X6430000Y-29200000D02*
X6430000Y-30620000D01*
X5900329Y-3850329D02*
X5900000Y-3850000D01*
D28*
X6550000Y-28430000D02*
X7030000Y-28430000D01*
D27*
X3310000Y-13010000D02*
X3270000Y-13050000D01*
X9962500Y-4732500D02*
X9250000Y-4020000D01*
X20550000Y-12555000D02*
X21885000Y-12555000D01*
X42050000Y-13750000D02*
X41350000Y-13050000D01*
X2750000Y-10787500D02*
X2090000Y-11447500D01*
X10950000Y-22715000D02*
X10838460Y-22715000D01*
X2090000Y-11447500D02*
X2090000Y-13070000D01*
X9625000Y-12555000D02*
X9100000Y-13080000D01*
%TO.N,Net-(JMPR1-Pad1)*%
X1400000Y-51400000D02*
X1400000Y-50800000D01*
D29*
X2740000Y-28750000D02*
X4550000Y-26940000D01*
X2740000Y-48180000D02*
X2740000Y-28750000D01*
X1400000Y-50800000D02*
X1400000Y-49520000D01*
X1400000Y-51550000D02*
X1400000Y-50800000D01*
X1000000Y-51800000D02*
X1400000Y-51400000D01*
X1400000Y-49520000D02*
X2740000Y-48180000D01*
X1650000Y-50700000D02*
X1500000Y-50700000D01*
X1000000Y-50700000D02*
X1300000Y-50700000D01*
D27*
X1300000Y-50700000D02*
X1400000Y-50800000D01*
D29*
X1650000Y-51800000D02*
X1400000Y-51550000D01*
D27*
X1500000Y-50700000D02*
X1400000Y-50800000D01*
%TO.N,/V_{ref}*%
X8430000Y-30540000D02*
X16255000Y-22715000D01*
X22120000Y-21800000D02*
X21205000Y-22715000D01*
X16255000Y-22715000D02*
X20550000Y-22715000D01*
X6430000Y-33620000D02*
X6880000Y-34070000D01*
X6880000Y-34070000D02*
X6880000Y-35620000D01*
X8430000Y-30620000D02*
X8430000Y-30540000D01*
X21675000Y-15095000D02*
X22120000Y-15540000D01*
X22120000Y-15540000D02*
X22120000Y-21800000D01*
X8430000Y-30620000D02*
X6430000Y-32620000D01*
X21205000Y-22715000D02*
X20550000Y-22715000D01*
X6430000Y-32620000D02*
X6430000Y-33620000D01*
X20550000Y-15095000D02*
X21675000Y-15095000D01*
%TO.N,/LGAD1*%
X8050000Y-54700000D02*
X16500000Y-54700000D01*
X15150000Y-57000000D02*
X16150000Y-56000000D01*
X20550000Y-17635000D02*
X18725000Y-17635000D01*
X14820000Y-57000000D02*
X7750000Y-57000000D01*
X6750000Y-54950000D02*
X6800000Y-54900000D01*
X7750000Y-57000000D02*
X6750000Y-56000000D01*
X6750000Y-56000000D02*
X8050000Y-54700000D01*
X18725000Y-17635000D02*
X15520000Y-20840000D01*
X6750000Y-56000000D02*
X6750000Y-54950000D01*
X16500000Y-54700000D02*
X17850000Y-53350000D01*
X14820000Y-57000000D02*
X15150000Y-57000000D01*
%TO.N,/ETROC1*%
X18355000Y-18905000D02*
X16420000Y-20840000D01*
X18750000Y-56000000D02*
X18000000Y-56000000D01*
X19750000Y-55000000D02*
X12500000Y-55000000D01*
X11500000Y-56000000D02*
X10380000Y-56000000D01*
X12500000Y-55000000D02*
X11500000Y-56000000D01*
X19750000Y-55000000D02*
X18750000Y-56000000D01*
X20550000Y-18905000D02*
X18355000Y-18905000D01*
X10380000Y-56000000D02*
X10300000Y-55920000D01*
D30*
%TO.N,Net-(U5-XTAL1)*%
X3312500Y-8150000D02*
X2750000Y-8712500D01*
X8000000Y-8250000D02*
X7900000Y-8150000D01*
X10950000Y-8745000D02*
X8495000Y-8745000D01*
X5500000Y-8150000D02*
X3312500Y-8150000D01*
X8495000Y-8745000D02*
X8000000Y-8250000D01*
X7900000Y-8150000D02*
X5500000Y-8150000D01*
%TO.N,Net-(U5-XTAL2)*%
X8235000Y-10015000D02*
X8000000Y-10250000D01*
X7600000Y-10650000D02*
X5500000Y-10650000D01*
X8000000Y-10250000D02*
X7600000Y-10650000D01*
X10950000Y-10015000D02*
X8235000Y-10015000D01*
X5500000Y-12072500D02*
X5500000Y-10650000D01*
X6437500Y-13010000D02*
X5500000Y-12072500D01*
D27*
%TO.N,/CS_T1*%
X30880000Y-8080000D02*
X31680000Y-8880000D01*
X25400000Y-30734000D02*
X25400000Y-38354000D01*
X27600000Y-28534000D02*
X25400000Y-30734000D01*
X27570000Y-20870000D02*
X27600000Y-20900000D01*
X26336000Y-39290000D02*
X27500000Y-39290000D01*
X31680000Y-8880000D02*
X33022500Y-8880000D01*
X27600000Y-20900000D02*
X27600000Y-28534000D01*
X27570000Y-20870000D02*
X27640000Y-20800000D01*
X30880000Y-5370000D02*
X30880000Y-8080000D01*
X25400000Y-38354000D02*
X26336000Y-39290000D01*
%TO.N,/CS_T2*%
X24400000Y-38338000D02*
X24400000Y-28718000D01*
X24200000Y-28518000D02*
X24200000Y-26857500D01*
X24400000Y-28718000D02*
X24200000Y-28518000D01*
X22450000Y-39290000D02*
X23448000Y-39290000D01*
X23448000Y-39290000D02*
X24400000Y-38338000D01*
%TO.N,/CS_T3*%
X7010000Y-43010000D02*
X9430000Y-43010000D01*
X5470000Y-44550000D02*
X7010000Y-43010000D01*
X29530000Y-44370000D02*
X29690000Y-44530000D01*
X27680000Y-44550000D02*
X27500000Y-44370000D01*
X29700000Y-44530000D02*
X29735000Y-44495000D01*
X27500000Y-44370000D02*
X29530000Y-44370000D01*
X27500000Y-44370000D02*
X27320000Y-44550000D01*
X9430000Y-43010000D02*
X9720000Y-43300000D01*
X9720000Y-43300000D02*
X9720000Y-44492500D01*
X27500000Y-44370000D02*
X27660000Y-44530000D01*
%TO.N,/2.5V*%
X20875000Y-23985000D02*
X20550000Y-23985000D01*
X33085000Y-20735000D02*
X33150000Y-20800000D01*
X33085000Y-17145000D02*
X33085000Y-20735000D01*
X22900000Y-21960000D02*
X20875000Y-23985000D01*
X33085000Y-17145000D02*
X34495000Y-17145000D01*
X41250000Y-19500000D02*
X40400000Y-18650000D01*
X34495000Y-17145000D02*
X36000000Y-18650000D01*
X33085000Y-17145000D02*
X33080000Y-17150000D01*
X36000000Y-18650000D02*
X36000000Y-21000000D01*
X41250000Y-20550000D02*
X41250000Y-19500000D01*
X22900000Y-20840000D02*
X22900000Y-21960000D01*
X40400000Y-18650000D02*
X36000000Y-18650000D01*
%TO.N,Net-(R13-Pad2)*%
X40000000Y-23450000D02*
X36450000Y-23450000D01*
X36450000Y-23450000D02*
X36000000Y-23000000D01*
%TO.N,/LGAD2*%
X31360000Y-56000000D02*
X32660000Y-54700000D01*
X31500000Y-56000000D02*
X31500000Y-55960000D01*
X17985000Y-20175000D02*
X17320000Y-20840000D01*
X31500000Y-55960000D02*
X30250000Y-54710000D01*
X20550000Y-20175000D02*
X17985000Y-20175000D01*
X30250000Y-54710000D02*
X27540000Y-54710000D01*
X27540000Y-54710000D02*
X26250000Y-56000000D01*
X38300000Y-54700000D02*
X39600000Y-53400000D01*
X32660000Y-54700000D02*
X38300000Y-54700000D01*
%TO.N,/ETROC2*%
X34725500Y-56770000D02*
X34440000Y-57055500D01*
X20550000Y-21445000D02*
X18815000Y-21445000D01*
X34700000Y-55200000D02*
X34500000Y-55200000D01*
X35500000Y-56000000D02*
X34700000Y-55200000D01*
X41700000Y-55000000D02*
X42300000Y-54400000D01*
X35500000Y-56000000D02*
X36500000Y-55000000D01*
X34730000Y-56770000D02*
X35500000Y-56000000D01*
X29155500Y-57055500D02*
X34440000Y-57055500D01*
X28100000Y-56000000D02*
X29155500Y-57055500D01*
X18815000Y-21445000D02*
X18220000Y-20850000D01*
X34730000Y-56770000D02*
X34725500Y-56770000D01*
X36500000Y-55000000D02*
X41700000Y-55000000D01*
%TO.N,/LGAD3*%
X10000000Y-2100000D02*
X10000000Y-2200000D01*
X10000000Y-2100000D02*
X10370000Y-2470000D01*
X12895000Y-25255000D02*
X13720000Y-24430000D01*
X17600000Y-2620000D02*
X14020000Y-6200000D01*
X5410000Y-6200000D02*
X4400000Y-5190000D01*
X5100000Y-3400000D02*
X4400000Y-4100000D01*
X4400000Y-5190000D02*
X4400000Y-4200000D01*
X10000000Y-2200000D02*
X8800000Y-3400000D01*
X14020000Y-6200000D02*
X5410000Y-6200000D01*
X13720000Y-24430000D02*
X13720000Y-20840000D01*
X17600000Y-1700000D02*
X17600000Y-2620000D01*
X10950000Y-25255000D02*
X12895000Y-25255000D01*
X8800000Y-3400000D02*
X5100000Y-3400000D01*
X4400000Y-4100000D02*
X4400000Y-4200000D01*
X10370000Y-2470000D02*
X10370000Y-3820000D01*
%TO.N,/ETROC3*%
X15090000Y-1090000D02*
X15700000Y-1700000D01*
X6000000Y-2100000D02*
X6000000Y-1540000D01*
X10560000Y-1090000D02*
X11120000Y-1090000D01*
X20550000Y-16365000D02*
X19105000Y-16365000D01*
X19105000Y-16365000D02*
X14620000Y-20850000D01*
X6450000Y-1090000D02*
X10560000Y-1090000D01*
X10560000Y-1090000D02*
X10990000Y-1520000D01*
X11040000Y-1090000D02*
X15090000Y-1090000D01*
X6000000Y-1540000D02*
X6450000Y-1090000D01*
X11480000Y-3830000D02*
X10990000Y-3340000D01*
X5240000Y-2860000D02*
X1890000Y-2860000D01*
X1890000Y-2860000D02*
X1500000Y-3250000D01*
X10990000Y-1520000D02*
X10990000Y-3340000D01*
X6000000Y-2100000D02*
X5240000Y-2860000D01*
%TO.N,/LGAD4*%
X35846000Y-2154000D02*
X35846000Y-2164000D01*
X27840000Y-4270000D02*
X27440000Y-3870000D01*
X22055000Y-8745000D02*
X26330000Y-13020000D01*
X36000000Y-2000000D02*
X35846000Y-2154000D01*
X28650000Y-1700000D02*
X28650000Y-2660000D01*
X28650000Y-2660000D02*
X27440000Y-3870000D01*
X33740000Y-4270000D02*
X27840000Y-4270000D01*
X35846000Y-2164000D02*
X33740000Y-4270000D01*
X20550000Y-8745000D02*
X22055000Y-8745000D01*
%TO.N,/ETROC4*%
X24321000Y-4509000D02*
X24450000Y-4380000D01*
X26470000Y-1700000D02*
X26500000Y-1700000D01*
X24450000Y-3720000D02*
X26470000Y-1700000D01*
X30660000Y-660000D02*
X27540000Y-660000D01*
X20550000Y-10015000D02*
X21835000Y-10015000D01*
X32000000Y-2000000D02*
X30660000Y-660000D01*
X21835000Y-10015000D02*
X24910000Y-13090000D01*
X27540000Y-660000D02*
X26500000Y-1700000D01*
X24450000Y-4380000D02*
X24450000Y-3720000D01*
%TO.N,TP+*%
X3670000Y-52080000D02*
X3060000Y-52690000D01*
X26900000Y-6200000D02*
X28528000Y-4572000D01*
X34128000Y-4572000D02*
X35350000Y-3350000D01*
X13320000Y-52090000D02*
X12130000Y-53280000D01*
X18440000Y-52090000D02*
X13320000Y-52090000D01*
X41000000Y-28800000D02*
X41000000Y-36030000D01*
X24310000Y-52830000D02*
X23200000Y-53940000D01*
X42050000Y-3350000D02*
X42450000Y-3750000D01*
X35350000Y-3350000D02*
X42050000Y-3350000D01*
X41000000Y-36030000D02*
X24310000Y-52720000D01*
X21670000Y-6200000D02*
X26900000Y-6200000D01*
X8320000Y-52080000D02*
X3670000Y-52080000D01*
X41000000Y-28800000D02*
X42600000Y-27200000D01*
X20290000Y-53940000D02*
X18440000Y-52090000D01*
X24310000Y-52720000D02*
X24310000Y-52830000D01*
X23200000Y-53940000D02*
X20290000Y-53940000D01*
X3060000Y-52690000D02*
X3060000Y-52740000D01*
X9520000Y-53280000D02*
X8320000Y-52080000D01*
X42450000Y-3750000D02*
X42600000Y-3900000D01*
X12130000Y-53280000D02*
X9520000Y-53280000D01*
X42600000Y-3900000D02*
X42600000Y-27200000D01*
X18790000Y-3320000D02*
X21670000Y-6200000D01*
X28528000Y-4572000D02*
X34128000Y-4572000D01*
%TO.N,Net-(U1-VSS)*%
X21300000Y-52500000D02*
X20900000Y-52500000D01*
X20900000Y-52500000D02*
X19600000Y-51200000D01*
%TO.N,Net-(U2-VSS)*%
X42000000Y-44500000D02*
X42000000Y-51800000D01*
X42000000Y-51800000D02*
X42900000Y-52700000D01*
%TO.N,Net-(U3-VSS)*%
X1200000Y-4700000D02*
X900000Y-4400000D01*
X3000000Y-4700000D02*
X1200000Y-4700000D01*
%TO.N,Net-(U4-VSS)*%
X22000000Y-5200000D02*
X22000000Y-4300000D01*
X22000000Y-4300000D02*
X22300000Y-4000000D01*
%TD*%
%TA.AperFunction,Conductor*%
%TO.N,/CS_T2*%
G36*
X24259262Y-38394502D02*
G01*
X24261120Y-38396014D01*
X24340452Y-38475346D01*
X24343879Y-38483619D01*
X24342612Y-38488915D01*
X24027858Y-39108975D01*
X24021057Y-39114801D01*
X24018725Y-39115307D01*
X22459796Y-39289533D01*
X22451193Y-39287046D01*
X22447060Y-39280377D01*
X22343571Y-38801523D01*
X22345173Y-38792714D01*
X22352534Y-38787617D01*
X24250466Y-38392832D01*
X24259262Y-38394502D01*
G37*
%TD.AperFunction*%
%TD*%
%TA.AperFunction,Conductor*%
%TO.N,/ETROC2*%
G36*
X42099402Y-54316858D02*
G01*
X42296171Y-54397435D01*
X42302528Y-54403741D01*
X42302564Y-54403828D01*
X42383140Y-54600596D01*
X42383104Y-54609551D01*
X42376926Y-54615782D01*
X42028824Y-54765136D01*
X42019870Y-54765249D01*
X42015938Y-54762657D01*
X41937342Y-54684061D01*
X41933915Y-54675788D01*
X41934862Y-54671178D01*
X42084219Y-54323071D01*
X42090628Y-54316821D01*
X42099402Y-54316858D01*
G37*
%TD.AperFunction*%
%TD*%
%TA.AperFunction,Conductor*%
%TO.N,/CS_T1*%
G36*
X27574507Y-20870888D02*
G01*
X27771321Y-20953343D01*
X27777627Y-20959700D01*
X27777932Y-20967736D01*
X27666121Y-21313235D01*
X27660313Y-21320052D01*
X27654989Y-21321333D01*
X27543806Y-21321333D01*
X27535533Y-21317906D01*
X27533293Y-21314769D01*
X27532544Y-21313235D01*
X27364194Y-20968636D01*
X27363643Y-20959700D01*
X27369572Y-20952989D01*
X27370169Y-20952718D01*
X27565479Y-20870893D01*
X27574434Y-20870858D01*
X27574507Y-20870888D01*
G37*
%TD.AperFunction*%
%TD*%
%TA.AperFunction,Conductor*%
%TO.N,/ETROC1*%
G36*
X19549402Y-54916858D02*
G01*
X19746171Y-54997435D01*
X19752528Y-55003741D01*
X19752564Y-55003828D01*
X19833140Y-55200596D01*
X19833104Y-55209551D01*
X19826926Y-55215782D01*
X19478824Y-55365136D01*
X19469870Y-55365249D01*
X19465938Y-55362657D01*
X19387342Y-55284061D01*
X19383915Y-55275788D01*
X19384862Y-55271178D01*
X19534219Y-54923071D01*
X19540628Y-54916821D01*
X19549402Y-54916858D01*
G37*
%TD.AperFunction*%
%TD*%
%TA.AperFunction,Conductor*%
%TO.N,GND*%
G36*
X22100954Y-12677188D02*
G01*
X22301402Y-12770641D01*
X22437390Y-12834041D01*
X22443440Y-12840643D01*
X22443273Y-12849079D01*
X22362564Y-13046171D01*
X22356258Y-13052528D01*
X22356171Y-13052564D01*
X22159786Y-13132983D01*
X22150831Y-13132947D01*
X22144525Y-13126590D01*
X22144468Y-13126446D01*
X22006485Y-12770640D01*
X22006688Y-12761689D01*
X22009117Y-12758141D01*
X22087739Y-12679519D01*
X22096011Y-12676093D01*
X22100954Y-12677188D01*
G37*
%TD.AperFunction*%
%TD*%
%TA.AperFunction,Conductor*%
%TO.N,/ETROC2*%
G36*
X34513436Y-55138522D02*
G01*
X35574933Y-55298307D01*
X35582603Y-55302927D01*
X35584805Y-55311290D01*
X35501775Y-55993630D01*
X35497374Y-56001429D01*
X35495214Y-56002770D01*
X34911366Y-56282312D01*
X34902424Y-56282794D01*
X34895760Y-56276812D01*
X34895415Y-56276015D01*
X34500802Y-55265553D01*
X34500000Y-55261297D01*
X34500000Y-55150093D01*
X34503427Y-55141820D01*
X34511700Y-55138393D01*
X34513436Y-55138522D01*
G37*
%TD.AperFunction*%
%TD*%
%TA.AperFunction,Conductor*%
%TO.N,GND*%
G36*
X24264995Y-23623427D02*
G01*
X24266872Y-23625881D01*
X24485445Y-24007126D01*
X24486587Y-24016007D01*
X24485737Y-24018223D01*
X24210442Y-24562842D01*
X24203651Y-24568680D01*
X24194722Y-24568006D01*
X24189558Y-24562842D01*
X23914262Y-24018223D01*
X23913588Y-24009294D01*
X23914551Y-24007130D01*
X24133128Y-23625880D01*
X24140216Y-23620408D01*
X24143278Y-23620000D01*
X24256722Y-23620000D01*
X24264995Y-23623427D01*
G37*
%TD.AperFunction*%
%TD*%
%TA.AperFunction,Conductor*%
%TO.N,/LGAD3*%
G36*
X17608727Y-1707818D02*
G01*
X17608972Y-1708070D01*
X18064722Y-2192038D01*
X18067899Y-2200410D01*
X18064780Y-2208017D01*
X17596594Y-2712566D01*
X17588455Y-2716300D01*
X17580060Y-2713184D01*
X17579745Y-2712881D01*
X17498531Y-2631667D01*
X17498531Y-2631666D01*
X17107624Y-2208258D01*
X17104531Y-2199856D01*
X17107948Y-2192051D01*
X17592182Y-1707817D01*
X17600454Y-1704391D01*
X17608727Y-1707818D01*
G37*
%TD.AperFunction*%
%TD*%
%TA.AperFunction,Conductor*%
%TO.N,GND*%
G36*
X10147673Y-12268230D02*
G01*
X10920132Y-12543981D01*
X10926771Y-12549990D01*
X10927217Y-12558934D01*
X10921208Y-12565573D01*
X10920132Y-12566019D01*
X10147673Y-12841769D01*
X10138729Y-12841323D01*
X10137920Y-12840900D01*
X9755881Y-12621871D01*
X9750408Y-12614783D01*
X9750000Y-12611721D01*
X9750000Y-12498278D01*
X9753427Y-12490005D01*
X9755879Y-12488129D01*
X10137920Y-12269098D01*
X10146801Y-12267957D01*
X10147673Y-12268230D01*
G37*
%TD.AperFunction*%
%TD*%
%TA.AperFunction,Conductor*%
%TO.N,/V_{ref}*%
G36*
X21409461Y-14841497D02*
G01*
X21410734Y-14842295D01*
X21760661Y-15094293D01*
X21761770Y-15095091D01*
X21766481Y-15102706D01*
X21764427Y-15111422D01*
X21763206Y-15112858D01*
X21684196Y-15191868D01*
X21681833Y-15193693D01*
X21362114Y-15380824D01*
X21353243Y-15382045D01*
X21352261Y-15381741D01*
X20582902Y-15106324D01*
X20576268Y-15100310D01*
X20575830Y-15091366D01*
X20581844Y-15084732D01*
X20583493Y-15084099D01*
X21400556Y-14840576D01*
X21409461Y-14841497D01*
G37*
%TD.AperFunction*%
%TD*%
%TA.AperFunction,Conductor*%
%TO.N,/ETROC4*%
G36*
X21361270Y-9728676D02*
G01*
X21362079Y-9729099D01*
X21744119Y-9948128D01*
X21749592Y-9955216D01*
X21750000Y-9958278D01*
X21750000Y-10071721D01*
X21746573Y-10079994D01*
X21744119Y-10081871D01*
X21362079Y-10300900D01*
X21353198Y-10302042D01*
X21352326Y-10301769D01*
X20579867Y-10026019D01*
X20573228Y-10020010D01*
X20572782Y-10011066D01*
X20578791Y-10004427D01*
X20579867Y-10003981D01*
X21352326Y-9728230D01*
X21361270Y-9728676D01*
G37*
%TD.AperFunction*%
%TD*%
%TA.AperFunction,Conductor*%
%TO.N,/DOUT*%
G36*
X31624507Y-5400888D02*
G01*
X31820631Y-5483054D01*
X31826937Y-5489411D01*
X31826975Y-5498186D01*
X31686440Y-5849941D01*
X31680188Y-5856352D01*
X31675575Y-5857300D01*
X31564425Y-5857300D01*
X31556152Y-5853873D01*
X31553560Y-5849941D01*
X31413024Y-5498186D01*
X31413137Y-5489232D01*
X31419366Y-5483055D01*
X31615479Y-5400893D01*
X31624434Y-5400858D01*
X31624507Y-5400888D01*
G37*
%TD.AperFunction*%
%TD*%
%TA.AperFunction,Conductor*%
%TO.N,+5V*%
G36*
X25741178Y-22221261D02*
G01*
X26312045Y-22456751D01*
X26318386Y-22463074D01*
X26319162Y-22465889D01*
X26421892Y-23174930D01*
X26419687Y-23183609D01*
X26413582Y-23187842D01*
X25384788Y-23487226D01*
X25375887Y-23486247D01*
X25373246Y-23484265D01*
X25293658Y-23404677D01*
X25290231Y-23396404D01*
X25290969Y-23392313D01*
X25725766Y-22227986D01*
X25731870Y-22221436D01*
X25740819Y-22221120D01*
X25741178Y-22221261D01*
G37*
%TD.AperFunction*%
%TD*%
%TA.AperFunction,Conductor*%
%TO.N,/LGAD1*%
G36*
X6804520Y-54900894D02*
G01*
X6890169Y-54936776D01*
X6999247Y-54982474D01*
X7005553Y-54988831D01*
X7005517Y-54997786D01*
X7004980Y-54998900D01*
X6816833Y-55341289D01*
X6809845Y-55346889D01*
X6806579Y-55347354D01*
X6695446Y-55347354D01*
X6687173Y-55343927D01*
X6684155Y-55338721D01*
X6591851Y-54998900D01*
X6591442Y-54997394D01*
X6592581Y-54988514D01*
X6598209Y-54983539D01*
X6795479Y-54900893D01*
X6804433Y-54900858D01*
X6804520Y-54900894D01*
G37*
%TD.AperFunction*%
%TD*%
%TA.AperFunction,Conductor*%
%TO.N,/LGAD4*%
G36*
X26069140Y-12665730D02*
G01*
X26244919Y-12758354D01*
X26388101Y-12833802D01*
X26393823Y-12840691D01*
X26393474Y-12848587D01*
X26312564Y-13046171D01*
X26306258Y-13052528D01*
X26306171Y-13052564D01*
X26110376Y-13132742D01*
X26101421Y-13132706D01*
X26095115Y-13126349D01*
X26094837Y-13125598D01*
X25973962Y-12758351D01*
X25974631Y-12749424D01*
X25976800Y-12746426D01*
X26055418Y-12667808D01*
X26063690Y-12664382D01*
X26069140Y-12665730D01*
G37*
%TD.AperFunction*%
%TD*%
%TA.AperFunction,Conductor*%
%TO.N,+5V*%
G36*
X12949402Y-3796858D02*
G01*
X13146171Y-3877435D01*
X13152528Y-3883741D01*
X13152564Y-3883828D01*
X13233140Y-4080596D01*
X13233104Y-4089551D01*
X13226926Y-4095782D01*
X12878824Y-4245136D01*
X12869870Y-4245249D01*
X12865938Y-4242657D01*
X12787342Y-4164061D01*
X12783915Y-4155788D01*
X12784862Y-4151178D01*
X12934219Y-3803071D01*
X12940628Y-3796821D01*
X12949402Y-3796858D01*
G37*
%TD.AperFunction*%
%TD*%
%TA.AperFunction,Conductor*%
%TO.N,Net-(R13-Pad2)*%
G36*
X39007841Y-22656266D02*
G01*
X39420090Y-22985736D01*
X39989563Y-23440860D01*
X39993887Y-23448702D01*
X39991399Y-23457304D01*
X39989563Y-23459140D01*
X39007842Y-24243732D01*
X38999240Y-24246220D01*
X38992614Y-24243200D01*
X38203776Y-23516976D01*
X38200010Y-23508851D01*
X38200000Y-23508368D01*
X38200000Y-23391631D01*
X38203427Y-23383358D01*
X38203757Y-23383040D01*
X38992615Y-22656798D01*
X39001021Y-22653717D01*
X39007841Y-22656266D01*
G37*
%TD.AperFunction*%
%TD*%
%TA.AperFunction,Conductor*%
%TO.N,Net-(U5-XTAL1)*%
G36*
X4606857Y-7653805D02*
G01*
X4608830Y-7654900D01*
X5482565Y-8139770D01*
X5488136Y-8146780D01*
X5487118Y-8155677D01*
X5482565Y-8160230D01*
X4606859Y-8646193D01*
X4597962Y-8647211D01*
X4593875Y-8645100D01*
X4384095Y-8477276D01*
X4104391Y-8253512D01*
X4100072Y-8245668D01*
X4100000Y-8244376D01*
X4100000Y-8055623D01*
X4103427Y-8047350D01*
X4104391Y-8046487D01*
X4593876Y-7654899D01*
X4602474Y-7652408D01*
X4606857Y-7653805D01*
G37*
%TD.AperFunction*%
%TD*%
%TA.AperFunction,Conductor*%
%TO.N,+5V*%
G36*
X7228253Y-1883367D02*
G01*
X7228316Y-1883393D01*
X7578223Y-2033460D01*
X7584475Y-2039871D01*
X7585311Y-2044213D01*
X7585311Y-2155388D01*
X7581884Y-2163661D01*
X7577714Y-2166345D01*
X7228044Y-2297296D01*
X7219095Y-2296988D01*
X7213150Y-2290860D01*
X7130894Y-2094521D01*
X7130858Y-2085566D01*
X7130894Y-2085479D01*
X7148182Y-2044213D01*
X7212942Y-1889635D01*
X7219298Y-1883331D01*
X7228253Y-1883367D01*
G37*
%TD.AperFunction*%
%TD*%
%TA.AperFunction,Conductor*%
%TO.N,+5V*%
G36*
X8028474Y-3937766D02*
G01*
X8481360Y-4340883D01*
X8485261Y-4348943D01*
X8482757Y-4356880D01*
X7983810Y-4987675D01*
X7975990Y-4992038D01*
X7967376Y-4989593D01*
X7965448Y-4987663D01*
X7468730Y-4357957D01*
X7466297Y-4349339D01*
X7470670Y-4341525D01*
X7471192Y-4341136D01*
X7930428Y-4020230D01*
X8012425Y-3938232D01*
X8020697Y-3934806D01*
X8028474Y-3937766D01*
G37*
%TD.AperFunction*%
%TD*%
%TA.AperFunction,Conductor*%
%TO.N,Net-(JMPR1-Pad1)*%
G36*
X1617046Y-50623424D02*
G01*
X1619590Y-50627238D01*
X1648152Y-50696519D01*
X1648137Y-50705473D01*
X1648137Y-50705474D01*
X1567818Y-50898462D01*
X1561475Y-50904783D01*
X1552520Y-50904768D01*
X1550781Y-50903866D01*
X1134301Y-50641597D01*
X1129127Y-50634289D01*
X1130636Y-50625462D01*
X1137944Y-50620288D01*
X1140536Y-50619997D01*
X1608773Y-50619997D01*
X1617046Y-50623424D01*
G37*
%TD.AperFunction*%
%TD*%
%TA.AperFunction,Conductor*%
%TO.N,/V_{ref}*%
G36*
X6439383Y-33626174D02*
G01*
X6440639Y-33626997D01*
X6445414Y-33630586D01*
X7024704Y-34066019D01*
X7029258Y-34073730D01*
X7029311Y-34076588D01*
X6944595Y-34887593D01*
X6940327Y-34895465D01*
X6932958Y-34898077D01*
X6820413Y-34898077D01*
X6813375Y-34895724D01*
X6045812Y-34317745D01*
X6041264Y-34310030D01*
X6042669Y-34302631D01*
X6423436Y-33630585D01*
X6430495Y-33625078D01*
X6439383Y-33626174D01*
G37*
%TD.AperFunction*%
%TD*%
%TA.AperFunction,Conductor*%
%TO.N,TP+*%
G36*
X41810475Y-27904511D02*
G01*
X41814067Y-27906961D01*
X41893038Y-27985932D01*
X41896465Y-27994205D01*
X41895657Y-27998478D01*
X41504346Y-28996024D01*
X41498135Y-29002474D01*
X41489181Y-29002643D01*
X41488995Y-29002568D01*
X41003795Y-28802562D01*
X40997452Y-28796241D01*
X40997437Y-28796204D01*
X40797430Y-28311004D01*
X40797445Y-28302049D01*
X40803788Y-28295728D01*
X40803917Y-28295675D01*
X41801524Y-27904342D01*
X41810475Y-27904511D01*
G37*
%TD.AperFunction*%
%TD*%
%TA.AperFunction,Conductor*%
%TO.N,Net-(U5-XTAL1)*%
G36*
X6406123Y-7654898D02*
G01*
X6895609Y-8046487D01*
X6899928Y-8054331D01*
X6900000Y-8055623D01*
X6900000Y-8244376D01*
X6896573Y-8252649D01*
X6895609Y-8253512D01*
X6406126Y-8645099D01*
X6397525Y-8647591D01*
X6393140Y-8646193D01*
X6115096Y-8491896D01*
X5517433Y-8160229D01*
X5511863Y-8153220D01*
X5512881Y-8144323D01*
X5517434Y-8139770D01*
X5669067Y-8055623D01*
X6393142Y-7653805D01*
X6402037Y-7652788D01*
X6406123Y-7654898D01*
G37*
%TD.AperFunction*%
%TD*%
%TA.AperFunction,Conductor*%
%TO.N,GND*%
G36*
X37631319Y-6879388D02*
G01*
X38307768Y-7377959D01*
X38312394Y-7385626D01*
X38310244Y-7394319D01*
X38310144Y-7394452D01*
X37877115Y-7964766D01*
X37869383Y-7969283D01*
X37861675Y-7967662D01*
X37174195Y-7545570D01*
X37168939Y-7538322D01*
X37170347Y-7529478D01*
X37170400Y-7529393D01*
X37532738Y-6964279D01*
X37534306Y-6962331D01*
X37616105Y-6880532D01*
X37624377Y-6877106D01*
X37631319Y-6879388D01*
G37*
%TD.AperFunction*%
%TD*%
%TA.AperFunction,Conductor*%
%TO.N,+5V*%
G36*
X22018324Y-36612729D02*
G01*
X22415848Y-36738848D01*
X22422698Y-36744616D01*
X22423462Y-36753538D01*
X22417694Y-36760388D01*
X22415848Y-36761152D01*
X20878993Y-37248733D01*
X20871110Y-37248444D01*
X20382355Y-37052942D01*
X20375946Y-37046688D01*
X20375000Y-37042079D01*
X20375000Y-36457921D01*
X20378427Y-36449648D01*
X20382355Y-36447058D01*
X20382355Y-36447057D01*
X20871112Y-36251554D01*
X20878990Y-36251266D01*
X22018324Y-36612729D01*
G37*
%TD.AperFunction*%
%TD*%
%TA.AperFunction,Conductor*%
%TO.N,/CLK*%
G36*
X25447581Y-26779017D02*
G01*
X25453063Y-26786097D01*
X25453067Y-26786111D01*
X25677345Y-27612775D01*
X25676204Y-27621657D01*
X25674326Y-27624112D01*
X25595194Y-27703244D01*
X25586921Y-27706671D01*
X25581834Y-27705507D01*
X25203746Y-27522940D01*
X25197787Y-27516257D01*
X25197165Y-27513255D01*
X25149993Y-26866398D01*
X25152809Y-26857897D01*
X25158581Y-26854260D01*
X25438698Y-26777887D01*
X25447581Y-26779017D01*
G37*
%TD.AperFunction*%
%TD*%
%TA.AperFunction,Conductor*%
%TO.N,/DOUT*%
G36*
X23313661Y-27978116D02*
G01*
X23316345Y-27982286D01*
X23447296Y-28331955D01*
X23446988Y-28340904D01*
X23440860Y-28346849D01*
X23244521Y-28429105D01*
X23235566Y-28429141D01*
X23235479Y-28429105D01*
X23039637Y-28347058D01*
X23033331Y-28340701D01*
X23033367Y-28331746D01*
X23033377Y-28331720D01*
X23183460Y-27981776D01*
X23189871Y-27975525D01*
X23194213Y-27974689D01*
X23305388Y-27974689D01*
X23313661Y-27978116D01*
G37*
%TD.AperFunction*%
%TD*%
%TA.AperFunction,Conductor*%
%TO.N,Net-(U5-XTAL2)*%
G36*
X8552725Y-9671330D02*
G01*
X9291928Y-9912367D01*
X9298730Y-9918190D01*
X9300000Y-9923491D01*
X9300000Y-10110030D01*
X9296573Y-10118303D01*
X9296423Y-10118450D01*
X8657124Y-10735186D01*
X8648791Y-10738464D01*
X8641945Y-10736099D01*
X8640737Y-10735186D01*
X8009395Y-10257859D01*
X8004862Y-10250136D01*
X8007118Y-10241470D01*
X8007915Y-10240524D01*
X8540584Y-9674436D01*
X8548747Y-9670760D01*
X8552725Y-9671330D01*
G37*
%TD.AperFunction*%
%TD*%
%TA.AperFunction,Conductor*%
%TO.N,TP+*%
G36*
X42178822Y-3384862D02*
G01*
X42526927Y-3534218D01*
X42533178Y-3540628D01*
X42533140Y-3549403D01*
X42452564Y-3746171D01*
X42446258Y-3752528D01*
X42446171Y-3752564D01*
X42249403Y-3833140D01*
X42240448Y-3833104D01*
X42234218Y-3826927D01*
X42084862Y-3478823D01*
X42084750Y-3469870D01*
X42087340Y-3465940D01*
X42165939Y-3387341D01*
X42174211Y-3383915D01*
X42178822Y-3384862D01*
G37*
%TD.AperFunction*%
%TD*%
%TA.AperFunction,Conductor*%
%TO.N,+5V*%
G36*
X34106256Y-55563225D02*
G01*
X34106742Y-55563933D01*
X34388585Y-56008521D01*
X34539885Y-56247185D01*
X34541420Y-56256007D01*
X34538276Y-56261722D01*
X34455937Y-56344061D01*
X34454107Y-56345554D01*
X33955470Y-56674504D01*
X33946677Y-56676200D01*
X33939261Y-56671181D01*
X33939239Y-56671148D01*
X33505336Y-56008521D01*
X33503671Y-55999722D01*
X33508147Y-55992718D01*
X34089887Y-55560805D01*
X34098573Y-55558626D01*
X34106256Y-55563225D01*
G37*
%TD.AperFunction*%
%TD*%
%TA.AperFunction,Conductor*%
%TO.N,/DOUT*%
G36*
X29777020Y-36539546D02*
G01*
X29777058Y-36539637D01*
X29859105Y-36735479D01*
X29859141Y-36744434D01*
X29859105Y-36744521D01*
X29776849Y-36940860D01*
X29770492Y-36947166D01*
X29761955Y-36947296D01*
X29412286Y-36816345D01*
X29405740Y-36810234D01*
X29404689Y-36805388D01*
X29404689Y-36694213D01*
X29408116Y-36685940D01*
X29411777Y-36683460D01*
X29761656Y-36533404D01*
X29770609Y-36533294D01*
X29777020Y-36539546D01*
G37*
%TD.AperFunction*%
%TD*%
%TA.AperFunction,Conductor*%
%TO.N,GND*%
G36*
X36279551Y-5326895D02*
G01*
X36285782Y-5333073D01*
X36435136Y-5681175D01*
X36435249Y-5690129D01*
X36432657Y-5694061D01*
X36354061Y-5772657D01*
X36345788Y-5776084D01*
X36341175Y-5775136D01*
X36139153Y-5688458D01*
X35993072Y-5625781D01*
X35986821Y-5619371D01*
X35986858Y-5610597D01*
X36067436Y-5413826D01*
X36073740Y-5407471D01*
X36270597Y-5326859D01*
X36279551Y-5326895D01*
G37*
%TD.AperFunction*%
%TD*%
%TA.AperFunction,Conductor*%
%TO.N,GND*%
G36*
X35872872Y-8594553D02*
G01*
X36254119Y-8813128D01*
X36259592Y-8820216D01*
X36260000Y-8823278D01*
X36260000Y-8936721D01*
X36256573Y-8944994D01*
X36254119Y-8946871D01*
X35872873Y-9165445D01*
X35863992Y-9166587D01*
X35861776Y-9165737D01*
X35317157Y-8890442D01*
X35311319Y-8883651D01*
X35311993Y-8874722D01*
X35317157Y-8869558D01*
X35408713Y-8823278D01*
X35861776Y-8594261D01*
X35870705Y-8593588D01*
X35872872Y-8594553D01*
G37*
%TD.AperFunction*%
%TD*%
%TA.AperFunction,Conductor*%
%TO.N,/2.5V*%
G36*
X33971389Y-16858721D02*
G01*
X33971913Y-16859004D01*
X34167458Y-16971112D01*
X34354119Y-17078128D01*
X34359592Y-17085216D01*
X34360000Y-17088278D01*
X34360000Y-17201721D01*
X34356573Y-17209994D01*
X34354119Y-17211871D01*
X33971913Y-17430995D01*
X33963032Y-17432137D01*
X33962461Y-17431967D01*
X33301564Y-17216071D01*
X33118045Y-17156121D01*
X33111246Y-17150295D01*
X33110557Y-17141367D01*
X33116384Y-17134567D01*
X33118044Y-17133878D01*
X33962462Y-16858032D01*
X33971389Y-16858721D01*
G37*
%TD.AperFunction*%
%TD*%
%TA.AperFunction,Conductor*%
%TO.N,/ETROC1*%
G36*
X19660767Y-54793137D02*
G01*
X19666945Y-54799368D01*
X19749105Y-54995479D01*
X19749141Y-55004434D01*
X19749105Y-55004521D01*
X19666945Y-55200631D01*
X19660588Y-55206937D01*
X19651813Y-55206975D01*
X19300059Y-55066440D01*
X19293648Y-55060188D01*
X19292700Y-55055575D01*
X19292700Y-54944424D01*
X19296127Y-54936151D01*
X19300055Y-54933561D01*
X19651813Y-54793024D01*
X19660767Y-54793137D01*
G37*
%TD.AperFunction*%
%TD*%
%TA.AperFunction,Conductor*%
%TO.N,GND*%
G36*
X20558258Y-25262285D02*
G01*
X20842673Y-25547648D01*
X20846086Y-25555926D01*
X20843574Y-25563150D01*
X20617014Y-25850543D01*
X20609201Y-25854919D01*
X20607826Y-25855000D01*
X20492174Y-25855000D01*
X20483901Y-25851573D01*
X20482986Y-25850543D01*
X20256425Y-25563150D01*
X20253994Y-25554532D01*
X20257324Y-25547651D01*
X20541714Y-25262313D01*
X20549981Y-25258873D01*
X20558258Y-25262285D01*
G37*
%TD.AperFunction*%
%TD*%
%TA.AperFunction,Conductor*%
%TO.N,/2.5V*%
G36*
X33149164Y-20399111D02*
G01*
X33151586Y-20402639D01*
X33306400Y-20751579D01*
X33306622Y-20760531D01*
X33300450Y-20767019D01*
X33300226Y-20767115D01*
X33104521Y-20849105D01*
X33095566Y-20849141D01*
X33095479Y-20849105D01*
X32899024Y-20766801D01*
X32892718Y-20760444D01*
X32892543Y-20752031D01*
X33018706Y-20403403D01*
X33024745Y-20396789D01*
X33029709Y-20395684D01*
X33140891Y-20395684D01*
X33149164Y-20399111D01*
G37*
%TD.AperFunction*%
%TD*%
%TA.AperFunction,Conductor*%
%TO.N,/ETROC4*%
G36*
X26010968Y-1492251D02*
G01*
X26026135Y-1498663D01*
X26496221Y-1697396D01*
X26502507Y-1703774D01*
X26502522Y-1703811D01*
X26697360Y-2188785D01*
X26697264Y-2197740D01*
X26690865Y-2204004D01*
X26690511Y-2204139D01*
X25698355Y-2565899D01*
X25689408Y-2565514D01*
X25686074Y-2563180D01*
X25607011Y-2484117D01*
X25603584Y-2475844D01*
X25604428Y-2471483D01*
X25995558Y-1498661D01*
X26001822Y-1492266D01*
X26010777Y-1492173D01*
X26010968Y-1492251D01*
G37*
%TD.AperFunction*%
%TD*%
%TA.AperFunction,Conductor*%
%TO.N,/ETROC3*%
G36*
X19747672Y-16078229D02*
G01*
X20520133Y-16353981D01*
X20526771Y-16359989D01*
X20527217Y-16368933D01*
X20521208Y-16375572D01*
X20520132Y-16376018D01*
X19747673Y-16651769D01*
X19738729Y-16651323D01*
X19737920Y-16650900D01*
X19355881Y-16431871D01*
X19350408Y-16424783D01*
X19350000Y-16421721D01*
X19350000Y-16308278D01*
X19353427Y-16300005D01*
X19355879Y-16298129D01*
X19737920Y-16079098D01*
X19746801Y-16077957D01*
X19747672Y-16078229D01*
G37*
%TD.AperFunction*%
%TD*%
%TA.AperFunction,Conductor*%
%TO.N,/DIN*%
G36*
X12389402Y-12956858D02*
G01*
X12586171Y-13037435D01*
X12592528Y-13043741D01*
X12592564Y-13043828D01*
X12673140Y-13240596D01*
X12673104Y-13249551D01*
X12666926Y-13255782D01*
X12318824Y-13405136D01*
X12309870Y-13405249D01*
X12305938Y-13402657D01*
X12227342Y-13324061D01*
X12223915Y-13315788D01*
X12224862Y-13311178D01*
X12374219Y-12963071D01*
X12380628Y-12956821D01*
X12389402Y-12956858D01*
G37*
%TD.AperFunction*%
%TD*%
%TA.AperFunction,Conductor*%
%TO.N,GND*%
G36*
X20614347Y-28000901D02*
G01*
X20616661Y-28004193D01*
X20780044Y-28351446D01*
X20780465Y-28360391D01*
X20774438Y-28367014D01*
X20773978Y-28367218D01*
X20578520Y-28449105D01*
X20569565Y-28449141D01*
X20569478Y-28449105D01*
X20372817Y-28366714D01*
X20366511Y-28360357D01*
X20366257Y-28352168D01*
X20483806Y-28005418D01*
X20489709Y-27998683D01*
X20494888Y-27997474D01*
X20606074Y-27997474D01*
X20614347Y-28000901D01*
G37*
%TD.AperFunction*%
%TD*%
%TA.AperFunction,Conductor*%
%TO.N,/DOUT*%
G36*
X10978150Y-44198925D02*
G01*
X11265543Y-44425486D01*
X11269919Y-44433299D01*
X11270000Y-44434674D01*
X11270000Y-44550325D01*
X11266573Y-44558598D01*
X11265543Y-44559513D01*
X10978150Y-44786074D01*
X10969532Y-44788505D01*
X10962649Y-44785173D01*
X10677313Y-44500785D01*
X10673873Y-44492519D01*
X10677285Y-44484241D01*
X10962650Y-44199824D01*
X10970926Y-44196413D01*
X10978150Y-44198925D01*
G37*
%TD.AperFunction*%
%TD*%
%TA.AperFunction,Conductor*%
%TO.N,Net-(U5-XTAL2)*%
G36*
X5508264Y-10657280D02*
G01*
X5710805Y-10860226D01*
X5992609Y-11142595D01*
X5996028Y-11150872D01*
X5993464Y-11158169D01*
X5603513Y-11645609D01*
X5595669Y-11649928D01*
X5594377Y-11650000D01*
X5405623Y-11650000D01*
X5397350Y-11646573D01*
X5396487Y-11645609D01*
X5006535Y-11158169D01*
X5004043Y-11149568D01*
X5007390Y-11142595D01*
X5491719Y-10657296D01*
X5499988Y-10653862D01*
X5508264Y-10657280D01*
G37*
%TD.AperFunction*%
%TD*%
%TA.AperFunction,Conductor*%
%TO.N,+5V*%
G36*
X8786544Y-36392304D02*
G01*
X9007648Y-36473634D01*
X9146115Y-36524567D01*
X9152697Y-36530640D01*
X9153057Y-36539587D01*
X9152903Y-36539982D01*
X9072564Y-36736171D01*
X9066258Y-36742528D01*
X9066171Y-36742564D01*
X8868915Y-36823340D01*
X8859960Y-36823304D01*
X8853958Y-36817626D01*
X8714552Y-36530640D01*
X8693363Y-36487019D01*
X8692831Y-36478080D01*
X8695612Y-36473636D01*
X8774236Y-36395012D01*
X8782508Y-36391586D01*
X8786544Y-36392304D01*
G37*
%TD.AperFunction*%
%TD*%
%TA.AperFunction,Conductor*%
%TO.N,/CLK*%
G36*
X30213848Y-12586127D02*
G01*
X30216440Y-12590059D01*
X30356975Y-12941813D01*
X30356862Y-12950767D01*
X30350631Y-12956945D01*
X30154521Y-13039105D01*
X30145566Y-13039141D01*
X30145479Y-13039105D01*
X29949368Y-12956945D01*
X29943062Y-12950588D01*
X29943024Y-12941813D01*
X30083560Y-12590059D01*
X30089812Y-12583648D01*
X30094425Y-12582700D01*
X30205575Y-12582700D01*
X30213848Y-12586127D01*
G37*
%TD.AperFunction*%
%TD*%
%TA.AperFunction,Conductor*%
%TO.N,GND*%
G36*
X41559551Y-12966895D02*
G01*
X41565782Y-12973073D01*
X41715136Y-13321175D01*
X41715249Y-13330129D01*
X41712657Y-13334061D01*
X41634061Y-13412657D01*
X41625788Y-13416084D01*
X41621175Y-13415136D01*
X41419153Y-13328458D01*
X41273072Y-13265781D01*
X41266821Y-13259371D01*
X41266858Y-13250597D01*
X41347436Y-13053826D01*
X41353740Y-13047471D01*
X41550597Y-12966859D01*
X41559551Y-12966895D01*
G37*
%TD.AperFunction*%
%TD*%
%TA.AperFunction,Conductor*%
%TO.N,+5V*%
G36*
X10147673Y-10998230D02*
G01*
X10920132Y-11273981D01*
X10926771Y-11279990D01*
X10927217Y-11288934D01*
X10921208Y-11295573D01*
X10920132Y-11296019D01*
X10147673Y-11571769D01*
X10138729Y-11571323D01*
X10137920Y-11570900D01*
X9755881Y-11351871D01*
X9750408Y-11344783D01*
X9750000Y-11341721D01*
X9750000Y-11228278D01*
X9753427Y-11220005D01*
X9755879Y-11218129D01*
X10137920Y-10999098D01*
X10146801Y-10997957D01*
X10147673Y-10998230D01*
G37*
%TD.AperFunction*%
%TD*%
%TA.AperFunction,Conductor*%
%TO.N,/LGAD1*%
G36*
X15804061Y-20477342D02*
G01*
X15882657Y-20555938D01*
X15886084Y-20564211D01*
X15885136Y-20568824D01*
X15735782Y-20916926D01*
X15729371Y-20923178D01*
X15720596Y-20923140D01*
X15523828Y-20842564D01*
X15517471Y-20836258D01*
X15436859Y-20639402D01*
X15436895Y-20630448D01*
X15443070Y-20624219D01*
X15791176Y-20474862D01*
X15800129Y-20474750D01*
X15804061Y-20477342D01*
G37*
%TD.AperFunction*%
%TD*%
%TA.AperFunction,Conductor*%
%TO.N,/LGAD2*%
G36*
X30459551Y-54626895D02*
G01*
X30465782Y-54633073D01*
X30615136Y-54981175D01*
X30615249Y-54990129D01*
X30612657Y-54994061D01*
X30534061Y-55072657D01*
X30525788Y-55076084D01*
X30521175Y-55075136D01*
X30319153Y-54988458D01*
X30173072Y-54925781D01*
X30166821Y-54919371D01*
X30166858Y-54910597D01*
X30247436Y-54713826D01*
X30253740Y-54707471D01*
X30450597Y-54626859D01*
X30459551Y-54626895D01*
G37*
%TD.AperFunction*%
%TD*%
%TA.AperFunction,Conductor*%
%TO.N,GND*%
G36*
X12093848Y-51576127D02*
G01*
X12096440Y-51580059D01*
X12236975Y-51931813D01*
X12236862Y-51940767D01*
X12230631Y-51946945D01*
X12034520Y-52029105D01*
X12025565Y-52029141D01*
X12025478Y-52029105D01*
X11829368Y-51946945D01*
X11823062Y-51940588D01*
X11823024Y-51931813D01*
X11963560Y-51580059D01*
X11969812Y-51573648D01*
X11974425Y-51572700D01*
X12085575Y-51572700D01*
X12093848Y-51576127D01*
G37*
%TD.AperFunction*%
%TD*%
%TA.AperFunction,Conductor*%
%TO.N,/LGAD1*%
G36*
X15661004Y-55797430D02*
G01*
X16146204Y-55997437D01*
X16152547Y-56003758D01*
X16152562Y-56003795D01*
X16352569Y-56488995D01*
X16352554Y-56497950D01*
X16346211Y-56504271D01*
X16346025Y-56504346D01*
X15348478Y-56895657D01*
X15339524Y-56895488D01*
X15335932Y-56893038D01*
X15256961Y-56814067D01*
X15253534Y-56805794D01*
X15254340Y-56801527D01*
X15645654Y-55803972D01*
X15651864Y-55797524D01*
X15660818Y-55797355D01*
X15661004Y-55797430D01*
G37*
%TD.AperFunction*%
%TD*%
%TA.AperFunction,Conductor*%
%TO.N,/LGAD3*%
G36*
X11761270Y-24968676D02*
G01*
X11762079Y-24969099D01*
X12144119Y-25188128D01*
X12149592Y-25195216D01*
X12150000Y-25198278D01*
X12150000Y-25311721D01*
X12146573Y-25319994D01*
X12144119Y-25321871D01*
X11762079Y-25540900D01*
X11753198Y-25542042D01*
X11752326Y-25541769D01*
X10979867Y-25266019D01*
X10973228Y-25260010D01*
X10972782Y-25251066D01*
X10978791Y-25244427D01*
X10979867Y-25243981D01*
X11752326Y-24968230D01*
X11761270Y-24968676D01*
G37*
%TD.AperFunction*%
%TD*%
%TA.AperFunction,Conductor*%
%TO.N,+5V*%
G36*
X25118765Y-23586239D02*
G01*
X25121229Y-23588122D01*
X25199460Y-23666353D01*
X25200801Y-23667958D01*
X25402425Y-23958684D01*
X25404324Y-23967436D01*
X25403619Y-23969833D01*
X25159060Y-24559650D01*
X25152726Y-24565980D01*
X25143771Y-24565977D01*
X25137806Y-24560439D01*
X25137408Y-24559650D01*
X24864250Y-24018212D01*
X24863584Y-24009284D01*
X24864536Y-24007144D01*
X25102802Y-23590584D01*
X25109882Y-23585106D01*
X25118765Y-23586239D01*
G37*
%TD.AperFunction*%
%TD*%
%TA.AperFunction,Conductor*%
%TO.N,/ETROC1*%
G36*
X10397421Y-55715353D02*
G01*
X10399232Y-55716305D01*
X10407496Y-55721623D01*
X10736019Y-55933045D01*
X10741121Y-55940404D01*
X10741387Y-55942884D01*
X10741386Y-56053841D01*
X10737959Y-56062114D01*
X10731902Y-56065329D01*
X10313854Y-56145977D01*
X10305082Y-56144179D01*
X10300150Y-56136705D01*
X10299938Y-56134540D01*
X10299010Y-55922375D01*
X10299918Y-55917807D01*
X10382110Y-55721621D01*
X10388466Y-55715317D01*
X10397421Y-55715353D01*
G37*
%TD.AperFunction*%
%TD*%
%TA.AperFunction,Conductor*%
%TO.N,/ETROC1*%
G36*
X18508087Y-55505894D02*
G01*
X18881137Y-55777785D01*
X18882519Y-55778967D01*
X18963984Y-55860432D01*
X18967411Y-55868705D01*
X18964564Y-55876355D01*
X18507479Y-56405307D01*
X18499476Y-56409326D01*
X18491178Y-56406681D01*
X18249271Y-56207025D01*
X18009219Y-56008899D01*
X18005021Y-56000991D01*
X18007644Y-55992429D01*
X18008384Y-55991615D01*
X18492924Y-55507075D01*
X18501196Y-55503649D01*
X18508087Y-55505894D01*
G37*
%TD.AperFunction*%
%TD*%
%TA.AperFunction,Conductor*%
%TO.N,/LGAD2*%
G36*
X17604061Y-20477342D02*
G01*
X17682657Y-20555938D01*
X17686084Y-20564211D01*
X17685136Y-20568824D01*
X17535782Y-20916926D01*
X17529371Y-20923178D01*
X17520596Y-20923140D01*
X17323828Y-20842564D01*
X17317471Y-20836258D01*
X17236859Y-20639402D01*
X17236895Y-20630448D01*
X17243070Y-20624219D01*
X17591176Y-20474862D01*
X17600129Y-20474750D01*
X17604061Y-20477342D01*
G37*
%TD.AperFunction*%
%TD*%
%TA.AperFunction,Conductor*%
%TO.N,Net-(JMPR1-Pad1)*%
G36*
X3959402Y-26695350D02*
G01*
X4544996Y-26936937D01*
X4551337Y-26943260D01*
X4551982Y-26945338D01*
X4696726Y-27631462D01*
X4695081Y-27640264D01*
X4690858Y-27644161D01*
X3778713Y-28139061D01*
X3769807Y-28139994D01*
X3764860Y-28137050D01*
X3353169Y-27725359D01*
X3349742Y-27717086D01*
X3351351Y-27711164D01*
X3944851Y-26700241D01*
X3951994Y-26694843D01*
X3959402Y-26695350D01*
G37*
%TD.AperFunction*%
%TD*%
%TA.AperFunction,Conductor*%
%TO.N,GND*%
G36*
X5904507Y-3850888D02*
G01*
X6100640Y-3933058D01*
X6106945Y-3939414D01*
X6106986Y-3948181D01*
X5966766Y-4299868D01*
X5960519Y-4306284D01*
X5955898Y-4307235D01*
X5844746Y-4307235D01*
X5836473Y-4303808D01*
X5833885Y-4299885D01*
X5693036Y-3948190D01*
X5693141Y-3939238D01*
X5699375Y-3933051D01*
X5895479Y-3850893D01*
X5904434Y-3850858D01*
X5904507Y-3850888D01*
G37*
%TD.AperFunction*%
%TD*%
%TA.AperFunction,Conductor*%
%TO.N,/ETROC3*%
G36*
X5410386Y-1793355D02*
G01*
X5410644Y-1793484D01*
X5995145Y-2096960D01*
X6000909Y-2103814D01*
X6001429Y-2106582D01*
X6045970Y-2788820D01*
X6043090Y-2797299D01*
X6035562Y-2801213D01*
X4926149Y-2922087D01*
X4917554Y-2919577D01*
X4913251Y-2911723D01*
X4913182Y-2910456D01*
X4913182Y-2799176D01*
X4914345Y-2794090D01*
X4916889Y-2788820D01*
X5394764Y-1798804D01*
X5401446Y-1792845D01*
X5410386Y-1793355D01*
G37*
%TD.AperFunction*%
%TD*%
%TA.AperFunction,Conductor*%
%TO.N,GND*%
G36*
X37864599Y-7971269D02*
G01*
X37872076Y-7976197D01*
X37873322Y-7978591D01*
X38090556Y-8548338D01*
X38090302Y-8557289D01*
X38083792Y-8563438D01*
X38083078Y-8563684D01*
X36869098Y-8938817D01*
X36860182Y-8937986D01*
X36854466Y-8931093D01*
X36853944Y-8927639D01*
X36853944Y-8818194D01*
X36854425Y-8814874D01*
X36929846Y-8560000D01*
X37141990Y-7843092D01*
X37147622Y-7836133D01*
X37155414Y-7834924D01*
X37864599Y-7971269D01*
G37*
%TD.AperFunction*%
%TD*%
%TA.AperFunction,Conductor*%
%TO.N,/CS*%
G36*
X28395764Y-30797691D02*
G01*
X28397001Y-30799148D01*
X28654345Y-31158188D01*
X28656379Y-31166909D01*
X28651651Y-31174514D01*
X28649465Y-31175749D01*
X27510775Y-31666357D01*
X27501821Y-31666484D01*
X27495400Y-31660242D01*
X27495387Y-31660212D01*
X27290554Y-31181177D01*
X27290452Y-31172223D01*
X27296712Y-31165819D01*
X27297117Y-31165654D01*
X28264479Y-30795038D01*
X28268666Y-30794264D01*
X28387491Y-30794264D01*
X28395764Y-30797691D01*
G37*
%TD.AperFunction*%
%TD*%
%TA.AperFunction,Conductor*%
%TO.N,GND*%
G36*
X9301817Y-3977492D02*
G01*
X10151524Y-4271419D01*
X10158221Y-4277361D01*
X10158983Y-4285564D01*
X9964876Y-4994607D01*
X9959386Y-5001682D01*
X9957188Y-5002651D01*
X9388110Y-5186535D01*
X9379184Y-5185818D01*
X9373380Y-5178999D01*
X9372944Y-5177148D01*
X9205981Y-4070741D01*
X9208135Y-4062051D01*
X9209270Y-4060731D01*
X9289725Y-3980276D01*
X9297997Y-3976850D01*
X9301817Y-3977492D01*
G37*
%TD.AperFunction*%
%TD*%
%TA.AperFunction,Conductor*%
%TO.N,/ETROC3*%
G36*
X11208822Y-3464862D02*
G01*
X11556927Y-3614218D01*
X11563178Y-3620628D01*
X11563140Y-3629403D01*
X11482564Y-3826171D01*
X11476258Y-3832528D01*
X11476171Y-3832564D01*
X11279403Y-3913140D01*
X11270448Y-3913104D01*
X11264218Y-3906927D01*
X11114862Y-3558823D01*
X11114750Y-3549870D01*
X11117340Y-3545940D01*
X11195939Y-3467341D01*
X11204211Y-3463915D01*
X11208822Y-3464862D01*
G37*
%TD.AperFunction*%
%TD*%
%TA.AperFunction,Conductor*%
%TO.N,/ETROC3*%
G36*
X1784061Y-2887342D02*
G01*
X1862657Y-2965938D01*
X1866084Y-2974211D01*
X1865136Y-2978824D01*
X1715782Y-3326926D01*
X1709371Y-3333178D01*
X1700596Y-3333140D01*
X1503828Y-3252564D01*
X1497471Y-3246258D01*
X1416859Y-3049402D01*
X1416895Y-3040448D01*
X1423070Y-3034219D01*
X1771176Y-2884862D01*
X1780129Y-2884750D01*
X1784061Y-2887342D01*
G37*
%TD.AperFunction*%
%TD*%
%TA.AperFunction,Conductor*%
%TO.N,/LGAD4*%
G36*
X21361270Y-8458676D02*
G01*
X21362079Y-8459099D01*
X21744119Y-8678128D01*
X21749592Y-8685216D01*
X21750000Y-8688278D01*
X21750000Y-8801721D01*
X21746573Y-8809994D01*
X21744119Y-8811871D01*
X21362079Y-9030900D01*
X21353198Y-9032042D01*
X21352326Y-9031769D01*
X20579867Y-8756019D01*
X20573228Y-8750010D01*
X20572782Y-8741066D01*
X20578791Y-8734427D01*
X20579867Y-8733981D01*
X21352326Y-8458230D01*
X21361270Y-8458676D01*
G37*
%TD.AperFunction*%
%TD*%
%TA.AperFunction,Conductor*%
%TO.N,+5V*%
G36*
X38921389Y-14318721D02*
G01*
X38921913Y-14319004D01*
X39117458Y-14431112D01*
X39304119Y-14538128D01*
X39309592Y-14545216D01*
X39310000Y-14548278D01*
X39310000Y-14661721D01*
X39306573Y-14669994D01*
X39304119Y-14671871D01*
X38921913Y-14890995D01*
X38913032Y-14892137D01*
X38912461Y-14891967D01*
X38251564Y-14676071D01*
X38068045Y-14616121D01*
X38061246Y-14610295D01*
X38060557Y-14601367D01*
X38066384Y-14594567D01*
X38068044Y-14593878D01*
X38912462Y-14318032D01*
X38921389Y-14318721D01*
G37*
%TD.AperFunction*%
%TD*%
%TA.AperFunction,Conductor*%
%TO.N,GND*%
G36*
X6558017Y-26946544D02*
G01*
X7124955Y-27480011D01*
X7128632Y-27488176D01*
X7127651Y-27493233D01*
X6803071Y-28233001D01*
X6796609Y-28239200D01*
X6792357Y-28240000D01*
X6307643Y-28240000D01*
X6299370Y-28236573D01*
X6296929Y-28233001D01*
X5972348Y-27493233D01*
X5972162Y-27484280D01*
X5975042Y-27480013D01*
X6541983Y-26946542D01*
X6550355Y-26943370D01*
X6558017Y-26946544D01*
G37*
%TD.AperFunction*%
%TD*%
%TA.AperFunction,Conductor*%
%TO.N,/~{RDY}*%
G36*
X11994094Y-15881881D02*
G01*
X11995592Y-15883147D01*
X12074413Y-15961968D01*
X12077840Y-15970241D01*
X12075942Y-15976629D01*
X11853269Y-16318324D01*
X11845881Y-16323384D01*
X11844017Y-16323623D01*
X10959448Y-16365229D01*
X10951023Y-16362195D01*
X10947402Y-16355718D01*
X10894592Y-16076720D01*
X10896421Y-16067954D01*
X10903912Y-16063048D01*
X10904110Y-16063012D01*
X11985366Y-15879884D01*
X11994094Y-15881881D01*
G37*
%TD.AperFunction*%
%TD*%
%TA.AperFunction,Conductor*%
%TO.N,/ETROC1*%
G36*
X12448379Y-54966918D02*
G01*
X12451170Y-54968981D01*
X12530720Y-55048531D01*
X12534147Y-55056804D01*
X12533438Y-55060815D01*
X12286036Y-55738746D01*
X12283319Y-55743008D01*
X12268276Y-55758052D01*
X12217058Y-55858573D01*
X12199411Y-55969999D01*
X12199613Y-55971278D01*
X12199047Y-55977115D01*
X12104180Y-56237072D01*
X12098125Y-56243669D01*
X12089178Y-56244052D01*
X12088727Y-56243877D01*
X11505003Y-56003062D01*
X11498662Y-55996739D01*
X11498018Y-55994666D01*
X11353679Y-55310461D01*
X11355324Y-55301660D01*
X11361692Y-55296863D01*
X12439464Y-54966069D01*
X12448379Y-54966918D01*
G37*
%TD.AperFunction*%
%TD*%
%TA.AperFunction,Conductor*%
%TO.N,/ETROC2*%
G36*
X28597950Y-55797445D02*
G01*
X28604271Y-55803788D01*
X28604346Y-55803974D01*
X28995657Y-56801521D01*
X28995488Y-56810475D01*
X28993038Y-56814067D01*
X28914067Y-56893038D01*
X28905794Y-56896465D01*
X28901522Y-56895657D01*
X28465024Y-56724431D01*
X27903974Y-56504346D01*
X27897524Y-56498135D01*
X27897355Y-56489181D01*
X27897430Y-56488995D01*
X28097437Y-56003795D01*
X28103757Y-55997452D01*
X28588996Y-55797430D01*
X28597950Y-55797445D01*
G37*
%TD.AperFunction*%
%TD*%
%TA.AperFunction,Conductor*%
%TO.N,/DOUT*%
G36*
X29077647Y-36252754D02*
G01*
X29079956Y-36254326D01*
X29570995Y-36683004D01*
X29574973Y-36691025D01*
X29575000Y-36691817D01*
X29575000Y-36808182D01*
X29571573Y-36816455D01*
X29570995Y-36816996D01*
X29079958Y-37245671D01*
X29071471Y-37248530D01*
X29068725Y-37248009D01*
X27534151Y-36761152D01*
X27527301Y-36755384D01*
X27526537Y-36746462D01*
X27532305Y-36739612D01*
X27534151Y-36738848D01*
X29068726Y-36251990D01*
X29077647Y-36252754D01*
G37*
%TD.AperFunction*%
%TD*%
%TA.AperFunction,Conductor*%
%TO.N,/2.5V*%
G36*
X36066230Y-19803427D02*
G01*
X36067010Y-19804288D01*
X36592963Y-20446736D01*
X36595552Y-20455309D01*
X36591782Y-20462804D01*
X36007872Y-20993840D01*
X35999446Y-20996871D01*
X35992128Y-20993840D01*
X35408217Y-20462804D01*
X35404402Y-20454702D01*
X35407036Y-20446736D01*
X35932990Y-19804288D01*
X35940882Y-19800058D01*
X35942043Y-19800000D01*
X36057957Y-19800000D01*
X36066230Y-19803427D01*
G37*
%TD.AperFunction*%
%TD*%
%TA.AperFunction,Conductor*%
%TO.N,/LGAD2*%
G36*
X30576672Y-54942286D02*
G01*
X31649492Y-55296667D01*
X31656273Y-55302516D01*
X31657232Y-55310364D01*
X31502064Y-55994718D01*
X31496893Y-56002029D01*
X31495007Y-56002991D01*
X30911389Y-56236904D01*
X30902435Y-56236801D01*
X30896176Y-56230397D01*
X30895990Y-56229900D01*
X30482424Y-55036749D01*
X30482953Y-55027812D01*
X30485203Y-55024649D01*
X30564730Y-54945122D01*
X30573002Y-54941696D01*
X30576672Y-54942286D01*
G37*
%TD.AperFunction*%
%TD*%
%TA.AperFunction,Conductor*%
%TO.N,Net-(U5-XTAL2)*%
G36*
X5601590Y-12006830D02*
G01*
X6553512Y-12282088D01*
X6560507Y-12287678D01*
X6561788Y-12295329D01*
X6438624Y-13004526D01*
X6433833Y-13012091D01*
X6431387Y-13013409D01*
X5861175Y-13238137D01*
X5852222Y-13237982D01*
X5846000Y-13231542D01*
X5845891Y-13231254D01*
X5405716Y-12022073D01*
X5406106Y-12013127D01*
X5412708Y-12007077D01*
X5416710Y-12006371D01*
X5598341Y-12006371D01*
X5601590Y-12006830D01*
G37*
%TD.AperFunction*%
%TD*%
%TA.AperFunction,Conductor*%
%TO.N,/DIN*%
G36*
X12020650Y-13526387D02*
G01*
X12099522Y-13605259D01*
X12102949Y-13613532D01*
X12100282Y-13620969D01*
X11854023Y-13920078D01*
X11846119Y-13924286D01*
X11843708Y-13924271D01*
X10958672Y-13826740D01*
X10950824Y-13822427D01*
X10948317Y-13816319D01*
X10919383Y-13537882D01*
X10921936Y-13529302D01*
X10929811Y-13525039D01*
X10930997Y-13524976D01*
X12012372Y-13522975D01*
X12020650Y-13526387D01*
G37*
%TD.AperFunction*%
%TD*%
%TA.AperFunction,Conductor*%
%TO.N,+5V*%
G36*
X35872872Y-9544553D02*
G01*
X36254119Y-9763128D01*
X36259592Y-9770216D01*
X36260000Y-9773278D01*
X36260000Y-9886721D01*
X36256573Y-9894994D01*
X36254119Y-9896871D01*
X35872873Y-10115445D01*
X35863992Y-10116587D01*
X35861776Y-10115737D01*
X35317157Y-9840442D01*
X35311319Y-9833651D01*
X35311993Y-9824722D01*
X35317157Y-9819558D01*
X35408713Y-9773278D01*
X35861776Y-9544261D01*
X35870705Y-9543588D01*
X35872872Y-9544553D01*
G37*
%TD.AperFunction*%
%TD*%
%TA.AperFunction,Conductor*%
%TO.N,/LGAD2*%
G36*
X39399402Y-53316858D02*
G01*
X39596171Y-53397435D01*
X39602528Y-53403741D01*
X39602564Y-53403828D01*
X39683140Y-53600596D01*
X39683104Y-53609551D01*
X39676926Y-53615782D01*
X39328824Y-53765136D01*
X39319870Y-53765249D01*
X39315938Y-53762657D01*
X39237342Y-53684061D01*
X39233915Y-53675788D01*
X39234862Y-53671178D01*
X39384219Y-53323071D01*
X39390628Y-53316821D01*
X39399402Y-53316858D01*
G37*
%TD.AperFunction*%
%TD*%
%TA.AperFunction,Conductor*%
%TO.N,+5V*%
G36*
X8249942Y-55933560D02*
G01*
X8256352Y-55939811D01*
X8257300Y-55944424D01*
X8257300Y-56055575D01*
X8253873Y-56063848D01*
X8249941Y-56066440D01*
X7898186Y-56206975D01*
X7889232Y-56206862D01*
X7883054Y-56200631D01*
X7800894Y-56004521D01*
X7800858Y-55995566D01*
X7800894Y-55995479D01*
X7883055Y-55799366D01*
X7889411Y-55793062D01*
X7898186Y-55793024D01*
X8249942Y-55933560D01*
G37*
%TD.AperFunction*%
%TD*%
%TA.AperFunction,Conductor*%
%TO.N,+5V*%
G36*
X37301194Y-9481982D02*
G01*
X37304719Y-9484390D01*
X37861211Y-10037766D01*
X37864661Y-10046029D01*
X37861257Y-10054312D01*
X37859793Y-10055560D01*
X37206092Y-10525768D01*
X37197375Y-10527817D01*
X37191003Y-10524559D01*
X36560943Y-9896929D01*
X36557500Y-9888663D01*
X36557500Y-9774514D01*
X36560927Y-9766241D01*
X36564970Y-9763605D01*
X37292242Y-9481776D01*
X37301194Y-9481982D01*
G37*
%TD.AperFunction*%
%TD*%
%TA.AperFunction,Conductor*%
%TO.N,+5V*%
G36*
X40725899Y-13883657D02*
G01*
X40848605Y-13969121D01*
X41421522Y-14368153D01*
X41426352Y-14375694D01*
X41424436Y-14384441D01*
X41424275Y-14384666D01*
X41007078Y-14954505D01*
X40999426Y-14959156D01*
X40991516Y-14957564D01*
X40303862Y-14535365D01*
X40298605Y-14528116D01*
X40299928Y-14519414D01*
X40627317Y-13969116D01*
X40629092Y-13966834D01*
X40710941Y-13884985D01*
X40719213Y-13881559D01*
X40725899Y-13883657D01*
G37*
%TD.AperFunction*%
%TD*%
%TA.AperFunction,Conductor*%
%TO.N,GND*%
G36*
X3801608Y-12450789D02*
G01*
X4350713Y-12996868D01*
X4355334Y-13001463D01*
X4358784Y-13009727D01*
X4355800Y-13017564D01*
X3827023Y-13608096D01*
X3818952Y-13611973D01*
X3810502Y-13609007D01*
X3809883Y-13608411D01*
X3809579Y-13608096D01*
X3314901Y-13094900D01*
X3233415Y-13013414D01*
X3229988Y-13005141D01*
X3233414Y-12996869D01*
X3785128Y-12450769D01*
X3793418Y-12447385D01*
X3801608Y-12450789D01*
G37*
%TD.AperFunction*%
%TD*%
%TA.AperFunction,Conductor*%
%TO.N,GND*%
G36*
X8523848Y-27936127D02*
G01*
X8526440Y-27940059D01*
X8666975Y-28291813D01*
X8666862Y-28300767D01*
X8660631Y-28306945D01*
X8464520Y-28389105D01*
X8455565Y-28389141D01*
X8455478Y-28389105D01*
X8259368Y-28306945D01*
X8253062Y-28300588D01*
X8253024Y-28291813D01*
X8393560Y-27940059D01*
X8399812Y-27933648D01*
X8404425Y-27932700D01*
X8515575Y-27932700D01*
X8523848Y-27936127D01*
G37*
%TD.AperFunction*%
%TD*%
%TA.AperFunction,Conductor*%
%TO.N,+5V*%
G36*
X8771609Y-46786939D02*
G01*
X8777024Y-46794071D01*
X8900822Y-47280000D01*
X8936440Y-47419803D01*
X8935162Y-47428667D01*
X8933222Y-47431115D01*
X8636899Y-47716778D01*
X8628779Y-47720055D01*
X8517270Y-47720055D01*
X8508997Y-47716628D01*
X8505610Y-47709322D01*
X8470305Y-47283679D01*
X8471862Y-47276811D01*
X8755605Y-46791138D01*
X8762737Y-46785724D01*
X8771609Y-46786939D01*
G37*
%TD.AperFunction*%
%TD*%
%TA.AperFunction,Conductor*%
%TO.N,Net-(U2-VSS)*%
G36*
X42628822Y-52334862D02*
G01*
X42976927Y-52484218D01*
X42983178Y-52490628D01*
X42983140Y-52499403D01*
X42902564Y-52696171D01*
X42896258Y-52702528D01*
X42896171Y-52702564D01*
X42699403Y-52783140D01*
X42690448Y-52783104D01*
X42684218Y-52776927D01*
X42534862Y-52428823D01*
X42534750Y-52419870D01*
X42537340Y-52415940D01*
X42615939Y-52337341D01*
X42624211Y-52333915D01*
X42628822Y-52334862D01*
G37*
%TD.AperFunction*%
%TD*%
%TA.AperFunction,Conductor*%
%TO.N,GND*%
G36*
X24308092Y-21150927D02*
G01*
X24309481Y-21152602D01*
X24751939Y-21801132D01*
X24753771Y-21809897D01*
X24751464Y-21814966D01*
X24251690Y-22449335D01*
X24243879Y-22453712D01*
X24235259Y-22451284D01*
X24233310Y-22449335D01*
X23733535Y-21814966D01*
X23731107Y-21806346D01*
X23733058Y-21801135D01*
X24175516Y-21152605D01*
X24183009Y-21147703D01*
X24185181Y-21147500D01*
X24299819Y-21147500D01*
X24308092Y-21150927D01*
G37*
%TD.AperFunction*%
%TD*%
%TA.AperFunction,Conductor*%
%TO.N,/ETROC2*%
G36*
X36448379Y-54966918D02*
G01*
X36451170Y-54968981D01*
X36530720Y-55048531D01*
X36534147Y-55056804D01*
X36533438Y-55060815D01*
X36104180Y-56237072D01*
X36098125Y-56243669D01*
X36089178Y-56244052D01*
X36088727Y-56243877D01*
X35505003Y-56003062D01*
X35498662Y-55996739D01*
X35498018Y-55994666D01*
X35353679Y-55310461D01*
X35355324Y-55301660D01*
X35361692Y-55296863D01*
X36439464Y-54966069D01*
X36448379Y-54966918D01*
G37*
%TD.AperFunction*%
%TD*%
%TA.AperFunction,Conductor*%
%TO.N,+5V*%
G36*
X41654520Y-5340894D02*
G01*
X41765063Y-5387205D01*
X41850631Y-5423054D01*
X41856937Y-5429411D01*
X41856975Y-5438186D01*
X41716440Y-5789941D01*
X41710188Y-5796352D01*
X41705575Y-5797300D01*
X41594425Y-5797300D01*
X41586152Y-5793873D01*
X41583560Y-5789941D01*
X41443024Y-5438186D01*
X41443137Y-5429232D01*
X41449366Y-5423055D01*
X41645479Y-5340893D01*
X41654433Y-5340858D01*
X41654520Y-5340894D01*
G37*
%TD.AperFunction*%
%TD*%
%TA.AperFunction,Conductor*%
%TO.N,GND*%
G36*
X18211004Y-40797430D02*
G01*
X18696204Y-40997437D01*
X18702547Y-41003758D01*
X18702562Y-41003795D01*
X18902569Y-41488995D01*
X18902554Y-41497950D01*
X18896211Y-41504271D01*
X18896025Y-41504346D01*
X17898478Y-41895657D01*
X17889524Y-41895488D01*
X17885932Y-41893038D01*
X17806961Y-41814067D01*
X17803534Y-41805794D01*
X17804340Y-41801527D01*
X18195654Y-40803972D01*
X18201864Y-40797524D01*
X18210818Y-40797355D01*
X18211004Y-40797430D01*
G37*
%TD.AperFunction*%
%TD*%
%TA.AperFunction,Conductor*%
%TO.N,/ETROC2*%
G36*
X34911216Y-55755314D02*
G01*
X35494994Y-55996928D01*
X35501328Y-56003259D01*
X35501972Y-56005344D01*
X35645088Y-56689543D01*
X35643428Y-56698342D01*
X35637060Y-56703126D01*
X34556030Y-57033938D01*
X34547116Y-57033082D01*
X34544333Y-57031023D01*
X34464798Y-56951488D01*
X34461371Y-56943215D01*
X34462092Y-56939170D01*
X34566378Y-56656133D01*
X34572451Y-56649559D01*
X34575513Y-56648629D01*
X34611428Y-56642941D01*
X34711949Y-56591723D01*
X34791723Y-56511949D01*
X34842941Y-56411428D01*
X34860589Y-56300000D01*
X34842941Y-56188572D01*
X34791723Y-56088051D01*
X34785300Y-56081628D01*
X34781873Y-56073355D01*
X34782593Y-56069316D01*
X34895793Y-55762089D01*
X34901867Y-55755513D01*
X34910815Y-55755158D01*
X34911216Y-55755314D01*
G37*
%TD.AperFunction*%
%TD*%
%TA.AperFunction,Conductor*%
%TO.N,+5V*%
G36*
X40009551Y-12966895D02*
G01*
X40015782Y-12973073D01*
X40165136Y-13321175D01*
X40165249Y-13330129D01*
X40162657Y-13334061D01*
X40084061Y-13412657D01*
X40075788Y-13416084D01*
X40071175Y-13415136D01*
X39869153Y-13328458D01*
X39723072Y-13265781D01*
X39716821Y-13259371D01*
X39716858Y-13250597D01*
X39797436Y-13053826D01*
X39803740Y-13047471D01*
X40000597Y-12966859D01*
X40009551Y-12966895D01*
G37*
%TD.AperFunction*%
%TD*%
%TA.AperFunction,Conductor*%
%TO.N,+5V*%
G36*
X9540954Y-51667188D02*
G01*
X9741402Y-51760641D01*
X9877390Y-51824041D01*
X9883440Y-51830643D01*
X9883273Y-51839079D01*
X9802564Y-52036171D01*
X9796258Y-52042528D01*
X9796171Y-52042564D01*
X9599786Y-52122983D01*
X9590831Y-52122947D01*
X9584525Y-52116590D01*
X9584468Y-52116446D01*
X9446485Y-51760640D01*
X9446688Y-51751689D01*
X9449117Y-51748141D01*
X9527739Y-51669519D01*
X9536011Y-51666093D01*
X9540954Y-51667188D01*
G37*
%TD.AperFunction*%
%TD*%
%TA.AperFunction,Conductor*%
%TO.N,Net-(U5-XTAL1)*%
G36*
X7460320Y-7675397D02*
G01*
X7992512Y-8240980D01*
X7995686Y-8249354D01*
X7992009Y-8257519D01*
X7991512Y-8257961D01*
X7380485Y-8770682D01*
X7371944Y-8773374D01*
X7365754Y-8770933D01*
X7365433Y-8770682D01*
X7047463Y-8521880D01*
X6704490Y-8253513D01*
X6700086Y-8245716D01*
X6700000Y-8244299D01*
X6700000Y-8057199D01*
X6703427Y-8048926D01*
X6706425Y-8046755D01*
X7446526Y-7672970D01*
X7455454Y-7672301D01*
X7460320Y-7675397D01*
G37*
%TD.AperFunction*%
%TD*%
%TA.AperFunction,Conductor*%
%TO.N,/LGAD1*%
G36*
X17649402Y-53266858D02*
G01*
X17846171Y-53347435D01*
X17852528Y-53353741D01*
X17852564Y-53353828D01*
X17933140Y-53550596D01*
X17933104Y-53559551D01*
X17926926Y-53565782D01*
X17578824Y-53715136D01*
X17569870Y-53715249D01*
X17565938Y-53712657D01*
X17487342Y-53634061D01*
X17483915Y-53625788D01*
X17484862Y-53621178D01*
X17634219Y-53273071D01*
X17640628Y-53266821D01*
X17649402Y-53266858D01*
G37*
%TD.AperFunction*%
%TD*%
%TA.AperFunction,Conductor*%
%TO.N,Net-(U5-XTAL1)*%
G36*
X10661204Y-8641549D02*
G01*
X10920132Y-8733981D01*
X10926771Y-8739990D01*
X10927217Y-8748934D01*
X10921208Y-8755573D01*
X10920132Y-8756019D01*
X10147195Y-9031940D01*
X10138251Y-9031494D01*
X10138195Y-9031467D01*
X9756634Y-8848186D01*
X9750660Y-8841515D01*
X9750000Y-8837640D01*
X9750000Y-8652359D01*
X9753427Y-8644086D01*
X9756632Y-8641814D01*
X10138196Y-8458531D01*
X10147135Y-8458038D01*
X10661204Y-8641549D01*
G37*
%TD.AperFunction*%
%TD*%
%TA.AperFunction,Conductor*%
%TO.N,/LGAD1*%
G36*
X19747673Y-17348230D02*
G01*
X20520132Y-17623981D01*
X20526771Y-17629990D01*
X20527217Y-17638934D01*
X20521208Y-17645573D01*
X20520132Y-17646019D01*
X19747673Y-17921769D01*
X19738729Y-17921323D01*
X19737920Y-17920900D01*
X19355881Y-17701871D01*
X19350408Y-17694783D01*
X19350000Y-17691721D01*
X19350000Y-17578278D01*
X19353427Y-17570005D01*
X19355879Y-17568129D01*
X19737920Y-17349098D01*
X19746801Y-17347957D01*
X19747673Y-17348230D01*
G37*
%TD.AperFunction*%
%TD*%
%TA.AperFunction,Conductor*%
%TO.N,+5V*%
G36*
X8213217Y-55408971D02*
G01*
X8214820Y-55410434D01*
X8743840Y-55992128D01*
X8746871Y-56000554D01*
X8743840Y-56007872D01*
X8214820Y-56589565D01*
X8206718Y-56593380D01*
X8198292Y-56590349D01*
X8196829Y-56588746D01*
X8037145Y-56377388D01*
X7802363Y-56066628D01*
X7800000Y-56059579D01*
X7800000Y-55940419D01*
X7802362Y-55933372D01*
X8196829Y-55411252D01*
X8204550Y-55406718D01*
X8213217Y-55408971D01*
G37*
%TD.AperFunction*%
%TD*%
%TA.AperFunction,Conductor*%
%TO.N,TP+*%
G36*
X42666548Y-3749947D02*
G01*
X42674806Y-3753410D01*
X42678197Y-3761698D01*
X42678189Y-3762092D01*
X42663928Y-4136879D01*
X42660189Y-4145016D01*
X42652236Y-4148134D01*
X42541182Y-4148134D01*
X42533111Y-4144905D01*
X42499455Y-4112839D01*
X42296970Y-3919921D01*
X42293345Y-3911735D01*
X42296571Y-3903381D01*
X42296703Y-3903244D01*
X42446549Y-3752472D01*
X42454809Y-3749021D01*
X42666548Y-3749947D01*
G37*
%TD.AperFunction*%
%TD*%
%TA.AperFunction,Conductor*%
%TO.N,GND*%
G36*
X11152766Y-49101277D02*
G01*
X11159089Y-49107618D01*
X11159234Y-49107987D01*
X11594029Y-50272311D01*
X11593713Y-50281260D01*
X11591341Y-50284677D01*
X11511753Y-50364265D01*
X11503480Y-50367692D01*
X11500211Y-50367226D01*
X10471417Y-50067842D01*
X10464431Y-50062240D01*
X10463107Y-50054933D01*
X10565837Y-49345888D01*
X10570415Y-49338193D01*
X10572950Y-49336752D01*
X11143812Y-49101264D01*
X11152766Y-49101277D01*
G37*
%TD.AperFunction*%
%TD*%
%TA.AperFunction,Conductor*%
%TO.N,+5V*%
G36*
X17898473Y-38104341D02*
G01*
X18896025Y-38495653D01*
X18902475Y-38501864D01*
X18902644Y-38510818D01*
X18902569Y-38511004D01*
X18702562Y-38996204D01*
X18696241Y-39002547D01*
X18696204Y-39002562D01*
X18211004Y-39202569D01*
X18202049Y-39202554D01*
X18195728Y-39196211D01*
X18195653Y-39196025D01*
X17926865Y-38510818D01*
X17804342Y-38198475D01*
X17804511Y-38189524D01*
X17806958Y-38185935D01*
X17885933Y-38106960D01*
X17894205Y-38103534D01*
X17898473Y-38104341D01*
G37*
%TD.AperFunction*%
%TD*%
%TA.AperFunction,Conductor*%
%TO.N,GND*%
G36*
X16855216Y-44110051D02*
G01*
X16856923Y-44112218D01*
X17064129Y-44450869D01*
X17065524Y-44459714D01*
X17060255Y-44466955D01*
X17058670Y-44467766D01*
X16864521Y-44549105D01*
X16855566Y-44549141D01*
X16855479Y-44549105D01*
X16657744Y-44466265D01*
X16651438Y-44459908D01*
X16650835Y-44452977D01*
X16724489Y-44115827D01*
X16729602Y-44108476D01*
X16735919Y-44106624D01*
X16846943Y-44106624D01*
X16855216Y-44110051D01*
G37*
%TD.AperFunction*%
%TD*%
%TA.AperFunction,Conductor*%
%TO.N,/CLK*%
G36*
X24027228Y-41332888D02*
G01*
X24030025Y-41334909D01*
X24472777Y-41767422D01*
X24553631Y-41848276D01*
X24557058Y-41856549D01*
X24553631Y-41864822D01*
X24552960Y-41865443D01*
X24029895Y-42312536D01*
X24021380Y-42315306D01*
X24018845Y-42314822D01*
X22832058Y-41948768D01*
X22485000Y-41841720D01*
X22478105Y-41836008D01*
X22477269Y-41827093D01*
X22482982Y-41820197D01*
X22484902Y-41819391D01*
X24018306Y-41332127D01*
X24027228Y-41332888D01*
G37*
%TD.AperFunction*%
%TD*%
%TA.AperFunction,Conductor*%
%TO.N,/LGAD4*%
G36*
X28658851Y-1707694D02*
G01*
X28658977Y-1707822D01*
X29128715Y-2192236D01*
X29132015Y-2200561D01*
X29129096Y-2208114D01*
X28674855Y-2723830D01*
X28666815Y-2727774D01*
X28658342Y-2724877D01*
X28657802Y-2724370D01*
X28576815Y-2643383D01*
X28576814Y-2643382D01*
X28157959Y-2208268D01*
X28154691Y-2199933D01*
X28158115Y-2191884D01*
X28642306Y-1707693D01*
X28650578Y-1704267D01*
X28658851Y-1707694D01*
G37*
%TD.AperFunction*%
%TD*%
%TA.AperFunction,Conductor*%
%TO.N,/V_{ref}*%
G36*
X7841261Y-30376118D02*
G01*
X8302503Y-30566402D01*
X8424996Y-30616937D01*
X8431337Y-30623260D01*
X8431982Y-30625338D01*
X8576320Y-31309537D01*
X8574675Y-31318339D01*
X8568305Y-31323137D01*
X7490535Y-31653930D01*
X7481620Y-31653081D01*
X7478829Y-31651018D01*
X7399279Y-31571468D01*
X7395852Y-31563195D01*
X7396560Y-31559188D01*
X7825820Y-30382925D01*
X7831874Y-30376330D01*
X7840821Y-30375947D01*
X7841261Y-30376118D01*
G37*
%TD.AperFunction*%
%TD*%
%TA.AperFunction,Conductor*%
%TO.N,+5V*%
G36*
X8635012Y-48030927D02*
G01*
X8636876Y-48033358D01*
X9056504Y-48761579D01*
X9057666Y-48770459D01*
X9054663Y-48775671D01*
X8501812Y-49331634D01*
X8493549Y-49335084D01*
X8485266Y-49331680D01*
X8484326Y-49330625D01*
X8043011Y-48770459D01*
X7983968Y-48695516D01*
X7981541Y-48686897D01*
X7984019Y-48680972D01*
X8502986Y-48031894D01*
X8510830Y-48027572D01*
X8512125Y-48027500D01*
X8626739Y-48027500D01*
X8635012Y-48030927D01*
G37*
%TD.AperFunction*%
%TD*%
%TA.AperFunction,Conductor*%
%TO.N,Net-(U5-XTAL2)*%
G36*
X7321467Y-9840200D02*
G01*
X7839358Y-10152520D01*
X7989903Y-10243308D01*
X7995218Y-10250515D01*
X7993880Y-10259369D01*
X7993214Y-10260357D01*
X7554047Y-10844615D01*
X7546336Y-10849169D01*
X7543311Y-10849203D01*
X6720263Y-10751228D01*
X6712453Y-10746847D01*
X6709946Y-10739610D01*
X6709946Y-10554275D01*
X6712702Y-10546732D01*
X7306485Y-9842675D01*
X7314436Y-9838562D01*
X7321467Y-9840200D01*
G37*
%TD.AperFunction*%
%TD*%
%TA.AperFunction,Conductor*%
%TO.N,/CS_T2*%
G36*
X24205278Y-26871993D02*
G01*
X24210442Y-26877157D01*
X24485737Y-27421776D01*
X24486411Y-27430705D01*
X24485445Y-27432873D01*
X24266872Y-27814119D01*
X24259784Y-27819592D01*
X24256722Y-27820000D01*
X24143278Y-27820000D01*
X24135005Y-27816573D01*
X24133128Y-27814119D01*
X23914554Y-27432873D01*
X23913412Y-27423992D01*
X23914262Y-27421776D01*
X24189558Y-26877157D01*
X24196349Y-26871319D01*
X24205278Y-26871993D01*
G37*
%TD.AperFunction*%
%TD*%
%TA.AperFunction,Conductor*%
%TO.N,/CLK*%
G36*
X8082261Y-20469520D02*
G01*
X8160879Y-20548138D01*
X8164306Y-20556411D01*
X8163514Y-20560641D01*
X8025555Y-20916386D01*
X8019369Y-20922861D01*
X8010417Y-20923064D01*
X8010213Y-20922983D01*
X7813828Y-20842564D01*
X7807471Y-20836258D01*
X7726726Y-20639077D01*
X7726762Y-20630124D01*
X7732608Y-20624041D01*
X8069045Y-20467188D01*
X8077990Y-20466799D01*
X8082261Y-20469520D01*
G37*
%TD.AperFunction*%
%TD*%
%TA.AperFunction,Conductor*%
%TO.N,Net-(U3-VSS)*%
G36*
X1109036Y-4317115D02*
G01*
X1115358Y-4323458D01*
X1115493Y-4323800D01*
X1232288Y-4634510D01*
X1233036Y-4638627D01*
X1233036Y-4746820D01*
X1229609Y-4755093D01*
X1221336Y-4758520D01*
X1217353Y-4757821D01*
X823963Y-4615395D01*
X817351Y-4609357D01*
X816945Y-4600411D01*
X817102Y-4600002D01*
X897149Y-4404518D01*
X903452Y-4398164D01*
X1100084Y-4317100D01*
X1109036Y-4317115D01*
G37*
%TD.AperFunction*%
%TD*%
%TA.AperFunction,Conductor*%
%TO.N,+5V*%
G36*
X7974507Y-3970888D02*
G01*
X8170753Y-4053105D01*
X8177059Y-4059462D01*
X8177146Y-4068111D01*
X8041720Y-4418755D01*
X8035543Y-4425238D01*
X8030806Y-4426240D01*
X7919640Y-4426240D01*
X7911367Y-4422813D01*
X7908834Y-4419026D01*
X7763226Y-4068271D01*
X7763219Y-4059316D01*
X7769509Y-4052995D01*
X7965479Y-3970893D01*
X7974434Y-3970858D01*
X7974507Y-3970888D01*
G37*
%TD.AperFunction*%
%TD*%
%TA.AperFunction,Conductor*%
%TO.N,+5V*%
G36*
X26184507Y-20850888D02*
G01*
X26380631Y-20933054D01*
X26386937Y-20939411D01*
X26386975Y-20948186D01*
X26246440Y-21299941D01*
X26240188Y-21306352D01*
X26235575Y-21307300D01*
X26124425Y-21307300D01*
X26116152Y-21303873D01*
X26113560Y-21299941D01*
X25973024Y-20948186D01*
X25973137Y-20939232D01*
X25979366Y-20933055D01*
X26175479Y-20850893D01*
X26184434Y-20850858D01*
X26184507Y-20850888D01*
G37*
%TD.AperFunction*%
%TD*%
%TA.AperFunction,Conductor*%
%TO.N,/CS_T3*%
G36*
X9784995Y-43533427D02*
G01*
X9786872Y-43535881D01*
X10005445Y-43917126D01*
X10006587Y-43926007D01*
X10005737Y-43928223D01*
X9730442Y-44472842D01*
X9723651Y-44478680D01*
X9714722Y-44478006D01*
X9709558Y-44472842D01*
X9434262Y-43928223D01*
X9433588Y-43919294D01*
X9434551Y-43917130D01*
X9653128Y-43535880D01*
X9660216Y-43530408D01*
X9663278Y-43530000D01*
X9776722Y-43530000D01*
X9784995Y-43533427D01*
G37*
%TD.AperFunction*%
%TD*%
%TA.AperFunction,Conductor*%
%TO.N,+5V*%
G36*
X40431994Y-14396991D02*
G01*
X40433753Y-14398429D01*
X40990212Y-14951773D01*
X40993662Y-14960036D01*
X40990258Y-14968319D01*
X40987863Y-14970172D01*
X40298909Y-15372549D01*
X40290036Y-15373762D01*
X40284070Y-15369996D01*
X39694240Y-14671769D01*
X39691478Y-14664219D01*
X39691478Y-14551092D01*
X39694905Y-14542819D01*
X39700882Y-14539620D01*
X40423212Y-14395252D01*
X40431994Y-14396991D01*
G37*
%TD.AperFunction*%
%TD*%
%TA.AperFunction,Conductor*%
%TO.N,GND*%
G36*
X24249733Y-22468319D02*
G01*
X24250672Y-22469373D01*
X24699076Y-23038537D01*
X24751223Y-23104727D01*
X24753651Y-23113347D01*
X24751408Y-23118967D01*
X24267010Y-23767799D01*
X24259315Y-23772379D01*
X24257635Y-23772500D01*
X24142994Y-23772500D01*
X24134721Y-23769073D01*
X24133065Y-23766990D01*
X23729075Y-23118967D01*
X23678932Y-23038535D01*
X23677465Y-23029703D01*
X23680564Y-23024099D01*
X24233187Y-22468364D01*
X24241450Y-22464915D01*
X24249733Y-22468319D01*
G37*
%TD.AperFunction*%
%TD*%
%TA.AperFunction,Conductor*%
%TO.N,/LGAD2*%
G36*
X30160767Y-54503137D02*
G01*
X30166945Y-54509368D01*
X30249105Y-54705479D01*
X30249141Y-54714434D01*
X30249105Y-54714521D01*
X30166945Y-54910631D01*
X30160588Y-54916937D01*
X30151813Y-54916975D01*
X29800059Y-54776440D01*
X29793648Y-54770188D01*
X29792700Y-54765575D01*
X29792700Y-54654424D01*
X29796127Y-54646151D01*
X29800055Y-54643561D01*
X30151813Y-54503024D01*
X30160767Y-54503137D01*
G37*
%TD.AperFunction*%
%TD*%
%TA.AperFunction,Conductor*%
%TO.N,GND*%
G36*
X39682646Y-20492177D02*
G01*
X40017745Y-20613500D01*
X40076036Y-20634604D01*
X40082648Y-20640642D01*
X40083054Y-20649588D01*
X40082880Y-20650039D01*
X40002851Y-20845479D01*
X39996545Y-20851836D01*
X39996483Y-20851862D01*
X39799917Y-20932899D01*
X39790963Y-20932884D01*
X39784641Y-20926541D01*
X39784518Y-20926231D01*
X39667710Y-20615485D01*
X39666964Y-20611377D01*
X39666964Y-20503179D01*
X39670391Y-20494906D01*
X39678664Y-20491479D01*
X39682646Y-20492177D01*
G37*
%TD.AperFunction*%
%TD*%
%TA.AperFunction,Conductor*%
%TO.N,/ETROC3*%
G36*
X14904061Y-20487342D02*
G01*
X14982657Y-20565938D01*
X14986084Y-20574211D01*
X14985136Y-20578824D01*
X14835782Y-20926926D01*
X14829371Y-20933178D01*
X14820596Y-20933140D01*
X14623828Y-20852564D01*
X14617471Y-20846258D01*
X14536859Y-20649402D01*
X14536895Y-20640448D01*
X14543070Y-20634219D01*
X14891176Y-20484862D01*
X14900129Y-20484750D01*
X14904061Y-20487342D01*
G37*
%TD.AperFunction*%
%TD*%
%TA.AperFunction,Conductor*%
%TO.N,/ETROC4*%
G36*
X27310475Y-804511D02*
G01*
X27314067Y-806961D01*
X27393038Y-885932D01*
X27396465Y-894205D01*
X27395657Y-898478D01*
X27004346Y-1896025D01*
X26998135Y-1902475D01*
X26989181Y-1902644D01*
X26988995Y-1902569D01*
X26503795Y-1702562D01*
X26497452Y-1696241D01*
X26497437Y-1696204D01*
X26297430Y-1211004D01*
X26297445Y-1202049D01*
X26303788Y-1195728D01*
X26303917Y-1195675D01*
X27301524Y-804342D01*
X27310475Y-804511D01*
G37*
%TD.AperFunction*%
%TD*%
%TA.AperFunction,Conductor*%
%TO.N,GND*%
G36*
X9725278Y-46781993D02*
G01*
X9730442Y-46787157D01*
X10005737Y-47331776D01*
X10006411Y-47340705D01*
X10005445Y-47342873D01*
X9786872Y-47724119D01*
X9779784Y-47729592D01*
X9776722Y-47730000D01*
X9663278Y-47730000D01*
X9655005Y-47726573D01*
X9653128Y-47724119D01*
X9434554Y-47342873D01*
X9433412Y-47333992D01*
X9434262Y-47331776D01*
X9709558Y-46787157D01*
X9716349Y-46781319D01*
X9725278Y-46781993D01*
G37*
%TD.AperFunction*%
%TD*%
%TA.AperFunction,Conductor*%
%TO.N,/LGAD2*%
G36*
X19747673Y-19888230D02*
G01*
X20520132Y-20163981D01*
X20526771Y-20169990D01*
X20527217Y-20178934D01*
X20521208Y-20185573D01*
X20520132Y-20186019D01*
X19747673Y-20461769D01*
X19738729Y-20461323D01*
X19737920Y-20460900D01*
X19355881Y-20241871D01*
X19350408Y-20234783D01*
X19350000Y-20231721D01*
X19350000Y-20118278D01*
X19353427Y-20110005D01*
X19355879Y-20108129D01*
X19737920Y-19889098D01*
X19746801Y-19887957D01*
X19747673Y-19888230D01*
G37*
%TD.AperFunction*%
%TD*%
%TA.AperFunction,Conductor*%
%TO.N,Net-(U1-VSS)*%
G36*
X21210693Y-52293193D02*
G01*
X21216964Y-52299485D01*
X21298830Y-52496197D01*
X21298845Y-52505151D01*
X21298819Y-52505213D01*
X21217410Y-52699522D01*
X21211053Y-52705828D01*
X21202098Y-52705792D01*
X21201222Y-52705382D01*
X20828747Y-52511748D01*
X20822987Y-52504891D01*
X20823763Y-52495970D01*
X20825868Y-52493097D01*
X20902718Y-52416247D01*
X20906562Y-52413692D01*
X21201741Y-52293148D01*
X21210693Y-52293193D01*
G37*
%TD.AperFunction*%
%TD*%
%TA.AperFunction,Conductor*%
%TO.N,/LGAD1*%
G36*
X6763263Y-54863265D02*
G01*
X6844900Y-54944902D01*
X7269126Y-55365635D01*
X7272587Y-55373894D01*
X7269843Y-55381471D01*
X6758260Y-55990038D01*
X6750313Y-55994165D01*
X6741775Y-55991465D01*
X6740338Y-55990026D01*
X6230199Y-55381543D01*
X6227510Y-55373001D01*
X6231000Y-55365647D01*
X6746827Y-54863156D01*
X6755143Y-54859839D01*
X6763263Y-54863265D01*
G37*
%TD.AperFunction*%
%TD*%
%TA.AperFunction,Conductor*%
%TO.N,GND*%
G36*
X24224507Y-20850888D02*
G01*
X24421149Y-20933271D01*
X24427454Y-20939627D01*
X24427695Y-20947855D01*
X24308710Y-21294918D01*
X24302785Y-21301633D01*
X24297642Y-21302824D01*
X24186456Y-21302824D01*
X24178183Y-21299397D01*
X24175851Y-21296066D01*
X24013895Y-20948531D01*
X24013507Y-20939585D01*
X24019558Y-20932984D01*
X24019947Y-20932811D01*
X24215479Y-20850893D01*
X24224434Y-20850858D01*
X24224507Y-20850888D01*
G37*
%TD.AperFunction*%
%TD*%
%TA.AperFunction,Conductor*%
%TO.N,/V_{ref}*%
G36*
X6605162Y-32370899D02*
G01*
X6685762Y-32451499D01*
X6687864Y-32454365D01*
X7006871Y-33066465D01*
X7007656Y-33075385D01*
X7004506Y-33080400D01*
X6438731Y-33611841D01*
X6430355Y-33615007D01*
X6422193Y-33611323D01*
X6421427Y-33610420D01*
X6012295Y-33075385D01*
X5940319Y-32981260D01*
X5938017Y-32972608D01*
X5941695Y-32965541D01*
X6588972Y-32370557D01*
X6597381Y-32367482D01*
X6605162Y-32370899D01*
G37*
%TD.AperFunction*%
%TD*%
%TA.AperFunction,Conductor*%
%TO.N,/2.5V*%
G36*
X22904507Y-20840888D02*
G01*
X23100631Y-20923054D01*
X23106937Y-20929411D01*
X23106975Y-20938186D01*
X22966440Y-21289941D01*
X22960188Y-21296352D01*
X22955575Y-21297300D01*
X22844425Y-21297300D01*
X22836152Y-21293873D01*
X22833560Y-21289941D01*
X22693024Y-20938186D01*
X22693137Y-20929232D01*
X22699366Y-20923055D01*
X22895479Y-20840893D01*
X22904434Y-20840858D01*
X22904507Y-20840888D01*
G37*
%TD.AperFunction*%
%TD*%
%TA.AperFunction,Conductor*%
%TO.N,/LGAD2*%
G36*
X32384012Y-54890994D02*
G01*
X32387541Y-54893416D01*
X32467030Y-54972905D01*
X32470457Y-54981178D01*
X32469968Y-54984524D01*
X32103573Y-56212168D01*
X32097924Y-56219116D01*
X32089016Y-56220033D01*
X32088283Y-56219788D01*
X31504968Y-56002817D01*
X31498409Y-55996721D01*
X31497739Y-55994853D01*
X31315971Y-55310144D01*
X31317160Y-55301269D01*
X31323069Y-55296226D01*
X32375062Y-54890772D01*
X32384012Y-54890994D01*
G37*
%TD.AperFunction*%
%TD*%
%TA.AperFunction,Conductor*%
%TO.N,/2.5V*%
G36*
X33093258Y-17152285D02*
G01*
X33377673Y-17437648D01*
X33381086Y-17445926D01*
X33378574Y-17453150D01*
X33152014Y-17740543D01*
X33144201Y-17744919D01*
X33142826Y-17745000D01*
X33027174Y-17745000D01*
X33018901Y-17741573D01*
X33017986Y-17740543D01*
X32791425Y-17453150D01*
X32788994Y-17444532D01*
X32792324Y-17437651D01*
X33076714Y-17152313D01*
X33084981Y-17148873D01*
X33093258Y-17152285D01*
G37*
%TD.AperFunction*%
%TD*%
%TA.AperFunction,Conductor*%
%TO.N,/LGAD1*%
G36*
X7347682Y-55756135D02*
G01*
X7354005Y-55762476D01*
X7354180Y-55762927D01*
X7438761Y-55994696D01*
X7439185Y-55999080D01*
X7439411Y-55999080D01*
X7439411Y-56000000D01*
X7457058Y-56111426D01*
X7508277Y-56211949D01*
X7521826Y-56225498D01*
X7524544Y-56229760D01*
X7783438Y-56939184D01*
X7783055Y-56948131D01*
X7780720Y-56951468D01*
X7701170Y-57031018D01*
X7692897Y-57034445D01*
X7689464Y-57033930D01*
X6611694Y-56703137D01*
X6604791Y-56697434D01*
X6603679Y-56689537D01*
X6748018Y-56005336D01*
X6753078Y-55997950D01*
X6754999Y-55996938D01*
X7338728Y-55756122D01*
X7347682Y-55756135D01*
G37*
%TD.AperFunction*%
%TD*%
%TA.AperFunction,Conductor*%
%TO.N,GND*%
G36*
X6495622Y-29323427D02*
G01*
X6496987Y-29325067D01*
X6951729Y-29985888D01*
X6953596Y-29994646D01*
X6951054Y-30000042D01*
X6438963Y-30610318D01*
X6431020Y-30614452D01*
X6422479Y-30611760D01*
X6421037Y-30610318D01*
X5908945Y-30000042D01*
X5906253Y-29991501D01*
X5908269Y-29985889D01*
X6363013Y-29325066D01*
X6370526Y-29320195D01*
X6372651Y-29320000D01*
X6487349Y-29320000D01*
X6495622Y-29323427D01*
G37*
%TD.AperFunction*%
%TD*%
%TA.AperFunction,Conductor*%
%TO.N,GND*%
G36*
X42104920Y-16158292D02*
G01*
X42108347Y-16166565D01*
X42107609Y-16170655D01*
X41728543Y-17186728D01*
X41722441Y-17193281D01*
X41715094Y-17194071D01*
X41681341Y-17186728D01*
X41598764Y-17168763D01*
X41006313Y-17039873D01*
X40998957Y-17034765D01*
X40997801Y-17032428D01*
X40791307Y-16462235D01*
X40791713Y-16453289D01*
X40798325Y-16447250D01*
X40799496Y-16446895D01*
X41985122Y-16155203D01*
X41987917Y-16154865D01*
X42096647Y-16154865D01*
X42104920Y-16158292D01*
G37*
%TD.AperFunction*%
%TD*%
%TA.AperFunction,Conductor*%
%TO.N,GND*%
G36*
X9414061Y-12687342D02*
G01*
X9492657Y-12765938D01*
X9496084Y-12774211D01*
X9495136Y-12778824D01*
X9345782Y-13126926D01*
X9339371Y-13133178D01*
X9330596Y-13133140D01*
X9133828Y-13052564D01*
X9127471Y-13046258D01*
X9046859Y-12849402D01*
X9046895Y-12840448D01*
X9053070Y-12834219D01*
X9401176Y-12684862D01*
X9410129Y-12684750D01*
X9414061Y-12687342D01*
G37*
%TD.AperFunction*%
%TD*%
%TA.AperFunction,Conductor*%
%TO.N,+5V*%
G36*
X12976603Y-3968738D02*
G01*
X12979290Y-3970745D01*
X13058871Y-4050326D01*
X13062298Y-4058599D01*
X13061570Y-4062661D01*
X12629205Y-5230677D01*
X12623120Y-5237246D01*
X12614171Y-5237587D01*
X12613792Y-5237439D01*
X12042950Y-5003233D01*
X12036597Y-4996923D01*
X12035818Y-4994128D01*
X11930781Y-4285048D01*
X11932959Y-4276364D01*
X11939034Y-4272118D01*
X12967700Y-3967799D01*
X12976603Y-3968738D01*
G37*
%TD.AperFunction*%
%TD*%
%TA.AperFunction,Conductor*%
%TO.N,/CLK*%
G36*
X7239942Y-44483560D02*
G01*
X7246352Y-44489811D01*
X7247300Y-44494424D01*
X7247300Y-44605575D01*
X7243873Y-44613848D01*
X7239941Y-44616440D01*
X6888186Y-44756975D01*
X6879232Y-44756862D01*
X6873054Y-44750631D01*
X6790894Y-44554521D01*
X6790858Y-44545566D01*
X6790894Y-44545479D01*
X6873055Y-44349366D01*
X6879411Y-44343062D01*
X6888186Y-44343024D01*
X7239942Y-44483560D01*
G37*
%TD.AperFunction*%
%TD*%
%TA.AperFunction,Conductor*%
%TO.N,GND*%
G36*
X5952881Y-3814323D02*
G01*
X5953458Y-3814943D01*
X6408275Y-4340902D01*
X6411094Y-4349401D01*
X6408601Y-4355813D01*
X5908810Y-4987675D01*
X5900990Y-4992038D01*
X5892376Y-4989593D01*
X5890448Y-4987663D01*
X5392609Y-4356535D01*
X5390176Y-4347917D01*
X5393669Y-4340871D01*
X5855428Y-3895230D01*
X5936335Y-3814323D01*
X5944608Y-3810896D01*
X5952881Y-3814323D01*
G37*
%TD.AperFunction*%
%TD*%
%TA.AperFunction,Conductor*%
%TO.N,GND*%
G36*
X10948677Y-22718618D02*
G01*
X10954581Y-22725228D01*
X11053418Y-23004167D01*
X11052951Y-23013110D01*
X11046495Y-23019031D01*
X10378282Y-23269390D01*
X10369332Y-23269084D01*
X10365904Y-23266707D01*
X10365904Y-23266706D01*
X10281674Y-23182477D01*
X10281208Y-23181949D01*
X10145967Y-23008217D01*
X10143590Y-22999585D01*
X10148013Y-22991799D01*
X10151378Y-22989973D01*
X10939740Y-22718075D01*
X10948677Y-22718618D01*
G37*
%TD.AperFunction*%
%TD*%
%TA.AperFunction,Conductor*%
%TO.N,/LGAD4*%
G36*
X35411301Y-1757875D02*
G01*
X35994999Y-1996955D01*
X36001356Y-2003262D01*
X36002003Y-2005323D01*
X36149066Y-2689561D01*
X36147454Y-2698370D01*
X36141119Y-2703187D01*
X35064569Y-3039877D01*
X35055650Y-3039075D01*
X35052804Y-3036983D01*
X34973260Y-2957439D01*
X34969833Y-2949166D01*
X34970525Y-2945204D01*
X35395860Y-1764734D01*
X35401887Y-1758114D01*
X35410832Y-1757695D01*
X35411301Y-1757875D01*
G37*
%TD.AperFunction*%
%TD*%
%TA.AperFunction,Conductor*%
%TO.N,TP+*%
G36*
X18999551Y-3236895D02*
G01*
X19005782Y-3243073D01*
X19155136Y-3591175D01*
X19155249Y-3600129D01*
X19152657Y-3604061D01*
X19074061Y-3682657D01*
X19065788Y-3686084D01*
X19061175Y-3685136D01*
X18859153Y-3598458D01*
X18713072Y-3535781D01*
X18706821Y-3529371D01*
X18706858Y-3520597D01*
X18787436Y-3323826D01*
X18793740Y-3317471D01*
X18990597Y-3236859D01*
X18999551Y-3236895D01*
G37*
%TD.AperFunction*%
%TD*%
%TA.AperFunction,Conductor*%
%TO.N,/ETROC1*%
G36*
X10980044Y-55383246D02*
G01*
X10980152Y-55383372D01*
X11493843Y-55992567D01*
X11496556Y-56001101D01*
X11493248Y-56008305D01*
X10945782Y-56566094D01*
X10937541Y-56569597D01*
X10929662Y-56566646D01*
X10613444Y-56285792D01*
X10287810Y-55996574D01*
X10283901Y-55988520D01*
X10286833Y-55980058D01*
X10287291Y-55979572D01*
X10368198Y-55898665D01*
X10368467Y-55898414D01*
X10963540Y-55382076D01*
X10972034Y-55379243D01*
X10980044Y-55383246D01*
G37*
%TD.AperFunction*%
%TD*%
%TA.AperFunction,Conductor*%
%TO.N,+5V*%
G36*
X8249061Y-12692342D02*
G01*
X8327657Y-12770938D01*
X8331084Y-12779211D01*
X8330136Y-12783824D01*
X8180782Y-13131926D01*
X8174371Y-13138178D01*
X8165596Y-13138140D01*
X7968828Y-13057564D01*
X7962471Y-13051258D01*
X7881859Y-12854402D01*
X7881895Y-12845448D01*
X7888070Y-12839219D01*
X8236176Y-12689862D01*
X8245129Y-12689750D01*
X8249061Y-12692342D01*
G37*
%TD.AperFunction*%
%TD*%
%TA.AperFunction,Conductor*%
%TO.N,/ETROC2*%
G36*
X19747673Y-21158230D02*
G01*
X20520132Y-21433981D01*
X20526771Y-21439990D01*
X20527217Y-21448934D01*
X20521208Y-21455573D01*
X20520132Y-21456019D01*
X19747673Y-21731769D01*
X19738729Y-21731323D01*
X19737920Y-21730900D01*
X19355881Y-21511871D01*
X19350408Y-21504783D01*
X19350000Y-21501721D01*
X19350000Y-21388278D01*
X19353427Y-21380005D01*
X19355879Y-21378129D01*
X19737920Y-21159098D01*
X19746801Y-21157957D01*
X19747673Y-21158230D01*
G37*
%TD.AperFunction*%
%TD*%
%TA.AperFunction,Conductor*%
%TO.N,GND*%
G36*
X21361270Y-12268676D02*
G01*
X21362079Y-12269099D01*
X21744119Y-12488128D01*
X21749592Y-12495216D01*
X21750000Y-12498278D01*
X21750000Y-12611721D01*
X21746573Y-12619994D01*
X21744119Y-12621871D01*
X21362079Y-12840900D01*
X21353198Y-12842042D01*
X21352326Y-12841769D01*
X20579867Y-12566019D01*
X20573228Y-12560010D01*
X20572782Y-12551066D01*
X20578791Y-12544427D01*
X20579867Y-12543981D01*
X21352326Y-12268230D01*
X21361270Y-12268676D01*
G37*
%TD.AperFunction*%
%TD*%
%TA.AperFunction,Conductor*%
%TO.N,/LGAD3*%
G36*
X10009363Y-2106093D02*
G01*
X10010192Y-2106661D01*
X10594132Y-2545589D01*
X10598686Y-2553300D01*
X10598582Y-2557201D01*
X10435358Y-3386581D01*
X10430398Y-3394037D01*
X10423878Y-3396022D01*
X10310731Y-3396022D01*
X10303247Y-3393315D01*
X9579438Y-2790936D01*
X9575271Y-2783010D01*
X9577000Y-2775743D01*
X9993241Y-2109812D01*
X10000532Y-2104614D01*
X10009363Y-2106093D01*
G37*
%TD.AperFunction*%
%TD*%
%TA.AperFunction,Conductor*%
%TO.N,/LGAD4*%
G36*
X27649551Y-3786895D02*
G01*
X27655782Y-3793073D01*
X27805136Y-4141175D01*
X27805249Y-4150129D01*
X27802657Y-4154061D01*
X27724061Y-4232657D01*
X27715788Y-4236084D01*
X27711175Y-4235136D01*
X27509153Y-4148458D01*
X27363072Y-4085781D01*
X27356821Y-4079371D01*
X27356858Y-4070597D01*
X27437436Y-3873826D01*
X27443740Y-3867471D01*
X27640597Y-3786859D01*
X27649551Y-3786895D01*
G37*
%TD.AperFunction*%
%TD*%
%TA.AperFunction,Conductor*%
%TO.N,/LGAD3*%
G36*
X4404507Y-4200888D02*
G01*
X4600631Y-4283054D01*
X4606937Y-4289411D01*
X4606975Y-4298186D01*
X4466440Y-4649941D01*
X4460188Y-4656352D01*
X4455575Y-4657300D01*
X4344425Y-4657300D01*
X4336152Y-4653873D01*
X4333560Y-4649941D01*
X4193024Y-4298186D01*
X4193137Y-4289232D01*
X4199366Y-4283055D01*
X4395479Y-4200893D01*
X4404434Y-4200858D01*
X4404507Y-4200888D01*
G37*
%TD.AperFunction*%
%TD*%
%TA.AperFunction,Conductor*%
%TO.N,+5V*%
G36*
X26246525Y-21150927D02*
G01*
X26246990Y-21151420D01*
X26825258Y-21800901D01*
X26828200Y-21809358D01*
X26825710Y-21815922D01*
X26325673Y-22450625D01*
X26317862Y-22455002D01*
X26309242Y-22452574D01*
X26308187Y-22451634D01*
X25754935Y-21895267D01*
X25751531Y-21886984D01*
X25752746Y-21881826D01*
X26113276Y-21154007D01*
X26120020Y-21148114D01*
X26123761Y-21147500D01*
X26238252Y-21147500D01*
X26246525Y-21150927D01*
G37*
%TD.AperFunction*%
%TD*%
%TA.AperFunction,Conductor*%
%TO.N,/CLK*%
G36*
X25439402Y-28826858D02*
G01*
X25636171Y-28907435D01*
X25642528Y-28913741D01*
X25642564Y-28913828D01*
X25723140Y-29110596D01*
X25723104Y-29119551D01*
X25716926Y-29125782D01*
X25368824Y-29275136D01*
X25359870Y-29275249D01*
X25355938Y-29272657D01*
X25277342Y-29194061D01*
X25273915Y-29185788D01*
X25274862Y-29181178D01*
X25424219Y-28833071D01*
X25430628Y-28826821D01*
X25439402Y-28826858D01*
G37*
%TD.AperFunction*%
%TD*%
%TA.AperFunction,Conductor*%
%TO.N,GND*%
G36*
X38921389Y-16858721D02*
G01*
X38921913Y-16859004D01*
X39117458Y-16971112D01*
X39304119Y-17078128D01*
X39309592Y-17085216D01*
X39310000Y-17088278D01*
X39310000Y-17201721D01*
X39306573Y-17209994D01*
X39304119Y-17211871D01*
X38921913Y-17430995D01*
X38913032Y-17432137D01*
X38912461Y-17431967D01*
X38251564Y-17216071D01*
X38068045Y-17156121D01*
X38061246Y-17150295D01*
X38060557Y-17141367D01*
X38066384Y-17134567D01*
X38068044Y-17133878D01*
X38912462Y-16858032D01*
X38921389Y-16858721D01*
G37*
%TD.AperFunction*%
%TD*%
%TA.AperFunction,Conductor*%
%TO.N,+5V*%
G36*
X16964507Y-36750888D02*
G01*
X17160631Y-36833054D01*
X17166937Y-36839411D01*
X17166975Y-36848186D01*
X17026440Y-37199941D01*
X17020188Y-37206352D01*
X17015575Y-37207300D01*
X16904425Y-37207300D01*
X16896152Y-37203873D01*
X16893560Y-37199941D01*
X16753024Y-36848186D01*
X16753137Y-36839232D01*
X16759366Y-36833055D01*
X16955479Y-36750893D01*
X16964434Y-36750858D01*
X16964507Y-36750888D01*
G37*
%TD.AperFunction*%
%TD*%
%TA.AperFunction,Conductor*%
%TO.N,+5V*%
G36*
X8499740Y-49348715D02*
G01*
X8501689Y-49350664D01*
X9001464Y-49985033D01*
X9003892Y-49993653D01*
X9001939Y-49998868D01*
X8559484Y-50647394D01*
X8551991Y-50652297D01*
X8549819Y-50652500D01*
X8435181Y-50652500D01*
X8426908Y-50649073D01*
X8425516Y-50647394D01*
X7983059Y-49998866D01*
X7981228Y-49990102D01*
X7983533Y-49985036D01*
X8483312Y-49350662D01*
X8491120Y-49346287D01*
X8499740Y-49348715D01*
G37*
%TD.AperFunction*%
%TD*%
%TA.AperFunction,Conductor*%
%TO.N,+5V*%
G36*
X7427704Y-1563158D02*
G01*
X7430503Y-1565106D01*
X7991616Y-2092168D01*
X7995300Y-2100330D01*
X7992134Y-2108706D01*
X7991605Y-2109234D01*
X7429197Y-2636145D01*
X7420817Y-2639301D01*
X7412660Y-2635606D01*
X7411408Y-2634013D01*
X7090298Y-2142854D01*
X7088640Y-2134056D01*
X7091817Y-2128182D01*
X7174901Y-2045099D01*
X7412020Y-1568419D01*
X7418770Y-1562542D01*
X7427704Y-1563158D01*
G37*
%TD.AperFunction*%
%TD*%
%TA.AperFunction,Conductor*%
%TO.N,/V_{ref}*%
G36*
X9346134Y-29538979D02*
G01*
X9349369Y-29541266D01*
X9428863Y-29620760D01*
X9432290Y-29629033D01*
X9431705Y-29632687D01*
X9033855Y-30842801D01*
X9028015Y-30849590D01*
X9019086Y-30850262D01*
X9018496Y-30850050D01*
X8434982Y-30622921D01*
X8428515Y-30616727D01*
X8427856Y-30614778D01*
X8262034Y-29930258D01*
X8263417Y-29921412D01*
X8269498Y-29916477D01*
X9337192Y-29538510D01*
X9346134Y-29538979D01*
G37*
%TD.AperFunction*%
%TD*%
%TA.AperFunction,Conductor*%
%TO.N,/V_{ref}*%
G36*
X19747673Y-22428230D02*
G01*
X20520132Y-22703981D01*
X20526771Y-22709990D01*
X20527217Y-22718934D01*
X20521208Y-22725573D01*
X20520132Y-22726019D01*
X19747673Y-23001769D01*
X19738729Y-23001323D01*
X19737920Y-23000900D01*
X19355881Y-22781871D01*
X19350408Y-22774783D01*
X19350000Y-22771721D01*
X19350000Y-22658278D01*
X19353427Y-22650005D01*
X19355879Y-22648129D01*
X19737920Y-22429098D01*
X19746801Y-22427957D01*
X19747673Y-22428230D01*
G37*
%TD.AperFunction*%
%TD*%
%TA.AperFunction,Conductor*%
%TO.N,GND*%
G36*
X40355722Y-16529131D02*
G01*
X40990625Y-17029326D01*
X40995002Y-17037137D01*
X40992574Y-17045757D01*
X40991634Y-17046812D01*
X40435470Y-17599862D01*
X40427187Y-17603266D01*
X40421694Y-17601879D01*
X39693674Y-17211808D01*
X39688000Y-17204880D01*
X39687500Y-17201495D01*
X39687500Y-17086931D01*
X39690927Y-17078658D01*
X39691649Y-17077994D01*
X39739574Y-17037500D01*
X40340932Y-16529383D01*
X40349461Y-16526662D01*
X40355722Y-16529131D01*
G37*
%TD.AperFunction*%
%TD*%
%TA.AperFunction,Conductor*%
%TO.N,+5V*%
G36*
X37579942Y-1933560D02*
G01*
X37586352Y-1939811D01*
X37587300Y-1944424D01*
X37587300Y-2055575D01*
X37583873Y-2063848D01*
X37579941Y-2066440D01*
X37228186Y-2206975D01*
X37219232Y-2206862D01*
X37213054Y-2200631D01*
X37130894Y-2004521D01*
X37130858Y-1995566D01*
X37130894Y-1995479D01*
X37213055Y-1799366D01*
X37219411Y-1793062D01*
X37228186Y-1793024D01*
X37579942Y-1933560D01*
G37*
%TD.AperFunction*%
%TD*%
%TA.AperFunction,Conductor*%
%TO.N,+5V*%
G36*
X34182646Y-55942177D02*
G01*
X34517745Y-56063500D01*
X34576036Y-56084604D01*
X34582648Y-56090642D01*
X34583054Y-56099588D01*
X34582880Y-56100039D01*
X34502851Y-56295479D01*
X34496545Y-56301836D01*
X34496483Y-56301862D01*
X34299917Y-56382899D01*
X34290963Y-56382884D01*
X34284641Y-56376541D01*
X34284518Y-56376231D01*
X34180699Y-56100039D01*
X34167712Y-56065489D01*
X34166964Y-56061372D01*
X34166964Y-55953179D01*
X34170391Y-55944906D01*
X34178664Y-55941479D01*
X34182646Y-55942177D01*
G37*
%TD.AperFunction*%
%TD*%
%TA.AperFunction,Conductor*%
%TO.N,VCC*%
G36*
X32408227Y-30507182D02*
G01*
X32895995Y-30933004D01*
X32899973Y-30941025D01*
X32900000Y-30941817D01*
X32900000Y-31058182D01*
X32896573Y-31066455D01*
X32895995Y-31066996D01*
X32408228Y-31492816D01*
X32399741Y-31495675D01*
X32392268Y-31492283D01*
X31966130Y-31066996D01*
X31907296Y-31008280D01*
X31903862Y-31000012D01*
X31907280Y-30991735D01*
X32392268Y-30507715D01*
X32400545Y-30504297D01*
X32408227Y-30507182D01*
G37*
%TD.AperFunction*%
%TD*%
%TA.AperFunction,Conductor*%
%TO.N,GND*%
G36*
X19747673Y-13538230D02*
G01*
X20520132Y-13813981D01*
X20526771Y-13819990D01*
X20527217Y-13828934D01*
X20521208Y-13835573D01*
X20520132Y-13836019D01*
X19747673Y-14111769D01*
X19738729Y-14111323D01*
X19737920Y-14110900D01*
X19355881Y-13891871D01*
X19350408Y-13884783D01*
X19350000Y-13881721D01*
X19350000Y-13768278D01*
X19353427Y-13760005D01*
X19355879Y-13758129D01*
X19737920Y-13539098D01*
X19746801Y-13537957D01*
X19747673Y-13538230D01*
G37*
%TD.AperFunction*%
%TD*%
%TA.AperFunction,Conductor*%
%TO.N,/ETROC2*%
G36*
X34669452Y-55047089D02*
G01*
X34669887Y-55047552D01*
X34923147Y-55332429D01*
X34926083Y-55340889D01*
X34922676Y-55348476D01*
X34844128Y-55427024D01*
X34835855Y-55430451D01*
X34835792Y-55430451D01*
X34511601Y-55428712D01*
X34503347Y-55425241D01*
X34499964Y-55417048D01*
X34499308Y-55204190D01*
X34502708Y-55195907D01*
X34652907Y-55047016D01*
X34661194Y-55043626D01*
X34669452Y-55047089D01*
G37*
%TD.AperFunction*%
%TD*%
%TA.AperFunction,Conductor*%
%TO.N,Net-(U5-XTAL2)*%
G36*
X6406123Y-10154898D02*
G01*
X6895609Y-10546487D01*
X6899928Y-10554331D01*
X6900000Y-10555623D01*
X6900000Y-10744376D01*
X6896573Y-10752649D01*
X6895609Y-10753512D01*
X6406126Y-11145099D01*
X6397525Y-11147591D01*
X6393140Y-11146193D01*
X6115096Y-10991896D01*
X5517433Y-10660229D01*
X5511863Y-10653220D01*
X5512881Y-10644323D01*
X5517434Y-10639770D01*
X5669067Y-10555623D01*
X6393142Y-10153805D01*
X6402037Y-10152788D01*
X6406123Y-10154898D01*
G37*
%TD.AperFunction*%
%TD*%
%TA.AperFunction,Conductor*%
%TO.N,+5V*%
G36*
X12553273Y-1507153D02*
G01*
X13185780Y-2032992D01*
X13189951Y-2040915D01*
X13190000Y-2041988D01*
X13190000Y-2158011D01*
X13186573Y-2166284D01*
X13185780Y-2167008D01*
X12553275Y-2692845D01*
X12544722Y-2695499D01*
X12537139Y-2691720D01*
X12006159Y-2107872D01*
X12003128Y-2099446D01*
X12006159Y-2092128D01*
X12059941Y-2032991D01*
X12537140Y-1508278D01*
X12545241Y-1504464D01*
X12553273Y-1507153D01*
G37*
%TD.AperFunction*%
%TD*%
%TA.AperFunction,Conductor*%
%TO.N,/LGAD3*%
G36*
X9411549Y-1873328D02*
G01*
X9995023Y-2097112D01*
X10001519Y-2103274D01*
X10002183Y-2105199D01*
X10173267Y-2789791D01*
X10171948Y-2798648D01*
X10165937Y-2803615D01*
X9100874Y-3193375D01*
X9091927Y-3193000D01*
X9088580Y-3190661D01*
X9009102Y-3111183D01*
X9005675Y-3102910D01*
X9006231Y-3099347D01*
X9396227Y-1880688D01*
X9402011Y-1873855D01*
X9410935Y-1873113D01*
X9411549Y-1873328D01*
G37*
%TD.AperFunction*%
%TD*%
%TA.AperFunction,Conductor*%
%TO.N,Net-(U4-VSS)*%
G36*
X22034082Y-4192667D02*
G01*
X22034286Y-4192866D01*
X22115499Y-4274079D01*
X22115705Y-4274295D01*
X22492550Y-4691748D01*
X22495550Y-4700185D01*
X22492138Y-4707861D01*
X22007882Y-5192117D01*
X21999609Y-5195544D01*
X21991336Y-5192117D01*
X21991032Y-5191802D01*
X21542235Y-4708062D01*
X21539120Y-4699666D01*
X21542339Y-4692036D01*
X22017541Y-4193069D01*
X22025728Y-4189442D01*
X22034082Y-4192667D01*
G37*
%TD.AperFunction*%
%TD*%
%TA.AperFunction,Conductor*%
%TO.N,Net-(U4-VSS)*%
G36*
X22100013Y-3917109D02*
G01*
X22295480Y-3997149D01*
X22301836Y-4003454D01*
X22301862Y-4003516D01*
X22382899Y-4200082D01*
X22382884Y-4209036D01*
X22376541Y-4215358D01*
X22376199Y-4215493D01*
X22065490Y-4332288D01*
X22061373Y-4333036D01*
X21953179Y-4333036D01*
X21944906Y-4329609D01*
X21941479Y-4321336D01*
X21942178Y-4317353D01*
X22055802Y-4003516D01*
X22084604Y-3923962D01*
X22090642Y-3917351D01*
X22099588Y-3916945D01*
X22100013Y-3917109D01*
G37*
%TD.AperFunction*%
%TD*%
%TA.AperFunction,Conductor*%
%TO.N,/ETROC3*%
G36*
X6610682Y-1039571D02*
G01*
X6611594Y-1044100D01*
X6611594Y-1153500D01*
X6600158Y-2250881D01*
X6596645Y-2259118D01*
X6588337Y-2262458D01*
X6585343Y-2262036D01*
X6004616Y-2101552D01*
X5997554Y-2096046D01*
X5996858Y-2094590D01*
X5726052Y-1410657D01*
X5726192Y-1401705D01*
X5732400Y-1395563D01*
X6595366Y-1033311D01*
X6604320Y-1033270D01*
X6610682Y-1039571D01*
G37*
%TD.AperFunction*%
%TD*%
%TA.AperFunction,Conductor*%
%TO.N,+5V*%
G36*
X38811260Y-9021286D02*
G01*
X38814677Y-9023658D01*
X38894265Y-9103246D01*
X38897692Y-9111519D01*
X38897226Y-9114788D01*
X38597842Y-10143581D01*
X38592240Y-10150567D01*
X38584930Y-10151891D01*
X37875889Y-10049162D01*
X37868193Y-10044584D01*
X37866751Y-10042045D01*
X37631265Y-9471188D01*
X37631278Y-9462233D01*
X37637619Y-9455910D01*
X37637935Y-9455785D01*
X38802312Y-9020970D01*
X38811260Y-9021286D01*
G37*
%TD.AperFunction*%
%TD*%
%TA.AperFunction,Conductor*%
%TO.N,/CS_T1*%
G36*
X30884507Y-5370888D02*
G01*
X31080631Y-5453054D01*
X31086937Y-5459411D01*
X31086975Y-5468186D01*
X30946440Y-5819941D01*
X30940188Y-5826352D01*
X30935575Y-5827300D01*
X30824425Y-5827300D01*
X30816152Y-5823873D01*
X30813560Y-5819941D01*
X30673024Y-5468186D01*
X30673137Y-5459232D01*
X30679366Y-5453055D01*
X30875479Y-5370893D01*
X30884434Y-5370858D01*
X30884507Y-5370888D01*
G37*
%TD.AperFunction*%
%TD*%
%TA.AperFunction,Conductor*%
%TO.N,Net-(U3-VSS)*%
G36*
X2507731Y-4207716D02*
G01*
X2992702Y-4691719D01*
X2996137Y-4699988D01*
X2992718Y-4708265D01*
X2992702Y-4708281D01*
X2507731Y-5192283D01*
X2499454Y-5195702D01*
X2491771Y-5192816D01*
X2004005Y-4766996D01*
X2000027Y-4758974D01*
X2000000Y-4758182D01*
X2000000Y-4641817D01*
X2003427Y-4633544D01*
X2003994Y-4633012D01*
X2491772Y-4207182D01*
X2500258Y-4204324D01*
X2507731Y-4207716D01*
G37*
%TD.AperFunction*%
%TD*%
%TA.AperFunction,Conductor*%
%TO.N,/CS_T3*%
G36*
X29077724Y-43896837D02*
G01*
X29079870Y-43898319D01*
X29307277Y-44096266D01*
X29597263Y-44348687D01*
X29601253Y-44356704D01*
X29598406Y-44365194D01*
X29597854Y-44365785D01*
X29516919Y-44446721D01*
X29080016Y-44865194D01*
X29071671Y-44868442D01*
X29068380Y-44867896D01*
X27535303Y-44380735D01*
X27528456Y-44374963D01*
X27527695Y-44366041D01*
X27533467Y-44359194D01*
X27535457Y-44358386D01*
X29068815Y-43895945D01*
X29077724Y-43896837D01*
G37*
%TD.AperFunction*%
%TD*%
%TA.AperFunction,Conductor*%
%TO.N,/ETROC3*%
G36*
X14759073Y-1028628D02*
G01*
X15833864Y-1197930D01*
X15841503Y-1202602D01*
X15843600Y-1211308D01*
X15843274Y-1212767D01*
X15702361Y-1695336D01*
X15696753Y-1702316D01*
X15696734Y-1702327D01*
X15210202Y-1967784D01*
X15201298Y-1968738D01*
X15194365Y-1963185D01*
X14747030Y-1156146D01*
X14745563Y-1150474D01*
X14745563Y-1040186D01*
X14748990Y-1031913D01*
X14757263Y-1028486D01*
X14759073Y-1028628D01*
G37*
%TD.AperFunction*%
%TD*%
%TA.AperFunction,Conductor*%
%TO.N,+5V*%
G36*
X37427622Y-1462749D02*
G01*
X37429609Y-1464248D01*
X37991897Y-1991465D01*
X37995588Y-1999623D01*
X37992429Y-2008002D01*
X37991897Y-2008534D01*
X37429610Y-2535750D01*
X37421231Y-2538909D01*
X37413072Y-2535218D01*
X37411572Y-2533230D01*
X37131665Y-2066277D01*
X37130000Y-2060262D01*
X37130000Y-1939737D01*
X37131665Y-1933722D01*
X37411573Y-1466767D01*
X37418765Y-1461435D01*
X37427622Y-1462749D01*
G37*
%TD.AperFunction*%
%TD*%
%TA.AperFunction,Conductor*%
%TO.N,/CLK*%
G36*
X10147673Y-18618230D02*
G01*
X10920132Y-18893981D01*
X10926771Y-18899990D01*
X10927217Y-18908934D01*
X10921208Y-18915573D01*
X10920132Y-18916019D01*
X10147673Y-19191769D01*
X10138729Y-19191323D01*
X10137920Y-19190900D01*
X9755881Y-18971871D01*
X9750408Y-18964783D01*
X9750000Y-18961721D01*
X9750000Y-18848278D01*
X9753427Y-18840005D01*
X9755879Y-18838129D01*
X10137920Y-18619098D01*
X10146801Y-18617957D01*
X10147673Y-18618230D01*
G37*
%TD.AperFunction*%
%TD*%
%TA.AperFunction,Conductor*%
%TO.N,/CLK*%
G36*
X8477779Y-44226972D02*
G01*
X8762298Y-44484620D01*
X8766131Y-44492714D01*
X8763118Y-44501146D01*
X8763091Y-44501175D01*
X8476917Y-44815079D01*
X8468811Y-44818885D01*
X8461579Y-44816795D01*
X8175008Y-44616991D01*
X8170182Y-44609448D01*
X8170000Y-44607393D01*
X8170000Y-44491755D01*
X8173427Y-44483482D01*
X8173915Y-44483020D01*
X8462155Y-44226898D01*
X8470615Y-44223965D01*
X8477779Y-44226972D01*
G37*
%TD.AperFunction*%
%TD*%
%TA.AperFunction,Conductor*%
%TO.N,Net-(U1-VSS)*%
G36*
X20097950Y-50997445D02*
G01*
X20104271Y-51003788D01*
X20104346Y-51003974D01*
X20495657Y-52001521D01*
X20495488Y-52010475D01*
X20493038Y-52014067D01*
X20414067Y-52093038D01*
X20405794Y-52096465D01*
X20401522Y-52095657D01*
X19965024Y-51924431D01*
X19403974Y-51704346D01*
X19397524Y-51698135D01*
X19397355Y-51689181D01*
X19397430Y-51688995D01*
X19597437Y-51203795D01*
X19603757Y-51197452D01*
X20088996Y-50997430D01*
X20097950Y-50997445D01*
G37*
%TD.AperFunction*%
%TD*%
%TA.AperFunction,Conductor*%
%TO.N,+5V*%
G36*
X33557715Y-1933655D02*
G01*
X33564260Y-1939765D01*
X33565311Y-1944611D01*
X33565311Y-2055786D01*
X33561884Y-2064059D01*
X33558223Y-2066539D01*
X33208344Y-2216594D01*
X33199390Y-2216705D01*
X33192980Y-2210454D01*
X33110894Y-2014520D01*
X33110858Y-2005565D01*
X33110894Y-2005478D01*
X33193151Y-1809137D01*
X33199507Y-1802833D01*
X33208043Y-1802703D01*
X33557715Y-1933655D01*
G37*
%TD.AperFunction*%
%TD*%
%TA.AperFunction,Conductor*%
%TO.N,/ETROC4*%
G36*
X31060535Y-966069D02*
G01*
X32138305Y-1296862D01*
X32145208Y-1302565D01*
X32146320Y-1310462D01*
X32001982Y-1994661D01*
X31996921Y-2002049D01*
X31994996Y-2003062D01*
X31411271Y-2243876D01*
X31402316Y-2243863D01*
X31395993Y-2237522D01*
X31395818Y-2237071D01*
X31310420Y-2003062D01*
X30966561Y-1060813D01*
X30966944Y-1051868D01*
X30969276Y-1048534D01*
X31048830Y-968980D01*
X31057102Y-965554D01*
X31060535Y-966069D01*
G37*
%TD.AperFunction*%
%TD*%
%TA.AperFunction,Conductor*%
%TO.N,/DOUT*%
G36*
X23255278Y-26871993D02*
G01*
X23260442Y-26877157D01*
X23535737Y-27421776D01*
X23536411Y-27430705D01*
X23535445Y-27432873D01*
X23316872Y-27814119D01*
X23309784Y-27819592D01*
X23306722Y-27820000D01*
X23193278Y-27820000D01*
X23185005Y-27816573D01*
X23183128Y-27814119D01*
X22964554Y-27432873D01*
X22963412Y-27423992D01*
X22964262Y-27421776D01*
X23239558Y-26877157D01*
X23246349Y-26871319D01*
X23255278Y-26871993D01*
G37*
%TD.AperFunction*%
%TD*%
%TA.AperFunction,Conductor*%
%TO.N,/LGAD3*%
G36*
X13724520Y-20840894D02*
G01*
X13835063Y-20887205D01*
X13920631Y-20923054D01*
X13926937Y-20929411D01*
X13926975Y-20938186D01*
X13786440Y-21289941D01*
X13780188Y-21296352D01*
X13775575Y-21297300D01*
X13664425Y-21297300D01*
X13656152Y-21293873D01*
X13653560Y-21289941D01*
X13513024Y-20938186D01*
X13513137Y-20929232D01*
X13519366Y-20923055D01*
X13715479Y-20840893D01*
X13724433Y-20840858D01*
X13724520Y-20840894D01*
G37*
%TD.AperFunction*%
%TD*%
%TA.AperFunction,Conductor*%
%TO.N,/~{RESET}*%
G36*
X10147673Y-19888230D02*
G01*
X10920132Y-20163981D01*
X10926771Y-20169990D01*
X10927217Y-20178934D01*
X10921208Y-20185573D01*
X10920132Y-20186019D01*
X10147673Y-20461769D01*
X10138729Y-20461323D01*
X10137920Y-20460900D01*
X9755881Y-20241871D01*
X9750408Y-20234783D01*
X9750000Y-20231721D01*
X9750000Y-20118278D01*
X9753427Y-20110005D01*
X9755879Y-20108129D01*
X10137920Y-19889098D01*
X10146801Y-19887957D01*
X10147673Y-19888230D01*
G37*
%TD.AperFunction*%
%TD*%
%TA.AperFunction,Conductor*%
%TO.N,GND*%
G36*
X9459551Y-3936895D02*
G01*
X9465782Y-3943073D01*
X9615136Y-4291175D01*
X9615249Y-4300129D01*
X9612657Y-4304061D01*
X9534061Y-4382657D01*
X9525788Y-4386084D01*
X9521175Y-4385136D01*
X9319153Y-4298458D01*
X9173072Y-4235781D01*
X9166821Y-4229371D01*
X9166858Y-4220597D01*
X9247436Y-4023826D01*
X9253740Y-4017471D01*
X9450597Y-3936859D01*
X9459551Y-3936895D01*
G37*
%TD.AperFunction*%
%TD*%
%TA.AperFunction,Conductor*%
%TO.N,/2.5V*%
G36*
X41020222Y-19178691D02*
G01*
X41736793Y-19743542D01*
X41741169Y-19751354D01*
X41739506Y-19758876D01*
X41259357Y-20536694D01*
X41252095Y-20541934D01*
X41243255Y-20540504D01*
X41240321Y-20537927D01*
X40605414Y-19756662D01*
X40602856Y-19748080D01*
X40604729Y-19742838D01*
X40921609Y-19263039D01*
X40923090Y-19261225D01*
X41004708Y-19179607D01*
X41012980Y-19176181D01*
X41020222Y-19178691D01*
G37*
%TD.AperFunction*%
%TD*%
%TA.AperFunction,Conductor*%
%TO.N,/ETROC1*%
G36*
X16704061Y-20477342D02*
G01*
X16782657Y-20555938D01*
X16786084Y-20564211D01*
X16785136Y-20568824D01*
X16635782Y-20916926D01*
X16629371Y-20923178D01*
X16620596Y-20923140D01*
X16423828Y-20842564D01*
X16417471Y-20836258D01*
X16336859Y-20639402D01*
X16336895Y-20630448D01*
X16343070Y-20624219D01*
X16691176Y-20474862D01*
X16700129Y-20474750D01*
X16704061Y-20477342D01*
G37*
%TD.AperFunction*%
%TD*%
%TA.AperFunction,Conductor*%
%TO.N,GND*%
G36*
X9785296Y-48299687D02*
G01*
X10724182Y-48611645D01*
X10730953Y-48617506D01*
X10731896Y-48625368D01*
X10568937Y-49334744D01*
X10563745Y-49342039D01*
X10561452Y-49343149D01*
X9992044Y-49545487D01*
X9983101Y-49545028D01*
X9977101Y-49538380D01*
X9976799Y-49537392D01*
X9660284Y-48313721D01*
X9661530Y-48304853D01*
X9668681Y-48299464D01*
X9671611Y-48299091D01*
X9781608Y-48299091D01*
X9785296Y-48299687D01*
G37*
%TD.AperFunction*%
%TD*%
%TA.AperFunction,Conductor*%
%TO.N,/V_{ref}*%
G36*
X6946455Y-34623427D02*
G01*
X6946996Y-34624005D01*
X7372816Y-35111771D01*
X7375675Y-35120258D01*
X7372283Y-35127731D01*
X6888280Y-35612702D01*
X6880011Y-35616137D01*
X6871734Y-35612718D01*
X6387716Y-35127731D01*
X6384297Y-35119454D01*
X6387182Y-35111772D01*
X6813003Y-34624005D01*
X6821027Y-34620027D01*
X6821818Y-34620000D01*
X6938182Y-34620000D01*
X6946455Y-34623427D01*
G37*
%TD.AperFunction*%
%TD*%
%TA.AperFunction,Conductor*%
%TO.N,Net-(U2-VSS)*%
G36*
X42008264Y-44507280D02*
G01*
X42281382Y-44780945D01*
X42492283Y-44992268D01*
X42495702Y-45000545D01*
X42492816Y-45008228D01*
X42066996Y-45495995D01*
X42058974Y-45499973D01*
X42058182Y-45500000D01*
X41941818Y-45500000D01*
X41933545Y-45496573D01*
X41933004Y-45495995D01*
X41507183Y-45008228D01*
X41504324Y-44999741D01*
X41507715Y-44992269D01*
X41991719Y-44507296D01*
X41999988Y-44503862D01*
X42008264Y-44507280D01*
G37*
%TD.AperFunction*%
%TD*%
%TA.AperFunction,Conductor*%
%TO.N,/LGAD1*%
G36*
X7698379Y-54966918D02*
G01*
X7701170Y-54968981D01*
X7780720Y-55048531D01*
X7784147Y-55056804D01*
X7783438Y-55060815D01*
X7524544Y-55770238D01*
X7521827Y-55774500D01*
X7508276Y-55788052D01*
X7457058Y-55888573D01*
X7439411Y-55999999D01*
X7439411Y-56000921D01*
X7439189Y-56000921D01*
X7438760Y-56005303D01*
X7354180Y-56237072D01*
X7348125Y-56243669D01*
X7339178Y-56244052D01*
X7338727Y-56243877D01*
X6755003Y-56003062D01*
X6748662Y-55996739D01*
X6748018Y-55994666D01*
X6603679Y-55310461D01*
X6605324Y-55301660D01*
X6611692Y-55296863D01*
X7689464Y-54966069D01*
X7698379Y-54966918D01*
G37*
%TD.AperFunction*%
%TD*%
%TA.AperFunction,Conductor*%
%TO.N,/ETROC4*%
G36*
X24651949Y-12737345D02*
G01*
X25026501Y-12833371D01*
X25034489Y-12835419D01*
X25041652Y-12840793D01*
X25042916Y-12849658D01*
X25042410Y-12851186D01*
X24962564Y-13046171D01*
X24956258Y-13052528D01*
X24956171Y-13052564D01*
X24757924Y-13133746D01*
X24748969Y-13133710D01*
X24743541Y-13129075D01*
X24695048Y-13050707D01*
X24560563Y-12833369D01*
X24559125Y-12824533D01*
X24562238Y-12818944D01*
X24640777Y-12740405D01*
X24649049Y-12736979D01*
X24651949Y-12737345D01*
G37*
%TD.AperFunction*%
%TD*%
%TA.AperFunction,Conductor*%
%TO.N,/DOUT*%
G36*
X11981598Y-44342515D02*
G01*
X11986387Y-44348037D01*
X12069105Y-44545479D01*
X12069141Y-44554434D01*
X12069105Y-44554521D01*
X11987615Y-44749032D01*
X11981258Y-44755338D01*
X11972303Y-44755302D01*
X11971009Y-44754664D01*
X11630022Y-44559370D01*
X11624546Y-44552284D01*
X11624137Y-44549217D01*
X11624137Y-44438119D01*
X11627564Y-44429846D01*
X11632980Y-44426773D01*
X11972741Y-44341212D01*
X11981598Y-44342515D01*
G37*
%TD.AperFunction*%
%TD*%
%TA.AperFunction,Conductor*%
%TO.N,/DOUT*%
G36*
X13369402Y-12986858D02*
G01*
X13566171Y-13067435D01*
X13572528Y-13073741D01*
X13572564Y-13073828D01*
X13653140Y-13270596D01*
X13653104Y-13279551D01*
X13646926Y-13285782D01*
X13298824Y-13435136D01*
X13289870Y-13435249D01*
X13285938Y-13432657D01*
X13207342Y-13354061D01*
X13203915Y-13345788D01*
X13204862Y-13341178D01*
X13354219Y-12993071D01*
X13360628Y-12986821D01*
X13369402Y-12986858D01*
G37*
%TD.AperFunction*%
%TD*%
%TA.AperFunction,Conductor*%
%TO.N,/CS_T3*%
G36*
X29686515Y-44304823D02*
G01*
X29690050Y-44313050D01*
X29690051Y-44313153D01*
X29690978Y-44525102D01*
X29687587Y-44533390D01*
X29687526Y-44533452D01*
X29537088Y-44682965D01*
X29528804Y-44686366D01*
X29520541Y-44682914D01*
X29520100Y-44682444D01*
X29301507Y-44436825D01*
X29298547Y-44429047D01*
X29298547Y-44318047D01*
X29301974Y-44309774D01*
X29310092Y-44306348D01*
X29678197Y-44301505D01*
X29686515Y-44304823D01*
G37*
%TD.AperFunction*%
%TD*%
%TA.AperFunction,Conductor*%
%TO.N,+5V*%
G36*
X12658023Y-55763917D02*
G01*
X12658615Y-55764184D01*
X12927160Y-55895378D01*
X13004768Y-55933293D01*
X13010697Y-55940004D01*
X13011332Y-55943806D01*
X13011332Y-56054988D01*
X13007905Y-56063261D01*
X13003234Y-56066120D01*
X12657736Y-56177932D01*
X12648810Y-56177219D01*
X12643343Y-56171321D01*
X12598071Y-56063261D01*
X12560893Y-55974520D01*
X12560858Y-55965566D01*
X12560894Y-55965479D01*
X12574378Y-55933293D01*
X12642711Y-55770186D01*
X12649068Y-55763881D01*
X12658023Y-55763917D01*
G37*
%TD.AperFunction*%
%TD*%
%TA.AperFunction,Conductor*%
%TO.N,GND*%
G36*
X2755339Y-10795877D02*
G01*
X3079273Y-11364838D01*
X3080388Y-11373723D01*
X3074900Y-11380791D01*
X2156194Y-11904538D01*
X2150399Y-11906074D01*
X2038178Y-11906074D01*
X2029905Y-11902647D01*
X2026478Y-11894396D01*
X2025478Y-11373723D01*
X2025014Y-11132463D01*
X2028425Y-11124185D01*
X2031760Y-11121843D01*
X2740222Y-10791064D01*
X2749167Y-10790670D01*
X2755339Y-10795877D01*
G37*
%TD.AperFunction*%
%TD*%
%TA.AperFunction,Conductor*%
%TO.N,/ETROC2*%
G36*
X18429551Y-20766895D02*
G01*
X18435782Y-20773073D01*
X18585136Y-21121175D01*
X18585249Y-21130129D01*
X18582657Y-21134061D01*
X18504061Y-21212657D01*
X18495788Y-21216084D01*
X18491175Y-21215136D01*
X18289153Y-21128458D01*
X18143072Y-21065781D01*
X18136821Y-21059371D01*
X18136858Y-21050597D01*
X18217436Y-20853826D01*
X18223740Y-20847471D01*
X18420597Y-20766859D01*
X18429551Y-20766895D01*
G37*
%TD.AperFunction*%
%TD*%
%TA.AperFunction,Conductor*%
%TO.N,+5V*%
G36*
X13100767Y-1893137D02*
G01*
X13106945Y-1899368D01*
X13189105Y-2095479D01*
X13189141Y-2104434D01*
X13189105Y-2104521D01*
X13106945Y-2300631D01*
X13100588Y-2306937D01*
X13091813Y-2306975D01*
X12740059Y-2166440D01*
X12733648Y-2160188D01*
X12732700Y-2155575D01*
X12732700Y-2044424D01*
X12736127Y-2036151D01*
X12740055Y-2033561D01*
X13091813Y-1893024D01*
X13100767Y-1893137D01*
G37*
%TD.AperFunction*%
%TD*%
%TA.AperFunction,Conductor*%
%TO.N,/DIN*%
G36*
X18629551Y-28836895D02*
G01*
X18635782Y-28843073D01*
X18785136Y-29191175D01*
X18785249Y-29200129D01*
X18782657Y-29204061D01*
X18704061Y-29282657D01*
X18695788Y-29286084D01*
X18691175Y-29285136D01*
X18489153Y-29198458D01*
X18343072Y-29135781D01*
X18336821Y-29129371D01*
X18336858Y-29120597D01*
X18417436Y-28923826D01*
X18423740Y-28917471D01*
X18620597Y-28836859D01*
X18629551Y-28836895D01*
G37*
%TD.AperFunction*%
%TD*%
%TA.AperFunction,Conductor*%
%TO.N,+5V*%
G36*
X33459400Y-1414886D02*
G01*
X33461336Y-1416564D01*
X33992817Y-1990769D01*
X33995922Y-1999169D01*
X33992241Y-2007245D01*
X33430127Y-2535247D01*
X33421751Y-2538413D01*
X33413589Y-2534729D01*
X33411814Y-2532264D01*
X33154900Y-2054900D01*
X33071996Y-1971996D01*
X33068569Y-1963723D01*
X33070643Y-1957073D01*
X33443125Y-1417861D01*
X33450645Y-1413003D01*
X33459400Y-1414886D01*
G37*
%TD.AperFunction*%
%TD*%
%TA.AperFunction,Conductor*%
%TO.N,+5V*%
G36*
X38103461Y-55539256D02*
G01*
X38697190Y-56233216D01*
X38700000Y-56240821D01*
X38700000Y-56355729D01*
X38696573Y-56364002D01*
X38692839Y-56366513D01*
X37954649Y-56677191D01*
X37945694Y-56677242D01*
X37940328Y-56672825D01*
X37504889Y-56008979D01*
X37503218Y-56000183D01*
X37507443Y-55993364D01*
X38087345Y-55537663D01*
X38095965Y-55535246D01*
X38103461Y-55539256D01*
G37*
%TD.AperFunction*%
%TD*%
%TA.AperFunction,Conductor*%
%TO.N,/ETROC4*%
G36*
X24511055Y-4100261D02*
G01*
X24514436Y-4107510D01*
X24547770Y-4487572D01*
X24548539Y-4496333D01*
X24545848Y-4504874D01*
X24537906Y-4509010D01*
X24536935Y-4509055D01*
X24325897Y-4509978D01*
X24317609Y-4506587D01*
X24317547Y-4506526D01*
X24315905Y-4504874D01*
X24167150Y-4355198D01*
X24163749Y-4346914D01*
X24166782Y-4339092D01*
X24383017Y-4100673D01*
X24391113Y-4096848D01*
X24391683Y-4096834D01*
X24502782Y-4096834D01*
X24511055Y-4100261D01*
G37*
%TD.AperFunction*%
%TD*%
%TA.AperFunction,Conductor*%
%TO.N,+5V*%
G36*
X12974414Y-55392502D02*
G01*
X12976767Y-55394580D01*
X12977769Y-55395739D01*
X13493748Y-55992657D01*
X13496566Y-56001157D01*
X13493352Y-56008395D01*
X12953378Y-56572912D01*
X12945183Y-56576522D01*
X12936836Y-56573280D01*
X12935589Y-56571880D01*
X12521232Y-56023024D01*
X12518983Y-56014357D01*
X12522297Y-56007703D01*
X12604901Y-55925100D01*
X12958188Y-55395737D01*
X12965630Y-55390760D01*
X12974414Y-55392502D01*
G37*
%TD.AperFunction*%
%TD*%
%TA.AperFunction,Conductor*%
%TO.N,/ETROC1*%
G36*
X19747673Y-18618230D02*
G01*
X20520132Y-18893981D01*
X20526771Y-18899990D01*
X20527217Y-18908934D01*
X20521208Y-18915573D01*
X20520132Y-18916019D01*
X19747673Y-19191769D01*
X19738729Y-19191323D01*
X19737920Y-19190900D01*
X19355881Y-18971871D01*
X19350408Y-18964783D01*
X19350000Y-18961721D01*
X19350000Y-18848278D01*
X19353427Y-18840005D01*
X19355879Y-18838129D01*
X19737920Y-18619098D01*
X19746801Y-18617957D01*
X19747673Y-18618230D01*
G37*
%TD.AperFunction*%
%TD*%
%TA.AperFunction,Conductor*%
%TO.N,/~{RESET}*%
G36*
X17354507Y-28920888D02*
G01*
X17550631Y-29003054D01*
X17556937Y-29009411D01*
X17556975Y-29018186D01*
X17416440Y-29369941D01*
X17410188Y-29376352D01*
X17405575Y-29377300D01*
X17294425Y-29377300D01*
X17286152Y-29373873D01*
X17283560Y-29369941D01*
X17143024Y-29018186D01*
X17143137Y-29009232D01*
X17149366Y-29003055D01*
X17345479Y-28920893D01*
X17354434Y-28920858D01*
X17354507Y-28920888D01*
G37*
%TD.AperFunction*%
%TD*%
%TA.AperFunction,Conductor*%
%TO.N,+5V*%
G36*
X8438522Y-33627045D02*
G01*
X8439019Y-33627487D01*
X9004209Y-34159310D01*
X9007886Y-34167475D01*
X9006312Y-34173701D01*
X8576881Y-34914170D01*
X8569766Y-34919607D01*
X8566760Y-34920000D01*
X8452093Y-34920000D01*
X8443820Y-34916573D01*
X8442988Y-34915648D01*
X8441795Y-34914170D01*
X7909268Y-34254268D01*
X7906740Y-34245679D01*
X7909409Y-34239404D01*
X8422040Y-33628485D01*
X8429981Y-33624353D01*
X8438522Y-33627045D01*
G37*
%TD.AperFunction*%
%TD*%
%TA.AperFunction,Conductor*%
%TO.N,/LGAD3*%
G36*
X4625185Y-3798358D02*
G01*
X4703687Y-3876860D01*
X4707114Y-3885133D01*
X4706793Y-3887854D01*
X4614420Y-4274219D01*
X4609164Y-4281468D01*
X4600320Y-4282877D01*
X4598607Y-4282325D01*
X4403828Y-4202564D01*
X4397471Y-4196258D01*
X4316185Y-3997758D01*
X4316222Y-3988803D01*
X4320676Y-3983488D01*
X4610579Y-3796793D01*
X4619388Y-3795196D01*
X4625185Y-3798358D01*
G37*
%TD.AperFunction*%
%TD*%
%TA.AperFunction,Conductor*%
%TO.N,+5V*%
G36*
X23068822Y-12674862D02*
G01*
X23416927Y-12824218D01*
X23423178Y-12830628D01*
X23423140Y-12839403D01*
X23342564Y-13036171D01*
X23336258Y-13042528D01*
X23336171Y-13042564D01*
X23139403Y-13123140D01*
X23130448Y-13123104D01*
X23124218Y-13116927D01*
X22974862Y-12768823D01*
X22974750Y-12759870D01*
X22977340Y-12755940D01*
X23055939Y-12677341D01*
X23064211Y-12673915D01*
X23068822Y-12674862D01*
G37*
%TD.AperFunction*%
%TD*%
%TA.AperFunction,Conductor*%
%TO.N,GND*%
G36*
X18159168Y-12967052D02*
G01*
X18165474Y-12973409D01*
X18165555Y-12973613D01*
X18303514Y-13329358D01*
X18303311Y-13338310D01*
X18300879Y-13341861D01*
X18222261Y-13420479D01*
X18213988Y-13423906D01*
X18209044Y-13422810D01*
X17872609Y-13265958D01*
X17866559Y-13259356D01*
X17866725Y-13250922D01*
X17947436Y-13053826D01*
X17953740Y-13047471D01*
X18150214Y-12967016D01*
X18159168Y-12967052D01*
G37*
%TD.AperFunction*%
%TD*%
%TA.AperFunction,Conductor*%
%TO.N,/CS_T1*%
G36*
X32458223Y-8594262D02*
G01*
X33002842Y-8869558D01*
X33008680Y-8876349D01*
X33008006Y-8885278D01*
X33002842Y-8890442D01*
X32458223Y-9165737D01*
X32449294Y-9166411D01*
X32447126Y-9165445D01*
X32065880Y-8946871D01*
X32060407Y-8939783D01*
X32060000Y-8936728D01*
X32060000Y-8823275D01*
X32063426Y-8815005D01*
X32065875Y-8813131D01*
X32447127Y-8594553D01*
X32456007Y-8593412D01*
X32458223Y-8594262D01*
G37*
%TD.AperFunction*%
%TD*%
%TA.AperFunction,Conductor*%
%TO.N,/LGAD3*%
G36*
X10433848Y-3366127D02*
G01*
X10436440Y-3370059D01*
X10576975Y-3721813D01*
X10576862Y-3730767D01*
X10570631Y-3736945D01*
X10374521Y-3819105D01*
X10365566Y-3819141D01*
X10365479Y-3819105D01*
X10169368Y-3736945D01*
X10163062Y-3730588D01*
X10163024Y-3721813D01*
X10303560Y-3370059D01*
X10309812Y-3363648D01*
X10314425Y-3362700D01*
X10425575Y-3362700D01*
X10433848Y-3366127D01*
G37*
%TD.AperFunction*%
%TD*%
%TA.AperFunction,Conductor*%
%TO.N,GND*%
G36*
X39407356Y-20029376D02*
G01*
X39985766Y-20744400D01*
X39988305Y-20752986D01*
X39984943Y-20760030D01*
X39902586Y-20842388D01*
X39409160Y-21338665D01*
X39400897Y-21342116D01*
X39392614Y-21338713D01*
X39391793Y-21337807D01*
X38756692Y-20558373D01*
X38754122Y-20549794D01*
X38758370Y-20541913D01*
X39390900Y-20027679D01*
X39399481Y-20025120D01*
X39407356Y-20029376D01*
G37*
%TD.AperFunction*%
%TD*%
%TA.AperFunction,Conductor*%
%TO.N,/CLK*%
G36*
X25703848Y-28456127D02*
G01*
X25706440Y-28460059D01*
X25846975Y-28811813D01*
X25846862Y-28820767D01*
X25840631Y-28826945D01*
X25644521Y-28909105D01*
X25635566Y-28909141D01*
X25635479Y-28909105D01*
X25439368Y-28826945D01*
X25433062Y-28820588D01*
X25433024Y-28811813D01*
X25573560Y-28460059D01*
X25579812Y-28453648D01*
X25584425Y-28452700D01*
X25695575Y-28452700D01*
X25703848Y-28456127D01*
G37*
%TD.AperFunction*%
%TD*%
%TA.AperFunction,Conductor*%
%TO.N,/CS_T3*%
G36*
X5754061Y-44187342D02*
G01*
X5832657Y-44265938D01*
X5836084Y-44274211D01*
X5835136Y-44278824D01*
X5685782Y-44626926D01*
X5679371Y-44633178D01*
X5670596Y-44633140D01*
X5473828Y-44552564D01*
X5467471Y-44546258D01*
X5386859Y-44349402D01*
X5386895Y-44340448D01*
X5393070Y-44334219D01*
X5741176Y-44184862D01*
X5750129Y-44184750D01*
X5754061Y-44187342D01*
G37*
%TD.AperFunction*%
%TD*%
%TA.AperFunction,Conductor*%
%TO.N,GND*%
G36*
X2153848Y-12596127D02*
G01*
X2156440Y-12600059D01*
X2296975Y-12951813D01*
X2296862Y-12960767D01*
X2290631Y-12966945D01*
X2094521Y-13049105D01*
X2085566Y-13049141D01*
X2085479Y-13049105D01*
X1889368Y-12966945D01*
X1883062Y-12960588D01*
X1883024Y-12951813D01*
X2023560Y-12600059D01*
X2029812Y-12593648D01*
X2034425Y-12592700D01*
X2145575Y-12592700D01*
X2153848Y-12596127D01*
G37*
%TD.AperFunction*%
%TD*%
%TA.AperFunction,Conductor*%
%TO.N,+5V*%
G36*
X38710767Y-56093137D02*
G01*
X38716945Y-56099368D01*
X38799105Y-56295479D01*
X38799141Y-56304434D01*
X38799105Y-56304521D01*
X38716945Y-56500631D01*
X38710588Y-56506937D01*
X38701813Y-56506975D01*
X38350059Y-56366440D01*
X38343648Y-56360188D01*
X38342700Y-56355575D01*
X38342700Y-56244424D01*
X38346127Y-56236151D01*
X38350055Y-56233561D01*
X38701813Y-56093024D01*
X38710767Y-56093137D01*
G37*
%TD.AperFunction*%
%TD*%
%TA.AperFunction,Conductor*%
%TO.N,GND*%
G36*
X22410598Y-44360067D02*
G01*
X22417813Y-44365370D01*
X22419166Y-44374222D01*
X22413863Y-44381438D01*
X22411342Y-44382581D01*
X20877875Y-44869087D01*
X20872042Y-44869408D01*
X20384405Y-44771881D01*
X20376965Y-44766898D01*
X20375000Y-44760408D01*
X20375000Y-44276769D01*
X20378427Y-44268496D01*
X20380869Y-44266626D01*
X20870933Y-43984906D01*
X20879553Y-43983688D01*
X22410598Y-44360067D01*
G37*
%TD.AperFunction*%
%TD*%
%TA.AperFunction,Conductor*%
%TO.N,/CLK*%
G36*
X25033848Y-44106127D02*
G01*
X25036440Y-44110059D01*
X25176975Y-44461813D01*
X25176862Y-44470767D01*
X25170631Y-44476945D01*
X24974521Y-44559105D01*
X24965566Y-44559141D01*
X24965479Y-44559105D01*
X24769368Y-44476945D01*
X24763062Y-44470588D01*
X24763024Y-44461813D01*
X24903560Y-44110059D01*
X24909812Y-44103648D01*
X24914425Y-44102700D01*
X25025575Y-44102700D01*
X25033848Y-44106127D01*
G37*
%TD.AperFunction*%
%TD*%
%TA.AperFunction,Conductor*%
%TO.N,/LGAD2*%
G36*
X27060475Y-55104511D02*
G01*
X27064067Y-55106961D01*
X27143038Y-55185932D01*
X27146465Y-55194205D01*
X27145657Y-55198478D01*
X26754346Y-56196025D01*
X26748135Y-56202475D01*
X26739181Y-56202644D01*
X26738995Y-56202569D01*
X26253795Y-56002562D01*
X26247452Y-55996241D01*
X26247437Y-55996204D01*
X26047430Y-55511004D01*
X26047445Y-55502049D01*
X26053788Y-55495728D01*
X26053917Y-55495675D01*
X27051524Y-55104342D01*
X27060475Y-55104511D01*
G37*
%TD.AperFunction*%
%TD*%
%TA.AperFunction,Conductor*%
%TO.N,Net-(U5-XTAL2)*%
G36*
X10661204Y-9911549D02*
G01*
X10920132Y-10003981D01*
X10926771Y-10009990D01*
X10927217Y-10018934D01*
X10921208Y-10025573D01*
X10920132Y-10026019D01*
X10147195Y-10301940D01*
X10138251Y-10301494D01*
X10138195Y-10301467D01*
X9756634Y-10118186D01*
X9750660Y-10111515D01*
X9750000Y-10107640D01*
X9750000Y-9922359D01*
X9753427Y-9914086D01*
X9756632Y-9911814D01*
X10138196Y-9728531D01*
X10147135Y-9728038D01*
X10661204Y-9911549D01*
G37*
%TD.AperFunction*%
%TD*%
%TA.AperFunction,Conductor*%
%TO.N,GND*%
G36*
X3710983Y-12944010D02*
G01*
X3717934Y-12949655D01*
X3719344Y-12955223D01*
X3719344Y-13066390D01*
X3715917Y-13074663D01*
X3713032Y-13076775D01*
X3368773Y-13255396D01*
X3359852Y-13256165D01*
X3353000Y-13250399D01*
X3352594Y-13249532D01*
X3270894Y-13054521D01*
X3270858Y-13045566D01*
X3270894Y-13045479D01*
X3353441Y-12848445D01*
X3359798Y-12842139D01*
X3367569Y-12841753D01*
X3710983Y-12944010D01*
G37*
%TD.AperFunction*%
%TD*%
%TA.AperFunction,Conductor*%
%TO.N,/LGAD4*%
G36*
X27724061Y-3507342D02*
G01*
X27802657Y-3585938D01*
X27806084Y-3594211D01*
X27805136Y-3598824D01*
X27655782Y-3946926D01*
X27649371Y-3953178D01*
X27640596Y-3953140D01*
X27443828Y-3872564D01*
X27437471Y-3866258D01*
X27356859Y-3669402D01*
X27356895Y-3660448D01*
X27363070Y-3654219D01*
X27711176Y-3504862D01*
X27720129Y-3504750D01*
X27724061Y-3507342D01*
G37*
%TD.AperFunction*%
%TD*%
%TA.AperFunction,Conductor*%
%TO.N,/~{RESET}*%
G36*
X9134061Y-20477342D02*
G01*
X9212657Y-20555938D01*
X9216084Y-20564211D01*
X9215136Y-20568824D01*
X9065782Y-20916926D01*
X9059371Y-20923178D01*
X9050596Y-20923140D01*
X8853828Y-20842564D01*
X8847471Y-20836258D01*
X8766859Y-20639402D01*
X8766895Y-20630448D01*
X8773070Y-20624219D01*
X9121176Y-20474862D01*
X9130129Y-20474750D01*
X9134061Y-20477342D01*
G37*
%TD.AperFunction*%
%TD*%
%TA.AperFunction,Conductor*%
%TO.N,GND*%
G36*
X6434520Y-29200894D02*
G01*
X6545063Y-29247205D01*
X6630631Y-29283054D01*
X6636937Y-29289411D01*
X6636975Y-29298186D01*
X6496440Y-29649941D01*
X6490188Y-29656352D01*
X6485575Y-29657300D01*
X6374425Y-29657300D01*
X6366152Y-29653873D01*
X6363560Y-29649941D01*
X6223024Y-29298186D01*
X6223137Y-29289232D01*
X6229366Y-29283055D01*
X6425479Y-29200893D01*
X6434433Y-29200858D01*
X6434520Y-29200894D01*
G37*
%TD.AperFunction*%
%TD*%
%TA.AperFunction,Conductor*%
%TO.N,+5V*%
G36*
X21438334Y-11075860D02*
G01*
X21440090Y-11077182D01*
X21737523Y-11348515D01*
X21741326Y-11356623D01*
X21738282Y-11365044D01*
X21737911Y-11365432D01*
X21658381Y-11444962D01*
X21654678Y-11447460D01*
X21361610Y-11571796D01*
X21353097Y-11572040D01*
X20728693Y-11348515D01*
X20586352Y-11297559D01*
X20579719Y-11291546D01*
X20579281Y-11282602D01*
X20585295Y-11275968D01*
X20587580Y-11275164D01*
X21429492Y-11074445D01*
X21438334Y-11075860D01*
G37*
%TD.AperFunction*%
%TD*%
M02*
