M48
; DRILL file {KiCad 9.0.0} date 2025-05-12T15:29:51-0400
; FORMAT={-:-/ absolute / metric / decimal}
; #@! TF.CreationDate,2025-05-12T15:29:51-04:00
; #@! TF.GenerationSoftware,Kicad,Pcbnew,9.0.0
; #@! TF.FileFunction,Plated,1,4,PTH
FMAT,2
METRIC
; #@! TA.AperFunction,Plated,PTH,ViaDrill
T1C0.254
%
G90
G05
T1
X1.0Y-6.95
X1.0Y-50.7
X1.0Y-51.8
X1.037Y-5.753
X1.44Y-2.59
X1.65Y-50.7
X1.65Y-51.8
X1.682Y-5.753
X1.7Y-6.95
X2.09Y-13.05
X3.05Y-53.37
X3.27Y-13.05
X3.8Y-44.57
X3.83Y-54.33
X4.08Y-2.48
X4.34Y-52.33
X4.41Y-3.99
X5.29Y-3.8
X5.47Y-44.55
X5.77Y-53.33
X5.81Y-36.77
X6.14Y-4.2
X6.41Y-52.879
X6.43Y-29.2
X6.79Y-44.55
X6.8Y-54.9
X7.13Y-2.09
X7.8Y-56.0
X7.81Y-20.84
X7.9Y-4.2
X7.965Y-13.055
X8.46Y-28.39
X8.58Y-53.33
X8.85Y-20.84
X9.07Y-36.74
X9.13Y-13.05
X9.3Y-4.13
X10.3Y-55.92
X10.37Y-3.82
X10.7Y-53.31
X11.47Y-36.75
X11.48Y-3.83
X12.01Y-28.98
X12.07Y-44.55
X12.56Y-55.97
X12.59Y-13.04
X13.19Y-2.1
X13.23Y-3.86
X13.57Y-13.07
X13.72Y-20.84
X14.14Y-53.75
X14.62Y-20.85
X14.67Y-4.8
X15.52Y-20.84
X15.57Y-28.97
X16.28Y-53.34
X16.42Y-20.84
X16.55Y-4.3
X16.86Y-44.55
X16.96Y-36.75
X17.27Y-53.33
X17.32Y-20.84
X17.35Y-28.92
X17.49Y-44.54
X17.52Y-5.35
X17.82Y-36.74
X17.95Y-13.05
X18.07Y-53.32
X18.15Y-44.54
X18.22Y-20.85
X18.42Y-28.92
X18.56Y-3.5
X18.64Y-36.75
X18.79Y-44.54
X19.18Y-4.37
X19.42Y-44.55
X19.46Y-36.74
X19.75Y-55.0
X20.574Y-28.45
X21.28Y-53.03
X22.26Y-4.37
X22.36Y-13.05
X23.24Y-20.83
X23.24Y-28.43
X23.34Y-13.04
X24.321Y-4.509
X24.49Y-53.37
X24.96Y-13.05
X24.97Y-44.56
X25.18Y-20.879
X25.64Y-28.91
X25.7Y-52.7
X26.13Y-3.81
X26.31Y-13.05
X26.52Y-20.879
X26.63Y-52.11
X26.97Y-3.58
X27.29Y-53.27
X27.81Y-4.17
X28.05Y-52.8
X29.36Y-5.47
X29.56Y-4.17
X29.69Y-44.53
X29.86Y-36.74
X30.25Y-54.71
X30.38Y-5.51
X30.48Y-28.95
X30.57Y-52.44
X31.51Y-52.5
X31.95Y-4.16
X32.79Y-36.76
X33.11Y-2.01
X34.22Y-13.011
X34.5Y-55.2
X34.5Y-56.3
X35.35Y-53.36
X35.45Y-4.18
X36.54Y-4.36
X37.13Y-2.0
X37.86Y-13.05
X38.03Y-52.88
X38.15Y-4.25
X38.8Y-56.3
X38.84Y-52.86
X39.52Y-53.54
X39.82Y-13.011
X40.15Y-4.9
X40.27Y-2.92
X41.21Y-5.44
X42.3Y-54.4
X42.63Y-52.74
M30
