%TF.GenerationSoftware,KiCad,Pcbnew,7.0.7*%
%TF.CreationDate,2024-12-12T20:45:32-05:00*%
%TF.ProjectId,design-files_TM,64657369-676e-42d6-9669-6c65735f544d,rev?*%
%TF.SameCoordinates,Original*%
%TF.FileFunction,Copper,L3,Inr*%
%TF.FilePolarity,Positive*%
%FSLAX46Y46*%
G04 Gerber Fmt 4.6, Leading zero omitted, Abs format (unit mm)*
G04 Created by KiCad (PCBNEW 7.0.7) date 2024-12-12 20:45:32*
%MOMM*%
%LPD*%
G01*
G04 APERTURE LIST*
%TA.AperFunction,ViaPad*%
%ADD10C,0.457300*%
%TD*%
%TA.AperFunction,Conductor*%
%ADD11C,0.127000*%
%TD*%
G04 APERTURE END LIST*
D10*
%TO.N,+5V*%
X13190000Y-2100000D03*
X18640000Y-36750000D03*
X37130000Y-2000000D03*
X15570000Y-28970000D03*
X26180000Y-20850000D03*
X13150000Y-3880000D03*
X12560000Y-55970000D03*
X7970000Y-3970000D03*
X16960000Y-36750000D03*
X17820000Y-36740000D03*
X41650000Y-5340000D03*
X9800000Y-52040000D03*
X7965000Y-13055000D03*
X38800000Y-56300000D03*
X9070000Y-36740000D03*
X11470000Y-36750000D03*
X7800000Y-56000000D03*
X19460000Y-36740000D03*
X7130000Y-2090000D03*
X23340000Y-13040000D03*
X34500000Y-56300000D03*
X12010000Y-28980000D03*
X39800000Y-13050000D03*
X33110000Y-2010000D03*
%TO.N,/~{RESET}*%
X17350000Y-28920000D03*
X8850000Y-20840000D03*
%TO.N,VCC*%
X1037329Y-5752873D03*
X1682329Y-5752873D03*
X1000000Y-6950000D03*
X1700000Y-6950000D03*
%TO.N,/DOUT*%
X29860000Y-36740000D03*
X12070000Y-44550000D03*
X31620000Y-5400000D03*
X30480000Y-28950000D03*
X13570000Y-13070000D03*
X23240000Y-28430000D03*
%TO.N,/DIN*%
X18420000Y-28920000D03*
X12590000Y-13040000D03*
%TO.N,/CLK*%
X32790000Y-36760000D03*
X25640000Y-28910000D03*
X7810000Y-20840000D03*
X6790000Y-44550000D03*
X30150000Y-13040000D03*
X24970000Y-44560000D03*
%TO.N,GND*%
X3830000Y-54330000D03*
X20574000Y-28450000D03*
X3270000Y-13050000D03*
X16550000Y-4300000D03*
X36070000Y-5410000D03*
X38150000Y-4250000D03*
X12030000Y-52030000D03*
X25700000Y-52700000D03*
X17490000Y-44540000D03*
X16860000Y-44550000D03*
X2090000Y-13050000D03*
X18790000Y-44540000D03*
X27600000Y-53100000D03*
X8460000Y-28390000D03*
X24220000Y-20850000D03*
X9181842Y-28390000D03*
X9130000Y-13050000D03*
X7470000Y-28870000D03*
X19420000Y-44550000D03*
X5810000Y-36770000D03*
X41350000Y-13050000D03*
X40150000Y-4900000D03*
X6020000Y-53330000D03*
X9250000Y-4020000D03*
X18540000Y-4830000D03*
X5900000Y-3850000D03*
X6430000Y-29200000D03*
X40000000Y-20850000D03*
X17950000Y-13050000D03*
X22360000Y-13050000D03*
X18150000Y-44540000D03*
X6530000Y-28450000D03*
%TO.N,Net-(JMPR1-Pad1)*%
X1000000Y-51800000D03*
X1650000Y-50700000D03*
X1000000Y-50700000D03*
X1650000Y-51800000D03*
%TO.N,/LGAD1*%
X15520000Y-20840000D03*
X17850000Y-53350000D03*
X6800000Y-54900000D03*
%TO.N,/ETROC1*%
X10300000Y-55920000D03*
X19750000Y-55000000D03*
X16420000Y-20840000D03*
%TO.N,/CS_T1*%
X30880000Y-5370000D03*
X27570000Y-20870000D03*
%TO.N,/CS_T3*%
X5470000Y-44550000D03*
X29690000Y-44530000D03*
%TO.N,/2.5V*%
X33100000Y-20850000D03*
X22900000Y-20840000D03*
%TO.N,/LGAD2*%
X39600000Y-53400000D03*
X30250000Y-54710000D03*
X17320000Y-20840000D03*
%TO.N,/ETROC2*%
X18220000Y-20850000D03*
X34500000Y-55200000D03*
X42300000Y-54400000D03*
%TO.N,/LGAD3*%
X4400000Y-4200000D03*
X13720000Y-20840000D03*
X10370000Y-3820000D03*
%TO.N,/ETROC3*%
X1500000Y-3250000D03*
X11480000Y-3830000D03*
X14620000Y-20850000D03*
%TO.N,/LGAD4*%
X26310000Y-13050000D03*
X27440000Y-3870000D03*
%TO.N,/ETROC4*%
X24960000Y-13050000D03*
X24321000Y-4509000D03*
%TO.N,TP+*%
X24310000Y-52720000D03*
X18790000Y-3320000D03*
X3060000Y-52740000D03*
X42450000Y-3750000D03*
%TO.N,Net-(U1-VSS)*%
X21300000Y-52500000D03*
%TO.N,Net-(U2-VSS)*%
X42900000Y-52700000D03*
%TO.N,Net-(U3-VSS)*%
X900000Y-4400000D03*
%TO.N,Net-(U4-VSS)*%
X22300000Y-4000000D03*
%TD*%
D11*
%TO.N,/~{RESET}*%
X9060000Y-20840000D02*
X8850000Y-20840000D01*
X17140000Y-28920000D02*
X9060000Y-20840000D01*
X17350000Y-28920000D02*
X17140000Y-28920000D01*
%TO.N,/DOUT*%
X18740000Y-37950000D02*
X12140000Y-44550000D01*
X30480000Y-28950000D02*
X29410000Y-27880000D01*
X28650000Y-37950000D02*
X18740000Y-37950000D01*
X29860000Y-36740000D02*
X28650000Y-37950000D01*
X23169150Y-28490850D02*
X22360000Y-29300000D01*
X12140000Y-44550000D02*
X12070000Y-44550000D01*
X19920000Y-29300000D02*
X11880000Y-21260000D01*
X22360000Y-29300000D02*
X19920000Y-29300000D01*
X29410000Y-27880000D02*
X23790000Y-27880000D01*
X11880000Y-14760000D02*
X13570000Y-13070000D01*
X23790000Y-27880000D02*
X23240000Y-28430000D01*
X11880000Y-21260000D02*
X11880000Y-14760000D01*
%TO.N,/DIN*%
X11100000Y-21600000D02*
X11100000Y-14530000D01*
X11100000Y-14530000D02*
X12590000Y-13040000D01*
X18420000Y-28920000D02*
X11100000Y-21600000D01*
%TO.N,/CLK*%
X34130000Y-35400000D02*
X34130000Y-17018000D01*
X6790000Y-44580000D02*
X6790000Y-44520000D01*
X24970000Y-44560000D02*
X24970000Y-44580000D01*
X33172000Y-16060000D02*
X34130000Y-17018000D01*
X24970000Y-44580000D02*
X23810000Y-45740000D01*
X8180000Y-20840000D02*
X7810000Y-20840000D01*
X24850000Y-29700000D02*
X17040000Y-29700000D01*
X33170000Y-16060000D02*
X30150000Y-13040000D01*
X17040000Y-29700000D02*
X8180000Y-20840000D01*
X33170000Y-16060000D02*
X33172000Y-16060000D01*
X24970000Y-44540000D02*
X24970000Y-44560000D01*
X23810000Y-45740000D02*
X7950000Y-45740000D01*
X32770000Y-36760000D02*
X32790000Y-36760000D01*
X32790000Y-36740000D02*
X34130000Y-35400000D01*
X7950000Y-45740000D02*
X6790000Y-44580000D01*
X24970000Y-44540000D02*
X24970000Y-44540000D01*
X25640000Y-28910000D02*
X24850000Y-29700000D01*
X32790000Y-36760000D02*
X32790000Y-36740000D01*
%TO.N,/CS_T3*%
X29690000Y-44540000D02*
X27890000Y-46340000D01*
X29690000Y-44530000D02*
X29690000Y-44540000D01*
X7260000Y-46340000D02*
X5470000Y-44550000D01*
X27890000Y-46340000D02*
X7260000Y-46340000D01*
%TO.N,/2.5V*%
X24410000Y-19330000D02*
X31580000Y-19330000D01*
X31580000Y-19330000D02*
X33100000Y-20850000D01*
X22900000Y-20840000D02*
X24410000Y-19330000D01*
%TD*%
%TA.AperFunction,Conductor*%
%TO.N,/~{RESET}*%
G36*
X9019600Y-20686942D02*
G01*
X9019902Y-20687258D01*
X9274539Y-20964075D01*
X9277618Y-20972484D01*
X9274201Y-20980269D01*
X9195669Y-21058801D01*
X9187619Y-21062226D01*
X8861886Y-21068423D01*
X8853549Y-21065154D01*
X8849965Y-21056948D01*
X8849963Y-21056761D01*
X8849727Y-20980269D01*
X8849308Y-20844189D01*
X8852708Y-20835907D01*
X9003055Y-20686869D01*
X9011342Y-20683479D01*
X9019600Y-20686942D01*
G37*
%TD.AperFunction*%
%TD*%
%TA.AperFunction,Conductor*%
%TO.N,/2.5V*%
G36*
X23184061Y-20477342D02*
G01*
X23262657Y-20555938D01*
X23266084Y-20564211D01*
X23265136Y-20568824D01*
X23115782Y-20916926D01*
X23109371Y-20923178D01*
X23100596Y-20923140D01*
X22903828Y-20842564D01*
X22897471Y-20836258D01*
X22816859Y-20639402D01*
X22816895Y-20630448D01*
X22823070Y-20624219D01*
X23171176Y-20474862D01*
X23180129Y-20474750D01*
X23184061Y-20477342D01*
G37*
%TD.AperFunction*%
%TD*%
%TA.AperFunction,Conductor*%
%TO.N,/CLK*%
G36*
X30359551Y-12956895D02*
G01*
X30365782Y-12963073D01*
X30515136Y-13311175D01*
X30515249Y-13320129D01*
X30512657Y-13324061D01*
X30434061Y-13402657D01*
X30425788Y-13406084D01*
X30421175Y-13405136D01*
X30219153Y-13318458D01*
X30073072Y-13255781D01*
X30066821Y-13249371D01*
X30066858Y-13240597D01*
X30147436Y-13043826D01*
X30153740Y-13037471D01*
X30350597Y-12956859D01*
X30359551Y-12956895D01*
G37*
%TD.AperFunction*%
%TD*%
%TA.AperFunction,Conductor*%
%TO.N,/CS_T3*%
G36*
X29686171Y-44527435D02*
G01*
X29692528Y-44533741D01*
X29692564Y-44533828D01*
X29773206Y-44730758D01*
X29773170Y-44739713D01*
X29767156Y-44745872D01*
X29424890Y-44898976D01*
X29415939Y-44899226D01*
X29411840Y-44896569D01*
X29333231Y-44817960D01*
X29329804Y-44809687D01*
X29330672Y-44805265D01*
X29474329Y-44453340D01*
X29480627Y-44446978D01*
X29489580Y-44446932D01*
X29686171Y-44527435D01*
G37*
%TD.AperFunction*%
%TD*%
%TA.AperFunction,Conductor*%
%TO.N,/CLK*%
G36*
X24769771Y-44477010D02*
G01*
X24966171Y-44557435D01*
X24972528Y-44563741D01*
X24972564Y-44563828D01*
X25053273Y-44760920D01*
X25053237Y-44769875D01*
X25047390Y-44775958D01*
X24710955Y-44932810D01*
X24702009Y-44933200D01*
X24697738Y-44930479D01*
X24619120Y-44851861D01*
X24615693Y-44843588D01*
X24616484Y-44839361D01*
X24754445Y-44483611D01*
X24760630Y-44477138D01*
X24769582Y-44476935D01*
X24769771Y-44477010D01*
G37*
%TD.AperFunction*%
%TD*%
%TA.AperFunction,Conductor*%
%TO.N,/CLK*%
G36*
X33062261Y-36389520D02*
G01*
X33140879Y-36468138D01*
X33144306Y-36476411D01*
X33143514Y-36480641D01*
X33005555Y-36836386D01*
X32999369Y-36842861D01*
X32990417Y-36843064D01*
X32990213Y-36842983D01*
X32793828Y-36762564D01*
X32787471Y-36756258D01*
X32706726Y-36559077D01*
X32706762Y-36550124D01*
X32712608Y-36544041D01*
X33049045Y-36387188D01*
X33057990Y-36386799D01*
X33062261Y-36389520D01*
G37*
%TD.AperFunction*%
%TD*%
%TA.AperFunction,Conductor*%
%TO.N,GND*%
G36*
X21368815Y-399806D02*
G01*
X21387121Y-444000D01*
X21368815Y-488194D01*
X21360469Y-495197D01*
X21210859Y-599953D01*
X21049953Y-760859D01*
X20919431Y-947266D01*
X20823260Y-1153505D01*
X20823259Y-1153507D01*
X20764367Y-1373295D01*
X20764364Y-1373311D01*
X20744532Y-1599997D01*
X20744532Y-1600002D01*
X20764364Y-1826688D01*
X20764367Y-1826704D01*
X20823259Y-2046492D01*
X20823260Y-2046494D01*
X20919431Y-2252733D01*
X21049953Y-2439140D01*
X21210859Y-2600046D01*
X21278674Y-2647530D01*
X21397266Y-2730568D01*
X21397265Y-2730568D01*
X21456840Y-2758348D01*
X21603504Y-2826739D01*
X21603506Y-2826739D01*
X21603507Y-2826740D01*
X21823295Y-2885632D01*
X21823301Y-2885633D01*
X21823308Y-2885635D01*
X21993216Y-2900500D01*
X22106784Y-2900500D01*
X22276692Y-2885635D01*
X22276701Y-2885632D01*
X22276704Y-2885632D01*
X22496492Y-2826740D01*
X22496491Y-2826740D01*
X22496496Y-2826739D01*
X22702734Y-2730568D01*
X22889139Y-2600047D01*
X23050047Y-2439139D01*
X23180568Y-2252734D01*
X23276739Y-2046496D01*
X23286518Y-2010000D01*
X32368186Y-2010000D01*
X32386784Y-2175067D01*
X32441651Y-2331866D01*
X32441652Y-2331867D01*
X32530024Y-2472511D01*
X32647488Y-2589975D01*
X32788132Y-2678347D01*
X32788133Y-2678348D01*
X32788135Y-2678348D01*
X32788139Y-2678351D01*
X32944931Y-2733215D01*
X33110000Y-2751814D01*
X33275069Y-2733215D01*
X33431861Y-2678351D01*
X33572513Y-2589974D01*
X33689974Y-2472513D01*
X33778351Y-2331861D01*
X33833215Y-2175069D01*
X33851814Y-2010000D01*
X33850687Y-2000000D01*
X36388186Y-2000000D01*
X36406784Y-2165067D01*
X36461651Y-2321866D01*
X36461652Y-2321867D01*
X36550024Y-2462511D01*
X36667488Y-2579975D01*
X36808132Y-2668347D01*
X36808133Y-2668348D01*
X36808135Y-2668348D01*
X36808139Y-2668351D01*
X36964931Y-2723215D01*
X37130000Y-2741814D01*
X37295069Y-2723215D01*
X37451861Y-2668351D01*
X37592513Y-2579974D01*
X37709974Y-2462513D01*
X37798351Y-2321861D01*
X37853215Y-2165069D01*
X37871814Y-2000000D01*
X37853215Y-1834931D01*
X37798351Y-1678139D01*
X37798348Y-1678135D01*
X37798348Y-1678133D01*
X37798347Y-1678132D01*
X37709975Y-1537488D01*
X37592511Y-1420024D01*
X37451867Y-1331652D01*
X37451866Y-1331651D01*
X37451861Y-1331649D01*
X37380550Y-1306696D01*
X37295067Y-1276784D01*
X37130000Y-1258186D01*
X36964932Y-1276784D01*
X36808133Y-1331651D01*
X36808132Y-1331652D01*
X36667488Y-1420024D01*
X36550024Y-1537488D01*
X36461652Y-1678132D01*
X36461651Y-1678133D01*
X36406784Y-1834932D01*
X36388186Y-2000000D01*
X33850687Y-2000000D01*
X33833215Y-1844931D01*
X33778351Y-1688139D01*
X33778348Y-1688135D01*
X33778348Y-1688133D01*
X33778347Y-1688132D01*
X33689975Y-1547488D01*
X33572511Y-1430024D01*
X33431867Y-1341652D01*
X33431866Y-1341651D01*
X33431861Y-1341649D01*
X33360550Y-1316696D01*
X33275067Y-1286784D01*
X33110000Y-1268186D01*
X32944932Y-1286784D01*
X32788133Y-1341651D01*
X32788132Y-1341652D01*
X32647488Y-1430024D01*
X32530024Y-1547488D01*
X32441652Y-1688132D01*
X32441651Y-1688133D01*
X32386784Y-1844932D01*
X32368186Y-2010000D01*
X23286518Y-2010000D01*
X23333427Y-1834932D01*
X23335632Y-1826704D01*
X23335632Y-1826701D01*
X23335635Y-1826692D01*
X23355468Y-1600000D01*
X23335635Y-1373308D01*
X23333887Y-1366785D01*
X23276740Y-1153507D01*
X23276739Y-1153505D01*
X23180568Y-947266D01*
X23050046Y-760859D01*
X22889140Y-599953D01*
X22739531Y-495197D01*
X22713829Y-454853D01*
X22724182Y-408152D01*
X22764526Y-382450D01*
X22775379Y-381500D01*
X43656000Y-381500D01*
X43700194Y-399806D01*
X43718500Y-444000D01*
X43718500Y-52439391D01*
X43700194Y-52483585D01*
X43656000Y-52501891D01*
X43611806Y-52483585D01*
X43597007Y-52460034D01*
X43589784Y-52439391D01*
X43568351Y-52378139D01*
X43568348Y-52378135D01*
X43568348Y-52378133D01*
X43568347Y-52378132D01*
X43479975Y-52237488D01*
X43362511Y-52120024D01*
X43221867Y-52031652D01*
X43221866Y-52031651D01*
X43221861Y-52031649D01*
X43150550Y-52006696D01*
X43065067Y-51976784D01*
X42900000Y-51958186D01*
X42734932Y-51976784D01*
X42578133Y-52031651D01*
X42578132Y-52031652D01*
X42437488Y-52120024D01*
X42320024Y-52237488D01*
X42231652Y-52378132D01*
X42231651Y-52378133D01*
X42176784Y-52534932D01*
X42158186Y-52700000D01*
X42176784Y-52865067D01*
X42200727Y-52933491D01*
X42210881Y-52962511D01*
X42231651Y-53021866D01*
X42231652Y-53021867D01*
X42320024Y-53162511D01*
X42437488Y-53279975D01*
X42578132Y-53368347D01*
X42578133Y-53368348D01*
X42578135Y-53368348D01*
X42578139Y-53368351D01*
X42734931Y-53423215D01*
X42900000Y-53441814D01*
X43065069Y-53423215D01*
X43221861Y-53368351D01*
X43362513Y-53279974D01*
X43479974Y-53162513D01*
X43568351Y-53021861D01*
X43597008Y-52939963D01*
X43628883Y-52904297D01*
X43676643Y-52901615D01*
X43712311Y-52933491D01*
X43718500Y-52960608D01*
X43718500Y-57056000D01*
X43700194Y-57100194D01*
X43656000Y-57118500D01*
X39060608Y-57118500D01*
X39016414Y-57100194D01*
X38998108Y-57056000D01*
X39016414Y-57011806D01*
X39039962Y-56997008D01*
X39121861Y-56968351D01*
X39262513Y-56879974D01*
X39379974Y-56762513D01*
X39468351Y-56621861D01*
X39523215Y-56465069D01*
X39541814Y-56300000D01*
X39523215Y-56134931D01*
X39468351Y-55978139D01*
X39468348Y-55978135D01*
X39468348Y-55978133D01*
X39468347Y-55978132D01*
X39379975Y-55837488D01*
X39262511Y-55720024D01*
X39121867Y-55631652D01*
X39121866Y-55631651D01*
X39121861Y-55631649D01*
X39008028Y-55591817D01*
X38965067Y-55576784D01*
X38800000Y-55558186D01*
X38634932Y-55576784D01*
X38478133Y-55631651D01*
X38478132Y-55631652D01*
X38337488Y-55720024D01*
X38220024Y-55837488D01*
X38131652Y-55978132D01*
X38131651Y-55978133D01*
X38076784Y-56134932D01*
X38058186Y-56299999D01*
X38076784Y-56465067D01*
X38076785Y-56465069D01*
X38116992Y-56579975D01*
X38131651Y-56621866D01*
X38131652Y-56621867D01*
X38220024Y-56762511D01*
X38337488Y-56879975D01*
X38478132Y-56968347D01*
X38478133Y-56968348D01*
X38478135Y-56968348D01*
X38478139Y-56968351D01*
X38560036Y-56997008D01*
X38595703Y-57028883D01*
X38598385Y-57076643D01*
X38566509Y-57112311D01*
X38539392Y-57118500D01*
X34760608Y-57118500D01*
X34716414Y-57100194D01*
X34698108Y-57056000D01*
X34716414Y-57011806D01*
X34739962Y-56997008D01*
X34821861Y-56968351D01*
X34962513Y-56879974D01*
X35079974Y-56762513D01*
X35168351Y-56621861D01*
X35223215Y-56465069D01*
X35241814Y-56300000D01*
X35223215Y-56134931D01*
X35168351Y-55978139D01*
X35168348Y-55978135D01*
X35168348Y-55978133D01*
X35168347Y-55978132D01*
X35079976Y-55837490D01*
X35079975Y-55837489D01*
X35079974Y-55837487D01*
X35036680Y-55794193D01*
X35018375Y-55749998D01*
X35036679Y-55705807D01*
X35079974Y-55662513D01*
X35168351Y-55521861D01*
X35223215Y-55365069D01*
X35241814Y-55200000D01*
X35223215Y-55034931D01*
X35168351Y-54878139D01*
X35168348Y-54878135D01*
X35168348Y-54878133D01*
X35168347Y-54878132D01*
X35079975Y-54737488D01*
X34962511Y-54620024D01*
X34821867Y-54531652D01*
X34821866Y-54531651D01*
X34821861Y-54531649D01*
X34750550Y-54506696D01*
X34665067Y-54476784D01*
X34500000Y-54458186D01*
X34334932Y-54476784D01*
X34178133Y-54531651D01*
X34178132Y-54531652D01*
X34037488Y-54620024D01*
X33920024Y-54737488D01*
X33831652Y-54878132D01*
X33831651Y-54878133D01*
X33776784Y-55034932D01*
X33758186Y-55200000D01*
X33776784Y-55365067D01*
X33785517Y-55390024D01*
X33826619Y-55507487D01*
X33831651Y-55521866D01*
X33831652Y-55521867D01*
X33920024Y-55662511D01*
X33963319Y-55705806D01*
X33981625Y-55750000D01*
X33963319Y-55794194D01*
X33920025Y-55837487D01*
X33920024Y-55837488D01*
X33831652Y-55978132D01*
X33831651Y-55978133D01*
X33776784Y-56134932D01*
X33758186Y-56300000D01*
X33776784Y-56465067D01*
X33776785Y-56465069D01*
X33816992Y-56579975D01*
X33831651Y-56621866D01*
X33831652Y-56621867D01*
X33920024Y-56762511D01*
X34037488Y-56879975D01*
X34178132Y-56968347D01*
X34178133Y-56968348D01*
X34178135Y-56968348D01*
X34178139Y-56968351D01*
X34260036Y-56997008D01*
X34295703Y-57028883D01*
X34298385Y-57076643D01*
X34266509Y-57112311D01*
X34239392Y-57118500D01*
X22775379Y-57118500D01*
X22731185Y-57100194D01*
X22712879Y-57056000D01*
X22731185Y-57011806D01*
X22739531Y-57004803D01*
X22889140Y-56900046D01*
X23050046Y-56739140D01*
X23069180Y-56711814D01*
X23180568Y-56552734D01*
X23276739Y-56346496D01*
X23325353Y-56165067D01*
X23335632Y-56126704D01*
X23335632Y-56126701D01*
X23335635Y-56126692D01*
X23355468Y-55900000D01*
X23335635Y-55673308D01*
X23332741Y-55662509D01*
X23276740Y-55453507D01*
X23276739Y-55453505D01*
X23275950Y-55451814D01*
X23180568Y-55247266D01*
X23165310Y-55225475D01*
X23050046Y-55060859D01*
X22889140Y-54899953D01*
X22770547Y-54816915D01*
X22702734Y-54769432D01*
X22702732Y-54769431D01*
X22702734Y-54769431D01*
X22575283Y-54710000D01*
X29508186Y-54710000D01*
X29526784Y-54875067D01*
X29581651Y-55031866D01*
X29581652Y-55031867D01*
X29670024Y-55172511D01*
X29787488Y-55289975D01*
X29928132Y-55378347D01*
X29928133Y-55378348D01*
X29928135Y-55378348D01*
X29928139Y-55378351D01*
X30084931Y-55433215D01*
X30250000Y-55451814D01*
X30415069Y-55433215D01*
X30571861Y-55378351D01*
X30712513Y-55289974D01*
X30829974Y-55172513D01*
X30918351Y-55031861D01*
X30973215Y-54875069D01*
X30991814Y-54710000D01*
X30973215Y-54544931D01*
X30922501Y-54400000D01*
X41558186Y-54400000D01*
X41576784Y-54565067D01*
X41576785Y-54565069D01*
X41627498Y-54709999D01*
X41631651Y-54721866D01*
X41631652Y-54721867D01*
X41720024Y-54862511D01*
X41837488Y-54979975D01*
X41978132Y-55068347D01*
X41978133Y-55068348D01*
X41978135Y-55068348D01*
X41978139Y-55068351D01*
X42134931Y-55123215D01*
X42300000Y-55141814D01*
X42465069Y-55123215D01*
X42621861Y-55068351D01*
X42762513Y-54979974D01*
X42879974Y-54862513D01*
X42968351Y-54721861D01*
X43023215Y-54565069D01*
X43041814Y-54400000D01*
X43023215Y-54234931D01*
X42968351Y-54078139D01*
X42968348Y-54078135D01*
X42968348Y-54078133D01*
X42968347Y-54078132D01*
X42879975Y-53937488D01*
X42762511Y-53820024D01*
X42621867Y-53731652D01*
X42621866Y-53731651D01*
X42621861Y-53731649D01*
X42550550Y-53706696D01*
X42465067Y-53676784D01*
X42300000Y-53658186D01*
X42134932Y-53676784D01*
X41978133Y-53731651D01*
X41978132Y-53731652D01*
X41837488Y-53820024D01*
X41720024Y-53937488D01*
X41631652Y-54078132D01*
X41631651Y-54078133D01*
X41576784Y-54234932D01*
X41558186Y-54400000D01*
X30922501Y-54400000D01*
X30918351Y-54388139D01*
X30918348Y-54388135D01*
X30918348Y-54388133D01*
X30918347Y-54388132D01*
X30829975Y-54247488D01*
X30712511Y-54130024D01*
X30571867Y-54041652D01*
X30571866Y-54041651D01*
X30571861Y-54041649D01*
X30500550Y-54016696D01*
X30415067Y-53986784D01*
X30250000Y-53968186D01*
X30084932Y-53986784D01*
X29928133Y-54041651D01*
X29928132Y-54041652D01*
X29787488Y-54130024D01*
X29670024Y-54247488D01*
X29581652Y-54388132D01*
X29581651Y-54388133D01*
X29526784Y-54544932D01*
X29508186Y-54710000D01*
X22575283Y-54710000D01*
X22496494Y-54673260D01*
X22496492Y-54673259D01*
X22276704Y-54614367D01*
X22276688Y-54614364D01*
X22106784Y-54599500D01*
X21993216Y-54599500D01*
X21823311Y-54614364D01*
X21823295Y-54614367D01*
X21603507Y-54673259D01*
X21603505Y-54673260D01*
X21397266Y-54769431D01*
X21210859Y-54899953D01*
X21049953Y-55060859D01*
X20919431Y-55247266D01*
X20823260Y-55453505D01*
X20823259Y-55453507D01*
X20764367Y-55673295D01*
X20764364Y-55673311D01*
X20744532Y-55899997D01*
X20744532Y-55900002D01*
X20764364Y-56126688D01*
X20764367Y-56126704D01*
X20823259Y-56346492D01*
X20823260Y-56346494D01*
X20919431Y-56552733D01*
X21049953Y-56739140D01*
X21210859Y-56900046D01*
X21360469Y-57004803D01*
X21386171Y-57045147D01*
X21375818Y-57091848D01*
X21335474Y-57117550D01*
X21324621Y-57118500D01*
X2183910Y-57118500D01*
X2139716Y-57100194D01*
X399805Y-55360283D01*
X381499Y-55316089D01*
X381499Y-54900000D01*
X6058186Y-54900000D01*
X6076784Y-55065067D01*
X6076785Y-55065069D01*
X6123999Y-55200000D01*
X6131651Y-55221866D01*
X6131652Y-55221867D01*
X6220024Y-55362511D01*
X6337488Y-55479975D01*
X6478132Y-55568347D01*
X6478133Y-55568348D01*
X6478135Y-55568348D01*
X6478139Y-55568351D01*
X6634931Y-55623215D01*
X6800000Y-55641814D01*
X6965069Y-55623215D01*
X7054798Y-55591817D01*
X7102557Y-55594498D01*
X7134432Y-55630166D01*
X7131948Y-55674525D01*
X7132809Y-55674827D01*
X7131764Y-55677812D01*
X7131759Y-55677909D01*
X7131654Y-55678125D01*
X7076784Y-55834932D01*
X7058186Y-56000000D01*
X7076784Y-56165067D01*
X7076785Y-56165069D01*
X7123999Y-56300000D01*
X7131651Y-56321866D01*
X7131652Y-56321867D01*
X7220024Y-56462511D01*
X7337488Y-56579975D01*
X7478132Y-56668347D01*
X7478133Y-56668348D01*
X7478135Y-56668348D01*
X7478139Y-56668351D01*
X7634931Y-56723215D01*
X7800000Y-56741814D01*
X7965069Y-56723215D01*
X8121861Y-56668351D01*
X8262513Y-56579974D01*
X8379974Y-56462513D01*
X8468351Y-56321861D01*
X8523215Y-56165069D01*
X8541814Y-56000000D01*
X8532800Y-55920000D01*
X9558186Y-55920000D01*
X9576784Y-56085067D01*
X9631651Y-56241866D01*
X9631652Y-56241867D01*
X9720024Y-56382511D01*
X9837488Y-56499975D01*
X9978132Y-56588347D01*
X9978133Y-56588348D01*
X9978135Y-56588348D01*
X9978139Y-56588351D01*
X10134931Y-56643215D01*
X10300000Y-56661814D01*
X10465069Y-56643215D01*
X10621861Y-56588351D01*
X10762513Y-56499974D01*
X10879974Y-56382513D01*
X10968351Y-56241861D01*
X11023215Y-56085069D01*
X11036180Y-55969999D01*
X11818186Y-55969999D01*
X11836784Y-56135067D01*
X11891651Y-56291866D01*
X11891652Y-56291867D01*
X11980024Y-56432511D01*
X12097488Y-56549975D01*
X12238132Y-56638347D01*
X12238133Y-56638348D01*
X12238135Y-56638348D01*
X12238139Y-56638351D01*
X12394931Y-56693215D01*
X12560000Y-56711814D01*
X12725069Y-56693215D01*
X12881861Y-56638351D01*
X13022513Y-56549974D01*
X13139974Y-56432513D01*
X13228351Y-56291861D01*
X13283215Y-56135069D01*
X13301814Y-55970000D01*
X13283215Y-55804931D01*
X13228351Y-55648139D01*
X13228348Y-55648135D01*
X13228348Y-55648133D01*
X13228347Y-55648132D01*
X13139975Y-55507488D01*
X13022511Y-55390024D01*
X12881867Y-55301652D01*
X12881866Y-55301651D01*
X12881861Y-55301649D01*
X12790936Y-55269833D01*
X12725067Y-55246784D01*
X12560000Y-55228186D01*
X12394932Y-55246784D01*
X12238133Y-55301651D01*
X12238132Y-55301652D01*
X12097488Y-55390024D01*
X11980024Y-55507488D01*
X11891652Y-55648132D01*
X11891651Y-55648133D01*
X11836784Y-55804932D01*
X11818186Y-55969999D01*
X11036180Y-55969999D01*
X11041814Y-55920000D01*
X11023215Y-55754931D01*
X10968351Y-55598139D01*
X10968348Y-55598135D01*
X10968348Y-55598133D01*
X10968347Y-55598132D01*
X10879975Y-55457488D01*
X10762511Y-55340024D01*
X10621867Y-55251652D01*
X10621866Y-55251651D01*
X10621861Y-55251649D01*
X10546197Y-55225173D01*
X10465067Y-55196784D01*
X10300000Y-55178186D01*
X10134932Y-55196784D01*
X9978133Y-55251651D01*
X9978132Y-55251652D01*
X9837488Y-55340024D01*
X9720024Y-55457488D01*
X9631652Y-55598132D01*
X9631651Y-55598133D01*
X9576784Y-55754932D01*
X9558186Y-55920000D01*
X8532800Y-55920000D01*
X8523215Y-55834931D01*
X8468351Y-55678139D01*
X8468348Y-55678135D01*
X8468348Y-55678133D01*
X8468347Y-55678132D01*
X8379975Y-55537488D01*
X8262511Y-55420024D01*
X8121867Y-55331652D01*
X8121866Y-55331651D01*
X8121861Y-55331649D01*
X8002761Y-55289974D01*
X7965067Y-55276784D01*
X7800000Y-55258186D01*
X7634932Y-55276784D01*
X7597236Y-55289975D01*
X7545201Y-55308182D01*
X7497441Y-55305501D01*
X7465566Y-55269833D01*
X7468056Y-55225475D01*
X7467191Y-55225173D01*
X7468242Y-55222167D01*
X7468248Y-55222072D01*
X7468250Y-55222070D01*
X7468348Y-55221866D01*
X7468348Y-55221865D01*
X7468351Y-55221861D01*
X7523215Y-55065069D01*
X7530547Y-54999999D01*
X19008186Y-54999999D01*
X19026784Y-55165067D01*
X19046731Y-55222072D01*
X19079629Y-55316089D01*
X19081651Y-55321866D01*
X19081652Y-55321867D01*
X19170024Y-55462511D01*
X19287488Y-55579975D01*
X19428132Y-55668347D01*
X19428133Y-55668348D01*
X19428135Y-55668348D01*
X19428139Y-55668351D01*
X19584931Y-55723215D01*
X19750000Y-55741814D01*
X19915069Y-55723215D01*
X20071861Y-55668351D01*
X20212513Y-55579974D01*
X20329974Y-55462513D01*
X20418351Y-55321861D01*
X20473215Y-55165069D01*
X20491814Y-55000000D01*
X20473215Y-54834931D01*
X20418351Y-54678139D01*
X20418348Y-54678135D01*
X20418348Y-54678133D01*
X20418347Y-54678132D01*
X20329975Y-54537488D01*
X20212511Y-54420024D01*
X20071867Y-54331652D01*
X20071866Y-54331651D01*
X20071861Y-54331649D01*
X20000550Y-54306696D01*
X19915067Y-54276784D01*
X19750000Y-54258186D01*
X19584932Y-54276784D01*
X19428133Y-54331651D01*
X19428132Y-54331652D01*
X19287488Y-54420024D01*
X19170024Y-54537488D01*
X19081652Y-54678132D01*
X19081651Y-54678133D01*
X19026784Y-54834932D01*
X19008186Y-54999999D01*
X7530547Y-54999999D01*
X7541814Y-54900000D01*
X7523215Y-54734931D01*
X7468351Y-54578139D01*
X7468348Y-54578135D01*
X7468348Y-54578133D01*
X7468347Y-54578132D01*
X7379975Y-54437488D01*
X7262511Y-54320024D01*
X7121867Y-54231652D01*
X7121866Y-54231651D01*
X7121861Y-54231649D01*
X7050550Y-54206696D01*
X6965067Y-54176784D01*
X6800000Y-54158186D01*
X6634932Y-54176784D01*
X6478133Y-54231651D01*
X6478132Y-54231652D01*
X6337488Y-54320024D01*
X6220024Y-54437488D01*
X6131652Y-54578132D01*
X6131651Y-54578133D01*
X6076784Y-54734932D01*
X6058186Y-54900000D01*
X381499Y-54900000D01*
X381499Y-53812511D01*
X381499Y-52740000D01*
X2318186Y-52740000D01*
X2336784Y-52905067D01*
X2366696Y-52990550D01*
X2384652Y-53041866D01*
X2391651Y-53061866D01*
X2391652Y-53061867D01*
X2480024Y-53202511D01*
X2597488Y-53319975D01*
X2738132Y-53408347D01*
X2738133Y-53408348D01*
X2738135Y-53408348D01*
X2738139Y-53408351D01*
X2894931Y-53463215D01*
X3060000Y-53481814D01*
X3225069Y-53463215D01*
X3381861Y-53408351D01*
X3474727Y-53350000D01*
X17108186Y-53350000D01*
X17126784Y-53515067D01*
X17181651Y-53671866D01*
X17181652Y-53671867D01*
X17270024Y-53812511D01*
X17387488Y-53929975D01*
X17528132Y-54018347D01*
X17528133Y-54018348D01*
X17528135Y-54018348D01*
X17528139Y-54018351D01*
X17684931Y-54073215D01*
X17850000Y-54091814D01*
X18015069Y-54073215D01*
X18171861Y-54018351D01*
X18312513Y-53929974D01*
X18429974Y-53812513D01*
X18518351Y-53671861D01*
X18573215Y-53515069D01*
X18591814Y-53350000D01*
X18573215Y-53184931D01*
X18518351Y-53028139D01*
X18518348Y-53028135D01*
X18518348Y-53028133D01*
X18518347Y-53028132D01*
X18429975Y-52887488D01*
X18312511Y-52770024D01*
X18171867Y-52681652D01*
X18171866Y-52681651D01*
X18171861Y-52681649D01*
X18100550Y-52656696D01*
X18015067Y-52626784D01*
X17850000Y-52608186D01*
X17684932Y-52626784D01*
X17528133Y-52681651D01*
X17528132Y-52681652D01*
X17387488Y-52770024D01*
X17270024Y-52887488D01*
X17181652Y-53028132D01*
X17181651Y-53028133D01*
X17126784Y-53184932D01*
X17108186Y-53350000D01*
X3474727Y-53350000D01*
X3522513Y-53319974D01*
X3639974Y-53202513D01*
X3728351Y-53061861D01*
X3783215Y-52905069D01*
X3801814Y-52740000D01*
X3783215Y-52574931D01*
X3728351Y-52418139D01*
X3728348Y-52418135D01*
X3728348Y-52418133D01*
X3728347Y-52418132D01*
X3639975Y-52277488D01*
X3522511Y-52160024D01*
X3381867Y-52071652D01*
X3381866Y-52071651D01*
X3381861Y-52071649D01*
X3291414Y-52040000D01*
X9058186Y-52040000D01*
X9076784Y-52205067D01*
X9131651Y-52361866D01*
X9131652Y-52361867D01*
X9220024Y-52502511D01*
X9337488Y-52619975D01*
X9478132Y-52708347D01*
X9478133Y-52708348D01*
X9478135Y-52708348D01*
X9478139Y-52708351D01*
X9634931Y-52763215D01*
X9800000Y-52781814D01*
X9965069Y-52763215D01*
X10121861Y-52708351D01*
X10262513Y-52619974D01*
X10379974Y-52502513D01*
X10381553Y-52500000D01*
X20558186Y-52500000D01*
X20576784Y-52665067D01*
X20631651Y-52821866D01*
X20631652Y-52821867D01*
X20720024Y-52962511D01*
X20837488Y-53079975D01*
X20978132Y-53168347D01*
X20978133Y-53168348D01*
X20978135Y-53168348D01*
X20978139Y-53168351D01*
X21134931Y-53223215D01*
X21300000Y-53241814D01*
X21465069Y-53223215D01*
X21621861Y-53168351D01*
X21762513Y-53079974D01*
X21879974Y-52962513D01*
X21968351Y-52821861D01*
X22003994Y-52720000D01*
X23568186Y-52720000D01*
X23586784Y-52885067D01*
X23605127Y-52937487D01*
X23636847Y-53028139D01*
X23641651Y-53041866D01*
X23641652Y-53041867D01*
X23730024Y-53182511D01*
X23847488Y-53299975D01*
X23988132Y-53388347D01*
X23988133Y-53388348D01*
X23988135Y-53388348D01*
X23988139Y-53388351D01*
X24144931Y-53443215D01*
X24310000Y-53461814D01*
X24475069Y-53443215D01*
X24598570Y-53400000D01*
X38858186Y-53400000D01*
X38876784Y-53565067D01*
X38931651Y-53721866D01*
X38931652Y-53721867D01*
X39020024Y-53862511D01*
X39137488Y-53979975D01*
X39278132Y-54068347D01*
X39278133Y-54068348D01*
X39278135Y-54068348D01*
X39278139Y-54068351D01*
X39434931Y-54123215D01*
X39600000Y-54141814D01*
X39765069Y-54123215D01*
X39921861Y-54068351D01*
X40062513Y-53979974D01*
X40179974Y-53862513D01*
X40268351Y-53721861D01*
X40323215Y-53565069D01*
X40341814Y-53400000D01*
X40323215Y-53234931D01*
X40268351Y-53078139D01*
X40268348Y-53078135D01*
X40268348Y-53078133D01*
X40268347Y-53078132D01*
X40179975Y-52937488D01*
X40062511Y-52820024D01*
X39921867Y-52731652D01*
X39921866Y-52731651D01*
X39921861Y-52731649D01*
X39831414Y-52700000D01*
X39765067Y-52676784D01*
X39600000Y-52658186D01*
X39434932Y-52676784D01*
X39278133Y-52731651D01*
X39278132Y-52731652D01*
X39137488Y-52820024D01*
X39020024Y-52937488D01*
X38931652Y-53078132D01*
X38931651Y-53078133D01*
X38876784Y-53234932D01*
X38858186Y-53400000D01*
X24598570Y-53400000D01*
X24631861Y-53388351D01*
X24772513Y-53299974D01*
X24889974Y-53182513D01*
X24978351Y-53041861D01*
X25033215Y-52885069D01*
X25051814Y-52720000D01*
X25033215Y-52554931D01*
X24978351Y-52398139D01*
X24978348Y-52398135D01*
X24978348Y-52398133D01*
X24978347Y-52398132D01*
X24889975Y-52257488D01*
X24772511Y-52140024D01*
X24631867Y-52051652D01*
X24631866Y-52051651D01*
X24631861Y-52051649D01*
X24532223Y-52016784D01*
X24475067Y-51996784D01*
X24310000Y-51978186D01*
X24144932Y-51996784D01*
X23988133Y-52051651D01*
X23988132Y-52051652D01*
X23847488Y-52140024D01*
X23730024Y-52257488D01*
X23641652Y-52398132D01*
X23641651Y-52398133D01*
X23586784Y-52554932D01*
X23568186Y-52720000D01*
X22003994Y-52720000D01*
X22023215Y-52665069D01*
X22041814Y-52500000D01*
X22023215Y-52334931D01*
X21968351Y-52178139D01*
X21968348Y-52178135D01*
X21968348Y-52178133D01*
X21968347Y-52178132D01*
X21879975Y-52037488D01*
X21762511Y-51920024D01*
X21621867Y-51831652D01*
X21621866Y-51831651D01*
X21621861Y-51831649D01*
X21531414Y-51800000D01*
X21465067Y-51776784D01*
X21300000Y-51758186D01*
X21134932Y-51776784D01*
X20978133Y-51831651D01*
X20978132Y-51831652D01*
X20837488Y-51920024D01*
X20720024Y-52037488D01*
X20631652Y-52178132D01*
X20631651Y-52178133D01*
X20576784Y-52334932D01*
X20558186Y-52500000D01*
X10381553Y-52500000D01*
X10468351Y-52361861D01*
X10523215Y-52205069D01*
X10541814Y-52040000D01*
X10523215Y-51874931D01*
X10468351Y-51718139D01*
X10468348Y-51718135D01*
X10468348Y-51718133D01*
X10468347Y-51718132D01*
X10379975Y-51577488D01*
X10262511Y-51460024D01*
X10121867Y-51371652D01*
X10121866Y-51371651D01*
X10121861Y-51371649D01*
X10024232Y-51337487D01*
X9965067Y-51316784D01*
X9800000Y-51298186D01*
X9634932Y-51316784D01*
X9478133Y-51371651D01*
X9478132Y-51371652D01*
X9337488Y-51460024D01*
X9220024Y-51577488D01*
X9131652Y-51718132D01*
X9131651Y-51718133D01*
X9076784Y-51874932D01*
X9058186Y-52040000D01*
X3291414Y-52040000D01*
X3284232Y-52037487D01*
X3225067Y-52016784D01*
X3060000Y-51998186D01*
X2894932Y-52016784D01*
X2738133Y-52071651D01*
X2738132Y-52071652D01*
X2597488Y-52160024D01*
X2480024Y-52277488D01*
X2391652Y-52418132D01*
X2391651Y-52418133D01*
X2336784Y-52574932D01*
X2318186Y-52740000D01*
X381499Y-52740000D01*
X381499Y-52374871D01*
X399805Y-52330680D01*
X443999Y-52312374D01*
X488193Y-52330680D01*
X537488Y-52379975D01*
X678132Y-52468347D01*
X678133Y-52468348D01*
X678135Y-52468348D01*
X678139Y-52468351D01*
X834931Y-52523215D01*
X1000000Y-52541814D01*
X1165069Y-52523215D01*
X1304360Y-52474475D01*
X1345640Y-52474475D01*
X1484931Y-52523215D01*
X1650000Y-52541814D01*
X1815069Y-52523215D01*
X1971861Y-52468351D01*
X2112513Y-52379974D01*
X2229974Y-52262513D01*
X2318351Y-52121861D01*
X2373215Y-51965069D01*
X2391814Y-51800000D01*
X2373215Y-51634931D01*
X2318351Y-51478139D01*
X2318348Y-51478135D01*
X2318348Y-51478133D01*
X2318347Y-51478132D01*
X2229975Y-51337488D01*
X2186681Y-51294194D01*
X2168375Y-51250000D01*
X2186681Y-51205806D01*
X2186680Y-51205805D01*
X2229974Y-51162513D01*
X2318351Y-51021861D01*
X2373215Y-50865069D01*
X2391814Y-50700000D01*
X2373215Y-50534931D01*
X2318351Y-50378139D01*
X2318348Y-50378135D01*
X2318348Y-50378133D01*
X2318347Y-50378132D01*
X2229975Y-50237488D01*
X2112511Y-50120024D01*
X1971867Y-50031652D01*
X1971866Y-50031651D01*
X1971861Y-50031649D01*
X1900550Y-50006696D01*
X1815067Y-49976784D01*
X1650000Y-49958186D01*
X1484930Y-49976785D01*
X1345641Y-50025524D01*
X1304357Y-50025524D01*
X1165069Y-49976785D01*
X1000000Y-49958186D01*
X834932Y-49976784D01*
X678133Y-50031651D01*
X678132Y-50031652D01*
X537488Y-50120024D01*
X537487Y-50120025D01*
X488194Y-50169319D01*
X444000Y-50187625D01*
X399806Y-50169319D01*
X381500Y-50125125D01*
X381500Y-44550000D01*
X4728186Y-44550000D01*
X4746784Y-44715067D01*
X4746785Y-44715069D01*
X4794652Y-44851866D01*
X4801651Y-44871866D01*
X4801652Y-44871867D01*
X4890024Y-45012511D01*
X5007488Y-45129975D01*
X5148138Y-45218351D01*
X5167187Y-45225016D01*
X5179110Y-45230663D01*
X5190602Y-45237679D01*
X5456545Y-45351783D01*
X5476095Y-45365025D01*
X6827574Y-46716504D01*
X6830271Y-46719579D01*
X6852045Y-46747955D01*
X6971532Y-46839641D01*
X7110678Y-46897277D01*
X7110682Y-46897277D01*
X7110684Y-46897278D01*
X7136971Y-46900738D01*
X7222508Y-46912000D01*
X7222514Y-46912000D01*
X7260000Y-46916935D01*
X7260002Y-46916935D01*
X7295450Y-46912268D01*
X7299534Y-46912000D01*
X27850466Y-46912000D01*
X27854550Y-46912268D01*
X27889998Y-46916935D01*
X27890000Y-46916935D01*
X27927486Y-46912000D01*
X27927492Y-46912000D01*
X28027806Y-46898793D01*
X28039315Y-46897278D01*
X28039315Y-46897277D01*
X28039322Y-46897277D01*
X28178468Y-46839641D01*
X28297955Y-46747955D01*
X28319735Y-46719569D01*
X28322417Y-46716511D01*
X29692726Y-45346203D01*
X29711392Y-45333350D01*
X29976835Y-45214612D01*
X30001167Y-45202367D01*
X30004870Y-45200796D01*
X30011861Y-45198351D01*
X30152513Y-45109974D01*
X30269974Y-44992513D01*
X30358351Y-44851861D01*
X30413215Y-44695069D01*
X30431814Y-44530000D01*
X30413215Y-44364931D01*
X30358351Y-44208139D01*
X30358348Y-44208135D01*
X30358348Y-44208133D01*
X30358347Y-44208132D01*
X30269975Y-44067488D01*
X30152511Y-43950024D01*
X30011867Y-43861652D01*
X30011866Y-43861651D01*
X30011861Y-43861649D01*
X29912223Y-43826784D01*
X29855067Y-43806784D01*
X29690000Y-43788186D01*
X29524932Y-43806784D01*
X29368133Y-43861651D01*
X29368132Y-43861652D01*
X29227488Y-43950024D01*
X29110024Y-44067488D01*
X29021650Y-44208135D01*
X29012927Y-44233063D01*
X29007851Y-44244030D01*
X28998914Y-44259272D01*
X28998909Y-44259281D01*
X28891320Y-44522844D01*
X28877650Y-44543417D01*
X27671376Y-45749694D01*
X27627182Y-45768000D01*
X24741818Y-45768000D01*
X24697624Y-45749694D01*
X24679318Y-45705500D01*
X24697624Y-45661306D01*
X24756686Y-45602243D01*
X24981553Y-45377375D01*
X24999332Y-45364927D01*
X25128071Y-45304907D01*
X25264369Y-45241364D01*
X25271488Y-45237676D01*
X25280639Y-45232935D01*
X25288727Y-45229447D01*
X25291861Y-45228351D01*
X25432513Y-45139974D01*
X25549974Y-45022513D01*
X25638351Y-44881861D01*
X25693215Y-44725069D01*
X25711814Y-44560000D01*
X25693215Y-44394931D01*
X25638351Y-44238139D01*
X25638348Y-44238135D01*
X25638348Y-44238133D01*
X25638347Y-44238132D01*
X25549975Y-44097488D01*
X25432511Y-43980024D01*
X25291867Y-43891652D01*
X25291866Y-43891651D01*
X25291861Y-43891649D01*
X25206126Y-43861649D01*
X25135067Y-43836784D01*
X24970000Y-43818186D01*
X24804932Y-43836784D01*
X24648133Y-43891651D01*
X24648132Y-43891652D01*
X24507488Y-43980024D01*
X24390024Y-44097488D01*
X24301649Y-44238136D01*
X24290816Y-44269096D01*
X24286288Y-44279111D01*
X24275685Y-44297945D01*
X24275683Y-44297950D01*
X24174380Y-44559170D01*
X24160302Y-44580766D01*
X23591376Y-45149694D01*
X23547182Y-45168000D01*
X12645375Y-45168000D01*
X12601181Y-45149694D01*
X12582875Y-45105500D01*
X12601181Y-45061306D01*
X12601180Y-45061305D01*
X12649974Y-45012513D01*
X12725991Y-44891530D01*
X12727797Y-44888953D01*
X12732231Y-44883262D01*
X12883326Y-44618718D01*
X12893398Y-44605530D01*
X18958623Y-38540306D01*
X19002818Y-38522000D01*
X28610466Y-38522000D01*
X28614550Y-38522268D01*
X28649998Y-38526935D01*
X28650000Y-38526935D01*
X28687486Y-38522000D01*
X28687492Y-38522000D01*
X28787806Y-38508793D01*
X28799315Y-38507278D01*
X28799315Y-38507277D01*
X28799322Y-38507277D01*
X28938468Y-38449641D01*
X29057955Y-38357955D01*
X29079738Y-38329567D01*
X29082417Y-38326512D01*
X29853907Y-37555022D01*
X29873451Y-37541784D01*
X30063059Y-37460433D01*
X30139403Y-37427678D01*
X30139401Y-37427678D01*
X30169933Y-37412752D01*
X30173303Y-37411345D01*
X30181861Y-37408351D01*
X30322513Y-37319974D01*
X30439974Y-37202513D01*
X30528351Y-37061861D01*
X30583215Y-36905069D01*
X30601814Y-36740000D01*
X30583215Y-36574931D01*
X30528351Y-36418139D01*
X30528348Y-36418135D01*
X30528348Y-36418133D01*
X30528347Y-36418132D01*
X30439975Y-36277488D01*
X30322511Y-36160024D01*
X30181867Y-36071652D01*
X30181866Y-36071651D01*
X30181861Y-36071649D01*
X30110550Y-36046696D01*
X30025067Y-36016784D01*
X29860000Y-35998186D01*
X29694932Y-36016784D01*
X29538133Y-36071651D01*
X29538132Y-36071652D01*
X29397488Y-36160024D01*
X29280024Y-36277488D01*
X29191650Y-36418136D01*
X29184983Y-36437187D01*
X29179338Y-36449106D01*
X29172320Y-36460602D01*
X29111790Y-36601680D01*
X29058216Y-36726544D01*
X29044975Y-36746093D01*
X28431376Y-37359694D01*
X28387182Y-37378000D01*
X20015375Y-37378000D01*
X19971181Y-37359694D01*
X19952875Y-37315500D01*
X19971181Y-37271306D01*
X19971180Y-37271306D01*
X20039974Y-37202513D01*
X20128351Y-37061861D01*
X20183215Y-36905069D01*
X20201814Y-36740000D01*
X20183215Y-36574931D01*
X20128351Y-36418139D01*
X20128348Y-36418135D01*
X20128348Y-36418133D01*
X20128347Y-36418132D01*
X20039975Y-36277488D01*
X19922511Y-36160024D01*
X19781867Y-36071652D01*
X19781866Y-36071651D01*
X19781861Y-36071649D01*
X19710550Y-36046696D01*
X19625067Y-36016784D01*
X19460000Y-35998186D01*
X19294932Y-36016784D01*
X19138133Y-36071651D01*
X19138132Y-36071652D01*
X19075294Y-36111136D01*
X19028134Y-36119149D01*
X19008790Y-36111136D01*
X18961867Y-36081652D01*
X18961866Y-36081651D01*
X18961861Y-36081649D01*
X18890550Y-36056696D01*
X18805067Y-36026784D01*
X18640000Y-36008186D01*
X18474932Y-36026784D01*
X18318136Y-36081650D01*
X18283963Y-36103122D01*
X18271208Y-36111137D01*
X18224049Y-36119149D01*
X18204705Y-36111136D01*
X18141867Y-36071652D01*
X18141866Y-36071651D01*
X18141861Y-36071649D01*
X18070550Y-36046696D01*
X17985067Y-36016784D01*
X17820000Y-35998186D01*
X17654932Y-36016784D01*
X17541737Y-36056393D01*
X17498139Y-36071649D01*
X17498138Y-36071649D01*
X17498134Y-36071651D01*
X17415292Y-36123703D01*
X17368132Y-36131715D01*
X17348789Y-36123702D01*
X17281867Y-36081652D01*
X17281866Y-36081651D01*
X17281861Y-36081649D01*
X17210550Y-36056696D01*
X17125067Y-36026784D01*
X16960000Y-36008186D01*
X16794932Y-36026784D01*
X16638133Y-36081651D01*
X16638132Y-36081652D01*
X16497488Y-36170024D01*
X16380024Y-36287488D01*
X16291652Y-36428132D01*
X16291651Y-36428133D01*
X16236784Y-36584932D01*
X16218186Y-36750000D01*
X16236784Y-36915067D01*
X16291651Y-37071866D01*
X16291652Y-37071867D01*
X16380024Y-37212511D01*
X16497488Y-37329975D01*
X16638132Y-37418347D01*
X16638133Y-37418348D01*
X16638135Y-37418348D01*
X16638139Y-37418351D01*
X16794931Y-37473215D01*
X16960000Y-37491814D01*
X17125069Y-37473215D01*
X17281861Y-37418351D01*
X17364706Y-37366295D01*
X17411864Y-37358283D01*
X17431206Y-37366295D01*
X17451207Y-37378862D01*
X17498132Y-37408347D01*
X17498133Y-37408348D01*
X17498135Y-37408348D01*
X17498139Y-37408351D01*
X17654931Y-37463215D01*
X17820000Y-37481814D01*
X17985069Y-37463215D01*
X18141861Y-37408351D01*
X18188790Y-37378862D01*
X18235947Y-37370849D01*
X18255292Y-37378861D01*
X18265310Y-37385156D01*
X18318132Y-37418347D01*
X18318133Y-37418347D01*
X18318139Y-37418351D01*
X18329267Y-37422244D01*
X18364933Y-37454116D01*
X18367618Y-37501876D01*
X18346674Y-37530819D01*
X18332043Y-37542046D01*
X18332042Y-37542047D01*
X18310268Y-37570422D01*
X18307571Y-37573497D01*
X12127661Y-43753407D01*
X12100987Y-43769207D01*
X11972309Y-43806784D01*
X11844485Y-43844111D01*
X11831522Y-43848272D01*
X11823948Y-43850927D01*
X11823946Y-43850928D01*
X11779698Y-43870499D01*
X11777379Y-43871416D01*
X11748136Y-43881650D01*
X11607488Y-43970024D01*
X11490024Y-44087488D01*
X11401652Y-44228132D01*
X11401651Y-44228133D01*
X11346784Y-44384932D01*
X11328186Y-44550000D01*
X11346784Y-44715067D01*
X11346785Y-44715069D01*
X11394652Y-44851866D01*
X11401651Y-44871866D01*
X11401652Y-44871867D01*
X11490024Y-45012511D01*
X11538819Y-45061306D01*
X11557125Y-45105500D01*
X11538819Y-45149694D01*
X11494625Y-45168000D01*
X8212818Y-45168000D01*
X8168624Y-45149694D01*
X7597058Y-44578128D01*
X7582594Y-44555510D01*
X7578146Y-44543417D01*
X7485654Y-44291969D01*
X7483703Y-44286964D01*
X7483700Y-44286957D01*
X7483701Y-44286958D01*
X7464839Y-44246237D01*
X7463697Y-44243420D01*
X7462078Y-44238793D01*
X7458351Y-44228139D01*
X7445782Y-44208135D01*
X7369975Y-44087488D01*
X7252511Y-43970024D01*
X7111867Y-43881652D01*
X7111866Y-43881651D01*
X7111861Y-43881649D01*
X7004584Y-43844111D01*
X6955067Y-43826784D01*
X6790000Y-43808186D01*
X6624932Y-43826784D01*
X6468133Y-43881651D01*
X6468132Y-43881652D01*
X6327488Y-43970024D01*
X6210026Y-44087486D01*
X6182919Y-44130626D01*
X6143905Y-44158306D01*
X6096746Y-44150293D01*
X6077079Y-44130625D01*
X6049974Y-44087487D01*
X5932513Y-43970026D01*
X5932512Y-43970026D01*
X5932511Y-43970024D01*
X5791867Y-43881652D01*
X5791866Y-43881651D01*
X5791861Y-43881649D01*
X5684584Y-43844111D01*
X5635067Y-43826784D01*
X5470000Y-43808186D01*
X5304932Y-43826784D01*
X5148133Y-43881651D01*
X5148132Y-43881652D01*
X5007488Y-43970024D01*
X4890024Y-44087488D01*
X4801652Y-44228132D01*
X4801651Y-44228133D01*
X4746784Y-44384932D01*
X4728186Y-44550000D01*
X381500Y-44550000D01*
X381500Y-36739999D01*
X8328186Y-36739999D01*
X8346784Y-36905067D01*
X8401651Y-37061866D01*
X8401652Y-37061867D01*
X8490024Y-37202511D01*
X8607488Y-37319975D01*
X8748132Y-37408347D01*
X8748133Y-37408348D01*
X8748135Y-37408348D01*
X8748139Y-37408351D01*
X8904931Y-37463215D01*
X9070000Y-37481814D01*
X9235069Y-37463215D01*
X9391861Y-37408351D01*
X9532513Y-37319974D01*
X9649974Y-37202513D01*
X9738351Y-37061861D01*
X9793215Y-36905069D01*
X9810687Y-36750000D01*
X10728186Y-36750000D01*
X10746784Y-36915067D01*
X10801651Y-37071866D01*
X10801652Y-37071867D01*
X10890024Y-37212511D01*
X11007488Y-37329975D01*
X11148132Y-37418347D01*
X11148133Y-37418348D01*
X11148135Y-37418348D01*
X11148139Y-37418351D01*
X11304931Y-37473215D01*
X11470000Y-37491814D01*
X11635069Y-37473215D01*
X11791861Y-37418351D01*
X11932513Y-37329974D01*
X12049974Y-37212513D01*
X12138351Y-37071861D01*
X12193215Y-36915069D01*
X12211814Y-36750000D01*
X12193215Y-36584931D01*
X12138351Y-36428139D01*
X12138348Y-36428135D01*
X12138348Y-36428133D01*
X12138347Y-36428132D01*
X12049975Y-36287488D01*
X11932511Y-36170024D01*
X11791867Y-36081652D01*
X11791866Y-36081651D01*
X11791861Y-36081649D01*
X11720550Y-36056696D01*
X11635067Y-36026784D01*
X11470000Y-36008186D01*
X11304932Y-36026784D01*
X11148133Y-36081651D01*
X11148132Y-36081652D01*
X11007488Y-36170024D01*
X10890024Y-36287488D01*
X10801652Y-36428132D01*
X10801651Y-36428133D01*
X10746784Y-36584932D01*
X10728186Y-36750000D01*
X9810687Y-36750000D01*
X9811814Y-36740000D01*
X9793215Y-36574931D01*
X9738351Y-36418139D01*
X9738348Y-36418135D01*
X9738348Y-36418133D01*
X9738347Y-36418132D01*
X9649975Y-36277488D01*
X9532511Y-36160024D01*
X9391867Y-36071652D01*
X9391866Y-36071651D01*
X9391861Y-36071649D01*
X9320550Y-36046696D01*
X9235067Y-36016784D01*
X9070000Y-35998186D01*
X8904932Y-36016784D01*
X8748133Y-36071651D01*
X8748132Y-36071652D01*
X8607488Y-36160024D01*
X8490024Y-36277488D01*
X8401652Y-36418132D01*
X8401651Y-36418133D01*
X8346784Y-36574932D01*
X8328186Y-36739999D01*
X381500Y-36739999D01*
X381500Y-28980000D01*
X11268186Y-28980000D01*
X11286784Y-29145067D01*
X11341651Y-29301866D01*
X11341652Y-29301867D01*
X11430024Y-29442511D01*
X11547488Y-29559975D01*
X11688132Y-29648347D01*
X11688133Y-29648348D01*
X11688135Y-29648348D01*
X11688139Y-29648351D01*
X11844931Y-29703215D01*
X12010000Y-29721814D01*
X12175069Y-29703215D01*
X12331861Y-29648351D01*
X12472513Y-29559974D01*
X12589974Y-29442513D01*
X12678351Y-29301861D01*
X12733215Y-29145069D01*
X12751814Y-28980000D01*
X12733215Y-28814931D01*
X12678351Y-28658139D01*
X12678348Y-28658135D01*
X12678348Y-28658133D01*
X12678347Y-28658132D01*
X12589975Y-28517488D01*
X12472511Y-28400024D01*
X12331867Y-28311652D01*
X12331866Y-28311651D01*
X12331861Y-28311649D01*
X12227076Y-28274983D01*
X12175067Y-28256784D01*
X12010000Y-28238186D01*
X11844932Y-28256784D01*
X11688133Y-28311651D01*
X11688132Y-28311652D01*
X11547488Y-28400024D01*
X11430024Y-28517488D01*
X11341652Y-28658132D01*
X11341651Y-28658133D01*
X11286784Y-28814932D01*
X11268186Y-28980000D01*
X381500Y-28980000D01*
X381500Y-20840000D01*
X7068186Y-20840000D01*
X7086784Y-21005067D01*
X7086785Y-21005069D01*
X7141549Y-21161576D01*
X7141651Y-21161866D01*
X7141652Y-21161867D01*
X7230024Y-21302511D01*
X7347488Y-21419975D01*
X7488132Y-21508347D01*
X7488133Y-21508348D01*
X7488135Y-21508348D01*
X7488139Y-21508351D01*
X7644931Y-21563215D01*
X7810000Y-21581814D01*
X7975069Y-21563215D01*
X8026313Y-21545283D01*
X8074074Y-21547964D01*
X8091151Y-21560081D01*
X14973509Y-28442439D01*
X14991815Y-28486633D01*
X14982235Y-28519885D01*
X14901652Y-28648132D01*
X14901651Y-28648133D01*
X14846784Y-28804932D01*
X14828186Y-28970000D01*
X14846784Y-29135067D01*
X14846785Y-29135069D01*
X14894652Y-29271866D01*
X14901651Y-29291866D01*
X14901652Y-29291867D01*
X14990024Y-29432511D01*
X15107488Y-29549975D01*
X15248132Y-29638347D01*
X15248133Y-29638348D01*
X15248135Y-29638348D01*
X15248139Y-29638351D01*
X15404931Y-29693215D01*
X15570000Y-29711814D01*
X15735069Y-29693215D01*
X15891861Y-29638351D01*
X16020115Y-29557763D01*
X16067273Y-29549751D01*
X16097560Y-29566490D01*
X16607574Y-30076504D01*
X16610271Y-30079579D01*
X16632045Y-30107955D01*
X16751532Y-30199641D01*
X16890678Y-30257277D01*
X16890682Y-30257277D01*
X16890684Y-30257278D01*
X16916971Y-30260738D01*
X17002508Y-30272000D01*
X17002514Y-30272000D01*
X17040000Y-30276935D01*
X17040002Y-30276935D01*
X17075450Y-30272268D01*
X17079534Y-30272000D01*
X24810466Y-30272000D01*
X24814550Y-30272268D01*
X24849998Y-30276935D01*
X24850000Y-30276935D01*
X24887486Y-30272000D01*
X24887492Y-30272000D01*
X24987806Y-30258793D01*
X24999315Y-30257278D01*
X24999315Y-30257277D01*
X24999322Y-30257277D01*
X25138468Y-30199641D01*
X25257955Y-30107955D01*
X25279735Y-30079569D01*
X25282417Y-30076511D01*
X25633906Y-29725022D01*
X25653450Y-29711784D01*
X25871226Y-29618348D01*
X25919403Y-29597678D01*
X25919401Y-29597678D01*
X25949933Y-29582752D01*
X25953303Y-29581345D01*
X25961861Y-29578351D01*
X26102513Y-29489974D01*
X26219974Y-29372513D01*
X26308351Y-29231861D01*
X26363215Y-29075069D01*
X26381814Y-28910000D01*
X26363215Y-28744931D01*
X26308351Y-28588139D01*
X26308348Y-28588135D01*
X26308348Y-28588133D01*
X26308347Y-28588132D01*
X26282975Y-28547752D01*
X26274962Y-28500592D01*
X26302643Y-28461580D01*
X26335895Y-28452000D01*
X29147182Y-28452000D01*
X29191376Y-28470306D01*
X29664973Y-28943903D01*
X29678213Y-28963450D01*
X29756138Y-29145069D01*
X29792320Y-29229398D01*
X29807240Y-29259920D01*
X29808662Y-29263324D01*
X29811650Y-29271864D01*
X29900024Y-29412511D01*
X30017488Y-29529975D01*
X30158132Y-29618347D01*
X30158133Y-29618348D01*
X30158135Y-29618348D01*
X30158139Y-29618351D01*
X30314931Y-29673215D01*
X30480000Y-29691814D01*
X30645069Y-29673215D01*
X30801861Y-29618351D01*
X30942513Y-29529974D01*
X31059974Y-29412513D01*
X31148351Y-29271861D01*
X31203215Y-29115069D01*
X31221814Y-28950000D01*
X31203215Y-28784931D01*
X31148351Y-28628139D01*
X31148348Y-28628135D01*
X31148348Y-28628133D01*
X31148347Y-28628132D01*
X31059975Y-28487488D01*
X30942511Y-28370024D01*
X30801867Y-28281652D01*
X30801863Y-28281650D01*
X30801861Y-28281649D01*
X30790787Y-28277774D01*
X30782812Y-28274983D01*
X30770893Y-28269338D01*
X30767821Y-28267463D01*
X30759397Y-28262320D01*
X30493451Y-28148214D01*
X30473904Y-28134974D01*
X30188954Y-27850024D01*
X29842419Y-27503489D01*
X29839729Y-27500421D01*
X29817955Y-27472045D01*
X29787959Y-27449028D01*
X29698468Y-27380359D01*
X29559322Y-27322723D01*
X29559319Y-27322722D01*
X29559318Y-27322722D01*
X29559315Y-27322721D01*
X29446710Y-27307897D01*
X29446699Y-27307896D01*
X29410002Y-27303065D01*
X29409998Y-27303065D01*
X29374550Y-27307732D01*
X29370466Y-27308000D01*
X23829534Y-27308000D01*
X23825450Y-27307732D01*
X23790002Y-27303065D01*
X23789999Y-27303065D01*
X23775813Y-27304932D01*
X23753572Y-27307860D01*
X23753569Y-27307861D01*
X23752513Y-27308000D01*
X23752508Y-27308000D01*
X23697235Y-27315276D01*
X23619288Y-27325538D01*
X23599299Y-27339862D01*
X23501535Y-27380357D01*
X23501530Y-27380360D01*
X23412541Y-27448643D01*
X23412536Y-27448647D01*
X23382042Y-27472047D01*
X23360271Y-27500418D01*
X23357574Y-27503493D01*
X23246096Y-27614972D01*
X23226546Y-27628214D01*
X22960591Y-27742324D01*
X22960591Y-27742325D01*
X22930089Y-27757235D01*
X22926689Y-27758655D01*
X22918144Y-27761646D01*
X22918137Y-27761649D01*
X22777488Y-27850024D01*
X22660024Y-27967488D01*
X22571651Y-28108134D01*
X22571647Y-28108143D01*
X22566715Y-28122235D01*
X22560567Y-28134962D01*
X22555387Y-28143162D01*
X22436647Y-28408606D01*
X22423789Y-28427279D01*
X22141376Y-28709694D01*
X22097182Y-28728000D01*
X20182818Y-28728000D01*
X20138624Y-28709694D01*
X12470306Y-21041376D01*
X12452000Y-20997182D01*
X12452000Y-20840000D01*
X12978186Y-20840000D01*
X12996784Y-21005067D01*
X12996785Y-21005069D01*
X13051549Y-21161576D01*
X13051651Y-21161866D01*
X13051652Y-21161867D01*
X13140024Y-21302511D01*
X13257488Y-21419975D01*
X13398132Y-21508347D01*
X13398133Y-21508348D01*
X13398135Y-21508348D01*
X13398139Y-21508351D01*
X13554931Y-21563215D01*
X13720000Y-21581814D01*
X13885069Y-21563215D01*
X14041861Y-21508351D01*
X14128791Y-21453728D01*
X14175949Y-21445716D01*
X14195291Y-21453728D01*
X14244999Y-21484961D01*
X14298132Y-21518347D01*
X14298133Y-21518348D01*
X14298135Y-21518348D01*
X14298139Y-21518351D01*
X14454931Y-21573215D01*
X14620000Y-21591814D01*
X14785069Y-21573215D01*
X14941861Y-21518351D01*
X15044706Y-21453728D01*
X15091864Y-21445716D01*
X15111206Y-21453727D01*
X15160344Y-21484603D01*
X15198132Y-21508347D01*
X15198133Y-21508348D01*
X15198135Y-21508348D01*
X15198139Y-21508351D01*
X15354931Y-21563215D01*
X15520000Y-21581814D01*
X15685069Y-21563215D01*
X15841861Y-21508351D01*
X15936750Y-21448728D01*
X15983906Y-21440716D01*
X16003251Y-21448729D01*
X16098132Y-21508347D01*
X16098133Y-21508348D01*
X16098135Y-21508348D01*
X16098139Y-21508351D01*
X16254931Y-21563215D01*
X16420000Y-21581814D01*
X16585069Y-21563215D01*
X16741861Y-21508351D01*
X16836749Y-21448728D01*
X16883907Y-21440716D01*
X16903249Y-21448727D01*
X16911209Y-21453729D01*
X16998132Y-21508347D01*
X16998133Y-21508348D01*
X16998135Y-21508348D01*
X16998139Y-21508351D01*
X17154931Y-21563215D01*
X17320000Y-21581814D01*
X17485069Y-21563215D01*
X17641861Y-21508351D01*
X17728791Y-21453728D01*
X17775949Y-21445716D01*
X17795291Y-21453728D01*
X17844999Y-21484961D01*
X17898132Y-21518347D01*
X17898133Y-21518348D01*
X17898135Y-21518348D01*
X17898139Y-21518351D01*
X18054931Y-21573215D01*
X18220000Y-21591814D01*
X18385069Y-21573215D01*
X18541861Y-21518351D01*
X18682513Y-21429974D01*
X18799974Y-21312513D01*
X18888351Y-21171861D01*
X18943215Y-21015069D01*
X18961814Y-20850000D01*
X18960687Y-20840000D01*
X22158186Y-20840000D01*
X22176784Y-21005067D01*
X22176785Y-21005069D01*
X22231549Y-21161576D01*
X22231651Y-21161866D01*
X22231652Y-21161867D01*
X22320024Y-21302511D01*
X22437488Y-21419975D01*
X22578132Y-21508347D01*
X22578133Y-21508348D01*
X22578135Y-21508348D01*
X22578139Y-21508351D01*
X22734931Y-21563215D01*
X22900000Y-21581814D01*
X23065069Y-21563215D01*
X23221861Y-21508351D01*
X23362513Y-21419974D01*
X23479974Y-21302513D01*
X23568351Y-21161861D01*
X23575017Y-21142807D01*
X23580660Y-21130893D01*
X23587681Y-21119395D01*
X23701784Y-20853450D01*
X23704122Y-20849999D01*
X25438186Y-20849999D01*
X25456784Y-21015067D01*
X25511651Y-21171866D01*
X25511652Y-21171867D01*
X25600024Y-21312511D01*
X25717488Y-21429975D01*
X25858132Y-21518347D01*
X25858133Y-21518348D01*
X25858135Y-21518348D01*
X25858139Y-21518351D01*
X26014931Y-21573215D01*
X26180000Y-21591814D01*
X26345069Y-21573215D01*
X26501861Y-21518351D01*
X26642513Y-21429974D01*
X26759974Y-21312513D01*
X26815797Y-21223670D01*
X26854808Y-21195991D01*
X26901968Y-21204003D01*
X26921636Y-21223672D01*
X26990024Y-21332511D01*
X27107488Y-21449975D01*
X27248132Y-21538347D01*
X27248133Y-21538348D01*
X27248135Y-21538348D01*
X27248139Y-21538351D01*
X27404931Y-21593215D01*
X27570000Y-21611814D01*
X27735069Y-21593215D01*
X27891861Y-21538351D01*
X28032513Y-21449974D01*
X28149974Y-21332513D01*
X28238351Y-21191861D01*
X28293215Y-21035069D01*
X28311814Y-20870000D01*
X28293215Y-20704931D01*
X28238351Y-20548139D01*
X28238348Y-20548135D01*
X28238348Y-20548133D01*
X28238347Y-20548132D01*
X28149975Y-20407488D01*
X28032511Y-20290024D01*
X27891867Y-20201652D01*
X27891866Y-20201651D01*
X27891861Y-20201649D01*
X27815654Y-20174983D01*
X27735067Y-20146784D01*
X27570000Y-20128186D01*
X27404932Y-20146784D01*
X27248133Y-20201651D01*
X27248132Y-20201652D01*
X27107488Y-20290024D01*
X26990025Y-20407487D01*
X26990024Y-20407489D01*
X26934203Y-20496327D01*
X26895190Y-20524008D01*
X26848031Y-20515995D01*
X26828363Y-20496327D01*
X26759975Y-20387488D01*
X26642511Y-20270024D01*
X26501867Y-20181652D01*
X26501866Y-20181651D01*
X26501861Y-20181649D01*
X26386799Y-20141387D01*
X26345067Y-20126784D01*
X26180000Y-20108186D01*
X26014932Y-20126784D01*
X25858133Y-20181651D01*
X25858132Y-20181652D01*
X25717488Y-20270024D01*
X25600024Y-20387488D01*
X25511652Y-20528132D01*
X25511651Y-20528133D01*
X25456784Y-20684932D01*
X25438186Y-20849999D01*
X23704122Y-20849999D01*
X23715022Y-20833906D01*
X24628624Y-19920306D01*
X24672819Y-19902000D01*
X31317182Y-19902000D01*
X31361376Y-19920306D01*
X32284973Y-20843903D01*
X32298213Y-20863450D01*
X32371847Y-21035067D01*
X32412320Y-21129398D01*
X32427240Y-21159920D01*
X32428662Y-21163324D01*
X32431650Y-21171864D01*
X32520024Y-21312511D01*
X32637488Y-21429975D01*
X32778132Y-21518347D01*
X32778133Y-21518348D01*
X32778135Y-21518348D01*
X32778139Y-21518351D01*
X32934931Y-21573215D01*
X33100000Y-21591814D01*
X33265069Y-21573215D01*
X33421861Y-21518351D01*
X33462248Y-21492973D01*
X33509407Y-21484961D01*
X33548420Y-21512641D01*
X33558000Y-21545894D01*
X33557999Y-35137181D01*
X33539693Y-35181375D01*
X32778451Y-35942617D01*
X32760667Y-35955069D01*
X32495627Y-36078636D01*
X32477401Y-36088076D01*
X32473350Y-36089824D01*
X32468142Y-36091647D01*
X32468137Y-36091649D01*
X32327488Y-36180024D01*
X32210024Y-36297488D01*
X32121652Y-36438132D01*
X32121651Y-36438133D01*
X32066784Y-36594932D01*
X32048186Y-36760000D01*
X32066784Y-36925067D01*
X32066785Y-36925069D01*
X32114652Y-37061866D01*
X32121651Y-37081866D01*
X32121652Y-37081867D01*
X32210024Y-37222511D01*
X32327488Y-37339975D01*
X32468132Y-37428347D01*
X32468133Y-37428348D01*
X32468135Y-37428348D01*
X32468139Y-37428351D01*
X32624931Y-37483215D01*
X32790000Y-37501814D01*
X32955069Y-37483215D01*
X33111861Y-37428351D01*
X33252513Y-37339974D01*
X33369974Y-37222513D01*
X33458351Y-37081861D01*
X33469186Y-37050894D01*
X33473718Y-37040873D01*
X33484315Y-37022051D01*
X33585617Y-36760826D01*
X33599692Y-36739236D01*
X34506511Y-35832417D01*
X34509569Y-35829735D01*
X34537955Y-35807955D01*
X34629641Y-35688468D01*
X34687277Y-35549322D01*
X34702000Y-35437492D01*
X34702000Y-35437486D01*
X34706935Y-35400000D01*
X34702268Y-35364548D01*
X34702000Y-35360465D01*
X34702000Y-17057541D01*
X34702268Y-17053457D01*
X34706936Y-17018001D01*
X34706936Y-17017997D01*
X34687279Y-16868685D01*
X34687278Y-16868684D01*
X34687278Y-16868678D01*
X34630024Y-16730458D01*
X34629708Y-16729620D01*
X34629641Y-16729532D01*
X34592431Y-16681039D01*
X34537955Y-16610044D01*
X34509580Y-16588272D01*
X34506504Y-16585574D01*
X34357434Y-16436504D01*
X33604419Y-15683489D01*
X33601729Y-15680421D01*
X33579954Y-15652043D01*
X33542985Y-15623677D01*
X33539909Y-15620979D01*
X30968929Y-13049999D01*
X39058186Y-13049999D01*
X39076784Y-13215067D01*
X39131651Y-13371866D01*
X39131652Y-13371867D01*
X39220024Y-13512511D01*
X39337488Y-13629975D01*
X39478132Y-13718347D01*
X39478133Y-13718348D01*
X39478135Y-13718348D01*
X39478139Y-13718351D01*
X39634931Y-13773215D01*
X39800000Y-13791814D01*
X39965069Y-13773215D01*
X40121861Y-13718351D01*
X40262513Y-13629974D01*
X40379974Y-13512513D01*
X40468351Y-13371861D01*
X40523215Y-13215069D01*
X40541814Y-13050000D01*
X40523215Y-12884931D01*
X40468351Y-12728139D01*
X40468348Y-12728135D01*
X40468348Y-12728133D01*
X40468347Y-12728132D01*
X40379975Y-12587488D01*
X40262511Y-12470024D01*
X40121867Y-12381652D01*
X40121866Y-12381651D01*
X40121861Y-12381649D01*
X40022223Y-12346784D01*
X39965067Y-12326784D01*
X39800000Y-12308186D01*
X39634932Y-12326784D01*
X39478133Y-12381651D01*
X39478132Y-12381652D01*
X39337488Y-12470024D01*
X39220024Y-12587488D01*
X39131652Y-12728132D01*
X39131651Y-12728133D01*
X39076784Y-12884932D01*
X39058186Y-13049999D01*
X30968929Y-13049999D01*
X30965026Y-13046096D01*
X30951783Y-13026545D01*
X30837678Y-12760596D01*
X30837678Y-12760597D01*
X30822762Y-12730085D01*
X30821339Y-12726679D01*
X30820741Y-12724970D01*
X30818351Y-12718139D01*
X30736258Y-12587488D01*
X30729975Y-12577488D01*
X30612511Y-12460024D01*
X30471867Y-12371652D01*
X30471866Y-12371651D01*
X30471861Y-12371649D01*
X30400550Y-12346696D01*
X30315067Y-12316784D01*
X30150000Y-12298186D01*
X29984932Y-12316784D01*
X29828133Y-12371651D01*
X29828132Y-12371652D01*
X29687488Y-12460024D01*
X29570024Y-12577488D01*
X29481652Y-12718132D01*
X29481651Y-12718133D01*
X29426784Y-12874932D01*
X29408186Y-13040000D01*
X29426784Y-13205067D01*
X29481651Y-13361866D01*
X29481652Y-13361867D01*
X29570024Y-13502511D01*
X29687488Y-13619975D01*
X29828138Y-13708351D01*
X29847187Y-13715016D01*
X29859110Y-13720663D01*
X29870602Y-13727679D01*
X30136545Y-13841783D01*
X30156095Y-13855025D01*
X32737574Y-16436504D01*
X32740272Y-16439580D01*
X32762043Y-16467954D01*
X32792042Y-16490973D01*
X32792044Y-16490974D01*
X32792046Y-16490976D01*
X32799016Y-16496324D01*
X32802083Y-16499013D01*
X33171744Y-16868674D01*
X33539694Y-17236624D01*
X33558000Y-17280818D01*
X33558000Y-20154105D01*
X33539694Y-20198299D01*
X33495500Y-20216605D01*
X33462248Y-20207025D01*
X33421867Y-20181652D01*
X33421863Y-20181650D01*
X33421861Y-20181649D01*
X33407272Y-20176544D01*
X33402812Y-20174983D01*
X33390893Y-20169338D01*
X33387448Y-20167235D01*
X33379397Y-20162320D01*
X33113451Y-20048214D01*
X33093904Y-20034974D01*
X32960930Y-19902000D01*
X32012419Y-18953489D01*
X32009729Y-18950421D01*
X31987955Y-18922045D01*
X31957959Y-18899028D01*
X31868468Y-18830359D01*
X31729322Y-18772723D01*
X31729319Y-18772722D01*
X31729318Y-18772722D01*
X31729315Y-18772721D01*
X31616710Y-18757897D01*
X31616699Y-18757896D01*
X31580002Y-18753065D01*
X31579998Y-18753065D01*
X31544550Y-18757732D01*
X31540466Y-18758000D01*
X24449534Y-18758000D01*
X24445450Y-18757732D01*
X24410002Y-18753065D01*
X24409999Y-18753065D01*
X24395813Y-18754932D01*
X24373572Y-18757860D01*
X24373569Y-18757861D01*
X24372513Y-18758000D01*
X24372508Y-18758000D01*
X24317235Y-18765276D01*
X24239288Y-18775538D01*
X24219299Y-18789862D01*
X24121535Y-18830357D01*
X24121530Y-18830360D01*
X24032541Y-18898643D01*
X24032536Y-18898647D01*
X24002042Y-18922047D01*
X23980271Y-18950418D01*
X23977574Y-18953493D01*
X22906096Y-20024971D01*
X22886546Y-20038213D01*
X22620591Y-20152324D01*
X22620591Y-20152325D01*
X22590089Y-20167235D01*
X22586689Y-20168655D01*
X22578144Y-20171646D01*
X22578137Y-20171649D01*
X22437488Y-20260024D01*
X22320024Y-20377488D01*
X22231652Y-20518132D01*
X22231651Y-20518133D01*
X22176784Y-20674932D01*
X22158186Y-20840000D01*
X18960687Y-20840000D01*
X18943215Y-20684931D01*
X18888351Y-20528139D01*
X18888348Y-20528135D01*
X18888348Y-20528133D01*
X18888347Y-20528132D01*
X18799975Y-20387488D01*
X18682511Y-20270024D01*
X18541867Y-20181652D01*
X18541866Y-20181651D01*
X18541861Y-20181649D01*
X18426799Y-20141387D01*
X18385067Y-20126784D01*
X18220000Y-20108186D01*
X18054932Y-20126784D01*
X17953378Y-20162320D01*
X17898139Y-20181649D01*
X17898138Y-20181649D01*
X17898134Y-20181651D01*
X17811207Y-20236270D01*
X17764048Y-20244282D01*
X17744704Y-20236269D01*
X17641867Y-20171652D01*
X17641866Y-20171651D01*
X17641861Y-20171649D01*
X17549765Y-20139423D01*
X17485067Y-20116784D01*
X17320000Y-20098186D01*
X17154932Y-20116784D01*
X16998133Y-20171651D01*
X16998132Y-20171652D01*
X16903252Y-20231269D01*
X16856092Y-20239282D01*
X16836748Y-20231269D01*
X16741867Y-20171652D01*
X16741866Y-20171651D01*
X16741861Y-20171649D01*
X16649765Y-20139423D01*
X16585067Y-20116784D01*
X16420000Y-20098186D01*
X16254932Y-20116784D01*
X16098133Y-20171651D01*
X16098132Y-20171652D01*
X16003252Y-20231269D01*
X15956092Y-20239282D01*
X15936748Y-20231269D01*
X15841867Y-20171652D01*
X15841866Y-20171651D01*
X15841861Y-20171649D01*
X15749765Y-20139423D01*
X15685067Y-20116784D01*
X15520000Y-20098186D01*
X15354932Y-20116784D01*
X15253364Y-20152325D01*
X15198139Y-20171649D01*
X15198138Y-20171649D01*
X15198134Y-20171651D01*
X15095292Y-20236270D01*
X15048133Y-20244282D01*
X15028789Y-20236269D01*
X14941867Y-20181652D01*
X14941866Y-20181651D01*
X14941861Y-20181649D01*
X14826799Y-20141387D01*
X14785067Y-20126784D01*
X14620000Y-20108186D01*
X14454932Y-20126784D01*
X14353378Y-20162320D01*
X14298139Y-20181649D01*
X14298138Y-20181649D01*
X14298134Y-20181651D01*
X14211207Y-20236270D01*
X14164048Y-20244282D01*
X14144704Y-20236269D01*
X14041867Y-20171652D01*
X14041866Y-20171651D01*
X14041861Y-20171649D01*
X13949765Y-20139423D01*
X13885067Y-20116784D01*
X13720000Y-20098186D01*
X13554932Y-20116784D01*
X13398133Y-20171651D01*
X13398132Y-20171652D01*
X13257488Y-20260024D01*
X13140024Y-20377488D01*
X13051652Y-20518132D01*
X13051651Y-20518133D01*
X12996784Y-20674932D01*
X12978186Y-20840000D01*
X12452000Y-20840000D01*
X12452000Y-15022817D01*
X12470305Y-14978624D01*
X13563906Y-13885022D01*
X13583450Y-13871784D01*
X13769840Y-13791814D01*
X13849403Y-13757678D01*
X13849401Y-13757678D01*
X13879933Y-13742752D01*
X13883303Y-13741345D01*
X13891861Y-13738351D01*
X14032513Y-13649974D01*
X14149974Y-13532513D01*
X14238351Y-13391861D01*
X14293215Y-13235069D01*
X14311814Y-13070000D01*
X14308434Y-13040000D01*
X22598186Y-13040000D01*
X22616784Y-13205067D01*
X22671651Y-13361866D01*
X22671652Y-13361867D01*
X22760024Y-13502511D01*
X22877488Y-13619975D01*
X23018132Y-13708347D01*
X23018133Y-13708348D01*
X23018135Y-13708348D01*
X23018139Y-13708351D01*
X23174931Y-13763215D01*
X23340000Y-13781814D01*
X23505069Y-13763215D01*
X23661861Y-13708351D01*
X23802513Y-13619974D01*
X23919974Y-13502513D01*
X24008351Y-13361861D01*
X24063215Y-13205069D01*
X24080687Y-13050000D01*
X24218186Y-13050000D01*
X24236784Y-13215067D01*
X24291651Y-13371866D01*
X24291652Y-13371867D01*
X24380024Y-13512511D01*
X24497488Y-13629975D01*
X24638132Y-13718347D01*
X24638133Y-13718348D01*
X24638135Y-13718348D01*
X24638139Y-13718351D01*
X24794931Y-13773215D01*
X24960000Y-13791814D01*
X25125069Y-13773215D01*
X25281861Y-13718351D01*
X25422513Y-13629974D01*
X25539974Y-13512513D01*
X25582079Y-13445502D01*
X25621092Y-13417821D01*
X25668252Y-13425834D01*
X25687920Y-13445502D01*
X25730024Y-13512511D01*
X25847488Y-13629975D01*
X25988132Y-13718347D01*
X25988133Y-13718348D01*
X25988135Y-13718348D01*
X25988139Y-13718351D01*
X26144931Y-13773215D01*
X26310000Y-13791814D01*
X26475069Y-13773215D01*
X26631861Y-13718351D01*
X26772513Y-13629974D01*
X26889974Y-13512513D01*
X26978351Y-13371861D01*
X27033215Y-13215069D01*
X27051814Y-13050000D01*
X27033215Y-12884931D01*
X26978351Y-12728139D01*
X26978348Y-12728135D01*
X26978348Y-12728133D01*
X26978347Y-12728132D01*
X26889975Y-12587488D01*
X26772511Y-12470024D01*
X26631867Y-12381652D01*
X26631866Y-12381651D01*
X26631861Y-12381649D01*
X26532223Y-12346784D01*
X26475067Y-12326784D01*
X26310000Y-12308186D01*
X26144932Y-12326784D01*
X25988133Y-12381651D01*
X25988132Y-12381652D01*
X25847488Y-12470024D01*
X25730025Y-12587487D01*
X25730024Y-12587489D01*
X25687920Y-12654497D01*
X25648907Y-12682178D01*
X25601748Y-12674165D01*
X25582080Y-12654497D01*
X25539975Y-12587489D01*
X25539974Y-12587487D01*
X25422511Y-12470024D01*
X25281867Y-12381652D01*
X25281866Y-12381651D01*
X25281861Y-12381649D01*
X25182223Y-12346784D01*
X25125067Y-12326784D01*
X24960000Y-12308186D01*
X24794932Y-12326784D01*
X24638133Y-12381651D01*
X24638132Y-12381652D01*
X24497488Y-12470024D01*
X24380024Y-12587488D01*
X24291652Y-12728132D01*
X24291651Y-12728133D01*
X24236784Y-12884932D01*
X24218186Y-13050000D01*
X24080687Y-13050000D01*
X24081814Y-13040000D01*
X24063215Y-12874931D01*
X24008351Y-12718139D01*
X24008348Y-12718135D01*
X24008348Y-12718133D01*
X24008347Y-12718132D01*
X23919975Y-12577488D01*
X23802511Y-12460024D01*
X23661867Y-12371652D01*
X23661866Y-12371651D01*
X23661861Y-12371649D01*
X23590550Y-12346696D01*
X23505067Y-12316784D01*
X23340000Y-12298186D01*
X23174932Y-12316784D01*
X23018133Y-12371651D01*
X23018132Y-12371652D01*
X22877488Y-12460024D01*
X22760024Y-12577488D01*
X22671652Y-12718132D01*
X22671651Y-12718133D01*
X22616784Y-12874932D01*
X22598186Y-13040000D01*
X14308434Y-13040000D01*
X14293215Y-12904931D01*
X14238351Y-12748139D01*
X14238348Y-12748135D01*
X14238348Y-12748133D01*
X14238347Y-12748132D01*
X14149975Y-12607488D01*
X14032511Y-12490024D01*
X13891867Y-12401652D01*
X13891866Y-12401651D01*
X13891861Y-12401649D01*
X13806126Y-12371649D01*
X13735067Y-12346784D01*
X13570000Y-12328186D01*
X13404932Y-12346784D01*
X13248133Y-12401651D01*
X13248132Y-12401652D01*
X13134352Y-12473145D01*
X13087192Y-12481158D01*
X13056906Y-12464419D01*
X13052511Y-12460024D01*
X12911867Y-12371652D01*
X12911866Y-12371651D01*
X12911861Y-12371649D01*
X12840550Y-12346696D01*
X12755067Y-12316784D01*
X12590000Y-12298186D01*
X12424932Y-12316784D01*
X12268133Y-12371651D01*
X12268132Y-12371652D01*
X12127488Y-12460024D01*
X12010024Y-12577488D01*
X11921650Y-12718136D01*
X11914983Y-12737187D01*
X11909338Y-12749106D01*
X11902319Y-12760603D01*
X11902317Y-12760607D01*
X11788215Y-13026545D01*
X11774973Y-13046095D01*
X10723497Y-14097571D01*
X10720422Y-14100268D01*
X10692047Y-14122042D01*
X10692044Y-14122045D01*
X10600360Y-14241529D01*
X10542722Y-14380681D01*
X10542721Y-14380684D01*
X10533238Y-14452721D01*
X10528000Y-14492508D01*
X10528000Y-14492513D01*
X10527861Y-14493569D01*
X10527860Y-14493579D01*
X10523065Y-14529998D01*
X10523065Y-14530001D01*
X10527732Y-14565450D01*
X10528000Y-14569534D01*
X10528000Y-21348182D01*
X10509694Y-21392376D01*
X10465500Y-21410682D01*
X10421306Y-21392376D01*
X9672025Y-20643095D01*
X9664667Y-20634237D01*
X9652463Y-20616432D01*
X9394514Y-20336014D01*
X9390831Y-20332160D01*
X9390830Y-20332159D01*
X9343552Y-20288524D01*
X9340973Y-20286593D01*
X9341035Y-20286509D01*
X9331757Y-20279270D01*
X9312511Y-20260024D01*
X9171867Y-20171652D01*
X9171866Y-20171651D01*
X9171861Y-20171649D01*
X9079765Y-20139423D01*
X9015067Y-20116784D01*
X8850000Y-20098186D01*
X8684932Y-20116784D01*
X8528133Y-20171651D01*
X8528132Y-20171652D01*
X8387487Y-20260025D01*
X8383346Y-20264166D01*
X8339150Y-20282468D01*
X8307551Y-20273889D01*
X8296121Y-20267190D01*
X8161258Y-20188145D01*
X8146115Y-20179938D01*
X8142317Y-20178041D01*
X8139652Y-20176544D01*
X8131864Y-20171651D01*
X8131861Y-20171649D01*
X8094078Y-20158428D01*
X8054293Y-20142706D01*
X8054291Y-20142705D01*
X8054288Y-20142704D01*
X8051252Y-20142255D01*
X8039769Y-20139423D01*
X7975073Y-20116786D01*
X7975065Y-20116784D01*
X7810000Y-20098186D01*
X7644932Y-20116784D01*
X7488133Y-20171651D01*
X7488132Y-20171652D01*
X7347488Y-20260024D01*
X7230024Y-20377488D01*
X7141652Y-20518132D01*
X7141651Y-20518133D01*
X7086784Y-20674932D01*
X7068186Y-20840000D01*
X381500Y-20840000D01*
X381500Y-13054999D01*
X7223186Y-13054999D01*
X7241784Y-13220067D01*
X7271696Y-13305550D01*
X7294899Y-13371861D01*
X7296651Y-13376866D01*
X7296652Y-13376867D01*
X7385024Y-13517511D01*
X7502488Y-13634975D01*
X7643132Y-13723347D01*
X7643133Y-13723348D01*
X7643135Y-13723348D01*
X7643139Y-13723351D01*
X7799931Y-13778215D01*
X7965000Y-13796814D01*
X8130069Y-13778215D01*
X8286861Y-13723351D01*
X8427513Y-13634974D01*
X8544974Y-13517513D01*
X8633351Y-13376861D01*
X8688215Y-13220069D01*
X8706814Y-13055000D01*
X8688215Y-12889931D01*
X8633351Y-12733139D01*
X8633348Y-12733135D01*
X8633348Y-12733133D01*
X8633347Y-12733132D01*
X8544975Y-12592488D01*
X8427511Y-12475024D01*
X8286867Y-12386652D01*
X8286866Y-12386651D01*
X8286861Y-12386649D01*
X8215550Y-12361696D01*
X8130067Y-12331784D01*
X7965000Y-12313186D01*
X7799932Y-12331784D01*
X7643133Y-12386651D01*
X7643132Y-12386652D01*
X7502488Y-12475024D01*
X7385024Y-12592488D01*
X7296652Y-12733132D01*
X7296651Y-12733133D01*
X7241784Y-12889932D01*
X7223186Y-13054999D01*
X381500Y-13054999D01*
X381500Y-7524875D01*
X399806Y-7480681D01*
X444000Y-7462375D01*
X488194Y-7480681D01*
X537488Y-7529975D01*
X678132Y-7618347D01*
X678133Y-7618348D01*
X678135Y-7618348D01*
X678139Y-7618351D01*
X834931Y-7673215D01*
X1000000Y-7691814D01*
X1165069Y-7673215D01*
X1321861Y-7618351D01*
X1321871Y-7618344D01*
X1322870Y-7617864D01*
X1323323Y-7617838D01*
X1325174Y-7617191D01*
X1325360Y-7617723D01*
X1370629Y-7615172D01*
X1377123Y-7617862D01*
X1378138Y-7618350D01*
X1378139Y-7618351D01*
X1534931Y-7673215D01*
X1700000Y-7691814D01*
X1865069Y-7673215D01*
X2021861Y-7618351D01*
X2162513Y-7529974D01*
X2279974Y-7412513D01*
X2368351Y-7271861D01*
X2423215Y-7115069D01*
X2441814Y-6950000D01*
X2423215Y-6784931D01*
X2368351Y-6628139D01*
X2368348Y-6628135D01*
X2368348Y-6628133D01*
X2368347Y-6628132D01*
X2279975Y-6487488D01*
X2179282Y-6386795D01*
X2160976Y-6342601D01*
X2179282Y-6298407D01*
X2189111Y-6288578D01*
X2262303Y-6215386D01*
X2350680Y-6074734D01*
X2405544Y-5917942D01*
X2424143Y-5752873D01*
X2405544Y-5587804D01*
X2350680Y-5431012D01*
X2350677Y-5431008D01*
X2350677Y-5431006D01*
X2350676Y-5431005D01*
X2312344Y-5370000D01*
X30138186Y-5370000D01*
X30156784Y-5535067D01*
X30211651Y-5691866D01*
X30211652Y-5691867D01*
X30300024Y-5832511D01*
X30417488Y-5949975D01*
X30558132Y-6038347D01*
X30558133Y-6038348D01*
X30558135Y-6038348D01*
X30558139Y-6038351D01*
X30714931Y-6093215D01*
X30880000Y-6111814D01*
X31045069Y-6093215D01*
X31201861Y-6038351D01*
X31201865Y-6038348D01*
X31204624Y-6037383D01*
X31252384Y-6040065D01*
X31258509Y-6043450D01*
X31298139Y-6068351D01*
X31454931Y-6123215D01*
X31620000Y-6141814D01*
X31785069Y-6123215D01*
X31941861Y-6068351D01*
X32082513Y-5979974D01*
X32199974Y-5862513D01*
X32288351Y-5721861D01*
X32343215Y-5565069D01*
X32361814Y-5400000D01*
X32355054Y-5340000D01*
X40908186Y-5340000D01*
X40926784Y-5505067D01*
X40981651Y-5661866D01*
X40981652Y-5661867D01*
X41070024Y-5802511D01*
X41187488Y-5919975D01*
X41328132Y-6008347D01*
X41328133Y-6008348D01*
X41328135Y-6008348D01*
X41328139Y-6008351D01*
X41484931Y-6063215D01*
X41650000Y-6081814D01*
X41815069Y-6063215D01*
X41971861Y-6008351D01*
X42112513Y-5919974D01*
X42229974Y-5802513D01*
X42318351Y-5661861D01*
X42373215Y-5505069D01*
X42391814Y-5340000D01*
X42373215Y-5174931D01*
X42318351Y-5018139D01*
X42318348Y-5018135D01*
X42318348Y-5018133D01*
X42318347Y-5018132D01*
X42229975Y-4877488D01*
X42112511Y-4760024D01*
X41971867Y-4671652D01*
X41971866Y-4671651D01*
X41971861Y-4671649D01*
X41876701Y-4638351D01*
X41815067Y-4616784D01*
X41650000Y-4598186D01*
X41484932Y-4616784D01*
X41328133Y-4671651D01*
X41328132Y-4671652D01*
X41187488Y-4760024D01*
X41070024Y-4877488D01*
X40981652Y-5018132D01*
X40981651Y-5018133D01*
X40926784Y-5174932D01*
X40908186Y-5340000D01*
X32355054Y-5340000D01*
X32343215Y-5234931D01*
X32288351Y-5078139D01*
X32288348Y-5078135D01*
X32288348Y-5078133D01*
X32288347Y-5078132D01*
X32199975Y-4937488D01*
X32082511Y-4820024D01*
X31941867Y-4731652D01*
X31941866Y-4731651D01*
X31941861Y-4731649D01*
X31856126Y-4701649D01*
X31785067Y-4676784D01*
X31620000Y-4658186D01*
X31454930Y-4676785D01*
X31295374Y-4732616D01*
X31247614Y-4729934D01*
X31241480Y-4726543D01*
X31201867Y-4701652D01*
X31201866Y-4701651D01*
X31201861Y-4701649D01*
X31106701Y-4668351D01*
X31045067Y-4646784D01*
X30880000Y-4628186D01*
X30714932Y-4646784D01*
X30558133Y-4701651D01*
X30558132Y-4701652D01*
X30417488Y-4790024D01*
X30300024Y-4907488D01*
X30211652Y-5048132D01*
X30211651Y-5048133D01*
X30156784Y-5204932D01*
X30138186Y-5370000D01*
X2312344Y-5370000D01*
X2262304Y-5290361D01*
X2144840Y-5172897D01*
X2004196Y-5084525D01*
X2004195Y-5084524D01*
X2004190Y-5084522D01*
X1900214Y-5048139D01*
X1847396Y-5029657D01*
X1682329Y-5011059D01*
X1517259Y-5029658D01*
X1461255Y-5049254D01*
X1413494Y-5046571D01*
X1381620Y-5010903D01*
X1384303Y-4963142D01*
X1396416Y-4946070D01*
X1479974Y-4862513D01*
X1568351Y-4721861D01*
X1623215Y-4565069D01*
X1641814Y-4400000D01*
X1623215Y-4234931D01*
X1610992Y-4200000D01*
X3658186Y-4200000D01*
X3676784Y-4365067D01*
X3689008Y-4400000D01*
X3727148Y-4508999D01*
X3731651Y-4521866D01*
X3731652Y-4521867D01*
X3820024Y-4662511D01*
X3937488Y-4779975D01*
X4078132Y-4868347D01*
X4078133Y-4868348D01*
X4078135Y-4868348D01*
X4078139Y-4868351D01*
X4234931Y-4923215D01*
X4400000Y-4941814D01*
X4565069Y-4923215D01*
X4721861Y-4868351D01*
X4862513Y-4779974D01*
X4979974Y-4662513D01*
X5068351Y-4521861D01*
X5123215Y-4365069D01*
X5141814Y-4200000D01*
X5123215Y-4034931D01*
X5100495Y-3970000D01*
X7228186Y-3970000D01*
X7246784Y-4135067D01*
X7269505Y-4200000D01*
X7298377Y-4282511D01*
X7301651Y-4291866D01*
X7301652Y-4291867D01*
X7390024Y-4432511D01*
X7507488Y-4549975D01*
X7648132Y-4638347D01*
X7648133Y-4638348D01*
X7648135Y-4638348D01*
X7648139Y-4638351D01*
X7804931Y-4693215D01*
X7970000Y-4711814D01*
X8135069Y-4693215D01*
X8291861Y-4638351D01*
X8432513Y-4549974D01*
X8549974Y-4432513D01*
X8638351Y-4291861D01*
X8693215Y-4135069D01*
X8711814Y-3970000D01*
X8694913Y-3820000D01*
X9628186Y-3820000D01*
X9646784Y-3985067D01*
X9664233Y-4034932D01*
X9699272Y-4135069D01*
X9701651Y-4141866D01*
X9701652Y-4141867D01*
X9790024Y-4282511D01*
X9907488Y-4399975D01*
X10048132Y-4488347D01*
X10048133Y-4488348D01*
X10048135Y-4488348D01*
X10048139Y-4488351D01*
X10204931Y-4543215D01*
X10370000Y-4561814D01*
X10535069Y-4543215D01*
X10691861Y-4488351D01*
X10832513Y-4399974D01*
X10875807Y-4356678D01*
X10919999Y-4338374D01*
X10964191Y-4356677D01*
X11017487Y-4409974D01*
X11017489Y-4409975D01*
X11017490Y-4409976D01*
X11158132Y-4498347D01*
X11158133Y-4498348D01*
X11158135Y-4498348D01*
X11158139Y-4498351D01*
X11314931Y-4553215D01*
X11480000Y-4571814D01*
X11645069Y-4553215D01*
X11801861Y-4498351D01*
X11942513Y-4409974D01*
X12059974Y-4292513D01*
X12148351Y-4151861D01*
X12203215Y-3995069D01*
X12216180Y-3880000D01*
X12408186Y-3880000D01*
X12426784Y-4045067D01*
X12438357Y-4078139D01*
X12476495Y-4187133D01*
X12481651Y-4201866D01*
X12481652Y-4201867D01*
X12570024Y-4342511D01*
X12687488Y-4459975D01*
X12828132Y-4548347D01*
X12828133Y-4548348D01*
X12828135Y-4548348D01*
X12828139Y-4548351D01*
X12984931Y-4603215D01*
X13150000Y-4621814D01*
X13315069Y-4603215D01*
X13471861Y-4548351D01*
X13612513Y-4459974D01*
X13729974Y-4342513D01*
X13818351Y-4201861D01*
X13873215Y-4045069D01*
X13891814Y-3880000D01*
X13873215Y-3714931D01*
X13818351Y-3558139D01*
X13818348Y-3558135D01*
X13818348Y-3558133D01*
X13818347Y-3558132D01*
X13729975Y-3417488D01*
X13632487Y-3320000D01*
X18048186Y-3320000D01*
X18066784Y-3485067D01*
X18121651Y-3641866D01*
X18121652Y-3641867D01*
X18210024Y-3782511D01*
X18327488Y-3899975D01*
X18468132Y-3988347D01*
X18468133Y-3988348D01*
X18468135Y-3988348D01*
X18468139Y-3988351D01*
X18624931Y-4043215D01*
X18790000Y-4061814D01*
X18955069Y-4043215D01*
X19078570Y-4000000D01*
X21558186Y-4000000D01*
X21576784Y-4165067D01*
X21631651Y-4321866D01*
X21631652Y-4321867D01*
X21720024Y-4462511D01*
X21837488Y-4579975D01*
X21978132Y-4668347D01*
X21978133Y-4668348D01*
X21978135Y-4668348D01*
X21978139Y-4668351D01*
X22134931Y-4723215D01*
X22300000Y-4741814D01*
X22465069Y-4723215D01*
X22621861Y-4668351D01*
X22762513Y-4579974D01*
X22833488Y-4508999D01*
X23579186Y-4508999D01*
X23597784Y-4674067D01*
X23621490Y-4741813D01*
X23638359Y-4790024D01*
X23652651Y-4830866D01*
X23652652Y-4830867D01*
X23741024Y-4971511D01*
X23858488Y-5088975D01*
X23999132Y-5177347D01*
X23999133Y-5177348D01*
X23999135Y-5177348D01*
X23999139Y-5177351D01*
X24155931Y-5232215D01*
X24321000Y-5250814D01*
X24486069Y-5232215D01*
X24642861Y-5177351D01*
X24783513Y-5088974D01*
X24900974Y-4971513D01*
X24989351Y-4830861D01*
X25044215Y-4674069D01*
X25062814Y-4509000D01*
X25044215Y-4343931D01*
X24989351Y-4187139D01*
X24989348Y-4187135D01*
X24989348Y-4187133D01*
X24989347Y-4187132D01*
X24900975Y-4046488D01*
X24783511Y-3929024D01*
X24689574Y-3870000D01*
X26698186Y-3870000D01*
X26716784Y-4035067D01*
X26726143Y-4061813D01*
X26762273Y-4165067D01*
X26771651Y-4191866D01*
X26771652Y-4191867D01*
X26860024Y-4332511D01*
X26977488Y-4449975D01*
X27118132Y-4538347D01*
X27118133Y-4538348D01*
X27118135Y-4538348D01*
X27118139Y-4538351D01*
X27274931Y-4593215D01*
X27440000Y-4611814D01*
X27605069Y-4593215D01*
X27761861Y-4538351D01*
X27902513Y-4449974D01*
X28019974Y-4332513D01*
X28108351Y-4191861D01*
X28163215Y-4035069D01*
X28181814Y-3870000D01*
X28168293Y-3750000D01*
X41708186Y-3750000D01*
X41726784Y-3915067D01*
X41752437Y-3988379D01*
X41778133Y-4061814D01*
X41781651Y-4071866D01*
X41781652Y-4071867D01*
X41870024Y-4212511D01*
X41987488Y-4329975D01*
X42128132Y-4418347D01*
X42128133Y-4418348D01*
X42128135Y-4418348D01*
X42128139Y-4418351D01*
X42284931Y-4473215D01*
X42450000Y-4491814D01*
X42615069Y-4473215D01*
X42771861Y-4418351D01*
X42912513Y-4329974D01*
X43029974Y-4212513D01*
X43118351Y-4071861D01*
X43173215Y-3915069D01*
X43191814Y-3750000D01*
X43173215Y-3584931D01*
X43118351Y-3428139D01*
X43118348Y-3428135D01*
X43118348Y-3428133D01*
X43118347Y-3428132D01*
X43029975Y-3287488D01*
X42912511Y-3170024D01*
X42771867Y-3081652D01*
X42771866Y-3081651D01*
X42771861Y-3081649D01*
X42700550Y-3056696D01*
X42615067Y-3026784D01*
X42450000Y-3008186D01*
X42284932Y-3026784D01*
X42128133Y-3081651D01*
X42128132Y-3081652D01*
X41987488Y-3170024D01*
X41870024Y-3287488D01*
X41781652Y-3428132D01*
X41781651Y-3428133D01*
X41726784Y-3584932D01*
X41708186Y-3750000D01*
X28168293Y-3750000D01*
X28163215Y-3704931D01*
X28108351Y-3548139D01*
X28108348Y-3548135D01*
X28108348Y-3548133D01*
X28108347Y-3548132D01*
X28019975Y-3407488D01*
X27902511Y-3290024D01*
X27761867Y-3201652D01*
X27761866Y-3201651D01*
X27761861Y-3201649D01*
X27671482Y-3170024D01*
X27605067Y-3146784D01*
X27440000Y-3128186D01*
X27274932Y-3146784D01*
X27118133Y-3201651D01*
X27118132Y-3201652D01*
X26977488Y-3290024D01*
X26860024Y-3407488D01*
X26771652Y-3548132D01*
X26771651Y-3548133D01*
X26716784Y-3704932D01*
X26698186Y-3870000D01*
X24689574Y-3870000D01*
X24642867Y-3840652D01*
X24642866Y-3840651D01*
X24642861Y-3840649D01*
X24540785Y-3804931D01*
X24486067Y-3785784D01*
X24321000Y-3767186D01*
X24155932Y-3785784D01*
X23999133Y-3840651D01*
X23999132Y-3840652D01*
X23858488Y-3929024D01*
X23741024Y-4046488D01*
X23652652Y-4187132D01*
X23652651Y-4187133D01*
X23597784Y-4343932D01*
X23579186Y-4508999D01*
X22833488Y-4508999D01*
X22879974Y-4462513D01*
X22968351Y-4321861D01*
X23023215Y-4165069D01*
X23041814Y-4000000D01*
X23023215Y-3834931D01*
X22968351Y-3678139D01*
X22968348Y-3678135D01*
X22968348Y-3678133D01*
X22968347Y-3678132D01*
X22879975Y-3537488D01*
X22762511Y-3420024D01*
X22621867Y-3331652D01*
X22621866Y-3331651D01*
X22621861Y-3331649D01*
X22531482Y-3300024D01*
X22465067Y-3276784D01*
X22300000Y-3258186D01*
X22134932Y-3276784D01*
X21978133Y-3331651D01*
X21978132Y-3331652D01*
X21837488Y-3420024D01*
X21720024Y-3537488D01*
X21631652Y-3678132D01*
X21631651Y-3678133D01*
X21576784Y-3834932D01*
X21558186Y-4000000D01*
X19078570Y-4000000D01*
X19111861Y-3988351D01*
X19252513Y-3899974D01*
X19369974Y-3782513D01*
X19458351Y-3641861D01*
X19513215Y-3485069D01*
X19531814Y-3320000D01*
X19513215Y-3154931D01*
X19458351Y-2998139D01*
X19458348Y-2998135D01*
X19458348Y-2998133D01*
X19458347Y-2998132D01*
X19369975Y-2857488D01*
X19252511Y-2740024D01*
X19111867Y-2651652D01*
X19111866Y-2651651D01*
X19111861Y-2651649D01*
X19040550Y-2626696D01*
X18955067Y-2596784D01*
X18790000Y-2578186D01*
X18624932Y-2596784D01*
X18468133Y-2651651D01*
X18468132Y-2651652D01*
X18327488Y-2740024D01*
X18210024Y-2857488D01*
X18121652Y-2998132D01*
X18121651Y-2998133D01*
X18066784Y-3154932D01*
X18048186Y-3320000D01*
X13632487Y-3320000D01*
X13612511Y-3300024D01*
X13471867Y-3211652D01*
X13471866Y-3211651D01*
X13471861Y-3211649D01*
X13352904Y-3170024D01*
X13315067Y-3156784D01*
X13150000Y-3138186D01*
X12984932Y-3156784D01*
X12828133Y-3211651D01*
X12828132Y-3211652D01*
X12687488Y-3300024D01*
X12570024Y-3417488D01*
X12481652Y-3558132D01*
X12481651Y-3558133D01*
X12426784Y-3714932D01*
X12408186Y-3880000D01*
X12216180Y-3880000D01*
X12221814Y-3830000D01*
X12203215Y-3664931D01*
X12148351Y-3508139D01*
X12148348Y-3508135D01*
X12148348Y-3508133D01*
X12148347Y-3508132D01*
X12059975Y-3367488D01*
X11942511Y-3250024D01*
X11801867Y-3161652D01*
X11801866Y-3161651D01*
X11801861Y-3161649D01*
X11730550Y-3136696D01*
X11645067Y-3106784D01*
X11480000Y-3088186D01*
X11314932Y-3106784D01*
X11158133Y-3161651D01*
X11158132Y-3161652D01*
X11017488Y-3250024D01*
X11017487Y-3250025D01*
X10974194Y-3293319D01*
X10930000Y-3311625D01*
X10885806Y-3293319D01*
X10832511Y-3240024D01*
X10691867Y-3151652D01*
X10691866Y-3151651D01*
X10691861Y-3151649D01*
X10620550Y-3126696D01*
X10535067Y-3096784D01*
X10370000Y-3078186D01*
X10204932Y-3096784D01*
X10048133Y-3151651D01*
X10048132Y-3151652D01*
X9907488Y-3240024D01*
X9790024Y-3357488D01*
X9701652Y-3498132D01*
X9701651Y-3498133D01*
X9646784Y-3654932D01*
X9628186Y-3820000D01*
X8694913Y-3820000D01*
X8693215Y-3804931D01*
X8638351Y-3648139D01*
X8638348Y-3648135D01*
X8638348Y-3648133D01*
X8638347Y-3648132D01*
X8549975Y-3507488D01*
X8432511Y-3390024D01*
X8291867Y-3301652D01*
X8291866Y-3301651D01*
X8291861Y-3301649D01*
X8220550Y-3276696D01*
X8135067Y-3246784D01*
X7970000Y-3228186D01*
X7804932Y-3246784D01*
X7648133Y-3301651D01*
X7648132Y-3301652D01*
X7507488Y-3390024D01*
X7390024Y-3507488D01*
X7301652Y-3648132D01*
X7301651Y-3648133D01*
X7246784Y-3804932D01*
X7228186Y-3970000D01*
X5100495Y-3970000D01*
X5068351Y-3878139D01*
X5068348Y-3878135D01*
X5068348Y-3878133D01*
X5068347Y-3878132D01*
X4979975Y-3737488D01*
X4862511Y-3620024D01*
X4721867Y-3531652D01*
X4721866Y-3531651D01*
X4721861Y-3531649D01*
X4626075Y-3498132D01*
X4565067Y-3476784D01*
X4400000Y-3458186D01*
X4234932Y-3476784D01*
X4078133Y-3531651D01*
X4078132Y-3531652D01*
X3937488Y-3620024D01*
X3820024Y-3737488D01*
X3731652Y-3878132D01*
X3731651Y-3878133D01*
X3676784Y-4034932D01*
X3658186Y-4200000D01*
X1610992Y-4200000D01*
X1568351Y-4078139D01*
X1568348Y-4078135D01*
X1568348Y-4078133D01*
X1568347Y-4078132D01*
X1566097Y-4074551D01*
X1558084Y-4027392D01*
X1585765Y-3988379D01*
X1612019Y-3979192D01*
X1665069Y-3973215D01*
X1821861Y-3918351D01*
X1962513Y-3829974D01*
X2079974Y-3712513D01*
X2168351Y-3571861D01*
X2223215Y-3415069D01*
X2241814Y-3250000D01*
X2223215Y-3084931D01*
X2168351Y-2928139D01*
X2168348Y-2928135D01*
X2168348Y-2928133D01*
X2168347Y-2928132D01*
X2079975Y-2787488D01*
X1962511Y-2670024D01*
X1821867Y-2581652D01*
X1821866Y-2581651D01*
X1821861Y-2581649D01*
X1738590Y-2552511D01*
X1665067Y-2526784D01*
X1500000Y-2508186D01*
X1334932Y-2526784D01*
X1178133Y-2581651D01*
X1178132Y-2581652D01*
X1037488Y-2670024D01*
X920024Y-2787488D01*
X831652Y-2928132D01*
X831651Y-2928133D01*
X776784Y-3084932D01*
X758186Y-3250000D01*
X776784Y-3415067D01*
X806696Y-3500550D01*
X826847Y-3558139D01*
X831651Y-3571866D01*
X831653Y-3571870D01*
X833903Y-3575450D01*
X841915Y-3622610D01*
X814232Y-3661621D01*
X787981Y-3670807D01*
X734931Y-3676784D01*
X578133Y-3731651D01*
X578132Y-3731652D01*
X477252Y-3795039D01*
X430092Y-3803052D01*
X391080Y-3775371D01*
X381500Y-3742119D01*
X381500Y-2090000D01*
X6388186Y-2090000D01*
X6406784Y-2255067D01*
X6461651Y-2411866D01*
X6461652Y-2411867D01*
X6550024Y-2552511D01*
X6667488Y-2669975D01*
X6808132Y-2758347D01*
X6808133Y-2758348D01*
X6808135Y-2758348D01*
X6808139Y-2758351D01*
X6964931Y-2813215D01*
X7130000Y-2831814D01*
X7295069Y-2813215D01*
X7451861Y-2758351D01*
X7592513Y-2669974D01*
X7709974Y-2552513D01*
X7798351Y-2411861D01*
X7853215Y-2255069D01*
X7870687Y-2100000D01*
X12448186Y-2100000D01*
X12466784Y-2265067D01*
X12521651Y-2421866D01*
X12521652Y-2421867D01*
X12610024Y-2562511D01*
X12727488Y-2679975D01*
X12868132Y-2768347D01*
X12868133Y-2768348D01*
X12868135Y-2768348D01*
X12868139Y-2768351D01*
X13024931Y-2823215D01*
X13190000Y-2841814D01*
X13355069Y-2823215D01*
X13511861Y-2768351D01*
X13652513Y-2679974D01*
X13769974Y-2562513D01*
X13858351Y-2421861D01*
X13913215Y-2265069D01*
X13931814Y-2100000D01*
X13913215Y-1934931D01*
X13858351Y-1778139D01*
X13858348Y-1778135D01*
X13858348Y-1778133D01*
X13858347Y-1778132D01*
X13769975Y-1637488D01*
X13652511Y-1520024D01*
X13511867Y-1431652D01*
X13511866Y-1431651D01*
X13511861Y-1431649D01*
X13440550Y-1406696D01*
X13355067Y-1376784D01*
X13190000Y-1358186D01*
X13024932Y-1376784D01*
X12868133Y-1431651D01*
X12868132Y-1431652D01*
X12727488Y-1520024D01*
X12610024Y-1637488D01*
X12521652Y-1778132D01*
X12521651Y-1778133D01*
X12466784Y-1934932D01*
X12448186Y-2100000D01*
X7870687Y-2100000D01*
X7871814Y-2090000D01*
X7853215Y-1924931D01*
X7798351Y-1768139D01*
X7798348Y-1768135D01*
X7798348Y-1768133D01*
X7798347Y-1768132D01*
X7709975Y-1627488D01*
X7592511Y-1510024D01*
X7451867Y-1421652D01*
X7451866Y-1421651D01*
X7451861Y-1421649D01*
X7380550Y-1396696D01*
X7295067Y-1366784D01*
X7130000Y-1348186D01*
X6964932Y-1366784D01*
X6808133Y-1421651D01*
X6808132Y-1421652D01*
X6667488Y-1510024D01*
X6550024Y-1627488D01*
X6461652Y-1768132D01*
X6461651Y-1768133D01*
X6406784Y-1924932D01*
X6388186Y-2090000D01*
X381500Y-2090000D01*
X381500Y-444000D01*
X399806Y-399806D01*
X444000Y-381500D01*
X21324621Y-381500D01*
X21368815Y-399806D01*
G37*
%TD.AperFunction*%
%TD*%
%TA.AperFunction,Conductor*%
%TO.N,/DOUT*%
G36*
X23039241Y-28346793D02*
G01*
X23236171Y-28427435D01*
X23242528Y-28433741D01*
X23242564Y-28433828D01*
X23323062Y-28630405D01*
X23323026Y-28639360D01*
X23316669Y-28645666D01*
X23316657Y-28645671D01*
X22964734Y-28789327D01*
X22955779Y-28789281D01*
X22952039Y-28786768D01*
X22873430Y-28708159D01*
X22870003Y-28699886D01*
X22871022Y-28695111D01*
X23024128Y-28352841D01*
X23030633Y-28346690D01*
X23039241Y-28346793D01*
G37*
%TD.AperFunction*%
%TD*%
%TA.AperFunction,Conductor*%
%TO.N,/CLK*%
G36*
X25439402Y-28826858D02*
G01*
X25636171Y-28907435D01*
X25642528Y-28913741D01*
X25642564Y-28913828D01*
X25723140Y-29110596D01*
X25723104Y-29119551D01*
X25716926Y-29125782D01*
X25368824Y-29275136D01*
X25359870Y-29275249D01*
X25355938Y-29272657D01*
X25277342Y-29194061D01*
X25273915Y-29185788D01*
X25274862Y-29181178D01*
X25424219Y-28833071D01*
X25430628Y-28826821D01*
X25439402Y-28826858D01*
G37*
%TD.AperFunction*%
%TD*%
%TA.AperFunction,Conductor*%
%TO.N,/DIN*%
G36*
X12389402Y-12956858D02*
G01*
X12586171Y-13037435D01*
X12592528Y-13043741D01*
X12592564Y-13043828D01*
X12673140Y-13240596D01*
X12673104Y-13249551D01*
X12666926Y-13255782D01*
X12318824Y-13405136D01*
X12309870Y-13405249D01*
X12305938Y-13402657D01*
X12227342Y-13324061D01*
X12223915Y-13315788D01*
X12224862Y-13311178D01*
X12374219Y-12963071D01*
X12380628Y-12956821D01*
X12389402Y-12956858D01*
G37*
%TD.AperFunction*%
%TD*%
%TA.AperFunction,Conductor*%
%TO.N,/CS_T3*%
G36*
X5679551Y-44466895D02*
G01*
X5685782Y-44473073D01*
X5835136Y-44821175D01*
X5835249Y-44830129D01*
X5832657Y-44834061D01*
X5754061Y-44912657D01*
X5745788Y-44916084D01*
X5741175Y-44915136D01*
X5539153Y-44828458D01*
X5393072Y-44765781D01*
X5386821Y-44759371D01*
X5386858Y-44750597D01*
X5467436Y-44553826D01*
X5473740Y-44547471D01*
X5670597Y-44466859D01*
X5679551Y-44466895D01*
G37*
%TD.AperFunction*%
%TD*%
%TA.AperFunction,Conductor*%
%TO.N,/DOUT*%
G36*
X30208822Y-28584862D02*
G01*
X30556927Y-28734218D01*
X30563178Y-28740628D01*
X30563140Y-28749403D01*
X30482564Y-28946171D01*
X30476258Y-28952528D01*
X30476171Y-28952564D01*
X30279403Y-29033140D01*
X30270448Y-29033104D01*
X30264218Y-29026927D01*
X30114862Y-28678823D01*
X30114750Y-28669870D01*
X30117340Y-28665940D01*
X30195939Y-28587341D01*
X30204211Y-28583915D01*
X30208822Y-28584862D01*
G37*
%TD.AperFunction*%
%TD*%
%TA.AperFunction,Conductor*%
%TO.N,/2.5V*%
G36*
X32828822Y-20484862D02*
G01*
X33176927Y-20634218D01*
X33183178Y-20640628D01*
X33183140Y-20649403D01*
X33102564Y-20846171D01*
X33096258Y-20852528D01*
X33096171Y-20852564D01*
X32899403Y-20933140D01*
X32890448Y-20933104D01*
X32884218Y-20926927D01*
X32734862Y-20578823D01*
X32734750Y-20569870D01*
X32737340Y-20565940D01*
X32815939Y-20487341D01*
X32824211Y-20483915D01*
X32828822Y-20484862D01*
G37*
%TD.AperFunction*%
%TD*%
%TA.AperFunction,Conductor*%
%TO.N,/DOUT*%
G36*
X12378745Y-44226613D02*
G01*
X12381396Y-44228601D01*
X12459980Y-44307185D01*
X12463407Y-44315458D01*
X12461867Y-44321261D01*
X12286336Y-44628585D01*
X12279257Y-44634069D01*
X12271742Y-44633609D01*
X12073828Y-44552564D01*
X12067471Y-44546258D01*
X11987422Y-44350777D01*
X11987458Y-44341823D01*
X11993815Y-44335517D01*
X11994959Y-44335116D01*
X12369844Y-44225643D01*
X12378745Y-44226613D01*
G37*
%TD.AperFunction*%
%TD*%
%TA.AperFunction,Conductor*%
%TO.N,/~{RESET}*%
G36*
X17346450Y-28694845D02*
G01*
X17350034Y-28703051D01*
X17350036Y-28703238D01*
X17350691Y-28915809D01*
X17347290Y-28924093D01*
X17347228Y-28924154D01*
X17196945Y-29073129D01*
X17188657Y-29076520D01*
X17180399Y-29073057D01*
X17180097Y-29072741D01*
X16925460Y-28795924D01*
X16922381Y-28787515D01*
X16925797Y-28779731D01*
X17004331Y-28701197D01*
X17012379Y-28697773D01*
X17338113Y-28691576D01*
X17346450Y-28694845D01*
G37*
%TD.AperFunction*%
%TD*%
%TA.AperFunction,Conductor*%
%TO.N,/CLK*%
G36*
X7907644Y-20634820D02*
G01*
X7909032Y-20635513D01*
X8273566Y-20849171D01*
X8278970Y-20856310D01*
X8277743Y-20865180D01*
X8275922Y-20867537D01*
X8198719Y-20944740D01*
X8194306Y-20947512D01*
X7907921Y-21047603D01*
X7898981Y-21047097D01*
X7893259Y-21041053D01*
X7854330Y-20947512D01*
X7811168Y-20843800D01*
X7811154Y-20834851D01*
X7892333Y-20641088D01*
X7898689Y-20634784D01*
X7907644Y-20634820D01*
G37*
%TD.AperFunction*%
%TD*%
%TA.AperFunction,Conductor*%
%TO.N,/DOUT*%
G36*
X23524061Y-28067342D02*
G01*
X23602657Y-28145938D01*
X23606084Y-28154211D01*
X23605136Y-28158824D01*
X23455782Y-28506926D01*
X23449371Y-28513178D01*
X23440596Y-28513140D01*
X23243828Y-28432564D01*
X23237471Y-28426258D01*
X23156859Y-28229402D01*
X23156895Y-28220448D01*
X23163070Y-28214219D01*
X23511176Y-28064862D01*
X23520129Y-28064750D01*
X23524061Y-28067342D01*
G37*
%TD.AperFunction*%
%TD*%
%TA.AperFunction,Conductor*%
%TO.N,/DOUT*%
G36*
X13369402Y-12986858D02*
G01*
X13566171Y-13067435D01*
X13572528Y-13073741D01*
X13572564Y-13073828D01*
X13653140Y-13270596D01*
X13653104Y-13279551D01*
X13646926Y-13285782D01*
X13298824Y-13435136D01*
X13289870Y-13435249D01*
X13285938Y-13432657D01*
X13207342Y-13354061D01*
X13203915Y-13345788D01*
X13204862Y-13341178D01*
X13354219Y-12993071D01*
X13360628Y-12986821D01*
X13369402Y-12986858D01*
G37*
%TD.AperFunction*%
%TD*%
%TA.AperFunction,Conductor*%
%TO.N,/DOUT*%
G36*
X29659402Y-36656858D02*
G01*
X29856171Y-36737435D01*
X29862528Y-36743741D01*
X29862564Y-36743828D01*
X29943140Y-36940596D01*
X29943104Y-36949551D01*
X29936926Y-36955782D01*
X29588824Y-37105136D01*
X29579870Y-37105249D01*
X29575938Y-37102657D01*
X29497342Y-37024061D01*
X29493915Y-37015788D01*
X29494862Y-37011178D01*
X29644219Y-36663071D01*
X29650628Y-36656821D01*
X29659402Y-36656858D01*
G37*
%TD.AperFunction*%
%TD*%
%TA.AperFunction,Conductor*%
%TO.N,/DIN*%
G36*
X18148822Y-28554862D02*
G01*
X18496927Y-28704218D01*
X18503178Y-28710628D01*
X18503140Y-28719403D01*
X18422564Y-28916171D01*
X18416258Y-28922528D01*
X18416171Y-28922564D01*
X18219403Y-29003140D01*
X18210448Y-29003104D01*
X18204218Y-28996927D01*
X18054862Y-28648823D01*
X18054750Y-28639870D01*
X18057340Y-28635940D01*
X18135939Y-28557341D01*
X18144211Y-28553915D01*
X18148822Y-28554862D01*
G37*
%TD.AperFunction*%
%TD*%
%TA.AperFunction,Conductor*%
%TO.N,/CLK*%
G36*
X6998972Y-44467132D02*
G01*
X7005278Y-44473489D01*
X7005432Y-44473884D01*
X7137694Y-44833452D01*
X7137334Y-44842399D01*
X7134986Y-44845764D01*
X7056365Y-44924385D01*
X7048092Y-44927812D01*
X7042980Y-44926636D01*
X6712374Y-44766042D01*
X6706430Y-44759345D01*
X6706658Y-44751086D01*
X6787436Y-44553826D01*
X6793740Y-44547471D01*
X6990019Y-44467096D01*
X6998972Y-44467132D01*
G37*
%TD.AperFunction*%
%TD*%
M02*
