%TF.GenerationSoftware,KiCad,Pcbnew,9.0.0*%
%TF.CreationDate,2025-05-12T15:29:59-04:00*%
%TF.ProjectId,design-files_TM,64657369-676e-42d6-9669-6c65735f544d,rev?*%
%TF.SameCoordinates,Original*%
%TF.FileFunction,Copper,L1,Top*%
%TF.FilePolarity,Positive*%
%FSLAX46Y46*%
G04 Gerber Fmt 4.6, Leading zero omitted, Abs format (unit mm)*
G04 Created by KiCad (PCBNEW 9.0.0) date 2025-05-12 15:29:59*
%MOMM*%
%LPD*%
G01*
G04 APERTURE LIST*
G04 Aperture macros list*
%AMRoundRect*
0 Rectangle with rounded corners*
0 $1 Rounding radius*
0 $2 $3 $4 $5 $6 $7 $8 $9 X,Y pos of 4 corners*
0 Add a 4 corners polygon primitive as box body*
4,1,4,$2,$3,$4,$5,$6,$7,$8,$9,$2,$3,0*
0 Add four circle primitives for the rounded corners*
1,1,$1+$1,$2,$3*
1,1,$1+$1,$4,$5*
1,1,$1+$1,$6,$7*
1,1,$1+$1,$8,$9*
0 Add four rect primitives between the rounded corners*
20,1,$1+$1,$2,$3,$4,$5,0*
20,1,$1+$1,$4,$5,$6,$7,0*
20,1,$1+$1,$6,$7,$8,$9,0*
20,1,$1+$1,$8,$9,$2,$3,0*%
G04 Aperture macros list end*
%TA.AperFunction,EtchedComponent*%
%ADD10C,0.070000*%
%TD*%
%TA.AperFunction,EtchedComponent*%
%ADD11C,0.120000*%
%TD*%
%TA.AperFunction,SMDPad,CuDef*%
%ADD12RoundRect,0.325000X0.325000X-0.625000X0.325000X0.625000X-0.325000X0.625000X-0.325000X-0.625000X0*%
%TD*%
%TA.AperFunction,SMDPad,CuDef*%
%ADD13R,0.127000X0.254000*%
%TD*%
%TA.AperFunction,ViaPad*%
%ADD14C,0.457300*%
%TD*%
%TA.AperFunction,Conductor*%
%ADD15C,0.127000*%
%TD*%
%TA.AperFunction,Conductor*%
%ADD16C,0.600000*%
%TD*%
G04 APERTURE END LIST*
D10*
%TO.C,REF\u002A\u002A*%
X41600000Y-1750000D02*
X41600000Y-2250000D01*
X41850000Y-2000000D02*
X41350000Y-2000000D01*
X41800000Y-2000000D02*
G75*
G02*
X41400000Y-2000000I-200000J0D01*
G01*
X41400000Y-2000000D02*
G75*
G02*
X41800000Y-2000000I200000J0D01*
G01*
X2500000Y-55250000D02*
X2500000Y-55750000D01*
X2750000Y-55500000D02*
X2250000Y-55500000D01*
X2700000Y-55500000D02*
G75*
G02*
X2300000Y-55500000I-200000J0D01*
G01*
X2300000Y-55500000D02*
G75*
G02*
X2700000Y-55500000I200000J0D01*
G01*
X41600000Y-55250000D02*
X41600000Y-55750000D01*
X41850000Y-55500000D02*
X41350000Y-55500000D01*
X41800000Y-55500000D02*
G75*
G02*
X41400000Y-55500000I-200000J0D01*
G01*
X41400000Y-55500000D02*
G75*
G02*
X41800000Y-55500000I200000J0D01*
G01*
D11*
%TO.C,R2*%
X700000Y-31195000D02*
X700000Y-31495000D01*
X700000Y-31195000D02*
X43400000Y-31195000D01*
X700000Y-31495000D02*
X43400000Y-31495000D01*
X700000Y-31795000D02*
X700000Y-32095000D01*
X700000Y-31795000D02*
X43400000Y-31795000D01*
X700000Y-32095000D02*
X43400000Y-32095000D01*
X700000Y-32395000D02*
X700000Y-32695000D01*
X700000Y-32395000D02*
X43400000Y-32395000D01*
X700000Y-32695000D02*
X43400000Y-32695000D01*
X700000Y-32995000D02*
X700000Y-33295000D01*
X700000Y-32995000D02*
X43400000Y-32995000D01*
X700000Y-33295000D02*
X43400000Y-33295000D01*
X700000Y-33595000D02*
X700000Y-33895000D01*
X700000Y-33595000D02*
X43400000Y-33595000D01*
X700000Y-33895000D02*
X43400000Y-33895000D01*
X700000Y-34195000D02*
X700000Y-34495000D01*
X700000Y-34195000D02*
X43400000Y-34195000D01*
X700000Y-34495000D02*
X43400000Y-34495000D01*
X700000Y-34795000D02*
X700000Y-35095000D01*
X700000Y-34795000D02*
X43400000Y-34795000D01*
X700000Y-35095000D02*
X43400000Y-35095000D01*
X700000Y-35395000D02*
X700000Y-35695000D01*
X700000Y-35395000D02*
X43400000Y-35395000D01*
X700000Y-35695000D02*
X43400000Y-35695000D01*
X700000Y-35995000D02*
X700000Y-36295000D01*
X700000Y-35995000D02*
X43400000Y-35995000D01*
X700000Y-36295000D02*
X43400000Y-36295000D01*
X700000Y-37195000D02*
X700000Y-37495000D01*
X700000Y-37195000D02*
X43400000Y-37195000D01*
X700000Y-37495000D02*
X43400000Y-37495000D01*
X700000Y-37795000D02*
X700000Y-38095000D01*
X700000Y-37795000D02*
X43400000Y-37795000D01*
X700000Y-38095000D02*
X43400000Y-38095000D01*
X700000Y-38395000D02*
X700000Y-38695000D01*
X700000Y-38395000D02*
X43400000Y-38395000D01*
X700000Y-38695000D02*
X43400000Y-38695000D01*
X700000Y-38995000D02*
X700000Y-39295000D01*
X700000Y-38995000D02*
X43400000Y-38995000D01*
X700000Y-39295000D02*
X43400000Y-39295000D01*
X700000Y-39595000D02*
X700000Y-39895000D01*
X700000Y-39595000D02*
X43400000Y-39595000D01*
X700000Y-39895000D02*
X43400000Y-39895000D01*
X700000Y-40195000D02*
X700000Y-40495000D01*
X700000Y-40195000D02*
X43400000Y-40195000D01*
X700000Y-40495000D02*
X43400000Y-40495000D01*
X700000Y-40795000D02*
X700000Y-41095000D01*
X700000Y-40795000D02*
X43400000Y-40795000D01*
X700000Y-41095000D02*
X43400000Y-41095000D01*
X700000Y-41395000D02*
X700000Y-41695000D01*
X700000Y-41395000D02*
X43400000Y-41395000D01*
X700000Y-41695000D02*
X43400000Y-41695000D01*
X700000Y-41995000D02*
X700000Y-42295000D01*
X700000Y-41995000D02*
X43400000Y-41995000D01*
X700000Y-42295000D02*
X43400000Y-42295000D01*
X700000Y-42595000D02*
X700000Y-42895000D01*
X700000Y-42595000D02*
X43400000Y-42595000D01*
X700000Y-42895000D02*
X43400000Y-42895000D01*
X700000Y-43195000D02*
X700000Y-43495000D01*
X700000Y-43195000D02*
X43400000Y-43195000D01*
X700000Y-43495000D02*
X43400000Y-43495000D01*
X700000Y-43795000D02*
X700000Y-44095000D01*
X700000Y-43795000D02*
X43400000Y-43795000D01*
X700000Y-44095000D02*
X43400000Y-44095000D01*
X700000Y-44995000D02*
X700000Y-45295000D01*
X700000Y-44995000D02*
X43400000Y-44995000D01*
X700000Y-45295000D02*
X43400000Y-45295000D01*
X700000Y-45595000D02*
X700000Y-45895000D01*
X700000Y-45595000D02*
X43400000Y-45595000D01*
X700000Y-45895000D02*
X43400000Y-45895000D01*
X700000Y-46195000D02*
X700000Y-46495000D01*
X700000Y-46195000D02*
X43400000Y-46195000D01*
X700000Y-46495000D02*
X43400000Y-46495000D01*
X700000Y-46795000D02*
X700000Y-47095000D01*
X700000Y-46795000D02*
X43400000Y-46795000D01*
X700000Y-47095000D02*
X43400000Y-47095000D01*
X700000Y-47395000D02*
X700000Y-47695000D01*
X700000Y-47395000D02*
X43400000Y-47395000D01*
X700000Y-47695000D02*
X43400000Y-47695000D01*
X700000Y-47995000D02*
X700000Y-48295000D01*
X700000Y-47995000D02*
X43400000Y-47995000D01*
X700000Y-48295000D02*
X43400000Y-48295000D01*
X700000Y-48595000D02*
X700000Y-48895000D01*
X700000Y-48595000D02*
X43400000Y-48595000D01*
X700000Y-48895000D02*
X43400000Y-48895000D01*
X700000Y-49195000D02*
X700000Y-49495000D01*
X700000Y-49195000D02*
X43400000Y-49195000D01*
X700000Y-49495000D02*
X43400000Y-49495000D01*
X700000Y-49795000D02*
X700000Y-50095000D01*
X700000Y-49795000D02*
X43400000Y-49795000D01*
X700000Y-50095000D02*
X43400000Y-50095000D01*
X1950000Y-51595000D02*
X43400000Y-51595000D01*
X2000000Y-29695000D02*
X43400000Y-29695000D01*
X2250000Y-29995000D02*
X2250000Y-30295000D01*
X2250000Y-29995000D02*
X43400000Y-29995000D01*
X2250000Y-30295000D02*
X43400000Y-30295000D01*
X2250000Y-30595000D02*
X2250000Y-30895000D01*
X2250000Y-30595000D02*
X43400000Y-30595000D01*
X2250000Y-30895000D02*
X43400000Y-30895000D01*
X2250000Y-50395000D02*
X2250000Y-50695000D01*
X2250000Y-50395000D02*
X43400000Y-50395000D01*
X2250000Y-50695000D02*
X43400000Y-50695000D01*
X2250000Y-50995000D02*
X2250000Y-51295000D01*
X2250000Y-50995000D02*
X43400000Y-50995000D01*
X2250000Y-51295000D02*
X43400000Y-51295000D01*
X43400000Y-29695000D02*
X43400000Y-29995000D01*
X43400000Y-30295000D02*
X43400000Y-30595000D01*
X43400000Y-30895000D02*
X43400000Y-31195000D01*
X43400000Y-31495000D02*
X43400000Y-31795000D01*
X43400000Y-32095000D02*
X43400000Y-32395000D01*
X43400000Y-32695000D02*
X43400000Y-32995000D01*
X43400000Y-33295000D02*
X43400000Y-33595000D01*
X43400000Y-33895000D02*
X43400000Y-34195000D01*
X43400000Y-34495000D02*
X43400000Y-34795000D01*
X43400000Y-35095000D02*
X43400000Y-35395000D01*
X43400000Y-35695000D02*
X43400000Y-35995000D01*
X43400000Y-36295000D02*
X43400000Y-36595000D01*
X43400000Y-36595000D02*
X43400000Y-36895000D01*
X43400000Y-36895000D02*
X43400000Y-37195000D01*
X43400000Y-37495000D02*
X43400000Y-37795000D01*
X43400000Y-38095000D02*
X43400000Y-38395000D01*
X43400000Y-38695000D02*
X43400000Y-38995000D01*
X43400000Y-39295000D02*
X43400000Y-39595000D01*
X43400000Y-39895000D02*
X43400000Y-40195000D01*
X43400000Y-40495000D02*
X43400000Y-40795000D01*
X43400000Y-41095000D02*
X43400000Y-41395000D01*
X43400000Y-41695000D02*
X43400000Y-41995000D01*
X43400000Y-42295000D02*
X43400000Y-42595000D01*
X43400000Y-42895000D02*
X43400000Y-43195000D01*
X43400000Y-43495000D02*
X43400000Y-43795000D01*
X43400000Y-44095000D02*
X43400000Y-44395000D01*
X43400000Y-44695000D02*
X43400000Y-44395000D01*
X43400000Y-44695000D02*
X43400000Y-44995000D01*
X43400000Y-45295000D02*
X43400000Y-45595000D01*
X43400000Y-45895000D02*
X43400000Y-46195000D01*
X43400000Y-46495000D02*
X43400000Y-46795000D01*
X43400000Y-47095000D02*
X43400000Y-47395000D01*
X43400000Y-47695000D02*
X43400000Y-47995000D01*
X43400000Y-48295000D02*
X43400000Y-48595000D01*
X43400000Y-48895000D02*
X43400000Y-49195000D01*
X43400000Y-49495000D02*
X43400000Y-49795000D01*
X43400000Y-50095000D02*
X43400000Y-50395000D01*
X43400000Y-50695000D02*
X43400000Y-50995000D01*
X43400000Y-51295000D02*
X43400000Y-51595000D01*
D10*
%TO.C,REF\u002A\u002A*%
X2500000Y-1750000D02*
X2500000Y-2250000D01*
X2750000Y-2000000D02*
X2250000Y-2000000D01*
X2700000Y-2000000D02*
G75*
G02*
X2300000Y-2000000I-200000J0D01*
G01*
X2300000Y-2000000D02*
G75*
G02*
X2700000Y-2000000I200000J0D01*
G01*
D11*
%TO.C,R1*%
X700000Y-7495000D02*
X700000Y-7795000D01*
X700000Y-7495000D02*
X43400000Y-7495000D01*
X700000Y-7795000D02*
X43400000Y-7795000D01*
X700000Y-8095000D02*
X700000Y-8395000D01*
X700000Y-8095000D02*
X43400000Y-8095000D01*
X700000Y-8395000D02*
X43400000Y-8395000D01*
X700000Y-8695000D02*
X700000Y-8995000D01*
X700000Y-8695000D02*
X43400000Y-8695000D01*
X700000Y-8995000D02*
X43400000Y-8995000D01*
X700000Y-9295000D02*
X700000Y-9595000D01*
X700000Y-9295000D02*
X43400000Y-9295000D01*
X700000Y-9595000D02*
X43400000Y-9595000D01*
X700000Y-9895000D02*
X700000Y-10195000D01*
X700000Y-9895000D02*
X43400000Y-9895000D01*
X700000Y-10195000D02*
X43400000Y-10195000D01*
X700000Y-10495000D02*
X700000Y-10795000D01*
X700000Y-10495000D02*
X43400000Y-10495000D01*
X700000Y-10795000D02*
X43400000Y-10795000D01*
X700000Y-11095000D02*
X700000Y-11395000D01*
X700000Y-11095000D02*
X43400000Y-11095000D01*
X700000Y-11395000D02*
X43400000Y-11395000D01*
X700000Y-11695000D02*
X700000Y-11995000D01*
X700000Y-11695000D02*
X43400000Y-11695000D01*
X700000Y-11995000D02*
X43400000Y-11995000D01*
X700000Y-12295000D02*
X700000Y-12595000D01*
X700000Y-12295000D02*
X43400000Y-12295000D01*
X700000Y-12595000D02*
X43400000Y-12595000D01*
X700000Y-13495000D02*
X700000Y-13795000D01*
X700000Y-13495000D02*
X43400000Y-13495000D01*
X700000Y-13795000D02*
X43400000Y-13795000D01*
X700000Y-14095000D02*
X700000Y-14395000D01*
X700000Y-14095000D02*
X43400000Y-14095000D01*
X700000Y-14395000D02*
X43400000Y-14395000D01*
X700000Y-14695000D02*
X700000Y-14995000D01*
X700000Y-14695000D02*
X43400000Y-14695000D01*
X700000Y-14995000D02*
X43400000Y-14995000D01*
X700000Y-15295000D02*
X700000Y-15595000D01*
X700000Y-15295000D02*
X43400000Y-15295000D01*
X700000Y-15595000D02*
X43400000Y-15595000D01*
X700000Y-15895000D02*
X700000Y-16195000D01*
X700000Y-15895000D02*
X43400000Y-15895000D01*
X700000Y-16195000D02*
X43400000Y-16195000D01*
X700000Y-16495000D02*
X700000Y-16795000D01*
X700000Y-16495000D02*
X43400000Y-16495000D01*
X700000Y-16795000D02*
X43400000Y-16795000D01*
X700000Y-17095000D02*
X700000Y-17395000D01*
X700000Y-17095000D02*
X43400000Y-17095000D01*
X700000Y-17395000D02*
X43400000Y-17395000D01*
X700000Y-17695000D02*
X700000Y-17995000D01*
X700000Y-17695000D02*
X43400000Y-17695000D01*
X700000Y-17995000D02*
X43400000Y-17995000D01*
X700000Y-18295000D02*
X700000Y-18595000D01*
X700000Y-18295000D02*
X43400000Y-18295000D01*
X700000Y-18595000D02*
X43400000Y-18595000D01*
X700000Y-18895000D02*
X700000Y-19195000D01*
X700000Y-18895000D02*
X43400000Y-18895000D01*
X700000Y-19195000D02*
X43400000Y-19195000D01*
X700000Y-19495000D02*
X700000Y-19795000D01*
X700000Y-19495000D02*
X43400000Y-19495000D01*
X700000Y-19795000D02*
X43400000Y-19795000D01*
X700000Y-20095000D02*
X700000Y-20395000D01*
X700000Y-20095000D02*
X43400000Y-20095000D01*
X700000Y-20395000D02*
X43400000Y-20395000D01*
X700000Y-21295000D02*
X700000Y-21595000D01*
X700000Y-21295000D02*
X43400000Y-21295000D01*
X700000Y-21595000D02*
X43400000Y-21595000D01*
X700000Y-21895000D02*
X700000Y-22195000D01*
X700000Y-21895000D02*
X43400000Y-21895000D01*
X700000Y-22195000D02*
X43400000Y-22195000D01*
X700000Y-22495000D02*
X700000Y-22795000D01*
X700000Y-22495000D02*
X43400000Y-22495000D01*
X700000Y-22795000D02*
X43400000Y-22795000D01*
X700000Y-23095000D02*
X700000Y-23395000D01*
X700000Y-23095000D02*
X43400000Y-23095000D01*
X700000Y-23395000D02*
X43400000Y-23395000D01*
X700000Y-23695000D02*
X700000Y-23995000D01*
X700000Y-23695000D02*
X43400000Y-23695000D01*
X700000Y-23995000D02*
X43400000Y-23995000D01*
X700000Y-24295000D02*
X700000Y-24595000D01*
X700000Y-24295000D02*
X43400000Y-24295000D01*
X700000Y-24595000D02*
X43400000Y-24595000D01*
X700000Y-24895000D02*
X700000Y-25195000D01*
X700000Y-24895000D02*
X43400000Y-24895000D01*
X700000Y-25195000D02*
X43400000Y-25195000D01*
X700000Y-25495000D02*
X700000Y-25795000D01*
X700000Y-25495000D02*
X43400000Y-25495000D01*
X700000Y-25795000D02*
X43400000Y-25795000D01*
X700000Y-26095000D02*
X700000Y-26395000D01*
X700000Y-26095000D02*
X43400000Y-26095000D01*
X700000Y-26395000D02*
X43400000Y-26395000D01*
X1950000Y-27895000D02*
X43400000Y-27895000D01*
X2000000Y-5995000D02*
X43400000Y-5995000D01*
X2250000Y-6295000D02*
X2250000Y-6595000D01*
X2250000Y-6295000D02*
X43400000Y-6295000D01*
X2250000Y-6595000D02*
X43400000Y-6595000D01*
X2250000Y-6895000D02*
X2250000Y-7195000D01*
X2250000Y-6895000D02*
X43400000Y-6895000D01*
X2250000Y-7195000D02*
X43400000Y-7195000D01*
X2250000Y-26695000D02*
X2250000Y-26995000D01*
X2250000Y-26695000D02*
X43400000Y-26695000D01*
X2250000Y-26995000D02*
X43400000Y-26995000D01*
X2250000Y-27295000D02*
X2250000Y-27595000D01*
X2250000Y-27295000D02*
X43400000Y-27295000D01*
X2250000Y-27595000D02*
X43400000Y-27595000D01*
X43400000Y-5995000D02*
X43400000Y-6295000D01*
X43400000Y-6595000D02*
X43400000Y-6895000D01*
X43400000Y-7195000D02*
X43400000Y-7495000D01*
X43400000Y-7795000D02*
X43400000Y-8095000D01*
X43400000Y-8395000D02*
X43400000Y-8695000D01*
X43400000Y-8995000D02*
X43400000Y-9295000D01*
X43400000Y-9595000D02*
X43400000Y-9895000D01*
X43400000Y-10195000D02*
X43400000Y-10495000D01*
X43400000Y-10795000D02*
X43400000Y-11095000D01*
X43400000Y-11395000D02*
X43400000Y-11695000D01*
X43400000Y-11995000D02*
X43400000Y-12295000D01*
X43400000Y-12595000D02*
X43400000Y-12895000D01*
X43400000Y-12895000D02*
X43400000Y-13195000D01*
X43400000Y-13195000D02*
X43400000Y-13495000D01*
X43400000Y-13795000D02*
X43400000Y-14095000D01*
X43400000Y-14395000D02*
X43400000Y-14695000D01*
X43400000Y-14995000D02*
X43400000Y-15295000D01*
X43400000Y-15595000D02*
X43400000Y-15895000D01*
X43400000Y-16195000D02*
X43400000Y-16495000D01*
X43400000Y-16795000D02*
X43400000Y-17095000D01*
X43400000Y-17395000D02*
X43400000Y-17695000D01*
X43400000Y-17995000D02*
X43400000Y-18295000D01*
X43400000Y-18595000D02*
X43400000Y-18895000D01*
X43400000Y-19195000D02*
X43400000Y-19495000D01*
X43400000Y-19795000D02*
X43400000Y-20095000D01*
X43400000Y-20395000D02*
X43400000Y-20695000D01*
X43400000Y-20995000D02*
X43400000Y-20695000D01*
X43400000Y-20995000D02*
X43400000Y-21295000D01*
X43400000Y-21595000D02*
X43400000Y-21895000D01*
X43400000Y-22195000D02*
X43400000Y-22495000D01*
X43400000Y-22795000D02*
X43400000Y-23095000D01*
X43400000Y-23395000D02*
X43400000Y-23695000D01*
X43400000Y-23995000D02*
X43400000Y-24295000D01*
X43400000Y-24595000D02*
X43400000Y-24895000D01*
X43400000Y-25195000D02*
X43400000Y-25495000D01*
X43400000Y-25795000D02*
X43400000Y-26095000D01*
X43400000Y-26395000D02*
X43400000Y-26695000D01*
X43400000Y-26995000D02*
X43400000Y-27295000D01*
X43400000Y-27595000D02*
X43400000Y-27895000D01*
%TD*%
D12*
%TO.P,R2,1*%
%TO.N,Net-(R1-Pad2)*%
X1350000Y-30045000D03*
%TO.P,R2,2*%
%TO.N,GND*%
X1350000Y-51245000D03*
%TD*%
D13*
%TO.P,U2,1,TP1*%
%TO.N,Net-(U2-TP1)*%
X25492000Y-53370000D03*
%TO.P,U2,3,ETROC_BL+*%
%TO.N,GND*%
X25778000Y-53370000D03*
%TO.P,U2,5,ETROC_BL-*%
%TO.N,Net-(U2-ETROC_BL-)*%
X26064000Y-53370000D03*
%TO.P,U2,7,TP2*%
%TO.N,Net-(U2-TP2)*%
X26350000Y-53370000D03*
%TO.P,U2,8,ETROC_TL+*%
%TO.N,Net-(U2-ETROC_BL-)*%
X26493000Y-53870000D03*
%TO.P,U2,9,ETROC_TL-*%
%TO.N,Net-(U2-ETROC_TL-)*%
X26636000Y-53370000D03*
%TO.P,U2,11,LGAD_BL+*%
%TO.N,GND*%
X26922000Y-53370000D03*
%TO.P,U2,12,LGAD_BL-*%
%TO.N,Net-(U2-LGAD_BL-)*%
X27065000Y-53870000D03*
%TO.P,U2,19,TP3*%
%TO.N,Net-(U2-TP3)*%
X28066000Y-53370000D03*
%TO.P,U2,21,LGAD_TL+*%
%TO.N,Net-(U2-LGAD_BL-)*%
X28352000Y-53370000D03*
%TO.P,U2,23,LGAD_TL-*%
%TO.N,Net-(U2-LGAD_TL-)*%
X28638000Y-53370000D03*
%TO.P,U2,31,TP4*%
%TO.N,Net-(U2-TP4)*%
X29782000Y-53370000D03*
%TO.P,U2,43,TP5*%
%TO.N,Net-(U2-TP5)*%
X31498000Y-53370000D03*
%TO.P,U2,73,TP6*%
%TO.N,Net-(U2-TP6)*%
X35788000Y-53370000D03*
%TO.P,U2,81,LGAD_TR+*%
%TO.N,Net-(U2-LGAD_TL-)*%
X36932000Y-53370000D03*
%TO.P,U2,83,LGAD_TR-*%
%TO.N,Net-(U2-LGAD_BR+)*%
X37218000Y-53370000D03*
%TO.P,U2,91,TP7*%
%TO.N,Net-(U2-TP7)*%
X38362000Y-53370000D03*
%TO.P,U2,103,TP8*%
%TO.N,Net-(U2-TP8)*%
X40078000Y-53370000D03*
%TO.P,U2,104,LGAD_BR+*%
%TO.N,Net-(U2-LGAD_BR+)*%
X40221000Y-53870000D03*
%TO.P,U2,105,LGAD_BR-*%
%TO.N,/LGAD2*%
X40364000Y-53370000D03*
%TO.P,U2,107,ETROC_TR+*%
%TO.N,Net-(U2-ETROC_TL-)*%
X40650000Y-53370000D03*
%TO.P,U2,108,ETROC_TR-*%
%TO.N,Net-(U2-ETROC_BR+)*%
X40793000Y-53870000D03*
%TO.P,U2,117,ETROC_BR+*%
X42080000Y-53370000D03*
%TO.P,U2,119,ETROC_BR-*%
%TO.N,/ETROC2*%
X42366000Y-53370000D03*
%TO.P,U2,121,TP9*%
%TO.N,Net-(U2-TP9)*%
X42652000Y-53370000D03*
%TD*%
%TO.P,U1,1,TP1*%
%TO.N,Net-(U1-TP1)*%
X3847000Y-53320000D03*
%TO.P,U1,3,ETROC_BL+*%
%TO.N,GND*%
X4133000Y-53320000D03*
%TO.P,U1,5,ETROC_BL-*%
%TO.N,Net-(U1-ETROC_BL-)*%
X4419000Y-53320000D03*
%TO.P,U1,7,TP2*%
%TO.N,Net-(U1-TP2)*%
X4705000Y-53320000D03*
%TO.P,U1,8,ETROC_TL+*%
%TO.N,Net-(U1-ETROC_BL-)*%
X4848000Y-53820000D03*
%TO.P,U1,9,ETROC_TL-*%
%TO.N,Net-(U1-ETROC_TL-)*%
X4991000Y-53320000D03*
%TO.P,U1,11,LGAD_BL+*%
%TO.N,GND*%
X5277000Y-53320000D03*
%TO.P,U1,12,LGAD_BL-*%
%TO.N,Net-(U1-LGAD_BL-)*%
X5420000Y-53820000D03*
%TO.P,U1,19,TP3*%
%TO.N,Net-(U1-TP3)*%
X6421000Y-53320000D03*
%TO.P,U1,21,LGAD_TL+*%
%TO.N,Net-(U1-LGAD_BL-)*%
X6707000Y-53320000D03*
%TO.P,U1,23,LGAD_TL-*%
%TO.N,Net-(U1-LGAD_TL-)*%
X6993000Y-53320000D03*
%TO.P,U1,31,TP4*%
%TO.N,Net-(U1-TP4)*%
X8137000Y-53320000D03*
%TO.P,U1,43,TP5*%
%TO.N,Net-(U1-TP5)*%
X9853000Y-53320000D03*
%TO.P,U1,73,TP6*%
%TO.N,Net-(U1-TP6)*%
X14143000Y-53320000D03*
%TO.P,U1,81,LGAD_TR+*%
%TO.N,Net-(U1-LGAD_TL-)*%
X15287000Y-53320000D03*
%TO.P,U1,83,LGAD_TR-*%
%TO.N,Net-(U1-LGAD_BR+)*%
X15573000Y-53320000D03*
%TO.P,U1,91,TP7*%
%TO.N,Net-(U1-TP7)*%
X16717000Y-53320000D03*
%TO.P,U1,103,TP8*%
%TO.N,Net-(U1-TP8)*%
X18433000Y-53320000D03*
%TO.P,U1,104,LGAD_BR+*%
%TO.N,Net-(U1-LGAD_BR+)*%
X18576000Y-53820000D03*
%TO.P,U1,105,LGAD_BR-*%
%TO.N,/LGAD1*%
X18719000Y-53320000D03*
%TO.P,U1,107,ETROC_TR+*%
%TO.N,Net-(U1-ETROC_TL-)*%
X19005000Y-53320000D03*
%TO.P,U1,108,ETROC_TR-*%
%TO.N,Net-(U1-ETROC_BR+)*%
X19148000Y-53820000D03*
%TO.P,U1,117,ETROC_BR+*%
X20435000Y-53320000D03*
%TO.P,U1,119,ETROC_BR-*%
%TO.N,/ETROC1*%
X20721000Y-53320000D03*
%TO.P,U1,121,TP9*%
%TO.N,Net-(U1-TP9)*%
X21007000Y-53320000D03*
%TD*%
%TO.P,U4,1,TP1*%
%TO.N,Net-(U4-TP1)*%
X40241329Y-4168127D03*
%TO.P,U4,3,ETROC_BL+*%
%TO.N,GND*%
X39955329Y-4168127D03*
%TO.P,U4,5,ETROC_BL-*%
%TO.N,Net-(U4-ETROC_BL-)*%
X39669329Y-4168127D03*
%TO.P,U4,7,TP2*%
%TO.N,Net-(U4-TP2)*%
X39383329Y-4168127D03*
%TO.P,U4,8,ETROC_TL+*%
%TO.N,Net-(U4-ETROC_BL-)*%
X39240329Y-3668127D03*
%TO.P,U4,9,ETROC_TL-*%
%TO.N,Net-(U4-ETROC_TL-)*%
X39097329Y-4168127D03*
%TO.P,U4,11,LGAD_BL+*%
%TO.N,GND*%
X38811329Y-4168127D03*
%TO.P,U4,12,LGAD_BL-*%
%TO.N,Net-(U4-LGAD_BL-)*%
X38668329Y-3668127D03*
%TO.P,U4,19,TP3*%
%TO.N,Net-(U4-TP3)*%
X37667329Y-4168127D03*
%TO.P,U4,21,LGAD_TL+*%
%TO.N,Net-(U4-LGAD_BL-)*%
X37381329Y-4168127D03*
%TO.P,U4,23,LGAD_TL-*%
%TO.N,Net-(U4-LGAD_TL-)*%
X37095329Y-4168127D03*
%TO.P,U4,31,TP4*%
%TO.N,Net-(U4-TP4)*%
X35951329Y-4168127D03*
%TO.P,U4,43,TP5*%
%TO.N,Net-(U4-TP5)*%
X34235329Y-4168127D03*
%TO.P,U4,73,TP6*%
%TO.N,Net-(U4-TP6)*%
X29945329Y-4168127D03*
%TO.P,U4,81,LGAD_TR+*%
%TO.N,Net-(U4-LGAD_TL-)*%
X28801329Y-4168127D03*
%TO.P,U4,83,LGAD_TR-*%
%TO.N,Net-(U4-LGAD_BR+)*%
X28515329Y-4168127D03*
%TO.P,U4,91,TP7*%
%TO.N,Net-(U4-TP7)*%
X27371329Y-4168127D03*
%TO.P,U4,103,TP8*%
%TO.N,Net-(U4-TP8)*%
X25655329Y-4168127D03*
%TO.P,U4,104,LGAD_BR+*%
%TO.N,Net-(U4-LGAD_BR+)*%
X25512329Y-3668127D03*
%TO.P,U4,105,LGAD_BR-*%
%TO.N,/LGAD4*%
X25369329Y-4168127D03*
%TO.P,U4,107,ETROC_TR+*%
%TO.N,Net-(U4-ETROC_TL-)*%
X25083329Y-4168127D03*
%TO.P,U4,108,ETROC_TR-*%
%TO.N,Net-(U4-ETROC_BR+)*%
X24940329Y-3668127D03*
%TO.P,U4,117,ETROC_BR+*%
X23653329Y-4168127D03*
%TO.P,U4,119,ETROC_BR-*%
%TO.N,/ETROC4*%
X23367329Y-4168127D03*
%TO.P,U4,121,TP9*%
%TO.N,Net-(U4-TP9)*%
X23081329Y-4168127D03*
%TD*%
%TO.P,U3,1,TP1*%
%TO.N,Net-(U3-TP1)*%
X18591329Y-4198127D03*
%TO.P,U3,3,ETROC_BL+*%
%TO.N,GND*%
X18305329Y-4198127D03*
%TO.P,U3,5,ETROC_BL-*%
%TO.N,Net-(U3-ETROC_BL-)*%
X18019329Y-4198127D03*
%TO.P,U3,7,TP2*%
%TO.N,Net-(U3-TP2)*%
X17733329Y-4198127D03*
%TO.P,U3,8,ETROC_TL+*%
%TO.N,Net-(U3-ETROC_BL-)*%
X17590329Y-3698127D03*
%TO.P,U3,9,ETROC_TL-*%
%TO.N,Net-(U3-ETROC_TL-)*%
X17447329Y-4198127D03*
%TO.P,U3,11,LGAD_BL+*%
%TO.N,GND*%
X17161329Y-4198127D03*
%TO.P,U3,12,LGAD_BL-*%
%TO.N,Net-(U3-LGAD_BL-)*%
X17018329Y-3698127D03*
%TO.P,U3,19,TP3*%
%TO.N,Net-(U3-TP3)*%
X16017329Y-4198127D03*
%TO.P,U3,21,LGAD_TL+*%
%TO.N,Net-(U3-LGAD_BL-)*%
X15731329Y-4198127D03*
%TO.P,U3,23,LGAD_TL-*%
%TO.N,Net-(U3-LGAD_TL-)*%
X15445329Y-4198127D03*
%TO.P,U3,31,TP4*%
%TO.N,Net-(U3-TP4)*%
X14301329Y-4198127D03*
%TO.P,U3,43,TP5*%
%TO.N,Net-(U3-TP5)*%
X12585329Y-4198127D03*
%TO.P,U3,73,TP6*%
%TO.N,Net-(U3-TP6)*%
X8295329Y-4198127D03*
%TO.P,U3,81,LGAD_TR+*%
%TO.N,Net-(U3-LGAD_TL-)*%
X7151329Y-4198127D03*
%TO.P,U3,83,LGAD_TR-*%
%TO.N,Net-(U3-LGAD_BR+)*%
X6865329Y-4198127D03*
%TO.P,U3,91,TP7*%
%TO.N,Net-(U3-TP7)*%
X5721329Y-4198127D03*
%TO.P,U3,103,TP8*%
%TO.N,Net-(U3-TP8)*%
X4005329Y-4198127D03*
%TO.P,U3,104,LGAD_BR+*%
%TO.N,Net-(U3-LGAD_BR+)*%
X3862329Y-3698127D03*
%TO.P,U3,105,LGAD_BR-*%
%TO.N,/LGAD3*%
X3719329Y-4198127D03*
%TO.P,U3,107,ETROC_TR+*%
%TO.N,Net-(U3-ETROC_TL-)*%
X3433329Y-4198127D03*
%TO.P,U3,108,ETROC_TR-*%
%TO.N,Net-(U3-ETROC_BR+)*%
X3290329Y-3698127D03*
%TO.P,U3,117,ETROC_BR+*%
X2003329Y-4198127D03*
%TO.P,U3,119,ETROC_BR-*%
%TO.N,/ETROC3*%
X1717329Y-4198127D03*
%TO.P,U3,121,TP9*%
%TO.N,Net-(U3-TP9)*%
X1431329Y-4198127D03*
%TD*%
D12*
%TO.P,R1,1*%
%TO.N,VCC*%
X1350000Y-6345000D03*
%TO.P,R1,2*%
%TO.N,Net-(R1-Pad2)*%
X1350000Y-27545000D03*
%TD*%
D14*
%TO.N,+5V*%
X13190000Y-2100000D03*
X18640000Y-36750000D03*
X25180000Y-20879350D03*
X37130000Y-2000000D03*
X15570000Y-28970000D03*
X12560000Y-55970000D03*
X16960000Y-36750000D03*
X17820000Y-36740000D03*
X37860000Y-13050000D03*
X7965000Y-13055000D03*
X38800000Y-56300000D03*
X9070000Y-36740000D03*
X11470000Y-36750000D03*
X3800000Y-44570000D03*
X7800000Y-56000000D03*
X19460000Y-36740000D03*
X7130000Y-2090000D03*
X23340000Y-13040000D03*
X34500000Y-56300000D03*
X12010000Y-28980000D03*
X33110000Y-2010000D03*
%TO.N,/~{RESET}*%
X17350000Y-28920000D03*
X8850000Y-20840000D03*
%TO.N,VCC*%
X1037329Y-5752873D03*
X1682329Y-5752873D03*
X1000000Y-6950000D03*
X1700000Y-6950000D03*
%TO.N,/DOUT*%
X29860000Y-36740000D03*
X12070000Y-44550000D03*
X30380000Y-5510000D03*
X30480000Y-28950000D03*
X13570000Y-13070000D03*
X23240000Y-28430000D03*
%TO.N,/DIN*%
X18420000Y-28920000D03*
X12590000Y-13040000D03*
%TO.N,/CLK*%
X32790000Y-36760000D03*
X25640000Y-28910000D03*
X7810000Y-20840000D03*
X6790000Y-44550000D03*
X34220000Y-13010650D03*
X24970000Y-44560000D03*
%TO.N,GND*%
X3830000Y-54330000D03*
X20574000Y-28450000D03*
X3270000Y-13050000D03*
X16550000Y-4300000D03*
X1000000Y-51800000D03*
X39820000Y-13010650D03*
X1650000Y-50700000D03*
X38150000Y-4250000D03*
X25700000Y-52700000D03*
X17490000Y-44540000D03*
X16860000Y-44550000D03*
X2090000Y-13050000D03*
X18790000Y-44540000D03*
X27290000Y-53270000D03*
X23240000Y-20830000D03*
X8460000Y-28390000D03*
X1000000Y-50700000D03*
X9130000Y-13050000D03*
X19420000Y-44550000D03*
X5810000Y-36770000D03*
X40150000Y-4900000D03*
X5770000Y-53330000D03*
X6430000Y-29200000D03*
X1650000Y-51800000D03*
X18560000Y-3500000D03*
X17950000Y-13050000D03*
X22360000Y-13050000D03*
X18150000Y-44540000D03*
%TO.N,/LGAD1*%
X15520000Y-20840000D03*
X17270000Y-53330000D03*
X6800000Y-54900000D03*
%TO.N,/ETROC1*%
X10300000Y-55920000D03*
X19750000Y-55000000D03*
X16420000Y-20840000D03*
%TO.N,/CS_T1*%
X29360000Y-5470000D03*
X26520000Y-20879350D03*
%TO.N,/CS_T3*%
X5470000Y-44550000D03*
X29690000Y-44530000D03*
%TO.N,/LGAD2*%
X38840000Y-52860000D03*
X30250000Y-54710000D03*
X17320000Y-20840000D03*
%TO.N,/ETROC2*%
X18220000Y-20850000D03*
X34500000Y-55200000D03*
X42300000Y-54400000D03*
%TO.N,/LGAD3*%
X13720000Y-20840000D03*
X5290000Y-3800000D03*
X10370000Y-3820000D03*
%TO.N,/ETROC3*%
X4080000Y-2480000D03*
X11480000Y-3830000D03*
X14620000Y-20850000D03*
%TO.N,/LGAD4*%
X26310000Y-13050000D03*
X26970000Y-3580000D03*
%TO.N,/ETROC4*%
X24960000Y-13050000D03*
X24321000Y-4509000D03*
%TO.N,Net-(U1-TP1)*%
X3050000Y-53370000D03*
%TO.N,Net-(U1-TP2)*%
X4340000Y-52330000D03*
%TO.N,Net-(U1-TP3)*%
X6410000Y-52879150D03*
%TO.N,Net-(U1-TP4)*%
X8580000Y-53330000D03*
%TO.N,Net-(U1-TP5)*%
X10700000Y-53310000D03*
%TO.N,Net-(U1-TP6)*%
X14140000Y-53750000D03*
%TO.N,Net-(U1-TP7)*%
X16280000Y-53340000D03*
%TO.N,Net-(U1-TP8)*%
X18070000Y-53320000D03*
%TO.N,Net-(U1-TP9)*%
X21280000Y-53030000D03*
%TO.N,Net-(U2-TP1)*%
X24490000Y-53370000D03*
%TO.N,Net-(U2-TP2)*%
X26630000Y-52110000D03*
%TO.N,Net-(U2-TP3)*%
X28050000Y-52800000D03*
%TO.N,Net-(U2-TP4)*%
X30570000Y-52440000D03*
%TO.N,Net-(U2-TP5)*%
X31510000Y-52500000D03*
%TO.N,Net-(U2-TP6)*%
X35350000Y-53360000D03*
%TO.N,Net-(U2-TP7)*%
X38030000Y-52880000D03*
%TO.N,Net-(U2-TP8)*%
X39520000Y-53540000D03*
%TO.N,Net-(U2-TP9)*%
X42630000Y-52740000D03*
%TO.N,Net-(U3-TP1)*%
X19180000Y-4370000D03*
%TO.N,Net-(U3-TP2)*%
X17520000Y-5350000D03*
%TO.N,Net-(U3-TP3)*%
X14670000Y-4800000D03*
%TO.N,Net-(U3-TP4)*%
X13230000Y-3860000D03*
%TO.N,Net-(U3-TP5)*%
X9300000Y-4130000D03*
%TO.N,Net-(U3-TP6)*%
X7900000Y-4200000D03*
%TO.N,Net-(U3-TP7)*%
X6140000Y-4200000D03*
%TO.N,Net-(U3-TP8)*%
X4410000Y-3990000D03*
%TO.N,Net-(U3-TP9)*%
X1440000Y-2590000D03*
%TO.N,Net-(U4-TP1)*%
X40270000Y-2920000D03*
%TO.N,Net-(U4-TP2)*%
X41210000Y-5440000D03*
%TO.N,Net-(U4-TP3)*%
X36540000Y-4360000D03*
%TO.N,Net-(U4-TP4)*%
X35450000Y-4180000D03*
%TO.N,Net-(U4-TP5)*%
X31950000Y-4160000D03*
%TO.N,Net-(U4-TP6)*%
X29560000Y-4170000D03*
%TO.N,Net-(U4-TP7)*%
X27810000Y-4170000D03*
%TO.N,Net-(U4-TP8)*%
X26130000Y-3810000D03*
%TO.N,Net-(U4-TP9)*%
X22260000Y-4370000D03*
%TD*%
D15*
%TO.N,VCC*%
X697500Y-5695000D02*
X850000Y-5847500D01*
X1431329Y-6018671D02*
X1431329Y-6263671D01*
X1431329Y-6263671D02*
X1350000Y-6345000D01*
%TO.N,GND*%
X17161329Y-4500000D02*
X16750000Y-4500000D01*
X25779671Y-53331873D02*
X25779671Y-52779671D01*
X5275544Y-53330000D02*
X5273671Y-53331873D01*
X26985544Y-53270000D02*
X26923671Y-53331873D01*
X17161329Y-4168127D02*
X17161329Y-4500000D01*
X18305329Y-3754671D02*
X18560000Y-3500000D01*
X39955329Y-4705329D02*
X40150000Y-4900000D01*
X39955329Y-4168127D02*
X39955329Y-4705329D01*
X4129671Y-53331873D02*
X4129671Y-54030329D01*
X25779671Y-52779671D02*
X25700000Y-52700000D01*
X5770000Y-53330000D02*
X5275544Y-53330000D01*
X38650000Y-4500000D02*
X38400000Y-4500000D01*
X18305329Y-4198127D02*
X18305329Y-3754671D01*
X16750000Y-4500000D02*
X16550000Y-4300000D01*
X38811329Y-4168127D02*
X38811329Y-4338671D01*
X16550000Y-4300000D02*
X16500000Y-4250000D01*
X38811329Y-4338671D02*
X38650000Y-4500000D01*
X4129671Y-54030329D02*
X3830000Y-54330000D01*
X38400000Y-4500000D02*
X38150000Y-4250000D01*
X27290000Y-53270000D02*
X26985544Y-53270000D01*
%TO.N,/LGAD1*%
X17270000Y-53210000D02*
X17680000Y-52800000D01*
X17680000Y-52800000D02*
X18600000Y-52800000D01*
X18600000Y-52800000D02*
X18715671Y-52915671D01*
X17270000Y-53330000D02*
X17270000Y-53210000D01*
X18715671Y-52915671D02*
X18715671Y-53331873D01*
%TO.N,/ETROC1*%
X20717671Y-54032329D02*
X20717671Y-53331873D01*
X19750000Y-55000000D02*
X20717671Y-54032329D01*
%TO.N,Net-(U1-ETROC_BL-)*%
X4844671Y-54255329D02*
X4844671Y-53831873D01*
X4500000Y-54400000D02*
X4700000Y-54400000D01*
X4415671Y-54315671D02*
X4500000Y-54400000D01*
X4415671Y-53331873D02*
X4415671Y-54315671D01*
X4700000Y-54400000D02*
X4844671Y-54255329D01*
%TO.N,Net-(U1-ETROC_TL-)*%
X18660000Y-52460000D02*
X5560000Y-52460000D01*
X5560000Y-52460000D02*
X4987671Y-53032329D01*
X19001671Y-53331873D02*
X19001671Y-52801671D01*
X4987671Y-53032329D02*
X4987671Y-53331873D01*
X19001671Y-52801671D02*
X18660000Y-52460000D01*
%TO.N,Net-(U1-LGAD_BL-)*%
X5416671Y-54216671D02*
X5500000Y-54300000D01*
X6300000Y-54300000D02*
X6703671Y-53896329D01*
X5416671Y-53831873D02*
X5416671Y-54216671D01*
X5500000Y-54300000D02*
X6300000Y-54300000D01*
X6703671Y-53896329D02*
X6703671Y-53331873D01*
%TO.N,Net-(U1-LGAD_TL-)*%
X6989671Y-53010329D02*
X7200000Y-52800000D01*
X7200000Y-52800000D02*
X15100000Y-52800000D01*
X15283671Y-52983671D02*
X15283671Y-53331873D01*
X15100000Y-52800000D02*
X15283671Y-52983671D01*
X6989671Y-53331873D02*
X6989671Y-53010329D01*
%TO.N,Net-(U1-LGAD_BR+)*%
X15569671Y-53969671D02*
X15900000Y-54300000D01*
X15569671Y-53331873D02*
X15569671Y-53969671D01*
X18400000Y-54300000D02*
X18572671Y-54127329D01*
X15900000Y-54300000D02*
X18400000Y-54300000D01*
X18572671Y-54127329D02*
X18572671Y-53831873D01*
%TO.N,Net-(U1-ETROC_BR+)*%
X19144671Y-54144671D02*
X19300000Y-54300000D01*
X19300000Y-54300000D02*
X19800000Y-54300000D01*
X19144671Y-53831873D02*
X19144671Y-54144671D01*
X19800000Y-54300000D02*
X20431671Y-53668329D01*
X20431671Y-53668329D02*
X20431671Y-53331873D01*
D16*
%TO.N,Net-(R1-Pad2)*%
X1350000Y-27545000D02*
X1350000Y-30045000D01*
D15*
%TO.N,Net-(U2-ETROC_BL-)*%
X26200000Y-54200000D02*
X26065671Y-54065671D01*
X26400000Y-54200000D02*
X26200000Y-54200000D01*
X26065671Y-54065671D02*
X26065671Y-53331873D01*
X26494671Y-53831873D02*
X26494671Y-54105329D01*
X26494671Y-54105329D02*
X26400000Y-54200000D01*
%TO.N,Net-(U2-ETROC_TL-)*%
X40651671Y-53331873D02*
X40651671Y-53046373D01*
X27550000Y-51950000D02*
X26637671Y-52862329D01*
X39555298Y-51950000D02*
X27550000Y-51950000D01*
X40651671Y-53046373D02*
X39555298Y-51950000D01*
X26637671Y-52862329D02*
X26637671Y-53331873D01*
%TO.N,Net-(U2-LGAD_BL-)*%
X27066671Y-54166671D02*
X27100000Y-54200000D01*
X27066671Y-53831873D02*
X27066671Y-54166671D01*
X28353671Y-53846329D02*
X28353671Y-53331873D01*
X27100000Y-54200000D02*
X28000000Y-54200000D01*
X28000000Y-54200000D02*
X28353671Y-53846329D01*
%TO.N,Net-(U2-LGAD_TL-)*%
X36933671Y-53766329D02*
X36933671Y-53331873D01*
X28639671Y-53639671D02*
X29000000Y-54000000D01*
X28639671Y-53331873D02*
X28639671Y-53639671D01*
X36700000Y-54000000D02*
X36933671Y-53766329D01*
X29000000Y-54000000D02*
X36700000Y-54000000D01*
%TO.N,Net-(U2-LGAD_BR+)*%
X37219671Y-53819671D02*
X37700000Y-54300000D01*
X37700000Y-54300000D02*
X40100000Y-54300000D01*
X40222671Y-54177329D02*
X40222671Y-53831873D01*
X40100000Y-54300000D02*
X40222671Y-54177329D01*
X37219671Y-53331873D02*
X37219671Y-53819671D01*
%TO.N,/LGAD2*%
X40053501Y-52853501D02*
X40365671Y-53165671D01*
X38840000Y-52860000D02*
X38846499Y-52853501D01*
X38846499Y-52853501D02*
X40053501Y-52853501D01*
X40365671Y-53165671D02*
X40365671Y-53331873D01*
%TO.N,/ETROC2*%
X42367671Y-54332329D02*
X42367671Y-53331873D01*
X42300000Y-54400000D02*
X42367671Y-54332329D01*
%TO.N,Net-(U2-ETROC_BR+)*%
X42081671Y-53818329D02*
X42081671Y-53331873D01*
X41600000Y-54300000D02*
X42081671Y-53818329D01*
X41000000Y-54300000D02*
X41600000Y-54300000D01*
X40794671Y-53831873D02*
X40794671Y-54094671D01*
X40794671Y-54094671D02*
X41000000Y-54300000D01*
%TO.N,Net-(U3-ETROC_BL-)*%
X17700000Y-3200000D02*
X17590329Y-3309671D01*
X18019329Y-3319329D02*
X17900000Y-3200000D01*
X18019329Y-4168127D02*
X18019329Y-3319329D01*
X17590329Y-3309671D02*
X17590329Y-3668127D01*
X17700000Y-3200000D02*
X17900000Y-3200000D01*
%TO.N,Net-(U3-ETROC_TL-)*%
X17447329Y-4168127D02*
X17447329Y-4572505D01*
X16629834Y-5390000D02*
X4090000Y-5390000D01*
X4090000Y-5390000D02*
X3433329Y-4733329D01*
X3433329Y-4733329D02*
X3433329Y-4168127D01*
X17447329Y-4572505D02*
X16629834Y-5390000D01*
%TO.N,Net-(U3-LGAD_BL-)*%
X15900000Y-3200000D02*
X15731329Y-3368671D01*
X15731329Y-3368671D02*
X15731329Y-4168127D01*
X17018329Y-3668127D02*
X17018329Y-3318329D01*
X16900000Y-3200000D02*
X15900000Y-3200000D01*
X17018329Y-3318329D02*
X16900000Y-3200000D01*
%TO.N,/LGAD3*%
X3719329Y-4519329D02*
X3800000Y-4600000D01*
X4970000Y-4600000D02*
X5290000Y-4280000D01*
X3719329Y-4168127D02*
X3719329Y-4519329D01*
X5290000Y-4280000D02*
X5290000Y-3800000D01*
X3800000Y-4600000D02*
X4970000Y-4600000D01*
%TO.N,/ETROC3*%
X2305625Y-2845001D02*
X2094376Y-2845000D01*
X1717329Y-4168127D02*
X1717329Y-3222047D01*
X3715000Y-2845000D02*
X4080000Y-2480000D01*
X3110000Y-2845000D02*
X3715000Y-2845000D01*
X1945000Y-2994376D02*
X1897705Y-3041671D01*
X1748330Y-3191046D02*
X1897705Y-3041671D01*
X2994375Y-2845001D02*
X2305625Y-2845001D01*
X1717329Y-3222047D02*
X2094376Y-2845000D01*
X2094376Y-2845000D02*
X2094375Y-2845001D01*
X2094375Y-2845001D02*
X1945000Y-2994376D01*
X3110000Y-2845000D02*
X2994375Y-2845001D01*
X1897705Y-3041671D02*
X1748329Y-3191047D01*
%TO.N,Net-(U3-LGAD_TL-)*%
X15000000Y-3300000D02*
X7600000Y-3300000D01*
X7600000Y-3300000D02*
X7151329Y-3748671D01*
X7151329Y-3748671D02*
X7151329Y-4168127D01*
X15445329Y-4168127D02*
X15445329Y-3745329D01*
X15445329Y-3745329D02*
X15000000Y-3300000D01*
%TO.N,Net-(U3-LGAD_BR+)*%
X6500000Y-3100000D02*
X4000000Y-3100000D01*
X6865329Y-4168127D02*
X6865329Y-3465329D01*
X6865329Y-3465329D02*
X6500000Y-3100000D01*
X4000000Y-3100000D02*
X3862329Y-3237671D01*
X3862329Y-3237671D02*
X3862329Y-3668127D01*
%TO.N,Net-(U3-ETROC_BR+)*%
X3290329Y-3290329D02*
X3100000Y-3100000D01*
X3290329Y-3668127D02*
X3290329Y-3290329D01*
X2003329Y-3296671D02*
X2003329Y-4168127D01*
X2200000Y-3100000D02*
X2003329Y-3296671D01*
X3100000Y-3100000D02*
X2200000Y-3100000D01*
%TO.N,Net-(U4-ETROC_BL-)*%
X39375000Y-3075000D02*
X39525000Y-3075000D01*
X39240329Y-3209671D02*
X39375000Y-3075000D01*
X39669329Y-3219329D02*
X39669329Y-4168127D01*
X39525000Y-3075000D02*
X39669329Y-3219329D01*
X39240329Y-3668127D02*
X39240329Y-3209671D01*
%TO.N,/LGAD4*%
X26970000Y-3920000D02*
X26290000Y-4600000D01*
X25369329Y-4419329D02*
X25369329Y-4168127D01*
X26970000Y-3580000D02*
X26970000Y-3920000D01*
X25550000Y-4600000D02*
X25369329Y-4419329D01*
X26290000Y-4600000D02*
X25550000Y-4600000D01*
%TO.N,/ETROC4*%
X24321000Y-4509000D02*
X23422702Y-4509000D01*
X23367329Y-4453627D02*
X23367329Y-4168127D01*
X23422702Y-4509000D02*
X23367329Y-4453627D01*
%TO.N,Net-(U4-ETROC_TL-)*%
X39097329Y-4453627D02*
X38510956Y-5040000D01*
X38510956Y-5040000D02*
X25540000Y-5040000D01*
X25083329Y-4583329D02*
X25083329Y-4168127D01*
X39097329Y-4168127D02*
X39097329Y-4453627D01*
X25540000Y-5040000D02*
X25083329Y-4583329D01*
%TO.N,Net-(U4-LGAD_BL-)*%
X38600000Y-3200000D02*
X37600000Y-3200000D01*
X38668329Y-3668127D02*
X38668329Y-3268329D01*
X38668329Y-3268329D02*
X38600000Y-3200000D01*
X37600000Y-3200000D02*
X37381329Y-3418671D01*
X37381329Y-3418671D02*
X37381329Y-4168127D01*
%TO.N,Net-(U4-LGAD_TL-)*%
X29000000Y-3500000D02*
X28801329Y-3698671D01*
X36800000Y-3500000D02*
X29000000Y-3500000D01*
X37095329Y-3795329D02*
X36800000Y-3500000D01*
X28801329Y-3698671D02*
X28801329Y-4168127D01*
X37095329Y-4168127D02*
X37095329Y-3795329D01*
%TO.N,Net-(U4-LGAD_BR+)*%
X28515329Y-3415329D02*
X28200000Y-3100000D01*
X25512329Y-3287671D02*
X25512329Y-3668127D01*
X28515329Y-4168127D02*
X28515329Y-3415329D01*
X28200000Y-3100000D02*
X25700000Y-3100000D01*
X25700000Y-3100000D02*
X25512329Y-3287671D01*
%TO.N,Net-(U4-ETROC_BR+)*%
X24940329Y-3668127D02*
X24940329Y-3240329D01*
X23653329Y-3346671D02*
X23653329Y-4168127D01*
X24800000Y-3100000D02*
X23900000Y-3100000D01*
X23900000Y-3100000D02*
X23653329Y-3346671D01*
X24940329Y-3240329D02*
X24800000Y-3100000D01*
%TO.N,Net-(U1-TP1)*%
X3797000Y-53370000D02*
X3847000Y-53320000D01*
X3050000Y-53370000D02*
X3797000Y-53370000D01*
%TO.N,Net-(U1-TP2)*%
X4705000Y-52695000D02*
X4340000Y-52330000D01*
X4705000Y-53320000D02*
X4705000Y-52695000D01*
%TO.N,Net-(U1-TP3)*%
X6421000Y-53320000D02*
X6421000Y-52890150D01*
X6421000Y-52890150D02*
X6410000Y-52879150D01*
%TO.N,Net-(U1-TP4)*%
X8137000Y-53320000D02*
X8570000Y-53320000D01*
X8570000Y-53320000D02*
X8580000Y-53330000D01*
%TO.N,Net-(U1-TP5)*%
X9853000Y-53320000D02*
X10690000Y-53320000D01*
X10690000Y-53320000D02*
X10700000Y-53310000D01*
%TO.N,Net-(U1-TP6)*%
X14143000Y-53320000D02*
X14143000Y-53747000D01*
X14143000Y-53747000D02*
X14140000Y-53750000D01*
%TO.N,Net-(U1-TP7)*%
X16300000Y-53320000D02*
X16280000Y-53340000D01*
X16717000Y-53320000D02*
X16300000Y-53320000D01*
%TO.N,Net-(U1-TP8)*%
X18433000Y-53320000D02*
X18070000Y-53320000D01*
%TO.N,Net-(U1-TP9)*%
X21007000Y-53303000D02*
X21280000Y-53030000D01*
X21007000Y-53320000D02*
X21007000Y-53303000D01*
%TO.N,Net-(U2-TP1)*%
X24490000Y-53370000D02*
X25492000Y-53370000D01*
%TO.N,Net-(U2-TP2)*%
X26350000Y-53370000D02*
X26350000Y-52390000D01*
X26350000Y-52390000D02*
X26630000Y-52110000D01*
%TO.N,Net-(U2-TP3)*%
X28066000Y-52816000D02*
X28050000Y-52800000D01*
X28066000Y-53370000D02*
X28066000Y-52816000D01*
%TO.N,Net-(U2-TP4)*%
X29782000Y-53228000D02*
X30570000Y-52440000D01*
X29782000Y-53370000D02*
X29782000Y-53228000D01*
%TO.N,Net-(U2-TP5)*%
X31498000Y-53370000D02*
X31498000Y-52512000D01*
X31498000Y-52512000D02*
X31510000Y-52500000D01*
%TO.N,Net-(U2-TP6)*%
X35788000Y-53370000D02*
X35360000Y-53370000D01*
X35360000Y-53370000D02*
X35350000Y-53360000D01*
%TO.N,Net-(U2-TP7)*%
X38362000Y-53370000D02*
X38362000Y-53212000D01*
X38362000Y-53212000D02*
X38030000Y-52880000D01*
%TO.N,Net-(U2-TP8)*%
X40078000Y-53370000D02*
X39690000Y-53370000D01*
X39690000Y-53370000D02*
X39520000Y-53540000D01*
%TO.N,Net-(U2-TP9)*%
X42652000Y-52762000D02*
X42630000Y-52740000D01*
X42652000Y-53370000D02*
X42652000Y-52762000D01*
%TO.N,Net-(U3-TP1)*%
X18591329Y-4198127D02*
X19008127Y-4198127D01*
X19008127Y-4198127D02*
X19180000Y-4370000D01*
%TO.N,Net-(U3-TP2)*%
X17733329Y-5136671D02*
X17520000Y-5350000D01*
X17733329Y-4198127D02*
X17733329Y-5136671D01*
%TO.N,Net-(U3-TP3)*%
X16017329Y-4198127D02*
X16017329Y-4485627D01*
X16017329Y-4485627D02*
X15702956Y-4800000D01*
X15702956Y-4800000D02*
X14670000Y-4800000D01*
%TO.N,Net-(U3-TP4)*%
X13568127Y-4198127D02*
X13230000Y-3860000D01*
X14301329Y-4198127D02*
X13568127Y-4198127D01*
%TO.N,Net-(U3-TP5)*%
X12223456Y-4560000D02*
X9980000Y-4560000D01*
X12585329Y-4198127D02*
X12223456Y-4560000D01*
X9980000Y-4560000D02*
X9730000Y-4560000D01*
X9730000Y-4560000D02*
X9300000Y-4130000D01*
%TO.N,Net-(U3-TP6)*%
X7901873Y-4198127D02*
X7900000Y-4200000D01*
X8295329Y-4198127D02*
X7901873Y-4198127D01*
%TO.N,Net-(U3-TP7)*%
X5721329Y-4198127D02*
X6138127Y-4198127D01*
X6138127Y-4198127D02*
X6140000Y-4200000D01*
%TO.N,Net-(U3-TP8)*%
X4201873Y-4198127D02*
X4410000Y-3990000D01*
X4005329Y-4198127D02*
X4201873Y-4198127D01*
%TO.N,Net-(U3-TP9)*%
X1431329Y-2598671D02*
X1440000Y-2590000D01*
X1431329Y-4198127D02*
X1431329Y-2598671D01*
%TO.N,Net-(U4-TP1)*%
X40241329Y-4168127D02*
X40241329Y-2948671D01*
X40241329Y-2948671D02*
X40270000Y-2920000D01*
%TO.N,Net-(U4-TP2)*%
X41200000Y-5430000D02*
X41210000Y-5440000D01*
X39383329Y-4168127D02*
X39383329Y-5253329D01*
X39383329Y-5253329D02*
X39560000Y-5430000D01*
X39560000Y-5430000D02*
X41200000Y-5430000D01*
%TO.N,Net-(U4-TP3)*%
X37482956Y-4640000D02*
X36790000Y-4640000D01*
X37667329Y-4168127D02*
X37667329Y-4455627D01*
X36790000Y-4640000D02*
X36540000Y-4390000D01*
X36540000Y-4390000D02*
X36540000Y-4360000D01*
X37667329Y-4455627D02*
X37482956Y-4640000D01*
%TO.N,Net-(U4-TP4)*%
X35461873Y-4168127D02*
X35450000Y-4180000D01*
X35951329Y-4168127D02*
X35461873Y-4168127D01*
%TO.N,Net-(U4-TP5)*%
X31958127Y-4168127D02*
X31950000Y-4160000D01*
X34235329Y-4168127D02*
X31958127Y-4168127D01*
%TO.N,Net-(U4-TP6)*%
X29561873Y-4168127D02*
X29560000Y-4170000D01*
X29945329Y-4168127D02*
X29561873Y-4168127D01*
%TO.N,Net-(U4-TP7)*%
X27808127Y-4168127D02*
X27810000Y-4170000D01*
X27371329Y-4168127D02*
X27808127Y-4168127D01*
%TO.N,Net-(U4-TP8)*%
X25771873Y-4168127D02*
X26130000Y-3810000D01*
X25655329Y-4168127D02*
X25771873Y-4168127D01*
%TO.N,Net-(U4-TP9)*%
X22461873Y-4168127D02*
X22260000Y-4370000D01*
X23081329Y-4168127D02*
X22461873Y-4168127D01*
%TD*%
%TA.AperFunction,Conductor*%
%TO.N,Net-(U1-TP2)*%
G36*
X4535283Y-52213579D02*
G01*
X4536007Y-52214834D01*
X4583785Y-52311071D01*
X4584751Y-52313850D01*
X4602876Y-52399439D01*
X4602994Y-52400081D01*
X4606104Y-52420270D01*
X4631642Y-52507224D01*
X4659922Y-52553507D01*
X4697969Y-52597115D01*
X4700826Y-52605602D01*
X4697426Y-52613080D01*
X4623003Y-52687503D01*
X4614730Y-52690930D01*
X4607127Y-52688123D01*
X4556799Y-52645094D01*
X4556797Y-52645092D01*
X4556796Y-52645092D01*
X4505077Y-52616143D01*
X4505076Y-52616142D01*
X4505073Y-52616141D01*
X4409774Y-52592947D01*
X4325736Y-52575393D01*
X4323820Y-52574818D01*
X4273515Y-52554895D01*
X4271977Y-52554152D01*
X4223747Y-52526333D01*
X4218293Y-52519231D01*
X4219458Y-52510352D01*
X4219824Y-52509760D01*
X4337980Y-52331275D01*
X4341275Y-52327980D01*
X4519071Y-52210280D01*
X4527859Y-52208572D01*
X4535283Y-52213579D01*
G37*
%TD.AperFunction*%
%TD*%
%TA.AperFunction,Conductor*%
%TO.N,GND*%
G36*
X38345528Y-4133420D02*
G01*
X38346145Y-4134462D01*
X38363712Y-4167948D01*
X38364560Y-4170028D01*
X38377738Y-4214047D01*
X38378152Y-4216063D01*
X38388102Y-4302433D01*
X38397479Y-4375912D01*
X38397479Y-4375913D01*
X38424750Y-4417999D01*
X38454880Y-4431687D01*
X38454878Y-4431687D01*
X38488913Y-4435370D01*
X38496769Y-4439667D01*
X38499354Y-4447002D01*
X38499354Y-4550755D01*
X38495927Y-4559028D01*
X38487654Y-4562455D01*
X38486656Y-4562412D01*
X38364868Y-4551983D01*
X38362344Y-4551483D01*
X38273448Y-4523420D01*
X38272839Y-4523209D01*
X38260713Y-4518632D01*
X38260699Y-4518628D01*
X38115712Y-4477205D01*
X38108698Y-4471637D01*
X38107441Y-4463723D01*
X38148066Y-4254802D01*
X38153009Y-4247336D01*
X38153074Y-4247292D01*
X38329308Y-4130152D01*
X38338094Y-4128427D01*
X38345528Y-4133420D01*
G37*
%TD.AperFunction*%
%TD*%
%TA.AperFunction,Conductor*%
%TO.N,GND*%
G36*
X40017019Y-4531155D02*
G01*
X40020318Y-4537700D01*
X40027695Y-4587094D01*
X40040072Y-4604791D01*
X40052412Y-4622436D01*
X40052414Y-4622437D01*
X40052415Y-4622438D01*
X40090154Y-4642355D01*
X40090157Y-4642356D01*
X40090159Y-4642356D01*
X40090160Y-4642357D01*
X40138120Y-4655458D01*
X40138169Y-4655471D01*
X40186684Y-4668262D01*
X40188616Y-4668957D01*
X40264648Y-4704152D01*
X40270716Y-4710738D01*
X40270351Y-4719685D01*
X40269477Y-4721247D01*
X40152707Y-4896925D01*
X40145273Y-4901918D01*
X40145196Y-4901933D01*
X39937558Y-4942309D01*
X39928783Y-4940524D01*
X39923840Y-4933057D01*
X39923781Y-4932731D01*
X39895370Y-4760756D01*
X39895217Y-4759134D01*
X39891574Y-4605068D01*
X39891572Y-4604834D01*
X39891790Y-4539388D01*
X39895244Y-4531127D01*
X39903490Y-4527728D01*
X40008746Y-4527728D01*
X40017019Y-4531155D01*
G37*
%TD.AperFunction*%
%TD*%
%TA.AperFunction,Conductor*%
%TO.N,Net-(U3-TP8)*%
G36*
X4229692Y-3869671D02*
G01*
X4231341Y-3870584D01*
X4282332Y-3904477D01*
X4406925Y-3987292D01*
X4411918Y-3994726D01*
X4411933Y-3994803D01*
X4452390Y-4202857D01*
X4450605Y-4211632D01*
X4443224Y-4216558D01*
X4381460Y-4229045D01*
X4381149Y-4229103D01*
X4229853Y-4255466D01*
X4228224Y-4255634D01*
X4055381Y-4261235D01*
X4047001Y-4258078D01*
X4043308Y-4249920D01*
X4043302Y-4249541D01*
X4043302Y-4144654D01*
X4046729Y-4136381D01*
X4053210Y-4133092D01*
X4102579Y-4125449D01*
X4137031Y-4099930D01*
X4155403Y-4061090D01*
X4166435Y-4011952D01*
X4180042Y-3951556D01*
X4180797Y-3949304D01*
X4214208Y-3875505D01*
X4220742Y-3869381D01*
X4229692Y-3869671D01*
G37*
%TD.AperFunction*%
%TD*%
%TA.AperFunction,Conductor*%
%TO.N,Net-(U1-TP6)*%
G36*
X14203988Y-53323427D02*
G01*
X14207376Y-53330749D01*
X14212414Y-53392536D01*
X14228253Y-53446263D01*
X14228255Y-53446268D01*
X14278337Y-53524787D01*
X14324748Y-53592604D01*
X14325778Y-53594445D01*
X14346668Y-53641274D01*
X14347273Y-53642970D01*
X14360978Y-53693345D01*
X14359843Y-53702227D01*
X14352759Y-53707706D01*
X14352020Y-53707881D01*
X14144803Y-53750023D01*
X14136013Y-53748314D01*
X14135936Y-53748263D01*
X13979584Y-53642970D01*
X13959872Y-53629695D01*
X13954925Y-53622232D01*
X13956703Y-53613456D01*
X13956896Y-53613178D01*
X14005012Y-53545997D01*
X14058373Y-53462848D01*
X14074359Y-53404677D01*
X14078832Y-53330989D01*
X14082754Y-53322941D01*
X14090511Y-53320000D01*
X14195715Y-53320000D01*
X14203988Y-53323427D01*
G37*
%TD.AperFunction*%
%TD*%
%TA.AperFunction,Conductor*%
%TO.N,/LGAD3*%
G36*
X5501276Y-3841967D02*
G01*
X5508699Y-3846973D01*
X5510408Y-3855763D01*
X5510032Y-3857162D01*
X5475769Y-3958992D01*
X5474488Y-3961641D01*
X5426767Y-4035002D01*
X5426395Y-4035539D01*
X5414337Y-4051987D01*
X5414330Y-4051998D01*
X5370903Y-4131540D01*
X5358176Y-4184260D01*
X5354243Y-4242002D01*
X5350262Y-4250023D01*
X5342570Y-4252907D01*
X5237320Y-4252907D01*
X5229047Y-4249480D01*
X5225656Y-4242119D01*
X5225647Y-4242002D01*
X5220494Y-4176102D01*
X5204393Y-4119061D01*
X5153403Y-4035265D01*
X5106387Y-3963423D01*
X5105447Y-3961675D01*
X5083960Y-3912007D01*
X5083402Y-3910408D01*
X5068968Y-3856624D01*
X5070133Y-3847746D01*
X5077235Y-3842292D01*
X5077926Y-3842129D01*
X5287669Y-3799474D01*
X5292331Y-3799474D01*
X5501276Y-3841967D01*
G37*
%TD.AperFunction*%
%TD*%
%TA.AperFunction,Conductor*%
%TO.N,GND*%
G36*
X18526660Y-3492517D02*
G01*
X18555196Y-3498066D01*
X18562663Y-3503009D01*
X18562707Y-3503074D01*
X18679826Y-3679276D01*
X18681552Y-3688063D01*
X18676559Y-3695497D01*
X18675488Y-3696129D01*
X18641306Y-3713938D01*
X18639167Y-3714797D01*
X18594347Y-3727830D01*
X18592281Y-3728233D01*
X18504198Y-3737322D01*
X18429329Y-3746006D01*
X18429328Y-3746006D01*
X18387333Y-3772933D01*
X18373642Y-3802982D01*
X18373641Y-3802986D01*
X18370837Y-3828871D01*
X18370213Y-3834647D01*
X18369960Y-3836979D01*
X18365662Y-3844835D01*
X18358328Y-3847419D01*
X18254655Y-3847419D01*
X18246382Y-3843992D01*
X18242955Y-3835719D01*
X18243004Y-3834647D01*
X18248681Y-3772933D01*
X18254015Y-3714937D01*
X18254578Y-3712276D01*
X18262045Y-3690116D01*
X18283947Y-3625115D01*
X18284146Y-3624576D01*
X18292049Y-3604865D01*
X18332750Y-3465629D01*
X18338360Y-3458651D01*
X18346210Y-3457428D01*
X18526660Y-3492517D01*
G37*
%TD.AperFunction*%
%TD*%
%TA.AperFunction,Conductor*%
%TO.N,Net-(U4-TP6)*%
G36*
X29696342Y-3987002D02*
G01*
X29696869Y-3987379D01*
X29766057Y-4040091D01*
X29829986Y-4085221D01*
X29877050Y-4099701D01*
X29934472Y-4103843D01*
X29942476Y-4107857D01*
X29945329Y-4115513D01*
X29945329Y-4220701D01*
X29941902Y-4228974D01*
X29934429Y-4232374D01*
X29881987Y-4235968D01*
X29859654Y-4242303D01*
X29837320Y-4248639D01*
X29768657Y-4296845D01*
X29768648Y-4296851D01*
X29768628Y-4296866D01*
X29696917Y-4352452D01*
X29688279Y-4354812D01*
X29680502Y-4350373D01*
X29680044Y-4349740D01*
X29603425Y-4235968D01*
X29563399Y-4176533D01*
X29561622Y-4167759D01*
X29563398Y-4163468D01*
X29680103Y-3990171D01*
X29687566Y-3985224D01*
X29696342Y-3987002D01*
G37*
%TD.AperFunction*%
%TD*%
%TA.AperFunction,Conductor*%
%TO.N,/LGAD4*%
G36*
X26974696Y-3581983D02*
G01*
X27043898Y-3628653D01*
X27151065Y-3700927D01*
X27156008Y-3708394D01*
X27154653Y-3716482D01*
X27075966Y-3852630D01*
X27045412Y-3909712D01*
X27044687Y-3910892D01*
X27004198Y-3968829D01*
X27003251Y-3970014D01*
X26943319Y-4035691D01*
X26935211Y-4039492D01*
X26926789Y-4036447D01*
X26926403Y-4036077D01*
X26852274Y-3961948D01*
X26848847Y-3953675D01*
X26851029Y-3946872D01*
X26880521Y-3905640D01*
X26884219Y-3863065D01*
X26865316Y-3823100D01*
X26832850Y-3781735D01*
X26832706Y-3781548D01*
X26780344Y-3711302D01*
X26778847Y-3708612D01*
X26750866Y-3637607D01*
X26751021Y-3628653D01*
X26757461Y-3622432D01*
X26759432Y-3621849D01*
X26965913Y-3580258D01*
X26974696Y-3581983D01*
G37*
%TD.AperFunction*%
%TD*%
%TA.AperFunction,Conductor*%
%TO.N,Net-(U4-TP2)*%
G36*
X41162271Y-5220117D02*
G01*
X41167708Y-5227233D01*
X41167866Y-5227906D01*
X41210023Y-5435196D01*
X41208314Y-5443986D01*
X41208263Y-5444063D01*
X41089668Y-5620168D01*
X41082204Y-5625116D01*
X41073428Y-5623338D01*
X41073190Y-5623173D01*
X41003690Y-5573829D01*
X40910108Y-5515033D01*
X40910107Y-5515032D01*
X40847636Y-5498691D01*
X40768123Y-5494132D01*
X40760060Y-5490237D01*
X40757093Y-5482451D01*
X40757093Y-5377378D01*
X40760520Y-5369105D01*
X40767942Y-5365709D01*
X40833907Y-5360902D01*
X40891157Y-5345873D01*
X40891159Y-5345871D01*
X40891162Y-5345871D01*
X40931841Y-5322960D01*
X40975957Y-5298115D01*
X41043115Y-5256794D01*
X41044681Y-5255986D01*
X41095854Y-5234342D01*
X41097397Y-5233815D01*
X41153397Y-5218931D01*
X41162271Y-5220117D01*
G37*
%TD.AperFunction*%
%TD*%
%TA.AperFunction,Conductor*%
%TO.N,Net-(U2-TP7)*%
G36*
X38225283Y-52763579D02*
G01*
X38226007Y-52764834D01*
X38273785Y-52861071D01*
X38274751Y-52863850D01*
X38292876Y-52949439D01*
X38292994Y-52950081D01*
X38296104Y-52970270D01*
X38321642Y-53057224D01*
X38349922Y-53103507D01*
X38387969Y-53147115D01*
X38390826Y-53155602D01*
X38387426Y-53163080D01*
X38313003Y-53237503D01*
X38304730Y-53240930D01*
X38297127Y-53238123D01*
X38246799Y-53195094D01*
X38246797Y-53195092D01*
X38246796Y-53195092D01*
X38195077Y-53166143D01*
X38195076Y-53166142D01*
X38195073Y-53166141D01*
X38099774Y-53142947D01*
X38015736Y-53125393D01*
X38013820Y-53124818D01*
X37963515Y-53104895D01*
X37961977Y-53104152D01*
X37913747Y-53076333D01*
X37908293Y-53069231D01*
X37909458Y-53060352D01*
X37909824Y-53059760D01*
X38027980Y-52881275D01*
X38031275Y-52877980D01*
X38209071Y-52760280D01*
X38217859Y-52758572D01*
X38225283Y-52763579D01*
G37*
%TD.AperFunction*%
%TD*%
%TA.AperFunction,Conductor*%
%TO.N,Net-(U2-TP6)*%
G36*
X35486505Y-53176760D02*
G01*
X35486798Y-53176965D01*
X35534793Y-53211761D01*
X35560085Y-53230098D01*
X35646553Y-53285884D01*
X35646554Y-53285884D01*
X35646555Y-53285885D01*
X35704489Y-53301423D01*
X35704493Y-53301423D01*
X35704496Y-53301424D01*
X35704494Y-53301424D01*
X35736730Y-53303383D01*
X35777012Y-53305831D01*
X35785060Y-53309753D01*
X35788000Y-53317509D01*
X35788000Y-53422655D01*
X35784573Y-53430928D01*
X35777186Y-53434321D01*
X35714013Y-53439117D01*
X35714006Y-53439118D01*
X35658967Y-53454187D01*
X35577813Y-53501986D01*
X35512132Y-53544056D01*
X35510473Y-53544940D01*
X35461499Y-53566159D01*
X35459883Y-53566722D01*
X35406626Y-53581028D01*
X35397747Y-53579865D01*
X35392292Y-53572764D01*
X35392131Y-53572082D01*
X35349976Y-53364801D01*
X35351685Y-53356013D01*
X35351685Y-53356012D01*
X35470266Y-53179929D01*
X35477729Y-53174982D01*
X35486505Y-53176760D01*
G37*
%TD.AperFunction*%
%TD*%
%TA.AperFunction,Conductor*%
%TO.N,Net-(U2-TP3)*%
G36*
X28261507Y-52842014D02*
G01*
X28268931Y-52847021D01*
X28270640Y-52855811D01*
X28270330Y-52857010D01*
X28238639Y-52957128D01*
X28237618Y-52959444D01*
X28195071Y-53033189D01*
X28146799Y-53125695D01*
X28134164Y-53180641D01*
X28134163Y-53180648D01*
X28134163Y-53180649D01*
X28130206Y-53241961D01*
X28126254Y-53249996D01*
X28118531Y-53252907D01*
X28013554Y-53252907D01*
X28005281Y-53249480D01*
X28001873Y-53241871D01*
X27997724Y-53168869D01*
X27997724Y-53168865D01*
X27987039Y-53125695D01*
X27983095Y-53109760D01*
X27983094Y-53109758D01*
X27983093Y-53109753D01*
X27958152Y-53062363D01*
X27922447Y-53013483D01*
X27866977Y-52936833D01*
X27864903Y-52928124D01*
X27869597Y-52920498D01*
X27869894Y-52920289D01*
X28045937Y-52801735D01*
X28054711Y-52799958D01*
X28261507Y-52842014D01*
G37*
%TD.AperFunction*%
%TD*%
%TA.AperFunction,Conductor*%
%TO.N,Net-(U1-TP9)*%
G36*
X21272283Y-53027499D02*
G01*
X21279750Y-53032442D01*
X21281527Y-53036711D01*
X21322014Y-53241165D01*
X21320260Y-53249946D01*
X21312810Y-53254915D01*
X21311288Y-53255114D01*
X21256616Y-53258632D01*
X21254690Y-53258597D01*
X21203990Y-53253479D01*
X21191718Y-53252240D01*
X21129690Y-53247100D01*
X21129689Y-53247100D01*
X21089004Y-53260524D01*
X21089002Y-53260525D01*
X21075312Y-53282955D01*
X21075312Y-53282957D01*
X21071824Y-53309807D01*
X21067360Y-53317570D01*
X21060222Y-53320000D01*
X20956926Y-53320000D01*
X20948653Y-53316573D01*
X20945226Y-53308300D01*
X20945336Y-53306700D01*
X20952853Y-53252240D01*
X20958466Y-53211574D01*
X20959600Y-53207928D01*
X20994099Y-53139207D01*
X20994374Y-53138692D01*
X21017791Y-53097806D01*
X21052469Y-52995088D01*
X21058362Y-52988346D01*
X21065787Y-52987346D01*
X21272283Y-53027499D01*
G37*
%TD.AperFunction*%
%TD*%
%TA.AperFunction,Conductor*%
%TO.N,Net-(U4-TP9)*%
G36*
X22625649Y-4108147D02*
G01*
X22629285Y-4116331D01*
X22629289Y-4116628D01*
X22629289Y-4221574D01*
X22625862Y-4229847D01*
X22619351Y-4233141D01*
X22569995Y-4240660D01*
X22535145Y-4265802D01*
X22516061Y-4304131D01*
X22504082Y-4352684D01*
X22504083Y-4352685D01*
X22490736Y-4407678D01*
X22490007Y-4409783D01*
X22455816Y-4484563D01*
X22449259Y-4490662D01*
X22440310Y-4490339D01*
X22438698Y-4489442D01*
X22263074Y-4372707D01*
X22258081Y-4365273D01*
X22258066Y-4365196D01*
X22246192Y-4304131D01*
X22217660Y-4157403D01*
X22219445Y-4148631D01*
X22226912Y-4143688D01*
X22227132Y-4143647D01*
X22420581Y-4110058D01*
X22422284Y-4109891D01*
X22617292Y-4104932D01*
X22625649Y-4108147D01*
G37*
%TD.AperFunction*%
%TD*%
%TA.AperFunction,Conductor*%
%TO.N,Net-(R1-Pad2)*%
G36*
X1646904Y-28448427D02*
G01*
X1650326Y-28456364D01*
X1655682Y-28642968D01*
X1655683Y-28642973D01*
X1683471Y-28864234D01*
X1683472Y-28864242D01*
X1732262Y-29035674D01*
X1732264Y-29035679D01*
X1797740Y-29159922D01*
X1877981Y-29244678D01*
X1877986Y-29244681D01*
X1962424Y-29288906D01*
X1968163Y-29295780D01*
X1967360Y-29304698D01*
X1965984Y-29306760D01*
X1358988Y-30035213D01*
X1351060Y-30039375D01*
X1342510Y-30036711D01*
X1341012Y-30035213D01*
X734816Y-29307721D01*
X732152Y-29299171D01*
X736314Y-29291243D01*
X739171Y-29289488D01*
X780650Y-29271642D01*
X829268Y-29238974D01*
X878483Y-29190655D01*
X919795Y-29133246D01*
X960859Y-29052540D01*
X992257Y-28963865D01*
X1031224Y-28775504D01*
X1047028Y-28593953D01*
X1049771Y-28456466D01*
X1053363Y-28448263D01*
X1061469Y-28445000D01*
X1638631Y-28445000D01*
X1646904Y-28448427D01*
G37*
%TD.AperFunction*%
%TD*%
%TA.AperFunction,Conductor*%
%TO.N,/ETROC3*%
G36*
X3899647Y-2359458D02*
G01*
X3900259Y-2359837D01*
X4078722Y-2477979D01*
X4082020Y-2481277D01*
X4199718Y-2659069D01*
X4201427Y-2667859D01*
X4196420Y-2675283D01*
X4195165Y-2676007D01*
X4098928Y-2723785D01*
X4096149Y-2724751D01*
X4010559Y-2742876D01*
X4009917Y-2742994D01*
X4000053Y-2744513D01*
X3989729Y-2746104D01*
X3989726Y-2746104D01*
X3989725Y-2746105D01*
X3902777Y-2771641D01*
X3856494Y-2799921D01*
X3856493Y-2799921D01*
X3812884Y-2837969D01*
X3804397Y-2840826D01*
X3796919Y-2837426D01*
X3722496Y-2763003D01*
X3719069Y-2754730D01*
X3721875Y-2747128D01*
X3764907Y-2696796D01*
X3793856Y-2645077D01*
X3817054Y-2549769D01*
X3834607Y-2465726D01*
X3835177Y-2463829D01*
X3855105Y-2413511D01*
X3855847Y-2411977D01*
X3883667Y-2363745D01*
X3890768Y-2358293D01*
X3899647Y-2359458D01*
G37*
%TD.AperFunction*%
%TD*%
%TA.AperFunction,Conductor*%
%TO.N,Net-(U3-TP6)*%
G36*
X8036411Y-4016899D02*
G01*
X8036872Y-4017226D01*
X8105288Y-4068267D01*
X8173307Y-4114808D01*
X8223047Y-4129650D01*
X8223049Y-4129650D01*
X8223053Y-4129651D01*
X8251405Y-4131602D01*
X8284433Y-4133876D01*
X8292451Y-4137863D01*
X8295329Y-4145548D01*
X8295329Y-4250663D01*
X8291902Y-4258936D01*
X8284388Y-4262338D01*
X8228678Y-4265960D01*
X8181678Y-4278756D01*
X8108312Y-4328484D01*
X8108311Y-4328484D01*
X8036892Y-4382638D01*
X8028229Y-4384906D01*
X8020500Y-4380384D01*
X8020118Y-4379850D01*
X7952037Y-4278756D01*
X7903399Y-4206533D01*
X7901622Y-4197759D01*
X7903398Y-4193468D01*
X8020172Y-4020067D01*
X8027635Y-4015121D01*
X8036411Y-4016899D01*
G37*
%TD.AperFunction*%
%TD*%
%TA.AperFunction,Conductor*%
%TO.N,Net-(U3-TP3)*%
G36*
X14727156Y-4579965D02*
G01*
X14809710Y-4607742D01*
X14828992Y-4614230D01*
X14831641Y-4615511D01*
X14905002Y-4663232D01*
X14905539Y-4663604D01*
X14921988Y-4675662D01*
X14921999Y-4675669D01*
X15001541Y-4719096D01*
X15027901Y-4725459D01*
X15054263Y-4731824D01*
X15112002Y-4735757D01*
X15120023Y-4739738D01*
X15122907Y-4747430D01*
X15122907Y-4852679D01*
X15119480Y-4860952D01*
X15112119Y-4864343D01*
X15046100Y-4869506D01*
X14989064Y-4885605D01*
X14905268Y-4936595D01*
X14833432Y-4983605D01*
X14831671Y-4984553D01*
X14782012Y-5006037D01*
X14780399Y-5006599D01*
X14726625Y-5021031D01*
X14717746Y-5019866D01*
X14712292Y-5012764D01*
X14712127Y-5012063D01*
X14710971Y-5006378D01*
X14669474Y-4802330D01*
X14669474Y-4797668D01*
X14681255Y-4739738D01*
X14711967Y-4588721D01*
X14716973Y-4581300D01*
X14725763Y-4579591D01*
X14727156Y-4579965D01*
G37*
%TD.AperFunction*%
%TD*%
%TA.AperFunction,Conductor*%
%TO.N,Net-(U3-TP4)*%
G36*
X13425283Y-3743579D02*
G01*
X13426007Y-3744834D01*
X13473785Y-3841071D01*
X13474751Y-3843850D01*
X13492876Y-3929439D01*
X13492994Y-3930081D01*
X13496104Y-3950270D01*
X13521642Y-4037224D01*
X13549922Y-4083507D01*
X13587969Y-4127115D01*
X13590826Y-4135602D01*
X13587426Y-4143080D01*
X13513003Y-4217503D01*
X13504730Y-4220930D01*
X13497127Y-4218123D01*
X13446799Y-4175094D01*
X13446797Y-4175092D01*
X13446796Y-4175092D01*
X13395077Y-4146143D01*
X13395076Y-4146142D01*
X13395073Y-4146141D01*
X13299774Y-4122947D01*
X13215736Y-4105393D01*
X13213820Y-4104818D01*
X13163515Y-4084895D01*
X13161977Y-4084152D01*
X13113747Y-4056333D01*
X13108293Y-4049231D01*
X13109458Y-4040352D01*
X13109824Y-4039760D01*
X13227980Y-3861275D01*
X13231275Y-3857980D01*
X13409071Y-3740280D01*
X13417859Y-3738572D01*
X13425283Y-3743579D01*
G37*
%TD.AperFunction*%
%TD*%
%TA.AperFunction,Conductor*%
%TO.N,Net-(U3-TP9)*%
G36*
X1443986Y-2591685D02*
G01*
X1444047Y-2591725D01*
X1620187Y-2710344D01*
X1625135Y-2717808D01*
X1623357Y-2726584D01*
X1623205Y-2726804D01*
X1575296Y-2794556D01*
X1575294Y-2794559D01*
X1516607Y-2888220D01*
X1516604Y-2888227D01*
X1500050Y-2951284D01*
X1495458Y-3031873D01*
X1491566Y-3039937D01*
X1483777Y-3042907D01*
X1378699Y-3042907D01*
X1370426Y-3039480D01*
X1367031Y-3032065D01*
X1362178Y-2966102D01*
X1347004Y-2908877D01*
X1347002Y-2908872D01*
X1298831Y-2824237D01*
X1256738Y-2756397D01*
X1255909Y-2754798D01*
X1255519Y-2753880D01*
X1234288Y-2703840D01*
X1233755Y-2702284D01*
X1218936Y-2646604D01*
X1220119Y-2637730D01*
X1227233Y-2632291D01*
X1227890Y-2632136D01*
X1435198Y-2589976D01*
X1443986Y-2591685D01*
G37*
%TD.AperFunction*%
%TD*%
%TA.AperFunction,Conductor*%
%TO.N,Net-(U4-TP7)*%
G36*
X27762238Y-3950147D02*
G01*
X27767707Y-3957238D01*
X27767878Y-3957962D01*
X27810525Y-4167668D01*
X27810525Y-4172332D01*
X27767879Y-4382031D01*
X27762872Y-4389455D01*
X27754082Y-4391164D01*
X27753352Y-4390991D01*
X27702678Y-4377248D01*
X27701001Y-4376653D01*
X27653750Y-4355720D01*
X27651864Y-4354667D01*
X27580862Y-4305893D01*
X27580310Y-4305489D01*
X27563584Y-4292496D01*
X27563569Y-4292486D01*
X27487714Y-4249035D01*
X27437169Y-4236303D01*
X27408583Y-4234272D01*
X27382200Y-4232399D01*
X27374190Y-4228394D01*
X27371329Y-4220728D01*
X27371329Y-4115426D01*
X27374756Y-4107153D01*
X27382091Y-4103763D01*
X27445476Y-4098679D01*
X27500461Y-4082739D01*
X27580973Y-4032318D01*
X27650328Y-3985674D01*
X27652115Y-3984690D01*
X27700033Y-3963568D01*
X27701685Y-3962983D01*
X27753357Y-3949000D01*
X27762238Y-3950147D01*
G37*
%TD.AperFunction*%
%TD*%
%TA.AperFunction,Conductor*%
%TO.N,Net-(U2-TP5)*%
G36*
X31513986Y-52501685D02*
G01*
X31514063Y-52501736D01*
X31690138Y-52620312D01*
X31695086Y-52627776D01*
X31693308Y-52636552D01*
X31693123Y-52636818D01*
X31641665Y-52708847D01*
X31582704Y-52802263D01*
X31566651Y-52863898D01*
X31566650Y-52863900D01*
X31562138Y-52941883D01*
X31558239Y-52949944D01*
X31550458Y-52952907D01*
X31445390Y-52952907D01*
X31437117Y-52949480D01*
X31433720Y-52942045D01*
X31428983Y-52876085D01*
X31428983Y-52876079D01*
X31414169Y-52818780D01*
X31367055Y-52733772D01*
X31326884Y-52667636D01*
X31326100Y-52666101D01*
X31313662Y-52636552D01*
X31304427Y-52614612D01*
X31303908Y-52613091D01*
X31288923Y-52556596D01*
X31290114Y-52547723D01*
X31297232Y-52542290D01*
X31297878Y-52542138D01*
X31505198Y-52499976D01*
X31513986Y-52501685D01*
G37*
%TD.AperFunction*%
%TD*%
%TA.AperFunction,Conductor*%
%TO.N,GND*%
G36*
X27169296Y-53089266D02*
G01*
X27286311Y-53262775D01*
X27288096Y-53271550D01*
X27286334Y-53275825D01*
X27170374Y-53449053D01*
X27162924Y-53454022D01*
X27154143Y-53452268D01*
X27152948Y-53451351D01*
X27094774Y-53400466D01*
X27094415Y-53400139D01*
X27061969Y-53369291D01*
X27061964Y-53369287D01*
X27021361Y-53350042D01*
X27021359Y-53350042D01*
X26996573Y-53355565D01*
X26976700Y-53370617D01*
X26968036Y-53372880D01*
X26961363Y-53369563D01*
X26887484Y-53295684D01*
X26884057Y-53287411D01*
X26887484Y-53279138D01*
X26887910Y-53278733D01*
X26976711Y-53198690D01*
X26978162Y-53197575D01*
X27056729Y-53146508D01*
X27056811Y-53146456D01*
X27153382Y-53085895D01*
X27162210Y-53084404D01*
X27169296Y-53089266D01*
G37*
%TD.AperFunction*%
%TD*%
%TA.AperFunction,Conductor*%
%TO.N,Net-(U2-TP2)*%
G36*
X26625196Y-52108066D02*
G01*
X26632663Y-52113009D01*
X26632707Y-52113074D01*
X26749719Y-52289116D01*
X26751445Y-52297903D01*
X26746452Y-52305337D01*
X26745228Y-52306047D01*
X26707265Y-52325124D01*
X26704820Y-52326028D01*
X26655658Y-52338183D01*
X26653346Y-52338514D01*
X26556119Y-52342639D01*
X26473565Y-52347393D01*
X26473563Y-52347394D01*
X26432026Y-52372733D01*
X26418315Y-52402495D01*
X26414631Y-52436489D01*
X26410332Y-52444345D01*
X26402999Y-52446928D01*
X26298926Y-52446928D01*
X26290653Y-52443501D01*
X26287226Y-52435228D01*
X26287247Y-52434525D01*
X26290794Y-52375588D01*
X26291038Y-52373815D01*
X26291272Y-52372734D01*
X26302303Y-52321785D01*
X26303113Y-52319363D01*
X26309257Y-52306047D01*
X26340154Y-52239080D01*
X26340402Y-52238578D01*
X26365008Y-52191887D01*
X26402561Y-52075272D01*
X26408359Y-52068448D01*
X26415931Y-52067374D01*
X26625196Y-52108066D01*
G37*
%TD.AperFunction*%
%TD*%
%TA.AperFunction,Conductor*%
%TO.N,VCC*%
G36*
X916776Y-5572759D02*
G01*
X918065Y-5574360D01*
X1023150Y-5731343D01*
X1033663Y-5747047D01*
X1035417Y-5755828D01*
X1033640Y-5760097D01*
X916782Y-5933373D01*
X909315Y-5938316D01*
X900625Y-5936588D01*
X854175Y-5905850D01*
X853915Y-5905673D01*
X758806Y-5838984D01*
X757535Y-5837953D01*
X661442Y-5748165D01*
X657737Y-5740013D01*
X660881Y-5731628D01*
X661126Y-5731374D01*
X735554Y-5656946D01*
X743826Y-5653520D01*
X750408Y-5655547D01*
X772227Y-5670394D01*
X772228Y-5670394D01*
X772229Y-5670395D01*
X772229Y-5670394D01*
X772230Y-5670395D01*
X773403Y-5670337D01*
X797515Y-5669164D01*
X845229Y-5625319D01*
X900233Y-5572433D01*
X908572Y-5569170D01*
X916776Y-5572759D01*
G37*
%TD.AperFunction*%
%TD*%
%TA.AperFunction,Conductor*%
%TO.N,Net-(U2-TP9)*%
G36*
X42841596Y-52782032D02*
G01*
X42849020Y-52787039D01*
X42850729Y-52795829D01*
X42850442Y-52796951D01*
X42819729Y-52896339D01*
X42818803Y-52898523D01*
X42778249Y-52972266D01*
X42732760Y-53063131D01*
X42720157Y-53119054D01*
X42716191Y-53181943D01*
X42712250Y-53189985D01*
X42704514Y-53192907D01*
X42599513Y-53192907D01*
X42591240Y-53189480D01*
X42587834Y-53181914D01*
X42583503Y-53110390D01*
X42568482Y-53052262D01*
X42568479Y-53052258D01*
X42568479Y-53052255D01*
X42543395Y-53006113D01*
X42543389Y-53006105D01*
X42508254Y-52959606D01*
X42508177Y-52959504D01*
X42463141Y-52898523D01*
X42447143Y-52876860D01*
X42444985Y-52868169D01*
X42449604Y-52860497D01*
X42449985Y-52860227D01*
X42625937Y-52741735D01*
X42634711Y-52739958D01*
X42841596Y-52782032D01*
G37*
%TD.AperFunction*%
%TD*%
%TA.AperFunction,Conductor*%
%TO.N,Net-(U3-TP5)*%
G36*
X9495283Y-4013579D02*
G01*
X9496007Y-4014834D01*
X9543785Y-4111071D01*
X9544751Y-4113850D01*
X9562876Y-4199439D01*
X9562994Y-4200081D01*
X9566104Y-4220270D01*
X9591642Y-4307224D01*
X9619922Y-4353507D01*
X9657969Y-4397115D01*
X9660826Y-4405602D01*
X9657426Y-4413080D01*
X9583003Y-4487503D01*
X9574730Y-4490930D01*
X9567127Y-4488123D01*
X9516799Y-4445094D01*
X9516797Y-4445092D01*
X9516796Y-4445092D01*
X9465077Y-4416143D01*
X9465076Y-4416142D01*
X9465073Y-4416141D01*
X9369774Y-4392947D01*
X9285736Y-4375393D01*
X9283820Y-4374818D01*
X9233515Y-4354895D01*
X9231977Y-4354152D01*
X9183747Y-4326333D01*
X9178293Y-4319231D01*
X9179458Y-4310352D01*
X9179824Y-4309760D01*
X9297980Y-4131275D01*
X9301275Y-4127980D01*
X9479071Y-4010280D01*
X9487859Y-4008572D01*
X9495283Y-4013579D01*
G37*
%TD.AperFunction*%
%TD*%
%TA.AperFunction,Conductor*%
%TO.N,/ETROC2*%
G36*
X42428739Y-53960073D02*
G01*
X42432120Y-53967309D01*
X42443339Y-54093357D01*
X42473037Y-54184196D01*
X42479725Y-54201357D01*
X42480065Y-54202359D01*
X42520738Y-54343209D01*
X42519741Y-54352108D01*
X42512743Y-54357696D01*
X42511829Y-54357920D01*
X42304803Y-54400023D01*
X42296013Y-54398314D01*
X42295936Y-54398263D01*
X42120373Y-54280033D01*
X42115425Y-54272569D01*
X42117203Y-54263793D01*
X42117725Y-54263079D01*
X42164049Y-54204652D01*
X42165102Y-54203494D01*
X42185149Y-54184196D01*
X42213942Y-54156479D01*
X42240951Y-54131311D01*
X42285737Y-54068980D01*
X42299367Y-54021417D01*
X42303367Y-53967480D01*
X42307396Y-53959484D01*
X42315035Y-53956646D01*
X42420466Y-53956646D01*
X42428739Y-53960073D01*
G37*
%TD.AperFunction*%
%TD*%
%TA.AperFunction,Conductor*%
%TO.N,/ETROC1*%
G36*
X20033080Y-54642573D02*
G01*
X20107503Y-54716996D01*
X20110930Y-54725269D01*
X20108123Y-54732872D01*
X20065094Y-54783200D01*
X20036141Y-54834926D01*
X20012947Y-54930224D01*
X19995393Y-55014263D01*
X19994818Y-55016179D01*
X19974895Y-55066484D01*
X19974152Y-55068022D01*
X19946333Y-55116252D01*
X19939231Y-55121706D01*
X19930352Y-55120541D01*
X19929740Y-55120162D01*
X19751277Y-55002020D01*
X19747979Y-54998722D01*
X19702638Y-54930231D01*
X19630280Y-54820929D01*
X19628572Y-54812140D01*
X19633579Y-54804716D01*
X19634818Y-54804000D01*
X19731073Y-54756212D01*
X19733847Y-54755247D01*
X19819441Y-54737123D01*
X19820080Y-54737007D01*
X19837316Y-54734350D01*
X19840270Y-54733895D01*
X19927224Y-54708358D01*
X19973507Y-54680078D01*
X20017117Y-54642029D01*
X20025602Y-54639173D01*
X20033080Y-54642573D01*
G37*
%TD.AperFunction*%
%TD*%
%TA.AperFunction,Conductor*%
%TO.N,GND*%
G36*
X25912013Y-52742117D02*
G01*
X25919436Y-52747123D01*
X25921145Y-52755913D01*
X25920967Y-52756661D01*
X25879967Y-52906928D01*
X25879851Y-52907325D01*
X25860342Y-52970009D01*
X25860341Y-52970012D01*
X25847816Y-53039366D01*
X25843694Y-53127231D01*
X25839883Y-53135335D01*
X25832007Y-53138383D01*
X25726797Y-53138383D01*
X25718524Y-53134956D01*
X25715151Y-53127806D01*
X25709165Y-53065746D01*
X25709163Y-53065741D01*
X25698938Y-53039366D01*
X25689653Y-53015416D01*
X25675010Y-52997200D01*
X25659896Y-52978396D01*
X25634241Y-52956165D01*
X25622156Y-52945693D01*
X25588107Y-52916887D01*
X25586830Y-52915627D01*
X25518558Y-52837018D01*
X25515721Y-52828525D01*
X25519720Y-52820512D01*
X25520852Y-52819644D01*
X25695937Y-52701735D01*
X25704711Y-52699958D01*
X25912013Y-52742117D01*
G37*
%TD.AperFunction*%
%TD*%
%TA.AperFunction,Conductor*%
%TO.N,Net-(U1-TP8)*%
G36*
X18206120Y-53137331D02*
G01*
X18206964Y-53137957D01*
X18276843Y-53194753D01*
X18332276Y-53237871D01*
X18353034Y-53244829D01*
X18373444Y-53251671D01*
X18422247Y-53255628D01*
X18430215Y-53259711D01*
X18433000Y-53267289D01*
X18433000Y-53372651D01*
X18429573Y-53380924D01*
X18422183Y-53384318D01*
X18376336Y-53387788D01*
X18336448Y-53400077D01*
X18276840Y-53445247D01*
X18206964Y-53502042D01*
X18198383Y-53504601D01*
X18190506Y-53500342D01*
X18189880Y-53499498D01*
X18073399Y-53326533D01*
X18071622Y-53317759D01*
X18073398Y-53313468D01*
X18189882Y-53140499D01*
X18197344Y-53135553D01*
X18206120Y-53137331D01*
G37*
%TD.AperFunction*%
%TD*%
%TA.AperFunction,Conductor*%
%TO.N,Net-(U1-TP1)*%
G36*
X3107156Y-53149965D02*
G01*
X3189710Y-53177742D01*
X3208992Y-53184230D01*
X3211641Y-53185511D01*
X3285002Y-53233232D01*
X3285539Y-53233604D01*
X3301988Y-53245662D01*
X3301999Y-53245669D01*
X3381541Y-53289096D01*
X3407901Y-53295459D01*
X3434263Y-53301824D01*
X3492002Y-53305757D01*
X3500023Y-53309738D01*
X3502907Y-53317430D01*
X3502907Y-53422679D01*
X3499480Y-53430952D01*
X3492119Y-53434343D01*
X3426100Y-53439506D01*
X3369064Y-53455605D01*
X3285268Y-53506595D01*
X3213432Y-53553605D01*
X3211671Y-53554553D01*
X3162012Y-53576037D01*
X3160399Y-53576599D01*
X3106625Y-53591031D01*
X3097746Y-53589866D01*
X3092292Y-53582764D01*
X3092127Y-53582063D01*
X3090971Y-53576378D01*
X3049474Y-53372330D01*
X3049474Y-53367668D01*
X3061255Y-53309738D01*
X3091967Y-53158721D01*
X3096973Y-53151300D01*
X3105763Y-53149591D01*
X3107156Y-53149965D01*
G37*
%TD.AperFunction*%
%TD*%
%TA.AperFunction,Conductor*%
%TO.N,Net-(U1-TP4)*%
G36*
X8532259Y-53110128D02*
G01*
X8537708Y-53117234D01*
X8537871Y-53117927D01*
X8580023Y-53325196D01*
X8578314Y-53333986D01*
X8578263Y-53334063D01*
X8459711Y-53510104D01*
X8452247Y-53515052D01*
X8443471Y-53513274D01*
X8443172Y-53513066D01*
X8371007Y-53461133D01*
X8323882Y-53431026D01*
X8282198Y-53404395D01*
X8282199Y-53404395D01*
X8222789Y-53388612D01*
X8222782Y-53388611D01*
X8148004Y-53384155D01*
X8139949Y-53380242D01*
X8137000Y-53372476D01*
X8137000Y-53267356D01*
X8140427Y-53259083D01*
X8147825Y-53255689D01*
X8211935Y-53250889D01*
X8267714Y-53235832D01*
X8350083Y-53188052D01*
X8416288Y-53146221D01*
X8417899Y-53145372D01*
X8467623Y-53124005D01*
X8469201Y-53123458D01*
X8523383Y-53108957D01*
X8532259Y-53110128D01*
G37*
%TD.AperFunction*%
%TD*%
%TA.AperFunction,Conductor*%
%TO.N,Net-(U4-TP4)*%
G36*
X35507034Y-3959741D02*
G01*
X35607639Y-3992105D01*
X35610035Y-3993187D01*
X35683520Y-4036962D01*
X35684043Y-4037293D01*
X35690415Y-4041560D01*
X35694316Y-4044174D01*
X35777329Y-4087299D01*
X35831665Y-4099961D01*
X35891972Y-4103910D01*
X35900003Y-4107870D01*
X35902907Y-4115585D01*
X35902907Y-4220543D01*
X35899480Y-4228816D01*
X35891840Y-4232226D01*
X35817648Y-4236247D01*
X35817647Y-4236247D01*
X35757786Y-4250625D01*
X35757778Y-4250628D01*
X35709422Y-4275548D01*
X35709415Y-4275552D01*
X35658694Y-4311799D01*
X35658690Y-4311801D01*
X35586817Y-4363127D01*
X35578093Y-4365147D01*
X35570497Y-4360405D01*
X35570313Y-4360141D01*
X35537759Y-4311801D01*
X35451735Y-4184062D01*
X35449958Y-4175287D01*
X35492002Y-3968550D01*
X35497009Y-3961127D01*
X35505799Y-3959418D01*
X35507034Y-3959741D01*
G37*
%TD.AperFunction*%
%TD*%
%TA.AperFunction,Conductor*%
%TO.N,Net-(U1-TP3)*%
G36*
X6621369Y-52921136D02*
G01*
X6628792Y-52926142D01*
X6630501Y-52934932D01*
X6630152Y-52936251D01*
X6598035Y-53034028D01*
X6596860Y-53036547D01*
X6561856Y-53092950D01*
X6558416Y-53096508D01*
X6551580Y-53101076D01*
X6551576Y-53101079D01*
X6523398Y-53143251D01*
X6523398Y-53143252D01*
X6518862Y-53166050D01*
X6517683Y-53169324D01*
X6501826Y-53198702D01*
X6501824Y-53198705D01*
X6489164Y-53251178D01*
X6489164Y-53251183D01*
X6485239Y-53309091D01*
X6481261Y-53317114D01*
X6473566Y-53320000D01*
X6368552Y-53320000D01*
X6360279Y-53316573D01*
X6356871Y-53308966D01*
X6352890Y-53239148D01*
X6352890Y-53239143D01*
X6338783Y-53182267D01*
X6314761Y-53136691D01*
X6280407Y-53089734D01*
X6226985Y-53015985D01*
X6224908Y-53007275D01*
X6229597Y-52999647D01*
X6229873Y-52999453D01*
X6405937Y-52880885D01*
X6414711Y-52879108D01*
X6621369Y-52921136D01*
G37*
%TD.AperFunction*%
%TD*%
%TA.AperFunction,Conductor*%
%TO.N,GND*%
G36*
X4188852Y-54004647D02*
G01*
X4192279Y-54012920D01*
X4192248Y-54013778D01*
X4188088Y-54070378D01*
X4187729Y-54072515D01*
X4174541Y-54122323D01*
X4173403Y-54125109D01*
X4130270Y-54201002D01*
X4130014Y-54201431D01*
X4093306Y-54260037D01*
X4093306Y-54260038D01*
X4078562Y-54293915D01*
X4071796Y-54309462D01*
X4061366Y-54348200D01*
X4057090Y-54364083D01*
X4051630Y-54371181D01*
X4043559Y-54372526D01*
X3837716Y-54332500D01*
X3830249Y-54327557D01*
X3828473Y-54323291D01*
X3787877Y-54118286D01*
X3789631Y-54109505D01*
X3797081Y-54104536D01*
X3798089Y-54104382D01*
X3853905Y-54098403D01*
X3855204Y-54098337D01*
X3918724Y-54098811D01*
X4005226Y-54095368D01*
X4047514Y-54071645D01*
X4061339Y-54043444D01*
X4064984Y-54011589D01*
X4069329Y-54003760D01*
X4076608Y-54001220D01*
X4180579Y-54001220D01*
X4188852Y-54004647D01*
G37*
%TD.AperFunction*%
%TD*%
%TA.AperFunction,Conductor*%
%TO.N,Net-(U2-TP8)*%
G36*
X39736398Y-53299065D02*
G01*
X39736397Y-53299066D01*
X39736449Y-53299067D01*
X39891315Y-53305999D01*
X39899426Y-53309792D01*
X39902491Y-53317687D01*
X39902491Y-53423303D01*
X39899064Y-53431576D01*
X39892389Y-53434893D01*
X39842315Y-53441798D01*
X39842312Y-53441800D01*
X39804981Y-53465111D01*
X39804980Y-53465112D01*
X39781989Y-53501067D01*
X39764844Y-53547271D01*
X39756282Y-53572122D01*
X39755737Y-53573438D01*
X39715974Y-53655012D01*
X39709269Y-53660947D01*
X39700330Y-53660402D01*
X39698980Y-53659629D01*
X39523074Y-53542707D01*
X39518081Y-53535273D01*
X39518066Y-53535196D01*
X39499905Y-53441800D01*
X39477756Y-53327897D01*
X39479541Y-53319125D01*
X39487008Y-53314182D01*
X39487653Y-53314075D01*
X39627247Y-53295094D01*
X39629258Y-53294996D01*
X39736398Y-53299065D01*
G37*
%TD.AperFunction*%
%TD*%
%TA.AperFunction,Conductor*%
%TO.N,Net-(U4-TP1)*%
G36*
X40273986Y-2921685D02*
G01*
X40274063Y-2921736D01*
X40449864Y-3040127D01*
X40454812Y-3047591D01*
X40453034Y-3056367D01*
X40452661Y-3056889D01*
X40386063Y-3144965D01*
X40385784Y-3145320D01*
X40372045Y-3162100D01*
X40324416Y-3237394D01*
X40309778Y-3293690D01*
X40309778Y-3293696D01*
X40305514Y-3361937D01*
X40301578Y-3369980D01*
X40293837Y-3372907D01*
X40188818Y-3372907D01*
X40180545Y-3369480D01*
X40177141Y-3361939D01*
X40172993Y-3295765D01*
X40172527Y-3293696D01*
X40159965Y-3237969D01*
X40118198Y-3151091D01*
X40087937Y-3095202D01*
X40087088Y-3093213D01*
X40049742Y-2977046D01*
X40050473Y-2968123D01*
X40057300Y-2962328D01*
X40058537Y-2962004D01*
X40265198Y-2919976D01*
X40273986Y-2921685D01*
G37*
%TD.AperFunction*%
%TD*%
%TA.AperFunction,Conductor*%
%TO.N,Net-(U1-TP7)*%
G36*
X16337016Y-53119697D02*
G01*
X16432901Y-53150253D01*
X16435255Y-53151301D01*
X16506093Y-53192719D01*
X16593560Y-53239242D01*
X16646770Y-53251843D01*
X16706075Y-53255775D01*
X16714102Y-53259741D01*
X16717000Y-53267449D01*
X16717000Y-53372523D01*
X16713573Y-53380796D01*
X16706046Y-53384199D01*
X16639650Y-53388441D01*
X16639645Y-53388441D01*
X16639643Y-53388442D01*
X16639640Y-53388442D01*
X16639633Y-53388444D01*
X16585107Y-53403091D01*
X16585104Y-53403092D01*
X16499501Y-53460482D01*
X16499495Y-53460486D01*
X16416884Y-53522696D01*
X16408214Y-53524936D01*
X16400500Y-53520388D01*
X16400141Y-53519885D01*
X16311624Y-53388444D01*
X16281735Y-53344062D01*
X16279958Y-53335287D01*
X16322009Y-53128515D01*
X16327016Y-53121092D01*
X16335806Y-53119383D01*
X16337016Y-53119697D01*
G37*
%TD.AperFunction*%
%TD*%
%TA.AperFunction,Conductor*%
%TO.N,/ETROC4*%
G36*
X24273253Y-4289133D02*
G01*
X24278707Y-4296235D01*
X24278872Y-4296936D01*
X24321525Y-4506668D01*
X24321525Y-4511332D01*
X24279033Y-4720275D01*
X24274026Y-4727699D01*
X24265236Y-4729408D01*
X24263837Y-4729032D01*
X24162007Y-4694769D01*
X24159358Y-4693488D01*
X24085996Y-4645766D01*
X24085459Y-4645394D01*
X24069011Y-4633337D01*
X24069000Y-4633330D01*
X23989458Y-4589903D01*
X23936738Y-4577176D01*
X23878998Y-4573242D01*
X23870977Y-4569261D01*
X23868093Y-4561569D01*
X23868093Y-4456320D01*
X23871520Y-4448047D01*
X23878879Y-4444656D01*
X23944897Y-4439494D01*
X24001938Y-4423393D01*
X24085734Y-4372403D01*
X24157581Y-4325384D01*
X24159318Y-4324449D01*
X24208996Y-4302958D01*
X24210587Y-4302403D01*
X24264375Y-4287968D01*
X24273253Y-4289133D01*
G37*
%TD.AperFunction*%
%TD*%
%TA.AperFunction,Conductor*%
%TO.N,GND*%
G36*
X5722253Y-53110133D02*
G01*
X5727707Y-53117235D01*
X5727872Y-53117936D01*
X5770525Y-53327668D01*
X5770525Y-53332332D01*
X5728033Y-53541275D01*
X5723026Y-53548699D01*
X5714236Y-53550408D01*
X5712837Y-53550032D01*
X5611007Y-53515769D01*
X5608358Y-53514488D01*
X5534996Y-53466766D01*
X5534459Y-53466394D01*
X5518011Y-53454337D01*
X5518000Y-53454330D01*
X5438458Y-53410903D01*
X5385738Y-53398176D01*
X5327998Y-53394242D01*
X5319977Y-53390261D01*
X5317093Y-53382569D01*
X5317093Y-53277320D01*
X5320520Y-53269047D01*
X5327879Y-53265656D01*
X5393897Y-53260494D01*
X5450938Y-53244393D01*
X5534734Y-53193403D01*
X5606581Y-53146384D01*
X5608318Y-53145449D01*
X5657996Y-53123958D01*
X5659587Y-53123403D01*
X5713375Y-53108968D01*
X5722253Y-53110133D01*
G37*
%TD.AperFunction*%
%TD*%
%TA.AperFunction,Conductor*%
%TO.N,Net-(U3-TP2)*%
G36*
X17792943Y-4988883D02*
G01*
X17796370Y-4997156D01*
X17796361Y-4997606D01*
X17790226Y-5157003D01*
X17790046Y-5158647D01*
X17766560Y-5287725D01*
X17766502Y-5288021D01*
X17746614Y-5383309D01*
X17741569Y-5390708D01*
X17732928Y-5392404D01*
X17524803Y-5351933D01*
X17517336Y-5346990D01*
X17517292Y-5346925D01*
X17400510Y-5171229D01*
X17398784Y-5162442D01*
X17403777Y-5155008D01*
X17405313Y-5154147D01*
X17470922Y-5123657D01*
X17473332Y-5122843D01*
X17545798Y-5106933D01*
X17545855Y-5106920D01*
X17608484Y-5092517D01*
X17608484Y-5092516D01*
X17608487Y-5092516D01*
X17651329Y-5061914D01*
X17665016Y-5030736D01*
X17668717Y-4995919D01*
X17672999Y-4988055D01*
X17680351Y-4985456D01*
X17784670Y-4985456D01*
X17792943Y-4988883D01*
G37*
%TD.AperFunction*%
%TD*%
%TA.AperFunction,Conductor*%
%TO.N,Net-(U4-TP5)*%
G36*
X32006627Y-3939005D02*
G01*
X32059648Y-3953396D01*
X32061327Y-3953993D01*
X32110358Y-3975754D01*
X32112249Y-3976812D01*
X32185853Y-4027507D01*
X32186389Y-4027900D01*
X32206538Y-4043538D01*
X32206541Y-4043540D01*
X32284056Y-4087171D01*
X32335805Y-4099945D01*
X32392022Y-4103867D01*
X32400036Y-4107862D01*
X32402907Y-4115539D01*
X32402907Y-4220759D01*
X32399480Y-4229032D01*
X32392069Y-4232427D01*
X32326104Y-4237301D01*
X32326097Y-4237302D01*
X32268897Y-4252530D01*
X32268896Y-4252530D01*
X32268894Y-4252530D01*
X32268894Y-4252531D01*
X32184286Y-4300894D01*
X32184278Y-4300899D01*
X32116205Y-4343281D01*
X32114596Y-4344117D01*
X32063727Y-4365729D01*
X32062163Y-4366267D01*
X32006608Y-4381061D01*
X31997731Y-4379878D01*
X31992291Y-4372766D01*
X31992132Y-4372087D01*
X31986274Y-4343281D01*
X31949474Y-4162330D01*
X31949474Y-4157668D01*
X31960261Y-4104627D01*
X31992120Y-3947969D01*
X31997127Y-3940546D01*
X32005917Y-3938837D01*
X32006627Y-3939005D01*
G37*
%TD.AperFunction*%
%TD*%
%TA.AperFunction,Conductor*%
%TO.N,GND*%
G36*
X16745186Y-4183647D02*
G01*
X16745966Y-4185011D01*
X16775701Y-4246219D01*
X16776494Y-4248363D01*
X16794214Y-4315903D01*
X16810276Y-4374832D01*
X16810278Y-4374834D01*
X16842420Y-4417984D01*
X16874198Y-4431686D01*
X16874199Y-4431686D01*
X16874202Y-4431687D01*
X16901570Y-4434558D01*
X16909586Y-4435400D01*
X16917456Y-4439671D01*
X16920065Y-4447036D01*
X16920065Y-4551800D01*
X16916639Y-4560073D01*
X16916638Y-4560073D01*
X16916638Y-4560074D01*
X16908366Y-4563501D01*
X16900274Y-4563502D01*
X16899979Y-4563498D01*
X16706926Y-4558651D01*
X16705245Y-4558487D01*
X16600988Y-4540630D01*
X16517185Y-4526276D01*
X16509610Y-4521503D01*
X16507629Y-4512770D01*
X16507663Y-4512579D01*
X16548066Y-4304802D01*
X16553009Y-4297336D01*
X16553074Y-4297292D01*
X16728966Y-4180379D01*
X16737752Y-4178654D01*
X16745186Y-4183647D01*
G37*
%TD.AperFunction*%
%TD*%
%TA.AperFunction,Conductor*%
%TO.N,Net-(U4-TP8)*%
G36*
X25949647Y-3689458D02*
G01*
X25950259Y-3689837D01*
X26128722Y-3807979D01*
X26132020Y-3811277D01*
X26249718Y-3989069D01*
X26251427Y-3997859D01*
X26246420Y-4005283D01*
X26245165Y-4006007D01*
X26148928Y-4053785D01*
X26146149Y-4054751D01*
X26060559Y-4072876D01*
X26059917Y-4072994D01*
X26050053Y-4074513D01*
X26039729Y-4076104D01*
X26039726Y-4076104D01*
X26039725Y-4076105D01*
X25952777Y-4101641D01*
X25906494Y-4129921D01*
X25906493Y-4129921D01*
X25862884Y-4167969D01*
X25854397Y-4170826D01*
X25846919Y-4167426D01*
X25772496Y-4093003D01*
X25769069Y-4084730D01*
X25771875Y-4077128D01*
X25814907Y-4026796D01*
X25843856Y-3975077D01*
X25867054Y-3879769D01*
X25884607Y-3795726D01*
X25885177Y-3793829D01*
X25905105Y-3743511D01*
X25905847Y-3741977D01*
X25933667Y-3693745D01*
X25940768Y-3688293D01*
X25949647Y-3689458D01*
G37*
%TD.AperFunction*%
%TD*%
%TA.AperFunction,Conductor*%
%TO.N,/LGAD1*%
G36*
X17481472Y-52924541D02*
G01*
X17555877Y-52998946D01*
X17559304Y-53007219D01*
X17556657Y-53014631D01*
X17545562Y-53028183D01*
X17517485Y-53062477D01*
X17517484Y-53062478D01*
X17517484Y-53062479D01*
X17496420Y-53111753D01*
X17496419Y-53111757D01*
X17493890Y-53139884D01*
X17492182Y-53158871D01*
X17496787Y-53208413D01*
X17499572Y-53235956D01*
X17501790Y-53257889D01*
X17501824Y-53259836D01*
X17495131Y-53361348D01*
X17491167Y-53369378D01*
X17482686Y-53372253D01*
X17481215Y-53372061D01*
X17274102Y-53331645D01*
X17266638Y-53326697D01*
X17266587Y-53326620D01*
X17149792Y-53150191D01*
X17148084Y-53141403D01*
X17153091Y-53133979D01*
X17153639Y-53133638D01*
X17275209Y-53062477D01*
X17283497Y-53057624D01*
X17283807Y-53057450D01*
X17337523Y-53028184D01*
X17397129Y-52986471D01*
X17465307Y-52924176D01*
X17473726Y-52921126D01*
X17481472Y-52924541D01*
G37*
%TD.AperFunction*%
%TD*%
%TA.AperFunction,Conductor*%
%TO.N,Net-(U2-TP1)*%
G36*
X24547156Y-53149965D02*
G01*
X24629710Y-53177742D01*
X24648992Y-53184230D01*
X24651641Y-53185511D01*
X24725002Y-53233232D01*
X24725539Y-53233604D01*
X24741988Y-53245662D01*
X24741999Y-53245669D01*
X24821541Y-53289096D01*
X24847901Y-53295459D01*
X24874263Y-53301824D01*
X24932002Y-53305757D01*
X24940023Y-53309738D01*
X24942907Y-53317430D01*
X24942907Y-53422679D01*
X24939480Y-53430952D01*
X24932119Y-53434343D01*
X24866100Y-53439506D01*
X24809064Y-53455605D01*
X24725268Y-53506595D01*
X24653432Y-53553605D01*
X24651671Y-53554553D01*
X24602012Y-53576037D01*
X24600399Y-53576599D01*
X24546625Y-53591031D01*
X24537746Y-53589866D01*
X24532292Y-53582764D01*
X24532127Y-53582063D01*
X24530971Y-53576378D01*
X24489474Y-53372330D01*
X24489474Y-53367668D01*
X24501255Y-53309738D01*
X24531967Y-53158721D01*
X24536973Y-53151300D01*
X24545763Y-53149591D01*
X24547156Y-53149965D01*
G37*
%TD.AperFunction*%
%TD*%
%TA.AperFunction,Conductor*%
%TO.N,Net-(U3-TP7)*%
G36*
X6019502Y-4019595D02*
G01*
X6019695Y-4019872D01*
X6136599Y-4193465D01*
X6138377Y-4202241D01*
X6136599Y-4206535D01*
X6019739Y-4380062D01*
X6012275Y-4385010D01*
X6003499Y-4383232D01*
X6003160Y-4382995D01*
X5999120Y-4380062D01*
X5934679Y-4333279D01*
X5856646Y-4282213D01*
X5856645Y-4282212D01*
X5856644Y-4282212D01*
X5823062Y-4272768D01*
X5801482Y-4266700D01*
X5801481Y-4266699D01*
X5732290Y-4262320D01*
X5724250Y-4258377D01*
X5721329Y-4250643D01*
X5721329Y-4145703D01*
X5724756Y-4137430D01*
X5732388Y-4134021D01*
X5797377Y-4130462D01*
X5797379Y-4130461D01*
X5797382Y-4130461D01*
X5808917Y-4127672D01*
X5850806Y-4117545D01*
X5938906Y-4062923D01*
X6003179Y-4016894D01*
X6011899Y-4014864D01*
X6019502Y-4019595D01*
G37*
%TD.AperFunction*%
%TD*%
%TA.AperFunction,Conductor*%
%TO.N,Net-(U3-TP1)*%
G36*
X19105854Y-4127078D02*
G01*
X19107236Y-4127211D01*
X19212634Y-4143852D01*
X19220270Y-4148527D01*
X19222365Y-4157234D01*
X19222293Y-4157642D01*
X19181933Y-4365196D01*
X19176990Y-4372663D01*
X19176925Y-4372707D01*
X19000617Y-4489896D01*
X18991830Y-4491622D01*
X18984396Y-4486629D01*
X18983817Y-4485658D01*
X18956356Y-4434176D01*
X18955677Y-4432651D01*
X18935099Y-4375788D01*
X18933949Y-4372707D01*
X18915828Y-4324138D01*
X18915828Y-4324137D01*
X18879736Y-4280237D01*
X18879735Y-4280236D01*
X18846155Y-4266453D01*
X18846154Y-4266452D01*
X18846152Y-4266452D01*
X18808811Y-4262688D01*
X18800924Y-4258449D01*
X18798285Y-4251047D01*
X18798285Y-4145857D01*
X18801712Y-4137584D01*
X18809505Y-4134167D01*
X18961403Y-4127944D01*
X19023345Y-4124202D01*
X19024429Y-4124189D01*
X19105854Y-4127078D01*
G37*
%TD.AperFunction*%
%TD*%
%TA.AperFunction,Conductor*%
%TO.N,Net-(U1-TP5)*%
G36*
X10579503Y-53129593D02*
G01*
X10579656Y-53129814D01*
X10635500Y-53212737D01*
X10698263Y-53305936D01*
X10700041Y-53314712D01*
X10700023Y-53314803D01*
X10658003Y-53521421D01*
X10652996Y-53528845D01*
X10644206Y-53530554D01*
X10642931Y-53530219D01*
X10542140Y-53497559D01*
X10539696Y-53496443D01*
X10466212Y-53452039D01*
X10465700Y-53451710D01*
X10454379Y-53444013D01*
X10454375Y-53444011D01*
X10454366Y-53444005D01*
X10371961Y-53400840D01*
X10371954Y-53400838D01*
X10317898Y-53388168D01*
X10317899Y-53388168D01*
X10258023Y-53384220D01*
X10249993Y-53380256D01*
X10247093Y-53372545D01*
X10247093Y-53267597D01*
X10250520Y-53259324D01*
X10258173Y-53255913D01*
X10332941Y-53251953D01*
X10393186Y-53237680D01*
X10442030Y-53212737D01*
X10493677Y-53176178D01*
X10563191Y-53126825D01*
X10571920Y-53124831D01*
X10579503Y-53129593D01*
G37*
%TD.AperFunction*%
%TD*%
%TA.AperFunction,Conductor*%
%TO.N,Net-(U4-TP3)*%
G36*
X36759964Y-4319735D02*
G01*
X36764933Y-4327185D01*
X36765131Y-4328690D01*
X36772198Y-4436096D01*
X36772206Y-4436228D01*
X36776517Y-4515407D01*
X36799583Y-4557868D01*
X36826963Y-4571671D01*
X36857804Y-4575287D01*
X36865621Y-4579653D01*
X36868141Y-4586907D01*
X36868141Y-4691053D01*
X36864714Y-4699326D01*
X36856441Y-4702753D01*
X36855718Y-4702731D01*
X36798588Y-4699196D01*
X36796770Y-4698939D01*
X36746144Y-4687674D01*
X36743671Y-4686824D01*
X36665657Y-4649817D01*
X36665108Y-4649539D01*
X36618574Y-4624388D01*
X36618560Y-4624383D01*
X36505228Y-4587460D01*
X36498423Y-4581639D01*
X36497367Y-4574103D01*
X36497840Y-4571671D01*
X36537499Y-4367714D01*
X36542442Y-4360249D01*
X36546706Y-4358473D01*
X36751185Y-4317981D01*
X36759964Y-4319735D01*
G37*
%TD.AperFunction*%
%TD*%
%TA.AperFunction,Conductor*%
%TO.N,/LGAD2*%
G36*
X38897086Y-52639841D02*
G01*
X38998269Y-52673068D01*
X39000786Y-52674242D01*
X39074217Y-52719795D01*
X39074746Y-52720143D01*
X39087963Y-52729375D01*
X39169321Y-52772638D01*
X39222897Y-52785331D01*
X39281987Y-52789272D01*
X39290012Y-52793242D01*
X39292907Y-52800946D01*
X39292907Y-52906217D01*
X39289480Y-52914490D01*
X39282158Y-52917878D01*
X39216061Y-52923270D01*
X39216058Y-52923271D01*
X39159132Y-52940069D01*
X39075957Y-52993167D01*
X39001423Y-53043835D01*
X38999543Y-53044874D01*
X38950774Y-53066258D01*
X38949125Y-53066839D01*
X38896637Y-53081009D01*
X38887757Y-53079856D01*
X38882292Y-53072762D01*
X38882123Y-53072045D01*
X38881064Y-53066839D01*
X38839474Y-52862330D01*
X38839474Y-52857668D01*
X38881986Y-52648628D01*
X38886993Y-52641205D01*
X38895783Y-52639496D01*
X38897086Y-52639841D01*
G37*
%TD.AperFunction*%
%TD*%
%TA.AperFunction,Conductor*%
%TO.N,Net-(R1-Pad2)*%
G36*
X1357490Y-27553288D02*
G01*
X1358988Y-27554786D01*
X1965182Y-28282277D01*
X1967846Y-28290827D01*
X1963684Y-28298755D01*
X1960819Y-28300514D01*
X1919331Y-28318368D01*
X1919330Y-28318368D01*
X1870713Y-28351040D01*
X1870711Y-28351041D01*
X1821505Y-28399358D01*
X1821499Y-28399365D01*
X1780193Y-28456773D01*
X1780189Y-28456779D01*
X1739133Y-28537481D01*
X1739130Y-28537487D01*
X1707736Y-28626158D01*
X1707733Y-28626169D01*
X1668774Y-28814504D01*
X1652972Y-28996051D01*
X1650229Y-29133533D01*
X1646637Y-29141737D01*
X1638531Y-29145000D01*
X1061369Y-29145000D01*
X1053096Y-29141573D01*
X1049674Y-29133636D01*
X1044317Y-28947030D01*
X1044317Y-28947027D01*
X1016529Y-28725763D01*
X988185Y-28626169D01*
X967738Y-28554325D01*
X967736Y-28554320D01*
X967736Y-28554319D01*
X902261Y-28430078D01*
X898398Y-28425998D01*
X822018Y-28345321D01*
X822013Y-28345318D01*
X737575Y-28301093D01*
X731836Y-28294219D01*
X732639Y-28285301D01*
X734011Y-28283243D01*
X1341012Y-27554785D01*
X1348940Y-27550624D01*
X1357490Y-27553288D01*
G37*
%TD.AperFunction*%
%TD*%
%TA.AperFunction,Conductor*%
%TO.N,Net-(U2-TP4)*%
G36*
X30389647Y-52319458D02*
G01*
X30390259Y-52319837D01*
X30568722Y-52437979D01*
X30572020Y-52441277D01*
X30689718Y-52619069D01*
X30691427Y-52627859D01*
X30686420Y-52635283D01*
X30685165Y-52636007D01*
X30588928Y-52683785D01*
X30586149Y-52684751D01*
X30500559Y-52702876D01*
X30499917Y-52702994D01*
X30490053Y-52704513D01*
X30479729Y-52706104D01*
X30479726Y-52706104D01*
X30479725Y-52706105D01*
X30392777Y-52731641D01*
X30346494Y-52759921D01*
X30346493Y-52759921D01*
X30302884Y-52797969D01*
X30294397Y-52800826D01*
X30286919Y-52797426D01*
X30212496Y-52723003D01*
X30209069Y-52714730D01*
X30211875Y-52707128D01*
X30254907Y-52656796D01*
X30283856Y-52605077D01*
X30307054Y-52509769D01*
X30324607Y-52425726D01*
X30325177Y-52423829D01*
X30345105Y-52373511D01*
X30345847Y-52371977D01*
X30373667Y-52323745D01*
X30380768Y-52318293D01*
X30389647Y-52319458D01*
G37*
%TD.AperFunction*%
%TD*%
M02*
