%TF.GenerationSoftware,KiCad,Pcbnew,9.0.0*%
%TF.CreationDate,2025-05-12T15:29:59-04:00*%
%TF.ProjectId,design-files_TM,64657369-676e-42d6-9669-6c65735f544d,rev?*%
%TF.SameCoordinates,Original*%
%TF.FileFunction,Paste,Bot*%
%TF.FilePolarity,Positive*%
%FSLAX46Y46*%
G04 Gerber Fmt 4.6, Leading zero omitted, Abs format (unit mm)*
G04 Created by KiCad (PCBNEW 9.0.0) date 2025-05-12 15:29:59*
%MOMM*%
%LPD*%
G01*
G04 APERTURE LIST*
G04 Aperture macros list*
%AMRoundRect*
0 Rectangle with rounded corners*
0 $1 Rounding radius*
0 $2 $3 $4 $5 $6 $7 $8 $9 X,Y pos of 4 corners*
0 Add a 4 corners polygon primitive as box body*
4,1,4,$2,$3,$4,$5,$6,$7,$8,$9,$2,$3,0*
0 Add four circle primitives for the rounded corners*
1,1,$1+$1,$2,$3*
1,1,$1+$1,$4,$5*
1,1,$1+$1,$6,$7*
1,1,$1+$1,$8,$9*
0 Add four rect primitives between the rounded corners*
20,1,$1+$1,$2,$3,$4,$5,0*
20,1,$1+$1,$4,$5,$6,$7,0*
20,1,$1+$1,$6,$7,$8,$9,0*
20,1,$1+$1,$8,$9,$2,$3,0*%
G04 Aperture macros list end*
%ADD10R,3.150000X1.000000*%
%ADD11RoundRect,0.150000X0.512500X0.150000X-0.512500X0.150000X-0.512500X-0.150000X0.512500X-0.150000X0*%
%ADD12RoundRect,0.250000X0.337500X0.475000X-0.337500X0.475000X-0.337500X-0.475000X0.337500X-0.475000X0*%
%ADD13RoundRect,0.250000X0.350000X0.450000X-0.350000X0.450000X-0.350000X-0.450000X0.350000X-0.450000X0*%
%ADD14R,1.800000X1.000000*%
%ADD15RoundRect,0.150000X-0.150000X0.512500X-0.150000X-0.512500X0.150000X-0.512500X0.150000X0.512500X0*%
%ADD16RoundRect,0.250000X-0.475000X0.337500X-0.475000X-0.337500X0.475000X-0.337500X0.475000X0.337500X0*%
%ADD17RoundRect,0.250000X-0.450000X0.350000X-0.450000X-0.350000X0.450000X-0.350000X0.450000X0.350000X0*%
%ADD18RoundRect,0.150000X0.150000X-0.512500X0.150000X0.512500X-0.150000X0.512500X-0.150000X-0.512500X0*%
%ADD19RoundRect,0.250000X-0.337500X-0.475000X0.337500X-0.475000X0.337500X0.475000X-0.337500X0.475000X0*%
%ADD20RoundRect,0.150000X0.750000X0.150000X-0.750000X0.150000X-0.750000X-0.150000X0.750000X-0.150000X0*%
G04 APERTURE END LIST*
D10*
%TO.C,J1*%
X27500000Y-31670000D03*
X22450000Y-31670000D03*
X27500000Y-34210000D03*
X22450000Y-34210000D03*
X27500000Y-36750000D03*
X22450000Y-36750000D03*
X27500000Y-39290000D03*
X22450000Y-39290000D03*
X27500000Y-41830000D03*
X22450000Y-41830000D03*
X27500000Y-44370000D03*
X22450000Y-44370000D03*
%TD*%
D11*
%TO.C,U7*%
X35297500Y-7930000D03*
X35297500Y-8880000D03*
X35297500Y-9830000D03*
X33022500Y-9830000D03*
X33022500Y-8880000D03*
X33022500Y-7930000D03*
%TD*%
D12*
%TO.C,C8*%
X10567500Y-49340000D03*
X8492500Y-49340000D03*
%TD*%
D13*
%TO.C,R7*%
X33500000Y-56000000D03*
X31500000Y-56000000D03*
%TD*%
D12*
%TO.C,C2*%
X28907500Y-16990000D03*
X26832500Y-16990000D03*
%TD*%
D14*
%TO.C,Y1*%
X5500000Y-10650000D03*
X5500000Y-8150000D03*
%TD*%
D13*
%TO.C,R9*%
X12000000Y-2100000D03*
X10000000Y-2100000D03*
%TD*%
D12*
%TO.C,C3*%
X26697500Y-14940000D03*
X24622500Y-14940000D03*
%TD*%
D13*
%TO.C,R5*%
X8750000Y-56000000D03*
X6750000Y-56000000D03*
%TD*%
D15*
%TO.C,U8*%
X23250000Y-24582500D03*
X24200000Y-24582500D03*
X25150000Y-24582500D03*
X25150000Y-26857500D03*
X24200000Y-26857500D03*
X23250000Y-26857500D03*
%TD*%
D16*
%TO.C,C6*%
X37870000Y-7972500D03*
X37870000Y-10047500D03*
%TD*%
%TO.C,C4*%
X2750000Y-8712500D03*
X2750000Y-10787500D03*
%TD*%
D17*
%TO.C,R14*%
X8000000Y-8250000D03*
X8000000Y-10250000D03*
%TD*%
D18*
%TO.C,U9*%
X10670000Y-46767500D03*
X9720000Y-46767500D03*
X8770000Y-46767500D03*
X8770000Y-44492500D03*
X9720000Y-44492500D03*
X10670000Y-44492500D03*
%TD*%
D13*
%TO.C,R3*%
X8430000Y-33620000D03*
X6430000Y-33620000D03*
%TD*%
%TO.C,R10*%
X8000000Y-2100000D03*
X6000000Y-2100000D03*
%TD*%
%TO.C,R12*%
X34000000Y-2000000D03*
X32000000Y-2000000D03*
%TD*%
%TO.C,R6*%
X13500000Y-56000000D03*
X11500000Y-56000000D03*
%TD*%
%TO.C,R4*%
X8430000Y-30620000D03*
X6430000Y-30620000D03*
%TD*%
D12*
%TO.C,C5*%
X6437500Y-13010000D03*
X4362500Y-13010000D03*
%TD*%
D19*
%TO.C,C7*%
X23242500Y-22460000D03*
X25317500Y-22460000D03*
%TD*%
D20*
%TO.C,U5*%
X20550000Y-8745000D03*
X20550000Y-10015000D03*
X20550000Y-11285000D03*
X20550000Y-12555000D03*
X20550000Y-13825000D03*
X20550000Y-15095000D03*
X20550000Y-16365000D03*
X20550000Y-17635000D03*
X20550000Y-18905000D03*
X20550000Y-20175000D03*
X20550000Y-21445000D03*
X20550000Y-22715000D03*
X20550000Y-23985000D03*
X20550000Y-25255000D03*
X10950000Y-25255000D03*
X10950000Y-23985000D03*
X10950000Y-22715000D03*
X10950000Y-21445000D03*
X10950000Y-20175000D03*
X10950000Y-18905000D03*
X10950000Y-17635000D03*
X10950000Y-16365000D03*
X10950000Y-15095000D03*
X10950000Y-13825000D03*
X10950000Y-12555000D03*
X10950000Y-11285000D03*
X10950000Y-10015000D03*
X10950000Y-8745000D03*
%TD*%
D13*
%TO.C,R11*%
X38000000Y-2000000D03*
X36000000Y-2000000D03*
%TD*%
%TO.C,R8*%
X37500000Y-56000000D03*
X35500000Y-56000000D03*
%TD*%
M02*
