%TF.GenerationSoftware,KiCad,Pcbnew,9.0.0*%
%TF.CreationDate,2025-05-12T15:30:00-04:00*%
%TF.ProjectId,design-files_TM,64657369-676e-42d6-9669-6c65735f544d,rev?*%
%TF.SameCoordinates,Original*%
%TF.FileFunction,Soldermask,Bot*%
%TF.FilePolarity,Negative*%
%FSLAX46Y46*%
G04 Gerber Fmt 4.6, Leading zero omitted, Abs format (unit mm)*
G04 Created by KiCad (PCBNEW 9.0.0) date 2025-05-12 15:30:00*
%MOMM*%
%LPD*%
G01*
G04 APERTURE LIST*
G04 Aperture macros list*
%AMRoundRect*
0 Rectangle with rounded corners*
0 $1 Rounding radius*
0 $2 $3 $4 $5 $6 $7 $8 $9 X,Y pos of 4 corners*
0 Add a 4 corners polygon primitive as box body*
4,1,4,$2,$3,$4,$5,$6,$7,$8,$9,$2,$3,0*
0 Add four circle primitives for the rounded corners*
1,1,$1+$1,$2,$3*
1,1,$1+$1,$4,$5*
1,1,$1+$1,$6,$7*
1,1,$1+$1,$8,$9*
0 Add four rect primitives between the rounded corners*
20,1,$1+$1,$2,$3,$4,$5,0*
20,1,$1+$1,$4,$5,$6,$7,0*
20,1,$1+$1,$6,$7,$8,$9,0*
20,1,$1+$1,$8,$9,$2,$3,0*%
G04 Aperture macros list end*
%ADD10C,2.200000*%
%ADD11R,3.150000X1.000000*%
%ADD12R,1.000000X1.000000*%
%ADD13RoundRect,0.150000X0.512500X0.150000X-0.512500X0.150000X-0.512500X-0.150000X0.512500X-0.150000X0*%
%ADD14RoundRect,0.250000X0.337500X0.475000X-0.337500X0.475000X-0.337500X-0.475000X0.337500X-0.475000X0*%
%ADD15RoundRect,0.250000X0.350000X0.450000X-0.350000X0.450000X-0.350000X-0.450000X0.350000X-0.450000X0*%
%ADD16R,1.800000X1.000000*%
%ADD17RoundRect,0.150000X-0.150000X0.512500X-0.150000X-0.512500X0.150000X-0.512500X0.150000X0.512500X0*%
%ADD18RoundRect,0.250000X-0.475000X0.337500X-0.475000X-0.337500X0.475000X-0.337500X0.475000X0.337500X0*%
%ADD19RoundRect,0.250000X-0.450000X0.350000X-0.450000X-0.350000X0.450000X-0.350000X0.450000X0.350000X0*%
%ADD20RoundRect,0.150000X0.150000X-0.512500X0.150000X0.512500X-0.150000X0.512500X-0.150000X-0.512500X0*%
%ADD21RoundRect,0.250000X-0.337500X-0.475000X0.337500X-0.475000X0.337500X0.475000X-0.337500X0.475000X0*%
%ADD22RoundRect,0.150000X0.750000X0.150000X-0.750000X0.150000X-0.750000X-0.150000X0.750000X-0.150000X0*%
G04 APERTURE END LIST*
D10*
%TO.C,REF\u002A\u002A*%
X22050000Y-55900000D03*
%TD*%
%TO.C,REF\u002A\u002A*%
X22050000Y-1600000D03*
%TD*%
D11*
%TO.C,J1*%
X27500000Y-31670000D03*
X22450000Y-31670000D03*
X27500000Y-34210000D03*
X22450000Y-34210000D03*
X27500000Y-36750000D03*
X22450000Y-36750000D03*
X27500000Y-39290000D03*
X22450000Y-39290000D03*
X27500000Y-41830000D03*
X22450000Y-41830000D03*
X27500000Y-44370000D03*
X22450000Y-44370000D03*
%TD*%
D12*
%TO.C,T2:4*%
X32090000Y-50610000D03*
%TD*%
%TO.C,5V*%
X18700000Y-39000000D03*
%TD*%
%TO.C,E3*%
X14700000Y-1700000D03*
%TD*%
%TO.C,T1:5*%
X14520000Y-50660000D03*
%TD*%
%TO.C,T4:4*%
X34090000Y-6050000D03*
%TD*%
%TO.C,T4:7*%
X25440000Y-5970000D03*
%TD*%
%TO.C,T4:8*%
X23380000Y-5970000D03*
%TD*%
%TO.C,T4:3*%
X36280000Y-6050000D03*
%TD*%
%TO.C,T3:9*%
X1670000Y-1270000D03*
%TD*%
D13*
%TO.C,U7*%
X35297500Y-7930000D03*
X35297500Y-8880000D03*
X35297500Y-9830000D03*
X33022500Y-9830000D03*
X33022500Y-8880000D03*
X33022500Y-7930000D03*
%TD*%
D14*
%TO.C,C8*%
X10567500Y-49340000D03*
X8492500Y-49340000D03*
%TD*%
D12*
%TO.C,L4*%
X29650000Y-1700000D03*
%TD*%
%TO.C,T1:9*%
X22910000Y-50640000D03*
%TD*%
D15*
%TO.C,R7*%
X33500000Y-56000000D03*
X31500000Y-56000000D03*
%TD*%
D12*
%TO.C,T3:5*%
X9500000Y-5350000D03*
%TD*%
%TO.C,T3:7*%
X5370000Y-5340000D03*
%TD*%
D14*
%TO.C,C2*%
X28907500Y-16990000D03*
X26832500Y-16990000D03*
%TD*%
D16*
%TO.C,Y1*%
X5500000Y-10650000D03*
X5500000Y-8150000D03*
%TD*%
D15*
%TO.C,R9*%
X12000000Y-2100000D03*
X10000000Y-2100000D03*
%TD*%
D14*
%TO.C,C3*%
X26697500Y-14940000D03*
X24622500Y-14940000D03*
%TD*%
D12*
%TO.C,GND*%
X18700000Y-41000000D03*
%TD*%
D15*
%TO.C,R5*%
X8750000Y-56000000D03*
X6750000Y-56000000D03*
%TD*%
D17*
%TO.C,U8*%
X23250000Y-24582500D03*
X24200000Y-24582500D03*
X25150000Y-24582500D03*
X25150000Y-26857500D03*
X24200000Y-26857500D03*
X23250000Y-26857500D03*
%TD*%
D18*
%TO.C,C6*%
X37870000Y-7972500D03*
X37870000Y-10047500D03*
%TD*%
D12*
%TO.C,T4:2*%
X42550000Y-4950000D03*
%TD*%
%TO.C,T2:5*%
X34180000Y-50610000D03*
%TD*%
D18*
%TO.C,C4*%
X2750000Y-8712500D03*
X2750000Y-10787500D03*
%TD*%
D12*
%TO.C,L1*%
X16150000Y-56000000D03*
%TD*%
D19*
%TO.C,R14*%
X8000000Y-8250000D03*
X8000000Y-10250000D03*
%TD*%
D12*
%TO.C,T1:8*%
X20820000Y-50650000D03*
%TD*%
%TO.C,T2:8*%
X40410000Y-50620000D03*
%TD*%
D20*
%TO.C,U9*%
X10670000Y-46767500D03*
X9720000Y-46767500D03*
X8770000Y-46767500D03*
X8770000Y-44492500D03*
X9720000Y-44492500D03*
X10670000Y-44492500D03*
%TD*%
D12*
%TO.C,T2:1*%
X25830000Y-50640000D03*
%TD*%
%TO.C,T1:2*%
X4510000Y-50520000D03*
%TD*%
%TO.C,T1:1*%
X1570000Y-54090000D03*
%TD*%
%TO.C,E4*%
X27500000Y-1700000D03*
%TD*%
D15*
%TO.C,R3*%
X8430000Y-33620000D03*
X6430000Y-33620000D03*
%TD*%
D12*
%TO.C,L3*%
X16600000Y-1700000D03*
%TD*%
%TO.C,T2:9*%
X42480000Y-50620000D03*
%TD*%
D15*
%TO.C,R10*%
X8000000Y-2100000D03*
X6000000Y-2100000D03*
%TD*%
D12*
%TO.C,T1:3*%
X6600000Y-50520000D03*
%TD*%
%TO.C,T3:6*%
X7430000Y-5350000D03*
%TD*%
%TO.C,T3:3*%
X13620000Y-5370000D03*
%TD*%
%TO.C,T2:2*%
X27920000Y-50620000D03*
%TD*%
%TO.C,T3:4*%
X11550000Y-5340000D03*
%TD*%
%TO.C,E1*%
X18000000Y-56000000D03*
%TD*%
D15*
%TO.C,R12*%
X34000000Y-2000000D03*
X32000000Y-2000000D03*
%TD*%
%TO.C,R6*%
X13500000Y-56000000D03*
X11500000Y-56000000D03*
%TD*%
%TO.C,R4*%
X8430000Y-30620000D03*
X6430000Y-30620000D03*
%TD*%
D14*
%TO.C,C5*%
X6437500Y-13010000D03*
X4362500Y-13010000D03*
%TD*%
D12*
%TO.C,T1:7*%
X18720000Y-50640000D03*
%TD*%
%TO.C,L2*%
X26250000Y-56000000D03*
%TD*%
D21*
%TO.C,C7*%
X23242500Y-22460000D03*
X25317500Y-22460000D03*
%TD*%
D12*
%TO.C,T2:3*%
X30010000Y-50620000D03*
%TD*%
%TO.C,T4:6*%
X27510000Y-5970000D03*
%TD*%
%TO.C,E2*%
X28100000Y-56000000D03*
%TD*%
%TO.C,VCC*%
X31900000Y-31000000D03*
%TD*%
%TO.C,T4:5*%
X31990000Y-6060000D03*
%TD*%
%TO.C,T2:6*%
X36260000Y-50610000D03*
%TD*%
%TO.C,V_{ref}*%
X6880000Y-35620000D03*
%TD*%
%TO.C,T4:1*%
X40310000Y-1670000D03*
%TD*%
D22*
%TO.C,U5*%
X20550000Y-8745000D03*
X20550000Y-10015000D03*
X20550000Y-11285000D03*
X20550000Y-12555000D03*
X20550000Y-13825000D03*
X20550000Y-15095000D03*
X20550000Y-16365000D03*
X20550000Y-17635000D03*
X20550000Y-18905000D03*
X20550000Y-20175000D03*
X20550000Y-21445000D03*
X20550000Y-22715000D03*
X20550000Y-23985000D03*
X20550000Y-25255000D03*
X10950000Y-25255000D03*
X10950000Y-23985000D03*
X10950000Y-22715000D03*
X10950000Y-21445000D03*
X10950000Y-20175000D03*
X10950000Y-18905000D03*
X10950000Y-17635000D03*
X10950000Y-16365000D03*
X10950000Y-15095000D03*
X10950000Y-13825000D03*
X10950000Y-12555000D03*
X10950000Y-11285000D03*
X10950000Y-10015000D03*
X10950000Y-8745000D03*
%TD*%
D15*
%TO.C,R11*%
X38000000Y-2000000D03*
X36000000Y-2000000D03*
%TD*%
D12*
%TO.C,T1:6*%
X16610000Y-50660000D03*
%TD*%
%TO.C,T4:9*%
X21250000Y-5790000D03*
%TD*%
%TO.C,T3:1*%
X18920000Y-5380000D03*
%TD*%
%TO.C,T3:2*%
X16600000Y-5390000D03*
%TD*%
%TO.C,T3:8*%
X1670000Y-4480000D03*
%TD*%
%TO.C,T2:7*%
X38340000Y-50620000D03*
%TD*%
D15*
%TO.C,R8*%
X37500000Y-56000000D03*
X35500000Y-56000000D03*
%TD*%
D12*
%TO.C,T1:4*%
X12420000Y-50670000D03*
%TD*%
M02*
