%TF.GenerationSoftware,KiCad,Pcbnew,9.0.0*%
%TF.CreationDate,2025-05-12T15:29:59-04:00*%
%TF.ProjectId,design-files_TM,64657369-676e-42d6-9669-6c65735f544d,rev?*%
%TF.SameCoordinates,Original*%
%TF.FileFunction,Soldermask,Top*%
%TF.FilePolarity,Negative*%
%FSLAX46Y46*%
G04 Gerber Fmt 4.6, Leading zero omitted, Abs format (unit mm)*
G04 Created by KiCad (PCBNEW 9.0.0) date 2025-05-12 15:29:59*
%MOMM*%
%LPD*%
G01*
G04 APERTURE LIST*
G04 Aperture macros list*
%AMRoundRect*
0 Rectangle with rounded corners*
0 $1 Rounding radius*
0 $2 $3 $4 $5 $6 $7 $8 $9 X,Y pos of 4 corners*
0 Add a 4 corners polygon primitive as box body*
4,1,4,$2,$3,$4,$5,$6,$7,$8,$9,$2,$3,0*
0 Add four circle primitives for the rounded corners*
1,1,$1+$1,$2,$3*
1,1,$1+$1,$4,$5*
1,1,$1+$1,$6,$7*
1,1,$1+$1,$8,$9*
0 Add four rect primitives between the rounded corners*
20,1,$1+$1,$2,$3,$4,$5,0*
20,1,$1+$1,$4,$5,$6,$7,0*
20,1,$1+$1,$6,$7,$8,$9,0*
20,1,$1+$1,$8,$9,$2,$3,0*%
G04 Aperture macros list end*
%ADD10C,0.600000*%
%ADD11C,2.200000*%
%ADD12RoundRect,0.325000X0.325000X-0.625000X0.325000X0.625000X-0.325000X0.625000X-0.325000X-0.625000X0*%
%ADD13RoundRect,0.125000X-0.063500X-0.127000X0.063500X-0.127000X0.063500X0.127000X-0.063500X0.127000X0*%
%ADD14RoundRect,0.125000X0.063500X0.127000X-0.063500X0.127000X-0.063500X-0.127000X0.063500X-0.127000X0*%
G04 APERTURE END LIST*
D10*
%TO.C,REF\u002A\u002A*%
X41610000Y-2000000D02*
G75*
G02*
X41590000Y-2000000I-10000J0D01*
G01*
X41590000Y-2000000D02*
G75*
G02*
X41610000Y-2000000I10000J0D01*
G01*
X2510000Y-55500000D02*
G75*
G02*
X2490000Y-55500000I-10000J0D01*
G01*
X2490000Y-55500000D02*
G75*
G02*
X2510000Y-55500000I10000J0D01*
G01*
X41610000Y-55500000D02*
G75*
G02*
X41590000Y-55500000I-10000J0D01*
G01*
X41590000Y-55500000D02*
G75*
G02*
X41610000Y-55500000I10000J0D01*
G01*
X2510000Y-2000000D02*
G75*
G02*
X2490000Y-2000000I-10000J0D01*
G01*
X2490000Y-2000000D02*
G75*
G02*
X2510000Y-2000000I10000J0D01*
G01*
%TD*%
D11*
%TO.C,REF\u002A\u002A*%
X22050000Y-55900000D03*
%TD*%
%TO.C,REF\u002A\u002A*%
X22050000Y-1600000D03*
%TD*%
D12*
%TO.C,R2*%
X1350000Y-30045000D03*
X1350000Y-51245000D03*
%TD*%
D13*
%TO.C,U2*%
X25492000Y-53370000D03*
X25778000Y-53370000D03*
X26064000Y-53370000D03*
X26350000Y-53370000D03*
X26493000Y-53870000D03*
X26636000Y-53370000D03*
X26922000Y-53370000D03*
X27065000Y-53870000D03*
X28066000Y-53370000D03*
X28352000Y-53370000D03*
X28638000Y-53370000D03*
X29782000Y-53370000D03*
X31498000Y-53370000D03*
X35788000Y-53370000D03*
X36932000Y-53370000D03*
X37218000Y-53370000D03*
X38362000Y-53370000D03*
X40078000Y-53370000D03*
X40221000Y-53870000D03*
X40364000Y-53370000D03*
X40650000Y-53370000D03*
X40793000Y-53870000D03*
X42080000Y-53370000D03*
X42366000Y-53370000D03*
X42652000Y-53370000D03*
%TD*%
%TO.C,U1*%
X3847000Y-53320000D03*
X4133000Y-53320000D03*
X4419000Y-53320000D03*
X4705000Y-53320000D03*
X4848000Y-53820000D03*
X4991000Y-53320000D03*
X5277000Y-53320000D03*
X5420000Y-53820000D03*
X6421000Y-53320000D03*
X6707000Y-53320000D03*
X6993000Y-53320000D03*
X8137000Y-53320000D03*
X9853000Y-53320000D03*
X14143000Y-53320000D03*
X15287000Y-53320000D03*
X15573000Y-53320000D03*
X16717000Y-53320000D03*
X18433000Y-53320000D03*
X18576000Y-53820000D03*
X18719000Y-53320000D03*
X19005000Y-53320000D03*
X19148000Y-53820000D03*
X20435000Y-53320000D03*
X20721000Y-53320000D03*
X21007000Y-53320000D03*
%TD*%
D14*
%TO.C,U4*%
X40241329Y-4168127D03*
X39955329Y-4168127D03*
X39669329Y-4168127D03*
X39383329Y-4168127D03*
X39240329Y-3668127D03*
X39097329Y-4168127D03*
X38811329Y-4168127D03*
X38668329Y-3668127D03*
X37667329Y-4168127D03*
X37381329Y-4168127D03*
X37095329Y-4168127D03*
X35951329Y-4168127D03*
X34235329Y-4168127D03*
X29945329Y-4168127D03*
X28801329Y-4168127D03*
X28515329Y-4168127D03*
X27371329Y-4168127D03*
X25655329Y-4168127D03*
X25512329Y-3668127D03*
X25369329Y-4168127D03*
X25083329Y-4168127D03*
X24940329Y-3668127D03*
X23653329Y-4168127D03*
X23367329Y-4168127D03*
X23081329Y-4168127D03*
%TD*%
%TO.C,U3*%
X18591329Y-4198127D03*
X18305329Y-4198127D03*
X18019329Y-4198127D03*
X17733329Y-4198127D03*
X17590329Y-3698127D03*
X17447329Y-4198127D03*
X17161329Y-4198127D03*
X17018329Y-3698127D03*
X16017329Y-4198127D03*
X15731329Y-4198127D03*
X15445329Y-4198127D03*
X14301329Y-4198127D03*
X12585329Y-4198127D03*
X8295329Y-4198127D03*
X7151329Y-4198127D03*
X6865329Y-4198127D03*
X5721329Y-4198127D03*
X4005329Y-4198127D03*
X3862329Y-3698127D03*
X3719329Y-4198127D03*
X3433329Y-4198127D03*
X3290329Y-3698127D03*
X2003329Y-4198127D03*
X1717329Y-4198127D03*
X1431329Y-4198127D03*
%TD*%
D12*
%TO.C,R1*%
X1350000Y-6345000D03*
X1350000Y-27545000D03*
%TD*%
G36*
X43492121Y-5470002D02*
G01*
X43538614Y-5523658D01*
X43550000Y-5576000D01*
X43550000Y-51924000D01*
X43529998Y-51992121D01*
X43476342Y-52038614D01*
X43424000Y-52050000D01*
X726000Y-52050000D01*
X657879Y-52029998D01*
X611386Y-51976342D01*
X600000Y-51924000D01*
X600000Y-5576000D01*
X620002Y-5507879D01*
X673658Y-5461386D01*
X726000Y-5450000D01*
X43424000Y-5450000D01*
X43492121Y-5470002D01*
G37*
M02*
