M48
; DRILL file {KiCad 7.0.7} date 2024 December 12, Thursday 20:45:25
; FORMAT={-:-/ absolute / metric / decimal}
; #@! TF.CreationDate,2024-12-12T20:45:25-05:00
; #@! TF.GenerationSoftware,Kicad,Pcbnew,7.0.7
; #@! TF.FileFunction,Plated,1,4,PTH
FMAT,2
METRIC
; #@! TA.AperFunction,Plated,PTH,ViaDrill
T1C0.254
%
G90
G05
T1
X0.9Y-4.4
X1.0Y-6.95
X1.0Y-50.7
X1.0Y-51.8
X1.037Y-5.753
X1.5Y-3.25
X1.65Y-50.7
X1.65Y-51.8
X1.682Y-5.753
X1.7Y-6.95
X2.09Y-13.05
X3.06Y-52.74
X3.27Y-13.05
X3.83Y-54.33
X4.4Y-4.2
X5.47Y-44.55
X5.81Y-36.77
X5.9Y-3.85
X6.02Y-53.33
X6.43Y-29.2
X6.53Y-28.45
X6.79Y-44.55
X6.8Y-54.9
X7.13Y-2.09
X7.47Y-28.87
X7.8Y-56.0
X7.81Y-20.84
X7.965Y-13.055
X7.97Y-3.97
X8.46Y-28.39
X8.85Y-20.84
X9.07Y-36.74
X9.13Y-13.05
X9.182Y-28.39
X9.25Y-4.02
X9.8Y-52.04
X10.3Y-55.92
X10.37Y-3.82
X11.47Y-36.75
X11.48Y-3.83
X12.01Y-28.98
X12.03Y-52.03
X12.07Y-44.55
X12.56Y-55.97
X12.59Y-13.04
X13.15Y-3.88
X13.19Y-2.1
X13.57Y-13.07
X13.72Y-20.84
X14.62Y-20.85
X15.52Y-20.84
X15.57Y-28.97
X16.42Y-20.84
X16.55Y-4.3
X16.86Y-44.55
X16.96Y-36.75
X17.32Y-20.84
X17.35Y-28.92
X17.49Y-44.54
X17.82Y-36.74
X17.85Y-53.35
X17.95Y-13.05
X18.15Y-44.54
X18.22Y-20.85
X18.42Y-28.92
X18.54Y-4.83
X18.64Y-36.75
X18.79Y-3.32
X18.79Y-44.54
X19.42Y-44.55
X19.46Y-36.74
X19.75Y-55.0
X20.574Y-28.45
X21.3Y-52.5
X22.3Y-4.0
X22.36Y-13.05
X22.9Y-20.84
X23.24Y-28.43
X23.34Y-13.04
X24.22Y-20.85
X24.31Y-52.72
X24.321Y-4.509
X24.96Y-13.05
X24.97Y-44.56
X25.64Y-28.91
X25.7Y-52.7
X26.18Y-20.85
X26.31Y-13.05
X27.44Y-3.87
X27.57Y-20.87
X27.6Y-53.1
X29.69Y-44.53
X29.86Y-36.74
X30.15Y-13.04
X30.25Y-54.71
X30.48Y-28.95
X30.88Y-5.37
X31.62Y-5.4
X32.79Y-36.76
X33.1Y-20.85
X33.11Y-2.01
X34.5Y-55.2
X34.5Y-56.3
X36.07Y-5.41
X37.13Y-2.0
X38.15Y-4.25
X38.8Y-56.3
X39.6Y-53.4
X39.8Y-13.05
X40.0Y-20.85
X40.15Y-4.9
X41.35Y-13.05
X41.65Y-5.34
X42.3Y-54.4
X42.45Y-3.75
X42.9Y-52.7
T0
M30
