%TF.GenerationSoftware,KiCad,Pcbnew,7.0.7*%
%TF.CreationDate,2024-12-12T20:45:32-05:00*%
%TF.ProjectId,design-files_TM,64657369-676e-42d6-9669-6c65735f544d,rev?*%
%TF.SameCoordinates,Original*%
%TF.FileFunction,Copper,L2,Inr*%
%TF.FilePolarity,Positive*%
%FSLAX46Y46*%
G04 Gerber Fmt 4.6, Leading zero omitted, Abs format (unit mm)*
G04 Created by KiCad (PCBNEW 7.0.7) date 2024-12-12 20:45:32*
%MOMM*%
%LPD*%
G01*
G04 APERTURE LIST*
%TA.AperFunction,ViaPad*%
%ADD10C,0.457300*%
%TD*%
%TA.AperFunction,Conductor*%
%ADD11C,0.127000*%
%TD*%
G04 APERTURE END LIST*
D10*
%TO.N,+5V*%
X13190000Y-2100000D03*
X18640000Y-36750000D03*
X37130000Y-2000000D03*
X15570000Y-28970000D03*
X26180000Y-20850000D03*
X13150000Y-3880000D03*
X12560000Y-55970000D03*
X7970000Y-3970000D03*
X16960000Y-36750000D03*
X17820000Y-36740000D03*
X41650000Y-5340000D03*
X9800000Y-52040000D03*
X7965000Y-13055000D03*
X38800000Y-56300000D03*
X9070000Y-36740000D03*
X11470000Y-36750000D03*
X7800000Y-56000000D03*
X19460000Y-36740000D03*
X7130000Y-2090000D03*
X23340000Y-13040000D03*
X34500000Y-56300000D03*
X12010000Y-28980000D03*
X39800000Y-13050000D03*
X33110000Y-2010000D03*
%TO.N,/~{RESET}*%
X17350000Y-28920000D03*
X8850000Y-20840000D03*
%TO.N,VCC*%
X1037329Y-5752873D03*
X1682329Y-5752873D03*
X1000000Y-6950000D03*
X1700000Y-6950000D03*
%TO.N,/DOUT*%
X29860000Y-36740000D03*
X12070000Y-44550000D03*
X31620000Y-5400000D03*
X30480000Y-28950000D03*
X13570000Y-13070000D03*
X23240000Y-28430000D03*
%TO.N,/DIN*%
X18420000Y-28920000D03*
X12590000Y-13040000D03*
%TO.N,/CLK*%
X32790000Y-36760000D03*
X25640000Y-28910000D03*
X7810000Y-20840000D03*
X6790000Y-44550000D03*
X30150000Y-13040000D03*
X24970000Y-44560000D03*
%TO.N,GND*%
X3830000Y-54330000D03*
X20574000Y-28450000D03*
X3270000Y-13050000D03*
X16550000Y-4300000D03*
X36070000Y-5410000D03*
X38150000Y-4250000D03*
X12030000Y-52030000D03*
X25700000Y-52700000D03*
X17490000Y-44540000D03*
X16860000Y-44550000D03*
X2090000Y-13050000D03*
X18790000Y-44540000D03*
X27600000Y-53100000D03*
X8460000Y-28390000D03*
X24220000Y-20850000D03*
X9181842Y-28390000D03*
X9130000Y-13050000D03*
X7470000Y-28870000D03*
X19420000Y-44550000D03*
X5810000Y-36770000D03*
X41350000Y-13050000D03*
X40150000Y-4900000D03*
X6020000Y-53330000D03*
X9250000Y-4020000D03*
X18540000Y-4830000D03*
X5900000Y-3850000D03*
X6430000Y-29200000D03*
X40000000Y-20850000D03*
X17950000Y-13050000D03*
X22360000Y-13050000D03*
X18150000Y-44540000D03*
X6530000Y-28450000D03*
%TO.N,Net-(JMPR1-Pad1)*%
X1000000Y-51800000D03*
X1650000Y-50700000D03*
X1000000Y-50700000D03*
X1650000Y-51800000D03*
%TO.N,/LGAD1*%
X15520000Y-20840000D03*
X17850000Y-53350000D03*
X6800000Y-54900000D03*
%TO.N,/ETROC1*%
X10300000Y-55920000D03*
X19750000Y-55000000D03*
X16420000Y-20840000D03*
%TO.N,/CS_T1*%
X30880000Y-5370000D03*
X27570000Y-20870000D03*
%TO.N,/CS_T3*%
X5470000Y-44550000D03*
X29690000Y-44530000D03*
%TO.N,/2.5V*%
X33100000Y-20850000D03*
X22900000Y-20840000D03*
%TO.N,/LGAD2*%
X39600000Y-53400000D03*
X30250000Y-54710000D03*
X17320000Y-20840000D03*
%TO.N,/ETROC2*%
X18220000Y-20850000D03*
X34500000Y-55200000D03*
X42300000Y-54400000D03*
%TO.N,/LGAD3*%
X4400000Y-4200000D03*
X13720000Y-20840000D03*
X10370000Y-3820000D03*
%TO.N,/ETROC3*%
X1500000Y-3250000D03*
X11480000Y-3830000D03*
X14620000Y-20850000D03*
%TO.N,/LGAD4*%
X26310000Y-13050000D03*
X27440000Y-3870000D03*
%TO.N,/ETROC4*%
X24960000Y-13050000D03*
X24321000Y-4509000D03*
%TO.N,TP+*%
X24310000Y-52720000D03*
X18790000Y-3320000D03*
X3060000Y-52740000D03*
X42450000Y-3750000D03*
%TO.N,Net-(U1-VSS)*%
X21300000Y-52500000D03*
%TO.N,Net-(U2-VSS)*%
X42900000Y-52700000D03*
%TO.N,Net-(U3-VSS)*%
X900000Y-4400000D03*
%TO.N,Net-(U4-VSS)*%
X22300000Y-4000000D03*
%TD*%
D11*
%TO.N,/DOUT*%
X29170000Y-27100000D02*
X29170000Y-7850000D01*
X30480000Y-28950000D02*
X30480000Y-28410000D01*
X29860000Y-36740000D02*
X30410000Y-36190000D01*
X30480000Y-28950000D02*
X30510000Y-28920000D01*
X30480000Y-28410000D02*
X29170000Y-27100000D01*
X30410000Y-29020000D02*
X30480000Y-28950000D01*
X30410000Y-36190000D02*
X30410000Y-29020000D01*
X29170000Y-7850000D02*
X31620000Y-5400000D01*
%TO.N,/CLK*%
X24970000Y-44560000D02*
X32770000Y-36760000D01*
%TO.N,/LGAD1*%
X12110000Y-53880000D02*
X13040000Y-52950000D01*
X6800000Y-54900000D02*
X7820000Y-53880000D01*
X13040000Y-23320000D02*
X15520000Y-20840000D01*
X7820000Y-53880000D02*
X12110000Y-53880000D01*
X13040000Y-52950000D02*
X13040000Y-23320000D01*
%TO.N,/ETROC1*%
X10300000Y-55920000D02*
X10320000Y-55900000D01*
X10320000Y-54950000D02*
X10950000Y-54320000D01*
X13600000Y-23660000D02*
X16420000Y-20840000D01*
X13600000Y-52820000D02*
X13600000Y-23660000D01*
X10320000Y-55900000D02*
X10320000Y-54950000D01*
X10950000Y-54320000D02*
X12100000Y-54320000D01*
X12100000Y-54320000D02*
X13600000Y-52820000D01*
%TO.N,/CS_T1*%
X30880000Y-5370000D02*
X28490000Y-7760000D01*
X28490000Y-7760000D02*
X28490000Y-19950000D01*
X28490000Y-19950000D02*
X27570000Y-20870000D01*
%TO.N,/LGAD2*%
X30250000Y-54710000D02*
X30250000Y-53750000D01*
X30250000Y-53750000D02*
X26900000Y-50400000D01*
X26900000Y-50400000D02*
X19080000Y-50400000D01*
X19080000Y-50400000D02*
X14090000Y-45410000D01*
X14090000Y-45410000D02*
X14090000Y-24070000D01*
X14090000Y-24070000D02*
X17320000Y-20840000D01*
%TO.N,/ETROC2*%
X34500000Y-54260000D02*
X34500000Y-55200000D01*
X33440000Y-53200000D02*
X34500000Y-54260000D01*
X31000000Y-53200000D02*
X33440000Y-53200000D01*
X19460000Y-49900000D02*
X27700000Y-49900000D01*
X14630000Y-45070000D02*
X19460000Y-49900000D01*
X14630000Y-24450000D02*
X14630000Y-45070000D01*
X18210000Y-20870000D02*
X14630000Y-24450000D01*
X27700000Y-49900000D02*
X31000000Y-53200000D01*
%TO.N,/LGAD3*%
X10370000Y-3820000D02*
X14510000Y-7960000D01*
X14510000Y-20050000D02*
X13720000Y-20840000D01*
X14510000Y-7960000D02*
X14510000Y-20050000D01*
X13720000Y-20840000D02*
X13720000Y-20580000D01*
%TO.N,/ETROC3*%
X15110000Y-20360000D02*
X14620000Y-20850000D01*
X15110000Y-7460000D02*
X15110000Y-20360000D01*
X11480000Y-3830000D02*
X15110000Y-7460000D01*
%TO.N,/LGAD4*%
X25010000Y-11750000D02*
X26310000Y-13050000D01*
X25010000Y-6340000D02*
X25010000Y-11750000D01*
X27450000Y-3900000D02*
X25010000Y-6340000D01*
%TO.N,/ETROC4*%
X24050000Y-4780000D02*
X24050000Y-12140000D01*
X24050000Y-12140000D02*
X24960000Y-13050000D01*
X24321000Y-4509000D02*
X24050000Y-4780000D01*
%TD*%
%TA.AperFunction,Conductor*%
%TO.N,/LGAD2*%
G36*
X17119402Y-20756858D02*
G01*
X17316171Y-20837435D01*
X17322528Y-20843741D01*
X17322564Y-20843828D01*
X17403140Y-21040596D01*
X17403104Y-21049551D01*
X17396926Y-21055782D01*
X17048824Y-21205136D01*
X17039870Y-21205249D01*
X17035938Y-21202657D01*
X16957342Y-21124061D01*
X16953915Y-21115788D01*
X16954862Y-21111178D01*
X17104219Y-20763071D01*
X17110628Y-20756821D01*
X17119402Y-20756858D01*
G37*
%TD.AperFunction*%
%TD*%
%TA.AperFunction,Conductor*%
%TO.N,/DOUT*%
G36*
X30144061Y-36377342D02*
G01*
X30222657Y-36455938D01*
X30226084Y-36464211D01*
X30225136Y-36468824D01*
X30075782Y-36816926D01*
X30069371Y-36823178D01*
X30060596Y-36823140D01*
X29863828Y-36742564D01*
X29857471Y-36736258D01*
X29776859Y-36539402D01*
X29776895Y-36530448D01*
X29783070Y-36524219D01*
X30131176Y-36374862D01*
X30140129Y-36374750D01*
X30144061Y-36377342D01*
G37*
%TD.AperFunction*%
%TD*%
%TA.AperFunction,Conductor*%
%TO.N,/LGAD4*%
G36*
X27240155Y-3787167D02*
G01*
X27436171Y-3867435D01*
X27442528Y-3873741D01*
X27442564Y-3873828D01*
X27523407Y-4071248D01*
X27523371Y-4080203D01*
X27517862Y-4086122D01*
X27193081Y-4250456D01*
X27184152Y-4251133D01*
X27179526Y-4248289D01*
X27100906Y-4169669D01*
X27097479Y-4161396D01*
X27098128Y-4157555D01*
X27224695Y-3794154D01*
X27230652Y-3787469D01*
X27239592Y-3786954D01*
X27240155Y-3787167D01*
G37*
%TD.AperFunction*%
%TD*%
%TA.AperFunction,Conductor*%
%TO.N,/ETROC3*%
G36*
X14904061Y-20487342D02*
G01*
X14982657Y-20565938D01*
X14986084Y-20574211D01*
X14985136Y-20578824D01*
X14835782Y-20926926D01*
X14829371Y-20933178D01*
X14820596Y-20933140D01*
X14623828Y-20852564D01*
X14617471Y-20846258D01*
X14536859Y-20649402D01*
X14536895Y-20640448D01*
X14543070Y-20634219D01*
X14891176Y-20484862D01*
X14900129Y-20484750D01*
X14904061Y-20487342D01*
G37*
%TD.AperFunction*%
%TD*%
%TA.AperFunction,Conductor*%
%TO.N,/LGAD2*%
G36*
X30313848Y-54256127D02*
G01*
X30316440Y-54260059D01*
X30456975Y-54611813D01*
X30456862Y-54620767D01*
X30450631Y-54626945D01*
X30254521Y-54709105D01*
X30245566Y-54709141D01*
X30245479Y-54709105D01*
X30049368Y-54626945D01*
X30043062Y-54620588D01*
X30043024Y-54611813D01*
X30183560Y-54260059D01*
X30189812Y-54253648D01*
X30194425Y-54252700D01*
X30305575Y-54252700D01*
X30313848Y-54256127D01*
G37*
%TD.AperFunction*%
%TD*%
%TA.AperFunction,Conductor*%
%TO.N,/LGAD1*%
G36*
X15319402Y-20756858D02*
G01*
X15516171Y-20837435D01*
X15522528Y-20843741D01*
X15522564Y-20843828D01*
X15603140Y-21040596D01*
X15603104Y-21049551D01*
X15596926Y-21055782D01*
X15248824Y-21205136D01*
X15239870Y-21205249D01*
X15235938Y-21202657D01*
X15157342Y-21124061D01*
X15153915Y-21115788D01*
X15154862Y-21111178D01*
X15304219Y-20763071D01*
X15310628Y-20756821D01*
X15319402Y-20756858D01*
G37*
%TD.AperFunction*%
%TD*%
%TA.AperFunction,Conductor*%
%TO.N,/DOUT*%
G36*
X31419402Y-5316858D02*
G01*
X31616171Y-5397435D01*
X31622528Y-5403741D01*
X31622564Y-5403828D01*
X31703140Y-5600596D01*
X31703104Y-5609551D01*
X31696926Y-5615782D01*
X31348824Y-5765136D01*
X31339870Y-5765249D01*
X31335938Y-5762657D01*
X31257342Y-5684061D01*
X31253915Y-5675788D01*
X31254862Y-5671178D01*
X31404219Y-5323071D01*
X31410628Y-5316821D01*
X31419402Y-5316858D01*
G37*
%TD.AperFunction*%
%TD*%
%TA.AperFunction,Conductor*%
%TO.N,/CS_T1*%
G36*
X30679402Y-5286858D02*
G01*
X30876171Y-5367435D01*
X30882528Y-5373741D01*
X30882564Y-5373828D01*
X30963140Y-5570596D01*
X30963104Y-5579551D01*
X30956926Y-5585782D01*
X30608824Y-5735136D01*
X30599870Y-5735249D01*
X30595938Y-5732657D01*
X30517342Y-5654061D01*
X30513915Y-5645788D01*
X30514862Y-5641178D01*
X30664219Y-5293071D01*
X30670628Y-5286821D01*
X30679402Y-5286858D01*
G37*
%TD.AperFunction*%
%TD*%
%TA.AperFunction,Conductor*%
%TO.N,/ETROC1*%
G36*
X16219402Y-20756858D02*
G01*
X16416171Y-20837435D01*
X16422528Y-20843741D01*
X16422564Y-20843828D01*
X16503140Y-21040596D01*
X16503104Y-21049551D01*
X16496926Y-21055782D01*
X16148824Y-21205136D01*
X16139870Y-21205249D01*
X16135938Y-21202657D01*
X16057342Y-21124061D01*
X16053915Y-21115788D01*
X16054862Y-21111178D01*
X16204219Y-20763071D01*
X16210628Y-20756821D01*
X16219402Y-20756858D01*
G37*
%TD.AperFunction*%
%TD*%
%TA.AperFunction,Conductor*%
%TO.N,/ETROC2*%
G36*
X18216171Y-20847435D02*
G01*
X18222528Y-20853741D01*
X18222564Y-20853828D01*
X18303206Y-21050758D01*
X18303170Y-21059713D01*
X18297156Y-21065872D01*
X17954890Y-21218976D01*
X17945939Y-21219226D01*
X17941840Y-21216569D01*
X17863231Y-21137960D01*
X17859804Y-21129687D01*
X17860672Y-21125265D01*
X18004329Y-20773340D01*
X18010627Y-20766978D01*
X18019580Y-20766932D01*
X18216171Y-20847435D01*
G37*
%TD.AperFunction*%
%TD*%
%TA.AperFunction,Conductor*%
%TO.N,/LGAD3*%
G36*
X13786922Y-20583427D02*
G01*
X13786928Y-20583433D01*
X13873443Y-20670072D01*
X13876864Y-20678347D01*
X13873463Y-20686587D01*
X13728299Y-20832649D01*
X13720036Y-20836101D01*
X13711752Y-20832700D01*
X13711701Y-20832649D01*
X13566536Y-20686587D01*
X13563135Y-20678303D01*
X13566556Y-20670072D01*
X13653072Y-20583433D01*
X13661343Y-20580000D01*
X13778649Y-20580000D01*
X13786922Y-20583427D01*
G37*
%TD.AperFunction*%
%TD*%
%TA.AperFunction,Conductor*%
%TO.N,/DOUT*%
G36*
X30543848Y-28496127D02*
G01*
X30546440Y-28500059D01*
X30686975Y-28851813D01*
X30686862Y-28860767D01*
X30680631Y-28866945D01*
X30484521Y-28949105D01*
X30475566Y-28949141D01*
X30475479Y-28949105D01*
X30279368Y-28866945D01*
X30273062Y-28860588D01*
X30273024Y-28851813D01*
X30413560Y-28500059D01*
X30419812Y-28493648D01*
X30424425Y-28492700D01*
X30535575Y-28492700D01*
X30543848Y-28496127D01*
G37*
%TD.AperFunction*%
%TD*%
%TA.AperFunction,Conductor*%
%TO.N,/LGAD3*%
G36*
X10579551Y-3736895D02*
G01*
X10585782Y-3743073D01*
X10735136Y-4091175D01*
X10735249Y-4100129D01*
X10732657Y-4104061D01*
X10654061Y-4182657D01*
X10645788Y-4186084D01*
X10641175Y-4185136D01*
X10439153Y-4098458D01*
X10293072Y-4035781D01*
X10286821Y-4029371D01*
X10286858Y-4020597D01*
X10367436Y-3823826D01*
X10373740Y-3817471D01*
X10570597Y-3736859D01*
X10579551Y-3736895D01*
G37*
%TD.AperFunction*%
%TD*%
%TA.AperFunction,Conductor*%
%TO.N,/LGAD4*%
G36*
X26038822Y-12684862D02*
G01*
X26386927Y-12834218D01*
X26393178Y-12840628D01*
X26393140Y-12849403D01*
X26312564Y-13046171D01*
X26306258Y-13052528D01*
X26306171Y-13052564D01*
X26109403Y-13133140D01*
X26100448Y-13133104D01*
X26094218Y-13126927D01*
X25944862Y-12778823D01*
X25944750Y-12769870D01*
X25947340Y-12765940D01*
X26025939Y-12687341D01*
X26034211Y-12683915D01*
X26038822Y-12684862D01*
G37*
%TD.AperFunction*%
%TD*%
%TA.AperFunction,Conductor*%
%TO.N,/DOUT*%
G36*
X30484521Y-28950894D02*
G01*
X30678670Y-29032233D01*
X30684976Y-29038590D01*
X30684940Y-29047545D01*
X30684129Y-29049130D01*
X30476923Y-29387782D01*
X30469682Y-29393051D01*
X30466943Y-29393376D01*
X30355919Y-29393376D01*
X30347646Y-29389949D01*
X30344489Y-29384173D01*
X30270835Y-29047022D01*
X30272417Y-29038208D01*
X30277741Y-29033736D01*
X30475479Y-28950893D01*
X30484434Y-28950858D01*
X30484521Y-28950894D01*
G37*
%TD.AperFunction*%
%TD*%
%TA.AperFunction,Conductor*%
%TO.N,/CLK*%
G36*
X32589077Y-36676725D02*
G01*
X32786171Y-36757435D01*
X32792528Y-36763741D01*
X32792564Y-36763828D01*
X32872983Y-36960213D01*
X32872947Y-36969168D01*
X32866590Y-36975474D01*
X32866386Y-36975555D01*
X32510641Y-37113514D01*
X32501689Y-37113311D01*
X32498138Y-37110879D01*
X32419520Y-37032261D01*
X32416093Y-37023988D01*
X32417188Y-37019046D01*
X32574041Y-36682608D01*
X32580643Y-36676559D01*
X32589077Y-36676725D01*
G37*
%TD.AperFunction*%
%TD*%
%TA.AperFunction,Conductor*%
%TO.N,+5V*%
G36*
X21193244Y-401502D02*
G01*
X21239737Y-455158D01*
X21249841Y-525432D01*
X21220347Y-590012D01*
X21214218Y-596595D01*
X21049957Y-760855D01*
X21049948Y-760865D01*
X20919433Y-947262D01*
X20823262Y-1153501D01*
X20823260Y-1153506D01*
X20764365Y-1373304D01*
X20744532Y-1600000D01*
X20764365Y-1826695D01*
X20823260Y-2046493D01*
X20823262Y-2046498D01*
X20919433Y-2252737D01*
X21049948Y-2439134D01*
X21049957Y-2439144D01*
X21210855Y-2600042D01*
X21210865Y-2600051D01*
X21397262Y-2730566D01*
X21397261Y-2730566D01*
X21417555Y-2740029D01*
X21603504Y-2826739D01*
X21823308Y-2885635D01*
X21993216Y-2900500D01*
X21993217Y-2900500D01*
X22106783Y-2900500D01*
X22106784Y-2900500D01*
X22276692Y-2885635D01*
X22496496Y-2826739D01*
X22702734Y-2730568D01*
X22702737Y-2730566D01*
X22889134Y-2600051D01*
X22889136Y-2600048D01*
X22889139Y-2600047D01*
X23050047Y-2439139D01*
X23180568Y-2252734D01*
X23276739Y-2046496D01*
X23335635Y-1826692D01*
X23355468Y-1600000D01*
X23335635Y-1373308D01*
X23276739Y-1153504D01*
X23180568Y-947266D01*
X23180567Y-947265D01*
X23180566Y-947262D01*
X23050051Y-760865D01*
X23050042Y-760855D01*
X22885782Y-596595D01*
X22851756Y-534283D01*
X22856821Y-463468D01*
X22899368Y-406632D01*
X22965888Y-381821D01*
X22974877Y-381500D01*
X43592500Y-381500D01*
X43660621Y-401502D01*
X43707114Y-455158D01*
X43718500Y-507500D01*
X43718500Y-52179743D01*
X43698498Y-52247864D01*
X43644842Y-52294357D01*
X43574568Y-52304461D01*
X43509988Y-52274967D01*
X43485813Y-52246779D01*
X43479974Y-52237487D01*
X43479972Y-52237484D01*
X43362517Y-52120029D01*
X43362514Y-52120027D01*
X43362513Y-52120026D01*
X43221861Y-52031649D01*
X43221859Y-52031648D01*
X43221857Y-52031647D01*
X43117332Y-51995072D01*
X43065069Y-51976785D01*
X42900000Y-51958186D01*
X42734931Y-51976785D01*
X42734928Y-51976785D01*
X42734928Y-51976786D01*
X42578142Y-52031647D01*
X42437482Y-52120029D01*
X42320029Y-52237482D01*
X42231647Y-52378142D01*
X42176786Y-52534928D01*
X42176785Y-52534931D01*
X42158186Y-52700000D01*
X42176785Y-52865069D01*
X42190782Y-52905069D01*
X42231647Y-53021857D01*
X42231648Y-53021859D01*
X42231649Y-53021861D01*
X42314189Y-53153223D01*
X42320029Y-53162517D01*
X42437482Y-53279970D01*
X42437484Y-53279971D01*
X42437487Y-53279974D01*
X42578139Y-53368351D01*
X42734931Y-53423215D01*
X42900000Y-53441814D01*
X43065069Y-53423215D01*
X43221861Y-53368351D01*
X43362513Y-53279974D01*
X43479974Y-53162513D01*
X43485811Y-53153222D01*
X43538988Y-53106184D01*
X43609155Y-53095362D01*
X43674034Y-53124193D01*
X43713027Y-53183523D01*
X43718500Y-53220256D01*
X43718500Y-56992500D01*
X43698498Y-57060621D01*
X43644842Y-57107114D01*
X43592500Y-57118500D01*
X22974877Y-57118500D01*
X22906756Y-57098498D01*
X22860263Y-57044842D01*
X22850159Y-56974568D01*
X22879653Y-56909988D01*
X22885782Y-56903405D01*
X23050042Y-56739144D01*
X23050047Y-56739139D01*
X23117215Y-56643213D01*
X23180566Y-56552737D01*
X23180566Y-56552736D01*
X23180568Y-56552734D01*
X23276739Y-56346496D01*
X23335635Y-56126692D01*
X23355468Y-55900000D01*
X23335635Y-55673308D01*
X23276739Y-55453504D01*
X23180568Y-55247266D01*
X23180567Y-55247265D01*
X23180566Y-55247262D01*
X23050051Y-55060865D01*
X23050042Y-55060855D01*
X22889144Y-54899957D01*
X22889134Y-54899948D01*
X22702737Y-54769433D01*
X22702738Y-54769433D01*
X22496498Y-54673262D01*
X22496493Y-54673260D01*
X22276695Y-54614365D01*
X22149260Y-54603216D01*
X22106784Y-54599500D01*
X21993216Y-54599500D01*
X21959234Y-54602473D01*
X21823304Y-54614365D01*
X21603506Y-54673260D01*
X21603501Y-54673262D01*
X21397262Y-54769433D01*
X21210865Y-54899948D01*
X21210855Y-54899957D01*
X21049957Y-55060855D01*
X21049948Y-55060865D01*
X20919433Y-55247262D01*
X20823262Y-55453501D01*
X20823260Y-55453506D01*
X20764365Y-55673304D01*
X20744532Y-55899999D01*
X20764365Y-56126695D01*
X20823260Y-56346493D01*
X20823262Y-56346498D01*
X20919433Y-56552737D01*
X21049948Y-56739134D01*
X21049957Y-56739144D01*
X21214218Y-56903405D01*
X21248244Y-56965717D01*
X21243179Y-57036532D01*
X21200632Y-57093368D01*
X21134112Y-57118179D01*
X21125123Y-57118500D01*
X2210212Y-57118500D01*
X2142091Y-57098498D01*
X2121117Y-57081595D01*
X418404Y-55378882D01*
X384378Y-55316570D01*
X381499Y-55289787D01*
X381499Y-54330000D01*
X3088186Y-54330000D01*
X3106785Y-54495069D01*
X3106786Y-54495071D01*
X3161647Y-54651857D01*
X3161648Y-54651859D01*
X3161649Y-54651861D01*
X3235524Y-54769433D01*
X3250029Y-54792517D01*
X3367482Y-54909970D01*
X3367484Y-54909971D01*
X3367487Y-54909974D01*
X3508139Y-54998351D01*
X3664931Y-55053215D01*
X3830000Y-55071814D01*
X3995069Y-55053215D01*
X4151861Y-54998351D01*
X4292513Y-54909974D01*
X4302487Y-54900000D01*
X6058186Y-54900000D01*
X6076785Y-55065069D01*
X6077934Y-55068352D01*
X6131647Y-55221857D01*
X6131648Y-55221859D01*
X6131649Y-55221861D01*
X6208176Y-55343653D01*
X6220029Y-55362517D01*
X6337482Y-55479970D01*
X6337484Y-55479971D01*
X6337487Y-55479974D01*
X6478139Y-55568351D01*
X6634931Y-55623215D01*
X6800000Y-55641814D01*
X6965069Y-55623215D01*
X7121861Y-55568351D01*
X7262513Y-55479974D01*
X7379974Y-55362513D01*
X7468351Y-55221861D01*
X7472787Y-55209180D01*
X7484177Y-55185133D01*
X7487681Y-55179395D01*
X7596966Y-54924680D01*
X7623659Y-54885269D01*
X8020025Y-54488904D01*
X8082338Y-54454879D01*
X8109121Y-54452000D01*
X9725636Y-54452000D01*
X9793757Y-54472002D01*
X9840250Y-54525658D01*
X9850354Y-54595932D01*
X9825598Y-54654705D01*
X9820361Y-54661529D01*
X9820358Y-54661533D01*
X9762722Y-54800679D01*
X9760227Y-54819636D01*
X9748000Y-54912508D01*
X9748000Y-54912513D01*
X9743845Y-54944076D01*
X9743065Y-54950000D01*
X9747460Y-54983386D01*
X9748000Y-54991618D01*
X9748000Y-55316142D01*
X9736533Y-55368660D01*
X9625052Y-55611781D01*
X9623027Y-55616420D01*
X9623026Y-55616422D01*
X9601524Y-55675214D01*
X9601524Y-55675217D01*
X9600969Y-55678969D01*
X9595258Y-55702134D01*
X9576785Y-55754929D01*
X9564005Y-55868352D01*
X9558186Y-55920000D01*
X9576785Y-56085069D01*
X9576786Y-56085071D01*
X9631647Y-56241857D01*
X9631648Y-56241859D01*
X9631649Y-56241861D01*
X9720026Y-56382513D01*
X9720029Y-56382517D01*
X9837482Y-56499970D01*
X9837484Y-56499971D01*
X9837487Y-56499974D01*
X9978139Y-56588351D01*
X10134931Y-56643215D01*
X10300000Y-56661814D01*
X10465069Y-56643215D01*
X10621861Y-56588351D01*
X10762513Y-56499974D01*
X10879974Y-56382513D01*
X10968351Y-56241861D01*
X11023215Y-56085069D01*
X11041814Y-55920000D01*
X11023215Y-55754931D01*
X11001638Y-55693269D01*
X10996911Y-55675843D01*
X10996787Y-55675211D01*
X10992407Y-55652816D01*
X10899043Y-55385451D01*
X10892000Y-55343913D01*
X10892000Y-55239120D01*
X10912002Y-55170999D01*
X10928905Y-55150024D01*
X11078930Y-55000000D01*
X19008186Y-55000000D01*
X19026785Y-55165069D01*
X19026786Y-55165071D01*
X19081647Y-55321857D01*
X19081648Y-55321859D01*
X19081649Y-55321861D01*
X19170026Y-55462513D01*
X19170029Y-55462517D01*
X19287482Y-55579970D01*
X19287484Y-55579971D01*
X19287487Y-55579974D01*
X19428139Y-55668351D01*
X19584931Y-55723215D01*
X19750000Y-55741814D01*
X19915069Y-55723215D01*
X20071861Y-55668351D01*
X20212513Y-55579974D01*
X20329974Y-55462513D01*
X20418351Y-55321861D01*
X20473215Y-55165069D01*
X20491814Y-55000000D01*
X20473215Y-54834931D01*
X20418351Y-54678139D01*
X20329974Y-54537487D01*
X20329971Y-54537484D01*
X20329970Y-54537482D01*
X20212517Y-54420029D01*
X20212514Y-54420027D01*
X20212513Y-54420026D01*
X20071861Y-54331649D01*
X20071859Y-54331648D01*
X20071857Y-54331647D01*
X19962512Y-54293386D01*
X19915069Y-54276785D01*
X19750000Y-54258186D01*
X19584931Y-54276785D01*
X19584928Y-54276785D01*
X19584928Y-54276786D01*
X19428142Y-54331647D01*
X19287482Y-54420029D01*
X19170029Y-54537482D01*
X19081647Y-54678142D01*
X19038770Y-54800679D01*
X19026785Y-54834931D01*
X19008186Y-55000000D01*
X11078930Y-55000000D01*
X11150026Y-54928904D01*
X11212338Y-54894879D01*
X11239121Y-54892000D01*
X12058381Y-54892000D01*
X12066612Y-54892540D01*
X12080138Y-54894320D01*
X12100000Y-54896935D01*
X12137486Y-54892000D01*
X12137492Y-54892000D01*
X12249322Y-54877277D01*
X12388468Y-54819641D01*
X12423822Y-54792513D01*
X12423821Y-54792513D01*
X12489315Y-54742259D01*
X12489318Y-54742254D01*
X12507955Y-54727955D01*
X12528469Y-54701220D01*
X12533887Y-54695042D01*
X13878928Y-53350000D01*
X17108186Y-53350000D01*
X17126785Y-53515069D01*
X17145073Y-53567333D01*
X17181647Y-53671857D01*
X17181648Y-53671859D01*
X17181649Y-53671861D01*
X17257462Y-53792517D01*
X17270029Y-53812517D01*
X17387482Y-53929970D01*
X17387484Y-53929971D01*
X17387487Y-53929974D01*
X17528139Y-54018351D01*
X17684931Y-54073215D01*
X17850000Y-54091814D01*
X18015069Y-54073215D01*
X18171861Y-54018351D01*
X18312513Y-53929974D01*
X18429974Y-53812513D01*
X18518351Y-53671861D01*
X18573215Y-53515069D01*
X18591814Y-53350000D01*
X18573215Y-53184931D01*
X18518351Y-53028139D01*
X18429974Y-52887487D01*
X18429971Y-52887484D01*
X18429970Y-52887482D01*
X18312517Y-52770029D01*
X18312514Y-52770027D01*
X18312513Y-52770026D01*
X18171861Y-52681649D01*
X18171859Y-52681648D01*
X18171857Y-52681647D01*
X18045639Y-52637482D01*
X18015069Y-52626785D01*
X17850000Y-52608186D01*
X17684931Y-52626785D01*
X17684928Y-52626785D01*
X17684928Y-52626786D01*
X17528142Y-52681647D01*
X17387482Y-52770029D01*
X17270029Y-52887482D01*
X17181647Y-53028142D01*
X17132586Y-53168352D01*
X17126785Y-53184931D01*
X17108186Y-53350000D01*
X13878928Y-53350000D01*
X13975044Y-53253884D01*
X13981218Y-53248469D01*
X14007955Y-53227955D01*
X14047210Y-53176798D01*
X14099641Y-53108468D01*
X14112203Y-53078142D01*
X14132914Y-53028139D01*
X14157277Y-52969322D01*
X14160295Y-52946394D01*
X14161805Y-52934932D01*
X14170684Y-52867487D01*
X14172000Y-52857492D01*
X14172000Y-52857486D01*
X14176935Y-52820000D01*
X14172540Y-52786612D01*
X14172000Y-52778381D01*
X14172000Y-52500000D01*
X20558186Y-52500000D01*
X20576785Y-52665069D01*
X20576786Y-52665071D01*
X20631647Y-52821857D01*
X20631648Y-52821859D01*
X20631649Y-52821861D01*
X20720026Y-52962513D01*
X20720029Y-52962517D01*
X20837482Y-53079970D01*
X20837484Y-53079971D01*
X20837487Y-53079974D01*
X20978139Y-53168351D01*
X21134931Y-53223215D01*
X21300000Y-53241814D01*
X21465069Y-53223215D01*
X21621861Y-53168351D01*
X21762513Y-53079974D01*
X21879974Y-52962513D01*
X21968351Y-52821861D01*
X22003994Y-52720000D01*
X23568186Y-52720000D01*
X23586785Y-52885069D01*
X23593784Y-52905071D01*
X23641647Y-53041857D01*
X23641648Y-53041859D01*
X23641649Y-53041861D01*
X23730026Y-53182513D01*
X23730029Y-53182517D01*
X23847482Y-53299970D01*
X23847484Y-53299971D01*
X23847487Y-53299974D01*
X23988139Y-53388351D01*
X24144931Y-53443215D01*
X24310000Y-53461814D01*
X24475069Y-53443215D01*
X24631861Y-53388351D01*
X24772513Y-53299974D01*
X24889974Y-53182513D01*
X24904595Y-53159242D01*
X24957771Y-53112205D01*
X25027938Y-53101383D01*
X25092817Y-53130214D01*
X25117972Y-53159244D01*
X25120027Y-53162514D01*
X25120027Y-53162515D01*
X25237482Y-53279970D01*
X25237484Y-53279971D01*
X25237487Y-53279974D01*
X25378139Y-53368351D01*
X25534931Y-53423215D01*
X25700000Y-53441814D01*
X25865069Y-53423215D01*
X26021861Y-53368351D01*
X26162513Y-53279974D01*
X26279974Y-53162513D01*
X26368351Y-53021861D01*
X26423215Y-52865069D01*
X26441814Y-52700000D01*
X26423215Y-52534931D01*
X26368351Y-52378139D01*
X26279974Y-52237487D01*
X26279971Y-52237484D01*
X26279970Y-52237482D01*
X26162517Y-52120029D01*
X26162514Y-52120027D01*
X26162513Y-52120026D01*
X26021861Y-52031649D01*
X26021859Y-52031648D01*
X26021857Y-52031647D01*
X25917332Y-51995072D01*
X25865069Y-51976785D01*
X25700000Y-51958186D01*
X25534931Y-51976785D01*
X25534928Y-51976785D01*
X25534928Y-51976786D01*
X25378142Y-52031647D01*
X25237482Y-52120029D01*
X25120027Y-52237484D01*
X25120024Y-52237488D01*
X25105401Y-52260760D01*
X25052222Y-52307796D01*
X24982054Y-52318614D01*
X24917177Y-52289780D01*
X24892028Y-52260756D01*
X24889972Y-52257484D01*
X24772517Y-52140029D01*
X24772514Y-52140027D01*
X24772513Y-52140026D01*
X24631861Y-52051649D01*
X24631859Y-52051648D01*
X24631857Y-52051647D01*
X24527332Y-52015072D01*
X24475069Y-51996785D01*
X24310000Y-51978186D01*
X24144931Y-51996785D01*
X24144928Y-51996785D01*
X24144928Y-51996786D01*
X23988142Y-52051647D01*
X23847482Y-52140029D01*
X23730029Y-52257482D01*
X23641647Y-52398142D01*
X23597883Y-52523215D01*
X23586785Y-52554931D01*
X23568186Y-52720000D01*
X22003994Y-52720000D01*
X22023215Y-52665069D01*
X22041814Y-52500000D01*
X22023215Y-52334931D01*
X21968351Y-52178139D01*
X21879974Y-52037487D01*
X21879971Y-52037484D01*
X21879970Y-52037482D01*
X21762517Y-51920029D01*
X21762514Y-51920027D01*
X21762513Y-51920026D01*
X21621861Y-51831649D01*
X21621859Y-51831648D01*
X21621857Y-51831647D01*
X21517332Y-51795072D01*
X21465069Y-51776785D01*
X21300000Y-51758186D01*
X21134931Y-51776785D01*
X21134928Y-51776785D01*
X21134928Y-51776786D01*
X20978142Y-51831647D01*
X20837482Y-51920029D01*
X20720029Y-52037482D01*
X20631647Y-52178142D01*
X20577116Y-52333985D01*
X20576785Y-52334931D01*
X20558186Y-52500000D01*
X14172000Y-52500000D01*
X14172000Y-46605120D01*
X14192002Y-46536999D01*
X14245658Y-46490506D01*
X14315932Y-46480402D01*
X14380512Y-46509896D01*
X14387095Y-46516024D01*
X18646103Y-50775033D01*
X18651534Y-50781226D01*
X18661603Y-50794347D01*
X18672045Y-50807955D01*
X18702044Y-50830974D01*
X18702046Y-50830976D01*
X18791532Y-50899641D01*
X18930678Y-50957277D01*
X19080000Y-50976936D01*
X19080001Y-50976936D01*
X19113394Y-50972540D01*
X19121626Y-50972000D01*
X26610880Y-50972000D01*
X26679001Y-50992002D01*
X26699975Y-51008905D01*
X27851683Y-52160613D01*
X27885709Y-52222925D01*
X27880644Y-52293740D01*
X27838097Y-52350576D01*
X27771577Y-52375387D01*
X27748481Y-52374916D01*
X27600000Y-52358186D01*
X27434931Y-52376785D01*
X27434928Y-52376785D01*
X27434928Y-52376786D01*
X27278142Y-52431647D01*
X27137482Y-52520029D01*
X27020029Y-52637482D01*
X26931647Y-52778142D01*
X26893388Y-52887482D01*
X26876785Y-52934931D01*
X26858186Y-53100000D01*
X26876785Y-53265069D01*
X26891618Y-53307460D01*
X26931647Y-53421857D01*
X26931648Y-53421859D01*
X26931649Y-53421861D01*
X27020026Y-53562513D01*
X27020029Y-53562517D01*
X27137482Y-53679970D01*
X27137484Y-53679971D01*
X27137487Y-53679974D01*
X27278139Y-53768351D01*
X27434931Y-53823215D01*
X27600000Y-53841814D01*
X27765069Y-53823215D01*
X27921861Y-53768351D01*
X28062513Y-53679974D01*
X28179974Y-53562513D01*
X28268351Y-53421861D01*
X28323215Y-53265069D01*
X28341814Y-53100000D01*
X28325083Y-52951515D01*
X28337332Y-52881587D01*
X28385445Y-52829379D01*
X28454145Y-52811470D01*
X28521622Y-52833546D01*
X28539386Y-52848316D01*
X29641096Y-53950026D01*
X29675120Y-54012336D01*
X29678000Y-54039119D01*
X29678000Y-54117163D01*
X29669007Y-54163910D01*
X29633653Y-54252399D01*
X29566174Y-54421297D01*
X29566169Y-54421311D01*
X29566168Y-54421314D01*
X29566168Y-54421315D01*
X29549701Y-54469279D01*
X29549075Y-54473771D01*
X29543212Y-54497983D01*
X29534691Y-54522337D01*
X29526785Y-54544931D01*
X29508186Y-54710000D01*
X29526785Y-54875069D01*
X29539887Y-54912513D01*
X29581647Y-55031857D01*
X29581648Y-55031859D01*
X29581649Y-55031861D01*
X29665349Y-55165069D01*
X29670029Y-55172517D01*
X29787482Y-55289970D01*
X29787484Y-55289971D01*
X29787487Y-55289974D01*
X29928139Y-55378351D01*
X30084931Y-55433215D01*
X30250000Y-55451814D01*
X30415069Y-55433215D01*
X30571861Y-55378351D01*
X30712513Y-55289974D01*
X30829974Y-55172513D01*
X30918351Y-55031861D01*
X30973215Y-54875069D01*
X30991814Y-54710000D01*
X30973215Y-54544931D01*
X30943517Y-54460062D01*
X30941756Y-54454092D01*
X30933826Y-54421299D01*
X30933317Y-54420026D01*
X30830993Y-54163911D01*
X30822000Y-54117164D01*
X30822000Y-53897177D01*
X30842002Y-53829056D01*
X30895658Y-53782563D01*
X30964446Y-53772255D01*
X31000000Y-53776936D01*
X31000001Y-53776936D01*
X31033394Y-53772540D01*
X31041626Y-53772000D01*
X33150880Y-53772000D01*
X33219001Y-53792002D01*
X33239975Y-53808905D01*
X33891095Y-54460025D01*
X33925121Y-54522337D01*
X33928000Y-54549120D01*
X33928000Y-54607163D01*
X33919007Y-54653910D01*
X33900102Y-54701229D01*
X33816174Y-54911297D01*
X33816169Y-54911311D01*
X33816168Y-54911314D01*
X33816168Y-54911315D01*
X33799701Y-54959279D01*
X33799075Y-54963771D01*
X33793212Y-54987983D01*
X33777861Y-55031857D01*
X33776785Y-55034931D01*
X33758186Y-55200000D01*
X33776785Y-55365069D01*
X33795073Y-55417333D01*
X33831647Y-55521857D01*
X33831648Y-55521859D01*
X33831649Y-55521861D01*
X33913933Y-55652816D01*
X33920029Y-55662517D01*
X34037482Y-55779970D01*
X34037484Y-55779971D01*
X34037487Y-55779974D01*
X34178139Y-55868351D01*
X34334931Y-55923215D01*
X34500000Y-55941814D01*
X34665069Y-55923215D01*
X34821861Y-55868351D01*
X34962513Y-55779974D01*
X35079974Y-55662513D01*
X35168351Y-55521861D01*
X35223215Y-55365069D01*
X35241814Y-55200000D01*
X35223215Y-55034931D01*
X35193517Y-54950062D01*
X35191756Y-54944092D01*
X35183826Y-54911299D01*
X35170233Y-54877277D01*
X35080993Y-54653911D01*
X35072000Y-54607164D01*
X35072000Y-54400000D01*
X41558186Y-54400000D01*
X41576785Y-54565069D01*
X41588833Y-54599500D01*
X41631647Y-54721857D01*
X41631648Y-54721859D01*
X41631649Y-54721861D01*
X41720026Y-54862513D01*
X41720029Y-54862517D01*
X41837482Y-54979970D01*
X41837484Y-54979971D01*
X41837487Y-54979974D01*
X41978139Y-55068351D01*
X42134931Y-55123215D01*
X42300000Y-55141814D01*
X42465069Y-55123215D01*
X42621861Y-55068351D01*
X42762513Y-54979974D01*
X42879974Y-54862513D01*
X42968351Y-54721861D01*
X43023215Y-54565069D01*
X43041814Y-54400000D01*
X43023215Y-54234931D01*
X42968351Y-54078139D01*
X42879974Y-53937487D01*
X42879971Y-53937484D01*
X42879970Y-53937482D01*
X42762517Y-53820029D01*
X42762514Y-53820027D01*
X42762513Y-53820026D01*
X42621861Y-53731649D01*
X42621859Y-53731648D01*
X42621857Y-53731647D01*
X42517332Y-53695072D01*
X42465069Y-53676785D01*
X42300000Y-53658186D01*
X42134931Y-53676785D01*
X42134928Y-53676785D01*
X42134928Y-53676786D01*
X41978142Y-53731647D01*
X41837482Y-53820029D01*
X41720029Y-53937482D01*
X41631647Y-54078142D01*
X41584695Y-54212325D01*
X41576785Y-54234931D01*
X41558186Y-54400000D01*
X35072000Y-54400000D01*
X35072000Y-54301618D01*
X35072540Y-54293386D01*
X35076935Y-54260000D01*
X35076935Y-54259999D01*
X35072890Y-54229272D01*
X35072000Y-54222513D01*
X35072000Y-54222508D01*
X35057277Y-54110678D01*
X34999641Y-53971532D01*
X34977683Y-53942916D01*
X34930976Y-53882046D01*
X34930974Y-53882044D01*
X34915991Y-53862517D01*
X34907956Y-53852046D01*
X34907955Y-53852045D01*
X34881227Y-53831536D01*
X34875037Y-53826107D01*
X34448930Y-53400000D01*
X38858186Y-53400000D01*
X38876785Y-53565069D01*
X38876786Y-53565071D01*
X38931647Y-53721857D01*
X38931648Y-53721859D01*
X38931649Y-53721861D01*
X39020026Y-53862513D01*
X39020029Y-53862517D01*
X39137482Y-53979970D01*
X39137484Y-53979971D01*
X39137487Y-53979974D01*
X39278139Y-54068351D01*
X39434931Y-54123215D01*
X39600000Y-54141814D01*
X39765069Y-54123215D01*
X39921861Y-54068351D01*
X40062513Y-53979974D01*
X40179974Y-53862513D01*
X40268351Y-53721861D01*
X40323215Y-53565069D01*
X40341814Y-53400000D01*
X40323215Y-53234931D01*
X40268351Y-53078139D01*
X40179974Y-52937487D01*
X40179971Y-52937484D01*
X40179970Y-52937482D01*
X40062517Y-52820029D01*
X40062514Y-52820027D01*
X40062513Y-52820026D01*
X39921861Y-52731649D01*
X39921859Y-52731648D01*
X39921857Y-52731647D01*
X39778969Y-52681649D01*
X39765069Y-52676785D01*
X39600000Y-52658186D01*
X39434931Y-52676785D01*
X39434928Y-52676785D01*
X39434928Y-52676786D01*
X39278142Y-52731647D01*
X39137482Y-52820029D01*
X39020029Y-52937482D01*
X38931647Y-53078142D01*
X38879227Y-53227953D01*
X38876785Y-53234931D01*
X38858186Y-53400000D01*
X34448930Y-53400000D01*
X33873894Y-52824964D01*
X33868463Y-52818771D01*
X33847953Y-52792043D01*
X33728474Y-52700363D01*
X33728466Y-52700358D01*
X33589320Y-52642722D01*
X33526725Y-52634481D01*
X33477492Y-52628000D01*
X33477488Y-52628000D01*
X33473811Y-52627516D01*
X33473804Y-52627515D01*
X33440002Y-52623065D01*
X33439999Y-52623065D01*
X33406612Y-52627460D01*
X33398381Y-52628000D01*
X31289120Y-52628000D01*
X31220999Y-52607998D01*
X31200025Y-52591095D01*
X29710128Y-51101198D01*
X28133894Y-49524964D01*
X28128463Y-49518771D01*
X28107953Y-49492043D01*
X27988474Y-49400363D01*
X27988466Y-49400358D01*
X27849320Y-49342722D01*
X27786725Y-49334481D01*
X27737492Y-49328000D01*
X27737488Y-49328000D01*
X27733811Y-49327516D01*
X27733804Y-49327515D01*
X27700002Y-49323065D01*
X27699999Y-49323065D01*
X27666612Y-49327460D01*
X27658381Y-49328000D01*
X19749120Y-49328000D01*
X19680999Y-49307998D01*
X19660025Y-49291095D01*
X15238905Y-44869975D01*
X15204879Y-44807663D01*
X15202000Y-44780880D01*
X15202000Y-44550000D01*
X16118186Y-44550000D01*
X16136785Y-44715069D01*
X16136786Y-44715071D01*
X16191647Y-44871857D01*
X16191648Y-44871859D01*
X16191649Y-44871861D01*
X16267462Y-44992517D01*
X16280029Y-45012517D01*
X16397482Y-45129970D01*
X16397484Y-45129971D01*
X16397487Y-45129974D01*
X16538139Y-45218351D01*
X16694931Y-45273215D01*
X16860000Y-45291814D01*
X17025069Y-45273215D01*
X17147676Y-45230312D01*
X17218578Y-45226693D01*
X17230890Y-45230308D01*
X17324931Y-45263215D01*
X17490000Y-45281814D01*
X17655069Y-45263215D01*
X17778387Y-45220063D01*
X17849287Y-45216444D01*
X17861601Y-45220059D01*
X17984931Y-45263215D01*
X18150000Y-45281814D01*
X18315069Y-45263215D01*
X18428387Y-45223562D01*
X18499288Y-45219943D01*
X18511595Y-45223557D01*
X18624931Y-45263215D01*
X18790000Y-45281814D01*
X18955069Y-45263215D01*
X19049097Y-45230312D01*
X19119998Y-45226693D01*
X19132321Y-45230311D01*
X19254931Y-45273215D01*
X19420000Y-45291814D01*
X19585069Y-45273215D01*
X19741861Y-45218351D01*
X19882513Y-45129974D01*
X19999974Y-45012513D01*
X20088351Y-44871861D01*
X20143215Y-44715069D01*
X20160687Y-44560000D01*
X24228186Y-44560000D01*
X24246785Y-44725069D01*
X24246786Y-44725071D01*
X24301647Y-44881857D01*
X24301648Y-44881859D01*
X24301649Y-44881861D01*
X24389442Y-45021583D01*
X24390029Y-45022517D01*
X24507482Y-45139970D01*
X24507484Y-45139971D01*
X24507487Y-45139974D01*
X24648139Y-45228351D01*
X24804931Y-45283215D01*
X24970000Y-45301814D01*
X25135069Y-45283215D01*
X25291861Y-45228351D01*
X25432513Y-45139974D01*
X25549974Y-45022513D01*
X25638351Y-44881861D01*
X25642787Y-44869180D01*
X25654177Y-44845133D01*
X25657681Y-44839395D01*
X25766966Y-44584678D01*
X25793660Y-44545268D01*
X25808928Y-44530000D01*
X28948186Y-44530000D01*
X28966785Y-44695069D01*
X28977283Y-44725071D01*
X29021647Y-44851857D01*
X29021648Y-44851859D01*
X29021649Y-44851861D01*
X29106912Y-44987557D01*
X29110029Y-44992517D01*
X29227482Y-45109970D01*
X29227484Y-45109971D01*
X29227487Y-45109974D01*
X29368139Y-45198351D01*
X29524931Y-45253215D01*
X29690000Y-45271814D01*
X29855069Y-45253215D01*
X30011861Y-45198351D01*
X30152513Y-45109974D01*
X30269974Y-44992513D01*
X30358351Y-44851861D01*
X30413215Y-44695069D01*
X30431814Y-44530000D01*
X30413215Y-44364931D01*
X30358351Y-44208139D01*
X30269974Y-44067487D01*
X30269971Y-44067484D01*
X30269970Y-44067482D01*
X30152517Y-43950029D01*
X30152514Y-43950027D01*
X30152513Y-43950026D01*
X30011861Y-43861649D01*
X30011859Y-43861648D01*
X30011857Y-43861647D01*
X29883647Y-43816785D01*
X29855069Y-43806785D01*
X29690000Y-43788186D01*
X29524931Y-43806785D01*
X29524928Y-43806785D01*
X29524928Y-43806786D01*
X29368142Y-43861647D01*
X29227482Y-43950029D01*
X29110029Y-44067482D01*
X29021647Y-44208142D01*
X29011150Y-44238142D01*
X28966785Y-44364931D01*
X28948186Y-44530000D01*
X25808928Y-44530000D01*
X32759774Y-37579154D01*
X32803305Y-37550778D01*
X33052252Y-37454235D01*
X33052255Y-37454234D01*
X33052254Y-37454235D01*
X33065094Y-37448300D01*
X33094323Y-37434794D01*
X33099899Y-37432536D01*
X33111861Y-37428351D01*
X33252513Y-37339974D01*
X33369974Y-37222513D01*
X33458351Y-37081861D01*
X33513215Y-36925069D01*
X33531814Y-36760000D01*
X33513215Y-36594931D01*
X33458351Y-36438139D01*
X33369974Y-36297487D01*
X33369971Y-36297484D01*
X33369970Y-36297482D01*
X33252517Y-36180029D01*
X33252514Y-36180027D01*
X33252513Y-36180026D01*
X33111861Y-36091649D01*
X33111859Y-36091648D01*
X33111857Y-36091647D01*
X32983647Y-36046785D01*
X32955069Y-36036785D01*
X32790000Y-36018186D01*
X32624931Y-36036785D01*
X32624928Y-36036785D01*
X32624928Y-36036786D01*
X32468142Y-36091647D01*
X32327482Y-36180029D01*
X32210025Y-36297486D01*
X32121650Y-36438135D01*
X32121647Y-36438142D01*
X32121004Y-36439980D01*
X32110416Y-36461472D01*
X32110822Y-36461698D01*
X32108631Y-36465634D01*
X31989799Y-36720519D01*
X31964696Y-36756372D01*
X24984736Y-43736332D01*
X24945323Y-43763029D01*
X24690592Y-43872324D01*
X24690590Y-43872325D01*
X24661779Y-43886409D01*
X24654925Y-43889272D01*
X24648147Y-43891644D01*
X24648134Y-43891650D01*
X24507486Y-43980025D01*
X24390029Y-44097482D01*
X24301647Y-44238142D01*
X24257282Y-44364931D01*
X24246785Y-44394931D01*
X24228186Y-44560000D01*
X20160687Y-44560000D01*
X20161814Y-44550000D01*
X20143215Y-44384931D01*
X20088351Y-44228139D01*
X19999974Y-44087487D01*
X19999971Y-44087484D01*
X19999970Y-44087482D01*
X19882517Y-43970029D01*
X19882514Y-43970027D01*
X19882513Y-43970026D01*
X19741861Y-43881649D01*
X19741859Y-43881648D01*
X19741857Y-43881647D01*
X19637332Y-43845072D01*
X19585069Y-43826785D01*
X19420000Y-43808186D01*
X19254931Y-43826785D01*
X19254928Y-43826785D01*
X19254928Y-43826786D01*
X19160901Y-43859686D01*
X19089997Y-43863304D01*
X19077674Y-43859686D01*
X18955069Y-43816785D01*
X18790000Y-43798186D01*
X18624930Y-43816785D01*
X18596352Y-43826785D01*
X18511613Y-43856436D01*
X18440710Y-43860054D01*
X18428389Y-43856436D01*
X18315069Y-43816785D01*
X18150000Y-43798186D01*
X17984931Y-43816785D01*
X17984928Y-43816785D01*
X17984928Y-43816786D01*
X17861615Y-43859935D01*
X17790711Y-43863555D01*
X17778385Y-43859935D01*
X17683647Y-43826785D01*
X17655069Y-43816785D01*
X17490000Y-43798186D01*
X17324930Y-43816785D01*
X17202324Y-43859686D01*
X17131419Y-43863304D01*
X17119096Y-43859686D01*
X17025069Y-43826785D01*
X16860000Y-43808186D01*
X16694931Y-43826785D01*
X16694928Y-43826785D01*
X16694928Y-43826786D01*
X16538142Y-43881647D01*
X16397482Y-43970029D01*
X16280029Y-44087482D01*
X16191647Y-44228142D01*
X16143784Y-44364928D01*
X16136785Y-44384931D01*
X16118186Y-44550000D01*
X15202000Y-44550000D01*
X15202000Y-28920000D01*
X16608186Y-28920000D01*
X16626785Y-29085069D01*
X16637285Y-29115076D01*
X16681647Y-29241857D01*
X16681648Y-29241859D01*
X16681649Y-29241861D01*
X16770026Y-29382513D01*
X16770029Y-29382517D01*
X16887482Y-29499970D01*
X16887484Y-29499971D01*
X16887487Y-29499974D01*
X17028139Y-29588351D01*
X17184931Y-29643215D01*
X17350000Y-29661814D01*
X17515069Y-29643215D01*
X17671861Y-29588351D01*
X17812513Y-29499974D01*
X17812512Y-29499974D01*
X17817964Y-29496549D01*
X17886286Y-29477243D01*
X17952036Y-29496549D01*
X17957487Y-29499974D01*
X18098139Y-29588351D01*
X18254931Y-29643215D01*
X18420000Y-29661814D01*
X18585069Y-29643215D01*
X18741861Y-29588351D01*
X18882513Y-29499974D01*
X18999974Y-29382513D01*
X19088351Y-29241861D01*
X19143215Y-29085069D01*
X19161814Y-28920000D01*
X19143215Y-28754931D01*
X19088351Y-28598139D01*
X18999974Y-28457487D01*
X18999971Y-28457484D01*
X18999970Y-28457482D01*
X18992488Y-28450000D01*
X19832186Y-28450000D01*
X19850785Y-28615069D01*
X19862395Y-28648247D01*
X19905647Y-28771857D01*
X19905648Y-28771859D01*
X19905649Y-28771861D01*
X19981462Y-28892517D01*
X19994029Y-28912517D01*
X20111482Y-29029970D01*
X20111484Y-29029971D01*
X20111487Y-29029974D01*
X20252139Y-29118351D01*
X20408931Y-29173215D01*
X20574000Y-29191814D01*
X20739069Y-29173215D01*
X20895861Y-29118351D01*
X21036513Y-29029974D01*
X21153974Y-28912513D01*
X21242351Y-28771861D01*
X21297215Y-28615069D01*
X21315814Y-28450000D01*
X21313561Y-28430000D01*
X22498186Y-28430000D01*
X22516785Y-28595069D01*
X22523784Y-28615071D01*
X22571647Y-28751857D01*
X22571648Y-28751859D01*
X22571649Y-28751861D01*
X22660026Y-28892513D01*
X22660029Y-28892517D01*
X22777482Y-29009970D01*
X22777484Y-29009971D01*
X22777487Y-29009974D01*
X22918139Y-29098351D01*
X23074931Y-29153215D01*
X23240000Y-29171814D01*
X23405069Y-29153215D01*
X23561861Y-29098351D01*
X23702513Y-29009974D01*
X23802487Y-28910000D01*
X24898186Y-28910000D01*
X24916785Y-29075069D01*
X24930132Y-29113213D01*
X24971647Y-29231857D01*
X24971648Y-29231859D01*
X24971649Y-29231861D01*
X25034895Y-29332517D01*
X25060029Y-29372517D01*
X25177482Y-29489970D01*
X25177484Y-29489971D01*
X25177487Y-29489974D01*
X25318139Y-29578351D01*
X25474931Y-29633215D01*
X25640000Y-29651814D01*
X25805069Y-29633215D01*
X25961861Y-29578351D01*
X26102513Y-29489974D01*
X26219974Y-29372513D01*
X26308351Y-29231861D01*
X26363215Y-29075069D01*
X26381814Y-28910000D01*
X26363215Y-28744931D01*
X26308351Y-28588139D01*
X26219974Y-28447487D01*
X26219971Y-28447484D01*
X26219970Y-28447482D01*
X26102517Y-28330029D01*
X26102514Y-28330027D01*
X26102513Y-28330026D01*
X25961861Y-28241649D01*
X25961859Y-28241648D01*
X25961857Y-28241647D01*
X25833647Y-28196785D01*
X25805069Y-28186785D01*
X25640000Y-28168186D01*
X25474931Y-28186785D01*
X25474928Y-28186785D01*
X25474928Y-28186786D01*
X25318142Y-28241647D01*
X25177482Y-28330029D01*
X25060029Y-28447482D01*
X24971647Y-28588142D01*
X24919245Y-28737901D01*
X24916785Y-28744931D01*
X24898186Y-28910000D01*
X23802487Y-28910000D01*
X23819974Y-28892513D01*
X23908351Y-28751861D01*
X23963215Y-28595069D01*
X23981814Y-28430000D01*
X23963215Y-28264931D01*
X23908351Y-28108139D01*
X23819974Y-27967487D01*
X23819971Y-27967484D01*
X23819970Y-27967482D01*
X23702517Y-27850029D01*
X23702514Y-27850027D01*
X23702513Y-27850026D01*
X23561861Y-27761649D01*
X23561859Y-27761648D01*
X23561857Y-27761647D01*
X23457333Y-27725072D01*
X23405069Y-27706785D01*
X23240000Y-27688186D01*
X23074931Y-27706785D01*
X23074928Y-27706785D01*
X23074928Y-27706786D01*
X22918142Y-27761647D01*
X22777482Y-27850029D01*
X22660029Y-27967482D01*
X22571647Y-28108142D01*
X22518273Y-28260678D01*
X22516785Y-28264931D01*
X22498186Y-28430000D01*
X21313561Y-28430000D01*
X21297215Y-28284931D01*
X21242351Y-28128139D01*
X21153974Y-27987487D01*
X21153971Y-27987484D01*
X21153970Y-27987482D01*
X21036517Y-27870029D01*
X21036514Y-27870027D01*
X21036513Y-27870026D01*
X20895861Y-27781649D01*
X20895859Y-27781648D01*
X20895857Y-27781647D01*
X20791333Y-27745072D01*
X20739069Y-27726785D01*
X20574000Y-27708186D01*
X20408931Y-27726785D01*
X20408928Y-27726785D01*
X20408928Y-27726786D01*
X20252142Y-27781647D01*
X20111482Y-27870029D01*
X19994029Y-27987482D01*
X19905647Y-28128142D01*
X19859271Y-28260679D01*
X19850785Y-28284931D01*
X19832186Y-28450000D01*
X18992488Y-28450000D01*
X18882517Y-28340029D01*
X18882514Y-28340027D01*
X18882513Y-28340026D01*
X18741861Y-28251649D01*
X18741859Y-28251648D01*
X18741857Y-28251647D01*
X18637333Y-28215072D01*
X18585069Y-28196785D01*
X18420000Y-28178186D01*
X18254931Y-28196785D01*
X18254928Y-28196785D01*
X18254928Y-28196786D01*
X18098140Y-28251648D01*
X17952035Y-28343451D01*
X17883714Y-28362756D01*
X17817965Y-28343451D01*
X17692999Y-28264931D01*
X17671861Y-28251649D01*
X17671860Y-28251648D01*
X17671859Y-28251648D01*
X17593465Y-28224216D01*
X17515069Y-28196785D01*
X17350000Y-28178186D01*
X17184931Y-28196785D01*
X17184928Y-28196785D01*
X17184928Y-28196786D01*
X17028142Y-28251647D01*
X16887482Y-28340029D01*
X16770029Y-28457482D01*
X16681647Y-28598142D01*
X16636852Y-28726162D01*
X16626785Y-28754931D01*
X16608186Y-28920000D01*
X15202000Y-28920000D01*
X15202000Y-24739119D01*
X15222002Y-24670998D01*
X15238905Y-24650024D01*
X16718251Y-23170678D01*
X18214442Y-21674486D01*
X18252083Y-21648568D01*
X18420542Y-21573213D01*
X18506836Y-21534612D01*
X18506835Y-21534612D01*
X18529316Y-21523299D01*
X18536822Y-21520113D01*
X18541861Y-21518351D01*
X18682513Y-21429974D01*
X18799974Y-21312513D01*
X18888351Y-21171861D01*
X18943215Y-21015069D01*
X18961814Y-20850000D01*
X18960687Y-20840000D01*
X22158186Y-20840000D01*
X22176785Y-21005069D01*
X22187283Y-21035071D01*
X22231647Y-21161857D01*
X22231648Y-21161859D01*
X22231649Y-21161861D01*
X22320026Y-21302513D01*
X22320029Y-21302517D01*
X22437482Y-21419970D01*
X22437484Y-21419971D01*
X22437487Y-21419974D01*
X22578139Y-21508351D01*
X22734931Y-21563215D01*
X22900000Y-21581814D01*
X23065069Y-21563215D01*
X23221861Y-21508351D01*
X23362513Y-21419974D01*
X23375819Y-21406668D01*
X23465905Y-21316583D01*
X23528217Y-21282557D01*
X23599032Y-21287622D01*
X23644095Y-21316583D01*
X23757482Y-21429970D01*
X23757484Y-21429971D01*
X23757487Y-21429974D01*
X23898139Y-21518351D01*
X24054931Y-21573215D01*
X24220000Y-21591814D01*
X24385069Y-21573215D01*
X24541861Y-21518351D01*
X24682513Y-21429974D01*
X24799974Y-21312513D01*
X24888351Y-21171861D01*
X24943215Y-21015069D01*
X24959561Y-20870000D01*
X26828186Y-20870000D01*
X26846785Y-21035069D01*
X26846786Y-21035071D01*
X26901647Y-21191857D01*
X26901648Y-21191859D01*
X26901649Y-21191861D01*
X26977462Y-21312517D01*
X26990029Y-21332517D01*
X27107482Y-21449970D01*
X27107484Y-21449971D01*
X27107487Y-21449974D01*
X27248139Y-21538351D01*
X27404931Y-21593215D01*
X27570000Y-21611814D01*
X27735069Y-21593215D01*
X27891861Y-21538351D01*
X28032513Y-21449974D01*
X28149974Y-21332513D01*
X28238351Y-21191861D01*
X28242787Y-21179180D01*
X28254177Y-21155133D01*
X28257681Y-21149395D01*
X28356208Y-20919754D01*
X28401449Y-20865040D01*
X28469089Y-20843470D01*
X28537654Y-20861893D01*
X28585374Y-20914460D01*
X28598000Y-20969436D01*
X28598000Y-27058381D01*
X28597460Y-27066612D01*
X28593065Y-27100000D01*
X28598000Y-27137486D01*
X28598000Y-27137492D01*
X28604481Y-27186725D01*
X28612722Y-27249320D01*
X28670358Y-27388466D01*
X28670363Y-27388474D01*
X28762043Y-27507953D01*
X28762045Y-27507955D01*
X28775533Y-27518305D01*
X28788771Y-27528463D01*
X28794964Y-27533894D01*
X29289843Y-28028773D01*
X29773475Y-28512405D01*
X29807501Y-28574717D01*
X29802436Y-28645532D01*
X29801388Y-28648247D01*
X29796174Y-28661296D01*
X29796174Y-28661297D01*
X29779701Y-28709279D01*
X29779075Y-28713771D01*
X29773212Y-28737983D01*
X29767283Y-28754928D01*
X29756785Y-28784931D01*
X29738186Y-28950000D01*
X29756785Y-29115069D01*
X29763620Y-29134603D01*
X29767948Y-29152276D01*
X29768206Y-29152220D01*
X29769165Y-29156613D01*
X29769166Y-29156616D01*
X29828341Y-29427487D01*
X29835097Y-29458414D01*
X29838000Y-29485306D01*
X29838000Y-35858834D01*
X29817998Y-35926955D01*
X29764342Y-35973448D01*
X29761682Y-35974626D01*
X29580592Y-36052324D01*
X29580590Y-36052325D01*
X29551779Y-36066409D01*
X29544925Y-36069272D01*
X29538147Y-36071644D01*
X29538134Y-36071650D01*
X29397486Y-36160025D01*
X29280029Y-36277482D01*
X29191647Y-36418142D01*
X29139226Y-36567955D01*
X29136785Y-36574931D01*
X29118186Y-36740000D01*
X29136785Y-36905069D01*
X29147283Y-36935071D01*
X29191647Y-37061857D01*
X29191648Y-37061859D01*
X29191649Y-37061861D01*
X29280026Y-37202513D01*
X29280029Y-37202517D01*
X29397482Y-37319970D01*
X29397484Y-37319971D01*
X29397487Y-37319974D01*
X29538139Y-37408351D01*
X29694931Y-37463215D01*
X29860000Y-37481814D01*
X30025069Y-37463215D01*
X30181861Y-37408351D01*
X30322513Y-37319974D01*
X30439974Y-37202513D01*
X30528351Y-37061861D01*
X30532787Y-37049180D01*
X30544177Y-37025133D01*
X30547681Y-37019395D01*
X30656966Y-36764679D01*
X30683660Y-36725269D01*
X30785048Y-36623881D01*
X30791221Y-36618467D01*
X30817955Y-36597955D01*
X30836336Y-36573998D01*
X30836347Y-36573987D01*
X30840974Y-36567956D01*
X30840976Y-36567955D01*
X30909641Y-36478468D01*
X30967277Y-36339322D01*
X30975249Y-36320075D01*
X30972408Y-36311002D01*
X30973465Y-36292313D01*
X30982000Y-36227492D01*
X30982000Y-36227486D01*
X30986935Y-36190000D01*
X30982540Y-36156612D01*
X30982000Y-36148381D01*
X30982000Y-29581668D01*
X31000522Y-29515907D01*
X31016392Y-29489970D01*
X31127247Y-29308792D01*
X31136810Y-29291736D01*
X31139702Y-29286081D01*
X31142435Y-29281273D01*
X31148351Y-29271861D01*
X31164596Y-29225432D01*
X31165578Y-29222817D01*
X31177056Y-29194188D01*
X31178984Y-29187058D01*
X31179223Y-29187122D01*
X31182130Y-29175325D01*
X31203215Y-29115069D01*
X31221814Y-28950000D01*
X31203215Y-28784931D01*
X31173517Y-28700062D01*
X31171756Y-28694092D01*
X31163826Y-28661299D01*
X31163823Y-28661291D01*
X31059601Y-28400427D01*
X31051686Y-28370126D01*
X31040470Y-28284931D01*
X31037277Y-28260678D01*
X30979641Y-28121532D01*
X30910976Y-28032046D01*
X30910974Y-28032044D01*
X30908465Y-28028774D01*
X30908465Y-28028773D01*
X30887956Y-28002046D01*
X30887955Y-28002045D01*
X30861227Y-27981536D01*
X30855037Y-27976107D01*
X29778904Y-26899974D01*
X29744878Y-26837662D01*
X29741999Y-26810888D01*
X29741999Y-20850000D01*
X32358186Y-20850000D01*
X32376785Y-21015069D01*
X32383784Y-21035071D01*
X32431647Y-21171857D01*
X32431648Y-21171859D01*
X32431649Y-21171861D01*
X32520026Y-21312513D01*
X32520029Y-21312517D01*
X32637482Y-21429970D01*
X32637484Y-21429971D01*
X32637487Y-21429974D01*
X32778139Y-21518351D01*
X32934931Y-21573215D01*
X33100000Y-21591814D01*
X33265069Y-21573215D01*
X33421861Y-21518351D01*
X33562513Y-21429974D01*
X33679974Y-21312513D01*
X33768351Y-21171861D01*
X33823215Y-21015069D01*
X33841814Y-20850000D01*
X39258186Y-20850000D01*
X39276785Y-21015069D01*
X39283784Y-21035071D01*
X39331647Y-21171857D01*
X39331648Y-21171859D01*
X39331649Y-21171861D01*
X39420026Y-21312513D01*
X39420029Y-21312517D01*
X39537482Y-21429970D01*
X39537484Y-21429971D01*
X39537487Y-21429974D01*
X39678139Y-21518351D01*
X39834931Y-21573215D01*
X40000000Y-21591814D01*
X40165069Y-21573215D01*
X40321861Y-21518351D01*
X40462513Y-21429974D01*
X40579974Y-21312513D01*
X40668351Y-21171861D01*
X40723215Y-21015069D01*
X40741814Y-20850000D01*
X40723215Y-20684931D01*
X40668351Y-20528139D01*
X40579974Y-20387487D01*
X40579971Y-20387484D01*
X40579970Y-20387482D01*
X40462517Y-20270029D01*
X40462514Y-20270027D01*
X40462513Y-20270026D01*
X40321861Y-20181649D01*
X40321859Y-20181648D01*
X40321857Y-20181647D01*
X40217333Y-20145073D01*
X40165069Y-20126785D01*
X40000000Y-20108186D01*
X39834931Y-20126785D01*
X39834928Y-20126785D01*
X39834928Y-20126786D01*
X39678142Y-20181647D01*
X39537482Y-20270029D01*
X39420029Y-20387482D01*
X39331647Y-20528142D01*
X39288682Y-20650930D01*
X39276785Y-20684931D01*
X39258186Y-20850000D01*
X33841814Y-20850000D01*
X33823215Y-20684931D01*
X33768351Y-20528139D01*
X33679974Y-20387487D01*
X33679971Y-20387484D01*
X33679970Y-20387482D01*
X33562517Y-20270029D01*
X33562514Y-20270027D01*
X33562513Y-20270026D01*
X33421861Y-20181649D01*
X33421859Y-20181648D01*
X33421857Y-20181647D01*
X33317333Y-20145073D01*
X33265069Y-20126785D01*
X33100000Y-20108186D01*
X32934931Y-20126785D01*
X32934928Y-20126785D01*
X32934928Y-20126786D01*
X32778142Y-20181647D01*
X32637482Y-20270029D01*
X32520029Y-20387482D01*
X32431647Y-20528142D01*
X32388682Y-20650930D01*
X32376785Y-20684931D01*
X32358186Y-20850000D01*
X29741999Y-20850000D01*
X29741999Y-13855788D01*
X29762001Y-13787668D01*
X29815657Y-13741175D01*
X29885931Y-13731071D01*
X29909607Y-13736858D01*
X29984931Y-13763215D01*
X30150000Y-13781814D01*
X30315069Y-13763215D01*
X30471861Y-13708351D01*
X30612513Y-13619974D01*
X30729974Y-13502513D01*
X30818351Y-13361861D01*
X30873215Y-13205069D01*
X30890687Y-13050000D01*
X40608186Y-13050000D01*
X40626785Y-13215069D01*
X40626786Y-13215071D01*
X40681647Y-13371857D01*
X40681648Y-13371859D01*
X40681649Y-13371861D01*
X40768145Y-13509519D01*
X40770029Y-13512517D01*
X40887482Y-13629970D01*
X40887484Y-13629971D01*
X40887487Y-13629974D01*
X41028139Y-13718351D01*
X41184931Y-13773215D01*
X41350000Y-13791814D01*
X41515069Y-13773215D01*
X41671861Y-13718351D01*
X41812513Y-13629974D01*
X41929974Y-13512513D01*
X42018351Y-13371861D01*
X42073215Y-13215069D01*
X42091814Y-13050000D01*
X42073215Y-12884931D01*
X42018351Y-12728139D01*
X41929974Y-12587487D01*
X41929971Y-12587484D01*
X41929970Y-12587482D01*
X41812517Y-12470029D01*
X41812514Y-12470027D01*
X41812513Y-12470026D01*
X41671861Y-12381649D01*
X41671859Y-12381648D01*
X41671857Y-12381647D01*
X41561809Y-12343140D01*
X41515069Y-12326785D01*
X41350000Y-12308186D01*
X41184931Y-12326785D01*
X41184928Y-12326785D01*
X41184928Y-12326786D01*
X41028142Y-12381647D01*
X40887482Y-12470029D01*
X40770029Y-12587482D01*
X40681647Y-12728142D01*
X40630285Y-12874928D01*
X40626785Y-12884931D01*
X40608186Y-13050000D01*
X30890687Y-13050000D01*
X30891814Y-13040000D01*
X30873215Y-12874931D01*
X30818351Y-12718139D01*
X30729974Y-12577487D01*
X30729971Y-12577484D01*
X30729970Y-12577482D01*
X30612517Y-12460029D01*
X30612514Y-12460027D01*
X30612513Y-12460026D01*
X30471861Y-12371649D01*
X30471859Y-12371648D01*
X30471857Y-12371647D01*
X30343647Y-12326785D01*
X30315069Y-12316785D01*
X30150000Y-12298186D01*
X30149999Y-12298186D01*
X29984930Y-12316785D01*
X29909613Y-12343140D01*
X29838709Y-12346758D01*
X29777104Y-12311469D01*
X29744358Y-12248475D01*
X29741999Y-12224210D01*
X29741999Y-11460879D01*
X29741999Y-8139115D01*
X29762001Y-8070998D01*
X29778899Y-8050029D01*
X31605268Y-6223660D01*
X31644678Y-6196966D01*
X31899395Y-6087681D01*
X31928230Y-6073584D01*
X31935093Y-6070718D01*
X31941861Y-6068351D01*
X32082513Y-5979974D01*
X32199974Y-5862513D01*
X32288351Y-5721861D01*
X32343215Y-5565069D01*
X32360687Y-5410000D01*
X35328186Y-5410000D01*
X35346785Y-5575069D01*
X35346786Y-5575071D01*
X35401647Y-5731857D01*
X35401648Y-5731859D01*
X35401649Y-5731861D01*
X35490026Y-5872513D01*
X35490029Y-5872517D01*
X35607482Y-5989970D01*
X35607484Y-5989971D01*
X35607487Y-5989974D01*
X35748139Y-6078351D01*
X35904931Y-6133215D01*
X36070000Y-6151814D01*
X36235069Y-6133215D01*
X36391861Y-6078351D01*
X36532513Y-5989974D01*
X36649974Y-5872513D01*
X36738351Y-5731861D01*
X36793215Y-5575069D01*
X36811814Y-5410000D01*
X36793215Y-5244931D01*
X36738351Y-5088139D01*
X36649974Y-4947487D01*
X36649971Y-4947484D01*
X36649970Y-4947482D01*
X36532517Y-4830029D01*
X36532514Y-4830027D01*
X36532513Y-4830026D01*
X36391861Y-4741649D01*
X36391859Y-4741648D01*
X36391857Y-4741647D01*
X36277542Y-4701647D01*
X36235069Y-4686785D01*
X36070000Y-4668186D01*
X35904931Y-4686785D01*
X35904928Y-4686785D01*
X35904928Y-4686786D01*
X35748142Y-4741647D01*
X35607482Y-4830029D01*
X35490029Y-4947482D01*
X35401647Y-5088142D01*
X35350285Y-5234928D01*
X35346785Y-5244931D01*
X35328186Y-5410000D01*
X32360687Y-5410000D01*
X32361814Y-5400000D01*
X32343215Y-5234931D01*
X32288351Y-5078139D01*
X32199974Y-4937487D01*
X32199971Y-4937484D01*
X32199970Y-4937482D01*
X32082517Y-4820029D01*
X32082514Y-4820027D01*
X32082513Y-4820026D01*
X31941861Y-4731649D01*
X31941859Y-4731648D01*
X31941857Y-4731647D01*
X31837333Y-4695073D01*
X31785069Y-4676785D01*
X31620000Y-4658186D01*
X31454930Y-4676785D01*
X31324237Y-4722516D01*
X31253333Y-4726134D01*
X31215589Y-4710275D01*
X31201861Y-4701649D01*
X31045069Y-4646785D01*
X30880000Y-4628186D01*
X30714931Y-4646785D01*
X30714928Y-4646785D01*
X30714928Y-4646786D01*
X30558142Y-4701647D01*
X30417482Y-4790029D01*
X30300025Y-4907486D01*
X30211650Y-5048135D01*
X30211648Y-5048140D01*
X30207209Y-5060825D01*
X30195831Y-5084850D01*
X30192322Y-5090598D01*
X30083032Y-5345319D01*
X30056335Y-5384732D01*
X28114971Y-7326098D01*
X28108770Y-7331536D01*
X28082044Y-7352044D01*
X28054587Y-7387828D01*
X28054583Y-7387833D01*
X28012985Y-7442044D01*
X27990357Y-7471533D01*
X27936868Y-7600670D01*
X27932723Y-7610678D01*
X27918000Y-7722508D01*
X27918000Y-7722513D01*
X27918000Y-7722514D01*
X27913065Y-7759999D01*
X27913065Y-7760003D01*
X27917460Y-7793389D01*
X27917999Y-7801619D01*
X27917999Y-19660878D01*
X27897997Y-19728999D01*
X27881094Y-19749973D01*
X27584735Y-20046332D01*
X27545322Y-20073029D01*
X27290592Y-20182324D01*
X27290590Y-20182325D01*
X27261779Y-20196409D01*
X27254925Y-20199272D01*
X27248147Y-20201644D01*
X27248134Y-20201650D01*
X27107486Y-20290025D01*
X26990029Y-20407482D01*
X26901647Y-20548142D01*
X26857282Y-20674931D01*
X26846785Y-20704931D01*
X26828186Y-20870000D01*
X24959561Y-20870000D01*
X24961814Y-20850000D01*
X24943215Y-20684931D01*
X24888351Y-20528139D01*
X24799974Y-20387487D01*
X24799971Y-20387484D01*
X24799970Y-20387482D01*
X24682517Y-20270029D01*
X24682514Y-20270027D01*
X24682513Y-20270026D01*
X24541861Y-20181649D01*
X24541859Y-20181648D01*
X24541857Y-20181647D01*
X24437333Y-20145073D01*
X24385069Y-20126785D01*
X24220000Y-20108186D01*
X24054931Y-20126785D01*
X24054928Y-20126785D01*
X24054928Y-20126786D01*
X23898142Y-20181647D01*
X23757485Y-20270027D01*
X23654095Y-20373417D01*
X23591783Y-20407442D01*
X23520967Y-20402376D01*
X23475905Y-20373417D01*
X23362514Y-20260027D01*
X23362513Y-20260026D01*
X23221861Y-20171649D01*
X23221859Y-20171648D01*
X23221857Y-20171647D01*
X23093647Y-20126785D01*
X23065069Y-20116785D01*
X22900000Y-20098186D01*
X22734931Y-20116785D01*
X22734928Y-20116785D01*
X22734928Y-20116786D01*
X22578142Y-20171647D01*
X22437482Y-20260029D01*
X22320029Y-20377482D01*
X22231647Y-20518142D01*
X22221150Y-20548142D01*
X22176785Y-20674931D01*
X22158186Y-20840000D01*
X18960687Y-20840000D01*
X18943215Y-20684931D01*
X18888351Y-20528139D01*
X18799974Y-20387487D01*
X18799971Y-20387484D01*
X18799970Y-20387482D01*
X18682517Y-20270029D01*
X18682514Y-20270027D01*
X18682513Y-20270026D01*
X18541861Y-20181649D01*
X18541859Y-20181648D01*
X18541857Y-20181647D01*
X18437333Y-20145073D01*
X18385069Y-20126785D01*
X18220000Y-20108186D01*
X18054931Y-20126785D01*
X18054928Y-20126785D01*
X18054928Y-20126786D01*
X17898141Y-20181648D01*
X17898139Y-20181648D01*
X17898139Y-20181649D01*
X17880166Y-20192941D01*
X17844991Y-20215043D01*
X17776669Y-20234347D01*
X17710922Y-20215042D01*
X17658850Y-20182324D01*
X17641861Y-20171649D01*
X17641860Y-20171648D01*
X17513647Y-20126785D01*
X17485069Y-20116785D01*
X17320000Y-20098186D01*
X17154931Y-20116785D01*
X17154928Y-20116785D01*
X17154928Y-20116786D01*
X16998139Y-20171648D01*
X16998136Y-20171650D01*
X16937034Y-20210042D01*
X16868713Y-20229347D01*
X16802966Y-20210042D01*
X16741863Y-20171650D01*
X16741860Y-20171648D01*
X16613647Y-20126785D01*
X16585069Y-20116785D01*
X16420000Y-20098186D01*
X16254931Y-20116785D01*
X16254928Y-20116785D01*
X16254928Y-20116786D01*
X16098139Y-20171648D01*
X16098136Y-20171650D01*
X16037034Y-20210042D01*
X15968713Y-20229347D01*
X15902966Y-20210042D01*
X15841863Y-20171650D01*
X15841862Y-20171649D01*
X15766383Y-20145238D01*
X15708692Y-20103859D01*
X15682529Y-20037859D01*
X15681999Y-20026330D01*
X15681999Y-13050000D01*
X17208186Y-13050000D01*
X17226785Y-13215069D01*
X17226786Y-13215071D01*
X17281647Y-13371857D01*
X17281648Y-13371859D01*
X17281649Y-13371861D01*
X17368145Y-13509519D01*
X17370029Y-13512517D01*
X17487482Y-13629970D01*
X17487484Y-13629971D01*
X17487487Y-13629974D01*
X17628139Y-13718351D01*
X17784931Y-13773215D01*
X17950000Y-13791814D01*
X18115069Y-13773215D01*
X18271861Y-13718351D01*
X18412513Y-13629974D01*
X18529974Y-13512513D01*
X18618351Y-13371861D01*
X18673215Y-13215069D01*
X18691814Y-13050000D01*
X21618186Y-13050000D01*
X21636785Y-13215069D01*
X21636786Y-13215071D01*
X21691647Y-13371857D01*
X21691648Y-13371859D01*
X21691649Y-13371861D01*
X21778145Y-13509519D01*
X21780029Y-13512517D01*
X21897482Y-13629970D01*
X21897484Y-13629971D01*
X21897487Y-13629974D01*
X22038139Y-13718351D01*
X22194931Y-13773215D01*
X22360000Y-13791814D01*
X22525069Y-13773215D01*
X22681861Y-13718351D01*
X22822513Y-13629974D01*
X22939974Y-13512513D01*
X23028351Y-13371861D01*
X23083215Y-13215069D01*
X23101814Y-13050000D01*
X23083215Y-12884931D01*
X23028351Y-12728139D01*
X22939974Y-12587487D01*
X22939971Y-12587484D01*
X22939970Y-12587482D01*
X22822517Y-12470029D01*
X22822514Y-12470027D01*
X22822513Y-12470026D01*
X22681861Y-12381649D01*
X22681859Y-12381648D01*
X22681857Y-12381647D01*
X22571809Y-12343140D01*
X22525069Y-12326785D01*
X22360000Y-12308186D01*
X22194931Y-12326785D01*
X22194928Y-12326785D01*
X22194928Y-12326786D01*
X22038142Y-12381647D01*
X21897482Y-12470029D01*
X21780029Y-12587482D01*
X21691647Y-12728142D01*
X21640285Y-12874928D01*
X21636785Y-12884931D01*
X21618186Y-13050000D01*
X18691814Y-13050000D01*
X18673215Y-12884931D01*
X18618351Y-12728139D01*
X18529974Y-12587487D01*
X18529971Y-12587484D01*
X18529970Y-12587482D01*
X18412517Y-12470029D01*
X18412514Y-12470027D01*
X18412513Y-12470026D01*
X18271861Y-12381649D01*
X18271859Y-12381648D01*
X18271857Y-12381647D01*
X18161809Y-12343140D01*
X18115069Y-12326785D01*
X17950000Y-12308186D01*
X17784931Y-12326785D01*
X17784928Y-12326785D01*
X17784928Y-12326786D01*
X17628142Y-12381647D01*
X17487482Y-12470029D01*
X17370029Y-12587482D01*
X17281647Y-12728142D01*
X17230285Y-12874928D01*
X17226785Y-12884931D01*
X17208186Y-13050000D01*
X15681999Y-13050000D01*
X15681999Y-12140001D01*
X23473065Y-12140001D01*
X23477515Y-12173804D01*
X23477516Y-12173812D01*
X23485789Y-12236654D01*
X23492723Y-12289322D01*
X23550357Y-12428467D01*
X23615339Y-12513152D01*
X23642044Y-12547954D01*
X23668771Y-12568463D01*
X23674963Y-12573893D01*
X23975998Y-12874928D01*
X24136333Y-13035263D01*
X24163030Y-13074677D01*
X24272319Y-13329397D01*
X24286410Y-13358222D01*
X24289278Y-13365086D01*
X24291649Y-13371862D01*
X24380025Y-13512513D01*
X24497482Y-13629970D01*
X24497484Y-13629971D01*
X24497487Y-13629974D01*
X24638139Y-13718351D01*
X24794931Y-13773215D01*
X24960000Y-13791814D01*
X25125069Y-13773215D01*
X25281861Y-13718351D01*
X25422513Y-13629974D01*
X25460904Y-13591583D01*
X25544978Y-13507510D01*
X25546987Y-13509519D01*
X25594571Y-13476104D01*
X25665508Y-13473191D01*
X25724666Y-13507865D01*
X25725022Y-13507510D01*
X25726384Y-13508872D01*
X25726759Y-13509092D01*
X25727765Y-13510253D01*
X25847482Y-13629970D01*
X25847484Y-13629971D01*
X25847487Y-13629974D01*
X25988139Y-13718351D01*
X26144931Y-13773215D01*
X26310000Y-13791814D01*
X26475069Y-13773215D01*
X26631861Y-13718351D01*
X26772513Y-13629974D01*
X26889974Y-13512513D01*
X26978351Y-13371861D01*
X27033215Y-13215069D01*
X27051814Y-13050000D01*
X27033215Y-12884931D01*
X26978351Y-12728139D01*
X26889974Y-12587487D01*
X26889971Y-12587484D01*
X26889970Y-12587482D01*
X26772517Y-12470029D01*
X26772514Y-12470027D01*
X26772513Y-12470026D01*
X26631861Y-12381649D01*
X26619174Y-12377209D01*
X26595138Y-12365825D01*
X26589395Y-12362319D01*
X26589388Y-12362315D01*
X26334678Y-12253031D01*
X26295266Y-12226336D01*
X25618904Y-11549974D01*
X25584879Y-11487662D01*
X25582000Y-11460879D01*
X25582000Y-6629119D01*
X25602002Y-6560998D01*
X25618905Y-6540024D01*
X26535716Y-5623213D01*
X27462035Y-4696893D01*
X27494236Y-4673566D01*
X27749677Y-4544318D01*
X27749029Y-4544674D01*
X27755628Y-4541734D01*
X27755479Y-4541424D01*
X27761850Y-4538354D01*
X27761861Y-4538351D01*
X27769390Y-4533619D01*
X27772561Y-4531756D01*
X27779957Y-4527697D01*
X27781101Y-4526774D01*
X27787124Y-4522476D01*
X27788106Y-4521859D01*
X27902513Y-4449974D01*
X28019974Y-4332513D01*
X28071820Y-4250000D01*
X37408186Y-4250000D01*
X37426785Y-4415069D01*
X37445072Y-4467332D01*
X37481647Y-4571857D01*
X37481648Y-4571859D01*
X37481649Y-4571861D01*
X37563200Y-4701649D01*
X37570029Y-4712517D01*
X37687482Y-4829970D01*
X37687484Y-4829971D01*
X37687487Y-4829974D01*
X37828139Y-4918351D01*
X37984931Y-4973215D01*
X38150000Y-4991814D01*
X38315069Y-4973215D01*
X38471861Y-4918351D01*
X38501067Y-4900000D01*
X39408186Y-4900000D01*
X39426785Y-5065069D01*
X39445072Y-5117332D01*
X39481647Y-5221857D01*
X39481648Y-5221859D01*
X39481649Y-5221861D01*
X39570026Y-5362513D01*
X39570029Y-5362517D01*
X39687482Y-5479970D01*
X39687484Y-5479971D01*
X39687487Y-5479974D01*
X39828139Y-5568351D01*
X39984931Y-5623215D01*
X40150000Y-5641814D01*
X40315069Y-5623215D01*
X40471861Y-5568351D01*
X40612513Y-5479974D01*
X40729974Y-5362513D01*
X40818351Y-5221861D01*
X40873215Y-5065069D01*
X40891814Y-4900000D01*
X40873215Y-4734931D01*
X40818351Y-4578139D01*
X40729974Y-4437487D01*
X40729971Y-4437484D01*
X40729970Y-4437482D01*
X40612517Y-4320029D01*
X40612514Y-4320027D01*
X40612513Y-4320026D01*
X40471861Y-4231649D01*
X40471859Y-4231648D01*
X40471857Y-4231647D01*
X40360117Y-4192548D01*
X40315069Y-4176785D01*
X40150000Y-4158186D01*
X39984931Y-4176785D01*
X39984928Y-4176785D01*
X39984928Y-4176786D01*
X39828142Y-4231647D01*
X39687482Y-4320029D01*
X39570029Y-4437482D01*
X39481647Y-4578142D01*
X39429863Y-4726134D01*
X39426785Y-4734931D01*
X39408186Y-4900000D01*
X38501067Y-4900000D01*
X38612513Y-4829974D01*
X38729974Y-4712513D01*
X38818351Y-4571861D01*
X38873215Y-4415069D01*
X38891814Y-4250000D01*
X38873215Y-4084931D01*
X38818351Y-3928139D01*
X38729974Y-3787487D01*
X38729971Y-3787484D01*
X38729970Y-3787482D01*
X38692488Y-3750000D01*
X41708186Y-3750000D01*
X41726785Y-3915069D01*
X41731669Y-3929026D01*
X41781647Y-4071857D01*
X41781648Y-4071859D01*
X41781649Y-4071861D01*
X41862164Y-4200000D01*
X41870029Y-4212517D01*
X41987482Y-4329970D01*
X41987484Y-4329971D01*
X41987487Y-4329974D01*
X42128139Y-4418351D01*
X42284931Y-4473215D01*
X42450000Y-4491814D01*
X42615069Y-4473215D01*
X42771861Y-4418351D01*
X42912513Y-4329974D01*
X43029974Y-4212513D01*
X43118351Y-4071861D01*
X43173215Y-3915069D01*
X43191814Y-3750000D01*
X43173215Y-3584931D01*
X43118351Y-3428139D01*
X43029974Y-3287487D01*
X43029971Y-3287484D01*
X43029970Y-3287482D01*
X42912517Y-3170029D01*
X42912514Y-3170027D01*
X42912513Y-3170026D01*
X42771861Y-3081649D01*
X42771859Y-3081648D01*
X42771857Y-3081647D01*
X42667333Y-3045073D01*
X42615069Y-3026785D01*
X42450000Y-3008186D01*
X42284931Y-3026785D01*
X42284928Y-3026785D01*
X42284928Y-3026786D01*
X42128142Y-3081647D01*
X41987482Y-3170029D01*
X41870029Y-3287482D01*
X41781647Y-3428142D01*
X41738793Y-3550613D01*
X41726785Y-3584931D01*
X41708186Y-3750000D01*
X38692488Y-3750000D01*
X38612517Y-3670029D01*
X38612514Y-3670027D01*
X38612513Y-3670026D01*
X38471861Y-3581649D01*
X38471859Y-3581648D01*
X38471857Y-3581647D01*
X38328969Y-3531649D01*
X38315069Y-3526785D01*
X38150000Y-3508186D01*
X37984931Y-3526785D01*
X37984928Y-3526785D01*
X37984928Y-3526786D01*
X37828142Y-3581647D01*
X37687482Y-3670029D01*
X37570029Y-3787482D01*
X37481647Y-3928142D01*
X37440237Y-4046487D01*
X37426785Y-4084931D01*
X37408186Y-4250000D01*
X28071820Y-4250000D01*
X28108351Y-4191861D01*
X28163215Y-4035069D01*
X28181814Y-3870000D01*
X28163215Y-3704931D01*
X28108351Y-3548139D01*
X28019974Y-3407487D01*
X28019971Y-3407484D01*
X28019970Y-3407482D01*
X27902517Y-3290029D01*
X27902514Y-3290027D01*
X27902513Y-3290026D01*
X27761861Y-3201649D01*
X27761859Y-3201648D01*
X27761857Y-3201647D01*
X27647542Y-3161647D01*
X27605069Y-3146785D01*
X27440000Y-3128186D01*
X27274931Y-3146785D01*
X27274928Y-3146785D01*
X27274928Y-3146786D01*
X27118142Y-3201647D01*
X26977482Y-3290029D01*
X26860025Y-3407486D01*
X26771649Y-3548136D01*
X26771646Y-3548143D01*
X26756333Y-3591905D01*
X26752806Y-3600081D01*
X26739768Y-3625251D01*
X26739762Y-3625265D01*
X26655172Y-3868138D01*
X26625278Y-3915790D01*
X24837095Y-5703974D01*
X24774783Y-5737999D01*
X24703968Y-5732935D01*
X24647132Y-5690388D01*
X24622321Y-5623868D01*
X24622000Y-5614879D01*
X24622000Y-5260096D01*
X24642002Y-5191975D01*
X24680962Y-5153410D01*
X24783513Y-5088974D01*
X24900974Y-4971513D01*
X24989351Y-4830861D01*
X25044215Y-4674069D01*
X25062814Y-4509000D01*
X25044215Y-4343931D01*
X24989351Y-4187139D01*
X24900974Y-4046487D01*
X24900971Y-4046484D01*
X24900970Y-4046482D01*
X24783517Y-3929029D01*
X24783514Y-3929027D01*
X24783513Y-3929026D01*
X24642861Y-3840649D01*
X24642859Y-3840648D01*
X24642857Y-3840647D01*
X24538333Y-3804073D01*
X24486069Y-3785785D01*
X24321000Y-3767186D01*
X24155931Y-3785785D01*
X24155928Y-3785785D01*
X24155928Y-3785786D01*
X23999142Y-3840647D01*
X23858482Y-3929029D01*
X23741025Y-4046486D01*
X23652648Y-4187138D01*
X23652648Y-4187139D01*
X23627714Y-4258393D01*
X23625765Y-4263295D01*
X23612330Y-4293352D01*
X23612328Y-4293357D01*
X23599004Y-4340113D01*
X23597885Y-4343643D01*
X23597787Y-4343921D01*
X23597622Y-4344646D01*
X23596794Y-4347869D01*
X23565485Y-4457744D01*
X23553430Y-4486211D01*
X23550361Y-4491526D01*
X23492722Y-4630679D01*
X23488531Y-4662517D01*
X23478000Y-4742508D01*
X23478000Y-4742513D01*
X23477864Y-4743549D01*
X23473065Y-4780000D01*
X23477460Y-4813386D01*
X23478000Y-4821618D01*
X23478000Y-12098381D01*
X23477460Y-12106612D01*
X23473065Y-12139998D01*
X23473065Y-12140001D01*
X15681999Y-12140001D01*
X15681999Y-7501621D01*
X15682539Y-7493388D01*
X15685416Y-7471533D01*
X15686935Y-7460000D01*
X15683351Y-7432784D01*
X15683351Y-7432775D01*
X15681999Y-7422509D01*
X15682000Y-7422508D01*
X15667277Y-7310678D01*
X15609641Y-7171532D01*
X15566315Y-7115069D01*
X15540976Y-7082046D01*
X15540974Y-7082044D01*
X15538465Y-7078774D01*
X15538465Y-7078773D01*
X15517956Y-7052046D01*
X15517955Y-7052045D01*
X15491227Y-7031536D01*
X15485037Y-7026107D01*
X12758930Y-4300000D01*
X15808186Y-4300000D01*
X15826785Y-4465069D01*
X15836485Y-4492790D01*
X15881647Y-4621857D01*
X15881648Y-4621859D01*
X15881649Y-4621861D01*
X15969587Y-4761814D01*
X15970029Y-4762517D01*
X16087482Y-4879970D01*
X16087484Y-4879971D01*
X16087487Y-4879974D01*
X16228139Y-4968351D01*
X16384931Y-5023215D01*
X16550000Y-5041814D01*
X16715069Y-5023215D01*
X16871861Y-4968351D01*
X17012513Y-4879974D01*
X17062487Y-4830000D01*
X17798186Y-4830000D01*
X17816785Y-4995069D01*
X17816786Y-4995071D01*
X17871647Y-5151857D01*
X17871648Y-5151859D01*
X17871649Y-5151861D01*
X17960026Y-5292513D01*
X17960029Y-5292517D01*
X18077482Y-5409970D01*
X18077484Y-5409971D01*
X18077487Y-5409974D01*
X18218139Y-5498351D01*
X18374931Y-5553215D01*
X18540000Y-5571814D01*
X18705069Y-5553215D01*
X18861861Y-5498351D01*
X19002513Y-5409974D01*
X19119974Y-5292513D01*
X19208351Y-5151861D01*
X19263215Y-4995069D01*
X19281814Y-4830000D01*
X19263215Y-4664931D01*
X19208351Y-4508139D01*
X19119974Y-4367487D01*
X19119971Y-4367484D01*
X19119970Y-4367482D01*
X19002516Y-4250028D01*
X19002471Y-4250000D01*
X18995670Y-4245726D01*
X18948634Y-4192548D01*
X18937814Y-4122381D01*
X18966647Y-4057502D01*
X19021088Y-4020113D01*
X19078569Y-4000000D01*
X21558186Y-4000000D01*
X21576785Y-4165069D01*
X21583784Y-4185071D01*
X21631647Y-4321857D01*
X21631648Y-4321859D01*
X21631649Y-4321861D01*
X21720026Y-4462513D01*
X21720029Y-4462517D01*
X21837482Y-4579970D01*
X21837484Y-4579971D01*
X21837487Y-4579974D01*
X21978139Y-4668351D01*
X22134931Y-4723215D01*
X22300000Y-4741814D01*
X22465069Y-4723215D01*
X22621861Y-4668351D01*
X22762513Y-4579974D01*
X22879974Y-4462513D01*
X22968351Y-4321861D01*
X23023215Y-4165069D01*
X23041814Y-4000000D01*
X23023215Y-3834931D01*
X23021480Y-3829974D01*
X22968352Y-3678142D01*
X22968351Y-3678139D01*
X22879974Y-3537487D01*
X22879971Y-3537484D01*
X22879970Y-3537482D01*
X22762517Y-3420029D01*
X22762514Y-3420027D01*
X22762513Y-3420026D01*
X22621861Y-3331649D01*
X22621859Y-3331648D01*
X22621857Y-3331647D01*
X22502918Y-3290029D01*
X22465069Y-3276785D01*
X22300000Y-3258186D01*
X22134931Y-3276785D01*
X22134928Y-3276785D01*
X22134928Y-3276786D01*
X21978142Y-3331647D01*
X21837482Y-3420029D01*
X21720029Y-3537482D01*
X21631647Y-3678142D01*
X21576786Y-3834927D01*
X21576785Y-3834931D01*
X21558186Y-4000000D01*
X19078569Y-4000000D01*
X19111861Y-3988351D01*
X19252513Y-3899974D01*
X19369974Y-3782513D01*
X19458351Y-3641861D01*
X19513215Y-3485069D01*
X19531814Y-3320000D01*
X19513215Y-3154931D01*
X19458351Y-2998139D01*
X19369974Y-2857487D01*
X19369971Y-2857484D01*
X19369970Y-2857482D01*
X19252517Y-2740029D01*
X19252514Y-2740027D01*
X19252513Y-2740026D01*
X19111861Y-2651649D01*
X19111859Y-2651648D01*
X19111857Y-2651647D01*
X19007333Y-2615073D01*
X18955069Y-2596785D01*
X18790000Y-2578186D01*
X18624931Y-2596785D01*
X18624928Y-2596785D01*
X18624928Y-2596786D01*
X18468142Y-2651647D01*
X18327482Y-2740029D01*
X18210029Y-2857482D01*
X18121647Y-2998142D01*
X18076634Y-3126785D01*
X18066785Y-3154931D01*
X18048186Y-3320000D01*
X18066785Y-3485069D01*
X18066786Y-3485071D01*
X18121647Y-3641857D01*
X18121648Y-3641859D01*
X18121649Y-3641861D01*
X18210026Y-3782513D01*
X18210029Y-3782517D01*
X18327484Y-3899972D01*
X18334326Y-3904271D01*
X18381364Y-3957449D01*
X18392185Y-4027616D01*
X18363353Y-4092495D01*
X18308906Y-4129888D01*
X18218142Y-4161647D01*
X18077482Y-4250029D01*
X17960029Y-4367482D01*
X17871647Y-4508142D01*
X17823134Y-4646786D01*
X17816785Y-4664931D01*
X17798186Y-4830000D01*
X17062487Y-4830000D01*
X17129974Y-4762513D01*
X17218351Y-4621861D01*
X17273215Y-4465069D01*
X17291814Y-4300000D01*
X17273215Y-4134931D01*
X17218351Y-3978139D01*
X17129974Y-3837487D01*
X17129971Y-3837484D01*
X17129970Y-3837482D01*
X17012517Y-3720029D01*
X17012514Y-3720027D01*
X17012513Y-3720026D01*
X16871861Y-3631649D01*
X16871859Y-3631648D01*
X16871857Y-3631647D01*
X16758279Y-3591905D01*
X16715069Y-3576785D01*
X16550000Y-3558186D01*
X16384931Y-3576785D01*
X16384928Y-3576785D01*
X16384928Y-3576786D01*
X16228142Y-3631647D01*
X16087482Y-3720029D01*
X15970029Y-3837482D01*
X15881647Y-3978142D01*
X15841634Y-4092495D01*
X15826785Y-4134931D01*
X15808186Y-4300000D01*
X12758930Y-4300000D01*
X12303664Y-3844734D01*
X12276967Y-3805319D01*
X12167686Y-3550613D01*
X12167685Y-3550613D01*
X12167681Y-3550604D01*
X12153585Y-3521769D01*
X12150715Y-3514897D01*
X12148367Y-3508186D01*
X12148351Y-3508139D01*
X12148348Y-3508134D01*
X12059974Y-3367486D01*
X11942517Y-3250029D01*
X11942514Y-3250027D01*
X11942513Y-3250026D01*
X11801861Y-3161649D01*
X11801859Y-3161648D01*
X11801857Y-3161647D01*
X11697333Y-3125073D01*
X11645069Y-3106785D01*
X11480000Y-3088186D01*
X11314931Y-3106785D01*
X11314928Y-3106785D01*
X11314928Y-3106786D01*
X11158142Y-3161647D01*
X11017480Y-3250030D01*
X11011954Y-3254438D01*
X11010777Y-3252963D01*
X10956764Y-3282446D01*
X10885949Y-3277371D01*
X10840902Y-3248415D01*
X10832513Y-3240026D01*
X10691861Y-3151649D01*
X10691859Y-3151648D01*
X10691857Y-3151647D01*
X10563647Y-3106785D01*
X10535069Y-3096785D01*
X10370000Y-3078186D01*
X10204931Y-3096785D01*
X10204928Y-3096785D01*
X10204928Y-3096786D01*
X10048142Y-3151647D01*
X9907482Y-3240029D01*
X9785022Y-3362490D01*
X9783990Y-3361458D01*
X9732388Y-3397675D01*
X9661451Y-3400567D01*
X9624960Y-3385013D01*
X9597067Y-3367487D01*
X9571861Y-3351649D01*
X9571860Y-3351648D01*
X9571859Y-3351648D01*
X9493465Y-3324217D01*
X9415069Y-3296785D01*
X9250000Y-3278186D01*
X9084931Y-3296785D01*
X9084928Y-3296785D01*
X9084928Y-3296786D01*
X8928142Y-3351647D01*
X8787482Y-3440029D01*
X8670029Y-3557482D01*
X8581647Y-3698142D01*
X8535519Y-3829970D01*
X8526785Y-3854931D01*
X8508186Y-4020000D01*
X8526785Y-4185069D01*
X8543083Y-4231647D01*
X8581647Y-4341857D01*
X8581648Y-4341859D01*
X8581649Y-4341861D01*
X8668530Y-4480132D01*
X8670029Y-4482517D01*
X8787482Y-4599970D01*
X8787484Y-4599971D01*
X8787487Y-4599974D01*
X8928139Y-4688351D01*
X9084931Y-4743215D01*
X9250000Y-4761814D01*
X9415069Y-4743215D01*
X9571861Y-4688351D01*
X9712513Y-4599974D01*
X9772870Y-4539617D01*
X9834978Y-4477510D01*
X9836012Y-4478544D01*
X9887584Y-4442333D01*
X9958521Y-4439425D01*
X9995035Y-4454984D01*
X10048139Y-4488351D01*
X10060827Y-4492790D01*
X10084865Y-4504176D01*
X10090602Y-4507679D01*
X10090607Y-4507681D01*
X10090605Y-4507681D01*
X10243343Y-4573213D01*
X10345320Y-4616966D01*
X10384733Y-4643663D01*
X13901095Y-8160024D01*
X13935121Y-8222336D01*
X13938000Y-8249119D01*
X13938000Y-12240213D01*
X13917998Y-12308334D01*
X13864342Y-12354827D01*
X13794068Y-12364931D01*
X13770387Y-12359143D01*
X13751983Y-12352703D01*
X13735069Y-12346785D01*
X13570000Y-12328186D01*
X13404931Y-12346785D01*
X13404928Y-12346785D01*
X13404928Y-12346786D01*
X13248140Y-12401648D01*
X13170907Y-12450176D01*
X13102585Y-12469481D01*
X13036837Y-12450176D01*
X12927774Y-12381648D01*
X12911861Y-12371649D01*
X12911860Y-12371648D01*
X12911859Y-12371648D01*
X12783647Y-12326785D01*
X12755069Y-12316785D01*
X12590000Y-12298186D01*
X12424931Y-12316785D01*
X12424928Y-12316785D01*
X12424928Y-12316786D01*
X12268142Y-12371647D01*
X12127482Y-12460029D01*
X12010029Y-12577482D01*
X11921647Y-12718142D01*
X11866786Y-12874928D01*
X11866785Y-12874931D01*
X11848186Y-13040000D01*
X11866785Y-13205069D01*
X11866786Y-13205071D01*
X11921647Y-13361857D01*
X11921648Y-13361859D01*
X11921649Y-13361861D01*
X12006283Y-13496556D01*
X12010029Y-13502517D01*
X12127482Y-13619970D01*
X12127484Y-13619971D01*
X12127487Y-13619974D01*
X12268139Y-13708351D01*
X12424931Y-13763215D01*
X12590000Y-13781814D01*
X12755069Y-13763215D01*
X12911861Y-13708351D01*
X12989092Y-13659823D01*
X13057412Y-13640518D01*
X13123163Y-13659824D01*
X13248139Y-13738351D01*
X13404931Y-13793215D01*
X13570000Y-13811814D01*
X13735069Y-13793215D01*
X13770386Y-13780856D01*
X13841288Y-13777237D01*
X13902894Y-13812526D01*
X13935641Y-13875519D01*
X13938000Y-13899786D01*
X13938000Y-19760878D01*
X13917998Y-19828999D01*
X13901095Y-19849973D01*
X13782495Y-19968573D01*
X13720183Y-20002599D01*
X13709847Y-20004400D01*
X13570679Y-20022722D01*
X13431533Y-20080358D01*
X13431525Y-20080363D01*
X13312049Y-20172041D01*
X13312046Y-20172044D01*
X13227780Y-20281856D01*
X13222378Y-20288021D01*
X13203206Y-20307224D01*
X13203203Y-20307227D01*
X13167109Y-20347389D01*
X13164349Y-20351139D01*
X13151975Y-20365537D01*
X13140026Y-20377487D01*
X13121204Y-20407442D01*
X13051647Y-20518142D01*
X13041150Y-20548142D01*
X12996785Y-20674931D01*
X12978186Y-20840000D01*
X12996785Y-21005069D01*
X13007283Y-21035071D01*
X13051647Y-21161857D01*
X13051648Y-21161859D01*
X13051649Y-21161861D01*
X13140026Y-21302513D01*
X13140029Y-21302517D01*
X13257482Y-21419970D01*
X13257484Y-21419971D01*
X13257487Y-21419974D01*
X13398139Y-21508351D01*
X13554931Y-21563215D01*
X13684021Y-21577760D01*
X13749471Y-21605263D01*
X13789664Y-21663787D01*
X13791837Y-21734750D01*
X13759006Y-21792062D01*
X12664971Y-22886098D01*
X12658770Y-22891536D01*
X12632049Y-22912040D01*
X12632044Y-22912046D01*
X12540363Y-23031525D01*
X12540358Y-23031533D01*
X12482722Y-23170679D01*
X12475012Y-23229240D01*
X12468000Y-23282508D01*
X12468000Y-23282513D01*
X12468000Y-23282514D01*
X12463065Y-23319999D01*
X12463065Y-23320000D01*
X12467460Y-23353386D01*
X12468000Y-23361618D01*
X12468000Y-43730711D01*
X12447998Y-43798832D01*
X12394342Y-43845325D01*
X12324068Y-43855429D01*
X12300385Y-43849640D01*
X12283919Y-43843878D01*
X12235069Y-43826785D01*
X12070000Y-43808186D01*
X11904931Y-43826785D01*
X11904928Y-43826785D01*
X11904928Y-43826786D01*
X11748142Y-43881647D01*
X11607482Y-43970029D01*
X11490029Y-44087482D01*
X11401647Y-44228142D01*
X11353784Y-44364928D01*
X11346785Y-44384931D01*
X11328186Y-44550000D01*
X11346785Y-44715069D01*
X11346786Y-44715071D01*
X11401647Y-44871857D01*
X11401648Y-44871859D01*
X11401649Y-44871861D01*
X11477462Y-44992517D01*
X11490029Y-45012517D01*
X11607482Y-45129970D01*
X11607484Y-45129971D01*
X11607487Y-45129974D01*
X11748139Y-45218351D01*
X11904931Y-45273215D01*
X12070000Y-45291814D01*
X12235069Y-45273215D01*
X12300388Y-45250358D01*
X12371288Y-45246739D01*
X12432893Y-45282028D01*
X12465641Y-45345021D01*
X12468000Y-45369288D01*
X12468000Y-51224707D01*
X12447998Y-51292828D01*
X12394342Y-51339321D01*
X12324068Y-51349425D01*
X12300386Y-51343637D01*
X12195069Y-51306785D01*
X12030000Y-51288186D01*
X11864931Y-51306785D01*
X11864928Y-51306785D01*
X11864928Y-51306786D01*
X11708142Y-51361647D01*
X11567482Y-51450029D01*
X11450029Y-51567482D01*
X11361647Y-51708142D01*
X11318431Y-51831649D01*
X11306785Y-51864931D01*
X11288186Y-52030000D01*
X11306785Y-52195069D01*
X11306786Y-52195071D01*
X11361647Y-52351857D01*
X11361648Y-52351859D01*
X11361649Y-52351861D01*
X11450026Y-52492513D01*
X11450029Y-52492517D01*
X11567482Y-52609970D01*
X11567484Y-52609971D01*
X11567487Y-52609974D01*
X11708139Y-52698351D01*
X11864931Y-52753215D01*
X12030000Y-52771814D01*
X12099593Y-52763972D01*
X12169522Y-52776221D01*
X12221731Y-52824333D01*
X12239640Y-52893034D01*
X12217564Y-52960511D01*
X12202794Y-52978275D01*
X11909973Y-53271096D01*
X11847663Y-53305120D01*
X11820880Y-53308000D01*
X7861626Y-53308000D01*
X7853394Y-53307460D01*
X7820001Y-53303064D01*
X7820000Y-53303064D01*
X7670679Y-53322722D01*
X7531533Y-53380358D01*
X7531529Y-53380361D01*
X7449617Y-53443215D01*
X7412046Y-53472044D01*
X7412040Y-53472049D01*
X7391536Y-53498770D01*
X7386098Y-53504971D01*
X6814736Y-54076332D01*
X6775323Y-54103029D01*
X6520592Y-54212324D01*
X6520590Y-54212325D01*
X6491779Y-54226409D01*
X6484925Y-54229272D01*
X6478147Y-54231644D01*
X6478134Y-54231650D01*
X6337486Y-54320025D01*
X6220029Y-54437482D01*
X6131647Y-54578142D01*
X6098364Y-54673261D01*
X6076785Y-54734931D01*
X6058186Y-54900000D01*
X4302487Y-54900000D01*
X4409974Y-54792513D01*
X4498351Y-54651861D01*
X4553215Y-54495069D01*
X4571814Y-54330000D01*
X4553215Y-54164931D01*
X4498351Y-54008139D01*
X4409974Y-53867487D01*
X4409971Y-53867484D01*
X4409970Y-53867482D01*
X4292517Y-53750029D01*
X4292514Y-53750027D01*
X4292513Y-53750026D01*
X4151861Y-53661649D01*
X4151859Y-53661648D01*
X4151857Y-53661647D01*
X4047333Y-53625072D01*
X3995069Y-53606785D01*
X3830000Y-53588186D01*
X3664931Y-53606785D01*
X3664928Y-53606785D01*
X3664928Y-53606786D01*
X3508142Y-53661647D01*
X3367482Y-53750029D01*
X3250029Y-53867482D01*
X3161647Y-54008142D01*
X3121382Y-54123215D01*
X3106785Y-54164931D01*
X3088186Y-54330000D01*
X381499Y-54330000D01*
X381499Y-53772000D01*
X381499Y-52509936D01*
X401501Y-52441819D01*
X455157Y-52395326D01*
X525431Y-52385222D01*
X574532Y-52403251D01*
X678139Y-52468351D01*
X834931Y-52523215D01*
X1000000Y-52541814D01*
X1165069Y-52523215D01*
X1283386Y-52481813D01*
X1354289Y-52478194D01*
X1366608Y-52481812D01*
X1484931Y-52523215D01*
X1650000Y-52541814D01*
X1815069Y-52523215D01*
X1971861Y-52468351D01*
X2112513Y-52379974D01*
X2172088Y-52320398D01*
X2234398Y-52286375D01*
X2305214Y-52291439D01*
X2362050Y-52333985D01*
X2386861Y-52400505D01*
X2380112Y-52451109D01*
X2336785Y-52574930D01*
X2322652Y-52700363D01*
X2318186Y-52740000D01*
X2336785Y-52905069D01*
X2336786Y-52905071D01*
X2391647Y-53061857D01*
X2391648Y-53061859D01*
X2391649Y-53061861D01*
X2467462Y-53182517D01*
X2480029Y-53202517D01*
X2597482Y-53319970D01*
X2597484Y-53319971D01*
X2597487Y-53319974D01*
X2738139Y-53408351D01*
X2894931Y-53463215D01*
X3060000Y-53481814D01*
X3225069Y-53463215D01*
X3381861Y-53408351D01*
X3506557Y-53330000D01*
X5278186Y-53330000D01*
X5296785Y-53495069D01*
X5303784Y-53515071D01*
X5351647Y-53651857D01*
X5351648Y-53651859D01*
X5351649Y-53651861D01*
X5439705Y-53792002D01*
X5440029Y-53792517D01*
X5557482Y-53909970D01*
X5557484Y-53909971D01*
X5557487Y-53909974D01*
X5698139Y-53998351D01*
X5854931Y-54053215D01*
X6020000Y-54071814D01*
X6185069Y-54053215D01*
X6341861Y-53998351D01*
X6482513Y-53909974D01*
X6599974Y-53792513D01*
X6688351Y-53651861D01*
X6743215Y-53495069D01*
X6761814Y-53330000D01*
X6743215Y-53164931D01*
X6688351Y-53008139D01*
X6599974Y-52867487D01*
X6599971Y-52867484D01*
X6599970Y-52867482D01*
X6482517Y-52750029D01*
X6482514Y-52750027D01*
X6482513Y-52750026D01*
X6341861Y-52661649D01*
X6341859Y-52661648D01*
X6341857Y-52661647D01*
X6231594Y-52623065D01*
X6185069Y-52606785D01*
X6020000Y-52588186D01*
X5854931Y-52606785D01*
X5854928Y-52606785D01*
X5854928Y-52606786D01*
X5698142Y-52661647D01*
X5557482Y-52750029D01*
X5440029Y-52867482D01*
X5351647Y-53008142D01*
X5311040Y-53124193D01*
X5296785Y-53164931D01*
X5278186Y-53330000D01*
X3506557Y-53330000D01*
X3522513Y-53319974D01*
X3639974Y-53202513D01*
X3728351Y-53061861D01*
X3783215Y-52905069D01*
X3801814Y-52740000D01*
X3783215Y-52574931D01*
X3728351Y-52418139D01*
X3639974Y-52277487D01*
X3639971Y-52277484D01*
X3639970Y-52277482D01*
X3522517Y-52160029D01*
X3522514Y-52160027D01*
X3522513Y-52160026D01*
X3381861Y-52071649D01*
X3381859Y-52071648D01*
X3381857Y-52071647D01*
X3262835Y-52030000D01*
X3225069Y-52016785D01*
X3060000Y-51998186D01*
X2894931Y-52016785D01*
X2894928Y-52016785D01*
X2894928Y-52016786D01*
X2738142Y-52071647D01*
X2597485Y-52160027D01*
X2537912Y-52219600D01*
X2475599Y-52253625D01*
X2404784Y-52248559D01*
X2347948Y-52206012D01*
X2323138Y-52139492D01*
X2329887Y-52088891D01*
X2373215Y-51965069D01*
X2391814Y-51800000D01*
X2373215Y-51634931D01*
X2318351Y-51478139D01*
X2229974Y-51337487D01*
X2229972Y-51337485D01*
X2229969Y-51337480D01*
X2225562Y-51331954D01*
X2227041Y-51330773D01*
X2197560Y-51276801D01*
X2202615Y-51205985D01*
X2226510Y-51168802D01*
X2225562Y-51168046D01*
X2229969Y-51162519D01*
X2229970Y-51162516D01*
X2229974Y-51162513D01*
X2318351Y-51021861D01*
X2373215Y-50865069D01*
X2391814Y-50700000D01*
X2373215Y-50534931D01*
X2318351Y-50378139D01*
X2229974Y-50237487D01*
X2229971Y-50237484D01*
X2229970Y-50237482D01*
X2112517Y-50120029D01*
X2112514Y-50120027D01*
X2112513Y-50120026D01*
X1971861Y-50031649D01*
X1971859Y-50031648D01*
X1971857Y-50031647D01*
X1853004Y-49990059D01*
X1815069Y-49976785D01*
X1650000Y-49958186D01*
X1484931Y-49976785D01*
X1484928Y-49976785D01*
X1484927Y-49976786D01*
X1366615Y-50018185D01*
X1295710Y-50021804D01*
X1283385Y-50018185D01*
X1202876Y-49990014D01*
X1165069Y-49976785D01*
X1000000Y-49958186D01*
X834931Y-49976785D01*
X834928Y-49976785D01*
X834928Y-49976786D01*
X678140Y-50031648D01*
X574534Y-50096747D01*
X506212Y-50116052D01*
X438299Y-50095356D01*
X392357Y-50041228D01*
X381500Y-49990063D01*
X381500Y-44550000D01*
X4728186Y-44550000D01*
X4746785Y-44715069D01*
X4746786Y-44715071D01*
X4801647Y-44871857D01*
X4801648Y-44871859D01*
X4801649Y-44871861D01*
X4877462Y-44992517D01*
X4890029Y-45012517D01*
X5007482Y-45129970D01*
X5007484Y-45129971D01*
X5007487Y-45129974D01*
X5148139Y-45218351D01*
X5304931Y-45273215D01*
X5470000Y-45291814D01*
X5635069Y-45273215D01*
X5791861Y-45218351D01*
X5932513Y-45129974D01*
X5952517Y-45109970D01*
X6040905Y-45021583D01*
X6103217Y-44987557D01*
X6174032Y-44992622D01*
X6219095Y-45021583D01*
X6327482Y-45129970D01*
X6327484Y-45129971D01*
X6327487Y-45129974D01*
X6468139Y-45218351D01*
X6624931Y-45273215D01*
X6790000Y-45291814D01*
X6955069Y-45273215D01*
X7111861Y-45218351D01*
X7252513Y-45129974D01*
X7369974Y-45012513D01*
X7458351Y-44871861D01*
X7513215Y-44715069D01*
X7531814Y-44550000D01*
X7513215Y-44384931D01*
X7458351Y-44228139D01*
X7369974Y-44087487D01*
X7369971Y-44087484D01*
X7369970Y-44087482D01*
X7252517Y-43970029D01*
X7252514Y-43970027D01*
X7252513Y-43970026D01*
X7111861Y-43881649D01*
X7111859Y-43881648D01*
X7111857Y-43881647D01*
X7007332Y-43845072D01*
X6955069Y-43826785D01*
X6790000Y-43808186D01*
X6624931Y-43826785D01*
X6624928Y-43826785D01*
X6624928Y-43826786D01*
X6468142Y-43881647D01*
X6327482Y-43970029D01*
X6219095Y-44078417D01*
X6156783Y-44112443D01*
X6085968Y-44107378D01*
X6040905Y-44078417D01*
X5932517Y-43970029D01*
X5932514Y-43970027D01*
X5932513Y-43970026D01*
X5791861Y-43881649D01*
X5791859Y-43881648D01*
X5791857Y-43881647D01*
X5687332Y-43845072D01*
X5635069Y-43826785D01*
X5470000Y-43808186D01*
X5304931Y-43826785D01*
X5304928Y-43826785D01*
X5304928Y-43826786D01*
X5148142Y-43881647D01*
X5007482Y-43970029D01*
X4890029Y-44087482D01*
X4801647Y-44228142D01*
X4753784Y-44364928D01*
X4746785Y-44384931D01*
X4728186Y-44550000D01*
X381500Y-44550000D01*
X381500Y-36770000D01*
X5068186Y-36770000D01*
X5086785Y-36935069D01*
X5086786Y-36935071D01*
X5141647Y-37091857D01*
X5141648Y-37091859D01*
X5141649Y-37091861D01*
X5230026Y-37232513D01*
X5230029Y-37232517D01*
X5347482Y-37349970D01*
X5347484Y-37349971D01*
X5347487Y-37349974D01*
X5488139Y-37438351D01*
X5644931Y-37493215D01*
X5810000Y-37511814D01*
X5975069Y-37493215D01*
X6131861Y-37438351D01*
X6272513Y-37349974D01*
X6389974Y-37232513D01*
X6478351Y-37091861D01*
X6533215Y-36935069D01*
X6551814Y-36770000D01*
X6533215Y-36604931D01*
X6478351Y-36448139D01*
X6389974Y-36307487D01*
X6389971Y-36307484D01*
X6389970Y-36307482D01*
X6272517Y-36190029D01*
X6272514Y-36190027D01*
X6272513Y-36190026D01*
X6131861Y-36101649D01*
X6131859Y-36101648D01*
X6131857Y-36101647D01*
X5990901Y-36052325D01*
X5975069Y-36046785D01*
X5810000Y-36028186D01*
X5644931Y-36046785D01*
X5644928Y-36046785D01*
X5644928Y-36046786D01*
X5488142Y-36101647D01*
X5347482Y-36190029D01*
X5230029Y-36307482D01*
X5141647Y-36448142D01*
X5097282Y-36574931D01*
X5086785Y-36604931D01*
X5073761Y-36720519D01*
X5069722Y-36756372D01*
X5068186Y-36770000D01*
X381500Y-36770000D01*
X381500Y-29200000D01*
X5688186Y-29200000D01*
X5706785Y-29365069D01*
X5725073Y-29417333D01*
X5761647Y-29521857D01*
X5761648Y-29521859D01*
X5761649Y-29521861D01*
X5849587Y-29661814D01*
X5850029Y-29662517D01*
X5967482Y-29779970D01*
X5967484Y-29779971D01*
X5967487Y-29779974D01*
X6108139Y-29868351D01*
X6264931Y-29923215D01*
X6430000Y-29941814D01*
X6595069Y-29923215D01*
X6751861Y-29868351D01*
X6892513Y-29779974D01*
X7009974Y-29662513D01*
X7045371Y-29606177D01*
X7098550Y-29559140D01*
X7168717Y-29548319D01*
X7193668Y-29554282D01*
X7304931Y-29593215D01*
X7470000Y-29611814D01*
X7635069Y-29593215D01*
X7791861Y-29538351D01*
X7932513Y-29449974D01*
X8049974Y-29332513D01*
X8138351Y-29191861D01*
X8138354Y-29191850D01*
X8141423Y-29185481D01*
X8142555Y-29186026D01*
X8179704Y-29134224D01*
X8245703Y-29108056D01*
X8287668Y-29113219D01*
X8288029Y-29111639D01*
X8294922Y-29113212D01*
X8294931Y-29113215D01*
X8460000Y-29131814D01*
X8625069Y-29113215D01*
X8779306Y-29059244D01*
X8850209Y-29055625D01*
X8862535Y-29059245D01*
X8900935Y-29072681D01*
X9016773Y-29113215D01*
X9181842Y-29131814D01*
X9346911Y-29113215D01*
X9503703Y-29058351D01*
X9644355Y-28969974D01*
X9761816Y-28852513D01*
X9850193Y-28711861D01*
X9905057Y-28555069D01*
X9923656Y-28390000D01*
X9905057Y-28224931D01*
X9850193Y-28068139D01*
X9761816Y-27927487D01*
X9761813Y-27927484D01*
X9761812Y-27927482D01*
X9644359Y-27810029D01*
X9644356Y-27810027D01*
X9644355Y-27810026D01*
X9503703Y-27721649D01*
X9503701Y-27721648D01*
X9503699Y-27721647D01*
X9399175Y-27685073D01*
X9346911Y-27666785D01*
X9181842Y-27648186D01*
X9016772Y-27666785D01*
X8862534Y-27720755D01*
X8791630Y-27724373D01*
X8779305Y-27720754D01*
X8675648Y-27684483D01*
X8625069Y-27666785D01*
X8460000Y-27648186D01*
X8294931Y-27666785D01*
X8294928Y-27666785D01*
X8294928Y-27666786D01*
X8138142Y-27721647D01*
X7997482Y-27810029D01*
X7880029Y-27927482D01*
X7791645Y-28068145D01*
X7788579Y-28074514D01*
X7787450Y-28073970D01*
X7750282Y-28125785D01*
X7684281Y-28151944D01*
X7642326Y-28146788D01*
X7641968Y-28148360D01*
X7635072Y-28146786D01*
X7635071Y-28146785D01*
X7635069Y-28146785D01*
X7470000Y-28128186D01*
X7304931Y-28146785D01*
X7304927Y-28146786D01*
X7297900Y-28147578D01*
X7297624Y-28145131D01*
X7238213Y-28141467D01*
X7180964Y-28099479D01*
X7174401Y-28090022D01*
X7109974Y-27987486D01*
X6992517Y-27870029D01*
X6992514Y-27870027D01*
X6992513Y-27870026D01*
X6851861Y-27781649D01*
X6851859Y-27781648D01*
X6851857Y-27781647D01*
X6747332Y-27745072D01*
X6695069Y-27726785D01*
X6530000Y-27708186D01*
X6364931Y-27726785D01*
X6364928Y-27726785D01*
X6364928Y-27726786D01*
X6208142Y-27781647D01*
X6067482Y-27870029D01*
X5950029Y-27987482D01*
X5861647Y-28128142D01*
X5815271Y-28260679D01*
X5806785Y-28284931D01*
X5788186Y-28450000D01*
X5806785Y-28615069D01*
X5822961Y-28661299D01*
X5829725Y-28680628D01*
X5833343Y-28751532D01*
X5817483Y-28789276D01*
X5761650Y-28878136D01*
X5761648Y-28878139D01*
X5707178Y-29033808D01*
X5706785Y-29034931D01*
X5688186Y-29200000D01*
X381500Y-29200000D01*
X381500Y-20840000D01*
X7068186Y-20840000D01*
X7086785Y-21005069D01*
X7097283Y-21035071D01*
X7141647Y-21161857D01*
X7141648Y-21161859D01*
X7141649Y-21161861D01*
X7230026Y-21302513D01*
X7230029Y-21302517D01*
X7347482Y-21419970D01*
X7347484Y-21419971D01*
X7347487Y-21419974D01*
X7488139Y-21508351D01*
X7644931Y-21563215D01*
X7810000Y-21581814D01*
X7975069Y-21563215D01*
X8131861Y-21508351D01*
X8262963Y-21425974D01*
X8331286Y-21406668D01*
X8397036Y-21425974D01*
X8528139Y-21508351D01*
X8684931Y-21563215D01*
X8850000Y-21581814D01*
X9015069Y-21563215D01*
X9171861Y-21508351D01*
X9312513Y-21419974D01*
X9429974Y-21302513D01*
X9518351Y-21161861D01*
X9573215Y-21005069D01*
X9591814Y-20840000D01*
X9573215Y-20674931D01*
X9518351Y-20518139D01*
X9429974Y-20377487D01*
X9429971Y-20377484D01*
X9429970Y-20377482D01*
X9312517Y-20260029D01*
X9312514Y-20260027D01*
X9312513Y-20260026D01*
X9171861Y-20171649D01*
X9171859Y-20171648D01*
X9171857Y-20171647D01*
X9043647Y-20126785D01*
X9015069Y-20116785D01*
X8850000Y-20098186D01*
X8684931Y-20116785D01*
X8684928Y-20116785D01*
X8684928Y-20116786D01*
X8528140Y-20171648D01*
X8397035Y-20254026D01*
X8328714Y-20273331D01*
X8262965Y-20254026D01*
X8132491Y-20172045D01*
X8131861Y-20171649D01*
X8131860Y-20171648D01*
X8131859Y-20171648D01*
X8003647Y-20126785D01*
X7975069Y-20116785D01*
X7810000Y-20098186D01*
X7644931Y-20116785D01*
X7644928Y-20116785D01*
X7644928Y-20116786D01*
X7488142Y-20171647D01*
X7347482Y-20260029D01*
X7230029Y-20377482D01*
X7141647Y-20518142D01*
X7131150Y-20548142D01*
X7086785Y-20674931D01*
X7068186Y-20840000D01*
X381500Y-20840000D01*
X381500Y-13050000D01*
X1348186Y-13050000D01*
X1366785Y-13215069D01*
X1366786Y-13215071D01*
X1421647Y-13371857D01*
X1421648Y-13371859D01*
X1421649Y-13371861D01*
X1508145Y-13509519D01*
X1510029Y-13512517D01*
X1627482Y-13629970D01*
X1627484Y-13629971D01*
X1627487Y-13629974D01*
X1768139Y-13718351D01*
X1924931Y-13773215D01*
X2090000Y-13791814D01*
X2255069Y-13773215D01*
X2411861Y-13718351D01*
X2552513Y-13629974D01*
X2562517Y-13619970D01*
X2590905Y-13591583D01*
X2653217Y-13557557D01*
X2724032Y-13562622D01*
X2769095Y-13591583D01*
X2807482Y-13629970D01*
X2807484Y-13629971D01*
X2807487Y-13629974D01*
X2948139Y-13718351D01*
X3104931Y-13773215D01*
X3270000Y-13791814D01*
X3435069Y-13773215D01*
X3591861Y-13718351D01*
X3732513Y-13629974D01*
X3849974Y-13512513D01*
X3938351Y-13371861D01*
X3993215Y-13215069D01*
X4011814Y-13050000D01*
X8388186Y-13050000D01*
X8406785Y-13215069D01*
X8406786Y-13215071D01*
X8461647Y-13371857D01*
X8461648Y-13371859D01*
X8461649Y-13371861D01*
X8548145Y-13509519D01*
X8550029Y-13512517D01*
X8667482Y-13629970D01*
X8667484Y-13629971D01*
X8667487Y-13629974D01*
X8808139Y-13718351D01*
X8964931Y-13773215D01*
X9130000Y-13791814D01*
X9295069Y-13773215D01*
X9451861Y-13718351D01*
X9592513Y-13629974D01*
X9709974Y-13512513D01*
X9798351Y-13371861D01*
X9853215Y-13215069D01*
X9871814Y-13050000D01*
X9853215Y-12884931D01*
X9798351Y-12728139D01*
X9709974Y-12587487D01*
X9709971Y-12587484D01*
X9709970Y-12587482D01*
X9592517Y-12470029D01*
X9592514Y-12470027D01*
X9592513Y-12470026D01*
X9451861Y-12381649D01*
X9451859Y-12381648D01*
X9451857Y-12381647D01*
X9341809Y-12343140D01*
X9295069Y-12326785D01*
X9130000Y-12308186D01*
X8964931Y-12326785D01*
X8964928Y-12326785D01*
X8964928Y-12326786D01*
X8808142Y-12381647D01*
X8667482Y-12470029D01*
X8550029Y-12587482D01*
X8461647Y-12728142D01*
X8410285Y-12874928D01*
X8406785Y-12884931D01*
X8388186Y-13050000D01*
X4011814Y-13050000D01*
X3993215Y-12884931D01*
X3938351Y-12728139D01*
X3849974Y-12587487D01*
X3849971Y-12587484D01*
X3849970Y-12587482D01*
X3732517Y-12470029D01*
X3732514Y-12470027D01*
X3732513Y-12470026D01*
X3591861Y-12381649D01*
X3591859Y-12381648D01*
X3591857Y-12381647D01*
X3481809Y-12343140D01*
X3435069Y-12326785D01*
X3270000Y-12308186D01*
X3104931Y-12326785D01*
X3104928Y-12326785D01*
X3104928Y-12326786D01*
X2948142Y-12381647D01*
X2807482Y-12470029D01*
X2769095Y-12508417D01*
X2706783Y-12542443D01*
X2635968Y-12537378D01*
X2590905Y-12508417D01*
X2552517Y-12470029D01*
X2552514Y-12470027D01*
X2552513Y-12470026D01*
X2411861Y-12381649D01*
X2411859Y-12381648D01*
X2411857Y-12381647D01*
X2301809Y-12343140D01*
X2255069Y-12326785D01*
X2090000Y-12308186D01*
X1924931Y-12326785D01*
X1924928Y-12326785D01*
X1924928Y-12326786D01*
X1768142Y-12381647D01*
X1627482Y-12470029D01*
X1510029Y-12587482D01*
X1421647Y-12728142D01*
X1370285Y-12874928D01*
X1366785Y-12884931D01*
X1348186Y-13050000D01*
X381500Y-13050000D01*
X381500Y-7659936D01*
X401501Y-7591819D01*
X455157Y-7545326D01*
X525431Y-7535222D01*
X574532Y-7553251D01*
X678139Y-7618351D01*
X834931Y-7673215D01*
X1000000Y-7691814D01*
X1165069Y-7673215D01*
X1308386Y-7623065D01*
X1379289Y-7619446D01*
X1391601Y-7623061D01*
X1534931Y-7673215D01*
X1700000Y-7691814D01*
X1865069Y-7673215D01*
X2021861Y-7618351D01*
X2162513Y-7529974D01*
X2279974Y-7412513D01*
X2368351Y-7271861D01*
X2423215Y-7115069D01*
X2441814Y-6950000D01*
X2423215Y-6784931D01*
X2368351Y-6628139D01*
X2279974Y-6487487D01*
X2224181Y-6431694D01*
X2190158Y-6369385D01*
X2195222Y-6298569D01*
X2224184Y-6253505D01*
X2262299Y-6215390D01*
X2262299Y-6215389D01*
X2262303Y-6215386D01*
X2350680Y-6074734D01*
X2405544Y-5917942D01*
X2424143Y-5752873D01*
X2405544Y-5587804D01*
X2350680Y-5431012D01*
X2262303Y-5290360D01*
X2262300Y-5290357D01*
X2262299Y-5290355D01*
X2144846Y-5172902D01*
X2144843Y-5172900D01*
X2144842Y-5172899D01*
X2004190Y-5084522D01*
X2004188Y-5084521D01*
X2004186Y-5084520D01*
X1899451Y-5047872D01*
X1847398Y-5029658D01*
X1682329Y-5011059D01*
X1682327Y-5011059D01*
X1624101Y-5017619D01*
X1554169Y-5005369D01*
X1501962Y-4957256D01*
X1484054Y-4888554D01*
X1503306Y-4825379D01*
X1568351Y-4721861D01*
X1623215Y-4565069D01*
X1641814Y-4400000D01*
X1623215Y-4234931D01*
X1610992Y-4200000D01*
X3658186Y-4200000D01*
X3676785Y-4365069D01*
X3695073Y-4417333D01*
X3731647Y-4521857D01*
X3731648Y-4521859D01*
X3731649Y-4521861D01*
X3820026Y-4662513D01*
X3820029Y-4662517D01*
X3937482Y-4779970D01*
X3937484Y-4779971D01*
X3937487Y-4779974D01*
X4078139Y-4868351D01*
X4234931Y-4923215D01*
X4400000Y-4941814D01*
X4565069Y-4923215D01*
X4721861Y-4868351D01*
X4862513Y-4779974D01*
X4979974Y-4662513D01*
X5068351Y-4521861D01*
X5121625Y-4369610D01*
X5163000Y-4311924D01*
X5229001Y-4285761D01*
X5298668Y-4299433D01*
X5329647Y-4322135D01*
X5437482Y-4429970D01*
X5437484Y-4429971D01*
X5437487Y-4429974D01*
X5578139Y-4518351D01*
X5734931Y-4573215D01*
X5900000Y-4591814D01*
X6065069Y-4573215D01*
X6221861Y-4518351D01*
X6362513Y-4429974D01*
X6479974Y-4312513D01*
X6568351Y-4171861D01*
X6623215Y-4015069D01*
X6641814Y-3850000D01*
X6623215Y-3684931D01*
X6568351Y-3528139D01*
X6479974Y-3387487D01*
X6479971Y-3387484D01*
X6479970Y-3387482D01*
X6362517Y-3270029D01*
X6362514Y-3270027D01*
X6362513Y-3270026D01*
X6221861Y-3181649D01*
X6221859Y-3181648D01*
X6221857Y-3181647D01*
X6117333Y-3145073D01*
X6065069Y-3126785D01*
X5900000Y-3108186D01*
X5734931Y-3126785D01*
X5734928Y-3126785D01*
X5734928Y-3126786D01*
X5578142Y-3181647D01*
X5437482Y-3270029D01*
X5320029Y-3387482D01*
X5231647Y-3528142D01*
X5178376Y-3680384D01*
X5136998Y-3738076D01*
X5070997Y-3764238D01*
X5001330Y-3750565D01*
X4970352Y-3727864D01*
X4862517Y-3620029D01*
X4862514Y-3620027D01*
X4862513Y-3620026D01*
X4721861Y-3531649D01*
X4721859Y-3531648D01*
X4721857Y-3531647D01*
X4588743Y-3485069D01*
X4565069Y-3476785D01*
X4400000Y-3458186D01*
X4234931Y-3476785D01*
X4234928Y-3476785D01*
X4234928Y-3476786D01*
X4078142Y-3531647D01*
X3937482Y-3620029D01*
X3820029Y-3737482D01*
X3731647Y-3878142D01*
X3681971Y-4020110D01*
X3676785Y-4034931D01*
X3658186Y-4200000D01*
X1610992Y-4200000D01*
X1587805Y-4133737D01*
X1584186Y-4062837D01*
X1619475Y-4001231D01*
X1665114Y-3973199D01*
X1821861Y-3918351D01*
X1962513Y-3829974D01*
X2079974Y-3712513D01*
X2168351Y-3571861D01*
X2223215Y-3415069D01*
X2241814Y-3250000D01*
X2223215Y-3084931D01*
X2168351Y-2928139D01*
X2079974Y-2787487D01*
X2079971Y-2787484D01*
X2079970Y-2787482D01*
X1962517Y-2670029D01*
X1962514Y-2670027D01*
X1962513Y-2670026D01*
X1821861Y-2581649D01*
X1821859Y-2581648D01*
X1821857Y-2581647D01*
X1717333Y-2545073D01*
X1665069Y-2526785D01*
X1500000Y-2508186D01*
X1334931Y-2526785D01*
X1334928Y-2526785D01*
X1334928Y-2526786D01*
X1178142Y-2581647D01*
X1037482Y-2670029D01*
X920029Y-2787482D01*
X831647Y-2928142D01*
X779145Y-3078186D01*
X776785Y-3084931D01*
X758186Y-3250000D01*
X776785Y-3415069D01*
X798381Y-3476786D01*
X812193Y-3516259D01*
X815813Y-3587163D01*
X780524Y-3648768D01*
X734879Y-3676803D01*
X578139Y-3731648D01*
X574529Y-3733917D01*
X571868Y-3734668D01*
X571764Y-3734719D01*
X571755Y-3734700D01*
X506206Y-3753218D01*
X438294Y-3732518D01*
X392355Y-3678387D01*
X381500Y-3627225D01*
X381500Y-507500D01*
X401502Y-439379D01*
X455158Y-392886D01*
X507500Y-381500D01*
X21125123Y-381500D01*
X21193244Y-401502D01*
G37*
%TD.AperFunction*%
%TD*%
%TA.AperFunction,Conductor*%
%TO.N,/ETROC4*%
G36*
X24688822Y-12684862D02*
G01*
X25036927Y-12834218D01*
X25043178Y-12840628D01*
X25043140Y-12849403D01*
X24962564Y-13046171D01*
X24956258Y-13052528D01*
X24956171Y-13052564D01*
X24759403Y-13133140D01*
X24750448Y-13133104D01*
X24744218Y-13126927D01*
X24594862Y-12778823D01*
X24594750Y-12769870D01*
X24597340Y-12765940D01*
X24675939Y-12687341D01*
X24684211Y-12683915D01*
X24688822Y-12684862D01*
G37*
%TD.AperFunction*%
%TD*%
%TA.AperFunction,Conductor*%
%TO.N,/LGAD3*%
G36*
X14004061Y-20477342D02*
G01*
X14082657Y-20555938D01*
X14086084Y-20564211D01*
X14085136Y-20568824D01*
X13935782Y-20916926D01*
X13929371Y-20923178D01*
X13920596Y-20923140D01*
X13723828Y-20842564D01*
X13717471Y-20836258D01*
X13636859Y-20639402D01*
X13636895Y-20630448D01*
X13643070Y-20624219D01*
X13991176Y-20474862D01*
X14000129Y-20474750D01*
X14004061Y-20477342D01*
G37*
%TD.AperFunction*%
%TD*%
%TA.AperFunction,Conductor*%
%TO.N,/ETROC2*%
G36*
X34563848Y-54746127D02*
G01*
X34566440Y-54750059D01*
X34706975Y-55101813D01*
X34706862Y-55110767D01*
X34700631Y-55116945D01*
X34504521Y-55199105D01*
X34495566Y-55199141D01*
X34495479Y-55199105D01*
X34299368Y-55116945D01*
X34293062Y-55110588D01*
X34293024Y-55101813D01*
X34433560Y-54750059D01*
X34439812Y-54743648D01*
X34444425Y-54742700D01*
X34555575Y-54742700D01*
X34563848Y-54746127D01*
G37*
%TD.AperFunction*%
%TD*%
%TA.AperFunction,Conductor*%
%TO.N,/CLK*%
G36*
X25254061Y-44197342D02*
G01*
X25332657Y-44275938D01*
X25336084Y-44284211D01*
X25335136Y-44288824D01*
X25185782Y-44636926D01*
X25179371Y-44643178D01*
X25170596Y-44643140D01*
X24973828Y-44562564D01*
X24967471Y-44556258D01*
X24886859Y-44359402D01*
X24886895Y-44350448D01*
X24893070Y-44344219D01*
X25241176Y-44194862D01*
X25250129Y-44194750D01*
X25254061Y-44197342D01*
G37*
%TD.AperFunction*%
%TD*%
%TA.AperFunction,Conductor*%
%TO.N,/ETROC3*%
G36*
X11689551Y-3746895D02*
G01*
X11695782Y-3753073D01*
X11845136Y-4101175D01*
X11845249Y-4110129D01*
X11842657Y-4114061D01*
X11764061Y-4192657D01*
X11755788Y-4196084D01*
X11751175Y-4195136D01*
X11549153Y-4108458D01*
X11403072Y-4045781D01*
X11396821Y-4039371D01*
X11396858Y-4030597D01*
X11477436Y-3833826D01*
X11483740Y-3827471D01*
X11680597Y-3746859D01*
X11689551Y-3746895D01*
G37*
%TD.AperFunction*%
%TD*%
%TA.AperFunction,Conductor*%
%TO.N,/LGAD1*%
G36*
X7084061Y-54537342D02*
G01*
X7162657Y-54615938D01*
X7166084Y-54624211D01*
X7165136Y-54628824D01*
X7015782Y-54976926D01*
X7009371Y-54983178D01*
X7000596Y-54983140D01*
X6803828Y-54902564D01*
X6797471Y-54896258D01*
X6716859Y-54699402D01*
X6716895Y-54690448D01*
X6723070Y-54684219D01*
X7071176Y-54534862D01*
X7080129Y-54534750D01*
X7084061Y-54537342D01*
G37*
%TD.AperFunction*%
%TD*%
%TA.AperFunction,Conductor*%
%TO.N,/ETROC4*%
G36*
X24121848Y-4426450D02*
G01*
X24316480Y-4506149D01*
X24322836Y-4512454D01*
X24322862Y-4512516D01*
X24404194Y-4709798D01*
X24404179Y-4718752D01*
X24398210Y-4724912D01*
X24115804Y-4853004D01*
X24110971Y-4854049D01*
X24001999Y-4854049D01*
X23993726Y-4850622D01*
X23990299Y-4842349D01*
X23990747Y-4839143D01*
X24106171Y-4434074D01*
X24111734Y-4427057D01*
X24120629Y-4426029D01*
X24121848Y-4426450D01*
G37*
%TD.AperFunction*%
%TD*%
%TA.AperFunction,Conductor*%
%TO.N,/CS_T1*%
G36*
X27854061Y-20507342D02*
G01*
X27932657Y-20585938D01*
X27936084Y-20594211D01*
X27935136Y-20598824D01*
X27785782Y-20946926D01*
X27779371Y-20953178D01*
X27770596Y-20953140D01*
X27573828Y-20872564D01*
X27567471Y-20866258D01*
X27486859Y-20669402D01*
X27486895Y-20660448D01*
X27493070Y-20654219D01*
X27841176Y-20504862D01*
X27850129Y-20504750D01*
X27854061Y-20507342D01*
G37*
%TD.AperFunction*%
%TD*%
%TA.AperFunction,Conductor*%
%TO.N,/ETROC1*%
G36*
X10383466Y-55470105D02*
G01*
X10386239Y-55474521D01*
X10507615Y-55822105D01*
X10507107Y-55831045D01*
X10501090Y-55836753D01*
X10304521Y-55919105D01*
X10295566Y-55919141D01*
X10295479Y-55919105D01*
X10099910Y-55837172D01*
X10093604Y-55830815D01*
X10093640Y-55821860D01*
X10093781Y-55821537D01*
X10253371Y-55473500D01*
X10259934Y-55467409D01*
X10264006Y-55466678D01*
X10375193Y-55466678D01*
X10383466Y-55470105D01*
G37*
%TD.AperFunction*%
%TD*%
M02*
