%TF.GenerationSoftware,KiCad,Pcbnew,7.0.7*%
%TF.CreationDate,2024-05-31T10:52:30+02:00*%
%TF.ProjectId,control-board_v1,636f6e74-726f-46c2-9d62-6f6172645f76,rev?*%
%TF.SameCoordinates,Original*%
%TF.FileFunction,Copper,L1,Top*%
%TF.FilePolarity,Positive*%
%FSLAX46Y46*%
G04 Gerber Fmt 4.6, Leading zero omitted, Abs format (unit mm)*
G04 Created by KiCad (PCBNEW 7.0.7) date 2024-05-31 10:52:30*
%MOMM*%
%LPD*%
G01*
G04 APERTURE LIST*
G04 Aperture macros list*
%AMRoundRect*
0 Rectangle with rounded corners*
0 $1 Rounding radius*
0 $2 $3 $4 $5 $6 $7 $8 $9 X,Y pos of 4 corners*
0 Add a 4 corners polygon primitive as box body*
4,1,4,$2,$3,$4,$5,$6,$7,$8,$9,$2,$3,0*
0 Add four circle primitives for the rounded corners*
1,1,$1+$1,$2,$3*
1,1,$1+$1,$4,$5*
1,1,$1+$1,$6,$7*
1,1,$1+$1,$8,$9*
0 Add four rect primitives between the rounded corners*
20,1,$1+$1,$2,$3,$4,$5,0*
20,1,$1+$1,$4,$5,$6,$7,0*
20,1,$1+$1,$6,$7,$8,$9,0*
20,1,$1+$1,$8,$9,$2,$3,0*%
G04 Aperture macros list end*
%TA.AperFunction,SMDPad,CuDef*%
%ADD10RoundRect,0.218750X0.218750X0.256250X-0.218750X0.256250X-0.218750X-0.256250X0.218750X-0.256250X0*%
%TD*%
%TA.AperFunction,SMDPad,CuDef*%
%ADD11RoundRect,0.250000X0.262500X0.450000X-0.262500X0.450000X-0.262500X-0.450000X0.262500X-0.450000X0*%
%TD*%
%TA.AperFunction,SMDPad,CuDef*%
%ADD12RoundRect,0.250000X0.875000X1.025000X-0.875000X1.025000X-0.875000X-1.025000X0.875000X-1.025000X0*%
%TD*%
%TA.AperFunction,SMDPad,CuDef*%
%ADD13RoundRect,0.150000X-0.150000X0.512500X-0.150000X-0.512500X0.150000X-0.512500X0.150000X0.512500X0*%
%TD*%
%TA.AperFunction,SMDPad,CuDef*%
%ADD14R,1.000000X3.150000*%
%TD*%
%TA.AperFunction,SMDPad,CuDef*%
%ADD15RoundRect,0.250000X0.475000X-0.250000X0.475000X0.250000X-0.475000X0.250000X-0.475000X-0.250000X0*%
%TD*%
%TA.AperFunction,SMDPad,CuDef*%
%ADD16RoundRect,0.250000X0.250000X0.475000X-0.250000X0.475000X-0.250000X-0.475000X0.250000X-0.475000X0*%
%TD*%
%TA.AperFunction,SMDPad,CuDef*%
%ADD17RoundRect,0.150000X0.150000X-0.875000X0.150000X0.875000X-0.150000X0.875000X-0.150000X-0.875000X0*%
%TD*%
%TA.AperFunction,SMDPad,CuDef*%
%ADD18RoundRect,0.250000X-0.475000X0.250000X-0.475000X-0.250000X0.475000X-0.250000X0.475000X0.250000X0*%
%TD*%
%TA.AperFunction,ComponentPad*%
%ADD19R,2.000000X4.000000*%
%TD*%
%TA.AperFunction,ComponentPad*%
%ADD20O,2.000000X3.300000*%
%TD*%
%TA.AperFunction,ComponentPad*%
%ADD21O,3.500000X2.000000*%
%TD*%
%TA.AperFunction,SMDPad,CuDef*%
%ADD22RoundRect,0.250000X-0.262500X-0.450000X0.262500X-0.450000X0.262500X0.450000X-0.262500X0.450000X0*%
%TD*%
%TA.AperFunction,SMDPad,CuDef*%
%ADD23RoundRect,0.150000X0.150000X-0.512500X0.150000X0.512500X-0.150000X0.512500X-0.150000X-0.512500X0*%
%TD*%
%TA.AperFunction,ComponentPad*%
%ADD24R,1.700000X1.700000*%
%TD*%
%TA.AperFunction,ComponentPad*%
%ADD25O,1.700000X1.700000*%
%TD*%
%TA.AperFunction,ViaPad*%
%ADD26C,0.800000*%
%TD*%
%TA.AperFunction,Conductor*%
%ADD27C,1.000000*%
%TD*%
%TA.AperFunction,Conductor*%
%ADD28C,2.000000*%
%TD*%
%TA.AperFunction,Conductor*%
%ADD29C,0.250000*%
%TD*%
%TA.AperFunction,Conductor*%
%ADD30C,0.500000*%
%TD*%
G04 APERTURE END LIST*
D10*
%TO.P,D7,1,K*%
%TO.N,GND*%
X36117500Y-56780000D03*
%TO.P,D7,2,A*%
%TO.N,Net-(D7-A)*%
X34542500Y-56780000D03*
%TD*%
%TO.P,D2,1,K*%
%TO.N,GND*%
X36117500Y-31000000D03*
%TO.P,D2,2,A*%
%TO.N,Net-(D2-A)*%
X34542500Y-31000000D03*
%TD*%
D11*
%TO.P,R19,1*%
%TO.N,Net-(U4A--)*%
X42940000Y-37560000D03*
%TO.P,R19,2*%
%TO.N,GND*%
X41115000Y-37560000D03*
%TD*%
D10*
%TO.P,D3,1,K*%
%TO.N,GND*%
X36117500Y-25000000D03*
%TO.P,D3,2,A*%
%TO.N,Net-(D3-A)*%
X34542500Y-25000000D03*
%TD*%
%TO.P,D1,1,K*%
%TO.N,GND*%
X36117500Y-34000000D03*
%TO.P,D1,2,A*%
%TO.N,Net-(D1-A)*%
X34542500Y-34000000D03*
%TD*%
%TO.P,D6,1,K*%
%TO.N,GND*%
X36117500Y-54000000D03*
%TO.P,D6,2,A*%
%TO.N,Net-(D6-A)*%
X34542500Y-54000000D03*
%TD*%
%TO.P,D10,1,K*%
%TO.N,GND*%
X63837500Y-54000000D03*
%TO.P,D10,2,A*%
%TO.N,Net-(D10-A)*%
X62262500Y-54000000D03*
%TD*%
D11*
%TO.P,R21,1*%
%TO.N,Net-(U4B--)*%
X44772500Y-47560000D03*
%TO.P,R21,2*%
%TO.N,GND*%
X42947500Y-47560000D03*
%TD*%
D10*
%TO.P,D9,1,K*%
%TO.N,GND*%
X63837500Y-51000000D03*
%TO.P,D9,2,A*%
%TO.N,Net-(D9-A)*%
X62262500Y-51000000D03*
%TD*%
D12*
%TO.P,C1,1*%
%TO.N,+9V*%
X34170000Y-42210000D03*
%TO.P,C1,2*%
%TO.N,GND*%
X27770000Y-42210000D03*
%TD*%
D10*
%TO.P,D14,1,K*%
%TO.N,GND*%
X63837500Y-28000000D03*
%TO.P,D14,2,A*%
%TO.N,Net-(D14-A)*%
X62262500Y-28000000D03*
%TD*%
%TO.P,D16,1,K*%
%TO.N,GND*%
X63837500Y-34000000D03*
%TO.P,D16,2,A*%
%TO.N,Net-(D16-A)*%
X62262500Y-34000000D03*
%TD*%
D13*
%TO.P,Q10,1,G*%
%TO.N,H3-D18*%
X76310000Y-41302500D03*
%TO.P,Q10,2,S*%
%TO.N,4-Heater*%
X75360000Y-41302500D03*
%TO.P,Q10,3,G*%
%TO.N,H4-D19*%
X74410000Y-41302500D03*
%TO.P,Q10,4,D*%
%TO.N,+9V*%
X74410000Y-43577500D03*
%TO.P,Q10,5,S*%
%TO.N,3-Heater*%
X75360000Y-43577500D03*
%TO.P,Q10,6,D*%
%TO.N,+9V*%
X76310000Y-43577500D03*
%TD*%
D14*
%TO.P,J2,1,Pin_1*%
%TO.N,2-CS*%
X39130000Y-56990000D03*
%TO.P,J2,2,Pin_2*%
%TO.N,DIN*%
X39130000Y-51940000D03*
%TO.P,J2,3,Pin_3*%
%TO.N,~{RDY}*%
X41670000Y-56990000D03*
%TO.P,J2,4,Pin_4*%
%TO.N,~{RST}*%
X41670000Y-51940000D03*
%TO.P,J2,5,Pin_5*%
%TO.N,DOUT*%
X44210000Y-56990000D03*
%TO.P,J2,6,Pin_6*%
%TO.N,+3V3*%
X44210000Y-51940000D03*
%TO.P,J2,7,Pin_7*%
%TO.N,2-CS_T1*%
X46750000Y-56990000D03*
%TO.P,J2,8,Pin_8*%
%TO.N,2-CS_T2*%
X46750000Y-51940000D03*
%TO.P,J2,9,Pin_9*%
%TO.N,2-Heater*%
X49290000Y-56990000D03*
%TO.P,J2,10,Pin_10*%
%TO.N,CLK*%
X49290000Y-51940000D03*
%TO.P,J2,11,Pin_11*%
%TO.N,2-CS_T3*%
X51830000Y-56990000D03*
%TO.P,J2,12,Pin_12*%
%TO.N,2-GND*%
X51830000Y-51940000D03*
%TD*%
D10*
%TO.P,D15,1,K*%
%TO.N,GND*%
X63837500Y-31000000D03*
%TO.P,D15,2,A*%
%TO.N,Net-(D15-A)*%
X62262500Y-31000000D03*
%TD*%
D15*
%TO.P,C5,1*%
%TO.N,+5V*%
X59380000Y-28310000D03*
%TO.P,C5,2*%
%TO.N,GND*%
X59380000Y-26410000D03*
%TD*%
D16*
%TO.P,C7,1*%
%TO.N,+5V*%
X39470000Y-44870000D03*
%TO.P,C7,2*%
%TO.N,GND*%
X37570000Y-44870000D03*
%TD*%
D10*
%TO.P,D5,1,K*%
%TO.N,GND*%
X36117500Y-51000000D03*
%TO.P,D5,2,A*%
%TO.N,Net-(D5-A)*%
X34542500Y-51000000D03*
%TD*%
%TO.P,D12,1,K*%
%TO.N,GND*%
X63837500Y-60000000D03*
%TO.P,D12,2,A*%
%TO.N,Net-(D12-A)*%
X62262500Y-60000000D03*
%TD*%
D14*
%TO.P,J5,1,Pin_1*%
%TO.N,4-CS*%
X66630000Y-32940000D03*
%TO.P,J5,2,Pin_2*%
%TO.N,DIN*%
X66630000Y-27890000D03*
%TO.P,J5,3,Pin_3*%
%TO.N,~{RDY}*%
X69170000Y-32940000D03*
%TO.P,J5,4,Pin_4*%
%TO.N,~{RST}*%
X69170000Y-27890000D03*
%TO.P,J5,5,Pin_5*%
%TO.N,DOUT*%
X71710000Y-32940000D03*
%TO.P,J5,6,Pin_6*%
%TO.N,+3V3*%
X71710000Y-27890000D03*
%TO.P,J5,7,Pin_7*%
%TO.N,4-CS_T1*%
X74250000Y-32940000D03*
%TO.P,J5,8,Pin_8*%
%TO.N,4-CS_T2*%
X74250000Y-27890000D03*
%TO.P,J5,9,Pin_9*%
%TO.N,4-Heater*%
X76790000Y-32940000D03*
%TO.P,J5,10,Pin_10*%
%TO.N,CLK*%
X76790000Y-27890000D03*
%TO.P,J5,11,Pin_11*%
%TO.N,4-CS_T3*%
X79330000Y-32940000D03*
%TO.P,J5,12,Pin_12*%
%TO.N,4-GND*%
X79330000Y-27890000D03*
%TD*%
D10*
%TO.P,D11,1,K*%
%TO.N,GND*%
X63837500Y-57000000D03*
%TO.P,D11,2,A*%
%TO.N,Net-(D11-A)*%
X62262500Y-57000000D03*
%TD*%
%TO.P,D18,1,K*%
%TO.N,GND*%
X22780000Y-49891250D03*
%TO.P,D18,2,A*%
%TO.N,Net-(D18-A)*%
X21205000Y-49891250D03*
%TD*%
D17*
%TO.P,U1,1,~{Y0}*%
%TO.N,1-CS*%
X52360000Y-47090000D03*
%TO.P,U1,2,~{Y1}*%
%TO.N,1-CS_T1*%
X53630000Y-47090000D03*
%TO.P,U1,3,~{Y2}*%
%TO.N,1-CS_T2*%
X54900000Y-47090000D03*
%TO.P,U1,4,~{Y3}*%
%TO.N,1-CS_T3*%
X56170000Y-47090000D03*
%TO.P,U1,5,~{Y4}*%
%TO.N,2-CS*%
X57440000Y-47090000D03*
%TO.P,U1,6,~{Y5}*%
%TO.N,2-CS_T1*%
X58710000Y-47090000D03*
%TO.P,U1,7,~{Y6}*%
%TO.N,2-CS_T2*%
X59980000Y-47090000D03*
%TO.P,U1,8,~{Y7}*%
%TO.N,2-CS_T3*%
X61250000Y-47090000D03*
%TO.P,U1,9,~{Y8}*%
%TO.N,3-CS*%
X62520000Y-47090000D03*
%TO.P,U1,10,~{Y9}*%
%TO.N,3-CS_T1*%
X63790000Y-47090000D03*
%TO.P,U1,11,~{Y10}*%
%TO.N,3-CS_T2*%
X65060000Y-47090000D03*
%TO.P,U1,12,GND*%
%TO.N,GND*%
X66330000Y-47090000D03*
%TO.P,U1,13,~{Y11}*%
%TO.N,3-CS_T3*%
X66330000Y-37790000D03*
%TO.P,U1,14,~{Y12}*%
%TO.N,4-CS*%
X65060000Y-37790000D03*
%TO.P,U1,15,~{Y13}*%
%TO.N,4-CS_T1*%
X63790000Y-37790000D03*
%TO.P,U1,16,~{Y14}*%
%TO.N,4-CS_T2*%
X62520000Y-37790000D03*
%TO.P,U1,17,~{Y15}*%
%TO.N,4-CS_T3*%
X61250000Y-37790000D03*
%TO.P,U1,18,~{E1}*%
%TO.N,~{ENABLE}*%
X59980000Y-37790000D03*
%TO.P,U1,19,~{E2}*%
%TO.N,GND*%
X58710000Y-37790000D03*
%TO.P,U1,20,A3*%
%TO.N,S-D8*%
X57440000Y-37790000D03*
%TO.P,U1,21,A2*%
%TO.N,S-D9*%
X56170000Y-37790000D03*
%TO.P,U1,22,A1*%
%TO.N,S-D10*%
X54900000Y-37790000D03*
%TO.P,U1,23,A0*%
%TO.N,S-D11*%
X53630000Y-37790000D03*
%TO.P,U1,24,Vcc*%
%TO.N,+3V3*%
X52360000Y-37790000D03*
%TD*%
D18*
%TO.P,C3,1*%
%TO.N,+5V*%
X80200000Y-41170000D03*
%TO.P,C3,2*%
%TO.N,GND*%
X80200000Y-43070000D03*
%TD*%
D19*
%TO.P,J1,1*%
%TO.N,/9V_IN*%
X27570000Y-32560000D03*
D20*
%TO.P,J1,2*%
%TO.N,GND*%
X21570000Y-32560000D03*
D21*
%TO.P,J1,MP*%
%TO.N,N/C*%
X20570000Y-28060000D03*
X20570000Y-37060000D03*
%TD*%
D14*
%TO.P,J3,1,Pin_1*%
%TO.N,1-CS*%
X39130000Y-32990000D03*
%TO.P,J3,2,Pin_2*%
%TO.N,DIN*%
X39130000Y-27940000D03*
%TO.P,J3,3,Pin_3*%
%TO.N,~{RDY}*%
X41670000Y-32990000D03*
%TO.P,J3,4,Pin_4*%
%TO.N,~{RST}*%
X41670000Y-27940000D03*
%TO.P,J3,5,Pin_5*%
%TO.N,DOUT*%
X44210000Y-32990000D03*
%TO.P,J3,6,Pin_6*%
%TO.N,+3V3*%
X44210000Y-27940000D03*
%TO.P,J3,7,Pin_7*%
%TO.N,1-CS_T1*%
X46750000Y-32990000D03*
%TO.P,J3,8,Pin_8*%
%TO.N,1-CS_T2*%
X46750000Y-27940000D03*
%TO.P,J3,9,Pin_9*%
%TO.N,1-Heater*%
X49290000Y-32990000D03*
%TO.P,J3,10,Pin_10*%
%TO.N,CLK*%
X49290000Y-27940000D03*
%TO.P,J3,11,Pin_11*%
%TO.N,1-CS_T3*%
X51830000Y-32990000D03*
%TO.P,J3,12,Pin_12*%
%TO.N,1-GND*%
X51830000Y-27940000D03*
%TD*%
D22*
%TO.P,R25,1*%
%TO.N,Net-(U6B--)*%
X78557500Y-38120000D03*
%TO.P,R25,2*%
%TO.N,GND*%
X80382500Y-38120000D03*
%TD*%
D10*
%TO.P,D4,1,K*%
%TO.N,GND*%
X36117500Y-28000000D03*
%TO.P,D4,2,A*%
%TO.N,Net-(D4-A)*%
X34542500Y-28000000D03*
%TD*%
%TO.P,D13,1,K*%
%TO.N,GND*%
X63837500Y-25000000D03*
%TO.P,D13,2,A*%
%TO.N,Net-(D13-A)*%
X62262500Y-25000000D03*
%TD*%
D22*
%TO.P,R26,1*%
%TO.N,Net-(U6A--)*%
X79027500Y-46920000D03*
%TO.P,R26,2*%
%TO.N,GND*%
X80852500Y-46920000D03*
%TD*%
D10*
%TO.P,D17,1,K*%
%TO.N,GND*%
X22780000Y-53831250D03*
%TO.P,D17,2,A*%
%TO.N,Net-(D17-A)*%
X21205000Y-53831250D03*
%TD*%
D14*
%TO.P,J4,1,Pin_1*%
%TO.N,3-CS*%
X66630000Y-56940000D03*
%TO.P,J4,2,Pin_2*%
%TO.N,DIN*%
X66630000Y-51890000D03*
%TO.P,J4,3,Pin_3*%
%TO.N,~{RDY}*%
X69170000Y-56940000D03*
%TO.P,J4,4,Pin_4*%
%TO.N,~{RST}*%
X69170000Y-51890000D03*
%TO.P,J4,5,Pin_5*%
%TO.N,DOUT*%
X71710000Y-56940000D03*
%TO.P,J4,6,Pin_6*%
%TO.N,+3V3*%
X71710000Y-51890000D03*
%TO.P,J4,7,Pin_7*%
%TO.N,3-CS_T1*%
X74250000Y-56940000D03*
%TO.P,J4,8,Pin_8*%
%TO.N,3-CS_T2*%
X74250000Y-51890000D03*
%TO.P,J4,9,Pin_9*%
%TO.N,3-Heater*%
X76790000Y-56940000D03*
%TO.P,J4,10,Pin_10*%
%TO.N,CLK*%
X76790000Y-51890000D03*
%TO.P,J4,11,Pin_11*%
%TO.N,3-CS_T3*%
X79330000Y-56940000D03*
%TO.P,J4,12,Pin_12*%
%TO.N,3-GND*%
X79330000Y-51890000D03*
%TD*%
D10*
%TO.P,D8,1,K*%
%TO.N,GND*%
X36117500Y-59780000D03*
%TO.P,D8,2,A*%
%TO.N,Net-(D8-A)*%
X34542500Y-59780000D03*
%TD*%
D23*
%TO.P,Q9,1,G*%
%TO.N,H1-D12*%
X46940000Y-43577500D03*
%TO.P,Q9,2,S*%
%TO.N,2-Heater*%
X47890000Y-43577500D03*
%TO.P,Q9,3,G*%
%TO.N,H2-D13*%
X48840000Y-43577500D03*
%TO.P,Q9,4,D*%
%TO.N,+9V*%
X48840000Y-41302500D03*
%TO.P,Q9,5,S*%
%TO.N,1-Heater*%
X47890000Y-41302500D03*
%TO.P,Q9,6,D*%
%TO.N,+9V*%
X46940000Y-41302500D03*
%TD*%
D24*
%TO.P,J8,1,Pin_1*%
%TO.N,H1-D12*%
X35650000Y-17840000D03*
D25*
%TO.P,J8,2,Pin_2*%
%TO.N,H2-D13*%
X38190000Y-17840000D03*
%TO.P,J8,3,Pin_3*%
%TO.N,AREF*%
X40730000Y-17840000D03*
%TO.P,J8,4,Pin_4*%
%TO.N,GND*%
X43270000Y-17840000D03*
%TO.P,J8,5,Pin_5*%
%TO.N,H4-D19*%
X45810000Y-17840000D03*
%TO.P,J8,6,Pin_6*%
%TO.N,H3-D18*%
X48350000Y-17840000D03*
%TO.P,J8,7,Pin_7*%
%TO.N,S-D11*%
X50890000Y-17840000D03*
%TO.P,J8,8,Pin_8*%
%TO.N,S-D10*%
X53430000Y-17840000D03*
%TO.P,J8,9,Pin_9*%
%TO.N,S-D9*%
X55970000Y-17840000D03*
%TO.P,J8,10,Pin_10*%
%TO.N,S-D8*%
X58510000Y-17840000D03*
%TD*%
D24*
%TO.P,J7,1,Pin_1*%
%TO.N,A5*%
X80350000Y-66090000D03*
D25*
%TO.P,J7,2,Pin_2*%
%TO.N,A4*%
X77810000Y-66090000D03*
%TO.P,J7,3,Pin_3*%
%TO.N,A3*%
X75270000Y-66090000D03*
%TO.P,J7,4,Pin_4*%
%TO.N,A2*%
X72730000Y-66090000D03*
%TO.P,J7,5,Pin_5*%
%TO.N,A1*%
X70190000Y-66090000D03*
%TO.P,J7,6,Pin_6*%
%TO.N,A0*%
X67650000Y-66090000D03*
%TD*%
D24*
%TO.P,J6,1,Pin_1*%
%TO.N,Vin*%
X62570000Y-66090000D03*
D25*
%TO.P,J6,2,Pin_2*%
%TO.N,GND*%
X60030000Y-66090000D03*
%TO.P,J6,3,Pin_3*%
X57490000Y-66090000D03*
%TO.P,J6,4,Pin_4*%
%TO.N,+5V*%
X54950000Y-66090000D03*
%TO.P,J6,5,Pin_5*%
%TO.N,+3V3*%
X52410000Y-66090000D03*
%TO.P,J6,6,Pin_6*%
%TO.N,Reset*%
X49870000Y-66090000D03*
%TO.P,J6,7,Pin_7*%
%TO.N,IOREF*%
X47330000Y-66090000D03*
%TO.P,J6,8,Pin_8*%
%TO.N,unconnected-(J6-Pin_8-Pad8)*%
X44790000Y-66090000D03*
%TD*%
D24*
%TO.P,J9,1,Pin_1*%
%TO.N,D7*%
X62570000Y-17840000D03*
D25*
%TO.P,J9,2,Pin_2*%
%TO.N,~{ENABLE}*%
X65110000Y-17840000D03*
%TO.P,J9,3,Pin_3*%
%TO.N,~{RDY}*%
X67650000Y-17840000D03*
%TO.P,J9,4,Pin_4*%
%TO.N,~{RST}*%
X70190000Y-17840000D03*
%TO.P,J9,5,Pin_5*%
%TO.N,CS*%
X72730000Y-17840000D03*
%TO.P,J9,6,Pin_6*%
%TO.N,CLK*%
X75270000Y-17840000D03*
%TO.P,J9,7,Pin_7*%
%TO.N,DIN*%
X77810000Y-17840000D03*
%TO.P,J9,8,Pin_8*%
%TO.N,DOUT*%
X80350000Y-17840000D03*
%TD*%
D26*
%TO.N,+9V*%
X45400000Y-42180000D03*
X36070000Y-42170000D03*
X50020000Y-42180000D03*
X77860000Y-42200000D03*
X72540000Y-42140000D03*
%TO.N,GND*%
X57840000Y-23800000D03*
X73330000Y-54320000D03*
X36120000Y-23590000D03*
X81550000Y-43080000D03*
X36160000Y-52620000D03*
X22762500Y-55471250D03*
X73480000Y-45470000D03*
X36130000Y-61660000D03*
X45760000Y-49620000D03*
X36140000Y-29430000D03*
X67590000Y-45190000D03*
X22782500Y-48301250D03*
X36140000Y-55460000D03*
X46650000Y-54510000D03*
X63830000Y-58650000D03*
X73270000Y-24010000D03*
X63840000Y-26430000D03*
X45620000Y-25530000D03*
X40760000Y-30460000D03*
X63840000Y-29690000D03*
X63840000Y-52580000D03*
X36020000Y-58430000D03*
X41730000Y-47550000D03*
X63850000Y-61830000D03*
X58670000Y-39760000D03*
X27780000Y-45750000D03*
X65140000Y-33330000D03*
X63500000Y-49640000D03*
X63870000Y-32450000D03*
X55500000Y-39490000D03*
X44900000Y-30340000D03*
X36120000Y-26450000D03*
X29620000Y-42220000D03*
X46580000Y-38860000D03*
X36170000Y-32460000D03*
X25600000Y-42210000D03*
X63840000Y-23420000D03*
X73320000Y-49520000D03*
X55280000Y-59580000D03*
X22792500Y-51781250D03*
X55320000Y-54620000D03*
X80995500Y-36640000D03*
X36120000Y-49610000D03*
X36630000Y-45980000D03*
X72010000Y-30280000D03*
X82000000Y-46920000D03*
%TO.N,+5V*%
X31000000Y-35990000D03*
X32210000Y-62150000D03*
X58164500Y-28310000D03*
X40650000Y-44840000D03*
X58900000Y-35750000D03*
X82750000Y-36090000D03*
%TO.N,Net-(D1-A)*%
X33610000Y-32990000D03*
%TO.N,Net-(D2-A)*%
X33700000Y-29980000D03*
%TO.N,Net-(D3-A)*%
X33620000Y-23920000D03*
%TO.N,Net-(D4-A)*%
X33620000Y-26920000D03*
%TO.N,Net-(D5-A)*%
X33540000Y-49870000D03*
%TO.N,Net-(D6-A)*%
X33610000Y-52930000D03*
%TO.N,Net-(D7-A)*%
X33420000Y-55640000D03*
%TO.N,Net-(D8-A)*%
X33490000Y-58710000D03*
%TO.N,Net-(D9-A)*%
X62290000Y-52210000D03*
%TO.N,H2-D13*%
X49630000Y-19140000D03*
%TO.N,Net-(D10-A)*%
X61340000Y-52980000D03*
%TO.N,H3-D18*%
X48350000Y-21120000D03*
X80690000Y-21630000D03*
%TO.N,Net-(D11-A)*%
X61210000Y-58160000D03*
%TO.N,H4-D19*%
X70790000Y-20440000D03*
X45810000Y-20270000D03*
%TO.N,Net-(D12-A)*%
X61120000Y-61130000D03*
%TO.N,CS*%
X72730000Y-22140000D03*
%TO.N,Net-(D13-A)*%
X62530000Y-23770000D03*
%TO.N,Net-(D14-A)*%
X62250000Y-26820000D03*
%TO.N,Net-(D15-A)*%
X62270000Y-29780000D03*
%TO.N,Net-(Q1A-D)*%
X37400000Y-34060000D03*
X37390000Y-37070000D03*
%TO.N,Net-(D16-A)*%
X62190000Y-32750000D03*
%TO.N,Net-(D17-A)*%
X20222500Y-52701250D03*
%TO.N,Net-(D18-A)*%
X20162500Y-50921250D03*
%TO.N,2-CS*%
X38040000Y-55950000D03*
X44030000Y-62070000D03*
X57420000Y-55940000D03*
%TO.N,DIN*%
X65510000Y-27900000D03*
X66400000Y-18960000D03*
X38220000Y-49820000D03*
X54474500Y-27590000D03*
X66620000Y-49840000D03*
X38170000Y-30060000D03*
%TO.N,~{RDY}*%
X69190000Y-59620000D03*
X42180000Y-30770000D03*
X40700000Y-55100000D03*
X67970000Y-27750000D03*
%TO.N,~{RST}*%
X41660000Y-21720000D03*
X68920000Y-23750000D03*
X41670000Y-25860000D03*
X70620000Y-49320000D03*
X40730000Y-49990000D03*
%TO.N,DOUT*%
X44270000Y-60030000D03*
X54540000Y-30010000D03*
X75870000Y-20580000D03*
X54474500Y-25980000D03*
X45150000Y-33250000D03*
X71690000Y-59730000D03*
%TO.N,+3V3*%
X51440000Y-37870000D03*
X70710000Y-51520000D03*
X43350000Y-50050000D03*
X44210000Y-23650000D03*
X71710000Y-25650000D03*
X24092500Y-53821250D03*
%TO.N,2-CS_T1*%
X39400000Y-59820000D03*
X58600000Y-58650000D03*
X47790000Y-58920000D03*
X39300000Y-62170000D03*
%TO.N,2-CS_T2*%
X46820000Y-48280000D03*
X45870000Y-59990000D03*
X59970000Y-48850000D03*
%TO.N,CLK*%
X52140000Y-21704500D03*
X49020000Y-23770000D03*
X78030000Y-54360000D03*
X76790000Y-25380000D03*
X50510000Y-54310000D03*
%TO.N,2-CS_T3*%
X51240000Y-64170000D03*
X52920000Y-56990000D03*
X59480000Y-56990000D03*
%TO.N,1-CS*%
X39140000Y-35040000D03*
X51300000Y-47260000D03*
X46420000Y-47220000D03*
%TO.N,1-CS_T1*%
X55080000Y-44250000D03*
X52460000Y-44750000D03*
X53005000Y-34815500D03*
X44060000Y-35430000D03*
X45797299Y-31792701D03*
%TO.N,1-CS_T2*%
X47530000Y-37390000D03*
X52150000Y-40160000D03*
%TO.N,1-CS_T3*%
X54520000Y-32970000D03*
X52905500Y-32980000D03*
%TO.N,3-CS*%
X70420000Y-55550000D03*
X67890000Y-55590000D03*
X60440000Y-55570000D03*
X70700000Y-61880000D03*
%TO.N,3-CS_T1*%
X66470000Y-61960000D03*
X66490000Y-59370000D03*
X74250000Y-59020000D03*
%TO.N,3-CS_T2*%
X65050000Y-45350000D03*
X73680000Y-47170000D03*
X73800000Y-60090000D03*
%TO.N,3-CS_T3*%
X79330000Y-64150000D03*
X81520000Y-48550000D03*
X68210000Y-48440000D03*
%TO.N,4-CS*%
X65060000Y-36330000D03*
%TO.N,4-CS_T1*%
X73240000Y-38060000D03*
X63030000Y-35370000D03*
%TO.N,4-CS_T2*%
X73250000Y-39210000D03*
X63010000Y-39300000D03*
X73000000Y-33100000D03*
%TO.N,4-CS_T3*%
X61870000Y-40140000D03*
X75420000Y-29780000D03*
X79310000Y-30790000D03*
X74740000Y-36570000D03*
%TO.N,Net-(Q2B-D)*%
X42930000Y-25010000D03*
X44950000Y-36820000D03*
%TO.N,Net-(Q3B-D)*%
X42920000Y-59080000D03*
X42920000Y-53040000D03*
%TO.N,Net-(Q3A-D)*%
X44440000Y-54550000D03*
X44690000Y-63600000D03*
%TO.N,Net-(Q4B-D)*%
X37410000Y-57950000D03*
X38140000Y-64220000D03*
%TO.N,Net-(Q5A-D)*%
X72970000Y-56960000D03*
X72460000Y-63780000D03*
%TO.N,Net-(Q6B-D)*%
X67880000Y-57180000D03*
X67880000Y-63580000D03*
%TO.N,Net-(Q7A-D)*%
X69970000Y-24960000D03*
X70550000Y-37920000D03*
%TO.N,Net-(Q8B-D)*%
X67600000Y-30870000D03*
X68600000Y-36255500D03*
%TO.N,Net-(U4A--)*%
X43890000Y-37500000D03*
%TO.N,/current-sensing/V_{h1}*%
X59865500Y-23560000D03*
X35090000Y-21510000D03*
X37880000Y-39910000D03*
%TO.N,Net-(U4B--)*%
X44790000Y-46190000D03*
%TO.N,/current-sensing/V_{h2}*%
X42870000Y-46160000D03*
X61720000Y-22920000D03*
X59900000Y-44870000D03*
%TO.N,Net-(U6B--)*%
X78180000Y-36924500D03*
%TO.N,Net-(U6A--)*%
X77990000Y-46940000D03*
%TO.N,/current-sensing/V_{h4}*%
X59790000Y-33560000D03*
X79980000Y-36080000D03*
%TO.N,/current-sensing/V_{h3}*%
X81640000Y-44780000D03*
X58164500Y-32780000D03*
%TO.N,2-GND*%
X49500000Y-45510000D03*
X50530000Y-50010000D03*
X52980000Y-52000000D03*
%TO.N,1-GND*%
X51780000Y-25020000D03*
X47430000Y-30720000D03*
X45000000Y-38120000D03*
%TO.N,3-GND*%
X79330000Y-49530000D03*
X78060000Y-51800000D03*
X76950000Y-47640000D03*
%TO.N,4-GND*%
X79320000Y-25400000D03*
X74840000Y-37840000D03*
X77980000Y-28060000D03*
%TD*%
D27*
%TO.N,+9V*%
X45400000Y-42180000D02*
X46220000Y-41360000D01*
D28*
X36030000Y-42210000D02*
X34170000Y-42210000D01*
D27*
X74070000Y-43577500D02*
X73307500Y-43577500D01*
D28*
X36070000Y-42170000D02*
X36030000Y-42210000D01*
D27*
X46220000Y-41360000D02*
X46600000Y-41360000D01*
X50020000Y-42180000D02*
X49150000Y-41310000D01*
X77850000Y-42210000D02*
X77860000Y-42200000D01*
X76620000Y-43640000D02*
X77420000Y-43640000D01*
X73307500Y-43577500D02*
X72540000Y-42810000D01*
X72540000Y-42810000D02*
X72540000Y-42140000D01*
X77420000Y-43640000D02*
X77850000Y-43210000D01*
X77850000Y-43210000D02*
X77850000Y-42210000D01*
D29*
%TO.N,GND*%
X22780000Y-49891250D02*
X22780000Y-48303750D01*
X36117500Y-51000000D02*
X36117500Y-49612500D01*
X36117500Y-59780000D02*
X36117500Y-58527500D01*
X36117500Y-55482500D02*
X36140000Y-55460000D01*
X63837500Y-29687500D02*
X63840000Y-29690000D01*
X63837500Y-51000000D02*
X63837500Y-49977500D01*
X36117500Y-56780000D02*
X36117500Y-55482500D01*
X63837500Y-57000000D02*
X63837500Y-54000000D01*
X36140000Y-29430000D02*
X36140000Y-30977500D01*
X36140000Y-30977500D02*
X36117500Y-31000000D01*
X63837500Y-61817500D02*
X63850000Y-61830000D01*
X63837500Y-31000000D02*
X63837500Y-29692500D01*
X63837500Y-28000000D02*
X63837500Y-26432500D01*
X63837500Y-34000000D02*
X64470000Y-34000000D01*
X36117500Y-51000000D02*
X36117500Y-52577500D01*
D27*
X29610000Y-42210000D02*
X29620000Y-42220000D01*
D29*
X36170000Y-32460000D02*
X36170000Y-33947500D01*
X80382500Y-37253000D02*
X80995500Y-36640000D01*
X36117500Y-25000000D02*
X36117500Y-23592500D01*
D27*
X27770000Y-42210000D02*
X29610000Y-42210000D01*
D29*
X81540000Y-43070000D02*
X81550000Y-43080000D01*
X41115000Y-37560000D02*
X41115000Y-37775000D01*
X63837500Y-51000000D02*
X63837500Y-52577500D01*
X42690000Y-39350000D02*
X46090000Y-39350000D01*
X36117500Y-31000000D02*
X36117500Y-32407500D01*
X36117500Y-56780000D02*
X36117500Y-58332500D01*
D27*
X25600000Y-42210000D02*
X27770000Y-42210000D01*
D29*
X36117500Y-25000000D02*
X36117500Y-26447500D01*
X37570000Y-45040000D02*
X36630000Y-45980000D01*
X22792500Y-51781250D02*
X22780000Y-51793750D01*
X63837500Y-29692500D02*
X63840000Y-29690000D01*
X36117500Y-54000000D02*
X36117500Y-52662500D01*
X36117500Y-28000000D02*
X36117500Y-26452500D01*
X36117500Y-54000000D02*
X36117500Y-55437500D01*
X36117500Y-55437500D02*
X36140000Y-55460000D01*
X41115000Y-37560000D02*
X40710000Y-37155000D01*
X36170000Y-33947500D02*
X36117500Y-34000000D01*
X22780000Y-51793750D02*
X22780000Y-53831250D01*
X36117500Y-29407500D02*
X36140000Y-29430000D01*
X63837500Y-26432500D02*
X63840000Y-26430000D01*
X46090000Y-39350000D02*
X46580000Y-38860000D01*
X63837500Y-58657500D02*
X63830000Y-58650000D01*
X63837500Y-49977500D02*
X63500000Y-49640000D01*
D30*
X55320000Y-54620000D02*
X55320000Y-59540000D01*
D29*
X36117500Y-26447500D02*
X36120000Y-26450000D01*
X63837500Y-60000000D02*
X63837500Y-61817500D01*
X36117500Y-49612500D02*
X36120000Y-49610000D01*
X41740000Y-47560000D02*
X42947500Y-47560000D01*
X41730000Y-47550000D02*
X41740000Y-47560000D01*
X64470000Y-34000000D02*
X65140000Y-33330000D01*
X58710000Y-37790000D02*
X58710000Y-39720000D01*
X41115000Y-37775000D02*
X42690000Y-39350000D01*
X22780000Y-48303750D02*
X22782500Y-48301250D01*
X57840000Y-24870000D02*
X59380000Y-26410000D01*
X63837500Y-31000000D02*
X63837500Y-32417500D01*
X63837500Y-52577500D02*
X63840000Y-52580000D01*
X36117500Y-52577500D02*
X36160000Y-52620000D01*
D27*
X27770000Y-45740000D02*
X27780000Y-45750000D01*
D29*
X36117500Y-28000000D02*
X36117500Y-29407500D01*
X63837500Y-25000000D02*
X63837500Y-23422500D01*
X63837500Y-23422500D02*
X63840000Y-23420000D01*
X80382500Y-38120000D02*
X80382500Y-37253000D01*
X40710000Y-30510000D02*
X40760000Y-30460000D01*
X63837500Y-34000000D02*
X63837500Y-32482500D01*
D27*
X27770000Y-42210000D02*
X27770000Y-45740000D01*
D29*
X63837500Y-32482500D02*
X63870000Y-32450000D01*
X36117500Y-59780000D02*
X36117500Y-61647500D01*
X36117500Y-26452500D02*
X36120000Y-26450000D01*
X63837500Y-28000000D02*
X63837500Y-29687500D01*
X36117500Y-32407500D02*
X36170000Y-32460000D01*
X58710000Y-39720000D02*
X58670000Y-39760000D01*
X22780000Y-51768750D02*
X22792500Y-51781250D01*
X37570000Y-44870000D02*
X37570000Y-45040000D01*
X22780000Y-49891250D02*
X22780000Y-51768750D01*
X63837500Y-26427500D02*
X63840000Y-26430000D01*
X36117500Y-58332500D02*
X36020000Y-58430000D01*
X36117500Y-52662500D02*
X36160000Y-52620000D01*
X66330000Y-47090000D02*
X66330000Y-46450000D01*
X63837500Y-60000000D02*
X63837500Y-58657500D01*
X22780000Y-55453750D02*
X22762500Y-55471250D01*
X63837500Y-32417500D02*
X63870000Y-32450000D01*
X40710000Y-37155000D02*
X40710000Y-30510000D01*
X63837500Y-58642500D02*
X63830000Y-58650000D01*
X63837500Y-54000000D02*
X63837500Y-52582500D01*
X57840000Y-23800000D02*
X57840000Y-24870000D01*
X36117500Y-58527500D02*
X36020000Y-58430000D01*
X36117500Y-61647500D02*
X36130000Y-61660000D01*
D30*
X55320000Y-59540000D02*
X55280000Y-59580000D01*
D29*
X63837500Y-52582500D02*
X63840000Y-52580000D01*
X80200000Y-43070000D02*
X81540000Y-43070000D01*
X66330000Y-46450000D02*
X67590000Y-45190000D01*
X36117500Y-23592500D02*
X36120000Y-23590000D01*
X63837500Y-25000000D02*
X63837500Y-26427500D01*
X22780000Y-53831250D02*
X22780000Y-55453750D01*
X63837500Y-57000000D02*
X63837500Y-58642500D01*
X80852500Y-46920000D02*
X82000000Y-46920000D01*
%TO.N,+5V*%
X58900000Y-35750000D02*
X58900000Y-28790000D01*
X40620000Y-44870000D02*
X40650000Y-44840000D01*
X39470000Y-44870000D02*
X40620000Y-44870000D01*
X82790000Y-36130000D02*
X82790000Y-39120000D01*
X40650000Y-44160000D02*
X32480000Y-35990000D01*
X82750000Y-36090000D02*
X82790000Y-36130000D01*
X32210000Y-62150000D02*
X30970000Y-60910000D01*
X30970000Y-60910000D02*
X30970000Y-36020000D01*
X80740000Y-41170000D02*
X80200000Y-41170000D01*
X82790000Y-39120000D02*
X80740000Y-41170000D01*
X32480000Y-35990000D02*
X31000000Y-35990000D01*
X30970000Y-36020000D02*
X31000000Y-35990000D01*
X40650000Y-44840000D02*
X40650000Y-44160000D01*
X58164500Y-28310000D02*
X59380000Y-28310000D01*
X58900000Y-28790000D02*
X59380000Y-28310000D01*
%TO.N,2-Heater*%
X47890000Y-43577500D02*
X47950000Y-43637500D01*
D27*
X49290000Y-55900000D02*
X49290000Y-56990000D01*
X48040000Y-54650000D02*
X49290000Y-55900000D01*
D30*
X47950000Y-43637500D02*
X47950000Y-45010000D01*
D27*
X48040000Y-45100000D02*
X48040000Y-54650000D01*
D29*
%TO.N,Net-(D1-A)*%
X34542500Y-34000000D02*
X34542500Y-33922500D01*
X34542500Y-33922500D02*
X33610000Y-32990000D01*
D30*
%TO.N,1-Heater*%
X47890000Y-41302500D02*
X47890000Y-39750000D01*
D27*
X47930000Y-39710000D02*
X49290000Y-38350000D01*
D29*
X47890000Y-39750000D02*
X47930000Y-39710000D01*
D27*
X49290000Y-38350000D02*
X49290000Y-32990000D01*
D29*
%TO.N,Net-(D2-A)*%
X34542500Y-30822500D02*
X33700000Y-29980000D01*
X34542500Y-31000000D02*
X34542500Y-30822500D01*
D30*
%TO.N,3-Heater*%
X75360000Y-43577500D02*
X75360000Y-44870000D01*
D27*
X76790000Y-56940000D02*
X76790000Y-55040000D01*
X75530000Y-53780000D02*
X75530000Y-45040000D01*
X76790000Y-55040000D02*
X75530000Y-53780000D01*
D30*
X75360000Y-44870000D02*
X75370000Y-44880000D01*
D29*
%TO.N,Net-(D3-A)*%
X34542500Y-24842500D02*
X33620000Y-23920000D01*
X34542500Y-25000000D02*
X34542500Y-24842500D01*
D27*
%TO.N,4-Heater*%
X76790000Y-38360000D02*
X76790000Y-32940000D01*
X75360000Y-39790000D02*
X76790000Y-38360000D01*
D30*
X75360000Y-41302500D02*
X75360000Y-39790000D01*
D29*
%TO.N,Net-(D4-A)*%
X34542500Y-28000000D02*
X34542500Y-27842500D01*
X34542500Y-27842500D02*
X33620000Y-26920000D01*
%TO.N,S-D8*%
X56920000Y-19430000D02*
X56920000Y-35840000D01*
X58510000Y-17840000D02*
X56920000Y-19430000D01*
X57440000Y-37790000D02*
X57440000Y-36360000D01*
X57440000Y-36360000D02*
X56920000Y-35840000D01*
%TO.N,Net-(D5-A)*%
X34542500Y-51000000D02*
X34542500Y-50872500D01*
X34542500Y-50872500D02*
X33540000Y-49870000D01*
%TO.N,S-D9*%
X56170000Y-37790000D02*
X56320000Y-37640000D01*
X56320000Y-37640000D02*
X56320000Y-18190000D01*
X56320000Y-18190000D02*
X55970000Y-17840000D01*
%TO.N,Net-(D6-A)*%
X34542500Y-54000000D02*
X34542500Y-53862500D01*
X34542500Y-53862500D02*
X33610000Y-52930000D01*
%TO.N,S-D10*%
X54900000Y-37790000D02*
X54900000Y-37010000D01*
X55370000Y-36540000D02*
X55370000Y-19780000D01*
X55370000Y-19780000D02*
X53430000Y-17840000D01*
X54900000Y-37010000D02*
X55370000Y-36540000D01*
%TO.N,Net-(D7-A)*%
X34542500Y-56780000D02*
X34542500Y-56762500D01*
X34542500Y-56762500D02*
X33420000Y-55640000D01*
%TO.N,S-D11*%
X53750000Y-20700000D02*
X50890000Y-17840000D01*
X53750000Y-37670000D02*
X53750000Y-20700000D01*
X53630000Y-37790000D02*
X53750000Y-37670000D01*
%TO.N,Net-(D8-A)*%
X34542500Y-59780000D02*
X34542500Y-59762500D01*
X34542500Y-59762500D02*
X33490000Y-58710000D01*
%TO.N,H1-D12*%
X44397500Y-43577500D02*
X40030000Y-39210000D01*
X40030000Y-39210000D02*
X40030000Y-23140000D01*
X40014695Y-23140000D02*
X35650000Y-18775305D01*
X46940000Y-43577500D02*
X44397500Y-43577500D01*
X40030000Y-23140000D02*
X40014695Y-23140000D01*
X35650000Y-18775305D02*
X35650000Y-17840000D01*
%TO.N,Net-(D9-A)*%
X62262500Y-52182500D02*
X62290000Y-52210000D01*
X62262500Y-51000000D02*
X62262500Y-52182500D01*
%TO.N,H2-D13*%
X50672500Y-43577500D02*
X48840000Y-43577500D01*
X50250000Y-19760000D02*
X50250000Y-39280000D01*
X49630000Y-19140000D02*
X50250000Y-19760000D01*
X50890000Y-43360000D02*
X50672500Y-43577500D01*
X50890000Y-39920000D02*
X50890000Y-43360000D01*
X50250000Y-39280000D02*
X50890000Y-39920000D01*
%TO.N,Net-(D10-A)*%
X62262500Y-53902500D02*
X61340000Y-52980000D01*
X62262500Y-54000000D02*
X62262500Y-53902500D01*
%TO.N,H3-D18*%
X81720000Y-38950000D02*
X80720000Y-39950000D01*
X81720000Y-35520000D02*
X81720000Y-38950000D01*
X80690000Y-21630000D02*
X80680000Y-21640000D01*
X77662500Y-39950000D02*
X76310000Y-41302500D01*
X80720000Y-39950000D02*
X77662500Y-39950000D01*
X48350000Y-21120000D02*
X48350000Y-17840000D01*
X80680000Y-34480000D02*
X81720000Y-35520000D01*
X80680000Y-21640000D02*
X80680000Y-34480000D01*
%TO.N,Net-(D11-A)*%
X62262500Y-57107500D02*
X61210000Y-58160000D01*
X62262500Y-57000000D02*
X62262500Y-57107500D01*
%TO.N,H4-D19*%
X71370000Y-39820000D02*
X72852500Y-41302500D01*
X70790000Y-35970000D02*
X71370000Y-36550000D01*
X45810000Y-20270000D02*
X45810000Y-17840000D01*
X71370000Y-36550000D02*
X71370000Y-39820000D01*
X72852500Y-41302500D02*
X74410000Y-41302500D01*
X70790000Y-20440000D02*
X70790000Y-35970000D01*
%TO.N,Net-(D12-A)*%
X62250000Y-60000000D02*
X61120000Y-61130000D01*
X62262500Y-60000000D02*
X62250000Y-60000000D01*
%TO.N,CS*%
X72730000Y-22140000D02*
X72730000Y-17840000D01*
%TO.N,Net-(D13-A)*%
X62262500Y-24037500D02*
X62530000Y-23770000D01*
X62262500Y-25000000D02*
X62262500Y-24037500D01*
%TO.N,~{ENABLE}*%
X60330000Y-37440000D02*
X59980000Y-37790000D01*
X60330000Y-36530000D02*
X60330000Y-37440000D01*
X60590000Y-22360000D02*
X60590000Y-36270000D01*
X60590000Y-36270000D02*
X60330000Y-36530000D01*
X65110000Y-17840000D02*
X60590000Y-22360000D01*
%TO.N,Net-(D14-A)*%
X62262500Y-28000000D02*
X62262500Y-26832500D01*
X62262500Y-26832500D02*
X62250000Y-26820000D01*
%TO.N,Net-(D15-A)*%
X62262500Y-29787500D02*
X62270000Y-29780000D01*
X62262500Y-31000000D02*
X62262500Y-29787500D01*
%TO.N,Net-(Q1A-D)*%
X37400000Y-34060000D02*
X37400000Y-37060000D01*
X37400000Y-37060000D02*
X37390000Y-37070000D01*
%TO.N,Net-(D16-A)*%
X62262500Y-34000000D02*
X62262500Y-32822500D01*
X62262500Y-32822500D02*
X62190000Y-32750000D01*
%TO.N,Net-(D17-A)*%
X21205000Y-53683750D02*
X20222500Y-52701250D01*
X21205000Y-53831250D02*
X21205000Y-53683750D01*
%TO.N,Net-(D18-A)*%
X21192500Y-49891250D02*
X20162500Y-50921250D01*
X21205000Y-49891250D02*
X21192500Y-49891250D01*
%TO.N,2-CS*%
X57440000Y-47090000D02*
X57440000Y-55920000D01*
X44030000Y-62070000D02*
X43170000Y-62070000D01*
X38090000Y-55950000D02*
X39130000Y-56990000D01*
X57440000Y-55920000D02*
X57420000Y-55940000D01*
X39130000Y-58030000D02*
X39130000Y-56990000D01*
X38040000Y-55950000D02*
X38090000Y-55950000D01*
X43170000Y-62070000D02*
X39130000Y-58030000D01*
%TO.N,DIN*%
X66620000Y-51880000D02*
X66630000Y-51890000D01*
X66620000Y-49840000D02*
X66620000Y-51880000D01*
X65520000Y-27890000D02*
X65510000Y-27900000D01*
X38170000Y-30060000D02*
X38170000Y-30040000D01*
X66630000Y-19190000D02*
X66630000Y-27890000D01*
X39130000Y-50730000D02*
X38220000Y-49820000D01*
X66400000Y-18960000D02*
X66630000Y-19190000D01*
X66630000Y-27890000D02*
X65520000Y-27890000D01*
X38170000Y-30040000D02*
X39130000Y-29080000D01*
X39130000Y-29080000D02*
X39130000Y-27940000D01*
X39130000Y-51940000D02*
X39130000Y-50730000D01*
%TO.N,~{RDY}*%
X41670000Y-32990000D02*
X41670000Y-31280000D01*
X69170000Y-56940000D02*
X69170000Y-59600000D01*
X40700000Y-56020000D02*
X41670000Y-56990000D01*
X67650000Y-17840000D02*
X67970000Y-18160000D01*
X69410000Y-33180000D02*
X69410000Y-49050000D01*
X67870000Y-53315000D02*
X69170000Y-54615000D01*
X67970000Y-29780000D02*
X69170000Y-30980000D01*
X69170000Y-59600000D02*
X69190000Y-59620000D01*
X41670000Y-31280000D02*
X42180000Y-30770000D01*
X67870000Y-50590000D02*
X67870000Y-53315000D01*
X40700000Y-55100000D02*
X40700000Y-56020000D01*
X69170000Y-54615000D02*
X69170000Y-56940000D01*
X69410000Y-49050000D02*
X67870000Y-50590000D01*
X67970000Y-18160000D02*
X67970000Y-29780000D01*
X69170000Y-30980000D02*
X69170000Y-32940000D01*
X69170000Y-32940000D02*
X69410000Y-33180000D01*
%TO.N,~{RST}*%
X68820000Y-23850000D02*
X68820000Y-27540000D01*
X70190000Y-17840000D02*
X68820000Y-19210000D01*
X68820000Y-23650000D02*
X68920000Y-23750000D01*
X41670000Y-21730000D02*
X41660000Y-21720000D01*
X69170000Y-50770000D02*
X70620000Y-49320000D01*
X69170000Y-51890000D02*
X69170000Y-50770000D01*
X68820000Y-27540000D02*
X69170000Y-27890000D01*
X41670000Y-25860000D02*
X41670000Y-21730000D01*
X68820000Y-19210000D02*
X68820000Y-23650000D01*
X41670000Y-50930000D02*
X40730000Y-49990000D01*
X41670000Y-51940000D02*
X41670000Y-50930000D01*
X41670000Y-27940000D02*
X41670000Y-25860000D01*
X68920000Y-23750000D02*
X68820000Y-23850000D01*
%TO.N,DOUT*%
X44270000Y-60030000D02*
X44210000Y-59970000D01*
X44890000Y-32990000D02*
X45150000Y-33250000D01*
X44210000Y-59970000D02*
X44210000Y-56990000D01*
X71710000Y-31950000D02*
X71710000Y-32940000D01*
X75870000Y-20580000D02*
X75870000Y-23525305D01*
X73300000Y-30360000D02*
X71710000Y-31950000D01*
X44210000Y-32990000D02*
X44890000Y-32990000D01*
X73300000Y-26095305D02*
X73300000Y-30360000D01*
X71710000Y-59710000D02*
X71690000Y-59730000D01*
X71710000Y-56940000D02*
X71710000Y-59710000D01*
X75870000Y-23525305D02*
X73300000Y-26095305D01*
%TO.N,+3V3*%
X52280000Y-37870000D02*
X52360000Y-37790000D01*
D27*
X71710000Y-27890000D02*
X71710000Y-25650000D01*
X71710000Y-51890000D02*
X71080000Y-51890000D01*
X71080000Y-51890000D02*
X70710000Y-51520000D01*
X44210000Y-51940000D02*
X44210000Y-50910000D01*
X44210000Y-50910000D02*
X43350000Y-50050000D01*
D29*
X51440000Y-37870000D02*
X52280000Y-37870000D01*
D27*
X44210000Y-27940000D02*
X44210000Y-23650000D01*
D29*
%TO.N,2-CS_T1*%
X47110000Y-58920000D02*
X46750000Y-58560000D01*
X58600000Y-58650000D02*
X58570000Y-58620000D01*
X39400000Y-59820000D02*
X39300000Y-59920000D01*
X47790000Y-58920000D02*
X47110000Y-58920000D01*
X39300000Y-59920000D02*
X39300000Y-62170000D01*
X58570000Y-58620000D02*
X58570000Y-47230000D01*
X46750000Y-58560000D02*
X46750000Y-56990000D01*
X58570000Y-47230000D02*
X58710000Y-47090000D01*
%TO.N,2-CS_T2*%
X46750000Y-53010000D02*
X46750000Y-51940000D01*
X45750000Y-54010000D02*
X46750000Y-53010000D01*
X59980000Y-48840000D02*
X59970000Y-48850000D01*
X46780000Y-51910000D02*
X46750000Y-51940000D01*
X45750000Y-59870000D02*
X45750000Y-54010000D01*
X59980000Y-47090000D02*
X59980000Y-48840000D01*
X46820000Y-48280000D02*
X46780000Y-48320000D01*
X46780000Y-48320000D02*
X46780000Y-51910000D01*
X45870000Y-59990000D02*
X45750000Y-59870000D01*
%TO.N,CLK*%
X49290000Y-24040000D02*
X49290000Y-27940000D01*
X76790000Y-51890000D02*
X76790000Y-53120000D01*
X76790000Y-53120000D02*
X78030000Y-54360000D01*
X76790000Y-25380000D02*
X76790000Y-19360000D01*
X76790000Y-19360000D02*
X75270000Y-17840000D01*
X49020000Y-23770000D02*
X49290000Y-24040000D01*
X76790000Y-27890000D02*
X76790000Y-25380000D01*
X49290000Y-51940000D02*
X49290000Y-53090000D01*
X49290000Y-53090000D02*
X50510000Y-54310000D01*
%TO.N,2-CS_T3*%
X59470000Y-55910000D02*
X59470000Y-56980000D01*
X51830000Y-63580000D02*
X51830000Y-56990000D01*
X59470000Y-50710000D02*
X59470000Y-55910000D01*
X61250000Y-48930000D02*
X59470000Y-50710000D01*
X59470000Y-56980000D02*
X59480000Y-56990000D01*
X51240000Y-64170000D02*
X51830000Y-63580000D01*
X61250000Y-47090000D02*
X61250000Y-48930000D01*
X52920000Y-56990000D02*
X51830000Y-56990000D01*
%TO.N,1-CS*%
X39130000Y-32990000D02*
X39130000Y-35030000D01*
X52190000Y-47260000D02*
X52360000Y-47090000D01*
X39140000Y-35040000D02*
X39140000Y-39290000D01*
X46420000Y-46570000D02*
X46420000Y-47220000D01*
X39140000Y-39290000D02*
X46420000Y-46570000D01*
X51300000Y-47260000D02*
X52190000Y-47260000D01*
X39130000Y-35030000D02*
X39140000Y-35040000D01*
%TO.N,1-CS_T1*%
X53630000Y-47090000D02*
X53630000Y-45920000D01*
X44060000Y-35430000D02*
X45380000Y-35430000D01*
X52985000Y-42155000D02*
X55080000Y-44250000D01*
X45797299Y-31792701D02*
X46750000Y-32745402D01*
X46750000Y-34060000D02*
X46750000Y-32990000D01*
X53630000Y-45920000D02*
X52460000Y-44750000D01*
X52985000Y-34835500D02*
X52985000Y-42155000D01*
X46750000Y-32745402D02*
X46750000Y-32990000D01*
X53005000Y-34815500D02*
X52985000Y-34835500D01*
X45380000Y-35430000D02*
X46750000Y-34060000D01*
%TO.N,1-CS_T2*%
X54750000Y-46940000D02*
X54750000Y-45260000D01*
X52150000Y-42660000D02*
X52150000Y-40160000D01*
X47700000Y-27940000D02*
X46750000Y-27940000D01*
X48240000Y-28480000D02*
X47700000Y-27940000D01*
X54750000Y-45260000D02*
X52150000Y-42660000D01*
X47530000Y-37390000D02*
X48240000Y-36680000D01*
X54900000Y-47090000D02*
X54750000Y-46940000D01*
X48240000Y-36680000D02*
X48240000Y-28480000D01*
%TO.N,1-CS_T3*%
X54520000Y-32970000D02*
X54255000Y-33235000D01*
X54255000Y-33235000D02*
X54255000Y-42115000D01*
X52895500Y-32990000D02*
X51830000Y-32990000D01*
X56170000Y-44030000D02*
X56170000Y-47090000D01*
X54255000Y-42115000D02*
X56170000Y-44030000D01*
X52905500Y-32980000D02*
X52940000Y-33014500D01*
X52905500Y-32980000D02*
X52895500Y-32990000D01*
%TO.N,3-CS*%
X66990000Y-55590000D02*
X66630000Y-55950000D01*
X66630000Y-55950000D02*
X66630000Y-56940000D01*
X60440000Y-50570000D02*
X62520000Y-48490000D01*
X62520000Y-48490000D02*
X62520000Y-47090000D01*
X70420000Y-55550000D02*
X70420000Y-61600000D01*
X67890000Y-55590000D02*
X66990000Y-55590000D01*
X60440000Y-55570000D02*
X60440000Y-50570000D01*
X70420000Y-61600000D02*
X70700000Y-61880000D01*
%TO.N,3-CS_T1*%
X63790000Y-48690000D02*
X63790000Y-47090000D01*
X66490000Y-59370000D02*
X66470000Y-59390000D01*
X66490000Y-59370000D02*
X65440000Y-58320000D01*
X65440000Y-50340000D02*
X63790000Y-48690000D01*
X74250000Y-59020000D02*
X74250000Y-56940000D01*
X66470000Y-59390000D02*
X66470000Y-61960000D01*
X65440000Y-58320000D02*
X65440000Y-50340000D01*
%TO.N,3-CS_T2*%
X75300000Y-55320000D02*
X74250000Y-54270000D01*
X74540000Y-60090000D02*
X75300000Y-59330000D01*
X65060000Y-47090000D02*
X65060000Y-45360000D01*
X65060000Y-45360000D02*
X65050000Y-45350000D01*
X75300000Y-59330000D02*
X75300000Y-55320000D01*
X73680000Y-47170000D02*
X74250000Y-47740000D01*
X74250000Y-47740000D02*
X74250000Y-51890000D01*
X74250000Y-54270000D02*
X74250000Y-51890000D01*
X73800000Y-60090000D02*
X74540000Y-60090000D01*
%TO.N,3-CS_T3*%
X81520000Y-53690000D02*
X79330000Y-55880000D01*
X68750000Y-47900000D02*
X68750000Y-40900000D01*
X79330000Y-55880000D02*
X79330000Y-56940000D01*
X81520000Y-48550000D02*
X81520000Y-53690000D01*
X68750000Y-40900000D02*
X66330000Y-38480000D01*
X79330000Y-64150000D02*
X79330000Y-56940000D01*
X68210000Y-48440000D02*
X68750000Y-47900000D01*
X66330000Y-38480000D02*
X66330000Y-37790000D01*
%TO.N,4-CS*%
X65060000Y-36330000D02*
X65060000Y-35570000D01*
X65060000Y-37790000D02*
X65060000Y-36330000D01*
X65060000Y-35570000D02*
X66630000Y-34000000D01*
X66630000Y-34000000D02*
X66630000Y-32940000D01*
%TO.N,4-CS_T1*%
X63790000Y-36130000D02*
X63790000Y-37790000D01*
X63030000Y-35370000D02*
X63790000Y-36130000D01*
X63840000Y-37840000D02*
X63790000Y-37790000D01*
X73780000Y-33410000D02*
X74250000Y-32940000D01*
X73780000Y-37520000D02*
X73780000Y-33410000D01*
X73240000Y-38060000D02*
X73780000Y-37520000D01*
%TO.N,4-CS_T2*%
X74250000Y-30150000D02*
X74250000Y-27890000D01*
X73000000Y-33100000D02*
X73000000Y-31400000D01*
X73000000Y-31400000D02*
X74250000Y-30150000D01*
X63010000Y-39300000D02*
X62774695Y-39300000D01*
X62774695Y-39300000D02*
X62520000Y-39045305D01*
X62520000Y-39045305D02*
X62520000Y-37790000D01*
%TO.N,4-CS_T3*%
X75220000Y-36090000D02*
X74740000Y-36570000D01*
X61250000Y-39520000D02*
X61870000Y-40140000D01*
X75220000Y-29980000D02*
X75220000Y-36090000D01*
X75420000Y-29780000D02*
X75220000Y-29980000D01*
X61250000Y-37790000D02*
X61250000Y-39520000D01*
X79310000Y-30790000D02*
X79310000Y-32920000D01*
X79310000Y-32920000D02*
X79330000Y-32940000D01*
%TO.N,Net-(Q2B-D)*%
X42940000Y-25020000D02*
X42930000Y-25010000D01*
X44950000Y-36820000D02*
X44290000Y-36820000D01*
X42940000Y-35470000D02*
X42940000Y-25020000D01*
X44290000Y-36820000D02*
X42940000Y-35470000D01*
%TO.N,Net-(Q3B-D)*%
X42920000Y-53040000D02*
X42920000Y-59080000D01*
%TO.N,Net-(Q3A-D)*%
X45145000Y-55255000D02*
X45145000Y-63145000D01*
X44440000Y-54550000D02*
X45145000Y-55255000D01*
X45145000Y-63145000D02*
X44690000Y-63600000D01*
%TO.N,Net-(Q4B-D)*%
X38140000Y-58680000D02*
X37410000Y-57950000D01*
X38140000Y-64220000D02*
X38140000Y-58680000D01*
%TO.N,Net-(Q5A-D)*%
X72970000Y-56960000D02*
X72610000Y-57320000D01*
X72610000Y-63630000D02*
X72460000Y-63780000D01*
X72610000Y-57320000D02*
X72610000Y-63630000D01*
%TO.N,Net-(Q6B-D)*%
X67880000Y-63580000D02*
X67880000Y-57180000D01*
%TO.N,Net-(Q7A-D)*%
X70170000Y-37540000D02*
X70550000Y-37920000D01*
X69970000Y-24960000D02*
X70170000Y-25160000D01*
X70170000Y-25160000D02*
X70170000Y-37540000D01*
%TO.N,Net-(Q8B-D)*%
X68600000Y-36255500D02*
X67600000Y-35255500D01*
X67600000Y-35255500D02*
X67600000Y-30870000D01*
%TO.N,Net-(U4A--)*%
X43000000Y-37500000D02*
X42940000Y-37560000D01*
X43890000Y-37500000D02*
X43000000Y-37500000D01*
%TO.N,Net-(U4B--)*%
X44772500Y-46207500D02*
X44790000Y-46190000D01*
X44772500Y-47560000D02*
X44772500Y-46207500D01*
%TO.N,Net-(U6B--)*%
X78557500Y-37302000D02*
X78180000Y-36924500D01*
X78557500Y-38120000D02*
X78557500Y-37302000D01*
X78180000Y-36924500D02*
X78269500Y-36924500D01*
%TO.N,Net-(U6A--)*%
X79007500Y-46940000D02*
X79027500Y-46920000D01*
X77990000Y-46940000D02*
X79007500Y-46940000D01*
D27*
%TO.N,2-GND*%
X51890000Y-52000000D02*
X51830000Y-51940000D01*
D29*
X49500000Y-48980000D02*
X50530000Y-50010000D01*
X49500000Y-45510000D02*
X49500000Y-48980000D01*
D27*
X52980000Y-52000000D02*
X51890000Y-52000000D01*
D29*
%TO.N,1-GND*%
X47680000Y-30970000D02*
X47680000Y-35440000D01*
D27*
X51830000Y-25070000D02*
X51780000Y-25020000D01*
X51830000Y-27940000D02*
X51830000Y-25070000D01*
D29*
X47680000Y-35440000D02*
X45000000Y-38120000D01*
X47430000Y-30720000D02*
X47680000Y-30970000D01*
%TO.N,3-GND*%
X76950000Y-47640000D02*
X76950000Y-48530000D01*
X78060000Y-49640000D02*
X78060000Y-51800000D01*
D27*
X79330000Y-51890000D02*
X79330000Y-49530000D01*
D29*
X76950000Y-48530000D02*
X78060000Y-49640000D01*
%TO.N,4-GND*%
X75820000Y-36860000D02*
X75820000Y-31185000D01*
X74840000Y-37840000D02*
X75820000Y-36860000D01*
D27*
X79330000Y-25410000D02*
X79320000Y-25400000D01*
D29*
X76405000Y-30600000D02*
X77460000Y-30600000D01*
X75820000Y-31185000D02*
X76405000Y-30600000D01*
X77460000Y-30600000D02*
X77980000Y-30080000D01*
D27*
X79330000Y-27890000D02*
X79330000Y-25410000D01*
D29*
X77980000Y-30080000D02*
X77980000Y-28060000D01*
%TD*%
M02*
