%TF.GenerationSoftware,KiCad,Pcbnew,7.0.7*%
%TF.CreationDate,2024-05-31T10:52:30+02:00*%
%TF.ProjectId,control-board_v1,636f6e74-726f-46c2-9d62-6f6172645f76,rev?*%
%TF.SameCoordinates,Original*%
%TF.FileFunction,Legend,Bot*%
%TF.FilePolarity,Positive*%
%FSLAX46Y46*%
G04 Gerber Fmt 4.6, Leading zero omitted, Abs format (unit mm)*
G04 Created by KiCad (PCBNEW 7.0.7) date 2024-05-31 10:52:30*
%MOMM*%
%LPD*%
G01*
G04 APERTURE LIST*
%ADD10C,0.150000*%
%ADD11C,0.120000*%
G04 APERTURE END LIST*
D10*
X60696666Y-51464819D02*
X61029999Y-50988628D01*
X61268094Y-51464819D02*
X61268094Y-50464819D01*
X61268094Y-50464819D02*
X60887142Y-50464819D01*
X60887142Y-50464819D02*
X60791904Y-50512438D01*
X60791904Y-50512438D02*
X60744285Y-50560057D01*
X60744285Y-50560057D02*
X60696666Y-50655295D01*
X60696666Y-50655295D02*
X60696666Y-50798152D01*
X60696666Y-50798152D02*
X60744285Y-50893390D01*
X60744285Y-50893390D02*
X60791904Y-50941009D01*
X60791904Y-50941009D02*
X60887142Y-50988628D01*
X60887142Y-50988628D02*
X61268094Y-50988628D01*
X60220475Y-51464819D02*
X60029999Y-51464819D01*
X60029999Y-51464819D02*
X59934761Y-51417200D01*
X59934761Y-51417200D02*
X59887142Y-51369580D01*
X59887142Y-51369580D02*
X59791904Y-51226723D01*
X59791904Y-51226723D02*
X59744285Y-51036247D01*
X59744285Y-51036247D02*
X59744285Y-50655295D01*
X59744285Y-50655295D02*
X59791904Y-50560057D01*
X59791904Y-50560057D02*
X59839523Y-50512438D01*
X59839523Y-50512438D02*
X59934761Y-50464819D01*
X59934761Y-50464819D02*
X60125237Y-50464819D01*
X60125237Y-50464819D02*
X60220475Y-50512438D01*
X60220475Y-50512438D02*
X60268094Y-50560057D01*
X60268094Y-50560057D02*
X60315713Y-50655295D01*
X60315713Y-50655295D02*
X60315713Y-50893390D01*
X60315713Y-50893390D02*
X60268094Y-50988628D01*
X60268094Y-50988628D02*
X60220475Y-51036247D01*
X60220475Y-51036247D02*
X60125237Y-51083866D01*
X60125237Y-51083866D02*
X59934761Y-51083866D01*
X59934761Y-51083866D02*
X59839523Y-51036247D01*
X59839523Y-51036247D02*
X59791904Y-50988628D01*
X59791904Y-50988628D02*
X59744285Y-50893390D01*
X32886666Y-28514819D02*
X33219999Y-28038628D01*
X33458094Y-28514819D02*
X33458094Y-27514819D01*
X33458094Y-27514819D02*
X33077142Y-27514819D01*
X33077142Y-27514819D02*
X32981904Y-27562438D01*
X32981904Y-27562438D02*
X32934285Y-27610057D01*
X32934285Y-27610057D02*
X32886666Y-27705295D01*
X32886666Y-27705295D02*
X32886666Y-27848152D01*
X32886666Y-27848152D02*
X32934285Y-27943390D01*
X32934285Y-27943390D02*
X32981904Y-27991009D01*
X32981904Y-27991009D02*
X33077142Y-28038628D01*
X33077142Y-28038628D02*
X33458094Y-28038628D01*
X32029523Y-27848152D02*
X32029523Y-28514819D01*
X32267618Y-27467200D02*
X32505713Y-28181485D01*
X32505713Y-28181485D02*
X31886666Y-28181485D01*
X32936666Y-25514819D02*
X33269999Y-25038628D01*
X33508094Y-25514819D02*
X33508094Y-24514819D01*
X33508094Y-24514819D02*
X33127142Y-24514819D01*
X33127142Y-24514819D02*
X33031904Y-24562438D01*
X33031904Y-24562438D02*
X32984285Y-24610057D01*
X32984285Y-24610057D02*
X32936666Y-24705295D01*
X32936666Y-24705295D02*
X32936666Y-24848152D01*
X32936666Y-24848152D02*
X32984285Y-24943390D01*
X32984285Y-24943390D02*
X33031904Y-24991009D01*
X33031904Y-24991009D02*
X33127142Y-25038628D01*
X33127142Y-25038628D02*
X33508094Y-25038628D01*
X32603332Y-24514819D02*
X31984285Y-24514819D01*
X31984285Y-24514819D02*
X32317618Y-24895771D01*
X32317618Y-24895771D02*
X32174761Y-24895771D01*
X32174761Y-24895771D02*
X32079523Y-24943390D01*
X32079523Y-24943390D02*
X32031904Y-24991009D01*
X32031904Y-24991009D02*
X31984285Y-25086247D01*
X31984285Y-25086247D02*
X31984285Y-25324342D01*
X31984285Y-25324342D02*
X32031904Y-25419580D01*
X32031904Y-25419580D02*
X32079523Y-25467200D01*
X32079523Y-25467200D02*
X32174761Y-25514819D01*
X32174761Y-25514819D02*
X32460475Y-25514819D01*
X32460475Y-25514819D02*
X32555713Y-25467200D01*
X32555713Y-25467200D02*
X32603332Y-25419580D01*
X41755238Y-35440057D02*
X41850476Y-35392438D01*
X41850476Y-35392438D02*
X41945714Y-35297200D01*
X41945714Y-35297200D02*
X42088571Y-35154342D01*
X42088571Y-35154342D02*
X42183809Y-35106723D01*
X42183809Y-35106723D02*
X42279047Y-35106723D01*
X42231428Y-35344819D02*
X42326666Y-35297200D01*
X42326666Y-35297200D02*
X42421904Y-35201961D01*
X42421904Y-35201961D02*
X42469523Y-35011485D01*
X42469523Y-35011485D02*
X42469523Y-34678152D01*
X42469523Y-34678152D02*
X42421904Y-34487676D01*
X42421904Y-34487676D02*
X42326666Y-34392438D01*
X42326666Y-34392438D02*
X42231428Y-34344819D01*
X42231428Y-34344819D02*
X42040952Y-34344819D01*
X42040952Y-34344819D02*
X41945714Y-34392438D01*
X41945714Y-34392438D02*
X41850476Y-34487676D01*
X41850476Y-34487676D02*
X41802857Y-34678152D01*
X41802857Y-34678152D02*
X41802857Y-35011485D01*
X41802857Y-35011485D02*
X41850476Y-35201961D01*
X41850476Y-35201961D02*
X41945714Y-35297200D01*
X41945714Y-35297200D02*
X42040952Y-35344819D01*
X42040952Y-35344819D02*
X42231428Y-35344819D01*
X40850476Y-35344819D02*
X41421904Y-35344819D01*
X41136190Y-35344819D02*
X41136190Y-34344819D01*
X41136190Y-34344819D02*
X41231428Y-34487676D01*
X41231428Y-34487676D02*
X41326666Y-34582914D01*
X41326666Y-34582914D02*
X41421904Y-34630533D01*
X60682857Y-57494819D02*
X61016190Y-57018628D01*
X61254285Y-57494819D02*
X61254285Y-56494819D01*
X61254285Y-56494819D02*
X60873333Y-56494819D01*
X60873333Y-56494819D02*
X60778095Y-56542438D01*
X60778095Y-56542438D02*
X60730476Y-56590057D01*
X60730476Y-56590057D02*
X60682857Y-56685295D01*
X60682857Y-56685295D02*
X60682857Y-56828152D01*
X60682857Y-56828152D02*
X60730476Y-56923390D01*
X60730476Y-56923390D02*
X60778095Y-56971009D01*
X60778095Y-56971009D02*
X60873333Y-57018628D01*
X60873333Y-57018628D02*
X61254285Y-57018628D01*
X59730476Y-57494819D02*
X60301904Y-57494819D01*
X60016190Y-57494819D02*
X60016190Y-56494819D01*
X60016190Y-56494819D02*
X60111428Y-56637676D01*
X60111428Y-56637676D02*
X60206666Y-56732914D01*
X60206666Y-56732914D02*
X60301904Y-56780533D01*
X58778095Y-57494819D02*
X59349523Y-57494819D01*
X59063809Y-57494819D02*
X59063809Y-56494819D01*
X59063809Y-56494819D02*
X59159047Y-56637676D01*
X59159047Y-56637676D02*
X59254285Y-56732914D01*
X59254285Y-56732914D02*
X59349523Y-56780533D01*
X60722857Y-60504819D02*
X61056190Y-60028628D01*
X61294285Y-60504819D02*
X61294285Y-59504819D01*
X61294285Y-59504819D02*
X60913333Y-59504819D01*
X60913333Y-59504819D02*
X60818095Y-59552438D01*
X60818095Y-59552438D02*
X60770476Y-59600057D01*
X60770476Y-59600057D02*
X60722857Y-59695295D01*
X60722857Y-59695295D02*
X60722857Y-59838152D01*
X60722857Y-59838152D02*
X60770476Y-59933390D01*
X60770476Y-59933390D02*
X60818095Y-59981009D01*
X60818095Y-59981009D02*
X60913333Y-60028628D01*
X60913333Y-60028628D02*
X61294285Y-60028628D01*
X59770476Y-60504819D02*
X60341904Y-60504819D01*
X60056190Y-60504819D02*
X60056190Y-59504819D01*
X60056190Y-59504819D02*
X60151428Y-59647676D01*
X60151428Y-59647676D02*
X60246666Y-59742914D01*
X60246666Y-59742914D02*
X60341904Y-59790533D01*
X59389523Y-59600057D02*
X59341904Y-59552438D01*
X59341904Y-59552438D02*
X59246666Y-59504819D01*
X59246666Y-59504819D02*
X59008571Y-59504819D01*
X59008571Y-59504819D02*
X58913333Y-59552438D01*
X58913333Y-59552438D02*
X58865714Y-59600057D01*
X58865714Y-59600057D02*
X58818095Y-59695295D01*
X58818095Y-59695295D02*
X58818095Y-59790533D01*
X58818095Y-59790533D02*
X58865714Y-59933390D01*
X58865714Y-59933390D02*
X59437142Y-60504819D01*
X59437142Y-60504819D02*
X58818095Y-60504819D01*
X78936904Y-41629819D02*
X78936904Y-42439342D01*
X78936904Y-42439342D02*
X78889285Y-42534580D01*
X78889285Y-42534580D02*
X78841666Y-42582200D01*
X78841666Y-42582200D02*
X78746428Y-42629819D01*
X78746428Y-42629819D02*
X78555952Y-42629819D01*
X78555952Y-42629819D02*
X78460714Y-42582200D01*
X78460714Y-42582200D02*
X78413095Y-42534580D01*
X78413095Y-42534580D02*
X78365476Y-42439342D01*
X78365476Y-42439342D02*
X78365476Y-41629819D01*
X77460714Y-41629819D02*
X77651190Y-41629819D01*
X77651190Y-41629819D02*
X77746428Y-41677438D01*
X77746428Y-41677438D02*
X77794047Y-41725057D01*
X77794047Y-41725057D02*
X77889285Y-41867914D01*
X77889285Y-41867914D02*
X77936904Y-42058390D01*
X77936904Y-42058390D02*
X77936904Y-42439342D01*
X77936904Y-42439342D02*
X77889285Y-42534580D01*
X77889285Y-42534580D02*
X77841666Y-42582200D01*
X77841666Y-42582200D02*
X77746428Y-42629819D01*
X77746428Y-42629819D02*
X77555952Y-42629819D01*
X77555952Y-42629819D02*
X77460714Y-42582200D01*
X77460714Y-42582200D02*
X77413095Y-42534580D01*
X77413095Y-42534580D02*
X77365476Y-42439342D01*
X77365476Y-42439342D02*
X77365476Y-42201247D01*
X77365476Y-42201247D02*
X77413095Y-42106009D01*
X77413095Y-42106009D02*
X77460714Y-42058390D01*
X77460714Y-42058390D02*
X77555952Y-42010771D01*
X77555952Y-42010771D02*
X77746428Y-42010771D01*
X77746428Y-42010771D02*
X77841666Y-42058390D01*
X77841666Y-42058390D02*
X77889285Y-42106009D01*
X77889285Y-42106009D02*
X77936904Y-42201247D01*
X74360057Y-61954761D02*
X74312438Y-61859523D01*
X74312438Y-61859523D02*
X74217200Y-61764285D01*
X74217200Y-61764285D02*
X74074342Y-61621428D01*
X74074342Y-61621428D02*
X74026723Y-61526190D01*
X74026723Y-61526190D02*
X74026723Y-61430952D01*
X74264819Y-61478571D02*
X74217200Y-61383333D01*
X74217200Y-61383333D02*
X74121961Y-61288095D01*
X74121961Y-61288095D02*
X73931485Y-61240476D01*
X73931485Y-61240476D02*
X73598152Y-61240476D01*
X73598152Y-61240476D02*
X73407676Y-61288095D01*
X73407676Y-61288095D02*
X73312438Y-61383333D01*
X73312438Y-61383333D02*
X73264819Y-61478571D01*
X73264819Y-61478571D02*
X73264819Y-61669047D01*
X73264819Y-61669047D02*
X73312438Y-61764285D01*
X73312438Y-61764285D02*
X73407676Y-61859523D01*
X73407676Y-61859523D02*
X73598152Y-61907142D01*
X73598152Y-61907142D02*
X73931485Y-61907142D01*
X73931485Y-61907142D02*
X74121961Y-61859523D01*
X74121961Y-61859523D02*
X74217200Y-61764285D01*
X74217200Y-61764285D02*
X74264819Y-61669047D01*
X74264819Y-61669047D02*
X74264819Y-61478571D01*
X73264819Y-62811904D02*
X73264819Y-62335714D01*
X73264819Y-62335714D02*
X73741009Y-62288095D01*
X73741009Y-62288095D02*
X73693390Y-62335714D01*
X73693390Y-62335714D02*
X73645771Y-62430952D01*
X73645771Y-62430952D02*
X73645771Y-62669047D01*
X73645771Y-62669047D02*
X73693390Y-62764285D01*
X73693390Y-62764285D02*
X73741009Y-62811904D01*
X73741009Y-62811904D02*
X73836247Y-62859523D01*
X73836247Y-62859523D02*
X74074342Y-62859523D01*
X74074342Y-62859523D02*
X74169580Y-62811904D01*
X74169580Y-62811904D02*
X74217200Y-62764285D01*
X74217200Y-62764285D02*
X74264819Y-62669047D01*
X74264819Y-62669047D02*
X74264819Y-62430952D01*
X74264819Y-62430952D02*
X74217200Y-62335714D01*
X74217200Y-62335714D02*
X74169580Y-62288095D01*
X76952857Y-52714819D02*
X77286190Y-52238628D01*
X77524285Y-52714819D02*
X77524285Y-51714819D01*
X77524285Y-51714819D02*
X77143333Y-51714819D01*
X77143333Y-51714819D02*
X77048095Y-51762438D01*
X77048095Y-51762438D02*
X77000476Y-51810057D01*
X77000476Y-51810057D02*
X76952857Y-51905295D01*
X76952857Y-51905295D02*
X76952857Y-52048152D01*
X76952857Y-52048152D02*
X77000476Y-52143390D01*
X77000476Y-52143390D02*
X77048095Y-52191009D01*
X77048095Y-52191009D02*
X77143333Y-52238628D01*
X77143333Y-52238628D02*
X77524285Y-52238628D01*
X76571904Y-51810057D02*
X76524285Y-51762438D01*
X76524285Y-51762438D02*
X76429047Y-51714819D01*
X76429047Y-51714819D02*
X76190952Y-51714819D01*
X76190952Y-51714819D02*
X76095714Y-51762438D01*
X76095714Y-51762438D02*
X76048095Y-51810057D01*
X76048095Y-51810057D02*
X76000476Y-51905295D01*
X76000476Y-51905295D02*
X76000476Y-52000533D01*
X76000476Y-52000533D02*
X76048095Y-52143390D01*
X76048095Y-52143390D02*
X76619523Y-52714819D01*
X76619523Y-52714819D02*
X76000476Y-52714819D01*
X75667142Y-51714819D02*
X75048095Y-51714819D01*
X75048095Y-51714819D02*
X75381428Y-52095771D01*
X75381428Y-52095771D02*
X75238571Y-52095771D01*
X75238571Y-52095771D02*
X75143333Y-52143390D01*
X75143333Y-52143390D02*
X75095714Y-52191009D01*
X75095714Y-52191009D02*
X75048095Y-52286247D01*
X75048095Y-52286247D02*
X75048095Y-52524342D01*
X75048095Y-52524342D02*
X75095714Y-52619580D01*
X75095714Y-52619580D02*
X75143333Y-52667200D01*
X75143333Y-52667200D02*
X75238571Y-52714819D01*
X75238571Y-52714819D02*
X75524285Y-52714819D01*
X75524285Y-52714819D02*
X75619523Y-52667200D01*
X75619523Y-52667200D02*
X75667142Y-52619580D01*
X32926666Y-31454819D02*
X33259999Y-30978628D01*
X33498094Y-31454819D02*
X33498094Y-30454819D01*
X33498094Y-30454819D02*
X33117142Y-30454819D01*
X33117142Y-30454819D02*
X33021904Y-30502438D01*
X33021904Y-30502438D02*
X32974285Y-30550057D01*
X32974285Y-30550057D02*
X32926666Y-30645295D01*
X32926666Y-30645295D02*
X32926666Y-30788152D01*
X32926666Y-30788152D02*
X32974285Y-30883390D01*
X32974285Y-30883390D02*
X33021904Y-30931009D01*
X33021904Y-30931009D02*
X33117142Y-30978628D01*
X33117142Y-30978628D02*
X33498094Y-30978628D01*
X32545713Y-30550057D02*
X32498094Y-30502438D01*
X32498094Y-30502438D02*
X32402856Y-30454819D01*
X32402856Y-30454819D02*
X32164761Y-30454819D01*
X32164761Y-30454819D02*
X32069523Y-30502438D01*
X32069523Y-30502438D02*
X32021904Y-30550057D01*
X32021904Y-30550057D02*
X31974285Y-30645295D01*
X31974285Y-30645295D02*
X31974285Y-30740533D01*
X31974285Y-30740533D02*
X32021904Y-30883390D01*
X32021904Y-30883390D02*
X32593332Y-31454819D01*
X32593332Y-31454819D02*
X31974285Y-31454819D01*
X32936666Y-34454819D02*
X33269999Y-33978628D01*
X33508094Y-34454819D02*
X33508094Y-33454819D01*
X33508094Y-33454819D02*
X33127142Y-33454819D01*
X33127142Y-33454819D02*
X33031904Y-33502438D01*
X33031904Y-33502438D02*
X32984285Y-33550057D01*
X32984285Y-33550057D02*
X32936666Y-33645295D01*
X32936666Y-33645295D02*
X32936666Y-33788152D01*
X32936666Y-33788152D02*
X32984285Y-33883390D01*
X32984285Y-33883390D02*
X33031904Y-33931009D01*
X33031904Y-33931009D02*
X33127142Y-33978628D01*
X33127142Y-33978628D02*
X33508094Y-33978628D01*
X31984285Y-34454819D02*
X32555713Y-34454819D01*
X32269999Y-34454819D02*
X32269999Y-33454819D01*
X32269999Y-33454819D02*
X32365237Y-33597676D01*
X32365237Y-33597676D02*
X32460475Y-33692914D01*
X32460475Y-33692914D02*
X32555713Y-33740533D01*
X60712857Y-34554819D02*
X61046190Y-34078628D01*
X61284285Y-34554819D02*
X61284285Y-33554819D01*
X61284285Y-33554819D02*
X60903333Y-33554819D01*
X60903333Y-33554819D02*
X60808095Y-33602438D01*
X60808095Y-33602438D02*
X60760476Y-33650057D01*
X60760476Y-33650057D02*
X60712857Y-33745295D01*
X60712857Y-33745295D02*
X60712857Y-33888152D01*
X60712857Y-33888152D02*
X60760476Y-33983390D01*
X60760476Y-33983390D02*
X60808095Y-34031009D01*
X60808095Y-34031009D02*
X60903333Y-34078628D01*
X60903333Y-34078628D02*
X61284285Y-34078628D01*
X59760476Y-34554819D02*
X60331904Y-34554819D01*
X60046190Y-34554819D02*
X60046190Y-33554819D01*
X60046190Y-33554819D02*
X60141428Y-33697676D01*
X60141428Y-33697676D02*
X60236666Y-33792914D01*
X60236666Y-33792914D02*
X60331904Y-33840533D01*
X58903333Y-33554819D02*
X59093809Y-33554819D01*
X59093809Y-33554819D02*
X59189047Y-33602438D01*
X59189047Y-33602438D02*
X59236666Y-33650057D01*
X59236666Y-33650057D02*
X59331904Y-33792914D01*
X59331904Y-33792914D02*
X59379523Y-33983390D01*
X59379523Y-33983390D02*
X59379523Y-34364342D01*
X59379523Y-34364342D02*
X59331904Y-34459580D01*
X59331904Y-34459580D02*
X59284285Y-34507200D01*
X59284285Y-34507200D02*
X59189047Y-34554819D01*
X59189047Y-34554819D02*
X58998571Y-34554819D01*
X58998571Y-34554819D02*
X58903333Y-34507200D01*
X58903333Y-34507200D02*
X58855714Y-34459580D01*
X58855714Y-34459580D02*
X58808095Y-34364342D01*
X58808095Y-34364342D02*
X58808095Y-34126247D01*
X58808095Y-34126247D02*
X58855714Y-34031009D01*
X58855714Y-34031009D02*
X58903333Y-33983390D01*
X58903333Y-33983390D02*
X58998571Y-33935771D01*
X58998571Y-33935771D02*
X59189047Y-33935771D01*
X59189047Y-33935771D02*
X59284285Y-33983390D01*
X59284285Y-33983390D02*
X59331904Y-34031009D01*
X59331904Y-34031009D02*
X59379523Y-34126247D01*
X60642857Y-54404819D02*
X60976190Y-53928628D01*
X61214285Y-54404819D02*
X61214285Y-53404819D01*
X61214285Y-53404819D02*
X60833333Y-53404819D01*
X60833333Y-53404819D02*
X60738095Y-53452438D01*
X60738095Y-53452438D02*
X60690476Y-53500057D01*
X60690476Y-53500057D02*
X60642857Y-53595295D01*
X60642857Y-53595295D02*
X60642857Y-53738152D01*
X60642857Y-53738152D02*
X60690476Y-53833390D01*
X60690476Y-53833390D02*
X60738095Y-53881009D01*
X60738095Y-53881009D02*
X60833333Y-53928628D01*
X60833333Y-53928628D02*
X61214285Y-53928628D01*
X59690476Y-54404819D02*
X60261904Y-54404819D01*
X59976190Y-54404819D02*
X59976190Y-53404819D01*
X59976190Y-53404819D02*
X60071428Y-53547676D01*
X60071428Y-53547676D02*
X60166666Y-53642914D01*
X60166666Y-53642914D02*
X60261904Y-53690533D01*
X59071428Y-53404819D02*
X58976190Y-53404819D01*
X58976190Y-53404819D02*
X58880952Y-53452438D01*
X58880952Y-53452438D02*
X58833333Y-53500057D01*
X58833333Y-53500057D02*
X58785714Y-53595295D01*
X58785714Y-53595295D02*
X58738095Y-53785771D01*
X58738095Y-53785771D02*
X58738095Y-54023866D01*
X58738095Y-54023866D02*
X58785714Y-54214342D01*
X58785714Y-54214342D02*
X58833333Y-54309580D01*
X58833333Y-54309580D02*
X58880952Y-54357200D01*
X58880952Y-54357200D02*
X58976190Y-54404819D01*
X58976190Y-54404819D02*
X59071428Y-54404819D01*
X59071428Y-54404819D02*
X59166666Y-54357200D01*
X59166666Y-54357200D02*
X59214285Y-54309580D01*
X59214285Y-54309580D02*
X59261904Y-54214342D01*
X59261904Y-54214342D02*
X59309523Y-54023866D01*
X59309523Y-54023866D02*
X59309523Y-53785771D01*
X59309523Y-53785771D02*
X59261904Y-53595295D01*
X59261904Y-53595295D02*
X59214285Y-53500057D01*
X59214285Y-53500057D02*
X59166666Y-53452438D01*
X59166666Y-53452438D02*
X59071428Y-53404819D01*
X41815238Y-62240057D02*
X41910476Y-62192438D01*
X41910476Y-62192438D02*
X42005714Y-62097200D01*
X42005714Y-62097200D02*
X42148571Y-61954342D01*
X42148571Y-61954342D02*
X42243809Y-61906723D01*
X42243809Y-61906723D02*
X42339047Y-61906723D01*
X42291428Y-62144819D02*
X42386666Y-62097200D01*
X42386666Y-62097200D02*
X42481904Y-62001961D01*
X42481904Y-62001961D02*
X42529523Y-61811485D01*
X42529523Y-61811485D02*
X42529523Y-61478152D01*
X42529523Y-61478152D02*
X42481904Y-61287676D01*
X42481904Y-61287676D02*
X42386666Y-61192438D01*
X42386666Y-61192438D02*
X42291428Y-61144819D01*
X42291428Y-61144819D02*
X42100952Y-61144819D01*
X42100952Y-61144819D02*
X42005714Y-61192438D01*
X42005714Y-61192438D02*
X41910476Y-61287676D01*
X41910476Y-61287676D02*
X41862857Y-61478152D01*
X41862857Y-61478152D02*
X41862857Y-61811485D01*
X41862857Y-61811485D02*
X41910476Y-62001961D01*
X41910476Y-62001961D02*
X42005714Y-62097200D01*
X42005714Y-62097200D02*
X42100952Y-62144819D01*
X42100952Y-62144819D02*
X42291428Y-62144819D01*
X41005714Y-61478152D02*
X41005714Y-62144819D01*
X41243809Y-61097200D02*
X41481904Y-61811485D01*
X41481904Y-61811485D02*
X40862857Y-61811485D01*
X49512857Y-27644819D02*
X49846190Y-27168628D01*
X50084285Y-27644819D02*
X50084285Y-26644819D01*
X50084285Y-26644819D02*
X49703333Y-26644819D01*
X49703333Y-26644819D02*
X49608095Y-26692438D01*
X49608095Y-26692438D02*
X49560476Y-26740057D01*
X49560476Y-26740057D02*
X49512857Y-26835295D01*
X49512857Y-26835295D02*
X49512857Y-26978152D01*
X49512857Y-26978152D02*
X49560476Y-27073390D01*
X49560476Y-27073390D02*
X49608095Y-27121009D01*
X49608095Y-27121009D02*
X49703333Y-27168628D01*
X49703333Y-27168628D02*
X50084285Y-27168628D01*
X48655714Y-26978152D02*
X48655714Y-27644819D01*
X48893809Y-26597200D02*
X49131904Y-27311485D01*
X49131904Y-27311485D02*
X48512857Y-27311485D01*
X48179523Y-26740057D02*
X48131904Y-26692438D01*
X48131904Y-26692438D02*
X48036666Y-26644819D01*
X48036666Y-26644819D02*
X47798571Y-26644819D01*
X47798571Y-26644819D02*
X47703333Y-26692438D01*
X47703333Y-26692438D02*
X47655714Y-26740057D01*
X47655714Y-26740057D02*
X47608095Y-26835295D01*
X47608095Y-26835295D02*
X47608095Y-26930533D01*
X47608095Y-26930533D02*
X47655714Y-27073390D01*
X47655714Y-27073390D02*
X48227142Y-27644819D01*
X48227142Y-27644819D02*
X47608095Y-27644819D01*
X66692857Y-28464819D02*
X67026190Y-27988628D01*
X67264285Y-28464819D02*
X67264285Y-27464819D01*
X67264285Y-27464819D02*
X66883333Y-27464819D01*
X66883333Y-27464819D02*
X66788095Y-27512438D01*
X66788095Y-27512438D02*
X66740476Y-27560057D01*
X66740476Y-27560057D02*
X66692857Y-27655295D01*
X66692857Y-27655295D02*
X66692857Y-27798152D01*
X66692857Y-27798152D02*
X66740476Y-27893390D01*
X66740476Y-27893390D02*
X66788095Y-27941009D01*
X66788095Y-27941009D02*
X66883333Y-27988628D01*
X66883333Y-27988628D02*
X67264285Y-27988628D01*
X65740476Y-28464819D02*
X66311904Y-28464819D01*
X66026190Y-28464819D02*
X66026190Y-27464819D01*
X66026190Y-27464819D02*
X66121428Y-27607676D01*
X66121428Y-27607676D02*
X66216666Y-27702914D01*
X66216666Y-27702914D02*
X66311904Y-27750533D01*
X64883333Y-27798152D02*
X64883333Y-28464819D01*
X65121428Y-27417200D02*
X65359523Y-28131485D01*
X65359523Y-28131485D02*
X64740476Y-28131485D01*
X76872857Y-28454819D02*
X77206190Y-27978628D01*
X77444285Y-28454819D02*
X77444285Y-27454819D01*
X77444285Y-27454819D02*
X77063333Y-27454819D01*
X77063333Y-27454819D02*
X76968095Y-27502438D01*
X76968095Y-27502438D02*
X76920476Y-27550057D01*
X76920476Y-27550057D02*
X76872857Y-27645295D01*
X76872857Y-27645295D02*
X76872857Y-27788152D01*
X76872857Y-27788152D02*
X76920476Y-27883390D01*
X76920476Y-27883390D02*
X76968095Y-27931009D01*
X76968095Y-27931009D02*
X77063333Y-27978628D01*
X77063333Y-27978628D02*
X77444285Y-27978628D01*
X76491904Y-27550057D02*
X76444285Y-27502438D01*
X76444285Y-27502438D02*
X76349047Y-27454819D01*
X76349047Y-27454819D02*
X76110952Y-27454819D01*
X76110952Y-27454819D02*
X76015714Y-27502438D01*
X76015714Y-27502438D02*
X75968095Y-27550057D01*
X75968095Y-27550057D02*
X75920476Y-27645295D01*
X75920476Y-27645295D02*
X75920476Y-27740533D01*
X75920476Y-27740533D02*
X75968095Y-27883390D01*
X75968095Y-27883390D02*
X76539523Y-28454819D01*
X76539523Y-28454819D02*
X75920476Y-28454819D01*
X75063333Y-27788152D02*
X75063333Y-28454819D01*
X75301428Y-27407200D02*
X75539523Y-28121485D01*
X75539523Y-28121485D02*
X74920476Y-28121485D01*
X80542857Y-45964819D02*
X80876190Y-45488628D01*
X81114285Y-45964819D02*
X81114285Y-44964819D01*
X81114285Y-44964819D02*
X80733333Y-44964819D01*
X80733333Y-44964819D02*
X80638095Y-45012438D01*
X80638095Y-45012438D02*
X80590476Y-45060057D01*
X80590476Y-45060057D02*
X80542857Y-45155295D01*
X80542857Y-45155295D02*
X80542857Y-45298152D01*
X80542857Y-45298152D02*
X80590476Y-45393390D01*
X80590476Y-45393390D02*
X80638095Y-45441009D01*
X80638095Y-45441009D02*
X80733333Y-45488628D01*
X80733333Y-45488628D02*
X81114285Y-45488628D01*
X80161904Y-45060057D02*
X80114285Y-45012438D01*
X80114285Y-45012438D02*
X80019047Y-44964819D01*
X80019047Y-44964819D02*
X79780952Y-44964819D01*
X79780952Y-44964819D02*
X79685714Y-45012438D01*
X79685714Y-45012438D02*
X79638095Y-45060057D01*
X79638095Y-45060057D02*
X79590476Y-45155295D01*
X79590476Y-45155295D02*
X79590476Y-45250533D01*
X79590476Y-45250533D02*
X79638095Y-45393390D01*
X79638095Y-45393390D02*
X80209523Y-45964819D01*
X80209523Y-45964819D02*
X79590476Y-45964819D01*
X79019047Y-45393390D02*
X79114285Y-45345771D01*
X79114285Y-45345771D02*
X79161904Y-45298152D01*
X79161904Y-45298152D02*
X79209523Y-45202914D01*
X79209523Y-45202914D02*
X79209523Y-45155295D01*
X79209523Y-45155295D02*
X79161904Y-45060057D01*
X79161904Y-45060057D02*
X79114285Y-45012438D01*
X79114285Y-45012438D02*
X79019047Y-44964819D01*
X79019047Y-44964819D02*
X78828571Y-44964819D01*
X78828571Y-44964819D02*
X78733333Y-45012438D01*
X78733333Y-45012438D02*
X78685714Y-45060057D01*
X78685714Y-45060057D02*
X78638095Y-45155295D01*
X78638095Y-45155295D02*
X78638095Y-45202914D01*
X78638095Y-45202914D02*
X78685714Y-45298152D01*
X78685714Y-45298152D02*
X78733333Y-45345771D01*
X78733333Y-45345771D02*
X78828571Y-45393390D01*
X78828571Y-45393390D02*
X79019047Y-45393390D01*
X79019047Y-45393390D02*
X79114285Y-45441009D01*
X79114285Y-45441009D02*
X79161904Y-45488628D01*
X79161904Y-45488628D02*
X79209523Y-45583866D01*
X79209523Y-45583866D02*
X79209523Y-45774342D01*
X79209523Y-45774342D02*
X79161904Y-45869580D01*
X79161904Y-45869580D02*
X79114285Y-45917200D01*
X79114285Y-45917200D02*
X79019047Y-45964819D01*
X79019047Y-45964819D02*
X78828571Y-45964819D01*
X78828571Y-45964819D02*
X78733333Y-45917200D01*
X78733333Y-45917200D02*
X78685714Y-45869580D01*
X78685714Y-45869580D02*
X78638095Y-45774342D01*
X78638095Y-45774342D02*
X78638095Y-45583866D01*
X78638095Y-45583866D02*
X78685714Y-45488628D01*
X78685714Y-45488628D02*
X78733333Y-45441009D01*
X78733333Y-45441009D02*
X78828571Y-45393390D01*
X68725238Y-35500057D02*
X68820476Y-35452438D01*
X68820476Y-35452438D02*
X68915714Y-35357200D01*
X68915714Y-35357200D02*
X69058571Y-35214342D01*
X69058571Y-35214342D02*
X69153809Y-35166723D01*
X69153809Y-35166723D02*
X69249047Y-35166723D01*
X69201428Y-35404819D02*
X69296666Y-35357200D01*
X69296666Y-35357200D02*
X69391904Y-35261961D01*
X69391904Y-35261961D02*
X69439523Y-35071485D01*
X69439523Y-35071485D02*
X69439523Y-34738152D01*
X69439523Y-34738152D02*
X69391904Y-34547676D01*
X69391904Y-34547676D02*
X69296666Y-34452438D01*
X69296666Y-34452438D02*
X69201428Y-34404819D01*
X69201428Y-34404819D02*
X69010952Y-34404819D01*
X69010952Y-34404819D02*
X68915714Y-34452438D01*
X68915714Y-34452438D02*
X68820476Y-34547676D01*
X68820476Y-34547676D02*
X68772857Y-34738152D01*
X68772857Y-34738152D02*
X68772857Y-35071485D01*
X68772857Y-35071485D02*
X68820476Y-35261961D01*
X68820476Y-35261961D02*
X68915714Y-35357200D01*
X68915714Y-35357200D02*
X69010952Y-35404819D01*
X69010952Y-35404819D02*
X69201428Y-35404819D01*
X68201428Y-34833390D02*
X68296666Y-34785771D01*
X68296666Y-34785771D02*
X68344285Y-34738152D01*
X68344285Y-34738152D02*
X68391904Y-34642914D01*
X68391904Y-34642914D02*
X68391904Y-34595295D01*
X68391904Y-34595295D02*
X68344285Y-34500057D01*
X68344285Y-34500057D02*
X68296666Y-34452438D01*
X68296666Y-34452438D02*
X68201428Y-34404819D01*
X68201428Y-34404819D02*
X68010952Y-34404819D01*
X68010952Y-34404819D02*
X67915714Y-34452438D01*
X67915714Y-34452438D02*
X67868095Y-34500057D01*
X67868095Y-34500057D02*
X67820476Y-34595295D01*
X67820476Y-34595295D02*
X67820476Y-34642914D01*
X67820476Y-34642914D02*
X67868095Y-34738152D01*
X67868095Y-34738152D02*
X67915714Y-34785771D01*
X67915714Y-34785771D02*
X68010952Y-34833390D01*
X68010952Y-34833390D02*
X68201428Y-34833390D01*
X68201428Y-34833390D02*
X68296666Y-34881009D01*
X68296666Y-34881009D02*
X68344285Y-34928628D01*
X68344285Y-34928628D02*
X68391904Y-35023866D01*
X68391904Y-35023866D02*
X68391904Y-35214342D01*
X68391904Y-35214342D02*
X68344285Y-35309580D01*
X68344285Y-35309580D02*
X68296666Y-35357200D01*
X68296666Y-35357200D02*
X68201428Y-35404819D01*
X68201428Y-35404819D02*
X68010952Y-35404819D01*
X68010952Y-35404819D02*
X67915714Y-35357200D01*
X67915714Y-35357200D02*
X67868095Y-35309580D01*
X67868095Y-35309580D02*
X67820476Y-35214342D01*
X67820476Y-35214342D02*
X67820476Y-35023866D01*
X67820476Y-35023866D02*
X67868095Y-34928628D01*
X67868095Y-34928628D02*
X67915714Y-34881009D01*
X67915714Y-34881009D02*
X68010952Y-34833390D01*
X25727857Y-54206069D02*
X26061190Y-53729878D01*
X26299285Y-54206069D02*
X26299285Y-53206069D01*
X26299285Y-53206069D02*
X25918333Y-53206069D01*
X25918333Y-53206069D02*
X25823095Y-53253688D01*
X25823095Y-53253688D02*
X25775476Y-53301307D01*
X25775476Y-53301307D02*
X25727857Y-53396545D01*
X25727857Y-53396545D02*
X25727857Y-53539402D01*
X25727857Y-53539402D02*
X25775476Y-53634640D01*
X25775476Y-53634640D02*
X25823095Y-53682259D01*
X25823095Y-53682259D02*
X25918333Y-53729878D01*
X25918333Y-53729878D02*
X26299285Y-53729878D01*
X24775476Y-54206069D02*
X25346904Y-54206069D01*
X25061190Y-54206069D02*
X25061190Y-53206069D01*
X25061190Y-53206069D02*
X25156428Y-53348926D01*
X25156428Y-53348926D02*
X25251666Y-53444164D01*
X25251666Y-53444164D02*
X25346904Y-53491783D01*
X24442142Y-53206069D02*
X23775476Y-53206069D01*
X23775476Y-53206069D02*
X24204047Y-54206069D01*
X33066666Y-54504819D02*
X33399999Y-54028628D01*
X33638094Y-54504819D02*
X33638094Y-53504819D01*
X33638094Y-53504819D02*
X33257142Y-53504819D01*
X33257142Y-53504819D02*
X33161904Y-53552438D01*
X33161904Y-53552438D02*
X33114285Y-53600057D01*
X33114285Y-53600057D02*
X33066666Y-53695295D01*
X33066666Y-53695295D02*
X33066666Y-53838152D01*
X33066666Y-53838152D02*
X33114285Y-53933390D01*
X33114285Y-53933390D02*
X33161904Y-53981009D01*
X33161904Y-53981009D02*
X33257142Y-54028628D01*
X33257142Y-54028628D02*
X33638094Y-54028628D01*
X32209523Y-53504819D02*
X32399999Y-53504819D01*
X32399999Y-53504819D02*
X32495237Y-53552438D01*
X32495237Y-53552438D02*
X32542856Y-53600057D01*
X32542856Y-53600057D02*
X32638094Y-53742914D01*
X32638094Y-53742914D02*
X32685713Y-53933390D01*
X32685713Y-53933390D02*
X32685713Y-54314342D01*
X32685713Y-54314342D02*
X32638094Y-54409580D01*
X32638094Y-54409580D02*
X32590475Y-54457200D01*
X32590475Y-54457200D02*
X32495237Y-54504819D01*
X32495237Y-54504819D02*
X32304761Y-54504819D01*
X32304761Y-54504819D02*
X32209523Y-54457200D01*
X32209523Y-54457200D02*
X32161904Y-54409580D01*
X32161904Y-54409580D02*
X32114285Y-54314342D01*
X32114285Y-54314342D02*
X32114285Y-54076247D01*
X32114285Y-54076247D02*
X32161904Y-53981009D01*
X32161904Y-53981009D02*
X32209523Y-53933390D01*
X32209523Y-53933390D02*
X32304761Y-53885771D01*
X32304761Y-53885771D02*
X32495237Y-53885771D01*
X32495237Y-53885771D02*
X32590475Y-53933390D01*
X32590475Y-53933390D02*
X32638094Y-53981009D01*
X32638094Y-53981009D02*
X32685713Y-54076247D01*
X60692857Y-25494819D02*
X61026190Y-25018628D01*
X61264285Y-25494819D02*
X61264285Y-24494819D01*
X61264285Y-24494819D02*
X60883333Y-24494819D01*
X60883333Y-24494819D02*
X60788095Y-24542438D01*
X60788095Y-24542438D02*
X60740476Y-24590057D01*
X60740476Y-24590057D02*
X60692857Y-24685295D01*
X60692857Y-24685295D02*
X60692857Y-24828152D01*
X60692857Y-24828152D02*
X60740476Y-24923390D01*
X60740476Y-24923390D02*
X60788095Y-24971009D01*
X60788095Y-24971009D02*
X60883333Y-25018628D01*
X60883333Y-25018628D02*
X61264285Y-25018628D01*
X59740476Y-25494819D02*
X60311904Y-25494819D01*
X60026190Y-25494819D02*
X60026190Y-24494819D01*
X60026190Y-24494819D02*
X60121428Y-24637676D01*
X60121428Y-24637676D02*
X60216666Y-24732914D01*
X60216666Y-24732914D02*
X60311904Y-24780533D01*
X59407142Y-24494819D02*
X58788095Y-24494819D01*
X58788095Y-24494819D02*
X59121428Y-24875771D01*
X59121428Y-24875771D02*
X58978571Y-24875771D01*
X58978571Y-24875771D02*
X58883333Y-24923390D01*
X58883333Y-24923390D02*
X58835714Y-24971009D01*
X58835714Y-24971009D02*
X58788095Y-25066247D01*
X58788095Y-25066247D02*
X58788095Y-25304342D01*
X58788095Y-25304342D02*
X58835714Y-25399580D01*
X58835714Y-25399580D02*
X58883333Y-25447200D01*
X58883333Y-25447200D02*
X58978571Y-25494819D01*
X58978571Y-25494819D02*
X59264285Y-25494819D01*
X59264285Y-25494819D02*
X59359523Y-25447200D01*
X59359523Y-25447200D02*
X59407142Y-25399580D01*
X59611904Y-27984819D02*
X59611904Y-28794342D01*
X59611904Y-28794342D02*
X59564285Y-28889580D01*
X59564285Y-28889580D02*
X59516666Y-28937200D01*
X59516666Y-28937200D02*
X59421428Y-28984819D01*
X59421428Y-28984819D02*
X59230952Y-28984819D01*
X59230952Y-28984819D02*
X59135714Y-28937200D01*
X59135714Y-28937200D02*
X59088095Y-28889580D01*
X59088095Y-28889580D02*
X59040476Y-28794342D01*
X59040476Y-28794342D02*
X59040476Y-27984819D01*
X58659523Y-27984819D02*
X58040476Y-27984819D01*
X58040476Y-27984819D02*
X58373809Y-28365771D01*
X58373809Y-28365771D02*
X58230952Y-28365771D01*
X58230952Y-28365771D02*
X58135714Y-28413390D01*
X58135714Y-28413390D02*
X58088095Y-28461009D01*
X58088095Y-28461009D02*
X58040476Y-28556247D01*
X58040476Y-28556247D02*
X58040476Y-28794342D01*
X58040476Y-28794342D02*
X58088095Y-28889580D01*
X58088095Y-28889580D02*
X58135714Y-28937200D01*
X58135714Y-28937200D02*
X58230952Y-28984819D01*
X58230952Y-28984819D02*
X58516666Y-28984819D01*
X58516666Y-28984819D02*
X58611904Y-28937200D01*
X58611904Y-28937200D02*
X58659523Y-28889580D01*
X42902857Y-39294819D02*
X43236190Y-38818628D01*
X43474285Y-39294819D02*
X43474285Y-38294819D01*
X43474285Y-38294819D02*
X43093333Y-38294819D01*
X43093333Y-38294819D02*
X42998095Y-38342438D01*
X42998095Y-38342438D02*
X42950476Y-38390057D01*
X42950476Y-38390057D02*
X42902857Y-38485295D01*
X42902857Y-38485295D02*
X42902857Y-38628152D01*
X42902857Y-38628152D02*
X42950476Y-38723390D01*
X42950476Y-38723390D02*
X42998095Y-38771009D01*
X42998095Y-38771009D02*
X43093333Y-38818628D01*
X43093333Y-38818628D02*
X43474285Y-38818628D01*
X42521904Y-38390057D02*
X42474285Y-38342438D01*
X42474285Y-38342438D02*
X42379047Y-38294819D01*
X42379047Y-38294819D02*
X42140952Y-38294819D01*
X42140952Y-38294819D02*
X42045714Y-38342438D01*
X42045714Y-38342438D02*
X41998095Y-38390057D01*
X41998095Y-38390057D02*
X41950476Y-38485295D01*
X41950476Y-38485295D02*
X41950476Y-38580533D01*
X41950476Y-38580533D02*
X41998095Y-38723390D01*
X41998095Y-38723390D02*
X42569523Y-39294819D01*
X42569523Y-39294819D02*
X41950476Y-39294819D01*
X41331428Y-38294819D02*
X41236190Y-38294819D01*
X41236190Y-38294819D02*
X41140952Y-38342438D01*
X41140952Y-38342438D02*
X41093333Y-38390057D01*
X41093333Y-38390057D02*
X41045714Y-38485295D01*
X41045714Y-38485295D02*
X40998095Y-38675771D01*
X40998095Y-38675771D02*
X40998095Y-38913866D01*
X40998095Y-38913866D02*
X41045714Y-39104342D01*
X41045714Y-39104342D02*
X41093333Y-39199580D01*
X41093333Y-39199580D02*
X41140952Y-39247200D01*
X41140952Y-39247200D02*
X41236190Y-39294819D01*
X41236190Y-39294819D02*
X41331428Y-39294819D01*
X41331428Y-39294819D02*
X41426666Y-39247200D01*
X41426666Y-39247200D02*
X41474285Y-39199580D01*
X41474285Y-39199580D02*
X41521904Y-39104342D01*
X41521904Y-39104342D02*
X41569523Y-38913866D01*
X41569523Y-38913866D02*
X41569523Y-38675771D01*
X41569523Y-38675771D02*
X41521904Y-38485295D01*
X41521904Y-38485295D02*
X41474285Y-38390057D01*
X41474285Y-38390057D02*
X41426666Y-38342438D01*
X41426666Y-38342438D02*
X41331428Y-38294819D01*
X33076666Y-51464819D02*
X33409999Y-50988628D01*
X33648094Y-51464819D02*
X33648094Y-50464819D01*
X33648094Y-50464819D02*
X33267142Y-50464819D01*
X33267142Y-50464819D02*
X33171904Y-50512438D01*
X33171904Y-50512438D02*
X33124285Y-50560057D01*
X33124285Y-50560057D02*
X33076666Y-50655295D01*
X33076666Y-50655295D02*
X33076666Y-50798152D01*
X33076666Y-50798152D02*
X33124285Y-50893390D01*
X33124285Y-50893390D02*
X33171904Y-50941009D01*
X33171904Y-50941009D02*
X33267142Y-50988628D01*
X33267142Y-50988628D02*
X33648094Y-50988628D01*
X32171904Y-50464819D02*
X32648094Y-50464819D01*
X32648094Y-50464819D02*
X32695713Y-50941009D01*
X32695713Y-50941009D02*
X32648094Y-50893390D01*
X32648094Y-50893390D02*
X32552856Y-50845771D01*
X32552856Y-50845771D02*
X32314761Y-50845771D01*
X32314761Y-50845771D02*
X32219523Y-50893390D01*
X32219523Y-50893390D02*
X32171904Y-50941009D01*
X32171904Y-50941009D02*
X32124285Y-51036247D01*
X32124285Y-51036247D02*
X32124285Y-51274342D01*
X32124285Y-51274342D02*
X32171904Y-51369580D01*
X32171904Y-51369580D02*
X32219523Y-51417200D01*
X32219523Y-51417200D02*
X32314761Y-51464819D01*
X32314761Y-51464819D02*
X32552856Y-51464819D01*
X32552856Y-51464819D02*
X32648094Y-51417200D01*
X32648094Y-51417200D02*
X32695713Y-51369580D01*
X32956666Y-60244819D02*
X33289999Y-59768628D01*
X33528094Y-60244819D02*
X33528094Y-59244819D01*
X33528094Y-59244819D02*
X33147142Y-59244819D01*
X33147142Y-59244819D02*
X33051904Y-59292438D01*
X33051904Y-59292438D02*
X33004285Y-59340057D01*
X33004285Y-59340057D02*
X32956666Y-59435295D01*
X32956666Y-59435295D02*
X32956666Y-59578152D01*
X32956666Y-59578152D02*
X33004285Y-59673390D01*
X33004285Y-59673390D02*
X33051904Y-59721009D01*
X33051904Y-59721009D02*
X33147142Y-59768628D01*
X33147142Y-59768628D02*
X33528094Y-59768628D01*
X32385237Y-59673390D02*
X32480475Y-59625771D01*
X32480475Y-59625771D02*
X32528094Y-59578152D01*
X32528094Y-59578152D02*
X32575713Y-59482914D01*
X32575713Y-59482914D02*
X32575713Y-59435295D01*
X32575713Y-59435295D02*
X32528094Y-59340057D01*
X32528094Y-59340057D02*
X32480475Y-59292438D01*
X32480475Y-59292438D02*
X32385237Y-59244819D01*
X32385237Y-59244819D02*
X32194761Y-59244819D01*
X32194761Y-59244819D02*
X32099523Y-59292438D01*
X32099523Y-59292438D02*
X32051904Y-59340057D01*
X32051904Y-59340057D02*
X32004285Y-59435295D01*
X32004285Y-59435295D02*
X32004285Y-59482914D01*
X32004285Y-59482914D02*
X32051904Y-59578152D01*
X32051904Y-59578152D02*
X32099523Y-59625771D01*
X32099523Y-59625771D02*
X32194761Y-59673390D01*
X32194761Y-59673390D02*
X32385237Y-59673390D01*
X32385237Y-59673390D02*
X32480475Y-59721009D01*
X32480475Y-59721009D02*
X32528094Y-59768628D01*
X32528094Y-59768628D02*
X32575713Y-59863866D01*
X32575713Y-59863866D02*
X32575713Y-60054342D01*
X32575713Y-60054342D02*
X32528094Y-60149580D01*
X32528094Y-60149580D02*
X32480475Y-60197200D01*
X32480475Y-60197200D02*
X32385237Y-60244819D01*
X32385237Y-60244819D02*
X32194761Y-60244819D01*
X32194761Y-60244819D02*
X32099523Y-60197200D01*
X32099523Y-60197200D02*
X32051904Y-60149580D01*
X32051904Y-60149580D02*
X32004285Y-60054342D01*
X32004285Y-60054342D02*
X32004285Y-59863866D01*
X32004285Y-59863866D02*
X32051904Y-59768628D01*
X32051904Y-59768628D02*
X32099523Y-59721009D01*
X32099523Y-59721009D02*
X32194761Y-59673390D01*
X25620357Y-50286069D02*
X25953690Y-49809878D01*
X26191785Y-50286069D02*
X26191785Y-49286069D01*
X26191785Y-49286069D02*
X25810833Y-49286069D01*
X25810833Y-49286069D02*
X25715595Y-49333688D01*
X25715595Y-49333688D02*
X25667976Y-49381307D01*
X25667976Y-49381307D02*
X25620357Y-49476545D01*
X25620357Y-49476545D02*
X25620357Y-49619402D01*
X25620357Y-49619402D02*
X25667976Y-49714640D01*
X25667976Y-49714640D02*
X25715595Y-49762259D01*
X25715595Y-49762259D02*
X25810833Y-49809878D01*
X25810833Y-49809878D02*
X26191785Y-49809878D01*
X24667976Y-50286069D02*
X25239404Y-50286069D01*
X24953690Y-50286069D02*
X24953690Y-49286069D01*
X24953690Y-49286069D02*
X25048928Y-49428926D01*
X25048928Y-49428926D02*
X25144166Y-49524164D01*
X25144166Y-49524164D02*
X25239404Y-49571783D01*
X24096547Y-49714640D02*
X24191785Y-49667021D01*
X24191785Y-49667021D02*
X24239404Y-49619402D01*
X24239404Y-49619402D02*
X24287023Y-49524164D01*
X24287023Y-49524164D02*
X24287023Y-49476545D01*
X24287023Y-49476545D02*
X24239404Y-49381307D01*
X24239404Y-49381307D02*
X24191785Y-49333688D01*
X24191785Y-49333688D02*
X24096547Y-49286069D01*
X24096547Y-49286069D02*
X23906071Y-49286069D01*
X23906071Y-49286069D02*
X23810833Y-49333688D01*
X23810833Y-49333688D02*
X23763214Y-49381307D01*
X23763214Y-49381307D02*
X23715595Y-49476545D01*
X23715595Y-49476545D02*
X23715595Y-49524164D01*
X23715595Y-49524164D02*
X23763214Y-49619402D01*
X23763214Y-49619402D02*
X23810833Y-49667021D01*
X23810833Y-49667021D02*
X23906071Y-49714640D01*
X23906071Y-49714640D02*
X24096547Y-49714640D01*
X24096547Y-49714640D02*
X24191785Y-49762259D01*
X24191785Y-49762259D02*
X24239404Y-49809878D01*
X24239404Y-49809878D02*
X24287023Y-49905116D01*
X24287023Y-49905116D02*
X24287023Y-50095592D01*
X24287023Y-50095592D02*
X24239404Y-50190830D01*
X24239404Y-50190830D02*
X24191785Y-50238450D01*
X24191785Y-50238450D02*
X24096547Y-50286069D01*
X24096547Y-50286069D02*
X23906071Y-50286069D01*
X23906071Y-50286069D02*
X23810833Y-50238450D01*
X23810833Y-50238450D02*
X23763214Y-50190830D01*
X23763214Y-50190830D02*
X23715595Y-50095592D01*
X23715595Y-50095592D02*
X23715595Y-49905116D01*
X23715595Y-49905116D02*
X23763214Y-49809878D01*
X23763214Y-49809878D02*
X23810833Y-49762259D01*
X23810833Y-49762259D02*
X23906071Y-49714640D01*
X32916666Y-57254819D02*
X33249999Y-56778628D01*
X33488094Y-57254819D02*
X33488094Y-56254819D01*
X33488094Y-56254819D02*
X33107142Y-56254819D01*
X33107142Y-56254819D02*
X33011904Y-56302438D01*
X33011904Y-56302438D02*
X32964285Y-56350057D01*
X32964285Y-56350057D02*
X32916666Y-56445295D01*
X32916666Y-56445295D02*
X32916666Y-56588152D01*
X32916666Y-56588152D02*
X32964285Y-56683390D01*
X32964285Y-56683390D02*
X33011904Y-56731009D01*
X33011904Y-56731009D02*
X33107142Y-56778628D01*
X33107142Y-56778628D02*
X33488094Y-56778628D01*
X32583332Y-56254819D02*
X31916666Y-56254819D01*
X31916666Y-56254819D02*
X32345237Y-57254819D01*
X73065238Y-35870057D02*
X73160476Y-35822438D01*
X73160476Y-35822438D02*
X73255714Y-35727200D01*
X73255714Y-35727200D02*
X73398571Y-35584342D01*
X73398571Y-35584342D02*
X73493809Y-35536723D01*
X73493809Y-35536723D02*
X73589047Y-35536723D01*
X73541428Y-35774819D02*
X73636666Y-35727200D01*
X73636666Y-35727200D02*
X73731904Y-35631961D01*
X73731904Y-35631961D02*
X73779523Y-35441485D01*
X73779523Y-35441485D02*
X73779523Y-35108152D01*
X73779523Y-35108152D02*
X73731904Y-34917676D01*
X73731904Y-34917676D02*
X73636666Y-34822438D01*
X73636666Y-34822438D02*
X73541428Y-34774819D01*
X73541428Y-34774819D02*
X73350952Y-34774819D01*
X73350952Y-34774819D02*
X73255714Y-34822438D01*
X73255714Y-34822438D02*
X73160476Y-34917676D01*
X73160476Y-34917676D02*
X73112857Y-35108152D01*
X73112857Y-35108152D02*
X73112857Y-35441485D01*
X73112857Y-35441485D02*
X73160476Y-35631961D01*
X73160476Y-35631961D02*
X73255714Y-35727200D01*
X73255714Y-35727200D02*
X73350952Y-35774819D01*
X73350952Y-35774819D02*
X73541428Y-35774819D01*
X72779523Y-34774819D02*
X72112857Y-34774819D01*
X72112857Y-34774819D02*
X72541428Y-35774819D01*
X46225238Y-62570057D02*
X46320476Y-62522438D01*
X46320476Y-62522438D02*
X46415714Y-62427200D01*
X46415714Y-62427200D02*
X46558571Y-62284342D01*
X46558571Y-62284342D02*
X46653809Y-62236723D01*
X46653809Y-62236723D02*
X46749047Y-62236723D01*
X46701428Y-62474819D02*
X46796666Y-62427200D01*
X46796666Y-62427200D02*
X46891904Y-62331961D01*
X46891904Y-62331961D02*
X46939523Y-62141485D01*
X46939523Y-62141485D02*
X46939523Y-61808152D01*
X46939523Y-61808152D02*
X46891904Y-61617676D01*
X46891904Y-61617676D02*
X46796666Y-61522438D01*
X46796666Y-61522438D02*
X46701428Y-61474819D01*
X46701428Y-61474819D02*
X46510952Y-61474819D01*
X46510952Y-61474819D02*
X46415714Y-61522438D01*
X46415714Y-61522438D02*
X46320476Y-61617676D01*
X46320476Y-61617676D02*
X46272857Y-61808152D01*
X46272857Y-61808152D02*
X46272857Y-62141485D01*
X46272857Y-62141485D02*
X46320476Y-62331961D01*
X46320476Y-62331961D02*
X46415714Y-62427200D01*
X46415714Y-62427200D02*
X46510952Y-62474819D01*
X46510952Y-62474819D02*
X46701428Y-62474819D01*
X45939523Y-61474819D02*
X45320476Y-61474819D01*
X45320476Y-61474819D02*
X45653809Y-61855771D01*
X45653809Y-61855771D02*
X45510952Y-61855771D01*
X45510952Y-61855771D02*
X45415714Y-61903390D01*
X45415714Y-61903390D02*
X45368095Y-61951009D01*
X45368095Y-61951009D02*
X45320476Y-62046247D01*
X45320476Y-62046247D02*
X45320476Y-62284342D01*
X45320476Y-62284342D02*
X45368095Y-62379580D01*
X45368095Y-62379580D02*
X45415714Y-62427200D01*
X45415714Y-62427200D02*
X45510952Y-62474819D01*
X45510952Y-62474819D02*
X45796666Y-62474819D01*
X45796666Y-62474819D02*
X45891904Y-62427200D01*
X45891904Y-62427200D02*
X45939523Y-62379580D01*
X68755238Y-62270057D02*
X68850476Y-62222438D01*
X68850476Y-62222438D02*
X68945714Y-62127200D01*
X68945714Y-62127200D02*
X69088571Y-61984342D01*
X69088571Y-61984342D02*
X69183809Y-61936723D01*
X69183809Y-61936723D02*
X69279047Y-61936723D01*
X69231428Y-62174819D02*
X69326666Y-62127200D01*
X69326666Y-62127200D02*
X69421904Y-62031961D01*
X69421904Y-62031961D02*
X69469523Y-61841485D01*
X69469523Y-61841485D02*
X69469523Y-61508152D01*
X69469523Y-61508152D02*
X69421904Y-61317676D01*
X69421904Y-61317676D02*
X69326666Y-61222438D01*
X69326666Y-61222438D02*
X69231428Y-61174819D01*
X69231428Y-61174819D02*
X69040952Y-61174819D01*
X69040952Y-61174819D02*
X68945714Y-61222438D01*
X68945714Y-61222438D02*
X68850476Y-61317676D01*
X68850476Y-61317676D02*
X68802857Y-61508152D01*
X68802857Y-61508152D02*
X68802857Y-61841485D01*
X68802857Y-61841485D02*
X68850476Y-62031961D01*
X68850476Y-62031961D02*
X68945714Y-62127200D01*
X68945714Y-62127200D02*
X69040952Y-62174819D01*
X69040952Y-62174819D02*
X69231428Y-62174819D01*
X67945714Y-61174819D02*
X68136190Y-61174819D01*
X68136190Y-61174819D02*
X68231428Y-61222438D01*
X68231428Y-61222438D02*
X68279047Y-61270057D01*
X68279047Y-61270057D02*
X68374285Y-61412914D01*
X68374285Y-61412914D02*
X68421904Y-61603390D01*
X68421904Y-61603390D02*
X68421904Y-61984342D01*
X68421904Y-61984342D02*
X68374285Y-62079580D01*
X68374285Y-62079580D02*
X68326666Y-62127200D01*
X68326666Y-62127200D02*
X68231428Y-62174819D01*
X68231428Y-62174819D02*
X68040952Y-62174819D01*
X68040952Y-62174819D02*
X67945714Y-62127200D01*
X67945714Y-62127200D02*
X67898095Y-62079580D01*
X67898095Y-62079580D02*
X67850476Y-61984342D01*
X67850476Y-61984342D02*
X67850476Y-61746247D01*
X67850476Y-61746247D02*
X67898095Y-61651009D01*
X67898095Y-61651009D02*
X67945714Y-61603390D01*
X67945714Y-61603390D02*
X68040952Y-61555771D01*
X68040952Y-61555771D02*
X68231428Y-61555771D01*
X68231428Y-61555771D02*
X68326666Y-61603390D01*
X68326666Y-61603390D02*
X68374285Y-61651009D01*
X68374285Y-61651009D02*
X68421904Y-61746247D01*
X60742857Y-31504819D02*
X61076190Y-31028628D01*
X61314285Y-31504819D02*
X61314285Y-30504819D01*
X61314285Y-30504819D02*
X60933333Y-30504819D01*
X60933333Y-30504819D02*
X60838095Y-30552438D01*
X60838095Y-30552438D02*
X60790476Y-30600057D01*
X60790476Y-30600057D02*
X60742857Y-30695295D01*
X60742857Y-30695295D02*
X60742857Y-30838152D01*
X60742857Y-30838152D02*
X60790476Y-30933390D01*
X60790476Y-30933390D02*
X60838095Y-30981009D01*
X60838095Y-30981009D02*
X60933333Y-31028628D01*
X60933333Y-31028628D02*
X61314285Y-31028628D01*
X59790476Y-31504819D02*
X60361904Y-31504819D01*
X60076190Y-31504819D02*
X60076190Y-30504819D01*
X60076190Y-30504819D02*
X60171428Y-30647676D01*
X60171428Y-30647676D02*
X60266666Y-30742914D01*
X60266666Y-30742914D02*
X60361904Y-30790533D01*
X58885714Y-30504819D02*
X59361904Y-30504819D01*
X59361904Y-30504819D02*
X59409523Y-30981009D01*
X59409523Y-30981009D02*
X59361904Y-30933390D01*
X59361904Y-30933390D02*
X59266666Y-30885771D01*
X59266666Y-30885771D02*
X59028571Y-30885771D01*
X59028571Y-30885771D02*
X58933333Y-30933390D01*
X58933333Y-30933390D02*
X58885714Y-30981009D01*
X58885714Y-30981009D02*
X58838095Y-31076247D01*
X58838095Y-31076247D02*
X58838095Y-31314342D01*
X58838095Y-31314342D02*
X58885714Y-31409580D01*
X58885714Y-31409580D02*
X58933333Y-31457200D01*
X58933333Y-31457200D02*
X59028571Y-31504819D01*
X59028571Y-31504819D02*
X59266666Y-31504819D01*
X59266666Y-31504819D02*
X59361904Y-31457200D01*
X59361904Y-31457200D02*
X59409523Y-31409580D01*
X53636666Y-36549580D02*
X53684285Y-36597200D01*
X53684285Y-36597200D02*
X53827142Y-36644819D01*
X53827142Y-36644819D02*
X53922380Y-36644819D01*
X53922380Y-36644819D02*
X54065237Y-36597200D01*
X54065237Y-36597200D02*
X54160475Y-36501961D01*
X54160475Y-36501961D02*
X54208094Y-36406723D01*
X54208094Y-36406723D02*
X54255713Y-36216247D01*
X54255713Y-36216247D02*
X54255713Y-36073390D01*
X54255713Y-36073390D02*
X54208094Y-35882914D01*
X54208094Y-35882914D02*
X54160475Y-35787676D01*
X54160475Y-35787676D02*
X54065237Y-35692438D01*
X54065237Y-35692438D02*
X53922380Y-35644819D01*
X53922380Y-35644819D02*
X53827142Y-35644819D01*
X53827142Y-35644819D02*
X53684285Y-35692438D01*
X53684285Y-35692438D02*
X53636666Y-35740057D01*
X53255713Y-35740057D02*
X53208094Y-35692438D01*
X53208094Y-35692438D02*
X53112856Y-35644819D01*
X53112856Y-35644819D02*
X52874761Y-35644819D01*
X52874761Y-35644819D02*
X52779523Y-35692438D01*
X52779523Y-35692438D02*
X52731904Y-35740057D01*
X52731904Y-35740057D02*
X52684285Y-35835295D01*
X52684285Y-35835295D02*
X52684285Y-35930533D01*
X52684285Y-35930533D02*
X52731904Y-36073390D01*
X52731904Y-36073390D02*
X53303332Y-36644819D01*
X53303332Y-36644819D02*
X52684285Y-36644819D01*
X44256904Y-41699819D02*
X44256904Y-42509342D01*
X44256904Y-42509342D02*
X44209285Y-42604580D01*
X44209285Y-42604580D02*
X44161666Y-42652200D01*
X44161666Y-42652200D02*
X44066428Y-42699819D01*
X44066428Y-42699819D02*
X43875952Y-42699819D01*
X43875952Y-42699819D02*
X43780714Y-42652200D01*
X43780714Y-42652200D02*
X43733095Y-42604580D01*
X43733095Y-42604580D02*
X43685476Y-42509342D01*
X43685476Y-42509342D02*
X43685476Y-41699819D01*
X42780714Y-42033152D02*
X42780714Y-42699819D01*
X43018809Y-41652200D02*
X43256904Y-42366485D01*
X43256904Y-42366485D02*
X42637857Y-42366485D01*
X31223333Y-42141009D02*
X31556666Y-42141009D01*
X31556666Y-42664819D02*
X31556666Y-41664819D01*
X31556666Y-41664819D02*
X31080476Y-41664819D01*
X30175714Y-42664819D02*
X30747142Y-42664819D01*
X30461428Y-42664819D02*
X30461428Y-41664819D01*
X30461428Y-41664819D02*
X30556666Y-41807676D01*
X30556666Y-41807676D02*
X30651904Y-41902914D01*
X30651904Y-41902914D02*
X30747142Y-41950533D01*
X46265238Y-35760057D02*
X46360476Y-35712438D01*
X46360476Y-35712438D02*
X46455714Y-35617200D01*
X46455714Y-35617200D02*
X46598571Y-35474342D01*
X46598571Y-35474342D02*
X46693809Y-35426723D01*
X46693809Y-35426723D02*
X46789047Y-35426723D01*
X46741428Y-35664819D02*
X46836666Y-35617200D01*
X46836666Y-35617200D02*
X46931904Y-35521961D01*
X46931904Y-35521961D02*
X46979523Y-35331485D01*
X46979523Y-35331485D02*
X46979523Y-34998152D01*
X46979523Y-34998152D02*
X46931904Y-34807676D01*
X46931904Y-34807676D02*
X46836666Y-34712438D01*
X46836666Y-34712438D02*
X46741428Y-34664819D01*
X46741428Y-34664819D02*
X46550952Y-34664819D01*
X46550952Y-34664819D02*
X46455714Y-34712438D01*
X46455714Y-34712438D02*
X46360476Y-34807676D01*
X46360476Y-34807676D02*
X46312857Y-34998152D01*
X46312857Y-34998152D02*
X46312857Y-35331485D01*
X46312857Y-35331485D02*
X46360476Y-35521961D01*
X46360476Y-35521961D02*
X46455714Y-35617200D01*
X46455714Y-35617200D02*
X46550952Y-35664819D01*
X46550952Y-35664819D02*
X46741428Y-35664819D01*
X45931904Y-34760057D02*
X45884285Y-34712438D01*
X45884285Y-34712438D02*
X45789047Y-34664819D01*
X45789047Y-34664819D02*
X45550952Y-34664819D01*
X45550952Y-34664819D02*
X45455714Y-34712438D01*
X45455714Y-34712438D02*
X45408095Y-34760057D01*
X45408095Y-34760057D02*
X45360476Y-34855295D01*
X45360476Y-34855295D02*
X45360476Y-34950533D01*
X45360476Y-34950533D02*
X45408095Y-35093390D01*
X45408095Y-35093390D02*
X45979523Y-35664819D01*
X45979523Y-35664819D02*
X45360476Y-35664819D01*
X44512857Y-49594819D02*
X44846190Y-49118628D01*
X45084285Y-49594819D02*
X45084285Y-48594819D01*
X45084285Y-48594819D02*
X44703333Y-48594819D01*
X44703333Y-48594819D02*
X44608095Y-48642438D01*
X44608095Y-48642438D02*
X44560476Y-48690057D01*
X44560476Y-48690057D02*
X44512857Y-48785295D01*
X44512857Y-48785295D02*
X44512857Y-48928152D01*
X44512857Y-48928152D02*
X44560476Y-49023390D01*
X44560476Y-49023390D02*
X44608095Y-49071009D01*
X44608095Y-49071009D02*
X44703333Y-49118628D01*
X44703333Y-49118628D02*
X45084285Y-49118628D01*
X44131904Y-48690057D02*
X44084285Y-48642438D01*
X44084285Y-48642438D02*
X43989047Y-48594819D01*
X43989047Y-48594819D02*
X43750952Y-48594819D01*
X43750952Y-48594819D02*
X43655714Y-48642438D01*
X43655714Y-48642438D02*
X43608095Y-48690057D01*
X43608095Y-48690057D02*
X43560476Y-48785295D01*
X43560476Y-48785295D02*
X43560476Y-48880533D01*
X43560476Y-48880533D02*
X43608095Y-49023390D01*
X43608095Y-49023390D02*
X44179523Y-49594819D01*
X44179523Y-49594819D02*
X43560476Y-49594819D01*
X43179523Y-48690057D02*
X43131904Y-48642438D01*
X43131904Y-48642438D02*
X43036666Y-48594819D01*
X43036666Y-48594819D02*
X42798571Y-48594819D01*
X42798571Y-48594819D02*
X42703333Y-48642438D01*
X42703333Y-48642438D02*
X42655714Y-48690057D01*
X42655714Y-48690057D02*
X42608095Y-48785295D01*
X42608095Y-48785295D02*
X42608095Y-48880533D01*
X42608095Y-48880533D02*
X42655714Y-49023390D01*
X42655714Y-49023390D02*
X43227142Y-49594819D01*
X43227142Y-49594819D02*
X42608095Y-49594819D01*
X79022857Y-36764819D02*
X79356190Y-36288628D01*
X79594285Y-36764819D02*
X79594285Y-35764819D01*
X79594285Y-35764819D02*
X79213333Y-35764819D01*
X79213333Y-35764819D02*
X79118095Y-35812438D01*
X79118095Y-35812438D02*
X79070476Y-35860057D01*
X79070476Y-35860057D02*
X79022857Y-35955295D01*
X79022857Y-35955295D02*
X79022857Y-36098152D01*
X79022857Y-36098152D02*
X79070476Y-36193390D01*
X79070476Y-36193390D02*
X79118095Y-36241009D01*
X79118095Y-36241009D02*
X79213333Y-36288628D01*
X79213333Y-36288628D02*
X79594285Y-36288628D01*
X78641904Y-35860057D02*
X78594285Y-35812438D01*
X78594285Y-35812438D02*
X78499047Y-35764819D01*
X78499047Y-35764819D02*
X78260952Y-35764819D01*
X78260952Y-35764819D02*
X78165714Y-35812438D01*
X78165714Y-35812438D02*
X78118095Y-35860057D01*
X78118095Y-35860057D02*
X78070476Y-35955295D01*
X78070476Y-35955295D02*
X78070476Y-36050533D01*
X78070476Y-36050533D02*
X78118095Y-36193390D01*
X78118095Y-36193390D02*
X78689523Y-36764819D01*
X78689523Y-36764819D02*
X78070476Y-36764819D01*
X77737142Y-35764819D02*
X77070476Y-35764819D01*
X77070476Y-35764819D02*
X77499047Y-36764819D01*
X49340357Y-52514819D02*
X49673690Y-52038628D01*
X49911785Y-52514819D02*
X49911785Y-51514819D01*
X49911785Y-51514819D02*
X49530833Y-51514819D01*
X49530833Y-51514819D02*
X49435595Y-51562438D01*
X49435595Y-51562438D02*
X49387976Y-51610057D01*
X49387976Y-51610057D02*
X49340357Y-51705295D01*
X49340357Y-51705295D02*
X49340357Y-51848152D01*
X49340357Y-51848152D02*
X49387976Y-51943390D01*
X49387976Y-51943390D02*
X49435595Y-51991009D01*
X49435595Y-51991009D02*
X49530833Y-52038628D01*
X49530833Y-52038628D02*
X49911785Y-52038628D01*
X48483214Y-51848152D02*
X48483214Y-52514819D01*
X48721309Y-51467200D02*
X48959404Y-52181485D01*
X48959404Y-52181485D02*
X48340357Y-52181485D01*
X48054642Y-51514819D02*
X47387976Y-51514819D01*
X47387976Y-51514819D02*
X47816547Y-52514819D01*
D11*
%TO.C,R9*%
X63277064Y-51735000D02*
X62822936Y-51735000D01*
X63277064Y-50265000D02*
X62822936Y-50265000D01*
%TO.C,R4*%
X35557064Y-28735000D02*
X35102936Y-28735000D01*
X35557064Y-27265000D02*
X35102936Y-27265000D01*
%TO.C,R3*%
X35557064Y-25735000D02*
X35102936Y-25735000D01*
X35557064Y-24265000D02*
X35102936Y-24265000D01*
%TO.C,Q1*%
X40990000Y-33780000D02*
X42390000Y-33780000D01*
X42390000Y-36100000D02*
X40490000Y-36100000D01*
%TO.C,R11*%
X63277064Y-57735000D02*
X62822936Y-57735000D01*
X63277064Y-56265000D02*
X62822936Y-56265000D01*
%TO.C,R12*%
X63277064Y-60735000D02*
X62822936Y-60735000D01*
X63277064Y-59265000D02*
X62822936Y-59265000D01*
%TO.C,U6*%
X75535000Y-42195000D02*
X75535000Y-44145000D01*
X75535000Y-42195000D02*
X75535000Y-40245000D01*
X80655000Y-42195000D02*
X80655000Y-45645000D01*
X80655000Y-42195000D02*
X80655000Y-40245000D01*
%TO.C,Q5*%
X74970000Y-61370000D02*
X74970000Y-62770000D01*
X72650000Y-62770000D02*
X72650000Y-60870000D01*
%TO.C,R23*%
X74112936Y-50440000D02*
X78467064Y-50440000D01*
X74112936Y-53860000D02*
X78467064Y-53860000D01*
%TO.C,R2*%
X35557064Y-31735000D02*
X35102936Y-31735000D01*
X35557064Y-30265000D02*
X35102936Y-30265000D01*
%TO.C,J8*%
X59840000Y-16510000D02*
X59840000Y-19170000D01*
X36920000Y-16510000D02*
X59840000Y-16510000D01*
X36920000Y-16510000D02*
X36920000Y-19170000D01*
X35650000Y-16510000D02*
X34320000Y-16510000D01*
X34320000Y-16510000D02*
X34320000Y-17840000D01*
X36920000Y-19170000D02*
X59840000Y-19170000D01*
%TO.C,R1*%
X35557064Y-34735000D02*
X35102936Y-34735000D01*
X35557064Y-33265000D02*
X35102936Y-33265000D01*
%TO.C,R16*%
X63277064Y-34735000D02*
X62822936Y-34735000D01*
X63277064Y-33265000D02*
X62822936Y-33265000D01*
%TO.C,R10*%
X63277064Y-54735000D02*
X62822936Y-54735000D01*
X63277064Y-53265000D02*
X62822936Y-53265000D01*
%TO.C,Q4*%
X42390000Y-62880000D02*
X40990000Y-62880000D01*
X40990000Y-60560000D02*
X42890000Y-60560000D01*
%TO.C,R42*%
X46382936Y-26160000D02*
X50737064Y-26160000D01*
X46382936Y-29580000D02*
X50737064Y-29580000D01*
%TO.C,R14*%
X63277064Y-28735000D02*
X62822936Y-28735000D01*
X63277064Y-27265000D02*
X62822936Y-27265000D01*
%TO.C,J7*%
X66320000Y-67420000D02*
X66320000Y-64760000D01*
X79080000Y-67420000D02*
X66320000Y-67420000D01*
X79080000Y-67420000D02*
X79080000Y-64760000D01*
X80350000Y-67420000D02*
X81680000Y-67420000D01*
X81680000Y-67420000D02*
X81680000Y-66090000D01*
X79080000Y-64760000D02*
X66320000Y-64760000D01*
%TO.C,R24*%
X74062936Y-26160000D02*
X78417064Y-26160000D01*
X74062936Y-29580000D02*
X78417064Y-29580000D01*
%TO.C,R28*%
X80137258Y-47462500D02*
X79662742Y-47462500D01*
X80137258Y-46417500D02*
X79662742Y-46417500D01*
%TO.C,Q8*%
X69360000Y-36100000D02*
X67960000Y-36100000D01*
X67960000Y-33780000D02*
X69860000Y-33780000D01*
%TO.C,R17*%
X22219564Y-54526250D02*
X21765436Y-54526250D01*
X22219564Y-53056250D02*
X21765436Y-53056250D01*
%TO.C,R6*%
X35557064Y-54735000D02*
X35102936Y-54735000D01*
X35557064Y-53265000D02*
X35102936Y-53265000D01*
%TO.C,R13*%
X63277064Y-25735000D02*
X62822936Y-25735000D01*
X63277064Y-24265000D02*
X62822936Y-24265000D01*
%TO.C,U3*%
X60440000Y-28510000D02*
X60440000Y-27010000D01*
X60440000Y-28510000D02*
X60440000Y-30010000D01*
X57220000Y-28510000D02*
X57220000Y-25585000D01*
X57220000Y-28510000D02*
X57220000Y-30010000D01*
%TO.C,R20*%
X42022742Y-36887500D02*
X42497258Y-36887500D01*
X42022742Y-37932500D02*
X42497258Y-37932500D01*
%TO.C,R5*%
X35557064Y-51735000D02*
X35102936Y-51735000D01*
X35557064Y-50265000D02*
X35102936Y-50265000D01*
%TO.C,R8*%
X35557064Y-60515000D02*
X35102936Y-60515000D01*
X35557064Y-59045000D02*
X35102936Y-59045000D01*
%TO.C,R18*%
X22219564Y-50626250D02*
X21765436Y-50626250D01*
X22219564Y-49156250D02*
X21765436Y-49156250D01*
%TO.C,J6*%
X43460000Y-67420000D02*
X43460000Y-64760000D01*
X61300000Y-67420000D02*
X43460000Y-67420000D01*
X61300000Y-67420000D02*
X61300000Y-64760000D01*
X62570000Y-67420000D02*
X63900000Y-67420000D01*
X63900000Y-67420000D02*
X63900000Y-66090000D01*
X61300000Y-64760000D02*
X43460000Y-64760000D01*
%TO.C,R7*%
X35557064Y-57515000D02*
X35102936Y-57515000D01*
X35557064Y-56045000D02*
X35102936Y-56045000D01*
%TO.C,Q7*%
X74150000Y-34550000D02*
X74150000Y-35950000D01*
X71830000Y-35950000D02*
X71830000Y-34050000D01*
%TO.C,Q3*%
X47370000Y-61270000D02*
X47370000Y-62670000D01*
X45050000Y-62670000D02*
X45050000Y-60770000D01*
%TO.C,Q6*%
X69360000Y-62880000D02*
X67960000Y-62880000D01*
X67960000Y-60560000D02*
X69860000Y-60560000D01*
%TO.C,R15*%
X63277064Y-31735000D02*
X62822936Y-31735000D01*
X63277064Y-30265000D02*
X62822936Y-30265000D01*
%TO.C,C2*%
X53731252Y-38605000D02*
X53208748Y-38605000D01*
X53731252Y-37135000D02*
X53208748Y-37135000D01*
%TO.C,U4*%
X46325000Y-42275000D02*
X46325000Y-40325000D01*
X46325000Y-42275000D02*
X46325000Y-44225000D01*
X41205000Y-42275000D02*
X41205000Y-38825000D01*
X41205000Y-42275000D02*
X41205000Y-44225000D01*
%TO.C,J9*%
X81680000Y-16510000D02*
X81680000Y-19170000D01*
X63840000Y-16510000D02*
X81680000Y-16510000D01*
X63840000Y-16510000D02*
X63840000Y-19170000D01*
X62570000Y-16510000D02*
X61240000Y-16510000D01*
X61240000Y-16510000D02*
X61240000Y-17840000D01*
X63840000Y-19170000D02*
X81680000Y-19170000D01*
%TO.C,F1*%
X28816248Y-39500000D02*
X33223752Y-39500000D01*
X28816248Y-44840000D02*
X33223752Y-44840000D01*
%TO.C,Q2*%
X45050000Y-35930000D02*
X45050000Y-34530000D01*
X47370000Y-34530000D02*
X47370000Y-36430000D01*
%TO.C,R22*%
X43632742Y-47187500D02*
X44107258Y-47187500D01*
X43632742Y-48232500D02*
X44107258Y-48232500D01*
%TO.C,R27*%
X78617258Y-38262500D02*
X78142742Y-38262500D01*
X78617258Y-37217500D02*
X78142742Y-37217500D01*
%TO.C,R47*%
X46560436Y-50280000D02*
X50914564Y-50280000D01*
X46560436Y-53700000D02*
X50914564Y-53700000D01*
%TD*%
M02*
