%TF.GenerationSoftware,KiCad,Pcbnew,7.0.7*%
%TF.CreationDate,2024-06-03T14:36:37+02:00*%
%TF.ProjectId,control-board_v1,636f6e74-726f-46c2-9d62-6f6172645f76,rev?*%
%TF.SameCoordinates,Original*%
%TF.FileFunction,Paste,Top*%
%TF.FilePolarity,Positive*%
%FSLAX46Y46*%
G04 Gerber Fmt 4.6, Leading zero omitted, Abs format (unit mm)*
G04 Created by KiCad (PCBNEW 7.0.7) date 2024-06-03 14:36:37*
%MOMM*%
%LPD*%
G01*
G04 APERTURE LIST*
G04 Aperture macros list*
%AMRoundRect*
0 Rectangle with rounded corners*
0 $1 Rounding radius*
0 $2 $3 $4 $5 $6 $7 $8 $9 X,Y pos of 4 corners*
0 Add a 4 corners polygon primitive as box body*
4,1,4,$2,$3,$4,$5,$6,$7,$8,$9,$2,$3,0*
0 Add four circle primitives for the rounded corners*
1,1,$1+$1,$2,$3*
1,1,$1+$1,$4,$5*
1,1,$1+$1,$6,$7*
1,1,$1+$1,$8,$9*
0 Add four rect primitives between the rounded corners*
20,1,$1+$1,$2,$3,$4,$5,0*
20,1,$1+$1,$4,$5,$6,$7,0*
20,1,$1+$1,$6,$7,$8,$9,0*
20,1,$1+$1,$8,$9,$2,$3,0*%
G04 Aperture macros list end*
%ADD10RoundRect,0.218750X0.218750X0.256250X-0.218750X0.256250X-0.218750X-0.256250X0.218750X-0.256250X0*%
%ADD11RoundRect,0.250000X0.262500X0.450000X-0.262500X0.450000X-0.262500X-0.450000X0.262500X-0.450000X0*%
%ADD12RoundRect,0.250000X0.875000X1.025000X-0.875000X1.025000X-0.875000X-1.025000X0.875000X-1.025000X0*%
%ADD13RoundRect,0.150000X-0.150000X0.512500X-0.150000X-0.512500X0.150000X-0.512500X0.150000X0.512500X0*%
%ADD14R,1.000000X3.150000*%
%ADD15RoundRect,0.250000X0.475000X-0.250000X0.475000X0.250000X-0.475000X0.250000X-0.475000X-0.250000X0*%
%ADD16RoundRect,0.250000X0.250000X0.475000X-0.250000X0.475000X-0.250000X-0.475000X0.250000X-0.475000X0*%
%ADD17RoundRect,0.150000X0.150000X-0.875000X0.150000X0.875000X-0.150000X0.875000X-0.150000X-0.875000X0*%
%ADD18RoundRect,0.250000X-0.475000X0.250000X-0.475000X-0.250000X0.475000X-0.250000X0.475000X0.250000X0*%
%ADD19RoundRect,0.250000X-0.262500X-0.450000X0.262500X-0.450000X0.262500X0.450000X-0.262500X0.450000X0*%
%ADD20RoundRect,0.150000X0.150000X-0.512500X0.150000X0.512500X-0.150000X0.512500X-0.150000X-0.512500X0*%
G04 APERTURE END LIST*
D10*
%TO.C,D7*%
X36117500Y-56780000D03*
X34542500Y-56780000D03*
%TD*%
%TO.C,D2*%
X36117500Y-31000000D03*
X34542500Y-31000000D03*
%TD*%
D11*
%TO.C,R19*%
X42940000Y-37560000D03*
X41115000Y-37560000D03*
%TD*%
D10*
%TO.C,D3*%
X36117500Y-25000000D03*
X34542500Y-25000000D03*
%TD*%
%TO.C,D1*%
X36117500Y-34000000D03*
X34542500Y-34000000D03*
%TD*%
%TO.C,D6*%
X36117500Y-54000000D03*
X34542500Y-54000000D03*
%TD*%
%TO.C,D10*%
X63837500Y-54000000D03*
X62262500Y-54000000D03*
%TD*%
D11*
%TO.C,R21*%
X44772500Y-47560000D03*
X42947500Y-47560000D03*
%TD*%
D10*
%TO.C,D9*%
X63837500Y-51000000D03*
X62262500Y-51000000D03*
%TD*%
D12*
%TO.C,C1*%
X34170000Y-42210000D03*
X27770000Y-42210000D03*
%TD*%
D10*
%TO.C,D14*%
X63837500Y-28000000D03*
X62262500Y-28000000D03*
%TD*%
%TO.C,D16*%
X63837500Y-34000000D03*
X62262500Y-34000000D03*
%TD*%
D13*
%TO.C,Q10*%
X76310000Y-41302500D03*
X75360000Y-41302500D03*
X74410000Y-41302500D03*
X74410000Y-43577500D03*
X75360000Y-43577500D03*
X76310000Y-43577500D03*
%TD*%
D14*
%TO.C,J2*%
X39130000Y-56990000D03*
X39130000Y-51940000D03*
X41670000Y-56990000D03*
X41670000Y-51940000D03*
X44210000Y-56990000D03*
X44210000Y-51940000D03*
X46750000Y-56990000D03*
X46750000Y-51940000D03*
X49290000Y-56990000D03*
X49290000Y-51940000D03*
X51830000Y-56990000D03*
X51830000Y-51940000D03*
%TD*%
D10*
%TO.C,D15*%
X63837500Y-31000000D03*
X62262500Y-31000000D03*
%TD*%
D15*
%TO.C,C5*%
X59380000Y-28310000D03*
X59380000Y-26410000D03*
%TD*%
D16*
%TO.C,C7*%
X39470000Y-44870000D03*
X37570000Y-44870000D03*
%TD*%
D10*
%TO.C,D5*%
X36117500Y-51000000D03*
X34542500Y-51000000D03*
%TD*%
%TO.C,D12*%
X63837500Y-60000000D03*
X62262500Y-60000000D03*
%TD*%
D14*
%TO.C,J5*%
X66630000Y-32940000D03*
X66630000Y-27890000D03*
X69170000Y-32940000D03*
X69170000Y-27890000D03*
X71710000Y-32940000D03*
X71710000Y-27890000D03*
X74250000Y-32940000D03*
X74250000Y-27890000D03*
X76790000Y-32940000D03*
X76790000Y-27890000D03*
X79330000Y-32940000D03*
X79330000Y-27890000D03*
%TD*%
D10*
%TO.C,D11*%
X63837500Y-57000000D03*
X62262500Y-57000000D03*
%TD*%
%TO.C,D18*%
X22780000Y-49891250D03*
X21205000Y-49891250D03*
%TD*%
D17*
%TO.C,U1*%
X52360000Y-47090000D03*
X53630000Y-47090000D03*
X54900000Y-47090000D03*
X56170000Y-47090000D03*
X57440000Y-47090000D03*
X58710000Y-47090000D03*
X59980000Y-47090000D03*
X61250000Y-47090000D03*
X62520000Y-47090000D03*
X63790000Y-47090000D03*
X65060000Y-47090000D03*
X66330000Y-47090000D03*
X66330000Y-37790000D03*
X65060000Y-37790000D03*
X63790000Y-37790000D03*
X62520000Y-37790000D03*
X61250000Y-37790000D03*
X59980000Y-37790000D03*
X58710000Y-37790000D03*
X57440000Y-37790000D03*
X56170000Y-37790000D03*
X54900000Y-37790000D03*
X53630000Y-37790000D03*
X52360000Y-37790000D03*
%TD*%
D18*
%TO.C,C3*%
X80200000Y-41170000D03*
X80200000Y-43070000D03*
%TD*%
D14*
%TO.C,J3*%
X39130000Y-32990000D03*
X39130000Y-27940000D03*
X41670000Y-32990000D03*
X41670000Y-27940000D03*
X44210000Y-32990000D03*
X44210000Y-27940000D03*
X46750000Y-32990000D03*
X46750000Y-27940000D03*
X49290000Y-32990000D03*
X49290000Y-27940000D03*
X51830000Y-32990000D03*
X51830000Y-27940000D03*
%TD*%
D19*
%TO.C,R25*%
X78557500Y-38120000D03*
X80382500Y-38120000D03*
%TD*%
D10*
%TO.C,D4*%
X36117500Y-28000000D03*
X34542500Y-28000000D03*
%TD*%
%TO.C,D13*%
X63837500Y-25000000D03*
X62262500Y-25000000D03*
%TD*%
D19*
%TO.C,R26*%
X79027500Y-46920000D03*
X80852500Y-46920000D03*
%TD*%
D10*
%TO.C,D17*%
X22780000Y-53831250D03*
X21205000Y-53831250D03*
%TD*%
D14*
%TO.C,J4*%
X66630000Y-56940000D03*
X66630000Y-51890000D03*
X69170000Y-56940000D03*
X69170000Y-51890000D03*
X71710000Y-56940000D03*
X71710000Y-51890000D03*
X74250000Y-56940000D03*
X74250000Y-51890000D03*
X76790000Y-56940000D03*
X76790000Y-51890000D03*
X79330000Y-56940000D03*
X79330000Y-51890000D03*
%TD*%
D10*
%TO.C,D8*%
X36117500Y-59780000D03*
X34542500Y-59780000D03*
%TD*%
D20*
%TO.C,Q9*%
X46940000Y-43577500D03*
X47890000Y-43577500D03*
X48840000Y-43577500D03*
X48840000Y-41302500D03*
X47890000Y-41302500D03*
X46940000Y-41302500D03*
%TD*%
M02*
