%TF.GenerationSoftware,KiCad,Pcbnew,7.0.7*%
%TF.CreationDate,2024-06-03T14:36:37+02:00*%
%TF.ProjectId,control-board_v1,636f6e74-726f-46c2-9d62-6f6172645f76,rev?*%
%TF.SameCoordinates,Original*%
%TF.FileFunction,Paste,Bot*%
%TF.FilePolarity,Positive*%
%FSLAX46Y46*%
G04 Gerber Fmt 4.6, Leading zero omitted, Abs format (unit mm)*
G04 Created by KiCad (PCBNEW 7.0.7) date 2024-06-03 14:36:37*
%MOMM*%
%LPD*%
G01*
G04 APERTURE LIST*
G04 Aperture macros list*
%AMRoundRect*
0 Rectangle with rounded corners*
0 $1 Rounding radius*
0 $2 $3 $4 $5 $6 $7 $8 $9 X,Y pos of 4 corners*
0 Add a 4 corners polygon primitive as box body*
4,1,4,$2,$3,$4,$5,$6,$7,$8,$9,$2,$3,0*
0 Add four circle primitives for the rounded corners*
1,1,$1+$1,$2,$3*
1,1,$1+$1,$4,$5*
1,1,$1+$1,$6,$7*
1,1,$1+$1,$8,$9*
0 Add four rect primitives between the rounded corners*
20,1,$1+$1,$2,$3,$4,$5,0*
20,1,$1+$1,$4,$5,$6,$7,0*
20,1,$1+$1,$6,$7,$8,$9,0*
20,1,$1+$1,$8,$9,$2,$3,0*%
G04 Aperture macros list end*
%ADD10RoundRect,0.250000X0.262500X0.450000X-0.262500X0.450000X-0.262500X-0.450000X0.262500X-0.450000X0*%
%ADD11R,0.650000X0.400000*%
%ADD12RoundRect,0.150000X0.150000X-0.825000X0.150000X0.825000X-0.150000X0.825000X-0.150000X-0.825000X0*%
%ADD13R,0.400000X0.650000*%
%ADD14RoundRect,0.250000X-0.362500X-1.425000X0.362500X-1.425000X0.362500X1.425000X-0.362500X1.425000X0*%
%ADD15RoundRect,0.200000X0.200000X0.275000X-0.200000X0.275000X-0.200000X-0.275000X0.200000X-0.275000X0*%
%ADD16RoundRect,0.075000X-0.075000X0.650000X-0.075000X-0.650000X0.075000X-0.650000X0.075000X0.650000X0*%
%ADD17RoundRect,0.200000X-0.200000X-0.275000X0.200000X-0.275000X0.200000X0.275000X-0.200000X0.275000X0*%
%ADD18RoundRect,0.250000X0.250000X0.475000X-0.250000X0.475000X-0.250000X-0.475000X0.250000X-0.475000X0*%
%ADD19RoundRect,0.150000X-0.150000X0.825000X-0.150000X-0.825000X0.150000X-0.825000X0.150000X0.825000X0*%
%ADD20RoundRect,0.250000X-0.712500X-2.475000X0.712500X-2.475000X0.712500X2.475000X-0.712500X2.475000X0*%
G04 APERTURE END LIST*
D10*
%TO.C,R29*%
X67982500Y-29330000D03*
X66157500Y-29330000D03*
%TD*%
%TO.C,R9*%
X63962500Y-51000000D03*
X62137500Y-51000000D03*
%TD*%
%TO.C,R4*%
X36242500Y-28000000D03*
X34417500Y-28000000D03*
%TD*%
%TO.C,R3*%
X36242500Y-25000000D03*
X34417500Y-25000000D03*
%TD*%
D11*
%TO.C,Q1*%
X40740000Y-35590000D03*
X40740000Y-34940000D03*
X40740000Y-34290000D03*
X42640000Y-34290000D03*
X42640000Y-34940000D03*
X42640000Y-35590000D03*
%TD*%
D10*
%TO.C,R11*%
X63962500Y-57000000D03*
X62137500Y-57000000D03*
%TD*%
%TO.C,R12*%
X63962500Y-60000000D03*
X62137500Y-60000000D03*
%TD*%
D12*
%TO.C,U6*%
X80000000Y-44670000D03*
X78730000Y-44670000D03*
X77460000Y-44670000D03*
X76190000Y-44670000D03*
X76190000Y-39720000D03*
X77460000Y-39720000D03*
X78730000Y-39720000D03*
X80000000Y-39720000D03*
%TD*%
D13*
%TO.C,Q5*%
X73160000Y-61120000D03*
X73810000Y-61120000D03*
X74460000Y-61120000D03*
X74460000Y-63020000D03*
X73810000Y-63020000D03*
X73160000Y-63020000D03*
%TD*%
D14*
%TO.C,R23*%
X73327500Y-52150000D03*
X79252500Y-52150000D03*
%TD*%
D10*
%TO.C,R2*%
X36242500Y-31000000D03*
X34417500Y-31000000D03*
%TD*%
%TO.C,R1*%
X36242500Y-34000000D03*
X34417500Y-34000000D03*
%TD*%
%TO.C,R16*%
X63962500Y-34000000D03*
X62137500Y-34000000D03*
%TD*%
%TO.C,R10*%
X63962500Y-54000000D03*
X62137500Y-54000000D03*
%TD*%
D11*
%TO.C,Q4*%
X42640000Y-61070000D03*
X42640000Y-61720000D03*
X42640000Y-62370000D03*
X40740000Y-62370000D03*
X40740000Y-61720000D03*
X40740000Y-61070000D03*
%TD*%
D14*
%TO.C,R42*%
X45597500Y-27870000D03*
X51522500Y-27870000D03*
%TD*%
D10*
%TO.C,R14*%
X63962500Y-28000000D03*
X62137500Y-28000000D03*
%TD*%
D14*
%TO.C,R24*%
X79202500Y-27870000D03*
X73277500Y-27870000D03*
%TD*%
D15*
%TO.C,R28*%
X80725000Y-46940000D03*
X79075000Y-46940000D03*
%TD*%
D11*
%TO.C,Q8*%
X69610000Y-34290000D03*
X69610000Y-34940000D03*
X69610000Y-35590000D03*
X67710000Y-35590000D03*
X67710000Y-34940000D03*
X67710000Y-34290000D03*
%TD*%
D10*
%TO.C,R17*%
X22905000Y-53791250D03*
X21080000Y-53791250D03*
%TD*%
%TO.C,R6*%
X36242500Y-54000000D03*
X34417500Y-54000000D03*
%TD*%
%TO.C,R13*%
X63962500Y-25000000D03*
X62137500Y-25000000D03*
%TD*%
D16*
%TO.C,U3*%
X57830000Y-26310000D03*
X58330000Y-26310000D03*
X58830000Y-26310000D03*
X59330000Y-26310000D03*
X59830000Y-26310000D03*
X59830000Y-30710000D03*
X59330000Y-30710000D03*
X58830000Y-30710000D03*
X58330000Y-30710000D03*
X57830000Y-30710000D03*
%TD*%
D17*
%TO.C,R20*%
X41435000Y-37410000D03*
X43085000Y-37410000D03*
%TD*%
D10*
%TO.C,R5*%
X36242500Y-51000000D03*
X34417500Y-51000000D03*
%TD*%
%TO.C,R8*%
X36242500Y-59780000D03*
X34417500Y-59780000D03*
%TD*%
%TO.C,R18*%
X22905000Y-49891250D03*
X21080000Y-49891250D03*
%TD*%
%TO.C,R7*%
X36242500Y-56780000D03*
X34417500Y-56780000D03*
%TD*%
D13*
%TO.C,Q7*%
X72340000Y-34300000D03*
X72990000Y-34300000D03*
X73640000Y-34300000D03*
X73640000Y-36200000D03*
X72990000Y-36200000D03*
X72340000Y-36200000D03*
%TD*%
%TO.C,Q3*%
X45560000Y-61020000D03*
X46210000Y-61020000D03*
X46860000Y-61020000D03*
X46860000Y-62920000D03*
X46210000Y-62920000D03*
X45560000Y-62920000D03*
%TD*%
D11*
%TO.C,Q6*%
X69610000Y-61070000D03*
X69610000Y-61720000D03*
X69610000Y-62370000D03*
X67710000Y-62370000D03*
X67710000Y-61720000D03*
X67710000Y-61070000D03*
%TD*%
D10*
%TO.C,R15*%
X63962500Y-31000000D03*
X62137500Y-31000000D03*
%TD*%
D18*
%TO.C,C2*%
X54420000Y-37870000D03*
X52520000Y-37870000D03*
%TD*%
D19*
%TO.C,U4*%
X41860000Y-39800000D03*
X43130000Y-39800000D03*
X44400000Y-39800000D03*
X45670000Y-39800000D03*
X45670000Y-44750000D03*
X44400000Y-44750000D03*
X43130000Y-44750000D03*
X41860000Y-44750000D03*
%TD*%
D20*
%TO.C,F1*%
X27632500Y-42170000D03*
X34407500Y-42170000D03*
%TD*%
D13*
%TO.C,Q2*%
X46860000Y-36180000D03*
X46210000Y-36180000D03*
X45560000Y-36180000D03*
X45560000Y-34280000D03*
X46210000Y-34280000D03*
X46860000Y-34280000D03*
%TD*%
D17*
%TO.C,R22*%
X43045000Y-47710000D03*
X44695000Y-47710000D03*
%TD*%
D15*
%TO.C,R27*%
X79205000Y-37740000D03*
X77555000Y-37740000D03*
%TD*%
D14*
%TO.C,R47*%
X45775000Y-51990000D03*
X51700000Y-51990000D03*
%TD*%
M02*
