M48
; DRILL file {KiCad 7.0.7} date 2024 May 31, Friday 10:52:23
; FORMAT={-:-/ absolute / metric / decimal}
; #@! TF.CreationDate,2024-05-31T10:52:23+02:00
; #@! TF.GenerationSoftware,Kicad,Pcbnew,7.0.7
; #@! TF.FileFunction,Plated,1,4,PTH
FMAT,2
METRIC
; #@! TA.AperFunction,Plated,PTH,ViaDrill
T1C0.400
; #@! TA.AperFunction,Plated,PTH,ComponentDrill
T2C1.000
%
G90
G05
T1
X20.162Y-50.921
X20.223Y-52.701
X22.762Y-55.471
X22.782Y-48.301
X22.793Y-51.781
X24.092Y-53.821
X25.6Y-42.21
X27.78Y-45.75
X29.62Y-42.22
X31.0Y-35.99
X32.21Y-62.15
X33.42Y-55.64
X33.49Y-58.71
X33.54Y-49.87
X33.61Y-32.99
X33.61Y-52.93
X33.62Y-23.92
X33.62Y-26.92
X33.7Y-29.98
X35.09Y-21.51
X36.02Y-58.43
X36.07Y-42.17
X36.12Y-23.59
X36.12Y-26.45
X36.12Y-49.61
X36.13Y-61.66
X36.14Y-29.43
X36.14Y-55.46
X36.16Y-52.62
X36.17Y-32.46
X36.63Y-45.98
X37.39Y-37.07
X37.4Y-34.06
X37.41Y-57.95
X37.88Y-39.91
X38.04Y-55.95
X38.14Y-64.22
X38.17Y-30.06
X38.22Y-49.82
X39.14Y-35.04
X39.3Y-62.17
X39.4Y-59.82
X40.65Y-44.84
X40.7Y-55.1
X40.73Y-49.99
X40.76Y-30.46
X41.66Y-21.72
X41.67Y-25.86
X41.73Y-47.55
X42.18Y-30.77
X42.87Y-46.16
X42.92Y-53.04
X42.92Y-59.08
X42.93Y-25.01
X43.35Y-50.05
X43.89Y-37.5
X44.03Y-62.07
X44.06Y-35.43
X44.21Y-23.65
X44.27Y-60.03
X44.44Y-54.55
X44.69Y-63.6
X44.79Y-46.19
X44.9Y-30.34
X44.95Y-36.82
X45.0Y-38.12
X45.15Y-33.25
X45.4Y-42.18
X45.62Y-25.53
X45.76Y-49.62
X45.797Y-31.793
X45.81Y-20.27
X45.87Y-59.99
X46.42Y-47.22
X46.58Y-38.86
X46.65Y-54.51
X46.82Y-48.28
X47.43Y-30.72
X47.53Y-37.39
X47.79Y-58.92
X48.35Y-21.12
X49.02Y-23.77
X49.5Y-45.51
X49.63Y-19.14
X50.02Y-42.18
X50.51Y-54.31
X50.53Y-50.01
X51.24Y-64.17
X51.3Y-47.26
X51.44Y-37.87
X51.78Y-25.02
X52.14Y-21.704
X52.15Y-40.16
X52.46Y-44.75
X52.905Y-32.98
X52.92Y-56.99
X52.98Y-52.0
X53.005Y-34.816
X54.474Y-25.98
X54.474Y-27.59
X54.52Y-32.97
X54.54Y-30.01
X55.08Y-44.25
X55.28Y-59.58
X55.32Y-54.62
X55.5Y-39.49
X57.42Y-55.94
X57.84Y-23.8
X58.164Y-28.31
X58.164Y-32.78
X58.6Y-58.65
X58.67Y-39.76
X58.9Y-35.75
X59.48Y-56.99
X59.79Y-33.56
X59.865Y-23.56
X59.9Y-44.87
X59.97Y-48.85
X60.44Y-55.57
X61.12Y-61.13
X61.21Y-58.16
X61.34Y-52.98
X61.72Y-22.92
X61.87Y-40.14
X62.19Y-32.75
X62.25Y-26.82
X62.27Y-29.78
X62.29Y-52.21
X62.53Y-23.77
X63.01Y-39.3
X63.03Y-35.37
X63.5Y-49.64
X63.83Y-58.65
X63.84Y-23.42
X63.84Y-26.43
X63.84Y-29.69
X63.84Y-52.58
X63.85Y-61.83
X63.87Y-32.45
X65.05Y-45.35
X65.06Y-36.33
X65.14Y-33.33
X65.51Y-27.9
X66.4Y-18.96
X66.47Y-61.96
X66.49Y-59.37
X66.62Y-49.84
X67.59Y-45.19
X67.6Y-30.87
X67.88Y-57.18
X67.88Y-63.58
X67.89Y-55.59
X67.97Y-27.75
X68.21Y-48.44
X68.6Y-36.255
X68.92Y-23.75
X69.19Y-59.62
X69.97Y-24.96
X70.42Y-55.55
X70.55Y-37.92
X70.62Y-49.32
X70.7Y-61.88
X70.71Y-51.52
X70.79Y-20.44
X71.69Y-59.73
X71.71Y-25.65
X72.01Y-30.28
X72.46Y-63.78
X72.54Y-42.14
X72.73Y-22.14
X72.97Y-56.96
X73.0Y-33.1
X73.24Y-38.06
X73.25Y-39.21
X73.27Y-24.01
X73.32Y-49.52
X73.33Y-54.32
X73.48Y-45.47
X73.68Y-47.17
X73.8Y-60.09
X74.25Y-59.02
X74.74Y-36.57
X74.84Y-37.84
X75.42Y-29.78
X75.87Y-20.58
X76.79Y-25.38
X76.95Y-47.64
X77.86Y-42.2
X77.98Y-28.06
X77.99Y-46.94
X78.03Y-54.36
X78.06Y-51.8
X78.18Y-36.925
X79.31Y-30.79
X79.32Y-25.4
X79.33Y-49.53
X79.33Y-64.15
X79.98Y-36.08
X80.69Y-21.63
X80.995Y-36.64
X81.52Y-48.55
X81.55Y-43.08
X81.64Y-44.78
X82.0Y-46.92
X82.75Y-36.09
T2
X35.65Y-17.84
X38.19Y-17.84
X40.73Y-17.84
X43.27Y-17.84
X44.79Y-66.09
X45.81Y-17.84
X47.33Y-66.09
X48.35Y-17.84
X49.87Y-66.09
X50.89Y-17.84
X52.41Y-66.09
X53.43Y-17.84
X54.95Y-66.09
X55.97Y-17.84
X57.49Y-66.09
X58.51Y-17.84
X60.03Y-66.09
X62.57Y-17.84
X62.57Y-66.09
X65.11Y-17.84
X67.65Y-17.84
X67.65Y-66.09
X70.19Y-17.84
X70.19Y-66.09
X72.73Y-17.84
X72.73Y-66.09
X75.27Y-17.84
X75.27Y-66.09
X77.81Y-17.84
X77.81Y-66.09
X80.35Y-17.84
X80.35Y-66.09
T2
G00X21.32Y-28.06
M15
G01X19.82Y-28.06
M16
G05
G00X21.32Y-37.06
M15
G01X19.82Y-37.06
M16
G05
G00X21.57Y-31.91
M15
G01X21.57Y-33.21
M16
G05
G00X27.57Y-31.56
M15
G01X27.57Y-33.56
M16
G05
T0
M30
