%TF.GenerationSoftware,KiCad,Pcbnew,7.0.7*%
%TF.CreationDate,2024-06-03T19:27:50+02:00*%
%TF.ProjectId,control-board_v1,636f6e74-726f-46c2-9d62-6f6172645f76,rev?*%
%TF.SameCoordinates,Original*%
%TF.FileFunction,Legend,Top*%
%TF.FilePolarity,Positive*%
%FSLAX46Y46*%
G04 Gerber Fmt 4.6, Leading zero omitted, Abs format (unit mm)*
G04 Created by KiCad (PCBNEW 7.0.7) date 2024-06-03 19:27:50*
%MOMM*%
%LPD*%
G01*
G04 APERTURE LIST*
%ADD10C,0.120000*%
%ADD11C,0.150000*%
%ADD12C,0.200000*%
%ADD13C,0.112500*%
%ADD14C,0.100000*%
G04 APERTURE END LIST*
D10*
X20623553Y-58185000D02*
G75*
G03*
X20623553Y-58185000I-353553J0D01*
G01*
X20270000Y-58185000D02*
X27640000Y-58185000D01*
X27640000Y-66175000D01*
X20270000Y-66175000D01*
X20270000Y-58185000D01*
X24000000Y-66185000D02*
X24000000Y-58195000D01*
X17180000Y-39410000D02*
X21180000Y-39410000D01*
X21180000Y-43410000D01*
X17180000Y-43410000D01*
X17180000Y-39410000D01*
X17180000Y-41410000D02*
X21180000Y-41410000D01*
X19180000Y-43410000D02*
X19180000Y-39410000D01*
D11*
X17944286Y-42000057D02*
X17991905Y-41952438D01*
X17991905Y-41952438D02*
X18087143Y-41904819D01*
X18087143Y-41904819D02*
X18325238Y-41904819D01*
X18325238Y-41904819D02*
X18420476Y-41952438D01*
X18420476Y-41952438D02*
X18468095Y-42000057D01*
X18468095Y-42000057D02*
X18515714Y-42095295D01*
X18515714Y-42095295D02*
X18515714Y-42190533D01*
X18515714Y-42190533D02*
X18468095Y-42333390D01*
X18468095Y-42333390D02*
X17896667Y-42904819D01*
X17896667Y-42904819D02*
X18515714Y-42904819D01*
X21373922Y-40059819D02*
X21945350Y-40059819D01*
X21659636Y-41059819D02*
X21659636Y-40059819D01*
X22278684Y-41059819D02*
X22278684Y-40059819D01*
X22278684Y-40059819D02*
X22612017Y-40774104D01*
X22612017Y-40774104D02*
X22945350Y-40059819D01*
X22945350Y-40059819D02*
X22945350Y-41059819D01*
X21516779Y-42669819D02*
X21516779Y-41669819D01*
X21516779Y-41669819D02*
X22088207Y-42669819D01*
X22088207Y-42669819D02*
X22088207Y-41669819D01*
X22564398Y-41669819D02*
X22564398Y-42479342D01*
X22564398Y-42479342D02*
X22612017Y-42574580D01*
X22612017Y-42574580D02*
X22659636Y-42622200D01*
X22659636Y-42622200D02*
X22754874Y-42669819D01*
X22754874Y-42669819D02*
X22945350Y-42669819D01*
X22945350Y-42669819D02*
X23040588Y-42622200D01*
X23040588Y-42622200D02*
X23088207Y-42574580D01*
X23088207Y-42574580D02*
X23135826Y-42479342D01*
X23135826Y-42479342D02*
X23135826Y-41669819D01*
X23612017Y-42669819D02*
X23612017Y-41669819D01*
X23612017Y-41669819D02*
X23945350Y-42384104D01*
X23945350Y-42384104D02*
X24278683Y-41669819D01*
X24278683Y-41669819D02*
X24278683Y-42669819D01*
D12*
X18071101Y-17396980D02*
X18023482Y-17444600D01*
X18023482Y-17444600D02*
X17880625Y-17492219D01*
X17880625Y-17492219D02*
X17785387Y-17492219D01*
X17785387Y-17492219D02*
X17642530Y-17444600D01*
X17642530Y-17444600D02*
X17547292Y-17349361D01*
X17547292Y-17349361D02*
X17499673Y-17254123D01*
X17499673Y-17254123D02*
X17452054Y-17063647D01*
X17452054Y-17063647D02*
X17452054Y-16920790D01*
X17452054Y-16920790D02*
X17499673Y-16730314D01*
X17499673Y-16730314D02*
X17547292Y-16635076D01*
X17547292Y-16635076D02*
X17642530Y-16539838D01*
X17642530Y-16539838D02*
X17785387Y-16492219D01*
X17785387Y-16492219D02*
X17880625Y-16492219D01*
X17880625Y-16492219D02*
X18023482Y-16539838D01*
X18023482Y-16539838D02*
X18071101Y-16587457D01*
X18642530Y-17492219D02*
X18547292Y-17444600D01*
X18547292Y-17444600D02*
X18499673Y-17396980D01*
X18499673Y-17396980D02*
X18452054Y-17301742D01*
X18452054Y-17301742D02*
X18452054Y-17016028D01*
X18452054Y-17016028D02*
X18499673Y-16920790D01*
X18499673Y-16920790D02*
X18547292Y-16873171D01*
X18547292Y-16873171D02*
X18642530Y-16825552D01*
X18642530Y-16825552D02*
X18785387Y-16825552D01*
X18785387Y-16825552D02*
X18880625Y-16873171D01*
X18880625Y-16873171D02*
X18928244Y-16920790D01*
X18928244Y-16920790D02*
X18975863Y-17016028D01*
X18975863Y-17016028D02*
X18975863Y-17301742D01*
X18975863Y-17301742D02*
X18928244Y-17396980D01*
X18928244Y-17396980D02*
X18880625Y-17444600D01*
X18880625Y-17444600D02*
X18785387Y-17492219D01*
X18785387Y-17492219D02*
X18642530Y-17492219D01*
X19404435Y-16825552D02*
X19404435Y-17492219D01*
X19404435Y-16920790D02*
X19452054Y-16873171D01*
X19452054Y-16873171D02*
X19547292Y-16825552D01*
X19547292Y-16825552D02*
X19690149Y-16825552D01*
X19690149Y-16825552D02*
X19785387Y-16873171D01*
X19785387Y-16873171D02*
X19833006Y-16968409D01*
X19833006Y-16968409D02*
X19833006Y-17492219D01*
X20166340Y-16825552D02*
X20547292Y-16825552D01*
X20309197Y-16492219D02*
X20309197Y-17349361D01*
X20309197Y-17349361D02*
X20356816Y-17444600D01*
X20356816Y-17444600D02*
X20452054Y-17492219D01*
X20452054Y-17492219D02*
X20547292Y-17492219D01*
X20880626Y-17492219D02*
X20880626Y-16825552D01*
X20880626Y-17016028D02*
X20928245Y-16920790D01*
X20928245Y-16920790D02*
X20975864Y-16873171D01*
X20975864Y-16873171D02*
X21071102Y-16825552D01*
X21071102Y-16825552D02*
X21166340Y-16825552D01*
X21642531Y-17492219D02*
X21547293Y-17444600D01*
X21547293Y-17444600D02*
X21499674Y-17396980D01*
X21499674Y-17396980D02*
X21452055Y-17301742D01*
X21452055Y-17301742D02*
X21452055Y-17016028D01*
X21452055Y-17016028D02*
X21499674Y-16920790D01*
X21499674Y-16920790D02*
X21547293Y-16873171D01*
X21547293Y-16873171D02*
X21642531Y-16825552D01*
X21642531Y-16825552D02*
X21785388Y-16825552D01*
X21785388Y-16825552D02*
X21880626Y-16873171D01*
X21880626Y-16873171D02*
X21928245Y-16920790D01*
X21928245Y-16920790D02*
X21975864Y-17016028D01*
X21975864Y-17016028D02*
X21975864Y-17301742D01*
X21975864Y-17301742D02*
X21928245Y-17396980D01*
X21928245Y-17396980D02*
X21880626Y-17444600D01*
X21880626Y-17444600D02*
X21785388Y-17492219D01*
X21785388Y-17492219D02*
X21642531Y-17492219D01*
X22547293Y-17492219D02*
X22452055Y-17444600D01*
X22452055Y-17444600D02*
X22404436Y-17349361D01*
X22404436Y-17349361D02*
X22404436Y-16492219D01*
X24023484Y-16968409D02*
X24166341Y-17016028D01*
X24166341Y-17016028D02*
X24213960Y-17063647D01*
X24213960Y-17063647D02*
X24261579Y-17158885D01*
X24261579Y-17158885D02*
X24261579Y-17301742D01*
X24261579Y-17301742D02*
X24213960Y-17396980D01*
X24213960Y-17396980D02*
X24166341Y-17444600D01*
X24166341Y-17444600D02*
X24071103Y-17492219D01*
X24071103Y-17492219D02*
X23690151Y-17492219D01*
X23690151Y-17492219D02*
X23690151Y-16492219D01*
X23690151Y-16492219D02*
X24023484Y-16492219D01*
X24023484Y-16492219D02*
X24118722Y-16539838D01*
X24118722Y-16539838D02*
X24166341Y-16587457D01*
X24166341Y-16587457D02*
X24213960Y-16682695D01*
X24213960Y-16682695D02*
X24213960Y-16777933D01*
X24213960Y-16777933D02*
X24166341Y-16873171D01*
X24166341Y-16873171D02*
X24118722Y-16920790D01*
X24118722Y-16920790D02*
X24023484Y-16968409D01*
X24023484Y-16968409D02*
X23690151Y-16968409D01*
X24833008Y-17492219D02*
X24737770Y-17444600D01*
X24737770Y-17444600D02*
X24690151Y-17396980D01*
X24690151Y-17396980D02*
X24642532Y-17301742D01*
X24642532Y-17301742D02*
X24642532Y-17016028D01*
X24642532Y-17016028D02*
X24690151Y-16920790D01*
X24690151Y-16920790D02*
X24737770Y-16873171D01*
X24737770Y-16873171D02*
X24833008Y-16825552D01*
X24833008Y-16825552D02*
X24975865Y-16825552D01*
X24975865Y-16825552D02*
X25071103Y-16873171D01*
X25071103Y-16873171D02*
X25118722Y-16920790D01*
X25118722Y-16920790D02*
X25166341Y-17016028D01*
X25166341Y-17016028D02*
X25166341Y-17301742D01*
X25166341Y-17301742D02*
X25118722Y-17396980D01*
X25118722Y-17396980D02*
X25071103Y-17444600D01*
X25071103Y-17444600D02*
X24975865Y-17492219D01*
X24975865Y-17492219D02*
X24833008Y-17492219D01*
X26023484Y-17492219D02*
X26023484Y-16968409D01*
X26023484Y-16968409D02*
X25975865Y-16873171D01*
X25975865Y-16873171D02*
X25880627Y-16825552D01*
X25880627Y-16825552D02*
X25690151Y-16825552D01*
X25690151Y-16825552D02*
X25594913Y-16873171D01*
X26023484Y-17444600D02*
X25928246Y-17492219D01*
X25928246Y-17492219D02*
X25690151Y-17492219D01*
X25690151Y-17492219D02*
X25594913Y-17444600D01*
X25594913Y-17444600D02*
X25547294Y-17349361D01*
X25547294Y-17349361D02*
X25547294Y-17254123D01*
X25547294Y-17254123D02*
X25594913Y-17158885D01*
X25594913Y-17158885D02*
X25690151Y-17111266D01*
X25690151Y-17111266D02*
X25928246Y-17111266D01*
X25928246Y-17111266D02*
X26023484Y-17063647D01*
X26499675Y-17492219D02*
X26499675Y-16825552D01*
X26499675Y-17016028D02*
X26547294Y-16920790D01*
X26547294Y-16920790D02*
X26594913Y-16873171D01*
X26594913Y-16873171D02*
X26690151Y-16825552D01*
X26690151Y-16825552D02*
X26785389Y-16825552D01*
X27547294Y-17492219D02*
X27547294Y-16492219D01*
X27547294Y-17444600D02*
X27452056Y-17492219D01*
X27452056Y-17492219D02*
X27261580Y-17492219D01*
X27261580Y-17492219D02*
X27166342Y-17444600D01*
X27166342Y-17444600D02*
X27118723Y-17396980D01*
X27118723Y-17396980D02*
X27071104Y-17301742D01*
X27071104Y-17301742D02*
X27071104Y-17016028D01*
X27071104Y-17016028D02*
X27118723Y-16920790D01*
X27118723Y-16920790D02*
X27166342Y-16873171D01*
X27166342Y-16873171D02*
X27261580Y-16825552D01*
X27261580Y-16825552D02*
X27452056Y-16825552D01*
X27452056Y-16825552D02*
X27547294Y-16873171D01*
X28690152Y-16825552D02*
X28928247Y-17492219D01*
X28928247Y-17492219D02*
X29166342Y-16825552D01*
X30071104Y-17492219D02*
X29499676Y-17492219D01*
X29785390Y-17492219D02*
X29785390Y-16492219D01*
X29785390Y-16492219D02*
X29690152Y-16635076D01*
X29690152Y-16635076D02*
X29594914Y-16730314D01*
X29594914Y-16730314D02*
X29499676Y-16777933D01*
X17833006Y-18578409D02*
X17975863Y-18626028D01*
X17975863Y-18626028D02*
X18023482Y-18673647D01*
X18023482Y-18673647D02*
X18071101Y-18768885D01*
X18071101Y-18768885D02*
X18071101Y-18911742D01*
X18071101Y-18911742D02*
X18023482Y-19006980D01*
X18023482Y-19006980D02*
X17975863Y-19054600D01*
X17975863Y-19054600D02*
X17880625Y-19102219D01*
X17880625Y-19102219D02*
X17499673Y-19102219D01*
X17499673Y-19102219D02*
X17499673Y-18102219D01*
X17499673Y-18102219D02*
X17833006Y-18102219D01*
X17833006Y-18102219D02*
X17928244Y-18149838D01*
X17928244Y-18149838D02*
X17975863Y-18197457D01*
X17975863Y-18197457D02*
X18023482Y-18292695D01*
X18023482Y-18292695D02*
X18023482Y-18387933D01*
X18023482Y-18387933D02*
X17975863Y-18483171D01*
X17975863Y-18483171D02*
X17928244Y-18530790D01*
X17928244Y-18530790D02*
X17833006Y-18578409D01*
X17833006Y-18578409D02*
X17499673Y-18578409D01*
X18642530Y-19102219D02*
X18547292Y-19054600D01*
X18547292Y-19054600D02*
X18499673Y-19006980D01*
X18499673Y-19006980D02*
X18452054Y-18911742D01*
X18452054Y-18911742D02*
X18452054Y-18626028D01*
X18452054Y-18626028D02*
X18499673Y-18530790D01*
X18499673Y-18530790D02*
X18547292Y-18483171D01*
X18547292Y-18483171D02*
X18642530Y-18435552D01*
X18642530Y-18435552D02*
X18785387Y-18435552D01*
X18785387Y-18435552D02*
X18880625Y-18483171D01*
X18880625Y-18483171D02*
X18928244Y-18530790D01*
X18928244Y-18530790D02*
X18975863Y-18626028D01*
X18975863Y-18626028D02*
X18975863Y-18911742D01*
X18975863Y-18911742D02*
X18928244Y-19006980D01*
X18928244Y-19006980D02*
X18880625Y-19054600D01*
X18880625Y-19054600D02*
X18785387Y-19102219D01*
X18785387Y-19102219D02*
X18642530Y-19102219D01*
X19356816Y-19054600D02*
X19452054Y-19102219D01*
X19452054Y-19102219D02*
X19642530Y-19102219D01*
X19642530Y-19102219D02*
X19737768Y-19054600D01*
X19737768Y-19054600D02*
X19785387Y-18959361D01*
X19785387Y-18959361D02*
X19785387Y-18911742D01*
X19785387Y-18911742D02*
X19737768Y-18816504D01*
X19737768Y-18816504D02*
X19642530Y-18768885D01*
X19642530Y-18768885D02*
X19499673Y-18768885D01*
X19499673Y-18768885D02*
X19404435Y-18721266D01*
X19404435Y-18721266D02*
X19356816Y-18626028D01*
X19356816Y-18626028D02*
X19356816Y-18578409D01*
X19356816Y-18578409D02*
X19404435Y-18483171D01*
X19404435Y-18483171D02*
X19499673Y-18435552D01*
X19499673Y-18435552D02*
X19642530Y-18435552D01*
X19642530Y-18435552D02*
X19737768Y-18483171D01*
X20071102Y-18435552D02*
X20452054Y-18435552D01*
X20213959Y-18102219D02*
X20213959Y-18959361D01*
X20213959Y-18959361D02*
X20261578Y-19054600D01*
X20261578Y-19054600D02*
X20356816Y-19102219D01*
X20356816Y-19102219D02*
X20452054Y-19102219D01*
X20928245Y-19102219D02*
X20833007Y-19054600D01*
X20833007Y-19054600D02*
X20785388Y-19006980D01*
X20785388Y-19006980D02*
X20737769Y-18911742D01*
X20737769Y-18911742D02*
X20737769Y-18626028D01*
X20737769Y-18626028D02*
X20785388Y-18530790D01*
X20785388Y-18530790D02*
X20833007Y-18483171D01*
X20833007Y-18483171D02*
X20928245Y-18435552D01*
X20928245Y-18435552D02*
X21071102Y-18435552D01*
X21071102Y-18435552D02*
X21166340Y-18483171D01*
X21166340Y-18483171D02*
X21213959Y-18530790D01*
X21213959Y-18530790D02*
X21261578Y-18626028D01*
X21261578Y-18626028D02*
X21261578Y-18911742D01*
X21261578Y-18911742D02*
X21213959Y-19006980D01*
X21213959Y-19006980D02*
X21166340Y-19054600D01*
X21166340Y-19054600D02*
X21071102Y-19102219D01*
X21071102Y-19102219D02*
X20928245Y-19102219D01*
X21690150Y-18435552D02*
X21690150Y-19102219D01*
X21690150Y-18530790D02*
X21737769Y-18483171D01*
X21737769Y-18483171D02*
X21833007Y-18435552D01*
X21833007Y-18435552D02*
X21975864Y-18435552D01*
X21975864Y-18435552D02*
X22071102Y-18483171D01*
X22071102Y-18483171D02*
X22118721Y-18578409D01*
X22118721Y-18578409D02*
X22118721Y-19102219D01*
X23356817Y-18102219D02*
X23356817Y-18911742D01*
X23356817Y-18911742D02*
X23404436Y-19006980D01*
X23404436Y-19006980D02*
X23452055Y-19054600D01*
X23452055Y-19054600D02*
X23547293Y-19102219D01*
X23547293Y-19102219D02*
X23737769Y-19102219D01*
X23737769Y-19102219D02*
X23833007Y-19054600D01*
X23833007Y-19054600D02*
X23880626Y-19006980D01*
X23880626Y-19006980D02*
X23928245Y-18911742D01*
X23928245Y-18911742D02*
X23928245Y-18102219D01*
X24404436Y-18435552D02*
X24404436Y-19102219D01*
X24404436Y-18530790D02*
X24452055Y-18483171D01*
X24452055Y-18483171D02*
X24547293Y-18435552D01*
X24547293Y-18435552D02*
X24690150Y-18435552D01*
X24690150Y-18435552D02*
X24785388Y-18483171D01*
X24785388Y-18483171D02*
X24833007Y-18578409D01*
X24833007Y-18578409D02*
X24833007Y-19102219D01*
X25309198Y-19102219D02*
X25309198Y-18435552D01*
X25309198Y-18102219D02*
X25261579Y-18149838D01*
X25261579Y-18149838D02*
X25309198Y-18197457D01*
X25309198Y-18197457D02*
X25356817Y-18149838D01*
X25356817Y-18149838D02*
X25309198Y-18102219D01*
X25309198Y-18102219D02*
X25309198Y-18197457D01*
X25690150Y-18435552D02*
X25928245Y-19102219D01*
X25928245Y-19102219D02*
X26166340Y-18435552D01*
X26928245Y-19054600D02*
X26833007Y-19102219D01*
X26833007Y-19102219D02*
X26642531Y-19102219D01*
X26642531Y-19102219D02*
X26547293Y-19054600D01*
X26547293Y-19054600D02*
X26499674Y-18959361D01*
X26499674Y-18959361D02*
X26499674Y-18578409D01*
X26499674Y-18578409D02*
X26547293Y-18483171D01*
X26547293Y-18483171D02*
X26642531Y-18435552D01*
X26642531Y-18435552D02*
X26833007Y-18435552D01*
X26833007Y-18435552D02*
X26928245Y-18483171D01*
X26928245Y-18483171D02*
X26975864Y-18578409D01*
X26975864Y-18578409D02*
X26975864Y-18673647D01*
X26975864Y-18673647D02*
X26499674Y-18768885D01*
X27404436Y-19102219D02*
X27404436Y-18435552D01*
X27404436Y-18626028D02*
X27452055Y-18530790D01*
X27452055Y-18530790D02*
X27499674Y-18483171D01*
X27499674Y-18483171D02*
X27594912Y-18435552D01*
X27594912Y-18435552D02*
X27690150Y-18435552D01*
X27975865Y-19054600D02*
X28071103Y-19102219D01*
X28071103Y-19102219D02*
X28261579Y-19102219D01*
X28261579Y-19102219D02*
X28356817Y-19054600D01*
X28356817Y-19054600D02*
X28404436Y-18959361D01*
X28404436Y-18959361D02*
X28404436Y-18911742D01*
X28404436Y-18911742D02*
X28356817Y-18816504D01*
X28356817Y-18816504D02*
X28261579Y-18768885D01*
X28261579Y-18768885D02*
X28118722Y-18768885D01*
X28118722Y-18768885D02*
X28023484Y-18721266D01*
X28023484Y-18721266D02*
X27975865Y-18626028D01*
X27975865Y-18626028D02*
X27975865Y-18578409D01*
X27975865Y-18578409D02*
X28023484Y-18483171D01*
X28023484Y-18483171D02*
X28118722Y-18435552D01*
X28118722Y-18435552D02*
X28261579Y-18435552D01*
X28261579Y-18435552D02*
X28356817Y-18483171D01*
X28833008Y-19102219D02*
X28833008Y-18435552D01*
X28833008Y-18102219D02*
X28785389Y-18149838D01*
X28785389Y-18149838D02*
X28833008Y-18197457D01*
X28833008Y-18197457D02*
X28880627Y-18149838D01*
X28880627Y-18149838D02*
X28833008Y-18102219D01*
X28833008Y-18102219D02*
X28833008Y-18197457D01*
X29166341Y-18435552D02*
X29547293Y-18435552D01*
X29309198Y-18102219D02*
X29309198Y-18959361D01*
X29309198Y-18959361D02*
X29356817Y-19054600D01*
X29356817Y-19054600D02*
X29452055Y-19102219D01*
X29452055Y-19102219D02*
X29547293Y-19102219D01*
X29785389Y-18435552D02*
X30023484Y-19102219D01*
X30261579Y-18435552D02*
X30023484Y-19102219D01*
X30023484Y-19102219D02*
X29928246Y-19340314D01*
X29928246Y-19340314D02*
X29880627Y-19387933D01*
X29880627Y-19387933D02*
X29785389Y-19435552D01*
X17499673Y-20712219D02*
X17499673Y-19712219D01*
X17499673Y-19712219D02*
X18071101Y-20712219D01*
X18071101Y-20712219D02*
X18071101Y-19712219D01*
X18547292Y-20616980D02*
X18594911Y-20664600D01*
X18594911Y-20664600D02*
X18547292Y-20712219D01*
X18547292Y-20712219D02*
X18499673Y-20664600D01*
X18499673Y-20664600D02*
X18547292Y-20616980D01*
X18547292Y-20616980D02*
X18547292Y-20712219D01*
X20309196Y-19759838D02*
X20213958Y-19712219D01*
X20213958Y-19712219D02*
X20071101Y-19712219D01*
X20071101Y-19712219D02*
X19928244Y-19759838D01*
X19928244Y-19759838D02*
X19833006Y-19855076D01*
X19833006Y-19855076D02*
X19785387Y-19950314D01*
X19785387Y-19950314D02*
X19737768Y-20140790D01*
X19737768Y-20140790D02*
X19737768Y-20283647D01*
X19737768Y-20283647D02*
X19785387Y-20474123D01*
X19785387Y-20474123D02*
X19833006Y-20569361D01*
X19833006Y-20569361D02*
X19928244Y-20664600D01*
X19928244Y-20664600D02*
X20071101Y-20712219D01*
X20071101Y-20712219D02*
X20166339Y-20712219D01*
X20166339Y-20712219D02*
X20309196Y-20664600D01*
X20309196Y-20664600D02*
X20356815Y-20616980D01*
X20356815Y-20616980D02*
X20356815Y-20283647D01*
X20356815Y-20283647D02*
X20166339Y-20283647D01*
X20928244Y-20712219D02*
X20833006Y-20664600D01*
X20833006Y-20664600D02*
X20785387Y-20616980D01*
X20785387Y-20616980D02*
X20737768Y-20521742D01*
X20737768Y-20521742D02*
X20737768Y-20236028D01*
X20737768Y-20236028D02*
X20785387Y-20140790D01*
X20785387Y-20140790D02*
X20833006Y-20093171D01*
X20833006Y-20093171D02*
X20928244Y-20045552D01*
X20928244Y-20045552D02*
X21071101Y-20045552D01*
X21071101Y-20045552D02*
X21166339Y-20093171D01*
X21166339Y-20093171D02*
X21213958Y-20140790D01*
X21213958Y-20140790D02*
X21261577Y-20236028D01*
X21261577Y-20236028D02*
X21261577Y-20521742D01*
X21261577Y-20521742D02*
X21213958Y-20616980D01*
X21213958Y-20616980D02*
X21166339Y-20664600D01*
X21166339Y-20664600D02*
X21071101Y-20712219D01*
X21071101Y-20712219D02*
X20928244Y-20712219D01*
X21690149Y-20045552D02*
X21690149Y-20712219D01*
X21690149Y-20140790D02*
X21737768Y-20093171D01*
X21737768Y-20093171D02*
X21833006Y-20045552D01*
X21833006Y-20045552D02*
X21975863Y-20045552D01*
X21975863Y-20045552D02*
X22071101Y-20093171D01*
X22071101Y-20093171D02*
X22118720Y-20188409D01*
X22118720Y-20188409D02*
X22118720Y-20712219D01*
X22499673Y-20045552D02*
X23023482Y-20045552D01*
X23023482Y-20045552D02*
X22499673Y-20712219D01*
X22499673Y-20712219D02*
X23023482Y-20712219D01*
X23833006Y-20712219D02*
X23833006Y-20188409D01*
X23833006Y-20188409D02*
X23785387Y-20093171D01*
X23785387Y-20093171D02*
X23690149Y-20045552D01*
X23690149Y-20045552D02*
X23499673Y-20045552D01*
X23499673Y-20045552D02*
X23404435Y-20093171D01*
X23833006Y-20664600D02*
X23737768Y-20712219D01*
X23737768Y-20712219D02*
X23499673Y-20712219D01*
X23499673Y-20712219D02*
X23404435Y-20664600D01*
X23404435Y-20664600D02*
X23356816Y-20569361D01*
X23356816Y-20569361D02*
X23356816Y-20474123D01*
X23356816Y-20474123D02*
X23404435Y-20378885D01*
X23404435Y-20378885D02*
X23499673Y-20331266D01*
X23499673Y-20331266D02*
X23737768Y-20331266D01*
X23737768Y-20331266D02*
X23833006Y-20283647D01*
X24452054Y-20712219D02*
X24356816Y-20664600D01*
X24356816Y-20664600D02*
X24309197Y-20569361D01*
X24309197Y-20569361D02*
X24309197Y-19712219D01*
X25213959Y-20664600D02*
X25118721Y-20712219D01*
X25118721Y-20712219D02*
X24928245Y-20712219D01*
X24928245Y-20712219D02*
X24833007Y-20664600D01*
X24833007Y-20664600D02*
X24785388Y-20569361D01*
X24785388Y-20569361D02*
X24785388Y-20188409D01*
X24785388Y-20188409D02*
X24833007Y-20093171D01*
X24833007Y-20093171D02*
X24928245Y-20045552D01*
X24928245Y-20045552D02*
X25118721Y-20045552D01*
X25118721Y-20045552D02*
X25213959Y-20093171D01*
X25213959Y-20093171D02*
X25261578Y-20188409D01*
X25261578Y-20188409D02*
X25261578Y-20283647D01*
X25261578Y-20283647D02*
X24785388Y-20378885D01*
X25594912Y-20045552D02*
X26118721Y-20045552D01*
X26118721Y-20045552D02*
X25594912Y-20712219D01*
X25594912Y-20712219D02*
X26118721Y-20712219D01*
X27452055Y-19712219D02*
X27547293Y-19712219D01*
X27547293Y-19712219D02*
X27642531Y-19759838D01*
X27642531Y-19759838D02*
X27690150Y-19807457D01*
X27690150Y-19807457D02*
X27737769Y-19902695D01*
X27737769Y-19902695D02*
X27785388Y-20093171D01*
X27785388Y-20093171D02*
X27785388Y-20331266D01*
X27785388Y-20331266D02*
X27737769Y-20521742D01*
X27737769Y-20521742D02*
X27690150Y-20616980D01*
X27690150Y-20616980D02*
X27642531Y-20664600D01*
X27642531Y-20664600D02*
X27547293Y-20712219D01*
X27547293Y-20712219D02*
X27452055Y-20712219D01*
X27452055Y-20712219D02*
X27356817Y-20664600D01*
X27356817Y-20664600D02*
X27309198Y-20616980D01*
X27309198Y-20616980D02*
X27261579Y-20521742D01*
X27261579Y-20521742D02*
X27213960Y-20331266D01*
X27213960Y-20331266D02*
X27213960Y-20093171D01*
X27213960Y-20093171D02*
X27261579Y-19902695D01*
X27261579Y-19902695D02*
X27309198Y-19807457D01*
X27309198Y-19807457D02*
X27356817Y-19759838D01*
X27356817Y-19759838D02*
X27452055Y-19712219D01*
X28642531Y-19712219D02*
X28452055Y-19712219D01*
X28452055Y-19712219D02*
X28356817Y-19759838D01*
X28356817Y-19759838D02*
X28309198Y-19807457D01*
X28309198Y-19807457D02*
X28213960Y-19950314D01*
X28213960Y-19950314D02*
X28166341Y-20140790D01*
X28166341Y-20140790D02*
X28166341Y-20521742D01*
X28166341Y-20521742D02*
X28213960Y-20616980D01*
X28213960Y-20616980D02*
X28261579Y-20664600D01*
X28261579Y-20664600D02*
X28356817Y-20712219D01*
X28356817Y-20712219D02*
X28547293Y-20712219D01*
X28547293Y-20712219D02*
X28642531Y-20664600D01*
X28642531Y-20664600D02*
X28690150Y-20616980D01*
X28690150Y-20616980D02*
X28737769Y-20521742D01*
X28737769Y-20521742D02*
X28737769Y-20283647D01*
X28737769Y-20283647D02*
X28690150Y-20188409D01*
X28690150Y-20188409D02*
X28642531Y-20140790D01*
X28642531Y-20140790D02*
X28547293Y-20093171D01*
X28547293Y-20093171D02*
X28356817Y-20093171D01*
X28356817Y-20093171D02*
X28261579Y-20140790D01*
X28261579Y-20140790D02*
X28213960Y-20188409D01*
X28213960Y-20188409D02*
X28166341Y-20283647D01*
X29166341Y-20331266D02*
X29928246Y-20331266D01*
X30356817Y-19807457D02*
X30404436Y-19759838D01*
X30404436Y-19759838D02*
X30499674Y-19712219D01*
X30499674Y-19712219D02*
X30737769Y-19712219D01*
X30737769Y-19712219D02*
X30833007Y-19759838D01*
X30833007Y-19759838D02*
X30880626Y-19807457D01*
X30880626Y-19807457D02*
X30928245Y-19902695D01*
X30928245Y-19902695D02*
X30928245Y-19997933D01*
X30928245Y-19997933D02*
X30880626Y-20140790D01*
X30880626Y-20140790D02*
X30309198Y-20712219D01*
X30309198Y-20712219D02*
X30928245Y-20712219D01*
X31547293Y-19712219D02*
X31642531Y-19712219D01*
X31642531Y-19712219D02*
X31737769Y-19759838D01*
X31737769Y-19759838D02*
X31785388Y-19807457D01*
X31785388Y-19807457D02*
X31833007Y-19902695D01*
X31833007Y-19902695D02*
X31880626Y-20093171D01*
X31880626Y-20093171D02*
X31880626Y-20331266D01*
X31880626Y-20331266D02*
X31833007Y-20521742D01*
X31833007Y-20521742D02*
X31785388Y-20616980D01*
X31785388Y-20616980D02*
X31737769Y-20664600D01*
X31737769Y-20664600D02*
X31642531Y-20712219D01*
X31642531Y-20712219D02*
X31547293Y-20712219D01*
X31547293Y-20712219D02*
X31452055Y-20664600D01*
X31452055Y-20664600D02*
X31404436Y-20616980D01*
X31404436Y-20616980D02*
X31356817Y-20521742D01*
X31356817Y-20521742D02*
X31309198Y-20331266D01*
X31309198Y-20331266D02*
X31309198Y-20093171D01*
X31309198Y-20093171D02*
X31356817Y-19902695D01*
X31356817Y-19902695D02*
X31404436Y-19807457D01*
X31404436Y-19807457D02*
X31452055Y-19759838D01*
X31452055Y-19759838D02*
X31547293Y-19712219D01*
X32261579Y-19807457D02*
X32309198Y-19759838D01*
X32309198Y-19759838D02*
X32404436Y-19712219D01*
X32404436Y-19712219D02*
X32642531Y-19712219D01*
X32642531Y-19712219D02*
X32737769Y-19759838D01*
X32737769Y-19759838D02*
X32785388Y-19807457D01*
X32785388Y-19807457D02*
X32833007Y-19902695D01*
X32833007Y-19902695D02*
X32833007Y-19997933D01*
X32833007Y-19997933D02*
X32785388Y-20140790D01*
X32785388Y-20140790D02*
X32213960Y-20712219D01*
X32213960Y-20712219D02*
X32833007Y-20712219D01*
X33690150Y-20045552D02*
X33690150Y-20712219D01*
X33452055Y-19664600D02*
X33213960Y-20378885D01*
X33213960Y-20378885D02*
X33833007Y-20378885D01*
D13*
X25851701Y-59502364D02*
X25851701Y-58752364D01*
X25851701Y-58752364D02*
X26030272Y-58752364D01*
X26030272Y-58752364D02*
X26137415Y-58788078D01*
X26137415Y-58788078D02*
X26208844Y-58859507D01*
X26208844Y-58859507D02*
X26244558Y-58930935D01*
X26244558Y-58930935D02*
X26280272Y-59073792D01*
X26280272Y-59073792D02*
X26280272Y-59180935D01*
X26280272Y-59180935D02*
X26244558Y-59323792D01*
X26244558Y-59323792D02*
X26208844Y-59395221D01*
X26208844Y-59395221D02*
X26137415Y-59466650D01*
X26137415Y-59466650D02*
X26030272Y-59502364D01*
X26030272Y-59502364D02*
X25851701Y-59502364D01*
X26601701Y-59502364D02*
X26601701Y-58752364D01*
X26958844Y-59502364D02*
X26958844Y-58752364D01*
X26958844Y-58752364D02*
X27387415Y-59502364D01*
X27387415Y-59502364D02*
X27387415Y-58752364D01*
X26137414Y-60709864D02*
X25887414Y-60352721D01*
X25708843Y-60709864D02*
X25708843Y-59959864D01*
X25708843Y-59959864D02*
X25994557Y-59959864D01*
X25994557Y-59959864D02*
X26065986Y-59995578D01*
X26065986Y-59995578D02*
X26101700Y-60031292D01*
X26101700Y-60031292D02*
X26137414Y-60102721D01*
X26137414Y-60102721D02*
X26137414Y-60209864D01*
X26137414Y-60209864D02*
X26101700Y-60281292D01*
X26101700Y-60281292D02*
X26065986Y-60317007D01*
X26065986Y-60317007D02*
X25994557Y-60352721D01*
X25994557Y-60352721D02*
X25708843Y-60352721D01*
X26423129Y-60674150D02*
X26530272Y-60709864D01*
X26530272Y-60709864D02*
X26708843Y-60709864D01*
X26708843Y-60709864D02*
X26780272Y-60674150D01*
X26780272Y-60674150D02*
X26815986Y-60638435D01*
X26815986Y-60638435D02*
X26851700Y-60567007D01*
X26851700Y-60567007D02*
X26851700Y-60495578D01*
X26851700Y-60495578D02*
X26815986Y-60424150D01*
X26815986Y-60424150D02*
X26780272Y-60388435D01*
X26780272Y-60388435D02*
X26708843Y-60352721D01*
X26708843Y-60352721D02*
X26565986Y-60317007D01*
X26565986Y-60317007D02*
X26494557Y-60281292D01*
X26494557Y-60281292D02*
X26458843Y-60245578D01*
X26458843Y-60245578D02*
X26423129Y-60174150D01*
X26423129Y-60174150D02*
X26423129Y-60102721D01*
X26423129Y-60102721D02*
X26458843Y-60031292D01*
X26458843Y-60031292D02*
X26494557Y-59995578D01*
X26494557Y-59995578D02*
X26565986Y-59959864D01*
X26565986Y-59959864D02*
X26744557Y-59959864D01*
X26744557Y-59959864D02*
X26851700Y-59995578D01*
X27065986Y-59959864D02*
X27494558Y-59959864D01*
X27280272Y-60709864D02*
X27280272Y-59959864D01*
X25605272Y-59751650D02*
X27490987Y-59751650D01*
X25601700Y-61167364D02*
X26065986Y-61167364D01*
X26065986Y-61167364D02*
X25815986Y-61453078D01*
X25815986Y-61453078D02*
X25923129Y-61453078D01*
X25923129Y-61453078D02*
X25994558Y-61488792D01*
X25994558Y-61488792D02*
X26030272Y-61524507D01*
X26030272Y-61524507D02*
X26065986Y-61595935D01*
X26065986Y-61595935D02*
X26065986Y-61774507D01*
X26065986Y-61774507D02*
X26030272Y-61845935D01*
X26030272Y-61845935D02*
X25994558Y-61881650D01*
X25994558Y-61881650D02*
X25923129Y-61917364D01*
X25923129Y-61917364D02*
X25708843Y-61917364D01*
X25708843Y-61917364D02*
X25637415Y-61881650D01*
X25637415Y-61881650D02*
X25601700Y-61845935D01*
X26280272Y-61167364D02*
X26530272Y-61917364D01*
X26530272Y-61917364D02*
X26780272Y-61167364D01*
X26958843Y-61167364D02*
X27423129Y-61167364D01*
X27423129Y-61167364D02*
X27173129Y-61453078D01*
X27173129Y-61453078D02*
X27280272Y-61453078D01*
X27280272Y-61453078D02*
X27351701Y-61488792D01*
X27351701Y-61488792D02*
X27387415Y-61524507D01*
X27387415Y-61524507D02*
X27423129Y-61595935D01*
X27423129Y-61595935D02*
X27423129Y-61774507D01*
X27423129Y-61774507D02*
X27387415Y-61845935D01*
X27387415Y-61845935D02*
X27351701Y-61881650D01*
X27351701Y-61881650D02*
X27280272Y-61917364D01*
X27280272Y-61917364D02*
X27065986Y-61917364D01*
X27065986Y-61917364D02*
X26994558Y-61881650D01*
X26994558Y-61881650D02*
X26958843Y-61845935D01*
X24851699Y-63053435D02*
X24815985Y-63089150D01*
X24815985Y-63089150D02*
X24708842Y-63124864D01*
X24708842Y-63124864D02*
X24637414Y-63124864D01*
X24637414Y-63124864D02*
X24530271Y-63089150D01*
X24530271Y-63089150D02*
X24458842Y-63017721D01*
X24458842Y-63017721D02*
X24423128Y-62946292D01*
X24423128Y-62946292D02*
X24387414Y-62803435D01*
X24387414Y-62803435D02*
X24387414Y-62696292D01*
X24387414Y-62696292D02*
X24423128Y-62553435D01*
X24423128Y-62553435D02*
X24458842Y-62482007D01*
X24458842Y-62482007D02*
X24530271Y-62410578D01*
X24530271Y-62410578D02*
X24637414Y-62374864D01*
X24637414Y-62374864D02*
X24708842Y-62374864D01*
X24708842Y-62374864D02*
X24815985Y-62410578D01*
X24815985Y-62410578D02*
X24851699Y-62446292D01*
X25137414Y-63089150D02*
X25244557Y-63124864D01*
X25244557Y-63124864D02*
X25423128Y-63124864D01*
X25423128Y-63124864D02*
X25494557Y-63089150D01*
X25494557Y-63089150D02*
X25530271Y-63053435D01*
X25530271Y-63053435D02*
X25565985Y-62982007D01*
X25565985Y-62982007D02*
X25565985Y-62910578D01*
X25565985Y-62910578D02*
X25530271Y-62839150D01*
X25530271Y-62839150D02*
X25494557Y-62803435D01*
X25494557Y-62803435D02*
X25423128Y-62767721D01*
X25423128Y-62767721D02*
X25280271Y-62732007D01*
X25280271Y-62732007D02*
X25208842Y-62696292D01*
X25208842Y-62696292D02*
X25173128Y-62660578D01*
X25173128Y-62660578D02*
X25137414Y-62589150D01*
X25137414Y-62589150D02*
X25137414Y-62517721D01*
X25137414Y-62517721D02*
X25173128Y-62446292D01*
X25173128Y-62446292D02*
X25208842Y-62410578D01*
X25208842Y-62410578D02*
X25280271Y-62374864D01*
X25280271Y-62374864D02*
X25458842Y-62374864D01*
X25458842Y-62374864D02*
X25565985Y-62410578D01*
X25708843Y-63196292D02*
X26280271Y-63196292D01*
X26351700Y-62374864D02*
X26780272Y-62374864D01*
X26565986Y-63124864D02*
X26565986Y-62374864D01*
X26994558Y-62446292D02*
X27030272Y-62410578D01*
X27030272Y-62410578D02*
X27101701Y-62374864D01*
X27101701Y-62374864D02*
X27280272Y-62374864D01*
X27280272Y-62374864D02*
X27351701Y-62410578D01*
X27351701Y-62410578D02*
X27387415Y-62446292D01*
X27387415Y-62446292D02*
X27423129Y-62517721D01*
X27423129Y-62517721D02*
X27423129Y-62589150D01*
X27423129Y-62589150D02*
X27387415Y-62696292D01*
X27387415Y-62696292D02*
X26958843Y-63124864D01*
X26958843Y-63124864D02*
X27423129Y-63124864D01*
X24319557Y-62166650D02*
X27490987Y-62166650D01*
X26065986Y-64260935D02*
X26030272Y-64296650D01*
X26030272Y-64296650D02*
X25923129Y-64332364D01*
X25923129Y-64332364D02*
X25851701Y-64332364D01*
X25851701Y-64332364D02*
X25744558Y-64296650D01*
X25744558Y-64296650D02*
X25673129Y-64225221D01*
X25673129Y-64225221D02*
X25637415Y-64153792D01*
X25637415Y-64153792D02*
X25601701Y-64010935D01*
X25601701Y-64010935D02*
X25601701Y-63903792D01*
X25601701Y-63903792D02*
X25637415Y-63760935D01*
X25637415Y-63760935D02*
X25673129Y-63689507D01*
X25673129Y-63689507D02*
X25744558Y-63618078D01*
X25744558Y-63618078D02*
X25851701Y-63582364D01*
X25851701Y-63582364D02*
X25923129Y-63582364D01*
X25923129Y-63582364D02*
X26030272Y-63618078D01*
X26030272Y-63618078D02*
X26065986Y-63653792D01*
X26744558Y-64332364D02*
X26387415Y-64332364D01*
X26387415Y-64332364D02*
X26387415Y-63582364D01*
X26994558Y-64332364D02*
X26994558Y-63582364D01*
X27423129Y-64332364D02*
X27101701Y-63903792D01*
X27423129Y-63582364D02*
X26994558Y-64010935D01*
X25851701Y-64825578D02*
X25780273Y-64789864D01*
X25780273Y-64789864D02*
X25673130Y-64789864D01*
X25673130Y-64789864D02*
X25565987Y-64825578D01*
X25565987Y-64825578D02*
X25494558Y-64897007D01*
X25494558Y-64897007D02*
X25458844Y-64968435D01*
X25458844Y-64968435D02*
X25423130Y-65111292D01*
X25423130Y-65111292D02*
X25423130Y-65218435D01*
X25423130Y-65218435D02*
X25458844Y-65361292D01*
X25458844Y-65361292D02*
X25494558Y-65432721D01*
X25494558Y-65432721D02*
X25565987Y-65504150D01*
X25565987Y-65504150D02*
X25673130Y-65539864D01*
X25673130Y-65539864D02*
X25744558Y-65539864D01*
X25744558Y-65539864D02*
X25851701Y-65504150D01*
X25851701Y-65504150D02*
X25887415Y-65468435D01*
X25887415Y-65468435D02*
X25887415Y-65218435D01*
X25887415Y-65218435D02*
X25744558Y-65218435D01*
X26208844Y-65539864D02*
X26208844Y-64789864D01*
X26208844Y-64789864D02*
X26637415Y-65539864D01*
X26637415Y-65539864D02*
X26637415Y-64789864D01*
X26994558Y-65539864D02*
X26994558Y-64789864D01*
X26994558Y-64789864D02*
X27173129Y-64789864D01*
X27173129Y-64789864D02*
X27280272Y-64825578D01*
X27280272Y-64825578D02*
X27351701Y-64897007D01*
X27351701Y-64897007D02*
X27387415Y-64968435D01*
X27387415Y-64968435D02*
X27423129Y-65111292D01*
X27423129Y-65111292D02*
X27423129Y-65218435D01*
X27423129Y-65218435D02*
X27387415Y-65361292D01*
X27387415Y-65361292D02*
X27351701Y-65432721D01*
X27351701Y-65432721D02*
X27280272Y-65504150D01*
X27280272Y-65504150D02*
X27173129Y-65539864D01*
X27173129Y-65539864D02*
X26994558Y-65539864D01*
D11*
X18537144Y-47507378D02*
X18501429Y-47471664D01*
X18501429Y-47471664D02*
X18430001Y-47364521D01*
X18430001Y-47364521D02*
X18394287Y-47293092D01*
X18394287Y-47293092D02*
X18358572Y-47185950D01*
X18358572Y-47185950D02*
X18322858Y-47007378D01*
X18322858Y-47007378D02*
X18322858Y-46864521D01*
X18322858Y-46864521D02*
X18358572Y-46685950D01*
X18358572Y-46685950D02*
X18394287Y-46578807D01*
X18394287Y-46578807D02*
X18430001Y-46507378D01*
X18430001Y-46507378D02*
X18501429Y-46400235D01*
X18501429Y-46400235D02*
X18537144Y-46364521D01*
X18572858Y-46400235D02*
X19215715Y-47364521D01*
X19144287Y-47293092D02*
X19715715Y-47293092D01*
X19715716Y-47293092D02*
X20287144Y-47293092D01*
X21001430Y-46435950D02*
X20358573Y-47400235D01*
X21180001Y-47507378D02*
X21215716Y-47471664D01*
X21215716Y-47471664D02*
X21287144Y-47364521D01*
X21287144Y-47364521D02*
X21322859Y-47293092D01*
X21322859Y-47293092D02*
X21358573Y-47185950D01*
X21358573Y-47185950D02*
X21394287Y-47007378D01*
X21394287Y-47007378D02*
X21394287Y-46864521D01*
X21394287Y-46864521D02*
X21358573Y-46685950D01*
X21358573Y-46685950D02*
X21322859Y-46578807D01*
X21322859Y-46578807D02*
X21287144Y-46507378D01*
X21287144Y-46507378D02*
X21215716Y-46400235D01*
X21215716Y-46400235D02*
X21180001Y-46364521D01*
X18072859Y-48714878D02*
X18037144Y-48679164D01*
X18037144Y-48679164D02*
X17965716Y-48572021D01*
X17965716Y-48572021D02*
X17930002Y-48500592D01*
X17930002Y-48500592D02*
X17894287Y-48393450D01*
X17894287Y-48393450D02*
X17858573Y-48214878D01*
X17858573Y-48214878D02*
X17858573Y-48072021D01*
X17858573Y-48072021D02*
X17894287Y-47893450D01*
X17894287Y-47893450D02*
X17930002Y-47786307D01*
X17930002Y-47786307D02*
X17965716Y-47714878D01*
X17965716Y-47714878D02*
X18037144Y-47607735D01*
X18037144Y-47607735D02*
X18072859Y-47572021D01*
X19144288Y-48072021D02*
X19144288Y-48214878D01*
X19180002Y-48214878D02*
X19180002Y-48072021D01*
X19215716Y-48036307D02*
X19215716Y-48250592D01*
X19251431Y-48214878D02*
X19251431Y-48072021D01*
X19287145Y-48072021D02*
X19287145Y-48214878D01*
X19144288Y-48179164D02*
X19215716Y-48250592D01*
X19215716Y-48250592D02*
X19287145Y-48179164D01*
X19144288Y-48107735D02*
X19215716Y-48036307D01*
X19215716Y-48036307D02*
X19287145Y-48107735D01*
X19144288Y-48072021D02*
X19215716Y-48036307D01*
X19215716Y-48036307D02*
X19287145Y-48072021D01*
X19287145Y-48072021D02*
X19322859Y-48143450D01*
X19322859Y-48143450D02*
X19287145Y-48214878D01*
X19287145Y-48214878D02*
X19215716Y-48250592D01*
X19215716Y-48250592D02*
X19144288Y-48214878D01*
X19144288Y-48214878D02*
X19108573Y-48143450D01*
X19108573Y-48143450D02*
X19144288Y-48072021D01*
X19858573Y-48143450D02*
X20430002Y-48143450D01*
X21001430Y-48072021D02*
X21001430Y-48214878D01*
X21037144Y-48214878D02*
X21037144Y-48072021D01*
X21072858Y-48036307D02*
X21072858Y-48250592D01*
X21108573Y-48214878D02*
X21108573Y-48072021D01*
X21144287Y-48072021D02*
X21144287Y-48214878D01*
X21001430Y-48179164D02*
X21072858Y-48250592D01*
X21072858Y-48250592D02*
X21144287Y-48179164D01*
X21001430Y-48107735D02*
X21072858Y-48036307D01*
X21072858Y-48036307D02*
X21144287Y-48107735D01*
X21001430Y-48072021D02*
X21072858Y-48036307D01*
X21072858Y-48036307D02*
X21144287Y-48072021D01*
X21144287Y-48072021D02*
X21180001Y-48143450D01*
X21180001Y-48143450D02*
X21144287Y-48214878D01*
X21144287Y-48214878D02*
X21072858Y-48250592D01*
X21072858Y-48250592D02*
X21001430Y-48214878D01*
X21001430Y-48214878D02*
X20965715Y-48143450D01*
X20965715Y-48143450D02*
X21001430Y-48072021D01*
X21644286Y-48714878D02*
X21680001Y-48679164D01*
X21680001Y-48679164D02*
X21751429Y-48572021D01*
X21751429Y-48572021D02*
X21787144Y-48500592D01*
X21787144Y-48500592D02*
X21822858Y-48393450D01*
X21822858Y-48393450D02*
X21858572Y-48214878D01*
X21858572Y-48214878D02*
X21858572Y-48072021D01*
X21858572Y-48072021D02*
X21822858Y-47893450D01*
X21822858Y-47893450D02*
X21787144Y-47786307D01*
X21787144Y-47786307D02*
X21751429Y-47714878D01*
X21751429Y-47714878D02*
X21680001Y-47607735D01*
X21680001Y-47607735D02*
X21644286Y-47572021D01*
X18287143Y-48850950D02*
X17644286Y-49815235D01*
X19680001Y-49136664D02*
X20251430Y-49350950D01*
X20251430Y-49350950D02*
X19680001Y-49565235D01*
D13*
X20951155Y-59430935D02*
X20915441Y-59466650D01*
X20915441Y-59466650D02*
X20808298Y-59502364D01*
X20808298Y-59502364D02*
X20736870Y-59502364D01*
X20736870Y-59502364D02*
X20629727Y-59466650D01*
X20629727Y-59466650D02*
X20558298Y-59395221D01*
X20558298Y-59395221D02*
X20522584Y-59323792D01*
X20522584Y-59323792D02*
X20486870Y-59180935D01*
X20486870Y-59180935D02*
X20486870Y-59073792D01*
X20486870Y-59073792D02*
X20522584Y-58930935D01*
X20522584Y-58930935D02*
X20558298Y-58859507D01*
X20558298Y-58859507D02*
X20629727Y-58788078D01*
X20629727Y-58788078D02*
X20736870Y-58752364D01*
X20736870Y-58752364D02*
X20808298Y-58752364D01*
X20808298Y-58752364D02*
X20915441Y-58788078D01*
X20915441Y-58788078D02*
X20951155Y-58823792D01*
X21236870Y-59466650D02*
X21344013Y-59502364D01*
X21344013Y-59502364D02*
X21522584Y-59502364D01*
X21522584Y-59502364D02*
X21594013Y-59466650D01*
X21594013Y-59466650D02*
X21629727Y-59430935D01*
X21629727Y-59430935D02*
X21665441Y-59359507D01*
X21665441Y-59359507D02*
X21665441Y-59288078D01*
X21665441Y-59288078D02*
X21629727Y-59216650D01*
X21629727Y-59216650D02*
X21594013Y-59180935D01*
X21594013Y-59180935D02*
X21522584Y-59145221D01*
X21522584Y-59145221D02*
X21379727Y-59109507D01*
X21379727Y-59109507D02*
X21308298Y-59073792D01*
X21308298Y-59073792D02*
X21272584Y-59038078D01*
X21272584Y-59038078D02*
X21236870Y-58966650D01*
X21236870Y-58966650D02*
X21236870Y-58895221D01*
X21236870Y-58895221D02*
X21272584Y-58823792D01*
X21272584Y-58823792D02*
X21308298Y-58788078D01*
X21308298Y-58788078D02*
X21379727Y-58752364D01*
X21379727Y-58752364D02*
X21558298Y-58752364D01*
X21558298Y-58752364D02*
X21665441Y-58788078D01*
X20419013Y-58544150D02*
X21733299Y-58544150D01*
X20951155Y-60709864D02*
X20701155Y-60352721D01*
X20522584Y-60709864D02*
X20522584Y-59959864D01*
X20522584Y-59959864D02*
X20808298Y-59959864D01*
X20808298Y-59959864D02*
X20879727Y-59995578D01*
X20879727Y-59995578D02*
X20915441Y-60031292D01*
X20915441Y-60031292D02*
X20951155Y-60102721D01*
X20951155Y-60102721D02*
X20951155Y-60209864D01*
X20951155Y-60209864D02*
X20915441Y-60281292D01*
X20915441Y-60281292D02*
X20879727Y-60317007D01*
X20879727Y-60317007D02*
X20808298Y-60352721D01*
X20808298Y-60352721D02*
X20522584Y-60352721D01*
X21272584Y-60709864D02*
X21272584Y-59959864D01*
X21272584Y-59959864D02*
X21451155Y-59959864D01*
X21451155Y-59959864D02*
X21558298Y-59995578D01*
X21558298Y-59995578D02*
X21629727Y-60067007D01*
X21629727Y-60067007D02*
X21665441Y-60138435D01*
X21665441Y-60138435D02*
X21701155Y-60281292D01*
X21701155Y-60281292D02*
X21701155Y-60388435D01*
X21701155Y-60388435D02*
X21665441Y-60531292D01*
X21665441Y-60531292D02*
X21629727Y-60602721D01*
X21629727Y-60602721D02*
X21558298Y-60674150D01*
X21558298Y-60674150D02*
X21451155Y-60709864D01*
X21451155Y-60709864D02*
X21272584Y-60709864D01*
X22165441Y-60352721D02*
X22165441Y-60709864D01*
X21915441Y-59959864D02*
X22165441Y-60352721D01*
X22165441Y-60352721D02*
X22415441Y-59959864D01*
X20419013Y-59751650D02*
X22411870Y-59751650D01*
X20522584Y-61917364D02*
X20522584Y-61167364D01*
X20522584Y-61167364D02*
X20701155Y-61167364D01*
X20701155Y-61167364D02*
X20808298Y-61203078D01*
X20808298Y-61203078D02*
X20879727Y-61274507D01*
X20879727Y-61274507D02*
X20915441Y-61345935D01*
X20915441Y-61345935D02*
X20951155Y-61488792D01*
X20951155Y-61488792D02*
X20951155Y-61595935D01*
X20951155Y-61595935D02*
X20915441Y-61738792D01*
X20915441Y-61738792D02*
X20879727Y-61810221D01*
X20879727Y-61810221D02*
X20808298Y-61881650D01*
X20808298Y-61881650D02*
X20701155Y-61917364D01*
X20701155Y-61917364D02*
X20522584Y-61917364D01*
X21415441Y-61167364D02*
X21558298Y-61167364D01*
X21558298Y-61167364D02*
X21629727Y-61203078D01*
X21629727Y-61203078D02*
X21701155Y-61274507D01*
X21701155Y-61274507D02*
X21736870Y-61417364D01*
X21736870Y-61417364D02*
X21736870Y-61667364D01*
X21736870Y-61667364D02*
X21701155Y-61810221D01*
X21701155Y-61810221D02*
X21629727Y-61881650D01*
X21629727Y-61881650D02*
X21558298Y-61917364D01*
X21558298Y-61917364D02*
X21415441Y-61917364D01*
X21415441Y-61917364D02*
X21344013Y-61881650D01*
X21344013Y-61881650D02*
X21272584Y-61810221D01*
X21272584Y-61810221D02*
X21236870Y-61667364D01*
X21236870Y-61667364D02*
X21236870Y-61417364D01*
X21236870Y-61417364D02*
X21272584Y-61274507D01*
X21272584Y-61274507D02*
X21344013Y-61203078D01*
X21344013Y-61203078D02*
X21415441Y-61167364D01*
X22058298Y-61167364D02*
X22058298Y-61774507D01*
X22058298Y-61774507D02*
X22094012Y-61845935D01*
X22094012Y-61845935D02*
X22129727Y-61881650D01*
X22129727Y-61881650D02*
X22201155Y-61917364D01*
X22201155Y-61917364D02*
X22344012Y-61917364D01*
X22344012Y-61917364D02*
X22415441Y-61881650D01*
X22415441Y-61881650D02*
X22451155Y-61845935D01*
X22451155Y-61845935D02*
X22486869Y-61774507D01*
X22486869Y-61774507D02*
X22486869Y-61167364D01*
X22736869Y-61167364D02*
X23165441Y-61167364D01*
X22951155Y-61917364D02*
X22951155Y-61167364D01*
X20951155Y-63053435D02*
X20915441Y-63089150D01*
X20915441Y-63089150D02*
X20808298Y-63124864D01*
X20808298Y-63124864D02*
X20736870Y-63124864D01*
X20736870Y-63124864D02*
X20629727Y-63089150D01*
X20629727Y-63089150D02*
X20558298Y-63017721D01*
X20558298Y-63017721D02*
X20522584Y-62946292D01*
X20522584Y-62946292D02*
X20486870Y-62803435D01*
X20486870Y-62803435D02*
X20486870Y-62696292D01*
X20486870Y-62696292D02*
X20522584Y-62553435D01*
X20522584Y-62553435D02*
X20558298Y-62482007D01*
X20558298Y-62482007D02*
X20629727Y-62410578D01*
X20629727Y-62410578D02*
X20736870Y-62374864D01*
X20736870Y-62374864D02*
X20808298Y-62374864D01*
X20808298Y-62374864D02*
X20915441Y-62410578D01*
X20915441Y-62410578D02*
X20951155Y-62446292D01*
X21236870Y-63089150D02*
X21344013Y-63124864D01*
X21344013Y-63124864D02*
X21522584Y-63124864D01*
X21522584Y-63124864D02*
X21594013Y-63089150D01*
X21594013Y-63089150D02*
X21629727Y-63053435D01*
X21629727Y-63053435D02*
X21665441Y-62982007D01*
X21665441Y-62982007D02*
X21665441Y-62910578D01*
X21665441Y-62910578D02*
X21629727Y-62839150D01*
X21629727Y-62839150D02*
X21594013Y-62803435D01*
X21594013Y-62803435D02*
X21522584Y-62767721D01*
X21522584Y-62767721D02*
X21379727Y-62732007D01*
X21379727Y-62732007D02*
X21308298Y-62696292D01*
X21308298Y-62696292D02*
X21272584Y-62660578D01*
X21272584Y-62660578D02*
X21236870Y-62589150D01*
X21236870Y-62589150D02*
X21236870Y-62517721D01*
X21236870Y-62517721D02*
X21272584Y-62446292D01*
X21272584Y-62446292D02*
X21308298Y-62410578D01*
X21308298Y-62410578D02*
X21379727Y-62374864D01*
X21379727Y-62374864D02*
X21558298Y-62374864D01*
X21558298Y-62374864D02*
X21665441Y-62410578D01*
X21808299Y-63196292D02*
X22379727Y-63196292D01*
X22451156Y-62374864D02*
X22879728Y-62374864D01*
X22665442Y-63124864D02*
X22665442Y-62374864D01*
X23522585Y-63124864D02*
X23094014Y-63124864D01*
X23308299Y-63124864D02*
X23308299Y-62374864D01*
X23308299Y-62374864D02*
X23236871Y-62482007D01*
X23236871Y-62482007D02*
X23165442Y-62553435D01*
X23165442Y-62553435D02*
X23094014Y-62589150D01*
X20419013Y-62166650D02*
X23590443Y-62166650D01*
X20415441Y-63582364D02*
X20665441Y-64332364D01*
X20665441Y-64332364D02*
X20915441Y-63582364D01*
X21594012Y-64260935D02*
X21558298Y-64296650D01*
X21558298Y-64296650D02*
X21451155Y-64332364D01*
X21451155Y-64332364D02*
X21379727Y-64332364D01*
X21379727Y-64332364D02*
X21272584Y-64296650D01*
X21272584Y-64296650D02*
X21201155Y-64225221D01*
X21201155Y-64225221D02*
X21165441Y-64153792D01*
X21165441Y-64153792D02*
X21129727Y-64010935D01*
X21129727Y-64010935D02*
X21129727Y-63903792D01*
X21129727Y-63903792D02*
X21165441Y-63760935D01*
X21165441Y-63760935D02*
X21201155Y-63689507D01*
X21201155Y-63689507D02*
X21272584Y-63618078D01*
X21272584Y-63618078D02*
X21379727Y-63582364D01*
X21379727Y-63582364D02*
X21451155Y-63582364D01*
X21451155Y-63582364D02*
X21558298Y-63618078D01*
X21558298Y-63618078D02*
X21594012Y-63653792D01*
X22344012Y-64260935D02*
X22308298Y-64296650D01*
X22308298Y-64296650D02*
X22201155Y-64332364D01*
X22201155Y-64332364D02*
X22129727Y-64332364D01*
X22129727Y-64332364D02*
X22022584Y-64296650D01*
X22022584Y-64296650D02*
X21951155Y-64225221D01*
X21951155Y-64225221D02*
X21915441Y-64153792D01*
X21915441Y-64153792D02*
X21879727Y-64010935D01*
X21879727Y-64010935D02*
X21879727Y-63903792D01*
X21879727Y-63903792D02*
X21915441Y-63760935D01*
X21915441Y-63760935D02*
X21951155Y-63689507D01*
X21951155Y-63689507D02*
X22022584Y-63618078D01*
X22022584Y-63618078D02*
X22129727Y-63582364D01*
X22129727Y-63582364D02*
X22201155Y-63582364D01*
X22201155Y-63582364D02*
X22308298Y-63618078D01*
X22308298Y-63618078D02*
X22344012Y-63653792D01*
X20951155Y-65468435D02*
X20915441Y-65504150D01*
X20915441Y-65504150D02*
X20808298Y-65539864D01*
X20808298Y-65539864D02*
X20736870Y-65539864D01*
X20736870Y-65539864D02*
X20629727Y-65504150D01*
X20629727Y-65504150D02*
X20558298Y-65432721D01*
X20558298Y-65432721D02*
X20522584Y-65361292D01*
X20522584Y-65361292D02*
X20486870Y-65218435D01*
X20486870Y-65218435D02*
X20486870Y-65111292D01*
X20486870Y-65111292D02*
X20522584Y-64968435D01*
X20522584Y-64968435D02*
X20558298Y-64897007D01*
X20558298Y-64897007D02*
X20629727Y-64825578D01*
X20629727Y-64825578D02*
X20736870Y-64789864D01*
X20736870Y-64789864D02*
X20808298Y-64789864D01*
X20808298Y-64789864D02*
X20915441Y-64825578D01*
X20915441Y-64825578D02*
X20951155Y-64861292D01*
X21236870Y-65504150D02*
X21344013Y-65539864D01*
X21344013Y-65539864D02*
X21522584Y-65539864D01*
X21522584Y-65539864D02*
X21594013Y-65504150D01*
X21594013Y-65504150D02*
X21629727Y-65468435D01*
X21629727Y-65468435D02*
X21665441Y-65397007D01*
X21665441Y-65397007D02*
X21665441Y-65325578D01*
X21665441Y-65325578D02*
X21629727Y-65254150D01*
X21629727Y-65254150D02*
X21594013Y-65218435D01*
X21594013Y-65218435D02*
X21522584Y-65182721D01*
X21522584Y-65182721D02*
X21379727Y-65147007D01*
X21379727Y-65147007D02*
X21308298Y-65111292D01*
X21308298Y-65111292D02*
X21272584Y-65075578D01*
X21272584Y-65075578D02*
X21236870Y-65004150D01*
X21236870Y-65004150D02*
X21236870Y-64932721D01*
X21236870Y-64932721D02*
X21272584Y-64861292D01*
X21272584Y-64861292D02*
X21308298Y-64825578D01*
X21308298Y-64825578D02*
X21379727Y-64789864D01*
X21379727Y-64789864D02*
X21558298Y-64789864D01*
X21558298Y-64789864D02*
X21665441Y-64825578D01*
X21808299Y-65611292D02*
X22379727Y-65611292D01*
X22451156Y-64789864D02*
X22879728Y-64789864D01*
X22665442Y-65539864D02*
X22665442Y-64789864D01*
X23058299Y-64789864D02*
X23522585Y-64789864D01*
X23522585Y-64789864D02*
X23272585Y-65075578D01*
X23272585Y-65075578D02*
X23379728Y-65075578D01*
X23379728Y-65075578D02*
X23451157Y-65111292D01*
X23451157Y-65111292D02*
X23486871Y-65147007D01*
X23486871Y-65147007D02*
X23522585Y-65218435D01*
X23522585Y-65218435D02*
X23522585Y-65397007D01*
X23522585Y-65397007D02*
X23486871Y-65468435D01*
X23486871Y-65468435D02*
X23451157Y-65504150D01*
X23451157Y-65504150D02*
X23379728Y-65539864D01*
X23379728Y-65539864D02*
X23165442Y-65539864D01*
X23165442Y-65539864D02*
X23094014Y-65504150D01*
X23094014Y-65504150D02*
X23058299Y-65468435D01*
X20419013Y-64581650D02*
X23590443Y-64581650D01*
D11*
X20320476Y-40358152D02*
X20320476Y-41024819D01*
X20082381Y-39977200D02*
X19844286Y-40691485D01*
X19844286Y-40691485D02*
X20463333Y-40691485D01*
D12*
X24729673Y-49437219D02*
X24729673Y-48437219D01*
X24729673Y-48913409D02*
X25301101Y-48913409D01*
X25301101Y-49437219D02*
X25301101Y-48437219D01*
X26158244Y-49389600D02*
X26063006Y-49437219D01*
X26063006Y-49437219D02*
X25872530Y-49437219D01*
X25872530Y-49437219D02*
X25777292Y-49389600D01*
X25777292Y-49389600D02*
X25729673Y-49294361D01*
X25729673Y-49294361D02*
X25729673Y-48913409D01*
X25729673Y-48913409D02*
X25777292Y-48818171D01*
X25777292Y-48818171D02*
X25872530Y-48770552D01*
X25872530Y-48770552D02*
X26063006Y-48770552D01*
X26063006Y-48770552D02*
X26158244Y-48818171D01*
X26158244Y-48818171D02*
X26205863Y-48913409D01*
X26205863Y-48913409D02*
X26205863Y-49008647D01*
X26205863Y-49008647D02*
X25729673Y-49103885D01*
X27063006Y-49437219D02*
X27063006Y-48913409D01*
X27063006Y-48913409D02*
X27015387Y-48818171D01*
X27015387Y-48818171D02*
X26920149Y-48770552D01*
X26920149Y-48770552D02*
X26729673Y-48770552D01*
X26729673Y-48770552D02*
X26634435Y-48818171D01*
X27063006Y-49389600D02*
X26967768Y-49437219D01*
X26967768Y-49437219D02*
X26729673Y-49437219D01*
X26729673Y-49437219D02*
X26634435Y-49389600D01*
X26634435Y-49389600D02*
X26586816Y-49294361D01*
X26586816Y-49294361D02*
X26586816Y-49199123D01*
X26586816Y-49199123D02*
X26634435Y-49103885D01*
X26634435Y-49103885D02*
X26729673Y-49056266D01*
X26729673Y-49056266D02*
X26967768Y-49056266D01*
X26967768Y-49056266D02*
X27063006Y-49008647D01*
X27396340Y-48770552D02*
X27777292Y-48770552D01*
X27539197Y-48437219D02*
X27539197Y-49294361D01*
X27539197Y-49294361D02*
X27586816Y-49389600D01*
X27586816Y-49389600D02*
X27682054Y-49437219D01*
X27682054Y-49437219D02*
X27777292Y-49437219D01*
X28491578Y-49389600D02*
X28396340Y-49437219D01*
X28396340Y-49437219D02*
X28205864Y-49437219D01*
X28205864Y-49437219D02*
X28110626Y-49389600D01*
X28110626Y-49389600D02*
X28063007Y-49294361D01*
X28063007Y-49294361D02*
X28063007Y-48913409D01*
X28063007Y-48913409D02*
X28110626Y-48818171D01*
X28110626Y-48818171D02*
X28205864Y-48770552D01*
X28205864Y-48770552D02*
X28396340Y-48770552D01*
X28396340Y-48770552D02*
X28491578Y-48818171D01*
X28491578Y-48818171D02*
X28539197Y-48913409D01*
X28539197Y-48913409D02*
X28539197Y-49008647D01*
X28539197Y-49008647D02*
X28063007Y-49103885D01*
X28967769Y-49437219D02*
X28967769Y-48770552D01*
X28967769Y-48961028D02*
X29015388Y-48865790D01*
X29015388Y-48865790D02*
X29063007Y-48818171D01*
X29063007Y-48818171D02*
X29158245Y-48770552D01*
X29158245Y-48770552D02*
X29253483Y-48770552D01*
X29539198Y-49389600D02*
X29634436Y-49437219D01*
X29634436Y-49437219D02*
X29824912Y-49437219D01*
X29824912Y-49437219D02*
X29920150Y-49389600D01*
X29920150Y-49389600D02*
X29967769Y-49294361D01*
X29967769Y-49294361D02*
X29967769Y-49246742D01*
X29967769Y-49246742D02*
X29920150Y-49151504D01*
X29920150Y-49151504D02*
X29824912Y-49103885D01*
X29824912Y-49103885D02*
X29682055Y-49103885D01*
X29682055Y-49103885D02*
X29586817Y-49056266D01*
X29586817Y-49056266D02*
X29539198Y-48961028D01*
X29539198Y-48961028D02*
X29539198Y-48913409D01*
X29539198Y-48913409D02*
X29586817Y-48818171D01*
X29586817Y-48818171D02*
X29682055Y-48770552D01*
X29682055Y-48770552D02*
X29824912Y-48770552D01*
X29824912Y-48770552D02*
X29920150Y-48818171D01*
X24729673Y-51047219D02*
X24729673Y-50047219D01*
X24729673Y-50047219D02*
X25110625Y-50047219D01*
X25110625Y-50047219D02*
X25205863Y-50094838D01*
X25205863Y-50094838D02*
X25253482Y-50142457D01*
X25253482Y-50142457D02*
X25301101Y-50237695D01*
X25301101Y-50237695D02*
X25301101Y-50380552D01*
X25301101Y-50380552D02*
X25253482Y-50475790D01*
X25253482Y-50475790D02*
X25205863Y-50523409D01*
X25205863Y-50523409D02*
X25110625Y-50571028D01*
X25110625Y-50571028D02*
X24729673Y-50571028D01*
X25872530Y-51047219D02*
X25777292Y-50999600D01*
X25777292Y-50999600D02*
X25729673Y-50951980D01*
X25729673Y-50951980D02*
X25682054Y-50856742D01*
X25682054Y-50856742D02*
X25682054Y-50571028D01*
X25682054Y-50571028D02*
X25729673Y-50475790D01*
X25729673Y-50475790D02*
X25777292Y-50428171D01*
X25777292Y-50428171D02*
X25872530Y-50380552D01*
X25872530Y-50380552D02*
X26015387Y-50380552D01*
X26015387Y-50380552D02*
X26110625Y-50428171D01*
X26110625Y-50428171D02*
X26158244Y-50475790D01*
X26158244Y-50475790D02*
X26205863Y-50571028D01*
X26205863Y-50571028D02*
X26205863Y-50856742D01*
X26205863Y-50856742D02*
X26158244Y-50951980D01*
X26158244Y-50951980D02*
X26110625Y-50999600D01*
X26110625Y-50999600D02*
X26015387Y-51047219D01*
X26015387Y-51047219D02*
X25872530Y-51047219D01*
X26539197Y-50380552D02*
X26729673Y-51047219D01*
X26729673Y-51047219D02*
X26920149Y-50571028D01*
X26920149Y-50571028D02*
X27110625Y-51047219D01*
X27110625Y-51047219D02*
X27301101Y-50380552D01*
X28063006Y-50999600D02*
X27967768Y-51047219D01*
X27967768Y-51047219D02*
X27777292Y-51047219D01*
X27777292Y-51047219D02*
X27682054Y-50999600D01*
X27682054Y-50999600D02*
X27634435Y-50904361D01*
X27634435Y-50904361D02*
X27634435Y-50523409D01*
X27634435Y-50523409D02*
X27682054Y-50428171D01*
X27682054Y-50428171D02*
X27777292Y-50380552D01*
X27777292Y-50380552D02*
X27967768Y-50380552D01*
X27967768Y-50380552D02*
X28063006Y-50428171D01*
X28063006Y-50428171D02*
X28110625Y-50523409D01*
X28110625Y-50523409D02*
X28110625Y-50618647D01*
X28110625Y-50618647D02*
X27634435Y-50713885D01*
X28539197Y-51047219D02*
X28539197Y-50380552D01*
X28539197Y-50571028D02*
X28586816Y-50475790D01*
X28586816Y-50475790D02*
X28634435Y-50428171D01*
X28634435Y-50428171D02*
X28729673Y-50380552D01*
X28729673Y-50380552D02*
X28824911Y-50380552D01*
X29889373Y-25116980D02*
X29841754Y-25164600D01*
X29841754Y-25164600D02*
X29698897Y-25212219D01*
X29698897Y-25212219D02*
X29603659Y-25212219D01*
X29603659Y-25212219D02*
X29460802Y-25164600D01*
X29460802Y-25164600D02*
X29365564Y-25069361D01*
X29365564Y-25069361D02*
X29317945Y-24974123D01*
X29317945Y-24974123D02*
X29270326Y-24783647D01*
X29270326Y-24783647D02*
X29270326Y-24640790D01*
X29270326Y-24640790D02*
X29317945Y-24450314D01*
X29317945Y-24450314D02*
X29365564Y-24355076D01*
X29365564Y-24355076D02*
X29460802Y-24259838D01*
X29460802Y-24259838D02*
X29603659Y-24212219D01*
X29603659Y-24212219D02*
X29698897Y-24212219D01*
X29698897Y-24212219D02*
X29841754Y-24259838D01*
X29841754Y-24259838D02*
X29889373Y-24307457D01*
X30270326Y-25164600D02*
X30413183Y-25212219D01*
X30413183Y-25212219D02*
X30651278Y-25212219D01*
X30651278Y-25212219D02*
X30746516Y-25164600D01*
X30746516Y-25164600D02*
X30794135Y-25116980D01*
X30794135Y-25116980D02*
X30841754Y-25021742D01*
X30841754Y-25021742D02*
X30841754Y-24926504D01*
X30841754Y-24926504D02*
X30794135Y-24831266D01*
X30794135Y-24831266D02*
X30746516Y-24783647D01*
X30746516Y-24783647D02*
X30651278Y-24736028D01*
X30651278Y-24736028D02*
X30460802Y-24688409D01*
X30460802Y-24688409D02*
X30365564Y-24640790D01*
X30365564Y-24640790D02*
X30317945Y-24593171D01*
X30317945Y-24593171D02*
X30270326Y-24497933D01*
X30270326Y-24497933D02*
X30270326Y-24402695D01*
X30270326Y-24402695D02*
X30317945Y-24307457D01*
X30317945Y-24307457D02*
X30365564Y-24259838D01*
X30365564Y-24259838D02*
X30460802Y-24212219D01*
X30460802Y-24212219D02*
X30698897Y-24212219D01*
X30698897Y-24212219D02*
X30841754Y-24259838D01*
X31032231Y-25307457D02*
X31794135Y-25307457D01*
X31889374Y-24212219D02*
X32460802Y-24212219D01*
X32175088Y-25212219D02*
X32175088Y-24212219D01*
X32698898Y-24212219D02*
X33317945Y-24212219D01*
X33317945Y-24212219D02*
X32984612Y-24593171D01*
X32984612Y-24593171D02*
X33127469Y-24593171D01*
X33127469Y-24593171D02*
X33222707Y-24640790D01*
X33222707Y-24640790D02*
X33270326Y-24688409D01*
X33270326Y-24688409D02*
X33317945Y-24783647D01*
X33317945Y-24783647D02*
X33317945Y-25021742D01*
X33317945Y-25021742D02*
X33270326Y-25116980D01*
X33270326Y-25116980D02*
X33222707Y-25164600D01*
X33222707Y-25164600D02*
X33127469Y-25212219D01*
X33127469Y-25212219D02*
X32841755Y-25212219D01*
X32841755Y-25212219D02*
X32746517Y-25164600D01*
X32746517Y-25164600D02*
X32698898Y-25116980D01*
X29889373Y-28336980D02*
X29841754Y-28384600D01*
X29841754Y-28384600D02*
X29698897Y-28432219D01*
X29698897Y-28432219D02*
X29603659Y-28432219D01*
X29603659Y-28432219D02*
X29460802Y-28384600D01*
X29460802Y-28384600D02*
X29365564Y-28289361D01*
X29365564Y-28289361D02*
X29317945Y-28194123D01*
X29317945Y-28194123D02*
X29270326Y-28003647D01*
X29270326Y-28003647D02*
X29270326Y-27860790D01*
X29270326Y-27860790D02*
X29317945Y-27670314D01*
X29317945Y-27670314D02*
X29365564Y-27575076D01*
X29365564Y-27575076D02*
X29460802Y-27479838D01*
X29460802Y-27479838D02*
X29603659Y-27432219D01*
X29603659Y-27432219D02*
X29698897Y-27432219D01*
X29698897Y-27432219D02*
X29841754Y-27479838D01*
X29841754Y-27479838D02*
X29889373Y-27527457D01*
X30270326Y-28384600D02*
X30413183Y-28432219D01*
X30413183Y-28432219D02*
X30651278Y-28432219D01*
X30651278Y-28432219D02*
X30746516Y-28384600D01*
X30746516Y-28384600D02*
X30794135Y-28336980D01*
X30794135Y-28336980D02*
X30841754Y-28241742D01*
X30841754Y-28241742D02*
X30841754Y-28146504D01*
X30841754Y-28146504D02*
X30794135Y-28051266D01*
X30794135Y-28051266D02*
X30746516Y-28003647D01*
X30746516Y-28003647D02*
X30651278Y-27956028D01*
X30651278Y-27956028D02*
X30460802Y-27908409D01*
X30460802Y-27908409D02*
X30365564Y-27860790D01*
X30365564Y-27860790D02*
X30317945Y-27813171D01*
X30317945Y-27813171D02*
X30270326Y-27717933D01*
X30270326Y-27717933D02*
X30270326Y-27622695D01*
X30270326Y-27622695D02*
X30317945Y-27527457D01*
X30317945Y-27527457D02*
X30365564Y-27479838D01*
X30365564Y-27479838D02*
X30460802Y-27432219D01*
X30460802Y-27432219D02*
X30698897Y-27432219D01*
X30698897Y-27432219D02*
X30841754Y-27479838D01*
X31032231Y-28527457D02*
X31794135Y-28527457D01*
X31889374Y-27432219D02*
X32460802Y-27432219D01*
X32175088Y-28432219D02*
X32175088Y-27432219D01*
X32746517Y-27527457D02*
X32794136Y-27479838D01*
X32794136Y-27479838D02*
X32889374Y-27432219D01*
X32889374Y-27432219D02*
X33127469Y-27432219D01*
X33127469Y-27432219D02*
X33222707Y-27479838D01*
X33222707Y-27479838D02*
X33270326Y-27527457D01*
X33270326Y-27527457D02*
X33317945Y-27622695D01*
X33317945Y-27622695D02*
X33317945Y-27717933D01*
X33317945Y-27717933D02*
X33270326Y-27860790D01*
X33270326Y-27860790D02*
X32698898Y-28432219D01*
X32698898Y-28432219D02*
X33317945Y-28432219D01*
X29889373Y-31556980D02*
X29841754Y-31604600D01*
X29841754Y-31604600D02*
X29698897Y-31652219D01*
X29698897Y-31652219D02*
X29603659Y-31652219D01*
X29603659Y-31652219D02*
X29460802Y-31604600D01*
X29460802Y-31604600D02*
X29365564Y-31509361D01*
X29365564Y-31509361D02*
X29317945Y-31414123D01*
X29317945Y-31414123D02*
X29270326Y-31223647D01*
X29270326Y-31223647D02*
X29270326Y-31080790D01*
X29270326Y-31080790D02*
X29317945Y-30890314D01*
X29317945Y-30890314D02*
X29365564Y-30795076D01*
X29365564Y-30795076D02*
X29460802Y-30699838D01*
X29460802Y-30699838D02*
X29603659Y-30652219D01*
X29603659Y-30652219D02*
X29698897Y-30652219D01*
X29698897Y-30652219D02*
X29841754Y-30699838D01*
X29841754Y-30699838D02*
X29889373Y-30747457D01*
X30270326Y-31604600D02*
X30413183Y-31652219D01*
X30413183Y-31652219D02*
X30651278Y-31652219D01*
X30651278Y-31652219D02*
X30746516Y-31604600D01*
X30746516Y-31604600D02*
X30794135Y-31556980D01*
X30794135Y-31556980D02*
X30841754Y-31461742D01*
X30841754Y-31461742D02*
X30841754Y-31366504D01*
X30841754Y-31366504D02*
X30794135Y-31271266D01*
X30794135Y-31271266D02*
X30746516Y-31223647D01*
X30746516Y-31223647D02*
X30651278Y-31176028D01*
X30651278Y-31176028D02*
X30460802Y-31128409D01*
X30460802Y-31128409D02*
X30365564Y-31080790D01*
X30365564Y-31080790D02*
X30317945Y-31033171D01*
X30317945Y-31033171D02*
X30270326Y-30937933D01*
X30270326Y-30937933D02*
X30270326Y-30842695D01*
X30270326Y-30842695D02*
X30317945Y-30747457D01*
X30317945Y-30747457D02*
X30365564Y-30699838D01*
X30365564Y-30699838D02*
X30460802Y-30652219D01*
X30460802Y-30652219D02*
X30698897Y-30652219D01*
X30698897Y-30652219D02*
X30841754Y-30699838D01*
X31032231Y-31747457D02*
X31794135Y-31747457D01*
X31889374Y-30652219D02*
X32460802Y-30652219D01*
X32175088Y-31652219D02*
X32175088Y-30652219D01*
X33317945Y-31652219D02*
X32746517Y-31652219D01*
X33032231Y-31652219D02*
X33032231Y-30652219D01*
X33032231Y-30652219D02*
X32936993Y-30795076D01*
X32936993Y-30795076D02*
X32841755Y-30890314D01*
X32841755Y-30890314D02*
X32746517Y-30937933D01*
X32365564Y-34776980D02*
X32317945Y-34824600D01*
X32317945Y-34824600D02*
X32175088Y-34872219D01*
X32175088Y-34872219D02*
X32079850Y-34872219D01*
X32079850Y-34872219D02*
X31936993Y-34824600D01*
X31936993Y-34824600D02*
X31841755Y-34729361D01*
X31841755Y-34729361D02*
X31794136Y-34634123D01*
X31794136Y-34634123D02*
X31746517Y-34443647D01*
X31746517Y-34443647D02*
X31746517Y-34300790D01*
X31746517Y-34300790D02*
X31794136Y-34110314D01*
X31794136Y-34110314D02*
X31841755Y-34015076D01*
X31841755Y-34015076D02*
X31936993Y-33919838D01*
X31936993Y-33919838D02*
X32079850Y-33872219D01*
X32079850Y-33872219D02*
X32175088Y-33872219D01*
X32175088Y-33872219D02*
X32317945Y-33919838D01*
X32317945Y-33919838D02*
X32365564Y-33967457D01*
X32746517Y-34824600D02*
X32889374Y-34872219D01*
X32889374Y-34872219D02*
X33127469Y-34872219D01*
X33127469Y-34872219D02*
X33222707Y-34824600D01*
X33222707Y-34824600D02*
X33270326Y-34776980D01*
X33270326Y-34776980D02*
X33317945Y-34681742D01*
X33317945Y-34681742D02*
X33317945Y-34586504D01*
X33317945Y-34586504D02*
X33270326Y-34491266D01*
X33270326Y-34491266D02*
X33222707Y-34443647D01*
X33222707Y-34443647D02*
X33127469Y-34396028D01*
X33127469Y-34396028D02*
X32936993Y-34348409D01*
X32936993Y-34348409D02*
X32841755Y-34300790D01*
X32841755Y-34300790D02*
X32794136Y-34253171D01*
X32794136Y-34253171D02*
X32746517Y-34157933D01*
X32746517Y-34157933D02*
X32746517Y-34062695D01*
X32746517Y-34062695D02*
X32794136Y-33967457D01*
X32794136Y-33967457D02*
X32841755Y-33919838D01*
X32841755Y-33919838D02*
X32936993Y-33872219D01*
X32936993Y-33872219D02*
X33175088Y-33872219D01*
X33175088Y-33872219D02*
X33317945Y-33919838D01*
D11*
X18455714Y-40844819D02*
X17884286Y-40844819D01*
X18170000Y-40844819D02*
X18170000Y-39844819D01*
X18170000Y-39844819D02*
X18074762Y-39987676D01*
X18074762Y-39987676D02*
X17979524Y-40082914D01*
X17979524Y-40082914D02*
X17884286Y-40130533D01*
D12*
X17886666Y-26302219D02*
X18077142Y-26302219D01*
X18077142Y-26302219D02*
X18172380Y-26254600D01*
X18172380Y-26254600D02*
X18219999Y-26206980D01*
X18219999Y-26206980D02*
X18315237Y-26064123D01*
X18315237Y-26064123D02*
X18362856Y-25873647D01*
X18362856Y-25873647D02*
X18362856Y-25492695D01*
X18362856Y-25492695D02*
X18315237Y-25397457D01*
X18315237Y-25397457D02*
X18267618Y-25349838D01*
X18267618Y-25349838D02*
X18172380Y-25302219D01*
X18172380Y-25302219D02*
X17981904Y-25302219D01*
X17981904Y-25302219D02*
X17886666Y-25349838D01*
X17886666Y-25349838D02*
X17839047Y-25397457D01*
X17839047Y-25397457D02*
X17791428Y-25492695D01*
X17791428Y-25492695D02*
X17791428Y-25730790D01*
X17791428Y-25730790D02*
X17839047Y-25826028D01*
X17839047Y-25826028D02*
X17886666Y-25873647D01*
X17886666Y-25873647D02*
X17981904Y-25921266D01*
X17981904Y-25921266D02*
X18172380Y-25921266D01*
X18172380Y-25921266D02*
X18267618Y-25873647D01*
X18267618Y-25873647D02*
X18315237Y-25826028D01*
X18315237Y-25826028D02*
X18362856Y-25730790D01*
X18648571Y-25302219D02*
X18981904Y-26302219D01*
X18981904Y-26302219D02*
X19315237Y-25302219D01*
X20410476Y-26302219D02*
X20410476Y-25302219D01*
X20410476Y-25778409D02*
X20981904Y-25778409D01*
X20981904Y-26302219D02*
X20981904Y-25302219D01*
X21839047Y-26254600D02*
X21743809Y-26302219D01*
X21743809Y-26302219D02*
X21553333Y-26302219D01*
X21553333Y-26302219D02*
X21458095Y-26254600D01*
X21458095Y-26254600D02*
X21410476Y-26159361D01*
X21410476Y-26159361D02*
X21410476Y-25778409D01*
X21410476Y-25778409D02*
X21458095Y-25683171D01*
X21458095Y-25683171D02*
X21553333Y-25635552D01*
X21553333Y-25635552D02*
X21743809Y-25635552D01*
X21743809Y-25635552D02*
X21839047Y-25683171D01*
X21839047Y-25683171D02*
X21886666Y-25778409D01*
X21886666Y-25778409D02*
X21886666Y-25873647D01*
X21886666Y-25873647D02*
X21410476Y-25968885D01*
X22743809Y-26302219D02*
X22743809Y-25778409D01*
X22743809Y-25778409D02*
X22696190Y-25683171D01*
X22696190Y-25683171D02*
X22600952Y-25635552D01*
X22600952Y-25635552D02*
X22410476Y-25635552D01*
X22410476Y-25635552D02*
X22315238Y-25683171D01*
X22743809Y-26254600D02*
X22648571Y-26302219D01*
X22648571Y-26302219D02*
X22410476Y-26302219D01*
X22410476Y-26302219D02*
X22315238Y-26254600D01*
X22315238Y-26254600D02*
X22267619Y-26159361D01*
X22267619Y-26159361D02*
X22267619Y-26064123D01*
X22267619Y-26064123D02*
X22315238Y-25968885D01*
X22315238Y-25968885D02*
X22410476Y-25921266D01*
X22410476Y-25921266D02*
X22648571Y-25921266D01*
X22648571Y-25921266D02*
X22743809Y-25873647D01*
X23077143Y-25635552D02*
X23458095Y-25635552D01*
X23220000Y-25302219D02*
X23220000Y-26159361D01*
X23220000Y-26159361D02*
X23267619Y-26254600D01*
X23267619Y-26254600D02*
X23362857Y-26302219D01*
X23362857Y-26302219D02*
X23458095Y-26302219D01*
X24172381Y-26254600D02*
X24077143Y-26302219D01*
X24077143Y-26302219D02*
X23886667Y-26302219D01*
X23886667Y-26302219D02*
X23791429Y-26254600D01*
X23791429Y-26254600D02*
X23743810Y-26159361D01*
X23743810Y-26159361D02*
X23743810Y-25778409D01*
X23743810Y-25778409D02*
X23791429Y-25683171D01*
X23791429Y-25683171D02*
X23886667Y-25635552D01*
X23886667Y-25635552D02*
X24077143Y-25635552D01*
X24077143Y-25635552D02*
X24172381Y-25683171D01*
X24172381Y-25683171D02*
X24220000Y-25778409D01*
X24220000Y-25778409D02*
X24220000Y-25873647D01*
X24220000Y-25873647D02*
X23743810Y-25968885D01*
X24648572Y-26302219D02*
X24648572Y-25635552D01*
X24648572Y-25826028D02*
X24696191Y-25730790D01*
X24696191Y-25730790D02*
X24743810Y-25683171D01*
X24743810Y-25683171D02*
X24839048Y-25635552D01*
X24839048Y-25635552D02*
X24934286Y-25635552D01*
X25220001Y-26254600D02*
X25315239Y-26302219D01*
X25315239Y-26302219D02*
X25505715Y-26302219D01*
X25505715Y-26302219D02*
X25600953Y-26254600D01*
X25600953Y-26254600D02*
X25648572Y-26159361D01*
X25648572Y-26159361D02*
X25648572Y-26111742D01*
X25648572Y-26111742D02*
X25600953Y-26016504D01*
X25600953Y-26016504D02*
X25505715Y-25968885D01*
X25505715Y-25968885D02*
X25362858Y-25968885D01*
X25362858Y-25968885D02*
X25267620Y-25921266D01*
X25267620Y-25921266D02*
X25220001Y-25826028D01*
X25220001Y-25826028D02*
X25220001Y-25778409D01*
X25220001Y-25778409D02*
X25267620Y-25683171D01*
X25267620Y-25683171D02*
X25362858Y-25635552D01*
X25362858Y-25635552D02*
X25505715Y-25635552D01*
X25505715Y-25635552D02*
X25600953Y-25683171D01*
X57599373Y-51136980D02*
X57551754Y-51184600D01*
X57551754Y-51184600D02*
X57408897Y-51232219D01*
X57408897Y-51232219D02*
X57313659Y-51232219D01*
X57313659Y-51232219D02*
X57170802Y-51184600D01*
X57170802Y-51184600D02*
X57075564Y-51089361D01*
X57075564Y-51089361D02*
X57027945Y-50994123D01*
X57027945Y-50994123D02*
X56980326Y-50803647D01*
X56980326Y-50803647D02*
X56980326Y-50660790D01*
X56980326Y-50660790D02*
X57027945Y-50470314D01*
X57027945Y-50470314D02*
X57075564Y-50375076D01*
X57075564Y-50375076D02*
X57170802Y-50279838D01*
X57170802Y-50279838D02*
X57313659Y-50232219D01*
X57313659Y-50232219D02*
X57408897Y-50232219D01*
X57408897Y-50232219D02*
X57551754Y-50279838D01*
X57551754Y-50279838D02*
X57599373Y-50327457D01*
X57980326Y-51184600D02*
X58123183Y-51232219D01*
X58123183Y-51232219D02*
X58361278Y-51232219D01*
X58361278Y-51232219D02*
X58456516Y-51184600D01*
X58456516Y-51184600D02*
X58504135Y-51136980D01*
X58504135Y-51136980D02*
X58551754Y-51041742D01*
X58551754Y-51041742D02*
X58551754Y-50946504D01*
X58551754Y-50946504D02*
X58504135Y-50851266D01*
X58504135Y-50851266D02*
X58456516Y-50803647D01*
X58456516Y-50803647D02*
X58361278Y-50756028D01*
X58361278Y-50756028D02*
X58170802Y-50708409D01*
X58170802Y-50708409D02*
X58075564Y-50660790D01*
X58075564Y-50660790D02*
X58027945Y-50613171D01*
X58027945Y-50613171D02*
X57980326Y-50517933D01*
X57980326Y-50517933D02*
X57980326Y-50422695D01*
X57980326Y-50422695D02*
X58027945Y-50327457D01*
X58027945Y-50327457D02*
X58075564Y-50279838D01*
X58075564Y-50279838D02*
X58170802Y-50232219D01*
X58170802Y-50232219D02*
X58408897Y-50232219D01*
X58408897Y-50232219D02*
X58551754Y-50279838D01*
X58742231Y-51327457D02*
X59504135Y-51327457D01*
X59599374Y-50232219D02*
X60170802Y-50232219D01*
X59885088Y-51232219D02*
X59885088Y-50232219D01*
X60408898Y-50232219D02*
X61027945Y-50232219D01*
X61027945Y-50232219D02*
X60694612Y-50613171D01*
X60694612Y-50613171D02*
X60837469Y-50613171D01*
X60837469Y-50613171D02*
X60932707Y-50660790D01*
X60932707Y-50660790D02*
X60980326Y-50708409D01*
X60980326Y-50708409D02*
X61027945Y-50803647D01*
X61027945Y-50803647D02*
X61027945Y-51041742D01*
X61027945Y-51041742D02*
X60980326Y-51136980D01*
X60980326Y-51136980D02*
X60932707Y-51184600D01*
X60932707Y-51184600D02*
X60837469Y-51232219D01*
X60837469Y-51232219D02*
X60551755Y-51232219D01*
X60551755Y-51232219D02*
X60456517Y-51184600D01*
X60456517Y-51184600D02*
X60408898Y-51136980D01*
X57599373Y-54356980D02*
X57551754Y-54404600D01*
X57551754Y-54404600D02*
X57408897Y-54452219D01*
X57408897Y-54452219D02*
X57313659Y-54452219D01*
X57313659Y-54452219D02*
X57170802Y-54404600D01*
X57170802Y-54404600D02*
X57075564Y-54309361D01*
X57075564Y-54309361D02*
X57027945Y-54214123D01*
X57027945Y-54214123D02*
X56980326Y-54023647D01*
X56980326Y-54023647D02*
X56980326Y-53880790D01*
X56980326Y-53880790D02*
X57027945Y-53690314D01*
X57027945Y-53690314D02*
X57075564Y-53595076D01*
X57075564Y-53595076D02*
X57170802Y-53499838D01*
X57170802Y-53499838D02*
X57313659Y-53452219D01*
X57313659Y-53452219D02*
X57408897Y-53452219D01*
X57408897Y-53452219D02*
X57551754Y-53499838D01*
X57551754Y-53499838D02*
X57599373Y-53547457D01*
X57980326Y-54404600D02*
X58123183Y-54452219D01*
X58123183Y-54452219D02*
X58361278Y-54452219D01*
X58361278Y-54452219D02*
X58456516Y-54404600D01*
X58456516Y-54404600D02*
X58504135Y-54356980D01*
X58504135Y-54356980D02*
X58551754Y-54261742D01*
X58551754Y-54261742D02*
X58551754Y-54166504D01*
X58551754Y-54166504D02*
X58504135Y-54071266D01*
X58504135Y-54071266D02*
X58456516Y-54023647D01*
X58456516Y-54023647D02*
X58361278Y-53976028D01*
X58361278Y-53976028D02*
X58170802Y-53928409D01*
X58170802Y-53928409D02*
X58075564Y-53880790D01*
X58075564Y-53880790D02*
X58027945Y-53833171D01*
X58027945Y-53833171D02*
X57980326Y-53737933D01*
X57980326Y-53737933D02*
X57980326Y-53642695D01*
X57980326Y-53642695D02*
X58027945Y-53547457D01*
X58027945Y-53547457D02*
X58075564Y-53499838D01*
X58075564Y-53499838D02*
X58170802Y-53452219D01*
X58170802Y-53452219D02*
X58408897Y-53452219D01*
X58408897Y-53452219D02*
X58551754Y-53499838D01*
X58742231Y-54547457D02*
X59504135Y-54547457D01*
X59599374Y-53452219D02*
X60170802Y-53452219D01*
X59885088Y-54452219D02*
X59885088Y-53452219D01*
X60456517Y-53547457D02*
X60504136Y-53499838D01*
X60504136Y-53499838D02*
X60599374Y-53452219D01*
X60599374Y-53452219D02*
X60837469Y-53452219D01*
X60837469Y-53452219D02*
X60932707Y-53499838D01*
X60932707Y-53499838D02*
X60980326Y-53547457D01*
X60980326Y-53547457D02*
X61027945Y-53642695D01*
X61027945Y-53642695D02*
X61027945Y-53737933D01*
X61027945Y-53737933D02*
X60980326Y-53880790D01*
X60980326Y-53880790D02*
X60408898Y-54452219D01*
X60408898Y-54452219D02*
X61027945Y-54452219D01*
X57599373Y-57576980D02*
X57551754Y-57624600D01*
X57551754Y-57624600D02*
X57408897Y-57672219D01*
X57408897Y-57672219D02*
X57313659Y-57672219D01*
X57313659Y-57672219D02*
X57170802Y-57624600D01*
X57170802Y-57624600D02*
X57075564Y-57529361D01*
X57075564Y-57529361D02*
X57027945Y-57434123D01*
X57027945Y-57434123D02*
X56980326Y-57243647D01*
X56980326Y-57243647D02*
X56980326Y-57100790D01*
X56980326Y-57100790D02*
X57027945Y-56910314D01*
X57027945Y-56910314D02*
X57075564Y-56815076D01*
X57075564Y-56815076D02*
X57170802Y-56719838D01*
X57170802Y-56719838D02*
X57313659Y-56672219D01*
X57313659Y-56672219D02*
X57408897Y-56672219D01*
X57408897Y-56672219D02*
X57551754Y-56719838D01*
X57551754Y-56719838D02*
X57599373Y-56767457D01*
X57980326Y-57624600D02*
X58123183Y-57672219D01*
X58123183Y-57672219D02*
X58361278Y-57672219D01*
X58361278Y-57672219D02*
X58456516Y-57624600D01*
X58456516Y-57624600D02*
X58504135Y-57576980D01*
X58504135Y-57576980D02*
X58551754Y-57481742D01*
X58551754Y-57481742D02*
X58551754Y-57386504D01*
X58551754Y-57386504D02*
X58504135Y-57291266D01*
X58504135Y-57291266D02*
X58456516Y-57243647D01*
X58456516Y-57243647D02*
X58361278Y-57196028D01*
X58361278Y-57196028D02*
X58170802Y-57148409D01*
X58170802Y-57148409D02*
X58075564Y-57100790D01*
X58075564Y-57100790D02*
X58027945Y-57053171D01*
X58027945Y-57053171D02*
X57980326Y-56957933D01*
X57980326Y-56957933D02*
X57980326Y-56862695D01*
X57980326Y-56862695D02*
X58027945Y-56767457D01*
X58027945Y-56767457D02*
X58075564Y-56719838D01*
X58075564Y-56719838D02*
X58170802Y-56672219D01*
X58170802Y-56672219D02*
X58408897Y-56672219D01*
X58408897Y-56672219D02*
X58551754Y-56719838D01*
X58742231Y-57767457D02*
X59504135Y-57767457D01*
X59599374Y-56672219D02*
X60170802Y-56672219D01*
X59885088Y-57672219D02*
X59885088Y-56672219D01*
X61027945Y-57672219D02*
X60456517Y-57672219D01*
X60742231Y-57672219D02*
X60742231Y-56672219D01*
X60742231Y-56672219D02*
X60646993Y-56815076D01*
X60646993Y-56815076D02*
X60551755Y-56910314D01*
X60551755Y-56910314D02*
X60456517Y-56957933D01*
X60075564Y-60796980D02*
X60027945Y-60844600D01*
X60027945Y-60844600D02*
X59885088Y-60892219D01*
X59885088Y-60892219D02*
X59789850Y-60892219D01*
X59789850Y-60892219D02*
X59646993Y-60844600D01*
X59646993Y-60844600D02*
X59551755Y-60749361D01*
X59551755Y-60749361D02*
X59504136Y-60654123D01*
X59504136Y-60654123D02*
X59456517Y-60463647D01*
X59456517Y-60463647D02*
X59456517Y-60320790D01*
X59456517Y-60320790D02*
X59504136Y-60130314D01*
X59504136Y-60130314D02*
X59551755Y-60035076D01*
X59551755Y-60035076D02*
X59646993Y-59939838D01*
X59646993Y-59939838D02*
X59789850Y-59892219D01*
X59789850Y-59892219D02*
X59885088Y-59892219D01*
X59885088Y-59892219D02*
X60027945Y-59939838D01*
X60027945Y-59939838D02*
X60075564Y-59987457D01*
X60456517Y-60844600D02*
X60599374Y-60892219D01*
X60599374Y-60892219D02*
X60837469Y-60892219D01*
X60837469Y-60892219D02*
X60932707Y-60844600D01*
X60932707Y-60844600D02*
X60980326Y-60796980D01*
X60980326Y-60796980D02*
X61027945Y-60701742D01*
X61027945Y-60701742D02*
X61027945Y-60606504D01*
X61027945Y-60606504D02*
X60980326Y-60511266D01*
X60980326Y-60511266D02*
X60932707Y-60463647D01*
X60932707Y-60463647D02*
X60837469Y-60416028D01*
X60837469Y-60416028D02*
X60646993Y-60368409D01*
X60646993Y-60368409D02*
X60551755Y-60320790D01*
X60551755Y-60320790D02*
X60504136Y-60273171D01*
X60504136Y-60273171D02*
X60456517Y-60177933D01*
X60456517Y-60177933D02*
X60456517Y-60082695D01*
X60456517Y-60082695D02*
X60504136Y-59987457D01*
X60504136Y-59987457D02*
X60551755Y-59939838D01*
X60551755Y-59939838D02*
X60646993Y-59892219D01*
X60646993Y-59892219D02*
X60885088Y-59892219D01*
X60885088Y-59892219D02*
X61027945Y-59939838D01*
X24726816Y-52447219D02*
X25298244Y-52447219D01*
X25012530Y-53447219D02*
X25012530Y-52447219D01*
X25631578Y-53447219D02*
X25631578Y-52447219D01*
X25631578Y-52447219D02*
X25964911Y-53161504D01*
X25964911Y-53161504D02*
X26298244Y-52447219D01*
X26298244Y-52447219D02*
X26298244Y-53447219D01*
X26726816Y-53399600D02*
X26822054Y-53447219D01*
X26822054Y-53447219D02*
X27012530Y-53447219D01*
X27012530Y-53447219D02*
X27107768Y-53399600D01*
X27107768Y-53399600D02*
X27155387Y-53304361D01*
X27155387Y-53304361D02*
X27155387Y-53256742D01*
X27155387Y-53256742D02*
X27107768Y-53161504D01*
X27107768Y-53161504D02*
X27012530Y-53113885D01*
X27012530Y-53113885D02*
X26869673Y-53113885D01*
X26869673Y-53113885D02*
X26774435Y-53066266D01*
X26774435Y-53066266D02*
X26726816Y-52971028D01*
X26726816Y-52971028D02*
X26726816Y-52923409D01*
X26726816Y-52923409D02*
X26774435Y-52828171D01*
X26774435Y-52828171D02*
X26869673Y-52780552D01*
X26869673Y-52780552D02*
X27012530Y-52780552D01*
X27012530Y-52780552D02*
X27107768Y-52828171D01*
X24869673Y-55057219D02*
X24869673Y-54057219D01*
X24869673Y-54057219D02*
X25250625Y-54057219D01*
X25250625Y-54057219D02*
X25345863Y-54104838D01*
X25345863Y-54104838D02*
X25393482Y-54152457D01*
X25393482Y-54152457D02*
X25441101Y-54247695D01*
X25441101Y-54247695D02*
X25441101Y-54390552D01*
X25441101Y-54390552D02*
X25393482Y-54485790D01*
X25393482Y-54485790D02*
X25345863Y-54533409D01*
X25345863Y-54533409D02*
X25250625Y-54581028D01*
X25250625Y-54581028D02*
X24869673Y-54581028D01*
X26012530Y-55057219D02*
X25917292Y-55009600D01*
X25917292Y-55009600D02*
X25869673Y-54961980D01*
X25869673Y-54961980D02*
X25822054Y-54866742D01*
X25822054Y-54866742D02*
X25822054Y-54581028D01*
X25822054Y-54581028D02*
X25869673Y-54485790D01*
X25869673Y-54485790D02*
X25917292Y-54438171D01*
X25917292Y-54438171D02*
X26012530Y-54390552D01*
X26012530Y-54390552D02*
X26155387Y-54390552D01*
X26155387Y-54390552D02*
X26250625Y-54438171D01*
X26250625Y-54438171D02*
X26298244Y-54485790D01*
X26298244Y-54485790D02*
X26345863Y-54581028D01*
X26345863Y-54581028D02*
X26345863Y-54866742D01*
X26345863Y-54866742D02*
X26298244Y-54961980D01*
X26298244Y-54961980D02*
X26250625Y-55009600D01*
X26250625Y-55009600D02*
X26155387Y-55057219D01*
X26155387Y-55057219D02*
X26012530Y-55057219D01*
X26679197Y-54390552D02*
X26869673Y-55057219D01*
X26869673Y-55057219D02*
X27060149Y-54581028D01*
X27060149Y-54581028D02*
X27250625Y-55057219D01*
X27250625Y-55057219D02*
X27441101Y-54390552D01*
X28203006Y-55009600D02*
X28107768Y-55057219D01*
X28107768Y-55057219D02*
X27917292Y-55057219D01*
X27917292Y-55057219D02*
X27822054Y-55009600D01*
X27822054Y-55009600D02*
X27774435Y-54914361D01*
X27774435Y-54914361D02*
X27774435Y-54533409D01*
X27774435Y-54533409D02*
X27822054Y-54438171D01*
X27822054Y-54438171D02*
X27917292Y-54390552D01*
X27917292Y-54390552D02*
X28107768Y-54390552D01*
X28107768Y-54390552D02*
X28203006Y-54438171D01*
X28203006Y-54438171D02*
X28250625Y-54533409D01*
X28250625Y-54533409D02*
X28250625Y-54628647D01*
X28250625Y-54628647D02*
X27774435Y-54723885D01*
X28679197Y-55057219D02*
X28679197Y-54390552D01*
X28679197Y-54581028D02*
X28726816Y-54485790D01*
X28726816Y-54485790D02*
X28774435Y-54438171D01*
X28774435Y-54438171D02*
X28869673Y-54390552D01*
X28869673Y-54390552D02*
X28964911Y-54390552D01*
D11*
X19886667Y-41834819D02*
X20505714Y-41834819D01*
X20505714Y-41834819D02*
X20172381Y-42215771D01*
X20172381Y-42215771D02*
X20315238Y-42215771D01*
X20315238Y-42215771D02*
X20410476Y-42263390D01*
X20410476Y-42263390D02*
X20458095Y-42311009D01*
X20458095Y-42311009D02*
X20505714Y-42406247D01*
X20505714Y-42406247D02*
X20505714Y-42644342D01*
X20505714Y-42644342D02*
X20458095Y-42739580D01*
X20458095Y-42739580D02*
X20410476Y-42787200D01*
X20410476Y-42787200D02*
X20315238Y-42834819D01*
X20315238Y-42834819D02*
X20029524Y-42834819D01*
X20029524Y-42834819D02*
X19934286Y-42787200D01*
X19934286Y-42787200D02*
X19886667Y-42739580D01*
D14*
X37246428Y-57406764D02*
X37246428Y-56656764D01*
X37246428Y-56656764D02*
X37424999Y-56656764D01*
X37424999Y-56656764D02*
X37532142Y-56692478D01*
X37532142Y-56692478D02*
X37603571Y-56763907D01*
X37603571Y-56763907D02*
X37639285Y-56835335D01*
X37639285Y-56835335D02*
X37674999Y-56978192D01*
X37674999Y-56978192D02*
X37674999Y-57085335D01*
X37674999Y-57085335D02*
X37639285Y-57228192D01*
X37639285Y-57228192D02*
X37603571Y-57299621D01*
X37603571Y-57299621D02*
X37532142Y-57371050D01*
X37532142Y-57371050D02*
X37424999Y-57406764D01*
X37424999Y-57406764D02*
X37246428Y-57406764D01*
X37924999Y-56656764D02*
X38424999Y-56656764D01*
X38424999Y-56656764D02*
X38103571Y-57406764D01*
X37256428Y-31431764D02*
X37256428Y-30681764D01*
X37256428Y-30681764D02*
X37434999Y-30681764D01*
X37434999Y-30681764D02*
X37542142Y-30717478D01*
X37542142Y-30717478D02*
X37613571Y-30788907D01*
X37613571Y-30788907D02*
X37649285Y-30860335D01*
X37649285Y-30860335D02*
X37684999Y-31003192D01*
X37684999Y-31003192D02*
X37684999Y-31110335D01*
X37684999Y-31110335D02*
X37649285Y-31253192D01*
X37649285Y-31253192D02*
X37613571Y-31324621D01*
X37613571Y-31324621D02*
X37542142Y-31396050D01*
X37542142Y-31396050D02*
X37434999Y-31431764D01*
X37434999Y-31431764D02*
X37256428Y-31431764D01*
X37970714Y-30753192D02*
X38006428Y-30717478D01*
X38006428Y-30717478D02*
X38077857Y-30681764D01*
X38077857Y-30681764D02*
X38256428Y-30681764D01*
X38256428Y-30681764D02*
X38327857Y-30717478D01*
X38327857Y-30717478D02*
X38363571Y-30753192D01*
X38363571Y-30753192D02*
X38399285Y-30824621D01*
X38399285Y-30824621D02*
X38399285Y-30896050D01*
X38399285Y-30896050D02*
X38363571Y-31003192D01*
X38363571Y-31003192D02*
X37934999Y-31431764D01*
X37934999Y-31431764D02*
X38399285Y-31431764D01*
D11*
X41487142Y-36504819D02*
X41153809Y-36028628D01*
X40915714Y-36504819D02*
X40915714Y-35504819D01*
X40915714Y-35504819D02*
X41296666Y-35504819D01*
X41296666Y-35504819D02*
X41391904Y-35552438D01*
X41391904Y-35552438D02*
X41439523Y-35600057D01*
X41439523Y-35600057D02*
X41487142Y-35695295D01*
X41487142Y-35695295D02*
X41487142Y-35838152D01*
X41487142Y-35838152D02*
X41439523Y-35933390D01*
X41439523Y-35933390D02*
X41391904Y-35981009D01*
X41391904Y-35981009D02*
X41296666Y-36028628D01*
X41296666Y-36028628D02*
X40915714Y-36028628D01*
X42439523Y-36504819D02*
X41868095Y-36504819D01*
X42153809Y-36504819D02*
X42153809Y-35504819D01*
X42153809Y-35504819D02*
X42058571Y-35647676D01*
X42058571Y-35647676D02*
X41963333Y-35742914D01*
X41963333Y-35742914D02*
X41868095Y-35790533D01*
X42915714Y-36504819D02*
X43106190Y-36504819D01*
X43106190Y-36504819D02*
X43201428Y-36457200D01*
X43201428Y-36457200D02*
X43249047Y-36409580D01*
X43249047Y-36409580D02*
X43344285Y-36266723D01*
X43344285Y-36266723D02*
X43391904Y-36076247D01*
X43391904Y-36076247D02*
X43391904Y-35695295D01*
X43391904Y-35695295D02*
X43344285Y-35600057D01*
X43344285Y-35600057D02*
X43296666Y-35552438D01*
X43296666Y-35552438D02*
X43201428Y-35504819D01*
X43201428Y-35504819D02*
X43010952Y-35504819D01*
X43010952Y-35504819D02*
X42915714Y-35552438D01*
X42915714Y-35552438D02*
X42868095Y-35600057D01*
X42868095Y-35600057D02*
X42820476Y-35695295D01*
X42820476Y-35695295D02*
X42820476Y-35933390D01*
X42820476Y-35933390D02*
X42868095Y-36028628D01*
X42868095Y-36028628D02*
X42915714Y-36076247D01*
X42915714Y-36076247D02*
X43010952Y-36123866D01*
X43010952Y-36123866D02*
X43201428Y-36123866D01*
X43201428Y-36123866D02*
X43296666Y-36076247D01*
X43296666Y-36076247D02*
X43344285Y-36028628D01*
X43344285Y-36028628D02*
X43391904Y-35933390D01*
D14*
X37176428Y-25401764D02*
X37176428Y-24651764D01*
X37176428Y-24651764D02*
X37354999Y-24651764D01*
X37354999Y-24651764D02*
X37462142Y-24687478D01*
X37462142Y-24687478D02*
X37533571Y-24758907D01*
X37533571Y-24758907D02*
X37569285Y-24830335D01*
X37569285Y-24830335D02*
X37604999Y-24973192D01*
X37604999Y-24973192D02*
X37604999Y-25080335D01*
X37604999Y-25080335D02*
X37569285Y-25223192D01*
X37569285Y-25223192D02*
X37533571Y-25294621D01*
X37533571Y-25294621D02*
X37462142Y-25366050D01*
X37462142Y-25366050D02*
X37354999Y-25401764D01*
X37354999Y-25401764D02*
X37176428Y-25401764D01*
X37854999Y-24651764D02*
X38319285Y-24651764D01*
X38319285Y-24651764D02*
X38069285Y-24937478D01*
X38069285Y-24937478D02*
X38176428Y-24937478D01*
X38176428Y-24937478D02*
X38247857Y-24973192D01*
X38247857Y-24973192D02*
X38283571Y-25008907D01*
X38283571Y-25008907D02*
X38319285Y-25080335D01*
X38319285Y-25080335D02*
X38319285Y-25258907D01*
X38319285Y-25258907D02*
X38283571Y-25330335D01*
X38283571Y-25330335D02*
X38247857Y-25366050D01*
X38247857Y-25366050D02*
X38176428Y-25401764D01*
X38176428Y-25401764D02*
X37962142Y-25401764D01*
X37962142Y-25401764D02*
X37890714Y-25366050D01*
X37890714Y-25366050D02*
X37854999Y-25330335D01*
X37246428Y-34361764D02*
X37246428Y-33611764D01*
X37246428Y-33611764D02*
X37424999Y-33611764D01*
X37424999Y-33611764D02*
X37532142Y-33647478D01*
X37532142Y-33647478D02*
X37603571Y-33718907D01*
X37603571Y-33718907D02*
X37639285Y-33790335D01*
X37639285Y-33790335D02*
X37674999Y-33933192D01*
X37674999Y-33933192D02*
X37674999Y-34040335D01*
X37674999Y-34040335D02*
X37639285Y-34183192D01*
X37639285Y-34183192D02*
X37603571Y-34254621D01*
X37603571Y-34254621D02*
X37532142Y-34326050D01*
X37532142Y-34326050D02*
X37424999Y-34361764D01*
X37424999Y-34361764D02*
X37246428Y-34361764D01*
X38389285Y-34361764D02*
X37960714Y-34361764D01*
X38174999Y-34361764D02*
X38174999Y-33611764D01*
X38174999Y-33611764D02*
X38103571Y-33718907D01*
X38103571Y-33718907D02*
X38032142Y-33790335D01*
X38032142Y-33790335D02*
X37960714Y-33826050D01*
X37296428Y-54301764D02*
X37296428Y-53551764D01*
X37296428Y-53551764D02*
X37474999Y-53551764D01*
X37474999Y-53551764D02*
X37582142Y-53587478D01*
X37582142Y-53587478D02*
X37653571Y-53658907D01*
X37653571Y-53658907D02*
X37689285Y-53730335D01*
X37689285Y-53730335D02*
X37724999Y-53873192D01*
X37724999Y-53873192D02*
X37724999Y-53980335D01*
X37724999Y-53980335D02*
X37689285Y-54123192D01*
X37689285Y-54123192D02*
X37653571Y-54194621D01*
X37653571Y-54194621D02*
X37582142Y-54266050D01*
X37582142Y-54266050D02*
X37474999Y-54301764D01*
X37474999Y-54301764D02*
X37296428Y-54301764D01*
X38367857Y-53551764D02*
X38224999Y-53551764D01*
X38224999Y-53551764D02*
X38153571Y-53587478D01*
X38153571Y-53587478D02*
X38117857Y-53623192D01*
X38117857Y-53623192D02*
X38046428Y-53730335D01*
X38046428Y-53730335D02*
X38010714Y-53873192D01*
X38010714Y-53873192D02*
X38010714Y-54158907D01*
X38010714Y-54158907D02*
X38046428Y-54230335D01*
X38046428Y-54230335D02*
X38082142Y-54266050D01*
X38082142Y-54266050D02*
X38153571Y-54301764D01*
X38153571Y-54301764D02*
X38296428Y-54301764D01*
X38296428Y-54301764D02*
X38367857Y-54266050D01*
X38367857Y-54266050D02*
X38403571Y-54230335D01*
X38403571Y-54230335D02*
X38439285Y-54158907D01*
X38439285Y-54158907D02*
X38439285Y-53980335D01*
X38439285Y-53980335D02*
X38403571Y-53908907D01*
X38403571Y-53908907D02*
X38367857Y-53873192D01*
X38367857Y-53873192D02*
X38296428Y-53837478D01*
X38296428Y-53837478D02*
X38153571Y-53837478D01*
X38153571Y-53837478D02*
X38082142Y-53873192D01*
X38082142Y-53873192D02*
X38046428Y-53908907D01*
X38046428Y-53908907D02*
X38010714Y-53980335D01*
X65029285Y-54391764D02*
X65029285Y-53641764D01*
X65029285Y-53641764D02*
X65207856Y-53641764D01*
X65207856Y-53641764D02*
X65314999Y-53677478D01*
X65314999Y-53677478D02*
X65386428Y-53748907D01*
X65386428Y-53748907D02*
X65422142Y-53820335D01*
X65422142Y-53820335D02*
X65457856Y-53963192D01*
X65457856Y-53963192D02*
X65457856Y-54070335D01*
X65457856Y-54070335D02*
X65422142Y-54213192D01*
X65422142Y-54213192D02*
X65386428Y-54284621D01*
X65386428Y-54284621D02*
X65314999Y-54356050D01*
X65314999Y-54356050D02*
X65207856Y-54391764D01*
X65207856Y-54391764D02*
X65029285Y-54391764D01*
X66172142Y-54391764D02*
X65743571Y-54391764D01*
X65957856Y-54391764D02*
X65957856Y-53641764D01*
X65957856Y-53641764D02*
X65886428Y-53748907D01*
X65886428Y-53748907D02*
X65814999Y-53820335D01*
X65814999Y-53820335D02*
X65743571Y-53856050D01*
X66636428Y-53641764D02*
X66707857Y-53641764D01*
X66707857Y-53641764D02*
X66779285Y-53677478D01*
X66779285Y-53677478D02*
X66815000Y-53713192D01*
X66815000Y-53713192D02*
X66850714Y-53784621D01*
X66850714Y-53784621D02*
X66886428Y-53927478D01*
X66886428Y-53927478D02*
X66886428Y-54106050D01*
X66886428Y-54106050D02*
X66850714Y-54248907D01*
X66850714Y-54248907D02*
X66815000Y-54320335D01*
X66815000Y-54320335D02*
X66779285Y-54356050D01*
X66779285Y-54356050D02*
X66707857Y-54391764D01*
X66707857Y-54391764D02*
X66636428Y-54391764D01*
X66636428Y-54391764D02*
X66565000Y-54356050D01*
X66565000Y-54356050D02*
X66529285Y-54320335D01*
X66529285Y-54320335D02*
X66493571Y-54248907D01*
X66493571Y-54248907D02*
X66457857Y-54106050D01*
X66457857Y-54106050D02*
X66457857Y-53927478D01*
X66457857Y-53927478D02*
X66493571Y-53784621D01*
X66493571Y-53784621D02*
X66529285Y-53713192D01*
X66529285Y-53713192D02*
X66565000Y-53677478D01*
X66565000Y-53677478D02*
X66636428Y-53641764D01*
D11*
X43217142Y-49664819D02*
X42883809Y-49188628D01*
X42645714Y-49664819D02*
X42645714Y-48664819D01*
X42645714Y-48664819D02*
X43026666Y-48664819D01*
X43026666Y-48664819D02*
X43121904Y-48712438D01*
X43121904Y-48712438D02*
X43169523Y-48760057D01*
X43169523Y-48760057D02*
X43217142Y-48855295D01*
X43217142Y-48855295D02*
X43217142Y-48998152D01*
X43217142Y-48998152D02*
X43169523Y-49093390D01*
X43169523Y-49093390D02*
X43121904Y-49141009D01*
X43121904Y-49141009D02*
X43026666Y-49188628D01*
X43026666Y-49188628D02*
X42645714Y-49188628D01*
X43598095Y-48760057D02*
X43645714Y-48712438D01*
X43645714Y-48712438D02*
X43740952Y-48664819D01*
X43740952Y-48664819D02*
X43979047Y-48664819D01*
X43979047Y-48664819D02*
X44074285Y-48712438D01*
X44074285Y-48712438D02*
X44121904Y-48760057D01*
X44121904Y-48760057D02*
X44169523Y-48855295D01*
X44169523Y-48855295D02*
X44169523Y-48950533D01*
X44169523Y-48950533D02*
X44121904Y-49093390D01*
X44121904Y-49093390D02*
X43550476Y-49664819D01*
X43550476Y-49664819D02*
X44169523Y-49664819D01*
X45121904Y-49664819D02*
X44550476Y-49664819D01*
X44836190Y-49664819D02*
X44836190Y-48664819D01*
X44836190Y-48664819D02*
X44740952Y-48807676D01*
X44740952Y-48807676D02*
X44645714Y-48902914D01*
X44645714Y-48902914D02*
X44550476Y-48950533D01*
D14*
X64966428Y-51406764D02*
X64966428Y-50656764D01*
X64966428Y-50656764D02*
X65144999Y-50656764D01*
X65144999Y-50656764D02*
X65252142Y-50692478D01*
X65252142Y-50692478D02*
X65323571Y-50763907D01*
X65323571Y-50763907D02*
X65359285Y-50835335D01*
X65359285Y-50835335D02*
X65394999Y-50978192D01*
X65394999Y-50978192D02*
X65394999Y-51085335D01*
X65394999Y-51085335D02*
X65359285Y-51228192D01*
X65359285Y-51228192D02*
X65323571Y-51299621D01*
X65323571Y-51299621D02*
X65252142Y-51371050D01*
X65252142Y-51371050D02*
X65144999Y-51406764D01*
X65144999Y-51406764D02*
X64966428Y-51406764D01*
X65752142Y-51406764D02*
X65894999Y-51406764D01*
X65894999Y-51406764D02*
X65966428Y-51371050D01*
X65966428Y-51371050D02*
X66002142Y-51335335D01*
X66002142Y-51335335D02*
X66073571Y-51228192D01*
X66073571Y-51228192D02*
X66109285Y-51085335D01*
X66109285Y-51085335D02*
X66109285Y-50799621D01*
X66109285Y-50799621D02*
X66073571Y-50728192D01*
X66073571Y-50728192D02*
X66037857Y-50692478D01*
X66037857Y-50692478D02*
X65966428Y-50656764D01*
X65966428Y-50656764D02*
X65823571Y-50656764D01*
X65823571Y-50656764D02*
X65752142Y-50692478D01*
X65752142Y-50692478D02*
X65716428Y-50728192D01*
X65716428Y-50728192D02*
X65680714Y-50799621D01*
X65680714Y-50799621D02*
X65680714Y-50978192D01*
X65680714Y-50978192D02*
X65716428Y-51049621D01*
X65716428Y-51049621D02*
X65752142Y-51085335D01*
X65752142Y-51085335D02*
X65823571Y-51121050D01*
X65823571Y-51121050D02*
X65966428Y-51121050D01*
X65966428Y-51121050D02*
X66037857Y-51085335D01*
X66037857Y-51085335D02*
X66073571Y-51049621D01*
X66073571Y-51049621D02*
X66109285Y-50978192D01*
D11*
X30773333Y-42569580D02*
X30725714Y-42617200D01*
X30725714Y-42617200D02*
X30582857Y-42664819D01*
X30582857Y-42664819D02*
X30487619Y-42664819D01*
X30487619Y-42664819D02*
X30344762Y-42617200D01*
X30344762Y-42617200D02*
X30249524Y-42521961D01*
X30249524Y-42521961D02*
X30201905Y-42426723D01*
X30201905Y-42426723D02*
X30154286Y-42236247D01*
X30154286Y-42236247D02*
X30154286Y-42093390D01*
X30154286Y-42093390D02*
X30201905Y-41902914D01*
X30201905Y-41902914D02*
X30249524Y-41807676D01*
X30249524Y-41807676D02*
X30344762Y-41712438D01*
X30344762Y-41712438D02*
X30487619Y-41664819D01*
X30487619Y-41664819D02*
X30582857Y-41664819D01*
X30582857Y-41664819D02*
X30725714Y-41712438D01*
X30725714Y-41712438D02*
X30773333Y-41760057D01*
X31725714Y-42664819D02*
X31154286Y-42664819D01*
X31440000Y-42664819D02*
X31440000Y-41664819D01*
X31440000Y-41664819D02*
X31344762Y-41807676D01*
X31344762Y-41807676D02*
X31249524Y-41902914D01*
X31249524Y-41902914D02*
X31154286Y-41950533D01*
D14*
X64959285Y-28156764D02*
X64959285Y-27406764D01*
X64959285Y-27406764D02*
X65137856Y-27406764D01*
X65137856Y-27406764D02*
X65244999Y-27442478D01*
X65244999Y-27442478D02*
X65316428Y-27513907D01*
X65316428Y-27513907D02*
X65352142Y-27585335D01*
X65352142Y-27585335D02*
X65387856Y-27728192D01*
X65387856Y-27728192D02*
X65387856Y-27835335D01*
X65387856Y-27835335D02*
X65352142Y-27978192D01*
X65352142Y-27978192D02*
X65316428Y-28049621D01*
X65316428Y-28049621D02*
X65244999Y-28121050D01*
X65244999Y-28121050D02*
X65137856Y-28156764D01*
X65137856Y-28156764D02*
X64959285Y-28156764D01*
X66102142Y-28156764D02*
X65673571Y-28156764D01*
X65887856Y-28156764D02*
X65887856Y-27406764D01*
X65887856Y-27406764D02*
X65816428Y-27513907D01*
X65816428Y-27513907D02*
X65744999Y-27585335D01*
X65744999Y-27585335D02*
X65673571Y-27621050D01*
X66745000Y-27656764D02*
X66745000Y-28156764D01*
X66566428Y-27371050D02*
X66387857Y-27906764D01*
X66387857Y-27906764D02*
X66852142Y-27906764D01*
X64959285Y-34076764D02*
X64959285Y-33326764D01*
X64959285Y-33326764D02*
X65137856Y-33326764D01*
X65137856Y-33326764D02*
X65244999Y-33362478D01*
X65244999Y-33362478D02*
X65316428Y-33433907D01*
X65316428Y-33433907D02*
X65352142Y-33505335D01*
X65352142Y-33505335D02*
X65387856Y-33648192D01*
X65387856Y-33648192D02*
X65387856Y-33755335D01*
X65387856Y-33755335D02*
X65352142Y-33898192D01*
X65352142Y-33898192D02*
X65316428Y-33969621D01*
X65316428Y-33969621D02*
X65244999Y-34041050D01*
X65244999Y-34041050D02*
X65137856Y-34076764D01*
X65137856Y-34076764D02*
X64959285Y-34076764D01*
X66102142Y-34076764D02*
X65673571Y-34076764D01*
X65887856Y-34076764D02*
X65887856Y-33326764D01*
X65887856Y-33326764D02*
X65816428Y-33433907D01*
X65816428Y-33433907D02*
X65744999Y-33505335D01*
X65744999Y-33505335D02*
X65673571Y-33541050D01*
X66745000Y-33326764D02*
X66602142Y-33326764D01*
X66602142Y-33326764D02*
X66530714Y-33362478D01*
X66530714Y-33362478D02*
X66495000Y-33398192D01*
X66495000Y-33398192D02*
X66423571Y-33505335D01*
X66423571Y-33505335D02*
X66387857Y-33648192D01*
X66387857Y-33648192D02*
X66387857Y-33933907D01*
X66387857Y-33933907D02*
X66423571Y-34005335D01*
X66423571Y-34005335D02*
X66459285Y-34041050D01*
X66459285Y-34041050D02*
X66530714Y-34076764D01*
X66530714Y-34076764D02*
X66673571Y-34076764D01*
X66673571Y-34076764D02*
X66745000Y-34041050D01*
X66745000Y-34041050D02*
X66780714Y-34005335D01*
X66780714Y-34005335D02*
X66816428Y-33933907D01*
X66816428Y-33933907D02*
X66816428Y-33755335D01*
X66816428Y-33755335D02*
X66780714Y-33683907D01*
X66780714Y-33683907D02*
X66745000Y-33648192D01*
X66745000Y-33648192D02*
X66673571Y-33612478D01*
X66673571Y-33612478D02*
X66530714Y-33612478D01*
X66530714Y-33612478D02*
X66459285Y-33648192D01*
X66459285Y-33648192D02*
X66423571Y-33683907D01*
X66423571Y-33683907D02*
X66387857Y-33755335D01*
D11*
X74818571Y-42930057D02*
X74723333Y-42882438D01*
X74723333Y-42882438D02*
X74628095Y-42787200D01*
X74628095Y-42787200D02*
X74485238Y-42644342D01*
X74485238Y-42644342D02*
X74390000Y-42596723D01*
X74390000Y-42596723D02*
X74294762Y-42596723D01*
X74342381Y-42834819D02*
X74247143Y-42787200D01*
X74247143Y-42787200D02*
X74151905Y-42691961D01*
X74151905Y-42691961D02*
X74104286Y-42501485D01*
X74104286Y-42501485D02*
X74104286Y-42168152D01*
X74104286Y-42168152D02*
X74151905Y-41977676D01*
X74151905Y-41977676D02*
X74247143Y-41882438D01*
X74247143Y-41882438D02*
X74342381Y-41834819D01*
X74342381Y-41834819D02*
X74532857Y-41834819D01*
X74532857Y-41834819D02*
X74628095Y-41882438D01*
X74628095Y-41882438D02*
X74723333Y-41977676D01*
X74723333Y-41977676D02*
X74770952Y-42168152D01*
X74770952Y-42168152D02*
X74770952Y-42501485D01*
X74770952Y-42501485D02*
X74723333Y-42691961D01*
X74723333Y-42691961D02*
X74628095Y-42787200D01*
X74628095Y-42787200D02*
X74532857Y-42834819D01*
X74532857Y-42834819D02*
X74342381Y-42834819D01*
X75723333Y-42834819D02*
X75151905Y-42834819D01*
X75437619Y-42834819D02*
X75437619Y-41834819D01*
X75437619Y-41834819D02*
X75342381Y-41977676D01*
X75342381Y-41977676D02*
X75247143Y-42072914D01*
X75247143Y-42072914D02*
X75151905Y-42120533D01*
X76342381Y-41834819D02*
X76437619Y-41834819D01*
X76437619Y-41834819D02*
X76532857Y-41882438D01*
X76532857Y-41882438D02*
X76580476Y-41930057D01*
X76580476Y-41930057D02*
X76628095Y-42025295D01*
X76628095Y-42025295D02*
X76675714Y-42215771D01*
X76675714Y-42215771D02*
X76675714Y-42453866D01*
X76675714Y-42453866D02*
X76628095Y-42644342D01*
X76628095Y-42644342D02*
X76580476Y-42739580D01*
X76580476Y-42739580D02*
X76532857Y-42787200D01*
X76532857Y-42787200D02*
X76437619Y-42834819D01*
X76437619Y-42834819D02*
X76342381Y-42834819D01*
X76342381Y-42834819D02*
X76247143Y-42787200D01*
X76247143Y-42787200D02*
X76199524Y-42739580D01*
X76199524Y-42739580D02*
X76151905Y-42644342D01*
X76151905Y-42644342D02*
X76104286Y-42453866D01*
X76104286Y-42453866D02*
X76104286Y-42215771D01*
X76104286Y-42215771D02*
X76151905Y-42025295D01*
X76151905Y-42025295D02*
X76199524Y-41930057D01*
X76199524Y-41930057D02*
X76247143Y-41882438D01*
X76247143Y-41882438D02*
X76342381Y-41834819D01*
X45016666Y-53944819D02*
X45016666Y-54659104D01*
X45016666Y-54659104D02*
X44969047Y-54801961D01*
X44969047Y-54801961D02*
X44873809Y-54897200D01*
X44873809Y-54897200D02*
X44730952Y-54944819D01*
X44730952Y-54944819D02*
X44635714Y-54944819D01*
X45445238Y-54040057D02*
X45492857Y-53992438D01*
X45492857Y-53992438D02*
X45588095Y-53944819D01*
X45588095Y-53944819D02*
X45826190Y-53944819D01*
X45826190Y-53944819D02*
X45921428Y-53992438D01*
X45921428Y-53992438D02*
X45969047Y-54040057D01*
X45969047Y-54040057D02*
X46016666Y-54135295D01*
X46016666Y-54135295D02*
X46016666Y-54230533D01*
X46016666Y-54230533D02*
X45969047Y-54373390D01*
X45969047Y-54373390D02*
X45397619Y-54944819D01*
X45397619Y-54944819D02*
X46016666Y-54944819D01*
D14*
X64869285Y-31321764D02*
X64869285Y-30571764D01*
X64869285Y-30571764D02*
X65047856Y-30571764D01*
X65047856Y-30571764D02*
X65154999Y-30607478D01*
X65154999Y-30607478D02*
X65226428Y-30678907D01*
X65226428Y-30678907D02*
X65262142Y-30750335D01*
X65262142Y-30750335D02*
X65297856Y-30893192D01*
X65297856Y-30893192D02*
X65297856Y-31000335D01*
X65297856Y-31000335D02*
X65262142Y-31143192D01*
X65262142Y-31143192D02*
X65226428Y-31214621D01*
X65226428Y-31214621D02*
X65154999Y-31286050D01*
X65154999Y-31286050D02*
X65047856Y-31321764D01*
X65047856Y-31321764D02*
X64869285Y-31321764D01*
X66012142Y-31321764D02*
X65583571Y-31321764D01*
X65797856Y-31321764D02*
X65797856Y-30571764D01*
X65797856Y-30571764D02*
X65726428Y-30678907D01*
X65726428Y-30678907D02*
X65654999Y-30750335D01*
X65654999Y-30750335D02*
X65583571Y-30786050D01*
X66690714Y-30571764D02*
X66333571Y-30571764D01*
X66333571Y-30571764D02*
X66297857Y-30928907D01*
X66297857Y-30928907D02*
X66333571Y-30893192D01*
X66333571Y-30893192D02*
X66405000Y-30857478D01*
X66405000Y-30857478D02*
X66583571Y-30857478D01*
X66583571Y-30857478D02*
X66655000Y-30893192D01*
X66655000Y-30893192D02*
X66690714Y-30928907D01*
X66690714Y-30928907D02*
X66726428Y-31000335D01*
X66726428Y-31000335D02*
X66726428Y-31178907D01*
X66726428Y-31178907D02*
X66690714Y-31250335D01*
X66690714Y-31250335D02*
X66655000Y-31286050D01*
X66655000Y-31286050D02*
X66583571Y-31321764D01*
X66583571Y-31321764D02*
X66405000Y-31321764D01*
X66405000Y-31321764D02*
X66333571Y-31286050D01*
X66333571Y-31286050D02*
X66297857Y-31250335D01*
D11*
X59223333Y-25429580D02*
X59175714Y-25477200D01*
X59175714Y-25477200D02*
X59032857Y-25524819D01*
X59032857Y-25524819D02*
X58937619Y-25524819D01*
X58937619Y-25524819D02*
X58794762Y-25477200D01*
X58794762Y-25477200D02*
X58699524Y-25381961D01*
X58699524Y-25381961D02*
X58651905Y-25286723D01*
X58651905Y-25286723D02*
X58604286Y-25096247D01*
X58604286Y-25096247D02*
X58604286Y-24953390D01*
X58604286Y-24953390D02*
X58651905Y-24762914D01*
X58651905Y-24762914D02*
X58699524Y-24667676D01*
X58699524Y-24667676D02*
X58794762Y-24572438D01*
X58794762Y-24572438D02*
X58937619Y-24524819D01*
X58937619Y-24524819D02*
X59032857Y-24524819D01*
X59032857Y-24524819D02*
X59175714Y-24572438D01*
X59175714Y-24572438D02*
X59223333Y-24620057D01*
X60128095Y-24524819D02*
X59651905Y-24524819D01*
X59651905Y-24524819D02*
X59604286Y-25001009D01*
X59604286Y-25001009D02*
X59651905Y-24953390D01*
X59651905Y-24953390D02*
X59747143Y-24905771D01*
X59747143Y-24905771D02*
X59985238Y-24905771D01*
X59985238Y-24905771D02*
X60080476Y-24953390D01*
X60080476Y-24953390D02*
X60128095Y-25001009D01*
X60128095Y-25001009D02*
X60175714Y-25096247D01*
X60175714Y-25096247D02*
X60175714Y-25334342D01*
X60175714Y-25334342D02*
X60128095Y-25429580D01*
X60128095Y-25429580D02*
X60080476Y-25477200D01*
X60080476Y-25477200D02*
X59985238Y-25524819D01*
X59985238Y-25524819D02*
X59747143Y-25524819D01*
X59747143Y-25524819D02*
X59651905Y-25477200D01*
X59651905Y-25477200D02*
X59604286Y-25429580D01*
X38353333Y-46909580D02*
X38305714Y-46957200D01*
X38305714Y-46957200D02*
X38162857Y-47004819D01*
X38162857Y-47004819D02*
X38067619Y-47004819D01*
X38067619Y-47004819D02*
X37924762Y-46957200D01*
X37924762Y-46957200D02*
X37829524Y-46861961D01*
X37829524Y-46861961D02*
X37781905Y-46766723D01*
X37781905Y-46766723D02*
X37734286Y-46576247D01*
X37734286Y-46576247D02*
X37734286Y-46433390D01*
X37734286Y-46433390D02*
X37781905Y-46242914D01*
X37781905Y-46242914D02*
X37829524Y-46147676D01*
X37829524Y-46147676D02*
X37924762Y-46052438D01*
X37924762Y-46052438D02*
X38067619Y-46004819D01*
X38067619Y-46004819D02*
X38162857Y-46004819D01*
X38162857Y-46004819D02*
X38305714Y-46052438D01*
X38305714Y-46052438D02*
X38353333Y-46100057D01*
X38686667Y-46004819D02*
X39353333Y-46004819D01*
X39353333Y-46004819D02*
X38924762Y-47004819D01*
D14*
X37286428Y-51311764D02*
X37286428Y-50561764D01*
X37286428Y-50561764D02*
X37464999Y-50561764D01*
X37464999Y-50561764D02*
X37572142Y-50597478D01*
X37572142Y-50597478D02*
X37643571Y-50668907D01*
X37643571Y-50668907D02*
X37679285Y-50740335D01*
X37679285Y-50740335D02*
X37714999Y-50883192D01*
X37714999Y-50883192D02*
X37714999Y-50990335D01*
X37714999Y-50990335D02*
X37679285Y-51133192D01*
X37679285Y-51133192D02*
X37643571Y-51204621D01*
X37643571Y-51204621D02*
X37572142Y-51276050D01*
X37572142Y-51276050D02*
X37464999Y-51311764D01*
X37464999Y-51311764D02*
X37286428Y-51311764D01*
X38393571Y-50561764D02*
X38036428Y-50561764D01*
X38036428Y-50561764D02*
X38000714Y-50918907D01*
X38000714Y-50918907D02*
X38036428Y-50883192D01*
X38036428Y-50883192D02*
X38107857Y-50847478D01*
X38107857Y-50847478D02*
X38286428Y-50847478D01*
X38286428Y-50847478D02*
X38357857Y-50883192D01*
X38357857Y-50883192D02*
X38393571Y-50918907D01*
X38393571Y-50918907D02*
X38429285Y-50990335D01*
X38429285Y-50990335D02*
X38429285Y-51168907D01*
X38429285Y-51168907D02*
X38393571Y-51240335D01*
X38393571Y-51240335D02*
X38357857Y-51276050D01*
X38357857Y-51276050D02*
X38286428Y-51311764D01*
X38286428Y-51311764D02*
X38107857Y-51311764D01*
X38107857Y-51311764D02*
X38036428Y-51276050D01*
X38036428Y-51276050D02*
X38000714Y-51240335D01*
X64849285Y-60351764D02*
X64849285Y-59601764D01*
X64849285Y-59601764D02*
X65027856Y-59601764D01*
X65027856Y-59601764D02*
X65134999Y-59637478D01*
X65134999Y-59637478D02*
X65206428Y-59708907D01*
X65206428Y-59708907D02*
X65242142Y-59780335D01*
X65242142Y-59780335D02*
X65277856Y-59923192D01*
X65277856Y-59923192D02*
X65277856Y-60030335D01*
X65277856Y-60030335D02*
X65242142Y-60173192D01*
X65242142Y-60173192D02*
X65206428Y-60244621D01*
X65206428Y-60244621D02*
X65134999Y-60316050D01*
X65134999Y-60316050D02*
X65027856Y-60351764D01*
X65027856Y-60351764D02*
X64849285Y-60351764D01*
X65992142Y-60351764D02*
X65563571Y-60351764D01*
X65777856Y-60351764D02*
X65777856Y-59601764D01*
X65777856Y-59601764D02*
X65706428Y-59708907D01*
X65706428Y-59708907D02*
X65634999Y-59780335D01*
X65634999Y-59780335D02*
X65563571Y-59816050D01*
X66277857Y-59673192D02*
X66313571Y-59637478D01*
X66313571Y-59637478D02*
X66385000Y-59601764D01*
X66385000Y-59601764D02*
X66563571Y-59601764D01*
X66563571Y-59601764D02*
X66635000Y-59637478D01*
X66635000Y-59637478D02*
X66670714Y-59673192D01*
X66670714Y-59673192D02*
X66706428Y-59744621D01*
X66706428Y-59744621D02*
X66706428Y-59816050D01*
X66706428Y-59816050D02*
X66670714Y-59923192D01*
X66670714Y-59923192D02*
X66242142Y-60351764D01*
X66242142Y-60351764D02*
X66706428Y-60351764D01*
D11*
X72596666Y-29844819D02*
X72596666Y-30559104D01*
X72596666Y-30559104D02*
X72549047Y-30701961D01*
X72549047Y-30701961D02*
X72453809Y-30797200D01*
X72453809Y-30797200D02*
X72310952Y-30844819D01*
X72310952Y-30844819D02*
X72215714Y-30844819D01*
X73549047Y-29844819D02*
X73072857Y-29844819D01*
X73072857Y-29844819D02*
X73025238Y-30321009D01*
X73025238Y-30321009D02*
X73072857Y-30273390D01*
X73072857Y-30273390D02*
X73168095Y-30225771D01*
X73168095Y-30225771D02*
X73406190Y-30225771D01*
X73406190Y-30225771D02*
X73501428Y-30273390D01*
X73501428Y-30273390D02*
X73549047Y-30321009D01*
X73549047Y-30321009D02*
X73596666Y-30416247D01*
X73596666Y-30416247D02*
X73596666Y-30654342D01*
X73596666Y-30654342D02*
X73549047Y-30749580D01*
X73549047Y-30749580D02*
X73501428Y-30797200D01*
X73501428Y-30797200D02*
X73406190Y-30844819D01*
X73406190Y-30844819D02*
X73168095Y-30844819D01*
X73168095Y-30844819D02*
X73072857Y-30797200D01*
X73072857Y-30797200D02*
X73025238Y-30749580D01*
D14*
X64959285Y-57356764D02*
X64959285Y-56606764D01*
X64959285Y-56606764D02*
X65137856Y-56606764D01*
X65137856Y-56606764D02*
X65244999Y-56642478D01*
X65244999Y-56642478D02*
X65316428Y-56713907D01*
X65316428Y-56713907D02*
X65352142Y-56785335D01*
X65352142Y-56785335D02*
X65387856Y-56928192D01*
X65387856Y-56928192D02*
X65387856Y-57035335D01*
X65387856Y-57035335D02*
X65352142Y-57178192D01*
X65352142Y-57178192D02*
X65316428Y-57249621D01*
X65316428Y-57249621D02*
X65244999Y-57321050D01*
X65244999Y-57321050D02*
X65137856Y-57356764D01*
X65137856Y-57356764D02*
X64959285Y-57356764D01*
X66102142Y-57356764D02*
X65673571Y-57356764D01*
X65887856Y-57356764D02*
X65887856Y-56606764D01*
X65887856Y-56606764D02*
X65816428Y-56713907D01*
X65816428Y-56713907D02*
X65744999Y-56785335D01*
X65744999Y-56785335D02*
X65673571Y-56821050D01*
X66816428Y-57356764D02*
X66387857Y-57356764D01*
X66602142Y-57356764D02*
X66602142Y-56606764D01*
X66602142Y-56606764D02*
X66530714Y-56713907D01*
X66530714Y-56713907D02*
X66459285Y-56785335D01*
X66459285Y-56785335D02*
X66387857Y-56821050D01*
X20681785Y-51573014D02*
X20681785Y-50823014D01*
X20681785Y-50823014D02*
X20860356Y-50823014D01*
X20860356Y-50823014D02*
X20967499Y-50858728D01*
X20967499Y-50858728D02*
X21038928Y-50930157D01*
X21038928Y-50930157D02*
X21074642Y-51001585D01*
X21074642Y-51001585D02*
X21110356Y-51144442D01*
X21110356Y-51144442D02*
X21110356Y-51251585D01*
X21110356Y-51251585D02*
X21074642Y-51394442D01*
X21074642Y-51394442D02*
X21038928Y-51465871D01*
X21038928Y-51465871D02*
X20967499Y-51537300D01*
X20967499Y-51537300D02*
X20860356Y-51573014D01*
X20860356Y-51573014D02*
X20681785Y-51573014D01*
X21824642Y-51573014D02*
X21396071Y-51573014D01*
X21610356Y-51573014D02*
X21610356Y-50823014D01*
X21610356Y-50823014D02*
X21538928Y-50930157D01*
X21538928Y-50930157D02*
X21467499Y-51001585D01*
X21467499Y-51001585D02*
X21396071Y-51037300D01*
X22253214Y-51144442D02*
X22181785Y-51108728D01*
X22181785Y-51108728D02*
X22146071Y-51073014D01*
X22146071Y-51073014D02*
X22110357Y-51001585D01*
X22110357Y-51001585D02*
X22110357Y-50965871D01*
X22110357Y-50965871D02*
X22146071Y-50894442D01*
X22146071Y-50894442D02*
X22181785Y-50858728D01*
X22181785Y-50858728D02*
X22253214Y-50823014D01*
X22253214Y-50823014D02*
X22396071Y-50823014D01*
X22396071Y-50823014D02*
X22467500Y-50858728D01*
X22467500Y-50858728D02*
X22503214Y-50894442D01*
X22503214Y-50894442D02*
X22538928Y-50965871D01*
X22538928Y-50965871D02*
X22538928Y-51001585D01*
X22538928Y-51001585D02*
X22503214Y-51073014D01*
X22503214Y-51073014D02*
X22467500Y-51108728D01*
X22467500Y-51108728D02*
X22396071Y-51144442D01*
X22396071Y-51144442D02*
X22253214Y-51144442D01*
X22253214Y-51144442D02*
X22181785Y-51180157D01*
X22181785Y-51180157D02*
X22146071Y-51215871D01*
X22146071Y-51215871D02*
X22110357Y-51287300D01*
X22110357Y-51287300D02*
X22110357Y-51430157D01*
X22110357Y-51430157D02*
X22146071Y-51501585D01*
X22146071Y-51501585D02*
X22181785Y-51537300D01*
X22181785Y-51537300D02*
X22253214Y-51573014D01*
X22253214Y-51573014D02*
X22396071Y-51573014D01*
X22396071Y-51573014D02*
X22467500Y-51537300D01*
X22467500Y-51537300D02*
X22503214Y-51501585D01*
X22503214Y-51501585D02*
X22538928Y-51430157D01*
X22538928Y-51430157D02*
X22538928Y-51287300D01*
X22538928Y-51287300D02*
X22503214Y-51215871D01*
X22503214Y-51215871D02*
X22467500Y-51180157D01*
X22467500Y-51180157D02*
X22396071Y-51144442D01*
D11*
X58738095Y-42004819D02*
X58738095Y-42814342D01*
X58738095Y-42814342D02*
X58785714Y-42909580D01*
X58785714Y-42909580D02*
X58833333Y-42957200D01*
X58833333Y-42957200D02*
X58928571Y-43004819D01*
X58928571Y-43004819D02*
X59119047Y-43004819D01*
X59119047Y-43004819D02*
X59214285Y-42957200D01*
X59214285Y-42957200D02*
X59261904Y-42909580D01*
X59261904Y-42909580D02*
X59309523Y-42814342D01*
X59309523Y-42814342D02*
X59309523Y-42004819D01*
X60309523Y-43004819D02*
X59738095Y-43004819D01*
X60023809Y-43004819D02*
X60023809Y-42004819D01*
X60023809Y-42004819D02*
X59928571Y-42147676D01*
X59928571Y-42147676D02*
X59833333Y-42242914D01*
X59833333Y-42242914D02*
X59738095Y-42290533D01*
X81713333Y-42479580D02*
X81665714Y-42527200D01*
X81665714Y-42527200D02*
X81522857Y-42574819D01*
X81522857Y-42574819D02*
X81427619Y-42574819D01*
X81427619Y-42574819D02*
X81284762Y-42527200D01*
X81284762Y-42527200D02*
X81189524Y-42431961D01*
X81189524Y-42431961D02*
X81141905Y-42336723D01*
X81141905Y-42336723D02*
X81094286Y-42146247D01*
X81094286Y-42146247D02*
X81094286Y-42003390D01*
X81094286Y-42003390D02*
X81141905Y-41812914D01*
X81141905Y-41812914D02*
X81189524Y-41717676D01*
X81189524Y-41717676D02*
X81284762Y-41622438D01*
X81284762Y-41622438D02*
X81427619Y-41574819D01*
X81427619Y-41574819D02*
X81522857Y-41574819D01*
X81522857Y-41574819D02*
X81665714Y-41622438D01*
X81665714Y-41622438D02*
X81713333Y-41670057D01*
X82046667Y-41574819D02*
X82665714Y-41574819D01*
X82665714Y-41574819D02*
X82332381Y-41955771D01*
X82332381Y-41955771D02*
X82475238Y-41955771D01*
X82475238Y-41955771D02*
X82570476Y-42003390D01*
X82570476Y-42003390D02*
X82618095Y-42051009D01*
X82618095Y-42051009D02*
X82665714Y-42146247D01*
X82665714Y-42146247D02*
X82665714Y-42384342D01*
X82665714Y-42384342D02*
X82618095Y-42479580D01*
X82618095Y-42479580D02*
X82570476Y-42527200D01*
X82570476Y-42527200D02*
X82475238Y-42574819D01*
X82475238Y-42574819D02*
X82189524Y-42574819D01*
X82189524Y-42574819D02*
X82094286Y-42527200D01*
X82094286Y-42527200D02*
X82046667Y-42479580D01*
X24236666Y-32134819D02*
X24236666Y-32849104D01*
X24236666Y-32849104D02*
X24189047Y-32991961D01*
X24189047Y-32991961D02*
X24093809Y-33087200D01*
X24093809Y-33087200D02*
X23950952Y-33134819D01*
X23950952Y-33134819D02*
X23855714Y-33134819D01*
X25236666Y-33134819D02*
X24665238Y-33134819D01*
X24950952Y-33134819D02*
X24950952Y-32134819D01*
X24950952Y-32134819D02*
X24855714Y-32277676D01*
X24855714Y-32277676D02*
X24760476Y-32372914D01*
X24760476Y-32372914D02*
X24665238Y-32420533D01*
X45046666Y-29894819D02*
X45046666Y-30609104D01*
X45046666Y-30609104D02*
X44999047Y-30751961D01*
X44999047Y-30751961D02*
X44903809Y-30847200D01*
X44903809Y-30847200D02*
X44760952Y-30894819D01*
X44760952Y-30894819D02*
X44665714Y-30894819D01*
X45427619Y-29894819D02*
X46046666Y-29894819D01*
X46046666Y-29894819D02*
X45713333Y-30275771D01*
X45713333Y-30275771D02*
X45856190Y-30275771D01*
X45856190Y-30275771D02*
X45951428Y-30323390D01*
X45951428Y-30323390D02*
X45999047Y-30371009D01*
X45999047Y-30371009D02*
X46046666Y-30466247D01*
X46046666Y-30466247D02*
X46046666Y-30704342D01*
X46046666Y-30704342D02*
X45999047Y-30799580D01*
X45999047Y-30799580D02*
X45951428Y-30847200D01*
X45951428Y-30847200D02*
X45856190Y-30894819D01*
X45856190Y-30894819D02*
X45570476Y-30894819D01*
X45570476Y-30894819D02*
X45475238Y-30847200D01*
X45475238Y-30847200D02*
X45427619Y-30799580D01*
X78827142Y-36924819D02*
X78493809Y-36448628D01*
X78255714Y-36924819D02*
X78255714Y-35924819D01*
X78255714Y-35924819D02*
X78636666Y-35924819D01*
X78636666Y-35924819D02*
X78731904Y-35972438D01*
X78731904Y-35972438D02*
X78779523Y-36020057D01*
X78779523Y-36020057D02*
X78827142Y-36115295D01*
X78827142Y-36115295D02*
X78827142Y-36258152D01*
X78827142Y-36258152D02*
X78779523Y-36353390D01*
X78779523Y-36353390D02*
X78731904Y-36401009D01*
X78731904Y-36401009D02*
X78636666Y-36448628D01*
X78636666Y-36448628D02*
X78255714Y-36448628D01*
X79208095Y-36020057D02*
X79255714Y-35972438D01*
X79255714Y-35972438D02*
X79350952Y-35924819D01*
X79350952Y-35924819D02*
X79589047Y-35924819D01*
X79589047Y-35924819D02*
X79684285Y-35972438D01*
X79684285Y-35972438D02*
X79731904Y-36020057D01*
X79731904Y-36020057D02*
X79779523Y-36115295D01*
X79779523Y-36115295D02*
X79779523Y-36210533D01*
X79779523Y-36210533D02*
X79731904Y-36353390D01*
X79731904Y-36353390D02*
X79160476Y-36924819D01*
X79160476Y-36924819D02*
X79779523Y-36924819D01*
X80684285Y-35924819D02*
X80208095Y-35924819D01*
X80208095Y-35924819D02*
X80160476Y-36401009D01*
X80160476Y-36401009D02*
X80208095Y-36353390D01*
X80208095Y-36353390D02*
X80303333Y-36305771D01*
X80303333Y-36305771D02*
X80541428Y-36305771D01*
X80541428Y-36305771D02*
X80636666Y-36353390D01*
X80636666Y-36353390D02*
X80684285Y-36401009D01*
X80684285Y-36401009D02*
X80731904Y-36496247D01*
X80731904Y-36496247D02*
X80731904Y-36734342D01*
X80731904Y-36734342D02*
X80684285Y-36829580D01*
X80684285Y-36829580D02*
X80636666Y-36877200D01*
X80636666Y-36877200D02*
X80541428Y-36924819D01*
X80541428Y-36924819D02*
X80303333Y-36924819D01*
X80303333Y-36924819D02*
X80208095Y-36877200D01*
X80208095Y-36877200D02*
X80160476Y-36829580D01*
D14*
X37256428Y-28431764D02*
X37256428Y-27681764D01*
X37256428Y-27681764D02*
X37434999Y-27681764D01*
X37434999Y-27681764D02*
X37542142Y-27717478D01*
X37542142Y-27717478D02*
X37613571Y-27788907D01*
X37613571Y-27788907D02*
X37649285Y-27860335D01*
X37649285Y-27860335D02*
X37684999Y-28003192D01*
X37684999Y-28003192D02*
X37684999Y-28110335D01*
X37684999Y-28110335D02*
X37649285Y-28253192D01*
X37649285Y-28253192D02*
X37613571Y-28324621D01*
X37613571Y-28324621D02*
X37542142Y-28396050D01*
X37542142Y-28396050D02*
X37434999Y-28431764D01*
X37434999Y-28431764D02*
X37256428Y-28431764D01*
X38327857Y-27931764D02*
X38327857Y-28431764D01*
X38149285Y-27646050D02*
X37970714Y-28181764D01*
X37970714Y-28181764D02*
X38434999Y-28181764D01*
X64839285Y-25381764D02*
X64839285Y-24631764D01*
X64839285Y-24631764D02*
X65017856Y-24631764D01*
X65017856Y-24631764D02*
X65124999Y-24667478D01*
X65124999Y-24667478D02*
X65196428Y-24738907D01*
X65196428Y-24738907D02*
X65232142Y-24810335D01*
X65232142Y-24810335D02*
X65267856Y-24953192D01*
X65267856Y-24953192D02*
X65267856Y-25060335D01*
X65267856Y-25060335D02*
X65232142Y-25203192D01*
X65232142Y-25203192D02*
X65196428Y-25274621D01*
X65196428Y-25274621D02*
X65124999Y-25346050D01*
X65124999Y-25346050D02*
X65017856Y-25381764D01*
X65017856Y-25381764D02*
X64839285Y-25381764D01*
X65982142Y-25381764D02*
X65553571Y-25381764D01*
X65767856Y-25381764D02*
X65767856Y-24631764D01*
X65767856Y-24631764D02*
X65696428Y-24738907D01*
X65696428Y-24738907D02*
X65624999Y-24810335D01*
X65624999Y-24810335D02*
X65553571Y-24846050D01*
X66232142Y-24631764D02*
X66696428Y-24631764D01*
X66696428Y-24631764D02*
X66446428Y-24917478D01*
X66446428Y-24917478D02*
X66553571Y-24917478D01*
X66553571Y-24917478D02*
X66625000Y-24953192D01*
X66625000Y-24953192D02*
X66660714Y-24988907D01*
X66660714Y-24988907D02*
X66696428Y-25060335D01*
X66696428Y-25060335D02*
X66696428Y-25238907D01*
X66696428Y-25238907D02*
X66660714Y-25310335D01*
X66660714Y-25310335D02*
X66625000Y-25346050D01*
X66625000Y-25346050D02*
X66553571Y-25381764D01*
X66553571Y-25381764D02*
X66339285Y-25381764D01*
X66339285Y-25381764D02*
X66267857Y-25346050D01*
X66267857Y-25346050D02*
X66232142Y-25310335D01*
D11*
X79297142Y-45724819D02*
X78963809Y-45248628D01*
X78725714Y-45724819D02*
X78725714Y-44724819D01*
X78725714Y-44724819D02*
X79106666Y-44724819D01*
X79106666Y-44724819D02*
X79201904Y-44772438D01*
X79201904Y-44772438D02*
X79249523Y-44820057D01*
X79249523Y-44820057D02*
X79297142Y-44915295D01*
X79297142Y-44915295D02*
X79297142Y-45058152D01*
X79297142Y-45058152D02*
X79249523Y-45153390D01*
X79249523Y-45153390D02*
X79201904Y-45201009D01*
X79201904Y-45201009D02*
X79106666Y-45248628D01*
X79106666Y-45248628D02*
X78725714Y-45248628D01*
X79678095Y-44820057D02*
X79725714Y-44772438D01*
X79725714Y-44772438D02*
X79820952Y-44724819D01*
X79820952Y-44724819D02*
X80059047Y-44724819D01*
X80059047Y-44724819D02*
X80154285Y-44772438D01*
X80154285Y-44772438D02*
X80201904Y-44820057D01*
X80201904Y-44820057D02*
X80249523Y-44915295D01*
X80249523Y-44915295D02*
X80249523Y-45010533D01*
X80249523Y-45010533D02*
X80201904Y-45153390D01*
X80201904Y-45153390D02*
X79630476Y-45724819D01*
X79630476Y-45724819D02*
X80249523Y-45724819D01*
X81106666Y-44724819D02*
X80916190Y-44724819D01*
X80916190Y-44724819D02*
X80820952Y-44772438D01*
X80820952Y-44772438D02*
X80773333Y-44820057D01*
X80773333Y-44820057D02*
X80678095Y-44962914D01*
X80678095Y-44962914D02*
X80630476Y-45153390D01*
X80630476Y-45153390D02*
X80630476Y-45534342D01*
X80630476Y-45534342D02*
X80678095Y-45629580D01*
X80678095Y-45629580D02*
X80725714Y-45677200D01*
X80725714Y-45677200D02*
X80820952Y-45724819D01*
X80820952Y-45724819D02*
X81011428Y-45724819D01*
X81011428Y-45724819D02*
X81106666Y-45677200D01*
X81106666Y-45677200D02*
X81154285Y-45629580D01*
X81154285Y-45629580D02*
X81201904Y-45534342D01*
X81201904Y-45534342D02*
X81201904Y-45296247D01*
X81201904Y-45296247D02*
X81154285Y-45201009D01*
X81154285Y-45201009D02*
X81106666Y-45153390D01*
X81106666Y-45153390D02*
X81011428Y-45105771D01*
X81011428Y-45105771D02*
X80820952Y-45105771D01*
X80820952Y-45105771D02*
X80725714Y-45153390D01*
X80725714Y-45153390D02*
X80678095Y-45201009D01*
X80678095Y-45201009D02*
X80630476Y-45296247D01*
D14*
X20701785Y-52923014D02*
X20701785Y-52173014D01*
X20701785Y-52173014D02*
X20880356Y-52173014D01*
X20880356Y-52173014D02*
X20987499Y-52208728D01*
X20987499Y-52208728D02*
X21058928Y-52280157D01*
X21058928Y-52280157D02*
X21094642Y-52351585D01*
X21094642Y-52351585D02*
X21130356Y-52494442D01*
X21130356Y-52494442D02*
X21130356Y-52601585D01*
X21130356Y-52601585D02*
X21094642Y-52744442D01*
X21094642Y-52744442D02*
X21058928Y-52815871D01*
X21058928Y-52815871D02*
X20987499Y-52887300D01*
X20987499Y-52887300D02*
X20880356Y-52923014D01*
X20880356Y-52923014D02*
X20701785Y-52923014D01*
X21844642Y-52923014D02*
X21416071Y-52923014D01*
X21630356Y-52923014D02*
X21630356Y-52173014D01*
X21630356Y-52173014D02*
X21558928Y-52280157D01*
X21558928Y-52280157D02*
X21487499Y-52351585D01*
X21487499Y-52351585D02*
X21416071Y-52387300D01*
X22094642Y-52173014D02*
X22594642Y-52173014D01*
X22594642Y-52173014D02*
X22273214Y-52923014D01*
D11*
X71356666Y-53834819D02*
X71356666Y-54549104D01*
X71356666Y-54549104D02*
X71309047Y-54691961D01*
X71309047Y-54691961D02*
X71213809Y-54787200D01*
X71213809Y-54787200D02*
X71070952Y-54834819D01*
X71070952Y-54834819D02*
X70975714Y-54834819D01*
X72261428Y-54168152D02*
X72261428Y-54834819D01*
X72023333Y-53787200D02*
X71785238Y-54501485D01*
X71785238Y-54501485D02*
X72404285Y-54501485D01*
D14*
X37166428Y-60121764D02*
X37166428Y-59371764D01*
X37166428Y-59371764D02*
X37344999Y-59371764D01*
X37344999Y-59371764D02*
X37452142Y-59407478D01*
X37452142Y-59407478D02*
X37523571Y-59478907D01*
X37523571Y-59478907D02*
X37559285Y-59550335D01*
X37559285Y-59550335D02*
X37594999Y-59693192D01*
X37594999Y-59693192D02*
X37594999Y-59800335D01*
X37594999Y-59800335D02*
X37559285Y-59943192D01*
X37559285Y-59943192D02*
X37523571Y-60014621D01*
X37523571Y-60014621D02*
X37452142Y-60086050D01*
X37452142Y-60086050D02*
X37344999Y-60121764D01*
X37344999Y-60121764D02*
X37166428Y-60121764D01*
X38023571Y-59693192D02*
X37952142Y-59657478D01*
X37952142Y-59657478D02*
X37916428Y-59621764D01*
X37916428Y-59621764D02*
X37880714Y-59550335D01*
X37880714Y-59550335D02*
X37880714Y-59514621D01*
X37880714Y-59514621D02*
X37916428Y-59443192D01*
X37916428Y-59443192D02*
X37952142Y-59407478D01*
X37952142Y-59407478D02*
X38023571Y-59371764D01*
X38023571Y-59371764D02*
X38166428Y-59371764D01*
X38166428Y-59371764D02*
X38237857Y-59407478D01*
X38237857Y-59407478D02*
X38273571Y-59443192D01*
X38273571Y-59443192D02*
X38309285Y-59514621D01*
X38309285Y-59514621D02*
X38309285Y-59550335D01*
X38309285Y-59550335D02*
X38273571Y-59621764D01*
X38273571Y-59621764D02*
X38237857Y-59657478D01*
X38237857Y-59657478D02*
X38166428Y-59693192D01*
X38166428Y-59693192D02*
X38023571Y-59693192D01*
X38023571Y-59693192D02*
X37952142Y-59728907D01*
X37952142Y-59728907D02*
X37916428Y-59764621D01*
X37916428Y-59764621D02*
X37880714Y-59836050D01*
X37880714Y-59836050D02*
X37880714Y-59978907D01*
X37880714Y-59978907D02*
X37916428Y-60050335D01*
X37916428Y-60050335D02*
X37952142Y-60086050D01*
X37952142Y-60086050D02*
X38023571Y-60121764D01*
X38023571Y-60121764D02*
X38166428Y-60121764D01*
X38166428Y-60121764D02*
X38237857Y-60086050D01*
X38237857Y-60086050D02*
X38273571Y-60050335D01*
X38273571Y-60050335D02*
X38309285Y-59978907D01*
X38309285Y-59978907D02*
X38309285Y-59836050D01*
X38309285Y-59836050D02*
X38273571Y-59764621D01*
X38273571Y-59764621D02*
X38237857Y-59728907D01*
X38237857Y-59728907D02*
X38166428Y-59693192D01*
D11*
X47744761Y-43020057D02*
X47649523Y-42972438D01*
X47649523Y-42972438D02*
X47554285Y-42877200D01*
X47554285Y-42877200D02*
X47411428Y-42734342D01*
X47411428Y-42734342D02*
X47316190Y-42686723D01*
X47316190Y-42686723D02*
X47220952Y-42686723D01*
X47268571Y-42924819D02*
X47173333Y-42877200D01*
X47173333Y-42877200D02*
X47078095Y-42781961D01*
X47078095Y-42781961D02*
X47030476Y-42591485D01*
X47030476Y-42591485D02*
X47030476Y-42258152D01*
X47030476Y-42258152D02*
X47078095Y-42067676D01*
X47078095Y-42067676D02*
X47173333Y-41972438D01*
X47173333Y-41972438D02*
X47268571Y-41924819D01*
X47268571Y-41924819D02*
X47459047Y-41924819D01*
X47459047Y-41924819D02*
X47554285Y-41972438D01*
X47554285Y-41972438D02*
X47649523Y-42067676D01*
X47649523Y-42067676D02*
X47697142Y-42258152D01*
X47697142Y-42258152D02*
X47697142Y-42591485D01*
X47697142Y-42591485D02*
X47649523Y-42781961D01*
X47649523Y-42781961D02*
X47554285Y-42877200D01*
X47554285Y-42877200D02*
X47459047Y-42924819D01*
X47459047Y-42924819D02*
X47268571Y-42924819D01*
X48173333Y-42924819D02*
X48363809Y-42924819D01*
X48363809Y-42924819D02*
X48459047Y-42877200D01*
X48459047Y-42877200D02*
X48506666Y-42829580D01*
X48506666Y-42829580D02*
X48601904Y-42686723D01*
X48601904Y-42686723D02*
X48649523Y-42496247D01*
X48649523Y-42496247D02*
X48649523Y-42115295D01*
X48649523Y-42115295D02*
X48601904Y-42020057D01*
X48601904Y-42020057D02*
X48554285Y-41972438D01*
X48554285Y-41972438D02*
X48459047Y-41924819D01*
X48459047Y-41924819D02*
X48268571Y-41924819D01*
X48268571Y-41924819D02*
X48173333Y-41972438D01*
X48173333Y-41972438D02*
X48125714Y-42020057D01*
X48125714Y-42020057D02*
X48078095Y-42115295D01*
X48078095Y-42115295D02*
X48078095Y-42353390D01*
X48078095Y-42353390D02*
X48125714Y-42448628D01*
X48125714Y-42448628D02*
X48173333Y-42496247D01*
X48173333Y-42496247D02*
X48268571Y-42543866D01*
X48268571Y-42543866D02*
X48459047Y-42543866D01*
X48459047Y-42543866D02*
X48554285Y-42496247D01*
X48554285Y-42496247D02*
X48601904Y-42448628D01*
X48601904Y-42448628D02*
X48649523Y-42353390D01*
X39106666Y-16094819D02*
X39106666Y-16809104D01*
X39106666Y-16809104D02*
X39059047Y-16951961D01*
X39059047Y-16951961D02*
X38963809Y-17047200D01*
X38963809Y-17047200D02*
X38820952Y-17094819D01*
X38820952Y-17094819D02*
X38725714Y-17094819D01*
X39725714Y-16523390D02*
X39630476Y-16475771D01*
X39630476Y-16475771D02*
X39582857Y-16428152D01*
X39582857Y-16428152D02*
X39535238Y-16332914D01*
X39535238Y-16332914D02*
X39535238Y-16285295D01*
X39535238Y-16285295D02*
X39582857Y-16190057D01*
X39582857Y-16190057D02*
X39630476Y-16142438D01*
X39630476Y-16142438D02*
X39725714Y-16094819D01*
X39725714Y-16094819D02*
X39916190Y-16094819D01*
X39916190Y-16094819D02*
X40011428Y-16142438D01*
X40011428Y-16142438D02*
X40059047Y-16190057D01*
X40059047Y-16190057D02*
X40106666Y-16285295D01*
X40106666Y-16285295D02*
X40106666Y-16332914D01*
X40106666Y-16332914D02*
X40059047Y-16428152D01*
X40059047Y-16428152D02*
X40011428Y-16475771D01*
X40011428Y-16475771D02*
X39916190Y-16523390D01*
X39916190Y-16523390D02*
X39725714Y-16523390D01*
X39725714Y-16523390D02*
X39630476Y-16571009D01*
X39630476Y-16571009D02*
X39582857Y-16618628D01*
X39582857Y-16618628D02*
X39535238Y-16713866D01*
X39535238Y-16713866D02*
X39535238Y-16904342D01*
X39535238Y-16904342D02*
X39582857Y-16999580D01*
X39582857Y-16999580D02*
X39630476Y-17047200D01*
X39630476Y-17047200D02*
X39725714Y-17094819D01*
X39725714Y-17094819D02*
X39916190Y-17094819D01*
X39916190Y-17094819D02*
X40011428Y-17047200D01*
X40011428Y-17047200D02*
X40059047Y-16999580D01*
X40059047Y-16999580D02*
X40106666Y-16904342D01*
X40106666Y-16904342D02*
X40106666Y-16713866D01*
X40106666Y-16713866D02*
X40059047Y-16618628D01*
X40059047Y-16618628D02*
X40011428Y-16571009D01*
X40011428Y-16571009D02*
X39916190Y-16523390D01*
X73526666Y-64484819D02*
X73526666Y-65199104D01*
X73526666Y-65199104D02*
X73479047Y-65341961D01*
X73479047Y-65341961D02*
X73383809Y-65437200D01*
X73383809Y-65437200D02*
X73240952Y-65484819D01*
X73240952Y-65484819D02*
X73145714Y-65484819D01*
X73907619Y-64484819D02*
X74574285Y-64484819D01*
X74574285Y-64484819D02*
X74145714Y-65484819D01*
X55836666Y-64464819D02*
X55836666Y-65179104D01*
X55836666Y-65179104D02*
X55789047Y-65321961D01*
X55789047Y-65321961D02*
X55693809Y-65417200D01*
X55693809Y-65417200D02*
X55550952Y-65464819D01*
X55550952Y-65464819D02*
X55455714Y-65464819D01*
X56741428Y-64464819D02*
X56550952Y-64464819D01*
X56550952Y-64464819D02*
X56455714Y-64512438D01*
X56455714Y-64512438D02*
X56408095Y-64560057D01*
X56408095Y-64560057D02*
X56312857Y-64702914D01*
X56312857Y-64702914D02*
X56265238Y-64893390D01*
X56265238Y-64893390D02*
X56265238Y-65274342D01*
X56265238Y-65274342D02*
X56312857Y-65369580D01*
X56312857Y-65369580D02*
X56360476Y-65417200D01*
X56360476Y-65417200D02*
X56455714Y-65464819D01*
X56455714Y-65464819D02*
X56646190Y-65464819D01*
X56646190Y-65464819D02*
X56741428Y-65417200D01*
X56741428Y-65417200D02*
X56789047Y-65369580D01*
X56789047Y-65369580D02*
X56836666Y-65274342D01*
X56836666Y-65274342D02*
X56836666Y-65036247D01*
X56836666Y-65036247D02*
X56789047Y-64941009D01*
X56789047Y-64941009D02*
X56741428Y-64893390D01*
X56741428Y-64893390D02*
X56646190Y-64845771D01*
X56646190Y-64845771D02*
X56455714Y-64845771D01*
X56455714Y-64845771D02*
X56360476Y-64893390D01*
X56360476Y-64893390D02*
X56312857Y-64941009D01*
X56312857Y-64941009D02*
X56265238Y-65036247D01*
X66096666Y-16134819D02*
X66096666Y-16849104D01*
X66096666Y-16849104D02*
X66049047Y-16991961D01*
X66049047Y-16991961D02*
X65953809Y-17087200D01*
X65953809Y-17087200D02*
X65810952Y-17134819D01*
X65810952Y-17134819D02*
X65715714Y-17134819D01*
X66620476Y-17134819D02*
X66810952Y-17134819D01*
X66810952Y-17134819D02*
X66906190Y-17087200D01*
X66906190Y-17087200D02*
X66953809Y-17039580D01*
X66953809Y-17039580D02*
X67049047Y-16896723D01*
X67049047Y-16896723D02*
X67096666Y-16706247D01*
X67096666Y-16706247D02*
X67096666Y-16325295D01*
X67096666Y-16325295D02*
X67049047Y-16230057D01*
X67049047Y-16230057D02*
X67001428Y-16182438D01*
X67001428Y-16182438D02*
X66906190Y-16134819D01*
X66906190Y-16134819D02*
X66715714Y-16134819D01*
X66715714Y-16134819D02*
X66620476Y-16182438D01*
X66620476Y-16182438D02*
X66572857Y-16230057D01*
X66572857Y-16230057D02*
X66525238Y-16325295D01*
X66525238Y-16325295D02*
X66525238Y-16563390D01*
X66525238Y-16563390D02*
X66572857Y-16658628D01*
X66572857Y-16658628D02*
X66620476Y-16706247D01*
X66620476Y-16706247D02*
X66715714Y-16753866D01*
X66715714Y-16753866D02*
X66906190Y-16753866D01*
X66906190Y-16753866D02*
X67001428Y-16706247D01*
X67001428Y-16706247D02*
X67049047Y-16658628D01*
X67049047Y-16658628D02*
X67096666Y-16563390D01*
D10*
%TO.C,D7*%
X36815000Y-57515000D02*
X36815000Y-56045000D01*
X36815000Y-56045000D02*
X34530000Y-56045000D01*
X34530000Y-57515000D02*
X36815000Y-57515000D01*
%TO.C,D2*%
X36815000Y-31735000D02*
X36815000Y-30265000D01*
X36815000Y-30265000D02*
X34530000Y-30265000D01*
X34530000Y-31735000D02*
X36815000Y-31735000D01*
%TO.C,R19*%
X42254564Y-38295000D02*
X41800436Y-38295000D01*
X42254564Y-36825000D02*
X41800436Y-36825000D01*
%TO.C,D3*%
X36815000Y-25735000D02*
X36815000Y-24265000D01*
X36815000Y-24265000D02*
X34530000Y-24265000D01*
X34530000Y-25735000D02*
X36815000Y-25735000D01*
%TO.C,D1*%
X36815000Y-34735000D02*
X36815000Y-33265000D01*
X36815000Y-33265000D02*
X34530000Y-33265000D01*
X34530000Y-34735000D02*
X36815000Y-34735000D01*
%TO.C,D6*%
X36815000Y-54735000D02*
X36815000Y-53265000D01*
X36815000Y-53265000D02*
X34530000Y-53265000D01*
X34530000Y-54735000D02*
X36815000Y-54735000D01*
%TO.C,D10*%
X64535000Y-54735000D02*
X64535000Y-53265000D01*
X64535000Y-53265000D02*
X62250000Y-53265000D01*
X62250000Y-54735000D02*
X64535000Y-54735000D01*
%TO.C,R21*%
X44087064Y-48295000D02*
X43632936Y-48295000D01*
X44087064Y-46825000D02*
X43632936Y-46825000D01*
%TO.C,D9*%
X64535000Y-51735000D02*
X64535000Y-50265000D01*
X64535000Y-50265000D02*
X62250000Y-50265000D01*
X62250000Y-51735000D02*
X64535000Y-51735000D01*
%TO.C,C1*%
X35555000Y-44470000D02*
X35555000Y-39950000D01*
X35555000Y-39950000D02*
X27320000Y-39950000D01*
X27320000Y-44470000D02*
X35555000Y-44470000D01*
%TO.C,D14*%
X64535000Y-28735000D02*
X64535000Y-27265000D01*
X64535000Y-27265000D02*
X62250000Y-27265000D01*
X62250000Y-28735000D02*
X64535000Y-28735000D01*
%TO.C,D16*%
X64535000Y-34735000D02*
X64535000Y-33265000D01*
X64535000Y-33265000D02*
X62250000Y-33265000D01*
X62250000Y-34735000D02*
X64535000Y-34735000D01*
%TO.C,Q10*%
X76920000Y-42440000D02*
X76920000Y-40640000D01*
X76920000Y-42440000D02*
X76920000Y-43240000D01*
X73800000Y-42440000D02*
X73800000Y-41640000D01*
X73800000Y-42440000D02*
X73800000Y-43240000D01*
%TO.C,J2*%
X38370000Y-58505000D02*
X38370000Y-57065000D01*
X37800000Y-57065000D02*
X38370000Y-57065000D01*
X37800000Y-57065000D02*
X37800000Y-51865000D01*
X39890000Y-57065000D02*
X40910000Y-57065000D01*
X42430000Y-57065000D02*
X43450000Y-57065000D01*
X44970000Y-57065000D02*
X45990000Y-57065000D01*
X47510000Y-57065000D02*
X48530000Y-57065000D01*
X50050000Y-57065000D02*
X51070000Y-57065000D01*
X52590000Y-57065000D02*
X53160000Y-57065000D01*
X53160000Y-57065000D02*
X53160000Y-51865000D01*
X37800000Y-51865000D02*
X38370000Y-51865000D01*
X39890000Y-51865000D02*
X40910000Y-51865000D01*
X42430000Y-51865000D02*
X43450000Y-51865000D01*
X44970000Y-51865000D02*
X45990000Y-51865000D01*
X47510000Y-51865000D02*
X48530000Y-51865000D01*
X50050000Y-51865000D02*
X51070000Y-51865000D01*
X52590000Y-51865000D02*
X53160000Y-51865000D01*
%TO.C,D15*%
X64535000Y-31735000D02*
X64535000Y-30265000D01*
X64535000Y-30265000D02*
X62250000Y-30265000D01*
X62250000Y-31735000D02*
X64535000Y-31735000D01*
%TO.C,C5*%
X58645000Y-27621252D02*
X58645000Y-27098748D01*
X60115000Y-27621252D02*
X60115000Y-27098748D01*
%TO.C,C7*%
X38781252Y-45605000D02*
X38258748Y-45605000D01*
X38781252Y-44135000D02*
X38258748Y-44135000D01*
%TO.C,D5*%
X36815000Y-51735000D02*
X36815000Y-50265000D01*
X36815000Y-50265000D02*
X34530000Y-50265000D01*
X34530000Y-51735000D02*
X36815000Y-51735000D01*
%TO.C,D12*%
X64535000Y-60735000D02*
X64535000Y-59265000D01*
X64535000Y-59265000D02*
X62250000Y-59265000D01*
X62250000Y-60735000D02*
X64535000Y-60735000D01*
%TO.C,J5*%
X65870000Y-34455000D02*
X65870000Y-33015000D01*
X65300000Y-33015000D02*
X65870000Y-33015000D01*
X65300000Y-33015000D02*
X65300000Y-27815000D01*
X67390000Y-33015000D02*
X68410000Y-33015000D01*
X69930000Y-33015000D02*
X70950000Y-33015000D01*
X72470000Y-33015000D02*
X73490000Y-33015000D01*
X75010000Y-33015000D02*
X76030000Y-33015000D01*
X77550000Y-33015000D02*
X78570000Y-33015000D01*
X80090000Y-33015000D02*
X80660000Y-33015000D01*
X80660000Y-33015000D02*
X80660000Y-27815000D01*
X65300000Y-27815000D02*
X65870000Y-27815000D01*
X67390000Y-27815000D02*
X68410000Y-27815000D01*
X69930000Y-27815000D02*
X70950000Y-27815000D01*
X72470000Y-27815000D02*
X73490000Y-27815000D01*
X75010000Y-27815000D02*
X76030000Y-27815000D01*
X77550000Y-27815000D02*
X78570000Y-27815000D01*
X80090000Y-27815000D02*
X80660000Y-27815000D01*
%TO.C,D11*%
X64535000Y-57735000D02*
X64535000Y-56265000D01*
X64535000Y-56265000D02*
X62250000Y-56265000D01*
X62250000Y-57735000D02*
X64535000Y-57735000D01*
%TO.C,D18*%
X23477500Y-50626250D02*
X23477500Y-49156250D01*
X23477500Y-49156250D02*
X21192500Y-49156250D01*
X21192500Y-50626250D02*
X23477500Y-50626250D01*
%TO.C,U1*%
X51535000Y-46300000D02*
X51800000Y-46300000D01*
X51800000Y-46300000D02*
X51800000Y-48115000D01*
X67155000Y-46300000D02*
X66890000Y-46300000D01*
X51535000Y-42440000D02*
X51535000Y-46300000D01*
X51535000Y-42440000D02*
X51535000Y-38580000D01*
X67155000Y-42440000D02*
X67155000Y-46300000D01*
X67155000Y-42440000D02*
X67155000Y-38580000D01*
X51535000Y-38580000D02*
X51800000Y-38580000D01*
X67155000Y-38580000D02*
X66890000Y-38580000D01*
%TO.C,C3*%
X80935000Y-41858748D02*
X80935000Y-42381252D01*
X79465000Y-41858748D02*
X79465000Y-42381252D01*
%TO.C,J1*%
X28680000Y-27450000D02*
X28680000Y-30260000D01*
X22620000Y-27450000D02*
X28680000Y-27450000D01*
X15460000Y-27450000D02*
X18520000Y-27450000D01*
X28870000Y-31560000D02*
X28870000Y-33560000D01*
X28680000Y-34860000D02*
X28680000Y-37670000D01*
X28680000Y-37670000D02*
X22620000Y-37670000D01*
X18520000Y-37670000D02*
X15460000Y-37670000D01*
X15460000Y-37670000D02*
X15460000Y-27450000D01*
%TO.C,J3*%
X38370000Y-34505000D02*
X38370000Y-33065000D01*
X37800000Y-33065000D02*
X38370000Y-33065000D01*
X37800000Y-33065000D02*
X37800000Y-27865000D01*
X39890000Y-33065000D02*
X40910000Y-33065000D01*
X42430000Y-33065000D02*
X43450000Y-33065000D01*
X44970000Y-33065000D02*
X45990000Y-33065000D01*
X47510000Y-33065000D02*
X48530000Y-33065000D01*
X50050000Y-33065000D02*
X51070000Y-33065000D01*
X52590000Y-33065000D02*
X53160000Y-33065000D01*
X53160000Y-33065000D02*
X53160000Y-27865000D01*
X37800000Y-27865000D02*
X38370000Y-27865000D01*
X39890000Y-27865000D02*
X40910000Y-27865000D01*
X42430000Y-27865000D02*
X43450000Y-27865000D01*
X44970000Y-27865000D02*
X45990000Y-27865000D01*
X47510000Y-27865000D02*
X48530000Y-27865000D01*
X50050000Y-27865000D02*
X51070000Y-27865000D01*
X52590000Y-27865000D02*
X53160000Y-27865000D01*
%TO.C,R25*%
X79242936Y-37385000D02*
X79697064Y-37385000D01*
X79242936Y-38855000D02*
X79697064Y-38855000D01*
%TO.C,D4*%
X36815000Y-28735000D02*
X36815000Y-27265000D01*
X36815000Y-27265000D02*
X34530000Y-27265000D01*
X34530000Y-28735000D02*
X36815000Y-28735000D01*
%TO.C,D13*%
X64535000Y-25735000D02*
X64535000Y-24265000D01*
X64535000Y-24265000D02*
X62250000Y-24265000D01*
X62250000Y-25735000D02*
X64535000Y-25735000D01*
%TO.C,R26*%
X79712936Y-46185000D02*
X80167064Y-46185000D01*
X79712936Y-47655000D02*
X80167064Y-47655000D01*
%TO.C,D17*%
X23477500Y-54566250D02*
X23477500Y-53096250D01*
X23477500Y-53096250D02*
X21192500Y-53096250D01*
X21192500Y-54566250D02*
X23477500Y-54566250D01*
%TO.C,J4*%
X65870000Y-58455000D02*
X65870000Y-57015000D01*
X65300000Y-57015000D02*
X65870000Y-57015000D01*
X65300000Y-57015000D02*
X65300000Y-51815000D01*
X67390000Y-57015000D02*
X68410000Y-57015000D01*
X69930000Y-57015000D02*
X70950000Y-57015000D01*
X72470000Y-57015000D02*
X73490000Y-57015000D01*
X75010000Y-57015000D02*
X76030000Y-57015000D01*
X77550000Y-57015000D02*
X78570000Y-57015000D01*
X80090000Y-57015000D02*
X80660000Y-57015000D01*
X80660000Y-57015000D02*
X80660000Y-51815000D01*
X65300000Y-51815000D02*
X65870000Y-51815000D01*
X67390000Y-51815000D02*
X68410000Y-51815000D01*
X69930000Y-51815000D02*
X70950000Y-51815000D01*
X72470000Y-51815000D02*
X73490000Y-51815000D01*
X75010000Y-51815000D02*
X76030000Y-51815000D01*
X77550000Y-51815000D02*
X78570000Y-51815000D01*
X80090000Y-51815000D02*
X80660000Y-51815000D01*
%TO.C,D8*%
X36815000Y-60515000D02*
X36815000Y-59045000D01*
X36815000Y-59045000D02*
X34530000Y-59045000D01*
X34530000Y-60515000D02*
X36815000Y-60515000D01*
%TO.C,Q9*%
X46330000Y-42440000D02*
X46330000Y-44240000D01*
X46330000Y-42440000D02*
X46330000Y-41640000D01*
X49450000Y-42440000D02*
X49450000Y-43240000D01*
X49450000Y-42440000D02*
X49450000Y-41640000D01*
%TD*%
M02*
