%TF.GenerationSoftware,KiCad,Pcbnew,7.0.7*%
%TF.CreationDate,2024-04-02T12:31:12-04:00*%
%TF.ProjectId,module_pcb_thermal_mockup_v3.5,6d6f6475-6c65-45f7-9063-625f74686572,rev?*%
%TF.SameCoordinates,Original*%
%TF.FileFunction,Legend,Bot*%
%TF.FilePolarity,Positive*%
%FSLAX46Y46*%
G04 Gerber Fmt 4.6, Leading zero omitted, Abs format (unit mm)*
G04 Created by KiCad (PCBNEW 7.0.7) date 2024-04-02 12:31:12*
%MOMM*%
%LPD*%
G01*
G04 APERTURE LIST*
%ADD10C,0.120000*%
%ADD11C,0.150000*%
%ADD12C,0.112500*%
G04 APERTURE END LIST*
D10*
X4105000Y-16630000D02*
X4105000Y-22630000D01*
X34010000Y-37455000D02*
X41380000Y-37455000D01*
X41380000Y-45445000D01*
X34010000Y-45445000D01*
X34010000Y-37455000D01*
X31200000Y-12150000D02*
X42850000Y-12150000D01*
X42850000Y-26150000D01*
X31200000Y-26150000D01*
X31200000Y-12150000D01*
X37650000Y-37465000D02*
X37650000Y-45455000D01*
X1130000Y-19630000D02*
X7080000Y-19630000D01*
X41733553Y-37455000D02*
G75*
G03*
X41733553Y-37455000I-353553J0D01*
G01*
X1130000Y-16630000D02*
X7080000Y-16630000D01*
X7080000Y-22630000D01*
X1130000Y-22630000D01*
X1130000Y-16630000D01*
D11*
X2344285Y-21834819D02*
X2915713Y-21834819D01*
X2629999Y-21834819D02*
X2629999Y-20834819D01*
X2629999Y-20834819D02*
X2725237Y-20977676D01*
X2725237Y-20977676D02*
X2820475Y-21072914D01*
X2820475Y-21072914D02*
X2915713Y-21120533D01*
D12*
X40698844Y-38700935D02*
X40734558Y-38736650D01*
X40734558Y-38736650D02*
X40841701Y-38772364D01*
X40841701Y-38772364D02*
X40913129Y-38772364D01*
X40913129Y-38772364D02*
X41020272Y-38736650D01*
X41020272Y-38736650D02*
X41091701Y-38665221D01*
X41091701Y-38665221D02*
X41127415Y-38593792D01*
X41127415Y-38593792D02*
X41163129Y-38450935D01*
X41163129Y-38450935D02*
X41163129Y-38343792D01*
X41163129Y-38343792D02*
X41127415Y-38200935D01*
X41127415Y-38200935D02*
X41091701Y-38129507D01*
X41091701Y-38129507D02*
X41020272Y-38058078D01*
X41020272Y-38058078D02*
X40913129Y-38022364D01*
X40913129Y-38022364D02*
X40841701Y-38022364D01*
X40841701Y-38022364D02*
X40734558Y-38058078D01*
X40734558Y-38058078D02*
X40698844Y-38093792D01*
X40413129Y-38736650D02*
X40305987Y-38772364D01*
X40305987Y-38772364D02*
X40127415Y-38772364D01*
X40127415Y-38772364D02*
X40055987Y-38736650D01*
X40055987Y-38736650D02*
X40020272Y-38700935D01*
X40020272Y-38700935D02*
X39984558Y-38629507D01*
X39984558Y-38629507D02*
X39984558Y-38558078D01*
X39984558Y-38558078D02*
X40020272Y-38486650D01*
X40020272Y-38486650D02*
X40055987Y-38450935D01*
X40055987Y-38450935D02*
X40127415Y-38415221D01*
X40127415Y-38415221D02*
X40270272Y-38379507D01*
X40270272Y-38379507D02*
X40341701Y-38343792D01*
X40341701Y-38343792D02*
X40377415Y-38308078D01*
X40377415Y-38308078D02*
X40413129Y-38236650D01*
X40413129Y-38236650D02*
X40413129Y-38165221D01*
X40413129Y-38165221D02*
X40377415Y-38093792D01*
X40377415Y-38093792D02*
X40341701Y-38058078D01*
X40341701Y-38058078D02*
X40270272Y-38022364D01*
X40270272Y-38022364D02*
X40091701Y-38022364D01*
X40091701Y-38022364D02*
X39984558Y-38058078D01*
X41230987Y-37814150D02*
X39916701Y-37814150D01*
X40698844Y-39979864D02*
X40948844Y-39622721D01*
X41127415Y-39979864D02*
X41127415Y-39229864D01*
X41127415Y-39229864D02*
X40841701Y-39229864D01*
X40841701Y-39229864D02*
X40770272Y-39265578D01*
X40770272Y-39265578D02*
X40734558Y-39301292D01*
X40734558Y-39301292D02*
X40698844Y-39372721D01*
X40698844Y-39372721D02*
X40698844Y-39479864D01*
X40698844Y-39479864D02*
X40734558Y-39551292D01*
X40734558Y-39551292D02*
X40770272Y-39587007D01*
X40770272Y-39587007D02*
X40841701Y-39622721D01*
X40841701Y-39622721D02*
X41127415Y-39622721D01*
X40377415Y-39979864D02*
X40377415Y-39229864D01*
X40377415Y-39229864D02*
X40198844Y-39229864D01*
X40198844Y-39229864D02*
X40091701Y-39265578D01*
X40091701Y-39265578D02*
X40020272Y-39337007D01*
X40020272Y-39337007D02*
X39984558Y-39408435D01*
X39984558Y-39408435D02*
X39948844Y-39551292D01*
X39948844Y-39551292D02*
X39948844Y-39658435D01*
X39948844Y-39658435D02*
X39984558Y-39801292D01*
X39984558Y-39801292D02*
X40020272Y-39872721D01*
X40020272Y-39872721D02*
X40091701Y-39944150D01*
X40091701Y-39944150D02*
X40198844Y-39979864D01*
X40198844Y-39979864D02*
X40377415Y-39979864D01*
X39484558Y-39622721D02*
X39484558Y-39979864D01*
X39734558Y-39229864D02*
X39484558Y-39622721D01*
X39484558Y-39622721D02*
X39234558Y-39229864D01*
X41230987Y-39021650D02*
X39238130Y-39021650D01*
X41127415Y-41187364D02*
X41127415Y-40437364D01*
X41127415Y-40437364D02*
X40948844Y-40437364D01*
X40948844Y-40437364D02*
X40841701Y-40473078D01*
X40841701Y-40473078D02*
X40770272Y-40544507D01*
X40770272Y-40544507D02*
X40734558Y-40615935D01*
X40734558Y-40615935D02*
X40698844Y-40758792D01*
X40698844Y-40758792D02*
X40698844Y-40865935D01*
X40698844Y-40865935D02*
X40734558Y-41008792D01*
X40734558Y-41008792D02*
X40770272Y-41080221D01*
X40770272Y-41080221D02*
X40841701Y-41151650D01*
X40841701Y-41151650D02*
X40948844Y-41187364D01*
X40948844Y-41187364D02*
X41127415Y-41187364D01*
X40234558Y-40437364D02*
X40091701Y-40437364D01*
X40091701Y-40437364D02*
X40020272Y-40473078D01*
X40020272Y-40473078D02*
X39948844Y-40544507D01*
X39948844Y-40544507D02*
X39913129Y-40687364D01*
X39913129Y-40687364D02*
X39913129Y-40937364D01*
X39913129Y-40937364D02*
X39948844Y-41080221D01*
X39948844Y-41080221D02*
X40020272Y-41151650D01*
X40020272Y-41151650D02*
X40091701Y-41187364D01*
X40091701Y-41187364D02*
X40234558Y-41187364D01*
X40234558Y-41187364D02*
X40305987Y-41151650D01*
X40305987Y-41151650D02*
X40377415Y-41080221D01*
X40377415Y-41080221D02*
X40413129Y-40937364D01*
X40413129Y-40937364D02*
X40413129Y-40687364D01*
X40413129Y-40687364D02*
X40377415Y-40544507D01*
X40377415Y-40544507D02*
X40305987Y-40473078D01*
X40305987Y-40473078D02*
X40234558Y-40437364D01*
X39591701Y-40437364D02*
X39591701Y-41044507D01*
X39591701Y-41044507D02*
X39555987Y-41115935D01*
X39555987Y-41115935D02*
X39520273Y-41151650D01*
X39520273Y-41151650D02*
X39448844Y-41187364D01*
X39448844Y-41187364D02*
X39305987Y-41187364D01*
X39305987Y-41187364D02*
X39234558Y-41151650D01*
X39234558Y-41151650D02*
X39198844Y-41115935D01*
X39198844Y-41115935D02*
X39163130Y-41044507D01*
X39163130Y-41044507D02*
X39163130Y-40437364D01*
X38913130Y-40437364D02*
X38484559Y-40437364D01*
X38698844Y-41187364D02*
X38698844Y-40437364D01*
X40698844Y-42323435D02*
X40734558Y-42359150D01*
X40734558Y-42359150D02*
X40841701Y-42394864D01*
X40841701Y-42394864D02*
X40913129Y-42394864D01*
X40913129Y-42394864D02*
X41020272Y-42359150D01*
X41020272Y-42359150D02*
X41091701Y-42287721D01*
X41091701Y-42287721D02*
X41127415Y-42216292D01*
X41127415Y-42216292D02*
X41163129Y-42073435D01*
X41163129Y-42073435D02*
X41163129Y-41966292D01*
X41163129Y-41966292D02*
X41127415Y-41823435D01*
X41127415Y-41823435D02*
X41091701Y-41752007D01*
X41091701Y-41752007D02*
X41020272Y-41680578D01*
X41020272Y-41680578D02*
X40913129Y-41644864D01*
X40913129Y-41644864D02*
X40841701Y-41644864D01*
X40841701Y-41644864D02*
X40734558Y-41680578D01*
X40734558Y-41680578D02*
X40698844Y-41716292D01*
X40413129Y-42359150D02*
X40305987Y-42394864D01*
X40305987Y-42394864D02*
X40127415Y-42394864D01*
X40127415Y-42394864D02*
X40055987Y-42359150D01*
X40055987Y-42359150D02*
X40020272Y-42323435D01*
X40020272Y-42323435D02*
X39984558Y-42252007D01*
X39984558Y-42252007D02*
X39984558Y-42180578D01*
X39984558Y-42180578D02*
X40020272Y-42109150D01*
X40020272Y-42109150D02*
X40055987Y-42073435D01*
X40055987Y-42073435D02*
X40127415Y-42037721D01*
X40127415Y-42037721D02*
X40270272Y-42002007D01*
X40270272Y-42002007D02*
X40341701Y-41966292D01*
X40341701Y-41966292D02*
X40377415Y-41930578D01*
X40377415Y-41930578D02*
X40413129Y-41859150D01*
X40413129Y-41859150D02*
X40413129Y-41787721D01*
X40413129Y-41787721D02*
X40377415Y-41716292D01*
X40377415Y-41716292D02*
X40341701Y-41680578D01*
X40341701Y-41680578D02*
X40270272Y-41644864D01*
X40270272Y-41644864D02*
X40091701Y-41644864D01*
X40091701Y-41644864D02*
X39984558Y-41680578D01*
X39841701Y-42466292D02*
X39270272Y-42466292D01*
X39198843Y-41644864D02*
X38770272Y-41644864D01*
X38984557Y-42394864D02*
X38984557Y-41644864D01*
X38127414Y-42394864D02*
X38555985Y-42394864D01*
X38341700Y-42394864D02*
X38341700Y-41644864D01*
X38341700Y-41644864D02*
X38413128Y-41752007D01*
X38413128Y-41752007D02*
X38484557Y-41823435D01*
X38484557Y-41823435D02*
X38555985Y-41859150D01*
X41230987Y-41436650D02*
X38059557Y-41436650D01*
X41234558Y-42852364D02*
X40984558Y-43602364D01*
X40984558Y-43602364D02*
X40734558Y-42852364D01*
X40055987Y-43530935D02*
X40091701Y-43566650D01*
X40091701Y-43566650D02*
X40198844Y-43602364D01*
X40198844Y-43602364D02*
X40270272Y-43602364D01*
X40270272Y-43602364D02*
X40377415Y-43566650D01*
X40377415Y-43566650D02*
X40448844Y-43495221D01*
X40448844Y-43495221D02*
X40484558Y-43423792D01*
X40484558Y-43423792D02*
X40520272Y-43280935D01*
X40520272Y-43280935D02*
X40520272Y-43173792D01*
X40520272Y-43173792D02*
X40484558Y-43030935D01*
X40484558Y-43030935D02*
X40448844Y-42959507D01*
X40448844Y-42959507D02*
X40377415Y-42888078D01*
X40377415Y-42888078D02*
X40270272Y-42852364D01*
X40270272Y-42852364D02*
X40198844Y-42852364D01*
X40198844Y-42852364D02*
X40091701Y-42888078D01*
X40091701Y-42888078D02*
X40055987Y-42923792D01*
X39305987Y-43530935D02*
X39341701Y-43566650D01*
X39341701Y-43566650D02*
X39448844Y-43602364D01*
X39448844Y-43602364D02*
X39520272Y-43602364D01*
X39520272Y-43602364D02*
X39627415Y-43566650D01*
X39627415Y-43566650D02*
X39698844Y-43495221D01*
X39698844Y-43495221D02*
X39734558Y-43423792D01*
X39734558Y-43423792D02*
X39770272Y-43280935D01*
X39770272Y-43280935D02*
X39770272Y-43173792D01*
X39770272Y-43173792D02*
X39734558Y-43030935D01*
X39734558Y-43030935D02*
X39698844Y-42959507D01*
X39698844Y-42959507D02*
X39627415Y-42888078D01*
X39627415Y-42888078D02*
X39520272Y-42852364D01*
X39520272Y-42852364D02*
X39448844Y-42852364D01*
X39448844Y-42852364D02*
X39341701Y-42888078D01*
X39341701Y-42888078D02*
X39305987Y-42923792D01*
X40698844Y-44738435D02*
X40734558Y-44774150D01*
X40734558Y-44774150D02*
X40841701Y-44809864D01*
X40841701Y-44809864D02*
X40913129Y-44809864D01*
X40913129Y-44809864D02*
X41020272Y-44774150D01*
X41020272Y-44774150D02*
X41091701Y-44702721D01*
X41091701Y-44702721D02*
X41127415Y-44631292D01*
X41127415Y-44631292D02*
X41163129Y-44488435D01*
X41163129Y-44488435D02*
X41163129Y-44381292D01*
X41163129Y-44381292D02*
X41127415Y-44238435D01*
X41127415Y-44238435D02*
X41091701Y-44167007D01*
X41091701Y-44167007D02*
X41020272Y-44095578D01*
X41020272Y-44095578D02*
X40913129Y-44059864D01*
X40913129Y-44059864D02*
X40841701Y-44059864D01*
X40841701Y-44059864D02*
X40734558Y-44095578D01*
X40734558Y-44095578D02*
X40698844Y-44131292D01*
X40413129Y-44774150D02*
X40305987Y-44809864D01*
X40305987Y-44809864D02*
X40127415Y-44809864D01*
X40127415Y-44809864D02*
X40055987Y-44774150D01*
X40055987Y-44774150D02*
X40020272Y-44738435D01*
X40020272Y-44738435D02*
X39984558Y-44667007D01*
X39984558Y-44667007D02*
X39984558Y-44595578D01*
X39984558Y-44595578D02*
X40020272Y-44524150D01*
X40020272Y-44524150D02*
X40055987Y-44488435D01*
X40055987Y-44488435D02*
X40127415Y-44452721D01*
X40127415Y-44452721D02*
X40270272Y-44417007D01*
X40270272Y-44417007D02*
X40341701Y-44381292D01*
X40341701Y-44381292D02*
X40377415Y-44345578D01*
X40377415Y-44345578D02*
X40413129Y-44274150D01*
X40413129Y-44274150D02*
X40413129Y-44202721D01*
X40413129Y-44202721D02*
X40377415Y-44131292D01*
X40377415Y-44131292D02*
X40341701Y-44095578D01*
X40341701Y-44095578D02*
X40270272Y-44059864D01*
X40270272Y-44059864D02*
X40091701Y-44059864D01*
X40091701Y-44059864D02*
X39984558Y-44095578D01*
X39841701Y-44881292D02*
X39270272Y-44881292D01*
X39198843Y-44059864D02*
X38770272Y-44059864D01*
X38984557Y-44809864D02*
X38984557Y-44059864D01*
X38591700Y-44059864D02*
X38127414Y-44059864D01*
X38127414Y-44059864D02*
X38377414Y-44345578D01*
X38377414Y-44345578D02*
X38270271Y-44345578D01*
X38270271Y-44345578D02*
X38198843Y-44381292D01*
X38198843Y-44381292D02*
X38163128Y-44417007D01*
X38163128Y-44417007D02*
X38127414Y-44488435D01*
X38127414Y-44488435D02*
X38127414Y-44667007D01*
X38127414Y-44667007D02*
X38163128Y-44738435D01*
X38163128Y-44738435D02*
X38198843Y-44774150D01*
X38198843Y-44774150D02*
X38270271Y-44809864D01*
X38270271Y-44809864D02*
X38484557Y-44809864D01*
X38484557Y-44809864D02*
X38555985Y-44774150D01*
X38555985Y-44774150D02*
X38591700Y-44738435D01*
X41230987Y-43851650D02*
X38059557Y-43851650D01*
D11*
X2963332Y-17584819D02*
X2344285Y-17584819D01*
X2344285Y-17584819D02*
X2677618Y-17965771D01*
X2677618Y-17965771D02*
X2534761Y-17965771D01*
X2534761Y-17965771D02*
X2439523Y-18013390D01*
X2439523Y-18013390D02*
X2391904Y-18061009D01*
X2391904Y-18061009D02*
X2344285Y-18156247D01*
X2344285Y-18156247D02*
X2344285Y-18394342D01*
X2344285Y-18394342D02*
X2391904Y-18489580D01*
X2391904Y-18489580D02*
X2439523Y-18537200D01*
X2439523Y-18537200D02*
X2534761Y-18584819D01*
X2534761Y-18584819D02*
X2820475Y-18584819D01*
X2820475Y-18584819D02*
X2915713Y-18537200D01*
X2915713Y-18537200D02*
X2963332Y-18489580D01*
X1189247Y-30385236D02*
X1189247Y-30118570D01*
X1608295Y-30118570D02*
X808295Y-30118570D01*
X808295Y-30118570D02*
X808295Y-30499522D01*
X1608295Y-30804284D02*
X1074961Y-30804284D01*
X808295Y-30804284D02*
X846390Y-30766188D01*
X846390Y-30766188D02*
X884485Y-30804284D01*
X884485Y-30804284D02*
X846390Y-30842379D01*
X846390Y-30842379D02*
X808295Y-30804284D01*
X808295Y-30804284D02*
X884485Y-30804284D01*
X1608295Y-31299521D02*
X1570200Y-31223331D01*
X1570200Y-31223331D02*
X1494009Y-31185236D01*
X1494009Y-31185236D02*
X808295Y-31185236D01*
X1608295Y-31718569D02*
X1570200Y-31642379D01*
X1570200Y-31642379D02*
X1494009Y-31604284D01*
X1494009Y-31604284D02*
X808295Y-31604284D01*
X808295Y-32861427D02*
X1379723Y-32861427D01*
X1379723Y-32861427D02*
X1494009Y-32823332D01*
X1494009Y-32823332D02*
X1570200Y-32747141D01*
X1570200Y-32747141D02*
X1608295Y-32632856D01*
X1608295Y-32632856D02*
X1608295Y-32556665D01*
X1608295Y-33242380D02*
X808295Y-33242380D01*
X808295Y-33242380D02*
X1379723Y-33509046D01*
X1379723Y-33509046D02*
X808295Y-33775713D01*
X808295Y-33775713D02*
X1608295Y-33775713D01*
X1608295Y-34156666D02*
X808295Y-34156666D01*
X808295Y-34156666D02*
X808295Y-34461428D01*
X808295Y-34461428D02*
X846390Y-34537618D01*
X846390Y-34537618D02*
X884485Y-34575713D01*
X884485Y-34575713D02*
X960676Y-34613809D01*
X960676Y-34613809D02*
X1074961Y-34613809D01*
X1074961Y-34613809D02*
X1151152Y-34575713D01*
X1151152Y-34575713D02*
X1189247Y-34537618D01*
X1189247Y-34537618D02*
X1227342Y-34461428D01*
X1227342Y-34461428D02*
X1227342Y-34156666D01*
X1608295Y-35413809D02*
X1227342Y-35147142D01*
X1608295Y-34956666D02*
X808295Y-34956666D01*
X808295Y-34956666D02*
X808295Y-35261428D01*
X808295Y-35261428D02*
X846390Y-35337618D01*
X846390Y-35337618D02*
X884485Y-35375713D01*
X884485Y-35375713D02*
X960676Y-35413809D01*
X960676Y-35413809D02*
X1074961Y-35413809D01*
X1074961Y-35413809D02*
X1151152Y-35375713D01*
X1151152Y-35375713D02*
X1189247Y-35337618D01*
X1189247Y-35337618D02*
X1227342Y-35261428D01*
X1227342Y-35261428D02*
X1227342Y-34956666D01*
X1608295Y-36175713D02*
X1608295Y-35718570D01*
X1608295Y-35947142D02*
X808295Y-35947142D01*
X808295Y-35947142D02*
X922580Y-35870951D01*
X922580Y-35870951D02*
X998771Y-35794761D01*
X998771Y-35794761D02*
X1036866Y-35718570D01*
X1074961Y-37013809D02*
X1074961Y-37318571D01*
X1608295Y-37128095D02*
X922580Y-37128095D01*
X922580Y-37128095D02*
X846390Y-37166190D01*
X846390Y-37166190D02*
X808295Y-37242380D01*
X808295Y-37242380D02*
X808295Y-37318571D01*
X1608295Y-37699523D02*
X1570200Y-37623333D01*
X1570200Y-37623333D02*
X1532104Y-37585238D01*
X1532104Y-37585238D02*
X1455914Y-37547142D01*
X1455914Y-37547142D02*
X1227342Y-37547142D01*
X1227342Y-37547142D02*
X1151152Y-37585238D01*
X1151152Y-37585238D02*
X1113057Y-37623333D01*
X1113057Y-37623333D02*
X1074961Y-37699523D01*
X1074961Y-37699523D02*
X1074961Y-37813809D01*
X1074961Y-37813809D02*
X1113057Y-37890000D01*
X1113057Y-37890000D02*
X1151152Y-37928095D01*
X1151152Y-37928095D02*
X1227342Y-37966190D01*
X1227342Y-37966190D02*
X1455914Y-37966190D01*
X1455914Y-37966190D02*
X1532104Y-37928095D01*
X1532104Y-37928095D02*
X1570200Y-37890000D01*
X1570200Y-37890000D02*
X1608295Y-37813809D01*
X1608295Y-37813809D02*
X1608295Y-37699523D01*
X1608295Y-38309048D02*
X1074961Y-38309048D01*
X1227342Y-38309048D02*
X1151152Y-38347143D01*
X1151152Y-38347143D02*
X1113057Y-38385238D01*
X1113057Y-38385238D02*
X1074961Y-38461429D01*
X1074961Y-38461429D02*
X1074961Y-38537619D01*
X1608295Y-39413810D02*
X808295Y-39413810D01*
X808295Y-39413810D02*
X808295Y-39718572D01*
X808295Y-39718572D02*
X846390Y-39794762D01*
X846390Y-39794762D02*
X884485Y-39832857D01*
X884485Y-39832857D02*
X960676Y-39870953D01*
X960676Y-39870953D02*
X1074961Y-39870953D01*
X1074961Y-39870953D02*
X1151152Y-39832857D01*
X1151152Y-39832857D02*
X1189247Y-39794762D01*
X1189247Y-39794762D02*
X1227342Y-39718572D01*
X1227342Y-39718572D02*
X1227342Y-39413810D01*
X1532104Y-40670953D02*
X1570200Y-40632857D01*
X1570200Y-40632857D02*
X1608295Y-40518572D01*
X1608295Y-40518572D02*
X1608295Y-40442381D01*
X1608295Y-40442381D02*
X1570200Y-40328095D01*
X1570200Y-40328095D02*
X1494009Y-40251905D01*
X1494009Y-40251905D02*
X1417819Y-40213810D01*
X1417819Y-40213810D02*
X1265438Y-40175714D01*
X1265438Y-40175714D02*
X1151152Y-40175714D01*
X1151152Y-40175714D02*
X998771Y-40213810D01*
X998771Y-40213810D02*
X922580Y-40251905D01*
X922580Y-40251905D02*
X846390Y-40328095D01*
X846390Y-40328095D02*
X808295Y-40442381D01*
X808295Y-40442381D02*
X808295Y-40518572D01*
X808295Y-40518572D02*
X846390Y-40632857D01*
X846390Y-40632857D02*
X884485Y-40670953D01*
X1189247Y-41280476D02*
X1227342Y-41394762D01*
X1227342Y-41394762D02*
X1265438Y-41432857D01*
X1265438Y-41432857D02*
X1341628Y-41470953D01*
X1341628Y-41470953D02*
X1455914Y-41470953D01*
X1455914Y-41470953D02*
X1532104Y-41432857D01*
X1532104Y-41432857D02*
X1570200Y-41394762D01*
X1570200Y-41394762D02*
X1608295Y-41318572D01*
X1608295Y-41318572D02*
X1608295Y-41013810D01*
X1608295Y-41013810D02*
X808295Y-41013810D01*
X808295Y-41013810D02*
X808295Y-41280476D01*
X808295Y-41280476D02*
X846390Y-41356667D01*
X846390Y-41356667D02*
X884485Y-41394762D01*
X884485Y-41394762D02*
X960676Y-41432857D01*
X960676Y-41432857D02*
X1036866Y-41432857D01*
X1036866Y-41432857D02*
X1113057Y-41394762D01*
X1113057Y-41394762D02*
X1151152Y-41356667D01*
X1151152Y-41356667D02*
X1189247Y-41280476D01*
X1189247Y-41280476D02*
X1189247Y-41013810D01*
X1608295Y-42423334D02*
X808295Y-42423334D01*
X1608295Y-42766191D02*
X1189247Y-42766191D01*
X1189247Y-42766191D02*
X1113057Y-42728096D01*
X1113057Y-42728096D02*
X1074961Y-42651905D01*
X1074961Y-42651905D02*
X1074961Y-42537619D01*
X1074961Y-42537619D02*
X1113057Y-42461429D01*
X1113057Y-42461429D02*
X1151152Y-42423334D01*
X1570200Y-43451906D02*
X1608295Y-43375715D01*
X1608295Y-43375715D02*
X1608295Y-43223334D01*
X1608295Y-43223334D02*
X1570200Y-43147144D01*
X1570200Y-43147144D02*
X1494009Y-43109048D01*
X1494009Y-43109048D02*
X1189247Y-43109048D01*
X1189247Y-43109048D02*
X1113057Y-43147144D01*
X1113057Y-43147144D02*
X1074961Y-43223334D01*
X1074961Y-43223334D02*
X1074961Y-43375715D01*
X1074961Y-43375715D02*
X1113057Y-43451906D01*
X1113057Y-43451906D02*
X1189247Y-43490001D01*
X1189247Y-43490001D02*
X1265438Y-43490001D01*
X1265438Y-43490001D02*
X1341628Y-43109048D01*
X1608295Y-44175715D02*
X1189247Y-44175715D01*
X1189247Y-44175715D02*
X1113057Y-44137620D01*
X1113057Y-44137620D02*
X1074961Y-44061429D01*
X1074961Y-44061429D02*
X1074961Y-43909048D01*
X1074961Y-43909048D02*
X1113057Y-43832858D01*
X1570200Y-44175715D02*
X1608295Y-44099524D01*
X1608295Y-44099524D02*
X1608295Y-43909048D01*
X1608295Y-43909048D02*
X1570200Y-43832858D01*
X1570200Y-43832858D02*
X1494009Y-43794762D01*
X1494009Y-43794762D02*
X1417819Y-43794762D01*
X1417819Y-43794762D02*
X1341628Y-43832858D01*
X1341628Y-43832858D02*
X1303533Y-43909048D01*
X1303533Y-43909048D02*
X1303533Y-44099524D01*
X1303533Y-44099524D02*
X1265438Y-44175715D01*
X1074961Y-44442382D02*
X1074961Y-44747144D01*
X808295Y-44556668D02*
X1494009Y-44556668D01*
X1494009Y-44556668D02*
X1570200Y-44594763D01*
X1570200Y-44594763D02*
X1608295Y-44670953D01*
X1608295Y-44670953D02*
X1608295Y-44747144D01*
X1608295Y-45013811D02*
X1074961Y-45013811D01*
X808295Y-45013811D02*
X846390Y-44975715D01*
X846390Y-44975715D02*
X884485Y-45013811D01*
X884485Y-45013811D02*
X846390Y-45051906D01*
X846390Y-45051906D02*
X808295Y-45013811D01*
X808295Y-45013811D02*
X884485Y-45013811D01*
X1074961Y-45394763D02*
X1608295Y-45394763D01*
X1151152Y-45394763D02*
X1113057Y-45432858D01*
X1113057Y-45432858D02*
X1074961Y-45509048D01*
X1074961Y-45509048D02*
X1074961Y-45623334D01*
X1074961Y-45623334D02*
X1113057Y-45699525D01*
X1113057Y-45699525D02*
X1189247Y-45737620D01*
X1189247Y-45737620D02*
X1608295Y-45737620D01*
X1074961Y-46461430D02*
X1722580Y-46461430D01*
X1722580Y-46461430D02*
X1798771Y-46423335D01*
X1798771Y-46423335D02*
X1836866Y-46385239D01*
X1836866Y-46385239D02*
X1874961Y-46309049D01*
X1874961Y-46309049D02*
X1874961Y-46194763D01*
X1874961Y-46194763D02*
X1836866Y-46118573D01*
X1570200Y-46461430D02*
X1608295Y-46385239D01*
X1608295Y-46385239D02*
X1608295Y-46232858D01*
X1608295Y-46232858D02*
X1570200Y-46156668D01*
X1570200Y-46156668D02*
X1532104Y-46118573D01*
X1532104Y-46118573D02*
X1455914Y-46080477D01*
X1455914Y-46080477D02*
X1227342Y-46080477D01*
X1227342Y-46080477D02*
X1151152Y-46118573D01*
X1151152Y-46118573D02*
X1113057Y-46156668D01*
X1113057Y-46156668D02*
X1074961Y-46232858D01*
X1074961Y-46232858D02*
X1074961Y-46385239D01*
X1074961Y-46385239D02*
X1113057Y-46461430D01*
X2477247Y-30328093D02*
X2477247Y-30061427D01*
X2896295Y-30061427D02*
X2096295Y-30061427D01*
X2096295Y-30061427D02*
X2096295Y-30442379D01*
X2896295Y-30747141D02*
X2362961Y-30747141D01*
X2096295Y-30747141D02*
X2134390Y-30709045D01*
X2134390Y-30709045D02*
X2172485Y-30747141D01*
X2172485Y-30747141D02*
X2134390Y-30785236D01*
X2134390Y-30785236D02*
X2096295Y-30747141D01*
X2096295Y-30747141D02*
X2172485Y-30747141D01*
X2896295Y-31242378D02*
X2858200Y-31166188D01*
X2858200Y-31166188D02*
X2782009Y-31128093D01*
X2782009Y-31128093D02*
X2096295Y-31128093D01*
X2896295Y-31661426D02*
X2858200Y-31585236D01*
X2858200Y-31585236D02*
X2782009Y-31547141D01*
X2782009Y-31547141D02*
X2096295Y-31547141D01*
X2096295Y-32804284D02*
X2667723Y-32804284D01*
X2667723Y-32804284D02*
X2782009Y-32766189D01*
X2782009Y-32766189D02*
X2858200Y-32689998D01*
X2858200Y-32689998D02*
X2896295Y-32575713D01*
X2896295Y-32575713D02*
X2896295Y-32499522D01*
X2896295Y-33185237D02*
X2096295Y-33185237D01*
X2096295Y-33185237D02*
X2667723Y-33451903D01*
X2667723Y-33451903D02*
X2096295Y-33718570D01*
X2096295Y-33718570D02*
X2896295Y-33718570D01*
X2896295Y-34099523D02*
X2096295Y-34099523D01*
X2096295Y-34099523D02*
X2096295Y-34404285D01*
X2096295Y-34404285D02*
X2134390Y-34480475D01*
X2134390Y-34480475D02*
X2172485Y-34518570D01*
X2172485Y-34518570D02*
X2248676Y-34556666D01*
X2248676Y-34556666D02*
X2362961Y-34556666D01*
X2362961Y-34556666D02*
X2439152Y-34518570D01*
X2439152Y-34518570D02*
X2477247Y-34480475D01*
X2477247Y-34480475D02*
X2515342Y-34404285D01*
X2515342Y-34404285D02*
X2515342Y-34099523D01*
X2896295Y-35356666D02*
X2515342Y-35089999D01*
X2896295Y-34899523D02*
X2096295Y-34899523D01*
X2096295Y-34899523D02*
X2096295Y-35204285D01*
X2096295Y-35204285D02*
X2134390Y-35280475D01*
X2134390Y-35280475D02*
X2172485Y-35318570D01*
X2172485Y-35318570D02*
X2248676Y-35356666D01*
X2248676Y-35356666D02*
X2362961Y-35356666D01*
X2362961Y-35356666D02*
X2439152Y-35318570D01*
X2439152Y-35318570D02*
X2477247Y-35280475D01*
X2477247Y-35280475D02*
X2515342Y-35204285D01*
X2515342Y-35204285D02*
X2515342Y-34899523D01*
X2172485Y-35661427D02*
X2134390Y-35699523D01*
X2134390Y-35699523D02*
X2096295Y-35775713D01*
X2096295Y-35775713D02*
X2096295Y-35966189D01*
X2096295Y-35966189D02*
X2134390Y-36042380D01*
X2134390Y-36042380D02*
X2172485Y-36080475D01*
X2172485Y-36080475D02*
X2248676Y-36118570D01*
X2248676Y-36118570D02*
X2324866Y-36118570D01*
X2324866Y-36118570D02*
X2439152Y-36080475D01*
X2439152Y-36080475D02*
X2896295Y-35623332D01*
X2896295Y-35623332D02*
X2896295Y-36118570D01*
X2362961Y-36956666D02*
X2362961Y-37261428D01*
X2896295Y-37070952D02*
X2210580Y-37070952D01*
X2210580Y-37070952D02*
X2134390Y-37109047D01*
X2134390Y-37109047D02*
X2096295Y-37185237D01*
X2096295Y-37185237D02*
X2096295Y-37261428D01*
X2896295Y-37642380D02*
X2858200Y-37566190D01*
X2858200Y-37566190D02*
X2820104Y-37528095D01*
X2820104Y-37528095D02*
X2743914Y-37489999D01*
X2743914Y-37489999D02*
X2515342Y-37489999D01*
X2515342Y-37489999D02*
X2439152Y-37528095D01*
X2439152Y-37528095D02*
X2401057Y-37566190D01*
X2401057Y-37566190D02*
X2362961Y-37642380D01*
X2362961Y-37642380D02*
X2362961Y-37756666D01*
X2362961Y-37756666D02*
X2401057Y-37832857D01*
X2401057Y-37832857D02*
X2439152Y-37870952D01*
X2439152Y-37870952D02*
X2515342Y-37909047D01*
X2515342Y-37909047D02*
X2743914Y-37909047D01*
X2743914Y-37909047D02*
X2820104Y-37870952D01*
X2820104Y-37870952D02*
X2858200Y-37832857D01*
X2858200Y-37832857D02*
X2896295Y-37756666D01*
X2896295Y-37756666D02*
X2896295Y-37642380D01*
X2896295Y-38251905D02*
X2362961Y-38251905D01*
X2515342Y-38251905D02*
X2439152Y-38290000D01*
X2439152Y-38290000D02*
X2401057Y-38328095D01*
X2401057Y-38328095D02*
X2362961Y-38404286D01*
X2362961Y-38404286D02*
X2362961Y-38480476D01*
X2858200Y-39699524D02*
X2896295Y-39623333D01*
X2896295Y-39623333D02*
X2896295Y-39470952D01*
X2896295Y-39470952D02*
X2858200Y-39394762D01*
X2858200Y-39394762D02*
X2820104Y-39356667D01*
X2820104Y-39356667D02*
X2743914Y-39318571D01*
X2743914Y-39318571D02*
X2515342Y-39318571D01*
X2515342Y-39318571D02*
X2439152Y-39356667D01*
X2439152Y-39356667D02*
X2401057Y-39394762D01*
X2401057Y-39394762D02*
X2362961Y-39470952D01*
X2362961Y-39470952D02*
X2362961Y-39623333D01*
X2362961Y-39623333D02*
X2401057Y-39699524D01*
X2896295Y-40042381D02*
X2096295Y-40042381D01*
X2896295Y-40385238D02*
X2477247Y-40385238D01*
X2477247Y-40385238D02*
X2401057Y-40347143D01*
X2401057Y-40347143D02*
X2362961Y-40270952D01*
X2362961Y-40270952D02*
X2362961Y-40156666D01*
X2362961Y-40156666D02*
X2401057Y-40080476D01*
X2401057Y-40080476D02*
X2439152Y-40042381D01*
X2896295Y-40766191D02*
X2362961Y-40766191D01*
X2096295Y-40766191D02*
X2134390Y-40728095D01*
X2134390Y-40728095D02*
X2172485Y-40766191D01*
X2172485Y-40766191D02*
X2134390Y-40804286D01*
X2134390Y-40804286D02*
X2096295Y-40766191D01*
X2096295Y-40766191D02*
X2172485Y-40766191D01*
X2362961Y-41147143D02*
X3162961Y-41147143D01*
X2401057Y-41147143D02*
X2362961Y-41223333D01*
X2362961Y-41223333D02*
X2362961Y-41375714D01*
X2362961Y-41375714D02*
X2401057Y-41451905D01*
X2401057Y-41451905D02*
X2439152Y-41490000D01*
X2439152Y-41490000D02*
X2515342Y-41528095D01*
X2515342Y-41528095D02*
X2743914Y-41528095D01*
X2743914Y-41528095D02*
X2820104Y-41490000D01*
X2820104Y-41490000D02*
X2858200Y-41451905D01*
X2858200Y-41451905D02*
X2896295Y-41375714D01*
X2896295Y-41375714D02*
X2896295Y-41223333D01*
X2896295Y-41223333D02*
X2858200Y-41147143D01*
X2896295Y-42480477D02*
X2096295Y-42480477D01*
X2896295Y-42823334D02*
X2477247Y-42823334D01*
X2477247Y-42823334D02*
X2401057Y-42785239D01*
X2401057Y-42785239D02*
X2362961Y-42709048D01*
X2362961Y-42709048D02*
X2362961Y-42594762D01*
X2362961Y-42594762D02*
X2401057Y-42518572D01*
X2401057Y-42518572D02*
X2439152Y-42480477D01*
X2858200Y-43509049D02*
X2896295Y-43432858D01*
X2896295Y-43432858D02*
X2896295Y-43280477D01*
X2896295Y-43280477D02*
X2858200Y-43204287D01*
X2858200Y-43204287D02*
X2782009Y-43166191D01*
X2782009Y-43166191D02*
X2477247Y-43166191D01*
X2477247Y-43166191D02*
X2401057Y-43204287D01*
X2401057Y-43204287D02*
X2362961Y-43280477D01*
X2362961Y-43280477D02*
X2362961Y-43432858D01*
X2362961Y-43432858D02*
X2401057Y-43509049D01*
X2401057Y-43509049D02*
X2477247Y-43547144D01*
X2477247Y-43547144D02*
X2553438Y-43547144D01*
X2553438Y-43547144D02*
X2629628Y-43166191D01*
X2896295Y-44232858D02*
X2477247Y-44232858D01*
X2477247Y-44232858D02*
X2401057Y-44194763D01*
X2401057Y-44194763D02*
X2362961Y-44118572D01*
X2362961Y-44118572D02*
X2362961Y-43966191D01*
X2362961Y-43966191D02*
X2401057Y-43890001D01*
X2858200Y-44232858D02*
X2896295Y-44156667D01*
X2896295Y-44156667D02*
X2896295Y-43966191D01*
X2896295Y-43966191D02*
X2858200Y-43890001D01*
X2858200Y-43890001D02*
X2782009Y-43851905D01*
X2782009Y-43851905D02*
X2705819Y-43851905D01*
X2705819Y-43851905D02*
X2629628Y-43890001D01*
X2629628Y-43890001D02*
X2591533Y-43966191D01*
X2591533Y-43966191D02*
X2591533Y-44156667D01*
X2591533Y-44156667D02*
X2553438Y-44232858D01*
X2362961Y-44499525D02*
X2362961Y-44804287D01*
X2096295Y-44613811D02*
X2782009Y-44613811D01*
X2782009Y-44613811D02*
X2858200Y-44651906D01*
X2858200Y-44651906D02*
X2896295Y-44728096D01*
X2896295Y-44728096D02*
X2896295Y-44804287D01*
X2896295Y-45070954D02*
X2362961Y-45070954D01*
X2096295Y-45070954D02*
X2134390Y-45032858D01*
X2134390Y-45032858D02*
X2172485Y-45070954D01*
X2172485Y-45070954D02*
X2134390Y-45109049D01*
X2134390Y-45109049D02*
X2096295Y-45070954D01*
X2096295Y-45070954D02*
X2172485Y-45070954D01*
X2362961Y-45451906D02*
X2896295Y-45451906D01*
X2439152Y-45451906D02*
X2401057Y-45490001D01*
X2401057Y-45490001D02*
X2362961Y-45566191D01*
X2362961Y-45566191D02*
X2362961Y-45680477D01*
X2362961Y-45680477D02*
X2401057Y-45756668D01*
X2401057Y-45756668D02*
X2477247Y-45794763D01*
X2477247Y-45794763D02*
X2896295Y-45794763D01*
X2362961Y-46518573D02*
X3010580Y-46518573D01*
X3010580Y-46518573D02*
X3086771Y-46480478D01*
X3086771Y-46480478D02*
X3124866Y-46442382D01*
X3124866Y-46442382D02*
X3162961Y-46366192D01*
X3162961Y-46366192D02*
X3162961Y-46251906D01*
X3162961Y-46251906D02*
X3124866Y-46175716D01*
X2858200Y-46518573D02*
X2896295Y-46442382D01*
X2896295Y-46442382D02*
X2896295Y-46290001D01*
X2896295Y-46290001D02*
X2858200Y-46213811D01*
X2858200Y-46213811D02*
X2820104Y-46175716D01*
X2820104Y-46175716D02*
X2743914Y-46137620D01*
X2743914Y-46137620D02*
X2515342Y-46137620D01*
X2515342Y-46137620D02*
X2439152Y-46175716D01*
X2439152Y-46175716D02*
X2401057Y-46213811D01*
X2401057Y-46213811D02*
X2362961Y-46290001D01*
X2362961Y-46290001D02*
X2362961Y-46442382D01*
X2362961Y-46442382D02*
X2401057Y-46518573D01*
D12*
X15188844Y-31619685D02*
X15224558Y-31655400D01*
X15224558Y-31655400D02*
X15331701Y-31691114D01*
X15331701Y-31691114D02*
X15403129Y-31691114D01*
X15403129Y-31691114D02*
X15510272Y-31655400D01*
X15510272Y-31655400D02*
X15581701Y-31583971D01*
X15581701Y-31583971D02*
X15617415Y-31512542D01*
X15617415Y-31512542D02*
X15653129Y-31369685D01*
X15653129Y-31369685D02*
X15653129Y-31262542D01*
X15653129Y-31262542D02*
X15617415Y-31119685D01*
X15617415Y-31119685D02*
X15581701Y-31048257D01*
X15581701Y-31048257D02*
X15510272Y-30976828D01*
X15510272Y-30976828D02*
X15403129Y-30941114D01*
X15403129Y-30941114D02*
X15331701Y-30941114D01*
X15331701Y-30941114D02*
X15224558Y-30976828D01*
X15224558Y-30976828D02*
X15188844Y-31012542D01*
X14867415Y-31691114D02*
X14867415Y-30941114D01*
X14545987Y-31691114D02*
X14545987Y-31298257D01*
X14545987Y-31298257D02*
X14581701Y-31226828D01*
X14581701Y-31226828D02*
X14653129Y-31191114D01*
X14653129Y-31191114D02*
X14760272Y-31191114D01*
X14760272Y-31191114D02*
X14831701Y-31226828D01*
X14831701Y-31226828D02*
X14867415Y-31262542D01*
X13867416Y-31691114D02*
X13867416Y-31298257D01*
X13867416Y-31298257D02*
X13903130Y-31226828D01*
X13903130Y-31226828D02*
X13974558Y-31191114D01*
X13974558Y-31191114D02*
X14117416Y-31191114D01*
X14117416Y-31191114D02*
X14188844Y-31226828D01*
X13867416Y-31655400D02*
X13938844Y-31691114D01*
X13938844Y-31691114D02*
X14117416Y-31691114D01*
X14117416Y-31691114D02*
X14188844Y-31655400D01*
X14188844Y-31655400D02*
X14224558Y-31583971D01*
X14224558Y-31583971D02*
X14224558Y-31512542D01*
X14224558Y-31512542D02*
X14188844Y-31441114D01*
X14188844Y-31441114D02*
X14117416Y-31405400D01*
X14117416Y-31405400D02*
X13938844Y-31405400D01*
X13938844Y-31405400D02*
X13867416Y-31369685D01*
X13510273Y-31191114D02*
X13510273Y-31691114D01*
X13510273Y-31262542D02*
X13474559Y-31226828D01*
X13474559Y-31226828D02*
X13403130Y-31191114D01*
X13403130Y-31191114D02*
X13295987Y-31191114D01*
X13295987Y-31191114D02*
X13224559Y-31226828D01*
X13224559Y-31226828D02*
X13188845Y-31298257D01*
X13188845Y-31298257D02*
X13188845Y-31691114D01*
X12831702Y-31191114D02*
X12831702Y-31691114D01*
X12831702Y-31262542D02*
X12795988Y-31226828D01*
X12795988Y-31226828D02*
X12724559Y-31191114D01*
X12724559Y-31191114D02*
X12617416Y-31191114D01*
X12617416Y-31191114D02*
X12545988Y-31226828D01*
X12545988Y-31226828D02*
X12510274Y-31298257D01*
X12510274Y-31298257D02*
X12510274Y-31691114D01*
X11867417Y-31655400D02*
X11938845Y-31691114D01*
X11938845Y-31691114D02*
X12081703Y-31691114D01*
X12081703Y-31691114D02*
X12153131Y-31655400D01*
X12153131Y-31655400D02*
X12188845Y-31583971D01*
X12188845Y-31583971D02*
X12188845Y-31298257D01*
X12188845Y-31298257D02*
X12153131Y-31226828D01*
X12153131Y-31226828D02*
X12081703Y-31191114D01*
X12081703Y-31191114D02*
X11938845Y-31191114D01*
X11938845Y-31191114D02*
X11867417Y-31226828D01*
X11867417Y-31226828D02*
X11831703Y-31298257D01*
X11831703Y-31298257D02*
X11831703Y-31369685D01*
X11831703Y-31369685D02*
X12188845Y-31441114D01*
X11403131Y-31691114D02*
X11474560Y-31655400D01*
X11474560Y-31655400D02*
X11510274Y-31583971D01*
X11510274Y-31583971D02*
X11510274Y-30941114D01*
X11153131Y-31655400D02*
X11081703Y-31691114D01*
X11081703Y-31691114D02*
X10938846Y-31691114D01*
X10938846Y-31691114D02*
X10867417Y-31655400D01*
X10867417Y-31655400D02*
X10831703Y-31583971D01*
X10831703Y-31583971D02*
X10831703Y-31548257D01*
X10831703Y-31548257D02*
X10867417Y-31476828D01*
X10867417Y-31476828D02*
X10938846Y-31441114D01*
X10938846Y-31441114D02*
X11045989Y-31441114D01*
X11045989Y-31441114D02*
X11117417Y-31405400D01*
X11117417Y-31405400D02*
X11153131Y-31333971D01*
X11153131Y-31333971D02*
X11153131Y-31298257D01*
X11153131Y-31298257D02*
X11117417Y-31226828D01*
X11117417Y-31226828D02*
X11045989Y-31191114D01*
X11045989Y-31191114D02*
X10938846Y-31191114D01*
X10938846Y-31191114D02*
X10867417Y-31226828D01*
X10510274Y-31619685D02*
X10474560Y-31655400D01*
X10474560Y-31655400D02*
X10510274Y-31691114D01*
X10510274Y-31691114D02*
X10545988Y-31655400D01*
X10545988Y-31655400D02*
X10510274Y-31619685D01*
X10510274Y-31619685D02*
X10510274Y-31691114D01*
X10510274Y-31226828D02*
X10474560Y-31262542D01*
X10474560Y-31262542D02*
X10510274Y-31298257D01*
X10510274Y-31298257D02*
X10545988Y-31262542D01*
X10545988Y-31262542D02*
X10510274Y-31226828D01*
X10510274Y-31226828D02*
X10510274Y-31298257D01*
X14653129Y-32898614D02*
X15081700Y-32898614D01*
X14867415Y-32898614D02*
X14867415Y-32148614D01*
X14867415Y-32148614D02*
X14938843Y-32255757D01*
X14938843Y-32255757D02*
X15010272Y-32327185D01*
X15010272Y-32327185D02*
X15081700Y-32362900D01*
X14331700Y-32827185D02*
X14295986Y-32862900D01*
X14295986Y-32862900D02*
X14331700Y-32898614D01*
X14331700Y-32898614D02*
X14367414Y-32862900D01*
X14367414Y-32862900D02*
X14331700Y-32827185D01*
X14331700Y-32827185D02*
X14331700Y-32898614D01*
X14331700Y-32434328D02*
X14295986Y-32470042D01*
X14295986Y-32470042D02*
X14331700Y-32505757D01*
X14331700Y-32505757D02*
X14367414Y-32470042D01*
X14367414Y-32470042D02*
X14331700Y-32434328D01*
X14331700Y-32434328D02*
X14331700Y-32505757D01*
X13403128Y-32505757D02*
X13153128Y-32505757D01*
X13045985Y-32898614D02*
X13403128Y-32898614D01*
X13403128Y-32898614D02*
X13403128Y-32148614D01*
X13403128Y-32148614D02*
X13045985Y-32148614D01*
X12831700Y-32148614D02*
X12403129Y-32148614D01*
X12617414Y-32898614D02*
X12617414Y-32148614D01*
X11724557Y-32898614D02*
X11974557Y-32541471D01*
X12153128Y-32898614D02*
X12153128Y-32148614D01*
X12153128Y-32148614D02*
X11867414Y-32148614D01*
X11867414Y-32148614D02*
X11795985Y-32184328D01*
X11795985Y-32184328D02*
X11760271Y-32220042D01*
X11760271Y-32220042D02*
X11724557Y-32291471D01*
X11724557Y-32291471D02*
X11724557Y-32398614D01*
X11724557Y-32398614D02*
X11760271Y-32470042D01*
X11760271Y-32470042D02*
X11795985Y-32505757D01*
X11795985Y-32505757D02*
X11867414Y-32541471D01*
X11867414Y-32541471D02*
X12153128Y-32541471D01*
X11260271Y-32148614D02*
X11117414Y-32148614D01*
X11117414Y-32148614D02*
X11045985Y-32184328D01*
X11045985Y-32184328D02*
X10974557Y-32255757D01*
X10974557Y-32255757D02*
X10938842Y-32398614D01*
X10938842Y-32398614D02*
X10938842Y-32648614D01*
X10938842Y-32648614D02*
X10974557Y-32791471D01*
X10974557Y-32791471D02*
X11045985Y-32862900D01*
X11045985Y-32862900D02*
X11117414Y-32898614D01*
X11117414Y-32898614D02*
X11260271Y-32898614D01*
X11260271Y-32898614D02*
X11331700Y-32862900D01*
X11331700Y-32862900D02*
X11403128Y-32791471D01*
X11403128Y-32791471D02*
X11438842Y-32648614D01*
X11438842Y-32648614D02*
X11438842Y-32398614D01*
X11438842Y-32398614D02*
X11403128Y-32255757D01*
X11403128Y-32255757D02*
X11331700Y-32184328D01*
X11331700Y-32184328D02*
X11260271Y-32148614D01*
X10188843Y-32827185D02*
X10224557Y-32862900D01*
X10224557Y-32862900D02*
X10331700Y-32898614D01*
X10331700Y-32898614D02*
X10403128Y-32898614D01*
X10403128Y-32898614D02*
X10510271Y-32862900D01*
X10510271Y-32862900D02*
X10581700Y-32791471D01*
X10581700Y-32791471D02*
X10617414Y-32720042D01*
X10617414Y-32720042D02*
X10653128Y-32577185D01*
X10653128Y-32577185D02*
X10653128Y-32470042D01*
X10653128Y-32470042D02*
X10617414Y-32327185D01*
X10617414Y-32327185D02*
X10581700Y-32255757D01*
X10581700Y-32255757D02*
X10510271Y-32184328D01*
X10510271Y-32184328D02*
X10403128Y-32148614D01*
X10403128Y-32148614D02*
X10331700Y-32148614D01*
X10331700Y-32148614D02*
X10224557Y-32184328D01*
X10224557Y-32184328D02*
X10188843Y-32220042D01*
X9938843Y-32148614D02*
X9474557Y-32148614D01*
X9474557Y-32148614D02*
X9724557Y-32434328D01*
X9724557Y-32434328D02*
X9617414Y-32434328D01*
X9617414Y-32434328D02*
X9545986Y-32470042D01*
X9545986Y-32470042D02*
X9510271Y-32505757D01*
X9510271Y-32505757D02*
X9474557Y-32577185D01*
X9474557Y-32577185D02*
X9474557Y-32755757D01*
X9474557Y-32755757D02*
X9510271Y-32827185D01*
X9510271Y-32827185D02*
X9545986Y-32862900D01*
X9545986Y-32862900D02*
X9617414Y-32898614D01*
X9617414Y-32898614D02*
X9831700Y-32898614D01*
X9831700Y-32898614D02*
X9903128Y-32862900D01*
X9903128Y-32862900D02*
X9938843Y-32827185D01*
X15081700Y-33427542D02*
X15045986Y-33391828D01*
X15045986Y-33391828D02*
X14974558Y-33356114D01*
X14974558Y-33356114D02*
X14795986Y-33356114D01*
X14795986Y-33356114D02*
X14724558Y-33391828D01*
X14724558Y-33391828D02*
X14688843Y-33427542D01*
X14688843Y-33427542D02*
X14653129Y-33498971D01*
X14653129Y-33498971D02*
X14653129Y-33570400D01*
X14653129Y-33570400D02*
X14688843Y-33677542D01*
X14688843Y-33677542D02*
X15117415Y-34106114D01*
X15117415Y-34106114D02*
X14653129Y-34106114D01*
X14331700Y-34034685D02*
X14295986Y-34070400D01*
X14295986Y-34070400D02*
X14331700Y-34106114D01*
X14331700Y-34106114D02*
X14367414Y-34070400D01*
X14367414Y-34070400D02*
X14331700Y-34034685D01*
X14331700Y-34034685D02*
X14331700Y-34106114D01*
X14331700Y-33641828D02*
X14295986Y-33677542D01*
X14295986Y-33677542D02*
X14331700Y-33713257D01*
X14331700Y-33713257D02*
X14367414Y-33677542D01*
X14367414Y-33677542D02*
X14331700Y-33641828D01*
X14331700Y-33641828D02*
X14331700Y-33713257D01*
X13045985Y-34106114D02*
X13403128Y-34106114D01*
X13403128Y-34106114D02*
X13403128Y-33356114D01*
X12403128Y-33391828D02*
X12474557Y-33356114D01*
X12474557Y-33356114D02*
X12581699Y-33356114D01*
X12581699Y-33356114D02*
X12688842Y-33391828D01*
X12688842Y-33391828D02*
X12760271Y-33463257D01*
X12760271Y-33463257D02*
X12795985Y-33534685D01*
X12795985Y-33534685D02*
X12831699Y-33677542D01*
X12831699Y-33677542D02*
X12831699Y-33784685D01*
X12831699Y-33784685D02*
X12795985Y-33927542D01*
X12795985Y-33927542D02*
X12760271Y-33998971D01*
X12760271Y-33998971D02*
X12688842Y-34070400D01*
X12688842Y-34070400D02*
X12581699Y-34106114D01*
X12581699Y-34106114D02*
X12510271Y-34106114D01*
X12510271Y-34106114D02*
X12403128Y-34070400D01*
X12403128Y-34070400D02*
X12367414Y-34034685D01*
X12367414Y-34034685D02*
X12367414Y-33784685D01*
X12367414Y-33784685D02*
X12510271Y-33784685D01*
X12081699Y-33891828D02*
X11724557Y-33891828D01*
X12153128Y-34106114D02*
X11903128Y-33356114D01*
X11903128Y-33356114D02*
X11653128Y-34106114D01*
X11403128Y-34106114D02*
X11403128Y-33356114D01*
X11403128Y-33356114D02*
X11224557Y-33356114D01*
X11224557Y-33356114D02*
X11117414Y-33391828D01*
X11117414Y-33391828D02*
X11045985Y-33463257D01*
X11045985Y-33463257D02*
X11010271Y-33534685D01*
X11010271Y-33534685D02*
X10974557Y-33677542D01*
X10974557Y-33677542D02*
X10974557Y-33784685D01*
X10974557Y-33784685D02*
X11010271Y-33927542D01*
X11010271Y-33927542D02*
X11045985Y-33998971D01*
X11045985Y-33998971D02*
X11117414Y-34070400D01*
X11117414Y-34070400D02*
X11224557Y-34106114D01*
X11224557Y-34106114D02*
X11403128Y-34106114D01*
X10260271Y-34106114D02*
X10688842Y-34106114D01*
X10474557Y-34106114D02*
X10474557Y-33356114D01*
X10474557Y-33356114D02*
X10545985Y-33463257D01*
X10545985Y-33463257D02*
X10617414Y-33534685D01*
X10617414Y-33534685D02*
X10688842Y-33570400D01*
X15117415Y-34563614D02*
X14653129Y-34563614D01*
X14653129Y-34563614D02*
X14903129Y-34849328D01*
X14903129Y-34849328D02*
X14795986Y-34849328D01*
X14795986Y-34849328D02*
X14724558Y-34885042D01*
X14724558Y-34885042D02*
X14688843Y-34920757D01*
X14688843Y-34920757D02*
X14653129Y-34992185D01*
X14653129Y-34992185D02*
X14653129Y-35170757D01*
X14653129Y-35170757D02*
X14688843Y-35242185D01*
X14688843Y-35242185D02*
X14724558Y-35277900D01*
X14724558Y-35277900D02*
X14795986Y-35313614D01*
X14795986Y-35313614D02*
X15010272Y-35313614D01*
X15010272Y-35313614D02*
X15081700Y-35277900D01*
X15081700Y-35277900D02*
X15117415Y-35242185D01*
X14331700Y-35242185D02*
X14295986Y-35277900D01*
X14295986Y-35277900D02*
X14331700Y-35313614D01*
X14331700Y-35313614D02*
X14367414Y-35277900D01*
X14367414Y-35277900D02*
X14331700Y-35242185D01*
X14331700Y-35242185D02*
X14331700Y-35313614D01*
X14331700Y-34849328D02*
X14295986Y-34885042D01*
X14295986Y-34885042D02*
X14331700Y-34920757D01*
X14331700Y-34920757D02*
X14367414Y-34885042D01*
X14367414Y-34885042D02*
X14331700Y-34849328D01*
X14331700Y-34849328D02*
X14331700Y-34920757D01*
X13403128Y-34920757D02*
X13153128Y-34920757D01*
X13045985Y-35313614D02*
X13403128Y-35313614D01*
X13403128Y-35313614D02*
X13403128Y-34563614D01*
X13403128Y-34563614D02*
X13045985Y-34563614D01*
X12831700Y-34563614D02*
X12403129Y-34563614D01*
X12617414Y-35313614D02*
X12617414Y-34563614D01*
X11724557Y-35313614D02*
X11974557Y-34956471D01*
X12153128Y-35313614D02*
X12153128Y-34563614D01*
X12153128Y-34563614D02*
X11867414Y-34563614D01*
X11867414Y-34563614D02*
X11795985Y-34599328D01*
X11795985Y-34599328D02*
X11760271Y-34635042D01*
X11760271Y-34635042D02*
X11724557Y-34706471D01*
X11724557Y-34706471D02*
X11724557Y-34813614D01*
X11724557Y-34813614D02*
X11760271Y-34885042D01*
X11760271Y-34885042D02*
X11795985Y-34920757D01*
X11795985Y-34920757D02*
X11867414Y-34956471D01*
X11867414Y-34956471D02*
X12153128Y-34956471D01*
X11260271Y-34563614D02*
X11117414Y-34563614D01*
X11117414Y-34563614D02*
X11045985Y-34599328D01*
X11045985Y-34599328D02*
X10974557Y-34670757D01*
X10974557Y-34670757D02*
X10938842Y-34813614D01*
X10938842Y-34813614D02*
X10938842Y-35063614D01*
X10938842Y-35063614D02*
X10974557Y-35206471D01*
X10974557Y-35206471D02*
X11045985Y-35277900D01*
X11045985Y-35277900D02*
X11117414Y-35313614D01*
X11117414Y-35313614D02*
X11260271Y-35313614D01*
X11260271Y-35313614D02*
X11331700Y-35277900D01*
X11331700Y-35277900D02*
X11403128Y-35206471D01*
X11403128Y-35206471D02*
X11438842Y-35063614D01*
X11438842Y-35063614D02*
X11438842Y-34813614D01*
X11438842Y-34813614D02*
X11403128Y-34670757D01*
X11403128Y-34670757D02*
X11331700Y-34599328D01*
X11331700Y-34599328D02*
X11260271Y-34563614D01*
X10188843Y-35242185D02*
X10224557Y-35277900D01*
X10224557Y-35277900D02*
X10331700Y-35313614D01*
X10331700Y-35313614D02*
X10403128Y-35313614D01*
X10403128Y-35313614D02*
X10510271Y-35277900D01*
X10510271Y-35277900D02*
X10581700Y-35206471D01*
X10581700Y-35206471D02*
X10617414Y-35135042D01*
X10617414Y-35135042D02*
X10653128Y-34992185D01*
X10653128Y-34992185D02*
X10653128Y-34885042D01*
X10653128Y-34885042D02*
X10617414Y-34742185D01*
X10617414Y-34742185D02*
X10581700Y-34670757D01*
X10581700Y-34670757D02*
X10510271Y-34599328D01*
X10510271Y-34599328D02*
X10403128Y-34563614D01*
X10403128Y-34563614D02*
X10331700Y-34563614D01*
X10331700Y-34563614D02*
X10224557Y-34599328D01*
X10224557Y-34599328D02*
X10188843Y-34635042D01*
X9474557Y-35313614D02*
X9903128Y-35313614D01*
X9688843Y-35313614D02*
X9688843Y-34563614D01*
X9688843Y-34563614D02*
X9760271Y-34670757D01*
X9760271Y-34670757D02*
X9831700Y-34742185D01*
X9831700Y-34742185D02*
X9903128Y-34777900D01*
X14724558Y-36021114D02*
X14724558Y-36521114D01*
X14903129Y-35735400D02*
X15081700Y-36271114D01*
X15081700Y-36271114D02*
X14617415Y-36271114D01*
X14331700Y-36449685D02*
X14295986Y-36485400D01*
X14295986Y-36485400D02*
X14331700Y-36521114D01*
X14331700Y-36521114D02*
X14367414Y-36485400D01*
X14367414Y-36485400D02*
X14331700Y-36449685D01*
X14331700Y-36449685D02*
X14331700Y-36521114D01*
X14331700Y-36056828D02*
X14295986Y-36092542D01*
X14295986Y-36092542D02*
X14331700Y-36128257D01*
X14331700Y-36128257D02*
X14367414Y-36092542D01*
X14367414Y-36092542D02*
X14331700Y-36056828D01*
X14331700Y-36056828D02*
X14331700Y-36128257D01*
X13045985Y-36521114D02*
X13403128Y-36521114D01*
X13403128Y-36521114D02*
X13403128Y-35771114D01*
X12403128Y-35806828D02*
X12474557Y-35771114D01*
X12474557Y-35771114D02*
X12581699Y-35771114D01*
X12581699Y-35771114D02*
X12688842Y-35806828D01*
X12688842Y-35806828D02*
X12760271Y-35878257D01*
X12760271Y-35878257D02*
X12795985Y-35949685D01*
X12795985Y-35949685D02*
X12831699Y-36092542D01*
X12831699Y-36092542D02*
X12831699Y-36199685D01*
X12831699Y-36199685D02*
X12795985Y-36342542D01*
X12795985Y-36342542D02*
X12760271Y-36413971D01*
X12760271Y-36413971D02*
X12688842Y-36485400D01*
X12688842Y-36485400D02*
X12581699Y-36521114D01*
X12581699Y-36521114D02*
X12510271Y-36521114D01*
X12510271Y-36521114D02*
X12403128Y-36485400D01*
X12403128Y-36485400D02*
X12367414Y-36449685D01*
X12367414Y-36449685D02*
X12367414Y-36199685D01*
X12367414Y-36199685D02*
X12510271Y-36199685D01*
X12081699Y-36306828D02*
X11724557Y-36306828D01*
X12153128Y-36521114D02*
X11903128Y-35771114D01*
X11903128Y-35771114D02*
X11653128Y-36521114D01*
X11403128Y-36521114D02*
X11403128Y-35771114D01*
X11403128Y-35771114D02*
X11224557Y-35771114D01*
X11224557Y-35771114D02*
X11117414Y-35806828D01*
X11117414Y-35806828D02*
X11045985Y-35878257D01*
X11045985Y-35878257D02*
X11010271Y-35949685D01*
X11010271Y-35949685D02*
X10974557Y-36092542D01*
X10974557Y-36092542D02*
X10974557Y-36199685D01*
X10974557Y-36199685D02*
X11010271Y-36342542D01*
X11010271Y-36342542D02*
X11045985Y-36413971D01*
X11045985Y-36413971D02*
X11117414Y-36485400D01*
X11117414Y-36485400D02*
X11224557Y-36521114D01*
X11224557Y-36521114D02*
X11403128Y-36521114D01*
X10688842Y-35842542D02*
X10653128Y-35806828D01*
X10653128Y-35806828D02*
X10581700Y-35771114D01*
X10581700Y-35771114D02*
X10403128Y-35771114D01*
X10403128Y-35771114D02*
X10331700Y-35806828D01*
X10331700Y-35806828D02*
X10295985Y-35842542D01*
X10295985Y-35842542D02*
X10260271Y-35913971D01*
X10260271Y-35913971D02*
X10260271Y-35985400D01*
X10260271Y-35985400D02*
X10295985Y-36092542D01*
X10295985Y-36092542D02*
X10724557Y-36521114D01*
X10724557Y-36521114D02*
X10260271Y-36521114D01*
X14688843Y-36978614D02*
X15045986Y-36978614D01*
X15045986Y-36978614D02*
X15081700Y-37335757D01*
X15081700Y-37335757D02*
X15045986Y-37300042D01*
X15045986Y-37300042D02*
X14974558Y-37264328D01*
X14974558Y-37264328D02*
X14795986Y-37264328D01*
X14795986Y-37264328D02*
X14724558Y-37300042D01*
X14724558Y-37300042D02*
X14688843Y-37335757D01*
X14688843Y-37335757D02*
X14653129Y-37407185D01*
X14653129Y-37407185D02*
X14653129Y-37585757D01*
X14653129Y-37585757D02*
X14688843Y-37657185D01*
X14688843Y-37657185D02*
X14724558Y-37692900D01*
X14724558Y-37692900D02*
X14795986Y-37728614D01*
X14795986Y-37728614D02*
X14974558Y-37728614D01*
X14974558Y-37728614D02*
X15045986Y-37692900D01*
X15045986Y-37692900D02*
X15081700Y-37657185D01*
X14331700Y-37657185D02*
X14295986Y-37692900D01*
X14295986Y-37692900D02*
X14331700Y-37728614D01*
X14331700Y-37728614D02*
X14367414Y-37692900D01*
X14367414Y-37692900D02*
X14331700Y-37657185D01*
X14331700Y-37657185D02*
X14331700Y-37728614D01*
X14331700Y-37264328D02*
X14295986Y-37300042D01*
X14295986Y-37300042D02*
X14331700Y-37335757D01*
X14331700Y-37335757D02*
X14367414Y-37300042D01*
X14367414Y-37300042D02*
X14331700Y-37264328D01*
X14331700Y-37264328D02*
X14331700Y-37335757D01*
X13403128Y-37335757D02*
X13153128Y-37335757D01*
X13045985Y-37728614D02*
X13403128Y-37728614D01*
X13403128Y-37728614D02*
X13403128Y-36978614D01*
X13403128Y-36978614D02*
X13045985Y-36978614D01*
X12831700Y-36978614D02*
X12403129Y-36978614D01*
X12617414Y-37728614D02*
X12617414Y-36978614D01*
X11724557Y-37728614D02*
X11974557Y-37371471D01*
X12153128Y-37728614D02*
X12153128Y-36978614D01*
X12153128Y-36978614D02*
X11867414Y-36978614D01*
X11867414Y-36978614D02*
X11795985Y-37014328D01*
X11795985Y-37014328D02*
X11760271Y-37050042D01*
X11760271Y-37050042D02*
X11724557Y-37121471D01*
X11724557Y-37121471D02*
X11724557Y-37228614D01*
X11724557Y-37228614D02*
X11760271Y-37300042D01*
X11760271Y-37300042D02*
X11795985Y-37335757D01*
X11795985Y-37335757D02*
X11867414Y-37371471D01*
X11867414Y-37371471D02*
X12153128Y-37371471D01*
X11260271Y-36978614D02*
X11117414Y-36978614D01*
X11117414Y-36978614D02*
X11045985Y-37014328D01*
X11045985Y-37014328D02*
X10974557Y-37085757D01*
X10974557Y-37085757D02*
X10938842Y-37228614D01*
X10938842Y-37228614D02*
X10938842Y-37478614D01*
X10938842Y-37478614D02*
X10974557Y-37621471D01*
X10974557Y-37621471D02*
X11045985Y-37692900D01*
X11045985Y-37692900D02*
X11117414Y-37728614D01*
X11117414Y-37728614D02*
X11260271Y-37728614D01*
X11260271Y-37728614D02*
X11331700Y-37692900D01*
X11331700Y-37692900D02*
X11403128Y-37621471D01*
X11403128Y-37621471D02*
X11438842Y-37478614D01*
X11438842Y-37478614D02*
X11438842Y-37228614D01*
X11438842Y-37228614D02*
X11403128Y-37085757D01*
X11403128Y-37085757D02*
X11331700Y-37014328D01*
X11331700Y-37014328D02*
X11260271Y-36978614D01*
X10188843Y-37657185D02*
X10224557Y-37692900D01*
X10224557Y-37692900D02*
X10331700Y-37728614D01*
X10331700Y-37728614D02*
X10403128Y-37728614D01*
X10403128Y-37728614D02*
X10510271Y-37692900D01*
X10510271Y-37692900D02*
X10581700Y-37621471D01*
X10581700Y-37621471D02*
X10617414Y-37550042D01*
X10617414Y-37550042D02*
X10653128Y-37407185D01*
X10653128Y-37407185D02*
X10653128Y-37300042D01*
X10653128Y-37300042D02*
X10617414Y-37157185D01*
X10617414Y-37157185D02*
X10581700Y-37085757D01*
X10581700Y-37085757D02*
X10510271Y-37014328D01*
X10510271Y-37014328D02*
X10403128Y-36978614D01*
X10403128Y-36978614D02*
X10331700Y-36978614D01*
X10331700Y-36978614D02*
X10224557Y-37014328D01*
X10224557Y-37014328D02*
X10188843Y-37050042D01*
X9903128Y-37050042D02*
X9867414Y-37014328D01*
X9867414Y-37014328D02*
X9795986Y-36978614D01*
X9795986Y-36978614D02*
X9617414Y-36978614D01*
X9617414Y-36978614D02*
X9545986Y-37014328D01*
X9545986Y-37014328D02*
X9510271Y-37050042D01*
X9510271Y-37050042D02*
X9474557Y-37121471D01*
X9474557Y-37121471D02*
X9474557Y-37192900D01*
X9474557Y-37192900D02*
X9510271Y-37300042D01*
X9510271Y-37300042D02*
X9938843Y-37728614D01*
X9938843Y-37728614D02*
X9474557Y-37728614D01*
X14724558Y-38186114D02*
X14867415Y-38186114D01*
X14867415Y-38186114D02*
X14938843Y-38221828D01*
X14938843Y-38221828D02*
X14974558Y-38257542D01*
X14974558Y-38257542D02*
X15045986Y-38364685D01*
X15045986Y-38364685D02*
X15081700Y-38507542D01*
X15081700Y-38507542D02*
X15081700Y-38793257D01*
X15081700Y-38793257D02*
X15045986Y-38864685D01*
X15045986Y-38864685D02*
X15010272Y-38900400D01*
X15010272Y-38900400D02*
X14938843Y-38936114D01*
X14938843Y-38936114D02*
X14795986Y-38936114D01*
X14795986Y-38936114D02*
X14724558Y-38900400D01*
X14724558Y-38900400D02*
X14688843Y-38864685D01*
X14688843Y-38864685D02*
X14653129Y-38793257D01*
X14653129Y-38793257D02*
X14653129Y-38614685D01*
X14653129Y-38614685D02*
X14688843Y-38543257D01*
X14688843Y-38543257D02*
X14724558Y-38507542D01*
X14724558Y-38507542D02*
X14795986Y-38471828D01*
X14795986Y-38471828D02*
X14938843Y-38471828D01*
X14938843Y-38471828D02*
X15010272Y-38507542D01*
X15010272Y-38507542D02*
X15045986Y-38543257D01*
X15045986Y-38543257D02*
X15081700Y-38614685D01*
X14331700Y-38864685D02*
X14295986Y-38900400D01*
X14295986Y-38900400D02*
X14331700Y-38936114D01*
X14331700Y-38936114D02*
X14367414Y-38900400D01*
X14367414Y-38900400D02*
X14331700Y-38864685D01*
X14331700Y-38864685D02*
X14331700Y-38936114D01*
X14331700Y-38471828D02*
X14295986Y-38507542D01*
X14295986Y-38507542D02*
X14331700Y-38543257D01*
X14331700Y-38543257D02*
X14367414Y-38507542D01*
X14367414Y-38507542D02*
X14331700Y-38471828D01*
X14331700Y-38471828D02*
X14331700Y-38543257D01*
X13045985Y-38936114D02*
X13403128Y-38936114D01*
X13403128Y-38936114D02*
X13403128Y-38186114D01*
X12403128Y-38221828D02*
X12474557Y-38186114D01*
X12474557Y-38186114D02*
X12581699Y-38186114D01*
X12581699Y-38186114D02*
X12688842Y-38221828D01*
X12688842Y-38221828D02*
X12760271Y-38293257D01*
X12760271Y-38293257D02*
X12795985Y-38364685D01*
X12795985Y-38364685D02*
X12831699Y-38507542D01*
X12831699Y-38507542D02*
X12831699Y-38614685D01*
X12831699Y-38614685D02*
X12795985Y-38757542D01*
X12795985Y-38757542D02*
X12760271Y-38828971D01*
X12760271Y-38828971D02*
X12688842Y-38900400D01*
X12688842Y-38900400D02*
X12581699Y-38936114D01*
X12581699Y-38936114D02*
X12510271Y-38936114D01*
X12510271Y-38936114D02*
X12403128Y-38900400D01*
X12403128Y-38900400D02*
X12367414Y-38864685D01*
X12367414Y-38864685D02*
X12367414Y-38614685D01*
X12367414Y-38614685D02*
X12510271Y-38614685D01*
X12081699Y-38721828D02*
X11724557Y-38721828D01*
X12153128Y-38936114D02*
X11903128Y-38186114D01*
X11903128Y-38186114D02*
X11653128Y-38936114D01*
X11403128Y-38936114D02*
X11403128Y-38186114D01*
X11403128Y-38186114D02*
X11224557Y-38186114D01*
X11224557Y-38186114D02*
X11117414Y-38221828D01*
X11117414Y-38221828D02*
X11045985Y-38293257D01*
X11045985Y-38293257D02*
X11010271Y-38364685D01*
X11010271Y-38364685D02*
X10974557Y-38507542D01*
X10974557Y-38507542D02*
X10974557Y-38614685D01*
X10974557Y-38614685D02*
X11010271Y-38757542D01*
X11010271Y-38757542D02*
X11045985Y-38828971D01*
X11045985Y-38828971D02*
X11117414Y-38900400D01*
X11117414Y-38900400D02*
X11224557Y-38936114D01*
X11224557Y-38936114D02*
X11403128Y-38936114D01*
X10724557Y-38186114D02*
X10260271Y-38186114D01*
X10260271Y-38186114D02*
X10510271Y-38471828D01*
X10510271Y-38471828D02*
X10403128Y-38471828D01*
X10403128Y-38471828D02*
X10331700Y-38507542D01*
X10331700Y-38507542D02*
X10295985Y-38543257D01*
X10295985Y-38543257D02*
X10260271Y-38614685D01*
X10260271Y-38614685D02*
X10260271Y-38793257D01*
X10260271Y-38793257D02*
X10295985Y-38864685D01*
X10295985Y-38864685D02*
X10331700Y-38900400D01*
X10331700Y-38900400D02*
X10403128Y-38936114D01*
X10403128Y-38936114D02*
X10617414Y-38936114D01*
X10617414Y-38936114D02*
X10688842Y-38900400D01*
X10688842Y-38900400D02*
X10724557Y-38864685D01*
X15117415Y-39393614D02*
X14617415Y-39393614D01*
X14617415Y-39393614D02*
X14938843Y-40143614D01*
X14331700Y-40072185D02*
X14295986Y-40107900D01*
X14295986Y-40107900D02*
X14331700Y-40143614D01*
X14331700Y-40143614D02*
X14367414Y-40107900D01*
X14367414Y-40107900D02*
X14331700Y-40072185D01*
X14331700Y-40072185D02*
X14331700Y-40143614D01*
X14331700Y-39679328D02*
X14295986Y-39715042D01*
X14295986Y-39715042D02*
X14331700Y-39750757D01*
X14331700Y-39750757D02*
X14367414Y-39715042D01*
X14367414Y-39715042D02*
X14331700Y-39679328D01*
X14331700Y-39679328D02*
X14331700Y-39750757D01*
X13045985Y-40143614D02*
X13403128Y-40143614D01*
X13403128Y-40143614D02*
X13403128Y-39393614D01*
X12403128Y-39429328D02*
X12474557Y-39393614D01*
X12474557Y-39393614D02*
X12581699Y-39393614D01*
X12581699Y-39393614D02*
X12688842Y-39429328D01*
X12688842Y-39429328D02*
X12760271Y-39500757D01*
X12760271Y-39500757D02*
X12795985Y-39572185D01*
X12795985Y-39572185D02*
X12831699Y-39715042D01*
X12831699Y-39715042D02*
X12831699Y-39822185D01*
X12831699Y-39822185D02*
X12795985Y-39965042D01*
X12795985Y-39965042D02*
X12760271Y-40036471D01*
X12760271Y-40036471D02*
X12688842Y-40107900D01*
X12688842Y-40107900D02*
X12581699Y-40143614D01*
X12581699Y-40143614D02*
X12510271Y-40143614D01*
X12510271Y-40143614D02*
X12403128Y-40107900D01*
X12403128Y-40107900D02*
X12367414Y-40072185D01*
X12367414Y-40072185D02*
X12367414Y-39822185D01*
X12367414Y-39822185D02*
X12510271Y-39822185D01*
X12081699Y-39929328D02*
X11724557Y-39929328D01*
X12153128Y-40143614D02*
X11903128Y-39393614D01*
X11903128Y-39393614D02*
X11653128Y-40143614D01*
X11403128Y-40143614D02*
X11403128Y-39393614D01*
X11403128Y-39393614D02*
X11224557Y-39393614D01*
X11224557Y-39393614D02*
X11117414Y-39429328D01*
X11117414Y-39429328D02*
X11045985Y-39500757D01*
X11045985Y-39500757D02*
X11010271Y-39572185D01*
X11010271Y-39572185D02*
X10974557Y-39715042D01*
X10974557Y-39715042D02*
X10974557Y-39822185D01*
X10974557Y-39822185D02*
X11010271Y-39965042D01*
X11010271Y-39965042D02*
X11045985Y-40036471D01*
X11045985Y-40036471D02*
X11117414Y-40107900D01*
X11117414Y-40107900D02*
X11224557Y-40143614D01*
X11224557Y-40143614D02*
X11403128Y-40143614D01*
X10331700Y-39643614D02*
X10331700Y-40143614D01*
X10510271Y-39357900D02*
X10688842Y-39893614D01*
X10688842Y-39893614D02*
X10224557Y-39893614D01*
X14938843Y-40922542D02*
X15010272Y-40886828D01*
X15010272Y-40886828D02*
X15045986Y-40851114D01*
X15045986Y-40851114D02*
X15081700Y-40779685D01*
X15081700Y-40779685D02*
X15081700Y-40743971D01*
X15081700Y-40743971D02*
X15045986Y-40672542D01*
X15045986Y-40672542D02*
X15010272Y-40636828D01*
X15010272Y-40636828D02*
X14938843Y-40601114D01*
X14938843Y-40601114D02*
X14795986Y-40601114D01*
X14795986Y-40601114D02*
X14724558Y-40636828D01*
X14724558Y-40636828D02*
X14688843Y-40672542D01*
X14688843Y-40672542D02*
X14653129Y-40743971D01*
X14653129Y-40743971D02*
X14653129Y-40779685D01*
X14653129Y-40779685D02*
X14688843Y-40851114D01*
X14688843Y-40851114D02*
X14724558Y-40886828D01*
X14724558Y-40886828D02*
X14795986Y-40922542D01*
X14795986Y-40922542D02*
X14938843Y-40922542D01*
X14938843Y-40922542D02*
X15010272Y-40958257D01*
X15010272Y-40958257D02*
X15045986Y-40993971D01*
X15045986Y-40993971D02*
X15081700Y-41065400D01*
X15081700Y-41065400D02*
X15081700Y-41208257D01*
X15081700Y-41208257D02*
X15045986Y-41279685D01*
X15045986Y-41279685D02*
X15010272Y-41315400D01*
X15010272Y-41315400D02*
X14938843Y-41351114D01*
X14938843Y-41351114D02*
X14795986Y-41351114D01*
X14795986Y-41351114D02*
X14724558Y-41315400D01*
X14724558Y-41315400D02*
X14688843Y-41279685D01*
X14688843Y-41279685D02*
X14653129Y-41208257D01*
X14653129Y-41208257D02*
X14653129Y-41065400D01*
X14653129Y-41065400D02*
X14688843Y-40993971D01*
X14688843Y-40993971D02*
X14724558Y-40958257D01*
X14724558Y-40958257D02*
X14795986Y-40922542D01*
X14331700Y-41279685D02*
X14295986Y-41315400D01*
X14295986Y-41315400D02*
X14331700Y-41351114D01*
X14331700Y-41351114D02*
X14367414Y-41315400D01*
X14367414Y-41315400D02*
X14331700Y-41279685D01*
X14331700Y-41279685D02*
X14331700Y-41351114D01*
X14331700Y-40886828D02*
X14295986Y-40922542D01*
X14295986Y-40922542D02*
X14331700Y-40958257D01*
X14331700Y-40958257D02*
X14367414Y-40922542D01*
X14367414Y-40922542D02*
X14331700Y-40886828D01*
X14331700Y-40886828D02*
X14331700Y-40958257D01*
X13403128Y-40958257D02*
X13153128Y-40958257D01*
X13045985Y-41351114D02*
X13403128Y-41351114D01*
X13403128Y-41351114D02*
X13403128Y-40601114D01*
X13403128Y-40601114D02*
X13045985Y-40601114D01*
X12831700Y-40601114D02*
X12403129Y-40601114D01*
X12617414Y-41351114D02*
X12617414Y-40601114D01*
X11724557Y-41351114D02*
X11974557Y-40993971D01*
X12153128Y-41351114D02*
X12153128Y-40601114D01*
X12153128Y-40601114D02*
X11867414Y-40601114D01*
X11867414Y-40601114D02*
X11795985Y-40636828D01*
X11795985Y-40636828D02*
X11760271Y-40672542D01*
X11760271Y-40672542D02*
X11724557Y-40743971D01*
X11724557Y-40743971D02*
X11724557Y-40851114D01*
X11724557Y-40851114D02*
X11760271Y-40922542D01*
X11760271Y-40922542D02*
X11795985Y-40958257D01*
X11795985Y-40958257D02*
X11867414Y-40993971D01*
X11867414Y-40993971D02*
X12153128Y-40993971D01*
X11260271Y-40601114D02*
X11117414Y-40601114D01*
X11117414Y-40601114D02*
X11045985Y-40636828D01*
X11045985Y-40636828D02*
X10974557Y-40708257D01*
X10974557Y-40708257D02*
X10938842Y-40851114D01*
X10938842Y-40851114D02*
X10938842Y-41101114D01*
X10938842Y-41101114D02*
X10974557Y-41243971D01*
X10974557Y-41243971D02*
X11045985Y-41315400D01*
X11045985Y-41315400D02*
X11117414Y-41351114D01*
X11117414Y-41351114D02*
X11260271Y-41351114D01*
X11260271Y-41351114D02*
X11331700Y-41315400D01*
X11331700Y-41315400D02*
X11403128Y-41243971D01*
X11403128Y-41243971D02*
X11438842Y-41101114D01*
X11438842Y-41101114D02*
X11438842Y-40851114D01*
X11438842Y-40851114D02*
X11403128Y-40708257D01*
X11403128Y-40708257D02*
X11331700Y-40636828D01*
X11331700Y-40636828D02*
X11260271Y-40601114D01*
X10188843Y-41279685D02*
X10224557Y-41315400D01*
X10224557Y-41315400D02*
X10331700Y-41351114D01*
X10331700Y-41351114D02*
X10403128Y-41351114D01*
X10403128Y-41351114D02*
X10510271Y-41315400D01*
X10510271Y-41315400D02*
X10581700Y-41243971D01*
X10581700Y-41243971D02*
X10617414Y-41172542D01*
X10617414Y-41172542D02*
X10653128Y-41029685D01*
X10653128Y-41029685D02*
X10653128Y-40922542D01*
X10653128Y-40922542D02*
X10617414Y-40779685D01*
X10617414Y-40779685D02*
X10581700Y-40708257D01*
X10581700Y-40708257D02*
X10510271Y-40636828D01*
X10510271Y-40636828D02*
X10403128Y-40601114D01*
X10403128Y-40601114D02*
X10331700Y-40601114D01*
X10331700Y-40601114D02*
X10224557Y-40636828D01*
X10224557Y-40636828D02*
X10188843Y-40672542D01*
X9545986Y-40851114D02*
X9545986Y-41351114D01*
X9724557Y-40565400D02*
X9903128Y-41101114D01*
X9903128Y-41101114D02*
X9438843Y-41101114D01*
X35798298Y-38772364D02*
X35798298Y-38022364D01*
X35798298Y-38022364D02*
X35619727Y-38022364D01*
X35619727Y-38022364D02*
X35512584Y-38058078D01*
X35512584Y-38058078D02*
X35441155Y-38129507D01*
X35441155Y-38129507D02*
X35405441Y-38200935D01*
X35405441Y-38200935D02*
X35369727Y-38343792D01*
X35369727Y-38343792D02*
X35369727Y-38450935D01*
X35369727Y-38450935D02*
X35405441Y-38593792D01*
X35405441Y-38593792D02*
X35441155Y-38665221D01*
X35441155Y-38665221D02*
X35512584Y-38736650D01*
X35512584Y-38736650D02*
X35619727Y-38772364D01*
X35619727Y-38772364D02*
X35798298Y-38772364D01*
X35048298Y-38772364D02*
X35048298Y-38022364D01*
X34691155Y-38772364D02*
X34691155Y-38022364D01*
X34691155Y-38022364D02*
X34262584Y-38772364D01*
X34262584Y-38772364D02*
X34262584Y-38022364D01*
X35512585Y-39979864D02*
X35762585Y-39622721D01*
X35941156Y-39979864D02*
X35941156Y-39229864D01*
X35941156Y-39229864D02*
X35655442Y-39229864D01*
X35655442Y-39229864D02*
X35584013Y-39265578D01*
X35584013Y-39265578D02*
X35548299Y-39301292D01*
X35548299Y-39301292D02*
X35512585Y-39372721D01*
X35512585Y-39372721D02*
X35512585Y-39479864D01*
X35512585Y-39479864D02*
X35548299Y-39551292D01*
X35548299Y-39551292D02*
X35584013Y-39587007D01*
X35584013Y-39587007D02*
X35655442Y-39622721D01*
X35655442Y-39622721D02*
X35941156Y-39622721D01*
X35226870Y-39944150D02*
X35119728Y-39979864D01*
X35119728Y-39979864D02*
X34941156Y-39979864D01*
X34941156Y-39979864D02*
X34869728Y-39944150D01*
X34869728Y-39944150D02*
X34834013Y-39908435D01*
X34834013Y-39908435D02*
X34798299Y-39837007D01*
X34798299Y-39837007D02*
X34798299Y-39765578D01*
X34798299Y-39765578D02*
X34834013Y-39694150D01*
X34834013Y-39694150D02*
X34869728Y-39658435D01*
X34869728Y-39658435D02*
X34941156Y-39622721D01*
X34941156Y-39622721D02*
X35084013Y-39587007D01*
X35084013Y-39587007D02*
X35155442Y-39551292D01*
X35155442Y-39551292D02*
X35191156Y-39515578D01*
X35191156Y-39515578D02*
X35226870Y-39444150D01*
X35226870Y-39444150D02*
X35226870Y-39372721D01*
X35226870Y-39372721D02*
X35191156Y-39301292D01*
X35191156Y-39301292D02*
X35155442Y-39265578D01*
X35155442Y-39265578D02*
X35084013Y-39229864D01*
X35084013Y-39229864D02*
X34905442Y-39229864D01*
X34905442Y-39229864D02*
X34798299Y-39265578D01*
X34584013Y-39229864D02*
X34155442Y-39229864D01*
X34369727Y-39979864D02*
X34369727Y-39229864D01*
X36044728Y-39021650D02*
X34159013Y-39021650D01*
X36191155Y-40901650D02*
X35619727Y-40901650D01*
X35905441Y-41187364D02*
X35905441Y-40615935D01*
X34905441Y-40437364D02*
X35262584Y-40437364D01*
X35262584Y-40437364D02*
X35298298Y-40794507D01*
X35298298Y-40794507D02*
X35262584Y-40758792D01*
X35262584Y-40758792D02*
X35191156Y-40723078D01*
X35191156Y-40723078D02*
X35012584Y-40723078D01*
X35012584Y-40723078D02*
X34941156Y-40758792D01*
X34941156Y-40758792D02*
X34905441Y-40794507D01*
X34905441Y-40794507D02*
X34869727Y-40865935D01*
X34869727Y-40865935D02*
X34869727Y-41044507D01*
X34869727Y-41044507D02*
X34905441Y-41115935D01*
X34905441Y-41115935D02*
X34941156Y-41151650D01*
X34941156Y-41151650D02*
X35012584Y-41187364D01*
X35012584Y-41187364D02*
X35191156Y-41187364D01*
X35191156Y-41187364D02*
X35262584Y-41151650D01*
X35262584Y-41151650D02*
X35298298Y-41115935D01*
X34655441Y-40437364D02*
X34405441Y-41187364D01*
X34405441Y-41187364D02*
X34155441Y-40437364D01*
X36798300Y-42323435D02*
X36834014Y-42359150D01*
X36834014Y-42359150D02*
X36941157Y-42394864D01*
X36941157Y-42394864D02*
X37012585Y-42394864D01*
X37012585Y-42394864D02*
X37119728Y-42359150D01*
X37119728Y-42359150D02*
X37191157Y-42287721D01*
X37191157Y-42287721D02*
X37226871Y-42216292D01*
X37226871Y-42216292D02*
X37262585Y-42073435D01*
X37262585Y-42073435D02*
X37262585Y-41966292D01*
X37262585Y-41966292D02*
X37226871Y-41823435D01*
X37226871Y-41823435D02*
X37191157Y-41752007D01*
X37191157Y-41752007D02*
X37119728Y-41680578D01*
X37119728Y-41680578D02*
X37012585Y-41644864D01*
X37012585Y-41644864D02*
X36941157Y-41644864D01*
X36941157Y-41644864D02*
X36834014Y-41680578D01*
X36834014Y-41680578D02*
X36798300Y-41716292D01*
X36512585Y-42359150D02*
X36405443Y-42394864D01*
X36405443Y-42394864D02*
X36226871Y-42394864D01*
X36226871Y-42394864D02*
X36155443Y-42359150D01*
X36155443Y-42359150D02*
X36119728Y-42323435D01*
X36119728Y-42323435D02*
X36084014Y-42252007D01*
X36084014Y-42252007D02*
X36084014Y-42180578D01*
X36084014Y-42180578D02*
X36119728Y-42109150D01*
X36119728Y-42109150D02*
X36155443Y-42073435D01*
X36155443Y-42073435D02*
X36226871Y-42037721D01*
X36226871Y-42037721D02*
X36369728Y-42002007D01*
X36369728Y-42002007D02*
X36441157Y-41966292D01*
X36441157Y-41966292D02*
X36476871Y-41930578D01*
X36476871Y-41930578D02*
X36512585Y-41859150D01*
X36512585Y-41859150D02*
X36512585Y-41787721D01*
X36512585Y-41787721D02*
X36476871Y-41716292D01*
X36476871Y-41716292D02*
X36441157Y-41680578D01*
X36441157Y-41680578D02*
X36369728Y-41644864D01*
X36369728Y-41644864D02*
X36191157Y-41644864D01*
X36191157Y-41644864D02*
X36084014Y-41680578D01*
X35941157Y-42466292D02*
X35369728Y-42466292D01*
X35298299Y-41644864D02*
X34869728Y-41644864D01*
X35084013Y-42394864D02*
X35084013Y-41644864D01*
X34655441Y-41716292D02*
X34619727Y-41680578D01*
X34619727Y-41680578D02*
X34548299Y-41644864D01*
X34548299Y-41644864D02*
X34369727Y-41644864D01*
X34369727Y-41644864D02*
X34298299Y-41680578D01*
X34298299Y-41680578D02*
X34262584Y-41716292D01*
X34262584Y-41716292D02*
X34226870Y-41787721D01*
X34226870Y-41787721D02*
X34226870Y-41859150D01*
X34226870Y-41859150D02*
X34262584Y-41966292D01*
X34262584Y-41966292D02*
X34691156Y-42394864D01*
X34691156Y-42394864D02*
X34226870Y-42394864D01*
X37330443Y-41436650D02*
X34159013Y-41436650D01*
X35584013Y-43530935D02*
X35619727Y-43566650D01*
X35619727Y-43566650D02*
X35726870Y-43602364D01*
X35726870Y-43602364D02*
X35798298Y-43602364D01*
X35798298Y-43602364D02*
X35905441Y-43566650D01*
X35905441Y-43566650D02*
X35976870Y-43495221D01*
X35976870Y-43495221D02*
X36012584Y-43423792D01*
X36012584Y-43423792D02*
X36048298Y-43280935D01*
X36048298Y-43280935D02*
X36048298Y-43173792D01*
X36048298Y-43173792D02*
X36012584Y-43030935D01*
X36012584Y-43030935D02*
X35976870Y-42959507D01*
X35976870Y-42959507D02*
X35905441Y-42888078D01*
X35905441Y-42888078D02*
X35798298Y-42852364D01*
X35798298Y-42852364D02*
X35726870Y-42852364D01*
X35726870Y-42852364D02*
X35619727Y-42888078D01*
X35619727Y-42888078D02*
X35584013Y-42923792D01*
X34905441Y-43602364D02*
X35262584Y-43602364D01*
X35262584Y-43602364D02*
X35262584Y-42852364D01*
X34655441Y-43602364D02*
X34655441Y-42852364D01*
X34226870Y-43602364D02*
X34548298Y-43173792D01*
X34226870Y-42852364D02*
X34655441Y-43280935D01*
X35798298Y-44095578D02*
X35869727Y-44059864D01*
X35869727Y-44059864D02*
X35976869Y-44059864D01*
X35976869Y-44059864D02*
X36084012Y-44095578D01*
X36084012Y-44095578D02*
X36155441Y-44167007D01*
X36155441Y-44167007D02*
X36191155Y-44238435D01*
X36191155Y-44238435D02*
X36226869Y-44381292D01*
X36226869Y-44381292D02*
X36226869Y-44488435D01*
X36226869Y-44488435D02*
X36191155Y-44631292D01*
X36191155Y-44631292D02*
X36155441Y-44702721D01*
X36155441Y-44702721D02*
X36084012Y-44774150D01*
X36084012Y-44774150D02*
X35976869Y-44809864D01*
X35976869Y-44809864D02*
X35905441Y-44809864D01*
X35905441Y-44809864D02*
X35798298Y-44774150D01*
X35798298Y-44774150D02*
X35762584Y-44738435D01*
X35762584Y-44738435D02*
X35762584Y-44488435D01*
X35762584Y-44488435D02*
X35905441Y-44488435D01*
X35441155Y-44809864D02*
X35441155Y-44059864D01*
X35441155Y-44059864D02*
X35012584Y-44809864D01*
X35012584Y-44809864D02*
X35012584Y-44059864D01*
X34655441Y-44809864D02*
X34655441Y-44059864D01*
X34655441Y-44059864D02*
X34476870Y-44059864D01*
X34476870Y-44059864D02*
X34369727Y-44095578D01*
X34369727Y-44095578D02*
X34298298Y-44167007D01*
X34298298Y-44167007D02*
X34262584Y-44238435D01*
X34262584Y-44238435D02*
X34226870Y-44381292D01*
X34226870Y-44381292D02*
X34226870Y-44488435D01*
X34226870Y-44488435D02*
X34262584Y-44631292D01*
X34262584Y-44631292D02*
X34298298Y-44702721D01*
X34298298Y-44702721D02*
X34369727Y-44774150D01*
X34369727Y-44774150D02*
X34476870Y-44809864D01*
X34476870Y-44809864D02*
X34655441Y-44809864D01*
X36814282Y-24747364D02*
X36814282Y-23997364D01*
X36814282Y-23997364D02*
X36528568Y-23997364D01*
X36528568Y-23997364D02*
X36457139Y-24033078D01*
X36457139Y-24033078D02*
X36421425Y-24068792D01*
X36421425Y-24068792D02*
X36385711Y-24140221D01*
X36385711Y-24140221D02*
X36385711Y-24247364D01*
X36385711Y-24247364D02*
X36421425Y-24318792D01*
X36421425Y-24318792D02*
X36457139Y-24354507D01*
X36457139Y-24354507D02*
X36528568Y-24390221D01*
X36528568Y-24390221D02*
X36814282Y-24390221D01*
X35957139Y-24747364D02*
X36028568Y-24711650D01*
X36028568Y-24711650D02*
X36064282Y-24675935D01*
X36064282Y-24675935D02*
X36099996Y-24604507D01*
X36099996Y-24604507D02*
X36099996Y-24390221D01*
X36099996Y-24390221D02*
X36064282Y-24318792D01*
X36064282Y-24318792D02*
X36028568Y-24283078D01*
X36028568Y-24283078D02*
X35957139Y-24247364D01*
X35957139Y-24247364D02*
X35849996Y-24247364D01*
X35849996Y-24247364D02*
X35778568Y-24283078D01*
X35778568Y-24283078D02*
X35742854Y-24318792D01*
X35742854Y-24318792D02*
X35707139Y-24390221D01*
X35707139Y-24390221D02*
X35707139Y-24604507D01*
X35707139Y-24604507D02*
X35742854Y-24675935D01*
X35742854Y-24675935D02*
X35778568Y-24711650D01*
X35778568Y-24711650D02*
X35849996Y-24747364D01*
X35849996Y-24747364D02*
X35957139Y-24747364D01*
X35385711Y-24247364D02*
X35385711Y-24997364D01*
X35385711Y-24283078D02*
X35314283Y-24247364D01*
X35314283Y-24247364D02*
X35171425Y-24247364D01*
X35171425Y-24247364D02*
X35099997Y-24283078D01*
X35099997Y-24283078D02*
X35064283Y-24318792D01*
X35064283Y-24318792D02*
X35028568Y-24390221D01*
X35028568Y-24390221D02*
X35028568Y-24604507D01*
X35028568Y-24604507D02*
X35064283Y-24675935D01*
X35064283Y-24675935D02*
X35099997Y-24711650D01*
X35099997Y-24711650D02*
X35171425Y-24747364D01*
X35171425Y-24747364D02*
X35314283Y-24747364D01*
X35314283Y-24747364D02*
X35385711Y-24711650D01*
X34385712Y-24247364D02*
X34385712Y-24747364D01*
X34707140Y-24247364D02*
X34707140Y-24640221D01*
X34707140Y-24640221D02*
X34671426Y-24711650D01*
X34671426Y-24711650D02*
X34599997Y-24747364D01*
X34599997Y-24747364D02*
X34492854Y-24747364D01*
X34492854Y-24747364D02*
X34421426Y-24711650D01*
X34421426Y-24711650D02*
X34385712Y-24675935D01*
X33921426Y-24747364D02*
X33992855Y-24711650D01*
X33992855Y-24711650D02*
X34028569Y-24640221D01*
X34028569Y-24640221D02*
X34028569Y-23997364D01*
X33314284Y-24747364D02*
X33314284Y-24354507D01*
X33314284Y-24354507D02*
X33349998Y-24283078D01*
X33349998Y-24283078D02*
X33421426Y-24247364D01*
X33421426Y-24247364D02*
X33564284Y-24247364D01*
X33564284Y-24247364D02*
X33635712Y-24283078D01*
X33314284Y-24711650D02*
X33385712Y-24747364D01*
X33385712Y-24747364D02*
X33564284Y-24747364D01*
X33564284Y-24747364D02*
X33635712Y-24711650D01*
X33635712Y-24711650D02*
X33671426Y-24640221D01*
X33671426Y-24640221D02*
X33671426Y-24568792D01*
X33671426Y-24568792D02*
X33635712Y-24497364D01*
X33635712Y-24497364D02*
X33564284Y-24461650D01*
X33564284Y-24461650D02*
X33385712Y-24461650D01*
X33385712Y-24461650D02*
X33314284Y-24425935D01*
X33064284Y-24247364D02*
X32778570Y-24247364D01*
X32957141Y-23997364D02*
X32957141Y-24640221D01*
X32957141Y-24640221D02*
X32921427Y-24711650D01*
X32921427Y-24711650D02*
X32849998Y-24747364D01*
X32849998Y-24747364D02*
X32778570Y-24747364D01*
X32242856Y-24711650D02*
X32314284Y-24747364D01*
X32314284Y-24747364D02*
X32457142Y-24747364D01*
X32457142Y-24747364D02*
X32528570Y-24711650D01*
X32528570Y-24711650D02*
X32564284Y-24640221D01*
X32564284Y-24640221D02*
X32564284Y-24354507D01*
X32564284Y-24354507D02*
X32528570Y-24283078D01*
X32528570Y-24283078D02*
X32457142Y-24247364D01*
X32457142Y-24247364D02*
X32314284Y-24247364D01*
X32314284Y-24247364D02*
X32242856Y-24283078D01*
X32242856Y-24283078D02*
X32207142Y-24354507D01*
X32207142Y-24354507D02*
X32207142Y-24425935D01*
X32207142Y-24425935D02*
X32564284Y-24497364D01*
X42528571Y-25454864D02*
X42242857Y-25454864D01*
X42421428Y-25954864D02*
X42421428Y-25312007D01*
X42421428Y-25312007D02*
X42385714Y-25240578D01*
X42385714Y-25240578D02*
X42314285Y-25204864D01*
X42314285Y-25204864D02*
X42242857Y-25204864D01*
X41885714Y-25954864D02*
X41957143Y-25919150D01*
X41957143Y-25919150D02*
X41992857Y-25883435D01*
X41992857Y-25883435D02*
X42028571Y-25812007D01*
X42028571Y-25812007D02*
X42028571Y-25597721D01*
X42028571Y-25597721D02*
X41992857Y-25526292D01*
X41992857Y-25526292D02*
X41957143Y-25490578D01*
X41957143Y-25490578D02*
X41885714Y-25454864D01*
X41885714Y-25454864D02*
X41778571Y-25454864D01*
X41778571Y-25454864D02*
X41707143Y-25490578D01*
X41707143Y-25490578D02*
X41671429Y-25526292D01*
X41671429Y-25526292D02*
X41635714Y-25597721D01*
X41635714Y-25597721D02*
X41635714Y-25812007D01*
X41635714Y-25812007D02*
X41671429Y-25883435D01*
X41671429Y-25883435D02*
X41707143Y-25919150D01*
X41707143Y-25919150D02*
X41778571Y-25954864D01*
X41778571Y-25954864D02*
X41885714Y-25954864D01*
X41314286Y-25954864D02*
X41314286Y-25454864D01*
X41314286Y-25597721D02*
X41278572Y-25526292D01*
X41278572Y-25526292D02*
X41242858Y-25490578D01*
X41242858Y-25490578D02*
X41171429Y-25454864D01*
X41171429Y-25454864D02*
X41100000Y-25454864D01*
X40314285Y-25276292D02*
X40278571Y-25240578D01*
X40278571Y-25240578D02*
X40207143Y-25204864D01*
X40207143Y-25204864D02*
X40028571Y-25204864D01*
X40028571Y-25204864D02*
X39957143Y-25240578D01*
X39957143Y-25240578D02*
X39921428Y-25276292D01*
X39921428Y-25276292D02*
X39885714Y-25347721D01*
X39885714Y-25347721D02*
X39885714Y-25419150D01*
X39885714Y-25419150D02*
X39921428Y-25526292D01*
X39921428Y-25526292D02*
X40350000Y-25954864D01*
X40350000Y-25954864D02*
X39885714Y-25954864D01*
X39564285Y-25883435D02*
X39528571Y-25919150D01*
X39528571Y-25919150D02*
X39564285Y-25954864D01*
X39564285Y-25954864D02*
X39599999Y-25919150D01*
X39599999Y-25919150D02*
X39564285Y-25883435D01*
X39564285Y-25883435D02*
X39564285Y-25954864D01*
X38849999Y-25204864D02*
X39207142Y-25204864D01*
X39207142Y-25204864D02*
X39242856Y-25562007D01*
X39242856Y-25562007D02*
X39207142Y-25526292D01*
X39207142Y-25526292D02*
X39135714Y-25490578D01*
X39135714Y-25490578D02*
X38957142Y-25490578D01*
X38957142Y-25490578D02*
X38885714Y-25526292D01*
X38885714Y-25526292D02*
X38849999Y-25562007D01*
X38849999Y-25562007D02*
X38814285Y-25633435D01*
X38814285Y-25633435D02*
X38814285Y-25812007D01*
X38814285Y-25812007D02*
X38849999Y-25883435D01*
X38849999Y-25883435D02*
X38885714Y-25919150D01*
X38885714Y-25919150D02*
X38957142Y-25954864D01*
X38957142Y-25954864D02*
X39135714Y-25954864D01*
X39135714Y-25954864D02*
X39207142Y-25919150D01*
X39207142Y-25919150D02*
X39242856Y-25883435D01*
X38599999Y-25204864D02*
X38349999Y-25954864D01*
X38349999Y-25954864D02*
X38099999Y-25204864D01*
X37171427Y-25954864D02*
X37242856Y-25919150D01*
X37242856Y-25919150D02*
X37278570Y-25883435D01*
X37278570Y-25883435D02*
X37314284Y-25812007D01*
X37314284Y-25812007D02*
X37314284Y-25597721D01*
X37314284Y-25597721D02*
X37278570Y-25526292D01*
X37278570Y-25526292D02*
X37242856Y-25490578D01*
X37242856Y-25490578D02*
X37171427Y-25454864D01*
X37171427Y-25454864D02*
X37064284Y-25454864D01*
X37064284Y-25454864D02*
X36992856Y-25490578D01*
X36992856Y-25490578D02*
X36957142Y-25526292D01*
X36957142Y-25526292D02*
X36921427Y-25597721D01*
X36921427Y-25597721D02*
X36921427Y-25812007D01*
X36921427Y-25812007D02*
X36957142Y-25883435D01*
X36957142Y-25883435D02*
X36992856Y-25919150D01*
X36992856Y-25919150D02*
X37064284Y-25954864D01*
X37064284Y-25954864D02*
X37171427Y-25954864D01*
X36599999Y-25454864D02*
X36599999Y-25954864D01*
X36599999Y-25526292D02*
X36564285Y-25490578D01*
X36564285Y-25490578D02*
X36492856Y-25454864D01*
X36492856Y-25454864D02*
X36385713Y-25454864D01*
X36385713Y-25454864D02*
X36314285Y-25490578D01*
X36314285Y-25490578D02*
X36278571Y-25562007D01*
X36278571Y-25562007D02*
X36278571Y-25954864D01*
X34921428Y-25954864D02*
X35171428Y-25597721D01*
X35349999Y-25954864D02*
X35349999Y-25204864D01*
X35349999Y-25204864D02*
X35064285Y-25204864D01*
X35064285Y-25204864D02*
X34992856Y-25240578D01*
X34992856Y-25240578D02*
X34957142Y-25276292D01*
X34957142Y-25276292D02*
X34921428Y-25347721D01*
X34921428Y-25347721D02*
X34921428Y-25454864D01*
X34921428Y-25454864D02*
X34957142Y-25526292D01*
X34957142Y-25526292D02*
X34992856Y-25562007D01*
X34992856Y-25562007D02*
X35064285Y-25597721D01*
X35064285Y-25597721D02*
X35349999Y-25597721D01*
X34599999Y-25562007D02*
X34349999Y-25562007D01*
X34242856Y-25954864D02*
X34599999Y-25954864D01*
X34599999Y-25954864D02*
X34599999Y-25204864D01*
X34599999Y-25204864D02*
X34242856Y-25204864D01*
X33671428Y-25562007D02*
X33921428Y-25562007D01*
X33921428Y-25954864D02*
X33921428Y-25204864D01*
X33921428Y-25204864D02*
X33564285Y-25204864D01*
X33278571Y-25954864D02*
X33278571Y-25204864D01*
X32921428Y-25954864D02*
X32921428Y-25204864D01*
X32921428Y-25204864D02*
X32492857Y-25954864D01*
X32492857Y-25954864D02*
X32492857Y-25204864D01*
X32171428Y-25276292D02*
X32135714Y-25240578D01*
X32135714Y-25240578D02*
X32064286Y-25204864D01*
X32064286Y-25204864D02*
X31885714Y-25204864D01*
X31885714Y-25204864D02*
X31814286Y-25240578D01*
X31814286Y-25240578D02*
X31778571Y-25276292D01*
X31778571Y-25276292D02*
X31742857Y-25347721D01*
X31742857Y-25347721D02*
X31742857Y-25419150D01*
X31742857Y-25419150D02*
X31778571Y-25526292D01*
X31778571Y-25526292D02*
X32207143Y-25954864D01*
X32207143Y-25954864D02*
X31742857Y-25954864D01*
D11*
X6065713Y-20930057D02*
X6018094Y-20882438D01*
X6018094Y-20882438D02*
X5922856Y-20834819D01*
X5922856Y-20834819D02*
X5684761Y-20834819D01*
X5684761Y-20834819D02*
X5589523Y-20882438D01*
X5589523Y-20882438D02*
X5541904Y-20930057D01*
X5541904Y-20930057D02*
X5494285Y-21025295D01*
X5494285Y-21025295D02*
X5494285Y-21120533D01*
X5494285Y-21120533D02*
X5541904Y-21263390D01*
X5541904Y-21263390D02*
X6113332Y-21834819D01*
X6113332Y-21834819D02*
X5494285Y-21834819D01*
X7012142Y-16209580D02*
X7059761Y-16257200D01*
X7059761Y-16257200D02*
X7202618Y-16304819D01*
X7202618Y-16304819D02*
X7297856Y-16304819D01*
X7297856Y-16304819D02*
X7440713Y-16257200D01*
X7440713Y-16257200D02*
X7535951Y-16161961D01*
X7535951Y-16161961D02*
X7583570Y-16066723D01*
X7583570Y-16066723D02*
X7631189Y-15876247D01*
X7631189Y-15876247D02*
X7631189Y-15733390D01*
X7631189Y-15733390D02*
X7583570Y-15542914D01*
X7583570Y-15542914D02*
X7535951Y-15447676D01*
X7535951Y-15447676D02*
X7440713Y-15352438D01*
X7440713Y-15352438D02*
X7297856Y-15304819D01*
X7297856Y-15304819D02*
X7202618Y-15304819D01*
X7202618Y-15304819D02*
X7059761Y-15352438D01*
X7059761Y-15352438D02*
X7012142Y-15400057D01*
X6583570Y-16304819D02*
X6583570Y-15304819D01*
X6154999Y-16304819D02*
X6154999Y-15781009D01*
X6154999Y-15781009D02*
X6202618Y-15685771D01*
X6202618Y-15685771D02*
X6297856Y-15638152D01*
X6297856Y-15638152D02*
X6440713Y-15638152D01*
X6440713Y-15638152D02*
X6535951Y-15685771D01*
X6535951Y-15685771D02*
X6583570Y-15733390D01*
X5678808Y-16304819D02*
X5678808Y-15638152D01*
X5678808Y-15304819D02*
X5726427Y-15352438D01*
X5726427Y-15352438D02*
X5678808Y-15400057D01*
X5678808Y-15400057D02*
X5631189Y-15352438D01*
X5631189Y-15352438D02*
X5678808Y-15304819D01*
X5678808Y-15304819D02*
X5678808Y-15400057D01*
X5202618Y-15638152D02*
X5202618Y-16638152D01*
X5202618Y-15685771D02*
X5107380Y-15638152D01*
X5107380Y-15638152D02*
X4916904Y-15638152D01*
X4916904Y-15638152D02*
X4821666Y-15685771D01*
X4821666Y-15685771D02*
X4774047Y-15733390D01*
X4774047Y-15733390D02*
X4726428Y-15828628D01*
X4726428Y-15828628D02*
X4726428Y-16114342D01*
X4726428Y-16114342D02*
X4774047Y-16209580D01*
X4774047Y-16209580D02*
X4821666Y-16257200D01*
X4821666Y-16257200D02*
X4916904Y-16304819D01*
X4916904Y-16304819D02*
X5107380Y-16304819D01*
X5107380Y-16304819D02*
X5202618Y-16257200D01*
X3535951Y-16304819D02*
X3535951Y-15304819D01*
X3535951Y-15304819D02*
X2964523Y-16304819D01*
X2964523Y-16304819D02*
X2964523Y-15304819D01*
X2059761Y-15638152D02*
X2059761Y-16304819D01*
X2488332Y-15638152D02*
X2488332Y-16161961D01*
X2488332Y-16161961D02*
X2440713Y-16257200D01*
X2440713Y-16257200D02*
X2345475Y-16304819D01*
X2345475Y-16304819D02*
X2202618Y-16304819D01*
X2202618Y-16304819D02*
X2107380Y-16257200D01*
X2107380Y-16257200D02*
X2059761Y-16209580D01*
X1583570Y-16304819D02*
X1583570Y-15638152D01*
X1583570Y-15733390D02*
X1535951Y-15685771D01*
X1535951Y-15685771D02*
X1440713Y-15638152D01*
X1440713Y-15638152D02*
X1297856Y-15638152D01*
X1297856Y-15638152D02*
X1202618Y-15685771D01*
X1202618Y-15685771D02*
X1154999Y-15781009D01*
X1154999Y-15781009D02*
X1154999Y-16304819D01*
X1154999Y-15781009D02*
X1107380Y-15685771D01*
X1107380Y-15685771D02*
X1012142Y-15638152D01*
X1012142Y-15638152D02*
X869285Y-15638152D01*
X869285Y-15638152D02*
X774046Y-15685771D01*
X774046Y-15685771D02*
X726427Y-15781009D01*
X726427Y-15781009D02*
X726427Y-16304819D01*
X38264649Y-49112366D02*
X38031316Y-49112366D01*
X37931316Y-49479033D02*
X38264649Y-49479033D01*
X38264649Y-49479033D02*
X38264649Y-48779033D01*
X38264649Y-48779033D02*
X37931316Y-48779033D01*
X37731316Y-48779033D02*
X37331316Y-48779033D01*
X37531316Y-49479033D02*
X37531316Y-48779033D01*
X36764650Y-49479033D02*
X37097983Y-49479033D01*
X37097983Y-49479033D02*
X37097983Y-48779033D01*
X35997983Y-49479033D02*
X35997983Y-48779033D01*
X35997983Y-48779033D02*
X35764650Y-49279033D01*
X35764650Y-49279033D02*
X35531316Y-48779033D01*
X35531316Y-48779033D02*
X35531316Y-49479033D01*
X35097983Y-49479033D02*
X35164650Y-49445700D01*
X35164650Y-49445700D02*
X35197983Y-49412366D01*
X35197983Y-49412366D02*
X35231316Y-49345700D01*
X35231316Y-49345700D02*
X35231316Y-49145700D01*
X35231316Y-49145700D02*
X35197983Y-49079033D01*
X35197983Y-49079033D02*
X35164650Y-49045700D01*
X35164650Y-49045700D02*
X35097983Y-49012366D01*
X35097983Y-49012366D02*
X34997983Y-49012366D01*
X34997983Y-49012366D02*
X34931316Y-49045700D01*
X34931316Y-49045700D02*
X34897983Y-49079033D01*
X34897983Y-49079033D02*
X34864650Y-49145700D01*
X34864650Y-49145700D02*
X34864650Y-49345700D01*
X34864650Y-49345700D02*
X34897983Y-49412366D01*
X34897983Y-49412366D02*
X34931316Y-49445700D01*
X34931316Y-49445700D02*
X34997983Y-49479033D01*
X34997983Y-49479033D02*
X35097983Y-49479033D01*
X34264650Y-49479033D02*
X34264650Y-48779033D01*
X34264650Y-49445700D02*
X34331317Y-49479033D01*
X34331317Y-49479033D02*
X34464650Y-49479033D01*
X34464650Y-49479033D02*
X34531317Y-49445700D01*
X34531317Y-49445700D02*
X34564650Y-49412366D01*
X34564650Y-49412366D02*
X34597983Y-49345700D01*
X34597983Y-49345700D02*
X34597983Y-49145700D01*
X34597983Y-49145700D02*
X34564650Y-49079033D01*
X34564650Y-49079033D02*
X34531317Y-49045700D01*
X34531317Y-49045700D02*
X34464650Y-49012366D01*
X34464650Y-49012366D02*
X34331317Y-49012366D01*
X34331317Y-49012366D02*
X34264650Y-49045700D01*
X33631317Y-49012366D02*
X33631317Y-49479033D01*
X33931317Y-49012366D02*
X33931317Y-49379033D01*
X33931317Y-49379033D02*
X33897984Y-49445700D01*
X33897984Y-49445700D02*
X33831317Y-49479033D01*
X33831317Y-49479033D02*
X33731317Y-49479033D01*
X33731317Y-49479033D02*
X33664650Y-49445700D01*
X33664650Y-49445700D02*
X33631317Y-49412366D01*
X33197984Y-49479033D02*
X33264651Y-49445700D01*
X33264651Y-49445700D02*
X33297984Y-49379033D01*
X33297984Y-49379033D02*
X33297984Y-48779033D01*
X32664650Y-49445700D02*
X32731317Y-49479033D01*
X32731317Y-49479033D02*
X32864650Y-49479033D01*
X32864650Y-49479033D02*
X32931317Y-49445700D01*
X32931317Y-49445700D02*
X32964650Y-49379033D01*
X32964650Y-49379033D02*
X32964650Y-49112366D01*
X32964650Y-49112366D02*
X32931317Y-49045700D01*
X32931317Y-49045700D02*
X32864650Y-49012366D01*
X32864650Y-49012366D02*
X32731317Y-49012366D01*
X32731317Y-49012366D02*
X32664650Y-49045700D01*
X32664650Y-49045700D02*
X32631317Y-49112366D01*
X32631317Y-49112366D02*
X32631317Y-49179033D01*
X32631317Y-49179033D02*
X32964650Y-49245700D01*
X31797984Y-49479033D02*
X31797984Y-48779033D01*
X31797984Y-48779033D02*
X31531317Y-48779033D01*
X31531317Y-48779033D02*
X31464651Y-48812366D01*
X31464651Y-48812366D02*
X31431317Y-48845700D01*
X31431317Y-48845700D02*
X31397984Y-48912366D01*
X31397984Y-48912366D02*
X31397984Y-49012366D01*
X31397984Y-49012366D02*
X31431317Y-49079033D01*
X31431317Y-49079033D02*
X31464651Y-49112366D01*
X31464651Y-49112366D02*
X31531317Y-49145700D01*
X31531317Y-49145700D02*
X31797984Y-49145700D01*
X30697984Y-49412366D02*
X30731317Y-49445700D01*
X30731317Y-49445700D02*
X30831317Y-49479033D01*
X30831317Y-49479033D02*
X30897984Y-49479033D01*
X30897984Y-49479033D02*
X30997984Y-49445700D01*
X30997984Y-49445700D02*
X31064651Y-49379033D01*
X31064651Y-49379033D02*
X31097984Y-49312366D01*
X31097984Y-49312366D02*
X31131317Y-49179033D01*
X31131317Y-49179033D02*
X31131317Y-49079033D01*
X31131317Y-49079033D02*
X31097984Y-48945700D01*
X31097984Y-48945700D02*
X31064651Y-48879033D01*
X31064651Y-48879033D02*
X30997984Y-48812366D01*
X30997984Y-48812366D02*
X30897984Y-48779033D01*
X30897984Y-48779033D02*
X30831317Y-48779033D01*
X30831317Y-48779033D02*
X30731317Y-48812366D01*
X30731317Y-48812366D02*
X30697984Y-48845700D01*
X30164651Y-49112366D02*
X30064651Y-49145700D01*
X30064651Y-49145700D02*
X30031317Y-49179033D01*
X30031317Y-49179033D02*
X29997984Y-49245700D01*
X29997984Y-49245700D02*
X29997984Y-49345700D01*
X29997984Y-49345700D02*
X30031317Y-49412366D01*
X30031317Y-49412366D02*
X30064651Y-49445700D01*
X30064651Y-49445700D02*
X30131317Y-49479033D01*
X30131317Y-49479033D02*
X30397984Y-49479033D01*
X30397984Y-49479033D02*
X30397984Y-48779033D01*
X30397984Y-48779033D02*
X30164651Y-48779033D01*
X30164651Y-48779033D02*
X30097984Y-48812366D01*
X30097984Y-48812366D02*
X30064651Y-48845700D01*
X30064651Y-48845700D02*
X30031317Y-48912366D01*
X30031317Y-48912366D02*
X30031317Y-48979033D01*
X30031317Y-48979033D02*
X30064651Y-49045700D01*
X30064651Y-49045700D02*
X30097984Y-49079033D01*
X30097984Y-49079033D02*
X30164651Y-49112366D01*
X30164651Y-49112366D02*
X30397984Y-49112366D01*
X29264651Y-48779033D02*
X28864651Y-48779033D01*
X29064651Y-49479033D02*
X29064651Y-48779033D01*
X28631318Y-49479033D02*
X28631318Y-48779033D01*
X28331318Y-49479033D02*
X28331318Y-49112366D01*
X28331318Y-49112366D02*
X28364651Y-49045700D01*
X28364651Y-49045700D02*
X28431318Y-49012366D01*
X28431318Y-49012366D02*
X28531318Y-49012366D01*
X28531318Y-49012366D02*
X28597985Y-49045700D01*
X28597985Y-49045700D02*
X28631318Y-49079033D01*
X27731318Y-49445700D02*
X27797985Y-49479033D01*
X27797985Y-49479033D02*
X27931318Y-49479033D01*
X27931318Y-49479033D02*
X27997985Y-49445700D01*
X27997985Y-49445700D02*
X28031318Y-49379033D01*
X28031318Y-49379033D02*
X28031318Y-49112366D01*
X28031318Y-49112366D02*
X27997985Y-49045700D01*
X27997985Y-49045700D02*
X27931318Y-49012366D01*
X27931318Y-49012366D02*
X27797985Y-49012366D01*
X27797985Y-49012366D02*
X27731318Y-49045700D01*
X27731318Y-49045700D02*
X27697985Y-49112366D01*
X27697985Y-49112366D02*
X27697985Y-49179033D01*
X27697985Y-49179033D02*
X28031318Y-49245700D01*
X27397985Y-49479033D02*
X27397985Y-49012366D01*
X27397985Y-49145700D02*
X27364652Y-49079033D01*
X27364652Y-49079033D02*
X27331318Y-49045700D01*
X27331318Y-49045700D02*
X27264652Y-49012366D01*
X27264652Y-49012366D02*
X27197985Y-49012366D01*
X26964652Y-49479033D02*
X26964652Y-49012366D01*
X26964652Y-49079033D02*
X26931319Y-49045700D01*
X26931319Y-49045700D02*
X26864652Y-49012366D01*
X26864652Y-49012366D02*
X26764652Y-49012366D01*
X26764652Y-49012366D02*
X26697985Y-49045700D01*
X26697985Y-49045700D02*
X26664652Y-49112366D01*
X26664652Y-49112366D02*
X26664652Y-49479033D01*
X26664652Y-49112366D02*
X26631319Y-49045700D01*
X26631319Y-49045700D02*
X26564652Y-49012366D01*
X26564652Y-49012366D02*
X26464652Y-49012366D01*
X26464652Y-49012366D02*
X26397985Y-49045700D01*
X26397985Y-49045700D02*
X26364652Y-49112366D01*
X26364652Y-49112366D02*
X26364652Y-49479033D01*
X25731319Y-49479033D02*
X25731319Y-49112366D01*
X25731319Y-49112366D02*
X25764652Y-49045700D01*
X25764652Y-49045700D02*
X25831319Y-49012366D01*
X25831319Y-49012366D02*
X25964652Y-49012366D01*
X25964652Y-49012366D02*
X26031319Y-49045700D01*
X25731319Y-49445700D02*
X25797986Y-49479033D01*
X25797986Y-49479033D02*
X25964652Y-49479033D01*
X25964652Y-49479033D02*
X26031319Y-49445700D01*
X26031319Y-49445700D02*
X26064652Y-49379033D01*
X26064652Y-49379033D02*
X26064652Y-49312366D01*
X26064652Y-49312366D02*
X26031319Y-49245700D01*
X26031319Y-49245700D02*
X25964652Y-49212366D01*
X25964652Y-49212366D02*
X25797986Y-49212366D01*
X25797986Y-49212366D02*
X25731319Y-49179033D01*
X25297986Y-49479033D02*
X25364653Y-49445700D01*
X25364653Y-49445700D02*
X25397986Y-49379033D01*
X25397986Y-49379033D02*
X25397986Y-48779033D01*
X24497986Y-49479033D02*
X24497986Y-48779033D01*
X24497986Y-48779033D02*
X24264653Y-49279033D01*
X24264653Y-49279033D02*
X24031319Y-48779033D01*
X24031319Y-48779033D02*
X24031319Y-49479033D01*
X23597986Y-49479033D02*
X23664653Y-49445700D01*
X23664653Y-49445700D02*
X23697986Y-49412366D01*
X23697986Y-49412366D02*
X23731319Y-49345700D01*
X23731319Y-49345700D02*
X23731319Y-49145700D01*
X23731319Y-49145700D02*
X23697986Y-49079033D01*
X23697986Y-49079033D02*
X23664653Y-49045700D01*
X23664653Y-49045700D02*
X23597986Y-49012366D01*
X23597986Y-49012366D02*
X23497986Y-49012366D01*
X23497986Y-49012366D02*
X23431319Y-49045700D01*
X23431319Y-49045700D02*
X23397986Y-49079033D01*
X23397986Y-49079033D02*
X23364653Y-49145700D01*
X23364653Y-49145700D02*
X23364653Y-49345700D01*
X23364653Y-49345700D02*
X23397986Y-49412366D01*
X23397986Y-49412366D02*
X23431319Y-49445700D01*
X23431319Y-49445700D02*
X23497986Y-49479033D01*
X23497986Y-49479033D02*
X23597986Y-49479033D01*
X22764653Y-49445700D02*
X22831320Y-49479033D01*
X22831320Y-49479033D02*
X22964653Y-49479033D01*
X22964653Y-49479033D02*
X23031320Y-49445700D01*
X23031320Y-49445700D02*
X23064653Y-49412366D01*
X23064653Y-49412366D02*
X23097986Y-49345700D01*
X23097986Y-49345700D02*
X23097986Y-49145700D01*
X23097986Y-49145700D02*
X23064653Y-49079033D01*
X23064653Y-49079033D02*
X23031320Y-49045700D01*
X23031320Y-49045700D02*
X22964653Y-49012366D01*
X22964653Y-49012366D02*
X22831320Y-49012366D01*
X22831320Y-49012366D02*
X22764653Y-49045700D01*
X22464653Y-49479033D02*
X22464653Y-48779033D01*
X22397986Y-49212366D02*
X22197986Y-49479033D01*
X22197986Y-49012366D02*
X22464653Y-49279033D01*
X21597986Y-49012366D02*
X21597986Y-49479033D01*
X21897986Y-49012366D02*
X21897986Y-49379033D01*
X21897986Y-49379033D02*
X21864653Y-49445700D01*
X21864653Y-49445700D02*
X21797986Y-49479033D01*
X21797986Y-49479033D02*
X21697986Y-49479033D01*
X21697986Y-49479033D02*
X21631319Y-49445700D01*
X21631319Y-49445700D02*
X21597986Y-49412366D01*
X21264653Y-49012366D02*
X21264653Y-49712366D01*
X21264653Y-49045700D02*
X21197986Y-49012366D01*
X21197986Y-49012366D02*
X21064653Y-49012366D01*
X21064653Y-49012366D02*
X20997986Y-49045700D01*
X20997986Y-49045700D02*
X20964653Y-49079033D01*
X20964653Y-49079033D02*
X20931320Y-49145700D01*
X20931320Y-49145700D02*
X20931320Y-49345700D01*
X20931320Y-49345700D02*
X20964653Y-49412366D01*
X20964653Y-49412366D02*
X20997986Y-49445700D01*
X20997986Y-49445700D02*
X21064653Y-49479033D01*
X21064653Y-49479033D02*
X21197986Y-49479033D01*
X21197986Y-49479033D02*
X21264653Y-49445700D01*
X20197987Y-48779033D02*
X19964654Y-49479033D01*
X19964654Y-49479033D02*
X19731320Y-48779033D01*
X19564654Y-48779033D02*
X19131320Y-48779033D01*
X19131320Y-48779033D02*
X19364654Y-49045700D01*
X19364654Y-49045700D02*
X19264654Y-49045700D01*
X19264654Y-49045700D02*
X19197987Y-49079033D01*
X19197987Y-49079033D02*
X19164654Y-49112366D01*
X19164654Y-49112366D02*
X19131320Y-49179033D01*
X19131320Y-49179033D02*
X19131320Y-49345700D01*
X19131320Y-49345700D02*
X19164654Y-49412366D01*
X19164654Y-49412366D02*
X19197987Y-49445700D01*
X19197987Y-49445700D02*
X19264654Y-49479033D01*
X19264654Y-49479033D02*
X19464654Y-49479033D01*
X19464654Y-49479033D02*
X19531320Y-49445700D01*
X19531320Y-49445700D02*
X19564654Y-49412366D01*
X18831320Y-49412366D02*
X18797987Y-49445700D01*
X18797987Y-49445700D02*
X18831320Y-49479033D01*
X18831320Y-49479033D02*
X18864653Y-49445700D01*
X18864653Y-49445700D02*
X18831320Y-49412366D01*
X18831320Y-49412366D02*
X18831320Y-49479033D01*
X18164654Y-48779033D02*
X18497987Y-48779033D01*
X18497987Y-48779033D02*
X18531320Y-49112366D01*
X18531320Y-49112366D02*
X18497987Y-49079033D01*
X18497987Y-49079033D02*
X18431320Y-49045700D01*
X18431320Y-49045700D02*
X18264654Y-49045700D01*
X18264654Y-49045700D02*
X18197987Y-49079033D01*
X18197987Y-49079033D02*
X18164654Y-49112366D01*
X18164654Y-49112366D02*
X18131320Y-49179033D01*
X18131320Y-49179033D02*
X18131320Y-49345700D01*
X18131320Y-49345700D02*
X18164654Y-49412366D01*
X18164654Y-49412366D02*
X18197987Y-49445700D01*
X18197987Y-49445700D02*
X18264654Y-49479033D01*
X18264654Y-49479033D02*
X18431320Y-49479033D01*
X18431320Y-49479033D02*
X18497987Y-49445700D01*
X18497987Y-49445700D02*
X18531320Y-49412366D01*
X38031316Y-50239366D02*
X37931316Y-50272700D01*
X37931316Y-50272700D02*
X37897982Y-50306033D01*
X37897982Y-50306033D02*
X37864649Y-50372700D01*
X37864649Y-50372700D02*
X37864649Y-50472700D01*
X37864649Y-50472700D02*
X37897982Y-50539366D01*
X37897982Y-50539366D02*
X37931316Y-50572700D01*
X37931316Y-50572700D02*
X37997982Y-50606033D01*
X37997982Y-50606033D02*
X38264649Y-50606033D01*
X38264649Y-50606033D02*
X38264649Y-49906033D01*
X38264649Y-49906033D02*
X38031316Y-49906033D01*
X38031316Y-49906033D02*
X37964649Y-49939366D01*
X37964649Y-49939366D02*
X37931316Y-49972700D01*
X37931316Y-49972700D02*
X37897982Y-50039366D01*
X37897982Y-50039366D02*
X37897982Y-50106033D01*
X37897982Y-50106033D02*
X37931316Y-50172700D01*
X37931316Y-50172700D02*
X37964649Y-50206033D01*
X37964649Y-50206033D02*
X38031316Y-50239366D01*
X38031316Y-50239366D02*
X38264649Y-50239366D01*
X37464649Y-50606033D02*
X37531316Y-50572700D01*
X37531316Y-50572700D02*
X37564649Y-50539366D01*
X37564649Y-50539366D02*
X37597982Y-50472700D01*
X37597982Y-50472700D02*
X37597982Y-50272700D01*
X37597982Y-50272700D02*
X37564649Y-50206033D01*
X37564649Y-50206033D02*
X37531316Y-50172700D01*
X37531316Y-50172700D02*
X37464649Y-50139366D01*
X37464649Y-50139366D02*
X37364649Y-50139366D01*
X37364649Y-50139366D02*
X37297982Y-50172700D01*
X37297982Y-50172700D02*
X37264649Y-50206033D01*
X37264649Y-50206033D02*
X37231316Y-50272700D01*
X37231316Y-50272700D02*
X37231316Y-50472700D01*
X37231316Y-50472700D02*
X37264649Y-50539366D01*
X37264649Y-50539366D02*
X37297982Y-50572700D01*
X37297982Y-50572700D02*
X37364649Y-50606033D01*
X37364649Y-50606033D02*
X37464649Y-50606033D01*
X36964649Y-50572700D02*
X36897983Y-50606033D01*
X36897983Y-50606033D02*
X36764649Y-50606033D01*
X36764649Y-50606033D02*
X36697983Y-50572700D01*
X36697983Y-50572700D02*
X36664649Y-50506033D01*
X36664649Y-50506033D02*
X36664649Y-50472700D01*
X36664649Y-50472700D02*
X36697983Y-50406033D01*
X36697983Y-50406033D02*
X36764649Y-50372700D01*
X36764649Y-50372700D02*
X36864649Y-50372700D01*
X36864649Y-50372700D02*
X36931316Y-50339366D01*
X36931316Y-50339366D02*
X36964649Y-50272700D01*
X36964649Y-50272700D02*
X36964649Y-50239366D01*
X36964649Y-50239366D02*
X36931316Y-50172700D01*
X36931316Y-50172700D02*
X36864649Y-50139366D01*
X36864649Y-50139366D02*
X36764649Y-50139366D01*
X36764649Y-50139366D02*
X36697983Y-50172700D01*
X36464649Y-50139366D02*
X36197982Y-50139366D01*
X36364649Y-49906033D02*
X36364649Y-50506033D01*
X36364649Y-50506033D02*
X36331316Y-50572700D01*
X36331316Y-50572700D02*
X36264649Y-50606033D01*
X36264649Y-50606033D02*
X36197982Y-50606033D01*
X35864649Y-50606033D02*
X35931316Y-50572700D01*
X35931316Y-50572700D02*
X35964649Y-50539366D01*
X35964649Y-50539366D02*
X35997982Y-50472700D01*
X35997982Y-50472700D02*
X35997982Y-50272700D01*
X35997982Y-50272700D02*
X35964649Y-50206033D01*
X35964649Y-50206033D02*
X35931316Y-50172700D01*
X35931316Y-50172700D02*
X35864649Y-50139366D01*
X35864649Y-50139366D02*
X35764649Y-50139366D01*
X35764649Y-50139366D02*
X35697982Y-50172700D01*
X35697982Y-50172700D02*
X35664649Y-50206033D01*
X35664649Y-50206033D02*
X35631316Y-50272700D01*
X35631316Y-50272700D02*
X35631316Y-50472700D01*
X35631316Y-50472700D02*
X35664649Y-50539366D01*
X35664649Y-50539366D02*
X35697982Y-50572700D01*
X35697982Y-50572700D02*
X35764649Y-50606033D01*
X35764649Y-50606033D02*
X35864649Y-50606033D01*
X35331316Y-50139366D02*
X35331316Y-50606033D01*
X35331316Y-50206033D02*
X35297983Y-50172700D01*
X35297983Y-50172700D02*
X35231316Y-50139366D01*
X35231316Y-50139366D02*
X35131316Y-50139366D01*
X35131316Y-50139366D02*
X35064649Y-50172700D01*
X35064649Y-50172700D02*
X35031316Y-50239366D01*
X35031316Y-50239366D02*
X35031316Y-50606033D01*
X34164650Y-49906033D02*
X34164650Y-50472700D01*
X34164650Y-50472700D02*
X34131317Y-50539366D01*
X34131317Y-50539366D02*
X34097983Y-50572700D01*
X34097983Y-50572700D02*
X34031317Y-50606033D01*
X34031317Y-50606033D02*
X33897983Y-50606033D01*
X33897983Y-50606033D02*
X33831317Y-50572700D01*
X33831317Y-50572700D02*
X33797983Y-50539366D01*
X33797983Y-50539366D02*
X33764650Y-50472700D01*
X33764650Y-50472700D02*
X33764650Y-49906033D01*
X33431317Y-50139366D02*
X33431317Y-50606033D01*
X33431317Y-50206033D02*
X33397984Y-50172700D01*
X33397984Y-50172700D02*
X33331317Y-50139366D01*
X33331317Y-50139366D02*
X33231317Y-50139366D01*
X33231317Y-50139366D02*
X33164650Y-50172700D01*
X33164650Y-50172700D02*
X33131317Y-50239366D01*
X33131317Y-50239366D02*
X33131317Y-50606033D01*
X32797984Y-50606033D02*
X32797984Y-50139366D01*
X32797984Y-49906033D02*
X32831317Y-49939366D01*
X32831317Y-49939366D02*
X32797984Y-49972700D01*
X32797984Y-49972700D02*
X32764651Y-49939366D01*
X32764651Y-49939366D02*
X32797984Y-49906033D01*
X32797984Y-49906033D02*
X32797984Y-49972700D01*
X32531318Y-50139366D02*
X32364651Y-50606033D01*
X32364651Y-50606033D02*
X32197984Y-50139366D01*
X31664651Y-50572700D02*
X31731318Y-50606033D01*
X31731318Y-50606033D02*
X31864651Y-50606033D01*
X31864651Y-50606033D02*
X31931318Y-50572700D01*
X31931318Y-50572700D02*
X31964651Y-50506033D01*
X31964651Y-50506033D02*
X31964651Y-50239366D01*
X31964651Y-50239366D02*
X31931318Y-50172700D01*
X31931318Y-50172700D02*
X31864651Y-50139366D01*
X31864651Y-50139366D02*
X31731318Y-50139366D01*
X31731318Y-50139366D02*
X31664651Y-50172700D01*
X31664651Y-50172700D02*
X31631318Y-50239366D01*
X31631318Y-50239366D02*
X31631318Y-50306033D01*
X31631318Y-50306033D02*
X31964651Y-50372700D01*
X31331318Y-50606033D02*
X31331318Y-50139366D01*
X31331318Y-50272700D02*
X31297985Y-50206033D01*
X31297985Y-50206033D02*
X31264651Y-50172700D01*
X31264651Y-50172700D02*
X31197985Y-50139366D01*
X31197985Y-50139366D02*
X31131318Y-50139366D01*
X30931318Y-50572700D02*
X30864652Y-50606033D01*
X30864652Y-50606033D02*
X30731318Y-50606033D01*
X30731318Y-50606033D02*
X30664652Y-50572700D01*
X30664652Y-50572700D02*
X30631318Y-50506033D01*
X30631318Y-50506033D02*
X30631318Y-50472700D01*
X30631318Y-50472700D02*
X30664652Y-50406033D01*
X30664652Y-50406033D02*
X30731318Y-50372700D01*
X30731318Y-50372700D02*
X30831318Y-50372700D01*
X30831318Y-50372700D02*
X30897985Y-50339366D01*
X30897985Y-50339366D02*
X30931318Y-50272700D01*
X30931318Y-50272700D02*
X30931318Y-50239366D01*
X30931318Y-50239366D02*
X30897985Y-50172700D01*
X30897985Y-50172700D02*
X30831318Y-50139366D01*
X30831318Y-50139366D02*
X30731318Y-50139366D01*
X30731318Y-50139366D02*
X30664652Y-50172700D01*
X30331318Y-50606033D02*
X30331318Y-50139366D01*
X30331318Y-49906033D02*
X30364651Y-49939366D01*
X30364651Y-49939366D02*
X30331318Y-49972700D01*
X30331318Y-49972700D02*
X30297985Y-49939366D01*
X30297985Y-49939366D02*
X30331318Y-49906033D01*
X30331318Y-49906033D02*
X30331318Y-49972700D01*
X30097985Y-50139366D02*
X29831318Y-50139366D01*
X29997985Y-49906033D02*
X29997985Y-50506033D01*
X29997985Y-50506033D02*
X29964652Y-50572700D01*
X29964652Y-50572700D02*
X29897985Y-50606033D01*
X29897985Y-50606033D02*
X29831318Y-50606033D01*
X29664652Y-50139366D02*
X29497985Y-50606033D01*
X29331318Y-50139366D02*
X29497985Y-50606033D01*
X29497985Y-50606033D02*
X29564652Y-50772700D01*
X29564652Y-50772700D02*
X29597985Y-50806033D01*
X29597985Y-50806033D02*
X29664652Y-50839366D01*
X38264649Y-51733033D02*
X38264649Y-51033033D01*
X38264649Y-51033033D02*
X37864649Y-51733033D01*
X37864649Y-51733033D02*
X37864649Y-51033033D01*
X37531316Y-51666366D02*
X37497983Y-51699700D01*
X37497983Y-51699700D02*
X37531316Y-51733033D01*
X37531316Y-51733033D02*
X37564649Y-51699700D01*
X37564649Y-51699700D02*
X37531316Y-51666366D01*
X37531316Y-51666366D02*
X37531316Y-51733033D01*
X36297983Y-51066366D02*
X36364650Y-51033033D01*
X36364650Y-51033033D02*
X36464650Y-51033033D01*
X36464650Y-51033033D02*
X36564650Y-51066366D01*
X36564650Y-51066366D02*
X36631317Y-51133033D01*
X36631317Y-51133033D02*
X36664650Y-51199700D01*
X36664650Y-51199700D02*
X36697983Y-51333033D01*
X36697983Y-51333033D02*
X36697983Y-51433033D01*
X36697983Y-51433033D02*
X36664650Y-51566366D01*
X36664650Y-51566366D02*
X36631317Y-51633033D01*
X36631317Y-51633033D02*
X36564650Y-51699700D01*
X36564650Y-51699700D02*
X36464650Y-51733033D01*
X36464650Y-51733033D02*
X36397983Y-51733033D01*
X36397983Y-51733033D02*
X36297983Y-51699700D01*
X36297983Y-51699700D02*
X36264650Y-51666366D01*
X36264650Y-51666366D02*
X36264650Y-51433033D01*
X36264650Y-51433033D02*
X36397983Y-51433033D01*
X35864650Y-51733033D02*
X35931317Y-51699700D01*
X35931317Y-51699700D02*
X35964650Y-51666366D01*
X35964650Y-51666366D02*
X35997983Y-51599700D01*
X35997983Y-51599700D02*
X35997983Y-51399700D01*
X35997983Y-51399700D02*
X35964650Y-51333033D01*
X35964650Y-51333033D02*
X35931317Y-51299700D01*
X35931317Y-51299700D02*
X35864650Y-51266366D01*
X35864650Y-51266366D02*
X35764650Y-51266366D01*
X35764650Y-51266366D02*
X35697983Y-51299700D01*
X35697983Y-51299700D02*
X35664650Y-51333033D01*
X35664650Y-51333033D02*
X35631317Y-51399700D01*
X35631317Y-51399700D02*
X35631317Y-51599700D01*
X35631317Y-51599700D02*
X35664650Y-51666366D01*
X35664650Y-51666366D02*
X35697983Y-51699700D01*
X35697983Y-51699700D02*
X35764650Y-51733033D01*
X35764650Y-51733033D02*
X35864650Y-51733033D01*
X35331317Y-51266366D02*
X35331317Y-51733033D01*
X35331317Y-51333033D02*
X35297984Y-51299700D01*
X35297984Y-51299700D02*
X35231317Y-51266366D01*
X35231317Y-51266366D02*
X35131317Y-51266366D01*
X35131317Y-51266366D02*
X35064650Y-51299700D01*
X35064650Y-51299700D02*
X35031317Y-51366366D01*
X35031317Y-51366366D02*
X35031317Y-51733033D01*
X34764651Y-51266366D02*
X34397984Y-51266366D01*
X34397984Y-51266366D02*
X34764651Y-51733033D01*
X34764651Y-51733033D02*
X34397984Y-51733033D01*
X33831317Y-51733033D02*
X33831317Y-51366366D01*
X33831317Y-51366366D02*
X33864650Y-51299700D01*
X33864650Y-51299700D02*
X33931317Y-51266366D01*
X33931317Y-51266366D02*
X34064650Y-51266366D01*
X34064650Y-51266366D02*
X34131317Y-51299700D01*
X33831317Y-51699700D02*
X33897984Y-51733033D01*
X33897984Y-51733033D02*
X34064650Y-51733033D01*
X34064650Y-51733033D02*
X34131317Y-51699700D01*
X34131317Y-51699700D02*
X34164650Y-51633033D01*
X34164650Y-51633033D02*
X34164650Y-51566366D01*
X34164650Y-51566366D02*
X34131317Y-51499700D01*
X34131317Y-51499700D02*
X34064650Y-51466366D01*
X34064650Y-51466366D02*
X33897984Y-51466366D01*
X33897984Y-51466366D02*
X33831317Y-51433033D01*
X33397984Y-51733033D02*
X33464651Y-51699700D01*
X33464651Y-51699700D02*
X33497984Y-51633033D01*
X33497984Y-51633033D02*
X33497984Y-51033033D01*
X32864650Y-51699700D02*
X32931317Y-51733033D01*
X32931317Y-51733033D02*
X33064650Y-51733033D01*
X33064650Y-51733033D02*
X33131317Y-51699700D01*
X33131317Y-51699700D02*
X33164650Y-51633033D01*
X33164650Y-51633033D02*
X33164650Y-51366366D01*
X33164650Y-51366366D02*
X33131317Y-51299700D01*
X33131317Y-51299700D02*
X33064650Y-51266366D01*
X33064650Y-51266366D02*
X32931317Y-51266366D01*
X32931317Y-51266366D02*
X32864650Y-51299700D01*
X32864650Y-51299700D02*
X32831317Y-51366366D01*
X32831317Y-51366366D02*
X32831317Y-51433033D01*
X32831317Y-51433033D02*
X33164650Y-51499700D01*
X32597984Y-51266366D02*
X32231317Y-51266366D01*
X32231317Y-51266366D02*
X32597984Y-51733033D01*
X32597984Y-51733033D02*
X32231317Y-51733033D01*
X31297984Y-51033033D02*
X31231317Y-51033033D01*
X31231317Y-51033033D02*
X31164650Y-51066366D01*
X31164650Y-51066366D02*
X31131317Y-51099700D01*
X31131317Y-51099700D02*
X31097984Y-51166366D01*
X31097984Y-51166366D02*
X31064650Y-51299700D01*
X31064650Y-51299700D02*
X31064650Y-51466366D01*
X31064650Y-51466366D02*
X31097984Y-51599700D01*
X31097984Y-51599700D02*
X31131317Y-51666366D01*
X31131317Y-51666366D02*
X31164650Y-51699700D01*
X31164650Y-51699700D02*
X31231317Y-51733033D01*
X31231317Y-51733033D02*
X31297984Y-51733033D01*
X31297984Y-51733033D02*
X31364650Y-51699700D01*
X31364650Y-51699700D02*
X31397984Y-51666366D01*
X31397984Y-51666366D02*
X31431317Y-51599700D01*
X31431317Y-51599700D02*
X31464650Y-51466366D01*
X31464650Y-51466366D02*
X31464650Y-51299700D01*
X31464650Y-51299700D02*
X31431317Y-51166366D01*
X31431317Y-51166366D02*
X31397984Y-51099700D01*
X31397984Y-51099700D02*
X31364650Y-51066366D01*
X31364650Y-51066366D02*
X31297984Y-51033033D01*
X30831317Y-51033033D02*
X30397983Y-51033033D01*
X30397983Y-51033033D02*
X30631317Y-51299700D01*
X30631317Y-51299700D02*
X30531317Y-51299700D01*
X30531317Y-51299700D02*
X30464650Y-51333033D01*
X30464650Y-51333033D02*
X30431317Y-51366366D01*
X30431317Y-51366366D02*
X30397983Y-51433033D01*
X30397983Y-51433033D02*
X30397983Y-51599700D01*
X30397983Y-51599700D02*
X30431317Y-51666366D01*
X30431317Y-51666366D02*
X30464650Y-51699700D01*
X30464650Y-51699700D02*
X30531317Y-51733033D01*
X30531317Y-51733033D02*
X30731317Y-51733033D01*
X30731317Y-51733033D02*
X30797983Y-51699700D01*
X30797983Y-51699700D02*
X30831317Y-51666366D01*
X30097983Y-51466366D02*
X29564650Y-51466366D01*
X29264649Y-51099700D02*
X29231316Y-51066366D01*
X29231316Y-51066366D02*
X29164649Y-51033033D01*
X29164649Y-51033033D02*
X28997983Y-51033033D01*
X28997983Y-51033033D02*
X28931316Y-51066366D01*
X28931316Y-51066366D02*
X28897983Y-51099700D01*
X28897983Y-51099700D02*
X28864649Y-51166366D01*
X28864649Y-51166366D02*
X28864649Y-51233033D01*
X28864649Y-51233033D02*
X28897983Y-51333033D01*
X28897983Y-51333033D02*
X29297983Y-51733033D01*
X29297983Y-51733033D02*
X28864649Y-51733033D01*
X28431316Y-51033033D02*
X28364649Y-51033033D01*
X28364649Y-51033033D02*
X28297982Y-51066366D01*
X28297982Y-51066366D02*
X28264649Y-51099700D01*
X28264649Y-51099700D02*
X28231316Y-51166366D01*
X28231316Y-51166366D02*
X28197982Y-51299700D01*
X28197982Y-51299700D02*
X28197982Y-51466366D01*
X28197982Y-51466366D02*
X28231316Y-51599700D01*
X28231316Y-51599700D02*
X28264649Y-51666366D01*
X28264649Y-51666366D02*
X28297982Y-51699700D01*
X28297982Y-51699700D02*
X28364649Y-51733033D01*
X28364649Y-51733033D02*
X28431316Y-51733033D01*
X28431316Y-51733033D02*
X28497982Y-51699700D01*
X28497982Y-51699700D02*
X28531316Y-51666366D01*
X28531316Y-51666366D02*
X28564649Y-51599700D01*
X28564649Y-51599700D02*
X28597982Y-51466366D01*
X28597982Y-51466366D02*
X28597982Y-51299700D01*
X28597982Y-51299700D02*
X28564649Y-51166366D01*
X28564649Y-51166366D02*
X28531316Y-51099700D01*
X28531316Y-51099700D02*
X28497982Y-51066366D01*
X28497982Y-51066366D02*
X28431316Y-51033033D01*
X27931315Y-51099700D02*
X27897982Y-51066366D01*
X27897982Y-51066366D02*
X27831315Y-51033033D01*
X27831315Y-51033033D02*
X27664649Y-51033033D01*
X27664649Y-51033033D02*
X27597982Y-51066366D01*
X27597982Y-51066366D02*
X27564649Y-51099700D01*
X27564649Y-51099700D02*
X27531315Y-51166366D01*
X27531315Y-51166366D02*
X27531315Y-51233033D01*
X27531315Y-51233033D02*
X27564649Y-51333033D01*
X27564649Y-51333033D02*
X27964649Y-51733033D01*
X27964649Y-51733033D02*
X27531315Y-51733033D01*
X26931315Y-51266366D02*
X26931315Y-51733033D01*
X27097982Y-50999700D02*
X27264648Y-51499700D01*
X27264648Y-51499700D02*
X26831315Y-51499700D01*
X5639523Y-17918152D02*
X5639523Y-18584819D01*
X5877618Y-17537200D02*
X6115713Y-18251485D01*
X6115713Y-18251485D02*
X5496666Y-18251485D01*
X42472855Y-49507378D02*
X42508570Y-49471664D01*
X42508570Y-49471664D02*
X42579998Y-49364521D01*
X42579998Y-49364521D02*
X42615713Y-49293092D01*
X42615713Y-49293092D02*
X42651427Y-49185950D01*
X42651427Y-49185950D02*
X42687141Y-49007378D01*
X42687141Y-49007378D02*
X42687141Y-48864521D01*
X42687141Y-48864521D02*
X42651427Y-48685950D01*
X42651427Y-48685950D02*
X42615713Y-48578807D01*
X42615713Y-48578807D02*
X42579998Y-48507378D01*
X42579998Y-48507378D02*
X42508570Y-48400235D01*
X42508570Y-48400235D02*
X42472855Y-48364521D01*
X42437141Y-48400235D02*
X41794284Y-49364521D01*
X41865713Y-49293092D02*
X41294284Y-49293092D01*
X41294284Y-49293092D02*
X40722855Y-49293092D01*
X40008569Y-48435950D02*
X40651426Y-49400235D01*
X39829998Y-49507378D02*
X39794283Y-49471664D01*
X39794283Y-49471664D02*
X39722855Y-49364521D01*
X39722855Y-49364521D02*
X39687141Y-49293092D01*
X39687141Y-49293092D02*
X39651426Y-49185950D01*
X39651426Y-49185950D02*
X39615712Y-49007378D01*
X39615712Y-49007378D02*
X39615712Y-48864521D01*
X39615712Y-48864521D02*
X39651426Y-48685950D01*
X39651426Y-48685950D02*
X39687141Y-48578807D01*
X39687141Y-48578807D02*
X39722855Y-48507378D01*
X39722855Y-48507378D02*
X39794283Y-48400235D01*
X39794283Y-48400235D02*
X39829998Y-48364521D01*
X42937140Y-50714878D02*
X42972855Y-50679164D01*
X42972855Y-50679164D02*
X43044283Y-50572021D01*
X43044283Y-50572021D02*
X43079998Y-50500592D01*
X43079998Y-50500592D02*
X43115712Y-50393450D01*
X43115712Y-50393450D02*
X43151426Y-50214878D01*
X43151426Y-50214878D02*
X43151426Y-50072021D01*
X43151426Y-50072021D02*
X43115712Y-49893450D01*
X43115712Y-49893450D02*
X43079998Y-49786307D01*
X43079998Y-49786307D02*
X43044283Y-49714878D01*
X43044283Y-49714878D02*
X42972855Y-49607735D01*
X42972855Y-49607735D02*
X42937140Y-49572021D01*
X41865711Y-50072021D02*
X41865711Y-50214878D01*
X41829997Y-50214878D02*
X41829997Y-50072021D01*
X41794283Y-50036307D02*
X41794283Y-50250592D01*
X41758569Y-50214878D02*
X41758569Y-50072021D01*
X41722854Y-50072021D02*
X41722854Y-50214878D01*
X41865711Y-50179164D02*
X41794283Y-50250592D01*
X41794283Y-50250592D02*
X41722854Y-50179164D01*
X41865711Y-50107735D02*
X41794283Y-50036307D01*
X41794283Y-50036307D02*
X41722854Y-50107735D01*
X41865711Y-50072021D02*
X41794283Y-50036307D01*
X41794283Y-50036307D02*
X41722854Y-50072021D01*
X41722854Y-50072021D02*
X41687140Y-50143450D01*
X41687140Y-50143450D02*
X41722854Y-50214878D01*
X41722854Y-50214878D02*
X41794283Y-50250592D01*
X41794283Y-50250592D02*
X41865711Y-50214878D01*
X41865711Y-50214878D02*
X41901426Y-50143450D01*
X41901426Y-50143450D02*
X41865711Y-50072021D01*
X41151426Y-50143450D02*
X40579998Y-50143450D01*
X40008569Y-50072021D02*
X40008569Y-50214878D01*
X39972855Y-50214878D02*
X39972855Y-50072021D01*
X39937141Y-50036307D02*
X39937141Y-50250592D01*
X39901427Y-50214878D02*
X39901427Y-50072021D01*
X39865712Y-50072021D02*
X39865712Y-50214878D01*
X40008569Y-50179164D02*
X39937141Y-50250592D01*
X39937141Y-50250592D02*
X39865712Y-50179164D01*
X40008569Y-50107735D02*
X39937141Y-50036307D01*
X39937141Y-50036307D02*
X39865712Y-50107735D01*
X40008569Y-50072021D02*
X39937141Y-50036307D01*
X39937141Y-50036307D02*
X39865712Y-50072021D01*
X39865712Y-50072021D02*
X39829998Y-50143450D01*
X39829998Y-50143450D02*
X39865712Y-50214878D01*
X39865712Y-50214878D02*
X39937141Y-50250592D01*
X39937141Y-50250592D02*
X40008569Y-50214878D01*
X40008569Y-50214878D02*
X40044284Y-50143450D01*
X40044284Y-50143450D02*
X40008569Y-50072021D01*
X39365713Y-50714878D02*
X39329998Y-50679164D01*
X39329998Y-50679164D02*
X39258570Y-50572021D01*
X39258570Y-50572021D02*
X39222856Y-50500592D01*
X39222856Y-50500592D02*
X39187141Y-50393450D01*
X39187141Y-50393450D02*
X39151427Y-50214878D01*
X39151427Y-50214878D02*
X39151427Y-50072021D01*
X39151427Y-50072021D02*
X39187141Y-49893450D01*
X39187141Y-49893450D02*
X39222856Y-49786307D01*
X39222856Y-49786307D02*
X39258570Y-49714878D01*
X39258570Y-49714878D02*
X39329998Y-49607735D01*
X39329998Y-49607735D02*
X39365713Y-49572021D01*
X42722856Y-50850950D02*
X43365713Y-51815235D01*
X41329998Y-51136664D02*
X40758570Y-51350950D01*
X40758570Y-51350950D02*
X41329998Y-51565235D01*
D12*
X36421428Y-16521114D02*
X36421428Y-17128257D01*
X36421428Y-17128257D02*
X36385714Y-17199685D01*
X36385714Y-17199685D02*
X36350000Y-17235400D01*
X36350000Y-17235400D02*
X36278571Y-17271114D01*
X36278571Y-17271114D02*
X36135714Y-17271114D01*
X36135714Y-17271114D02*
X36064285Y-17235400D01*
X36064285Y-17235400D02*
X36028571Y-17199685D01*
X36028571Y-17199685D02*
X35992857Y-17128257D01*
X35992857Y-17128257D02*
X35992857Y-16521114D01*
X35314286Y-16521114D02*
X35457143Y-16521114D01*
X35457143Y-16521114D02*
X35528571Y-16556828D01*
X35528571Y-16556828D02*
X35564286Y-16592542D01*
X35564286Y-16592542D02*
X35635714Y-16699685D01*
X35635714Y-16699685D02*
X35671428Y-16842542D01*
X35671428Y-16842542D02*
X35671428Y-17128257D01*
X35671428Y-17128257D02*
X35635714Y-17199685D01*
X35635714Y-17199685D02*
X35600000Y-17235400D01*
X35600000Y-17235400D02*
X35528571Y-17271114D01*
X35528571Y-17271114D02*
X35385714Y-17271114D01*
X35385714Y-17271114D02*
X35314286Y-17235400D01*
X35314286Y-17235400D02*
X35278571Y-17199685D01*
X35278571Y-17199685D02*
X35242857Y-17128257D01*
X35242857Y-17128257D02*
X35242857Y-16949685D01*
X35242857Y-16949685D02*
X35278571Y-16878257D01*
X35278571Y-16878257D02*
X35314286Y-16842542D01*
X35314286Y-16842542D02*
X35385714Y-16806828D01*
X35385714Y-16806828D02*
X35528571Y-16806828D01*
X35528571Y-16806828D02*
X35600000Y-16842542D01*
X35600000Y-16842542D02*
X35635714Y-16878257D01*
X35635714Y-16878257D02*
X35671428Y-16949685D01*
D11*
X25308333Y-28794819D02*
X25308333Y-29509104D01*
X25308333Y-29509104D02*
X25355952Y-29651961D01*
X25355952Y-29651961D02*
X25451190Y-29747200D01*
X25451190Y-29747200D02*
X25594047Y-29794819D01*
X25594047Y-29794819D02*
X25689285Y-29794819D01*
X24308333Y-29794819D02*
X24879761Y-29794819D01*
X24594047Y-29794819D02*
X24594047Y-28794819D01*
X24594047Y-28794819D02*
X24689285Y-28937676D01*
X24689285Y-28937676D02*
X24784523Y-29032914D01*
X24784523Y-29032914D02*
X24879761Y-29080533D01*
X17240476Y-38424819D02*
X17716666Y-38424819D01*
X17716666Y-38424819D02*
X17764285Y-38901009D01*
X17764285Y-38901009D02*
X17716666Y-38853390D01*
X17716666Y-38853390D02*
X17621428Y-38805771D01*
X17621428Y-38805771D02*
X17383333Y-38805771D01*
X17383333Y-38805771D02*
X17288095Y-38853390D01*
X17288095Y-38853390D02*
X17240476Y-38901009D01*
X17240476Y-38901009D02*
X17192857Y-38996247D01*
X17192857Y-38996247D02*
X17192857Y-39234342D01*
X17192857Y-39234342D02*
X17240476Y-39329580D01*
X17240476Y-39329580D02*
X17288095Y-39377200D01*
X17288095Y-39377200D02*
X17383333Y-39424819D01*
X17383333Y-39424819D02*
X17621428Y-39424819D01*
X17621428Y-39424819D02*
X17716666Y-39377200D01*
X17716666Y-39377200D02*
X17764285Y-39329580D01*
X16907142Y-38424819D02*
X16573809Y-39424819D01*
X16573809Y-39424819D02*
X16240476Y-38424819D01*
D12*
X16217856Y-3248257D02*
X15967856Y-3248257D01*
X15860713Y-3641114D02*
X16217856Y-3641114D01*
X16217856Y-3641114D02*
X16217856Y-2891114D01*
X16217856Y-2891114D02*
X15860713Y-2891114D01*
X15610714Y-2891114D02*
X15146428Y-2891114D01*
X15146428Y-2891114D02*
X15396428Y-3176828D01*
X15396428Y-3176828D02*
X15289285Y-3176828D01*
X15289285Y-3176828D02*
X15217857Y-3212542D01*
X15217857Y-3212542D02*
X15182142Y-3248257D01*
X15182142Y-3248257D02*
X15146428Y-3319685D01*
X15146428Y-3319685D02*
X15146428Y-3498257D01*
X15146428Y-3498257D02*
X15182142Y-3569685D01*
X15182142Y-3569685D02*
X15217857Y-3605400D01*
X15217857Y-3605400D02*
X15289285Y-3641114D01*
X15289285Y-3641114D02*
X15503571Y-3641114D01*
X15503571Y-3641114D02*
X15574999Y-3605400D01*
X15574999Y-3605400D02*
X15610714Y-3569685D01*
X34731428Y-6071114D02*
X34731428Y-6678257D01*
X34731428Y-6678257D02*
X34695714Y-6749685D01*
X34695714Y-6749685D02*
X34660000Y-6785400D01*
X34660000Y-6785400D02*
X34588571Y-6821114D01*
X34588571Y-6821114D02*
X34445714Y-6821114D01*
X34445714Y-6821114D02*
X34374285Y-6785400D01*
X34374285Y-6785400D02*
X34338571Y-6749685D01*
X34338571Y-6749685D02*
X34302857Y-6678257D01*
X34302857Y-6678257D02*
X34302857Y-6071114D01*
X34017143Y-6071114D02*
X33517143Y-6071114D01*
X33517143Y-6071114D02*
X33838571Y-6821114D01*
X9945000Y-51129685D02*
X9980714Y-51165400D01*
X9980714Y-51165400D02*
X10087857Y-51201114D01*
X10087857Y-51201114D02*
X10159285Y-51201114D01*
X10159285Y-51201114D02*
X10266428Y-51165400D01*
X10266428Y-51165400D02*
X10337857Y-51093971D01*
X10337857Y-51093971D02*
X10373571Y-51022542D01*
X10373571Y-51022542D02*
X10409285Y-50879685D01*
X10409285Y-50879685D02*
X10409285Y-50772542D01*
X10409285Y-50772542D02*
X10373571Y-50629685D01*
X10373571Y-50629685D02*
X10337857Y-50558257D01*
X10337857Y-50558257D02*
X10266428Y-50486828D01*
X10266428Y-50486828D02*
X10159285Y-50451114D01*
X10159285Y-50451114D02*
X10087857Y-50451114D01*
X10087857Y-50451114D02*
X9980714Y-50486828D01*
X9980714Y-50486828D02*
X9945000Y-50522542D01*
X9516428Y-50772542D02*
X9587857Y-50736828D01*
X9587857Y-50736828D02*
X9623571Y-50701114D01*
X9623571Y-50701114D02*
X9659285Y-50629685D01*
X9659285Y-50629685D02*
X9659285Y-50593971D01*
X9659285Y-50593971D02*
X9623571Y-50522542D01*
X9623571Y-50522542D02*
X9587857Y-50486828D01*
X9587857Y-50486828D02*
X9516428Y-50451114D01*
X9516428Y-50451114D02*
X9373571Y-50451114D01*
X9373571Y-50451114D02*
X9302143Y-50486828D01*
X9302143Y-50486828D02*
X9266428Y-50522542D01*
X9266428Y-50522542D02*
X9230714Y-50593971D01*
X9230714Y-50593971D02*
X9230714Y-50629685D01*
X9230714Y-50629685D02*
X9266428Y-50701114D01*
X9266428Y-50701114D02*
X9302143Y-50736828D01*
X9302143Y-50736828D02*
X9373571Y-50772542D01*
X9373571Y-50772542D02*
X9516428Y-50772542D01*
X9516428Y-50772542D02*
X9587857Y-50808257D01*
X9587857Y-50808257D02*
X9623571Y-50843971D01*
X9623571Y-50843971D02*
X9659285Y-50915400D01*
X9659285Y-50915400D02*
X9659285Y-51058257D01*
X9659285Y-51058257D02*
X9623571Y-51129685D01*
X9623571Y-51129685D02*
X9587857Y-51165400D01*
X9587857Y-51165400D02*
X9516428Y-51201114D01*
X9516428Y-51201114D02*
X9373571Y-51201114D01*
X9373571Y-51201114D02*
X9302143Y-51165400D01*
X9302143Y-51165400D02*
X9266428Y-51129685D01*
X9266428Y-51129685D02*
X9230714Y-51058257D01*
X9230714Y-51058257D02*
X9230714Y-50915400D01*
X9230714Y-50915400D02*
X9266428Y-50843971D01*
X9266428Y-50843971D02*
X9302143Y-50808257D01*
X9302143Y-50808257D02*
X9373571Y-50772542D01*
X28774999Y-3641114D02*
X29132142Y-3641114D01*
X29132142Y-3641114D02*
X29132142Y-2891114D01*
X28203571Y-3141114D02*
X28203571Y-3641114D01*
X28382142Y-2855400D02*
X28560713Y-3391114D01*
X28560713Y-3391114D02*
X28096428Y-3391114D01*
X34691114Y-21517856D02*
X34333971Y-21267856D01*
X34691114Y-21089285D02*
X33941114Y-21089285D01*
X33941114Y-21089285D02*
X33941114Y-21374999D01*
X33941114Y-21374999D02*
X33976828Y-21446428D01*
X33976828Y-21446428D02*
X34012542Y-21482142D01*
X34012542Y-21482142D02*
X34083971Y-21517856D01*
X34083971Y-21517856D02*
X34191114Y-21517856D01*
X34191114Y-21517856D02*
X34262542Y-21482142D01*
X34262542Y-21482142D02*
X34298257Y-21446428D01*
X34298257Y-21446428D02*
X34333971Y-21374999D01*
X34333971Y-21374999D02*
X34333971Y-21089285D01*
X34691114Y-22232142D02*
X34691114Y-21803571D01*
X34691114Y-22017856D02*
X33941114Y-22017856D01*
X33941114Y-22017856D02*
X34048257Y-21946428D01*
X34048257Y-21946428D02*
X34119685Y-21874999D01*
X34119685Y-21874999D02*
X34155400Y-21803571D01*
X33941114Y-22482142D02*
X33941114Y-22946428D01*
X33941114Y-22946428D02*
X34226828Y-22696428D01*
X34226828Y-22696428D02*
X34226828Y-22803571D01*
X34226828Y-22803571D02*
X34262542Y-22875000D01*
X34262542Y-22875000D02*
X34298257Y-22910714D01*
X34298257Y-22910714D02*
X34369685Y-22946428D01*
X34369685Y-22946428D02*
X34548257Y-22946428D01*
X34548257Y-22946428D02*
X34619685Y-22910714D01*
X34619685Y-22910714D02*
X34655400Y-22875000D01*
X34655400Y-22875000D02*
X34691114Y-22803571D01*
X34691114Y-22803571D02*
X34691114Y-22589285D01*
X34691114Y-22589285D02*
X34655400Y-22517857D01*
X34655400Y-22517857D02*
X34619685Y-22482142D01*
X31175000Y-54941114D02*
X31425000Y-54583971D01*
X31603571Y-54941114D02*
X31603571Y-54191114D01*
X31603571Y-54191114D02*
X31317857Y-54191114D01*
X31317857Y-54191114D02*
X31246428Y-54226828D01*
X31246428Y-54226828D02*
X31210714Y-54262542D01*
X31210714Y-54262542D02*
X31175000Y-54333971D01*
X31175000Y-54333971D02*
X31175000Y-54441114D01*
X31175000Y-54441114D02*
X31210714Y-54512542D01*
X31210714Y-54512542D02*
X31246428Y-54548257D01*
X31246428Y-54548257D02*
X31317857Y-54583971D01*
X31317857Y-54583971D02*
X31603571Y-54583971D01*
X30925000Y-54191114D02*
X30425000Y-54191114D01*
X30425000Y-54191114D02*
X30746428Y-54941114D01*
X4675000Y-3919685D02*
X4710714Y-3955400D01*
X4710714Y-3955400D02*
X4817857Y-3991114D01*
X4817857Y-3991114D02*
X4889285Y-3991114D01*
X4889285Y-3991114D02*
X4996428Y-3955400D01*
X4996428Y-3955400D02*
X5067857Y-3883971D01*
X5067857Y-3883971D02*
X5103571Y-3812542D01*
X5103571Y-3812542D02*
X5139285Y-3669685D01*
X5139285Y-3669685D02*
X5139285Y-3562542D01*
X5139285Y-3562542D02*
X5103571Y-3419685D01*
X5103571Y-3419685D02*
X5067857Y-3348257D01*
X5067857Y-3348257D02*
X4996428Y-3276828D01*
X4996428Y-3276828D02*
X4889285Y-3241114D01*
X4889285Y-3241114D02*
X4817857Y-3241114D01*
X4817857Y-3241114D02*
X4710714Y-3276828D01*
X4710714Y-3276828D02*
X4675000Y-3312542D01*
X4389285Y-3312542D02*
X4353571Y-3276828D01*
X4353571Y-3276828D02*
X4282143Y-3241114D01*
X4282143Y-3241114D02*
X4103571Y-3241114D01*
X4103571Y-3241114D02*
X4032143Y-3276828D01*
X4032143Y-3276828D02*
X3996428Y-3312542D01*
X3996428Y-3312542D02*
X3960714Y-3383971D01*
X3960714Y-3383971D02*
X3960714Y-3455400D01*
X3960714Y-3455400D02*
X3996428Y-3562542D01*
X3996428Y-3562542D02*
X4425000Y-3991114D01*
X4425000Y-3991114D02*
X3960714Y-3991114D01*
X4517142Y-7503971D02*
X4517142Y-7861114D01*
X4767142Y-7111114D02*
X4517142Y-7503971D01*
X4517142Y-7503971D02*
X4267142Y-7111114D01*
X3624285Y-7861114D02*
X4052856Y-7861114D01*
X3838571Y-7861114D02*
X3838571Y-7111114D01*
X3838571Y-7111114D02*
X3909999Y-7218257D01*
X3909999Y-7218257D02*
X3981428Y-7289685D01*
X3981428Y-7289685D02*
X4052856Y-7325400D01*
X13825000Y-2441114D02*
X14075000Y-2083971D01*
X14253571Y-2441114D02*
X14253571Y-1691114D01*
X14253571Y-1691114D02*
X13967857Y-1691114D01*
X13967857Y-1691114D02*
X13896428Y-1726828D01*
X13896428Y-1726828D02*
X13860714Y-1762542D01*
X13860714Y-1762542D02*
X13825000Y-1833971D01*
X13825000Y-1833971D02*
X13825000Y-1941114D01*
X13825000Y-1941114D02*
X13860714Y-2012542D01*
X13860714Y-2012542D02*
X13896428Y-2048257D01*
X13896428Y-2048257D02*
X13967857Y-2083971D01*
X13967857Y-2083971D02*
X14253571Y-2083971D01*
X13467857Y-2441114D02*
X13325000Y-2441114D01*
X13325000Y-2441114D02*
X13253571Y-2405400D01*
X13253571Y-2405400D02*
X13217857Y-2369685D01*
X13217857Y-2369685D02*
X13146428Y-2262542D01*
X13146428Y-2262542D02*
X13110714Y-2119685D01*
X13110714Y-2119685D02*
X13110714Y-1833971D01*
X13110714Y-1833971D02*
X13146428Y-1762542D01*
X13146428Y-1762542D02*
X13182143Y-1726828D01*
X13182143Y-1726828D02*
X13253571Y-1691114D01*
X13253571Y-1691114D02*
X13396428Y-1691114D01*
X13396428Y-1691114D02*
X13467857Y-1726828D01*
X13467857Y-1726828D02*
X13503571Y-1762542D01*
X13503571Y-1762542D02*
X13539285Y-1833971D01*
X13539285Y-1833971D02*
X13539285Y-2012542D01*
X13539285Y-2012542D02*
X13503571Y-2083971D01*
X13503571Y-2083971D02*
X13467857Y-2119685D01*
X13467857Y-2119685D02*
X13396428Y-2155400D01*
X13396428Y-2155400D02*
X13253571Y-2155400D01*
X13253571Y-2155400D02*
X13182143Y-2119685D01*
X13182143Y-2119685D02*
X13146428Y-2083971D01*
X13146428Y-2083971D02*
X13110714Y-2012542D01*
X13675000Y-4069685D02*
X13710714Y-4105400D01*
X13710714Y-4105400D02*
X13817857Y-4141114D01*
X13817857Y-4141114D02*
X13889285Y-4141114D01*
X13889285Y-4141114D02*
X13996428Y-4105400D01*
X13996428Y-4105400D02*
X14067857Y-4033971D01*
X14067857Y-4033971D02*
X14103571Y-3962542D01*
X14103571Y-3962542D02*
X14139285Y-3819685D01*
X14139285Y-3819685D02*
X14139285Y-3712542D01*
X14139285Y-3712542D02*
X14103571Y-3569685D01*
X14103571Y-3569685D02*
X14067857Y-3498257D01*
X14067857Y-3498257D02*
X13996428Y-3426828D01*
X13996428Y-3426828D02*
X13889285Y-3391114D01*
X13889285Y-3391114D02*
X13817857Y-3391114D01*
X13817857Y-3391114D02*
X13710714Y-3426828D01*
X13710714Y-3426828D02*
X13675000Y-3462542D01*
X13425000Y-3391114D02*
X12960714Y-3391114D01*
X12960714Y-3391114D02*
X13210714Y-3676828D01*
X13210714Y-3676828D02*
X13103571Y-3676828D01*
X13103571Y-3676828D02*
X13032143Y-3712542D01*
X13032143Y-3712542D02*
X12996428Y-3748257D01*
X12996428Y-3748257D02*
X12960714Y-3819685D01*
X12960714Y-3819685D02*
X12960714Y-3998257D01*
X12960714Y-3998257D02*
X12996428Y-4069685D01*
X12996428Y-4069685D02*
X13032143Y-4105400D01*
X13032143Y-4105400D02*
X13103571Y-4141114D01*
X13103571Y-4141114D02*
X13317857Y-4141114D01*
X13317857Y-4141114D02*
X13389285Y-4105400D01*
X13389285Y-4105400D02*
X13425000Y-4069685D01*
X40925000Y-18769685D02*
X40960714Y-18805400D01*
X40960714Y-18805400D02*
X41067857Y-18841114D01*
X41067857Y-18841114D02*
X41139285Y-18841114D01*
X41139285Y-18841114D02*
X41246428Y-18805400D01*
X41246428Y-18805400D02*
X41317857Y-18733971D01*
X41317857Y-18733971D02*
X41353571Y-18662542D01*
X41353571Y-18662542D02*
X41389285Y-18519685D01*
X41389285Y-18519685D02*
X41389285Y-18412542D01*
X41389285Y-18412542D02*
X41353571Y-18269685D01*
X41353571Y-18269685D02*
X41317857Y-18198257D01*
X41317857Y-18198257D02*
X41246428Y-18126828D01*
X41246428Y-18126828D02*
X41139285Y-18091114D01*
X41139285Y-18091114D02*
X41067857Y-18091114D01*
X41067857Y-18091114D02*
X40960714Y-18126828D01*
X40960714Y-18126828D02*
X40925000Y-18162542D01*
X40210714Y-18841114D02*
X40639285Y-18841114D01*
X40425000Y-18841114D02*
X40425000Y-18091114D01*
X40425000Y-18091114D02*
X40496428Y-18198257D01*
X40496428Y-18198257D02*
X40567857Y-18269685D01*
X40567857Y-18269685D02*
X40639285Y-18305400D01*
D11*
X17831904Y-42072438D02*
X17927142Y-42024819D01*
X17927142Y-42024819D02*
X18069999Y-42024819D01*
X18069999Y-42024819D02*
X18212856Y-42072438D01*
X18212856Y-42072438D02*
X18308094Y-42167676D01*
X18308094Y-42167676D02*
X18355713Y-42262914D01*
X18355713Y-42262914D02*
X18403332Y-42453390D01*
X18403332Y-42453390D02*
X18403332Y-42596247D01*
X18403332Y-42596247D02*
X18355713Y-42786723D01*
X18355713Y-42786723D02*
X18308094Y-42881961D01*
X18308094Y-42881961D02*
X18212856Y-42977200D01*
X18212856Y-42977200D02*
X18069999Y-43024819D01*
X18069999Y-43024819D02*
X17974761Y-43024819D01*
X17974761Y-43024819D02*
X17831904Y-42977200D01*
X17831904Y-42977200D02*
X17784285Y-42929580D01*
X17784285Y-42929580D02*
X17784285Y-42596247D01*
X17784285Y-42596247D02*
X17974761Y-42596247D01*
X17355713Y-43024819D02*
X17355713Y-42024819D01*
X17355713Y-42024819D02*
X16784285Y-43024819D01*
X16784285Y-43024819D02*
X16784285Y-42024819D01*
X16308094Y-43024819D02*
X16308094Y-42024819D01*
X16308094Y-42024819D02*
X16069999Y-42024819D01*
X16069999Y-42024819D02*
X15927142Y-42072438D01*
X15927142Y-42072438D02*
X15831904Y-42167676D01*
X15831904Y-42167676D02*
X15784285Y-42262914D01*
X15784285Y-42262914D02*
X15736666Y-42453390D01*
X15736666Y-42453390D02*
X15736666Y-42596247D01*
X15736666Y-42596247D02*
X15784285Y-42786723D01*
X15784285Y-42786723D02*
X15831904Y-42881961D01*
X15831904Y-42881961D02*
X15927142Y-42977200D01*
X15927142Y-42977200D02*
X16069999Y-43024819D01*
X16069999Y-43024819D02*
X16308094Y-43024819D01*
D12*
X5125000Y-56341114D02*
X5375000Y-55983971D01*
X5553571Y-56341114D02*
X5553571Y-55591114D01*
X5553571Y-55591114D02*
X5267857Y-55591114D01*
X5267857Y-55591114D02*
X5196428Y-55626828D01*
X5196428Y-55626828D02*
X5160714Y-55662542D01*
X5160714Y-55662542D02*
X5125000Y-55733971D01*
X5125000Y-55733971D02*
X5125000Y-55841114D01*
X5125000Y-55841114D02*
X5160714Y-55912542D01*
X5160714Y-55912542D02*
X5196428Y-55948257D01*
X5196428Y-55948257D02*
X5267857Y-55983971D01*
X5267857Y-55983971D02*
X5553571Y-55983971D01*
X4446428Y-55591114D02*
X4803571Y-55591114D01*
X4803571Y-55591114D02*
X4839285Y-55948257D01*
X4839285Y-55948257D02*
X4803571Y-55912542D01*
X4803571Y-55912542D02*
X4732143Y-55876828D01*
X4732143Y-55876828D02*
X4553571Y-55876828D01*
X4553571Y-55876828D02*
X4482143Y-55912542D01*
X4482143Y-55912542D02*
X4446428Y-55948257D01*
X4446428Y-55948257D02*
X4410714Y-56019685D01*
X4410714Y-56019685D02*
X4410714Y-56198257D01*
X4410714Y-56198257D02*
X4446428Y-56269685D01*
X4446428Y-56269685D02*
X4482143Y-56305400D01*
X4482143Y-56305400D02*
X4553571Y-56341114D01*
X4553571Y-56341114D02*
X4732143Y-56341114D01*
X4732143Y-56341114D02*
X4803571Y-56305400D01*
X4803571Y-56305400D02*
X4839285Y-56269685D01*
D11*
X27211904Y-23674819D02*
X27211904Y-24484342D01*
X27211904Y-24484342D02*
X27164285Y-24579580D01*
X27164285Y-24579580D02*
X27116666Y-24627200D01*
X27116666Y-24627200D02*
X27021428Y-24674819D01*
X27021428Y-24674819D02*
X26830952Y-24674819D01*
X26830952Y-24674819D02*
X26735714Y-24627200D01*
X26735714Y-24627200D02*
X26688095Y-24579580D01*
X26688095Y-24579580D02*
X26640476Y-24484342D01*
X26640476Y-24484342D02*
X26640476Y-23674819D01*
X26021428Y-24103390D02*
X26116666Y-24055771D01*
X26116666Y-24055771D02*
X26164285Y-24008152D01*
X26164285Y-24008152D02*
X26211904Y-23912914D01*
X26211904Y-23912914D02*
X26211904Y-23865295D01*
X26211904Y-23865295D02*
X26164285Y-23770057D01*
X26164285Y-23770057D02*
X26116666Y-23722438D01*
X26116666Y-23722438D02*
X26021428Y-23674819D01*
X26021428Y-23674819D02*
X25830952Y-23674819D01*
X25830952Y-23674819D02*
X25735714Y-23722438D01*
X25735714Y-23722438D02*
X25688095Y-23770057D01*
X25688095Y-23770057D02*
X25640476Y-23865295D01*
X25640476Y-23865295D02*
X25640476Y-23912914D01*
X25640476Y-23912914D02*
X25688095Y-24008152D01*
X25688095Y-24008152D02*
X25735714Y-24055771D01*
X25735714Y-24055771D02*
X25830952Y-24103390D01*
X25830952Y-24103390D02*
X26021428Y-24103390D01*
X26021428Y-24103390D02*
X26116666Y-24151009D01*
X26116666Y-24151009D02*
X26164285Y-24198628D01*
X26164285Y-24198628D02*
X26211904Y-24293866D01*
X26211904Y-24293866D02*
X26211904Y-24484342D01*
X26211904Y-24484342D02*
X26164285Y-24579580D01*
X26164285Y-24579580D02*
X26116666Y-24627200D01*
X26116666Y-24627200D02*
X26021428Y-24674819D01*
X26021428Y-24674819D02*
X25830952Y-24674819D01*
X25830952Y-24674819D02*
X25735714Y-24627200D01*
X25735714Y-24627200D02*
X25688095Y-24579580D01*
X25688095Y-24579580D02*
X25640476Y-24484342D01*
X25640476Y-24484342D02*
X25640476Y-24293866D01*
X25640476Y-24293866D02*
X25688095Y-24198628D01*
X25688095Y-24198628D02*
X25735714Y-24151009D01*
X25735714Y-24151009D02*
X25830952Y-24103390D01*
D12*
X37995000Y-6779685D02*
X38030714Y-6815400D01*
X38030714Y-6815400D02*
X38137857Y-6851114D01*
X38137857Y-6851114D02*
X38209285Y-6851114D01*
X38209285Y-6851114D02*
X38316428Y-6815400D01*
X38316428Y-6815400D02*
X38387857Y-6743971D01*
X38387857Y-6743971D02*
X38423571Y-6672542D01*
X38423571Y-6672542D02*
X38459285Y-6529685D01*
X38459285Y-6529685D02*
X38459285Y-6422542D01*
X38459285Y-6422542D02*
X38423571Y-6279685D01*
X38423571Y-6279685D02*
X38387857Y-6208257D01*
X38387857Y-6208257D02*
X38316428Y-6136828D01*
X38316428Y-6136828D02*
X38209285Y-6101114D01*
X38209285Y-6101114D02*
X38137857Y-6101114D01*
X38137857Y-6101114D02*
X38030714Y-6136828D01*
X38030714Y-6136828D02*
X37995000Y-6172542D01*
X37352143Y-6101114D02*
X37495000Y-6101114D01*
X37495000Y-6101114D02*
X37566428Y-6136828D01*
X37566428Y-6136828D02*
X37602143Y-6172542D01*
X37602143Y-6172542D02*
X37673571Y-6279685D01*
X37673571Y-6279685D02*
X37709285Y-6422542D01*
X37709285Y-6422542D02*
X37709285Y-6708257D01*
X37709285Y-6708257D02*
X37673571Y-6779685D01*
X37673571Y-6779685D02*
X37637857Y-6815400D01*
X37637857Y-6815400D02*
X37566428Y-6851114D01*
X37566428Y-6851114D02*
X37423571Y-6851114D01*
X37423571Y-6851114D02*
X37352143Y-6815400D01*
X37352143Y-6815400D02*
X37316428Y-6779685D01*
X37316428Y-6779685D02*
X37280714Y-6708257D01*
X37280714Y-6708257D02*
X37280714Y-6529685D01*
X37280714Y-6529685D02*
X37316428Y-6458257D01*
X37316428Y-6458257D02*
X37352143Y-6422542D01*
X37352143Y-6422542D02*
X37423571Y-6386828D01*
X37423571Y-6386828D02*
X37566428Y-6386828D01*
X37566428Y-6386828D02*
X37637857Y-6422542D01*
X37637857Y-6422542D02*
X37673571Y-6458257D01*
X37673571Y-6458257D02*
X37709285Y-6529685D01*
D11*
X39994761Y-29814819D02*
X39994761Y-30529104D01*
X39994761Y-30529104D02*
X40042380Y-30671961D01*
X40042380Y-30671961D02*
X40137618Y-30767200D01*
X40137618Y-30767200D02*
X40280475Y-30814819D01*
X40280475Y-30814819D02*
X40375713Y-30814819D01*
X39518570Y-30814819D02*
X39518570Y-29814819D01*
X39518570Y-29814819D02*
X39185237Y-30529104D01*
X39185237Y-30529104D02*
X38851904Y-29814819D01*
X38851904Y-29814819D02*
X38851904Y-30814819D01*
X38375713Y-30814819D02*
X38375713Y-29814819D01*
X38375713Y-29814819D02*
X37994761Y-29814819D01*
X37994761Y-29814819D02*
X37899523Y-29862438D01*
X37899523Y-29862438D02*
X37851904Y-29910057D01*
X37851904Y-29910057D02*
X37804285Y-30005295D01*
X37804285Y-30005295D02*
X37804285Y-30148152D01*
X37804285Y-30148152D02*
X37851904Y-30243390D01*
X37851904Y-30243390D02*
X37899523Y-30291009D01*
X37899523Y-30291009D02*
X37994761Y-30338628D01*
X37994761Y-30338628D02*
X38375713Y-30338628D01*
X36804285Y-30814819D02*
X37137618Y-30338628D01*
X37375713Y-30814819D02*
X37375713Y-29814819D01*
X37375713Y-29814819D02*
X36994761Y-29814819D01*
X36994761Y-29814819D02*
X36899523Y-29862438D01*
X36899523Y-29862438D02*
X36851904Y-29910057D01*
X36851904Y-29910057D02*
X36804285Y-30005295D01*
X36804285Y-30005295D02*
X36804285Y-30148152D01*
X36804285Y-30148152D02*
X36851904Y-30243390D01*
X36851904Y-30243390D02*
X36899523Y-30291009D01*
X36899523Y-30291009D02*
X36994761Y-30338628D01*
X36994761Y-30338628D02*
X37375713Y-30338628D01*
X36423332Y-29910057D02*
X36375713Y-29862438D01*
X36375713Y-29862438D02*
X36280475Y-29814819D01*
X36280475Y-29814819D02*
X36042380Y-29814819D01*
X36042380Y-29814819D02*
X35947142Y-29862438D01*
X35947142Y-29862438D02*
X35899523Y-29910057D01*
X35899523Y-29910057D02*
X35851904Y-30005295D01*
X35851904Y-30005295D02*
X35851904Y-30100533D01*
X35851904Y-30100533D02*
X35899523Y-30243390D01*
X35899523Y-30243390D02*
X36470951Y-30814819D01*
X36470951Y-30814819D02*
X35851904Y-30814819D01*
D12*
X1395000Y-8479685D02*
X1430714Y-8515400D01*
X1430714Y-8515400D02*
X1537857Y-8551114D01*
X1537857Y-8551114D02*
X1609285Y-8551114D01*
X1609285Y-8551114D02*
X1716428Y-8515400D01*
X1716428Y-8515400D02*
X1787857Y-8443971D01*
X1787857Y-8443971D02*
X1823571Y-8372542D01*
X1823571Y-8372542D02*
X1859285Y-8229685D01*
X1859285Y-8229685D02*
X1859285Y-8122542D01*
X1859285Y-8122542D02*
X1823571Y-7979685D01*
X1823571Y-7979685D02*
X1787857Y-7908257D01*
X1787857Y-7908257D02*
X1716428Y-7836828D01*
X1716428Y-7836828D02*
X1609285Y-7801114D01*
X1609285Y-7801114D02*
X1537857Y-7801114D01*
X1537857Y-7801114D02*
X1430714Y-7836828D01*
X1430714Y-7836828D02*
X1395000Y-7872542D01*
X752143Y-8051114D02*
X752143Y-8551114D01*
X930714Y-7765400D02*
X1109285Y-8301114D01*
X1109285Y-8301114D02*
X645000Y-8301114D01*
X16274999Y-54893114D02*
X16632142Y-54893114D01*
X16632142Y-54893114D02*
X16632142Y-54143114D01*
X15632142Y-54893114D02*
X16060713Y-54893114D01*
X15846428Y-54893114D02*
X15846428Y-54143114D01*
X15846428Y-54143114D02*
X15917856Y-54250257D01*
X15917856Y-54250257D02*
X15989285Y-54321685D01*
X15989285Y-54321685D02*
X16060713Y-54357400D01*
X8992143Y-12041114D02*
X9242143Y-11683971D01*
X9420714Y-12041114D02*
X9420714Y-11291114D01*
X9420714Y-11291114D02*
X9135000Y-11291114D01*
X9135000Y-11291114D02*
X9063571Y-11326828D01*
X9063571Y-11326828D02*
X9027857Y-11362542D01*
X9027857Y-11362542D02*
X8992143Y-11433971D01*
X8992143Y-11433971D02*
X8992143Y-11541114D01*
X8992143Y-11541114D02*
X9027857Y-11612542D01*
X9027857Y-11612542D02*
X9063571Y-11648257D01*
X9063571Y-11648257D02*
X9135000Y-11683971D01*
X9135000Y-11683971D02*
X9420714Y-11683971D01*
X8277857Y-12041114D02*
X8706428Y-12041114D01*
X8492143Y-12041114D02*
X8492143Y-11291114D01*
X8492143Y-11291114D02*
X8563571Y-11398257D01*
X8563571Y-11398257D02*
X8635000Y-11469685D01*
X8635000Y-11469685D02*
X8706428Y-11505400D01*
X7635000Y-11541114D02*
X7635000Y-12041114D01*
X7813571Y-11255400D02*
X7992142Y-11791114D01*
X7992142Y-11791114D02*
X7527857Y-11791114D01*
D11*
X7504761Y-24804819D02*
X7504761Y-25519104D01*
X7504761Y-25519104D02*
X7552380Y-25661961D01*
X7552380Y-25661961D02*
X7647618Y-25757200D01*
X7647618Y-25757200D02*
X7790475Y-25804819D01*
X7790475Y-25804819D02*
X7885713Y-25804819D01*
X7028570Y-25804819D02*
X7028570Y-24804819D01*
X7028570Y-24804819D02*
X6695237Y-25519104D01*
X6695237Y-25519104D02*
X6361904Y-24804819D01*
X6361904Y-24804819D02*
X6361904Y-25804819D01*
X5885713Y-25804819D02*
X5885713Y-24804819D01*
X5885713Y-24804819D02*
X5504761Y-24804819D01*
X5504761Y-24804819D02*
X5409523Y-24852438D01*
X5409523Y-24852438D02*
X5361904Y-24900057D01*
X5361904Y-24900057D02*
X5314285Y-24995295D01*
X5314285Y-24995295D02*
X5314285Y-25138152D01*
X5314285Y-25138152D02*
X5361904Y-25233390D01*
X5361904Y-25233390D02*
X5409523Y-25281009D01*
X5409523Y-25281009D02*
X5504761Y-25328628D01*
X5504761Y-25328628D02*
X5885713Y-25328628D01*
X4314285Y-25804819D02*
X4647618Y-25328628D01*
X4885713Y-25804819D02*
X4885713Y-24804819D01*
X4885713Y-24804819D02*
X4504761Y-24804819D01*
X4504761Y-24804819D02*
X4409523Y-24852438D01*
X4409523Y-24852438D02*
X4361904Y-24900057D01*
X4361904Y-24900057D02*
X4314285Y-24995295D01*
X4314285Y-24995295D02*
X4314285Y-25138152D01*
X4314285Y-25138152D02*
X4361904Y-25233390D01*
X4361904Y-25233390D02*
X4409523Y-25281009D01*
X4409523Y-25281009D02*
X4504761Y-25328628D01*
X4504761Y-25328628D02*
X4885713Y-25328628D01*
X3361904Y-25804819D02*
X3933332Y-25804819D01*
X3647618Y-25804819D02*
X3647618Y-24804819D01*
X3647618Y-24804819D02*
X3742856Y-24947676D01*
X3742856Y-24947676D02*
X3838094Y-25042914D01*
X3838094Y-25042914D02*
X3933332Y-25090533D01*
D12*
X7611428Y-45521114D02*
X7611428Y-46128257D01*
X7611428Y-46128257D02*
X7575714Y-46199685D01*
X7575714Y-46199685D02*
X7540000Y-46235400D01*
X7540000Y-46235400D02*
X7468571Y-46271114D01*
X7468571Y-46271114D02*
X7325714Y-46271114D01*
X7325714Y-46271114D02*
X7254285Y-46235400D01*
X7254285Y-46235400D02*
X7218571Y-46199685D01*
X7218571Y-46199685D02*
X7182857Y-46128257D01*
X7182857Y-46128257D02*
X7182857Y-45521114D01*
X6790000Y-46271114D02*
X6647143Y-46271114D01*
X6647143Y-46271114D02*
X6575714Y-46235400D01*
X6575714Y-46235400D02*
X6540000Y-46199685D01*
X6540000Y-46199685D02*
X6468571Y-46092542D01*
X6468571Y-46092542D02*
X6432857Y-45949685D01*
X6432857Y-45949685D02*
X6432857Y-45663971D01*
X6432857Y-45663971D02*
X6468571Y-45592542D01*
X6468571Y-45592542D02*
X6504286Y-45556828D01*
X6504286Y-45556828D02*
X6575714Y-45521114D01*
X6575714Y-45521114D02*
X6718571Y-45521114D01*
X6718571Y-45521114D02*
X6790000Y-45556828D01*
X6790000Y-45556828D02*
X6825714Y-45592542D01*
X6825714Y-45592542D02*
X6861428Y-45663971D01*
X6861428Y-45663971D02*
X6861428Y-45842542D01*
X6861428Y-45842542D02*
X6825714Y-45913971D01*
X6825714Y-45913971D02*
X6790000Y-45949685D01*
X6790000Y-45949685D02*
X6718571Y-45985400D01*
X6718571Y-45985400D02*
X6575714Y-45985400D01*
X6575714Y-45985400D02*
X6504286Y-45949685D01*
X6504286Y-45949685D02*
X6468571Y-45913971D01*
X6468571Y-45913971D02*
X6432857Y-45842542D01*
X27017856Y-3248257D02*
X26767856Y-3248257D01*
X26660713Y-3641114D02*
X27017856Y-3641114D01*
X27017856Y-3641114D02*
X27017856Y-2891114D01*
X27017856Y-2891114D02*
X26660713Y-2891114D01*
X26017857Y-3141114D02*
X26017857Y-3641114D01*
X26196428Y-2855400D02*
X26374999Y-3391114D01*
X26374999Y-3391114D02*
X25910714Y-3391114D01*
X5655000Y-32571114D02*
X5905000Y-32213971D01*
X6083571Y-32571114D02*
X6083571Y-31821114D01*
X6083571Y-31821114D02*
X5797857Y-31821114D01*
X5797857Y-31821114D02*
X5726428Y-31856828D01*
X5726428Y-31856828D02*
X5690714Y-31892542D01*
X5690714Y-31892542D02*
X5655000Y-31963971D01*
X5655000Y-31963971D02*
X5655000Y-32071114D01*
X5655000Y-32071114D02*
X5690714Y-32142542D01*
X5690714Y-32142542D02*
X5726428Y-32178257D01*
X5726428Y-32178257D02*
X5797857Y-32213971D01*
X5797857Y-32213971D02*
X6083571Y-32213971D01*
X5405000Y-31821114D02*
X4940714Y-31821114D01*
X4940714Y-31821114D02*
X5190714Y-32106828D01*
X5190714Y-32106828D02*
X5083571Y-32106828D01*
X5083571Y-32106828D02*
X5012143Y-32142542D01*
X5012143Y-32142542D02*
X4976428Y-32178257D01*
X4976428Y-32178257D02*
X4940714Y-32249685D01*
X4940714Y-32249685D02*
X4940714Y-32428257D01*
X4940714Y-32428257D02*
X4976428Y-32499685D01*
X4976428Y-32499685D02*
X5012143Y-32535400D01*
X5012143Y-32535400D02*
X5083571Y-32571114D01*
X5083571Y-32571114D02*
X5297857Y-32571114D01*
X5297857Y-32571114D02*
X5369285Y-32535400D01*
X5369285Y-32535400D02*
X5405000Y-32499685D01*
X17724999Y-3641114D02*
X18082142Y-3641114D01*
X18082142Y-3641114D02*
X18082142Y-2891114D01*
X17546428Y-2891114D02*
X17082142Y-2891114D01*
X17082142Y-2891114D02*
X17332142Y-3176828D01*
X17332142Y-3176828D02*
X17224999Y-3176828D01*
X17224999Y-3176828D02*
X17153571Y-3212542D01*
X17153571Y-3212542D02*
X17117856Y-3248257D01*
X17117856Y-3248257D02*
X17082142Y-3319685D01*
X17082142Y-3319685D02*
X17082142Y-3498257D01*
X17082142Y-3498257D02*
X17117856Y-3569685D01*
X17117856Y-3569685D02*
X17153571Y-3605400D01*
X17153571Y-3605400D02*
X17224999Y-3641114D01*
X17224999Y-3641114D02*
X17439285Y-3641114D01*
X17439285Y-3641114D02*
X17510713Y-3605400D01*
X17510713Y-3605400D02*
X17546428Y-3569685D01*
X4282143Y-2441114D02*
X4532143Y-2083971D01*
X4710714Y-2441114D02*
X4710714Y-1691114D01*
X4710714Y-1691114D02*
X4425000Y-1691114D01*
X4425000Y-1691114D02*
X4353571Y-1726828D01*
X4353571Y-1726828D02*
X4317857Y-1762542D01*
X4317857Y-1762542D02*
X4282143Y-1833971D01*
X4282143Y-1833971D02*
X4282143Y-1941114D01*
X4282143Y-1941114D02*
X4317857Y-2012542D01*
X4317857Y-2012542D02*
X4353571Y-2048257D01*
X4353571Y-2048257D02*
X4425000Y-2083971D01*
X4425000Y-2083971D02*
X4710714Y-2083971D01*
X3567857Y-2441114D02*
X3996428Y-2441114D01*
X3782143Y-2441114D02*
X3782143Y-1691114D01*
X3782143Y-1691114D02*
X3853571Y-1798257D01*
X3853571Y-1798257D02*
X3925000Y-1869685D01*
X3925000Y-1869685D02*
X3996428Y-1905400D01*
X3103571Y-1691114D02*
X3032142Y-1691114D01*
X3032142Y-1691114D02*
X2960714Y-1726828D01*
X2960714Y-1726828D02*
X2925000Y-1762542D01*
X2925000Y-1762542D02*
X2889285Y-1833971D01*
X2889285Y-1833971D02*
X2853571Y-1976828D01*
X2853571Y-1976828D02*
X2853571Y-2155400D01*
X2853571Y-2155400D02*
X2889285Y-2298257D01*
X2889285Y-2298257D02*
X2925000Y-2369685D01*
X2925000Y-2369685D02*
X2960714Y-2405400D01*
X2960714Y-2405400D02*
X3032142Y-2441114D01*
X3032142Y-2441114D02*
X3103571Y-2441114D01*
X3103571Y-2441114D02*
X3175000Y-2405400D01*
X3175000Y-2405400D02*
X3210714Y-2369685D01*
X3210714Y-2369685D02*
X3246428Y-2298257D01*
X3246428Y-2298257D02*
X3282142Y-2155400D01*
X3282142Y-2155400D02*
X3282142Y-1976828D01*
X3282142Y-1976828D02*
X3246428Y-1833971D01*
X3246428Y-1833971D02*
X3210714Y-1762542D01*
X3210714Y-1762542D02*
X3175000Y-1726828D01*
X3175000Y-1726828D02*
X3103571Y-1691114D01*
X18517856Y-54500257D02*
X18267856Y-54500257D01*
X18160713Y-54893114D02*
X18517856Y-54893114D01*
X18517856Y-54893114D02*
X18517856Y-54143114D01*
X18517856Y-54143114D02*
X18160713Y-54143114D01*
X17446428Y-54893114D02*
X17874999Y-54893114D01*
X17660714Y-54893114D02*
X17660714Y-54143114D01*
X17660714Y-54143114D02*
X17732142Y-54250257D01*
X17732142Y-54250257D02*
X17803571Y-54321685D01*
X17803571Y-54321685D02*
X17874999Y-54357400D01*
X34182143Y-3941114D02*
X34432143Y-3583971D01*
X34610714Y-3941114D02*
X34610714Y-3191114D01*
X34610714Y-3191114D02*
X34325000Y-3191114D01*
X34325000Y-3191114D02*
X34253571Y-3226828D01*
X34253571Y-3226828D02*
X34217857Y-3262542D01*
X34217857Y-3262542D02*
X34182143Y-3333971D01*
X34182143Y-3333971D02*
X34182143Y-3441114D01*
X34182143Y-3441114D02*
X34217857Y-3512542D01*
X34217857Y-3512542D02*
X34253571Y-3548257D01*
X34253571Y-3548257D02*
X34325000Y-3583971D01*
X34325000Y-3583971D02*
X34610714Y-3583971D01*
X33467857Y-3941114D02*
X33896428Y-3941114D01*
X33682143Y-3941114D02*
X33682143Y-3191114D01*
X33682143Y-3191114D02*
X33753571Y-3298257D01*
X33753571Y-3298257D02*
X33825000Y-3369685D01*
X33825000Y-3369685D02*
X33896428Y-3405400D01*
X33182142Y-3262542D02*
X33146428Y-3226828D01*
X33146428Y-3226828D02*
X33075000Y-3191114D01*
X33075000Y-3191114D02*
X32896428Y-3191114D01*
X32896428Y-3191114D02*
X32825000Y-3226828D01*
X32825000Y-3226828D02*
X32789285Y-3262542D01*
X32789285Y-3262542D02*
X32753571Y-3333971D01*
X32753571Y-3333971D02*
X32753571Y-3405400D01*
X32753571Y-3405400D02*
X32789285Y-3512542D01*
X32789285Y-3512542D02*
X33217857Y-3941114D01*
X33217857Y-3941114D02*
X32753571Y-3941114D01*
X12525000Y-54791114D02*
X12775000Y-54433971D01*
X12953571Y-54791114D02*
X12953571Y-54041114D01*
X12953571Y-54041114D02*
X12667857Y-54041114D01*
X12667857Y-54041114D02*
X12596428Y-54076828D01*
X12596428Y-54076828D02*
X12560714Y-54112542D01*
X12560714Y-54112542D02*
X12525000Y-54183971D01*
X12525000Y-54183971D02*
X12525000Y-54291114D01*
X12525000Y-54291114D02*
X12560714Y-54362542D01*
X12560714Y-54362542D02*
X12596428Y-54398257D01*
X12596428Y-54398257D02*
X12667857Y-54433971D01*
X12667857Y-54433971D02*
X12953571Y-54433971D01*
X11882143Y-54041114D02*
X12025000Y-54041114D01*
X12025000Y-54041114D02*
X12096428Y-54076828D01*
X12096428Y-54076828D02*
X12132143Y-54112542D01*
X12132143Y-54112542D02*
X12203571Y-54219685D01*
X12203571Y-54219685D02*
X12239285Y-54362542D01*
X12239285Y-54362542D02*
X12239285Y-54648257D01*
X12239285Y-54648257D02*
X12203571Y-54719685D01*
X12203571Y-54719685D02*
X12167857Y-54755400D01*
X12167857Y-54755400D02*
X12096428Y-54791114D01*
X12096428Y-54791114D02*
X11953571Y-54791114D01*
X11953571Y-54791114D02*
X11882143Y-54755400D01*
X11882143Y-54755400D02*
X11846428Y-54719685D01*
X11846428Y-54719685D02*
X11810714Y-54648257D01*
X11810714Y-54648257D02*
X11810714Y-54469685D01*
X11810714Y-54469685D02*
X11846428Y-54398257D01*
X11846428Y-54398257D02*
X11882143Y-54362542D01*
X11882143Y-54362542D02*
X11953571Y-54326828D01*
X11953571Y-54326828D02*
X12096428Y-54326828D01*
X12096428Y-54326828D02*
X12167857Y-54362542D01*
X12167857Y-54362542D02*
X12203571Y-54398257D01*
X12203571Y-54398257D02*
X12239285Y-54469685D01*
X5635000Y-29551114D02*
X5885000Y-29193971D01*
X6063571Y-29551114D02*
X6063571Y-28801114D01*
X6063571Y-28801114D02*
X5777857Y-28801114D01*
X5777857Y-28801114D02*
X5706428Y-28836828D01*
X5706428Y-28836828D02*
X5670714Y-28872542D01*
X5670714Y-28872542D02*
X5635000Y-28943971D01*
X5635000Y-28943971D02*
X5635000Y-29051114D01*
X5635000Y-29051114D02*
X5670714Y-29122542D01*
X5670714Y-29122542D02*
X5706428Y-29158257D01*
X5706428Y-29158257D02*
X5777857Y-29193971D01*
X5777857Y-29193971D02*
X6063571Y-29193971D01*
X4992143Y-29051114D02*
X4992143Y-29551114D01*
X5170714Y-28765400D02*
X5349285Y-29301114D01*
X5349285Y-29301114D02*
X4885000Y-29301114D01*
X2945000Y-14229685D02*
X2980714Y-14265400D01*
X2980714Y-14265400D02*
X3087857Y-14301114D01*
X3087857Y-14301114D02*
X3159285Y-14301114D01*
X3159285Y-14301114D02*
X3266428Y-14265400D01*
X3266428Y-14265400D02*
X3337857Y-14193971D01*
X3337857Y-14193971D02*
X3373571Y-14122542D01*
X3373571Y-14122542D02*
X3409285Y-13979685D01*
X3409285Y-13979685D02*
X3409285Y-13872542D01*
X3409285Y-13872542D02*
X3373571Y-13729685D01*
X3373571Y-13729685D02*
X3337857Y-13658257D01*
X3337857Y-13658257D02*
X3266428Y-13586828D01*
X3266428Y-13586828D02*
X3159285Y-13551114D01*
X3159285Y-13551114D02*
X3087857Y-13551114D01*
X3087857Y-13551114D02*
X2980714Y-13586828D01*
X2980714Y-13586828D02*
X2945000Y-13622542D01*
X2266428Y-13551114D02*
X2623571Y-13551114D01*
X2623571Y-13551114D02*
X2659285Y-13908257D01*
X2659285Y-13908257D02*
X2623571Y-13872542D01*
X2623571Y-13872542D02*
X2552143Y-13836828D01*
X2552143Y-13836828D02*
X2373571Y-13836828D01*
X2373571Y-13836828D02*
X2302143Y-13872542D01*
X2302143Y-13872542D02*
X2266428Y-13908257D01*
X2266428Y-13908257D02*
X2230714Y-13979685D01*
X2230714Y-13979685D02*
X2230714Y-14158257D01*
X2230714Y-14158257D02*
X2266428Y-14229685D01*
X2266428Y-14229685D02*
X2302143Y-14265400D01*
X2302143Y-14265400D02*
X2373571Y-14301114D01*
X2373571Y-14301114D02*
X2552143Y-14301114D01*
X2552143Y-14301114D02*
X2623571Y-14265400D01*
X2623571Y-14265400D02*
X2659285Y-14229685D01*
X26374999Y-54893114D02*
X26732142Y-54893114D01*
X26732142Y-54893114D02*
X26732142Y-54143114D01*
X26160713Y-54214542D02*
X26124999Y-54178828D01*
X26124999Y-54178828D02*
X26053571Y-54143114D01*
X26053571Y-54143114D02*
X25874999Y-54143114D01*
X25874999Y-54143114D02*
X25803571Y-54178828D01*
X25803571Y-54178828D02*
X25767856Y-54214542D01*
X25767856Y-54214542D02*
X25732142Y-54285971D01*
X25732142Y-54285971D02*
X25732142Y-54357400D01*
X25732142Y-54357400D02*
X25767856Y-54464542D01*
X25767856Y-54464542D02*
X26196428Y-54893114D01*
X26196428Y-54893114D02*
X25732142Y-54893114D01*
D11*
X28346666Y-22779580D02*
X28394285Y-22827200D01*
X28394285Y-22827200D02*
X28537142Y-22874819D01*
X28537142Y-22874819D02*
X28632380Y-22874819D01*
X28632380Y-22874819D02*
X28775237Y-22827200D01*
X28775237Y-22827200D02*
X28870475Y-22731961D01*
X28870475Y-22731961D02*
X28918094Y-22636723D01*
X28918094Y-22636723D02*
X28965713Y-22446247D01*
X28965713Y-22446247D02*
X28965713Y-22303390D01*
X28965713Y-22303390D02*
X28918094Y-22112914D01*
X28918094Y-22112914D02*
X28870475Y-22017676D01*
X28870475Y-22017676D02*
X28775237Y-21922438D01*
X28775237Y-21922438D02*
X28632380Y-21874819D01*
X28632380Y-21874819D02*
X28537142Y-21874819D01*
X28537142Y-21874819D02*
X28394285Y-21922438D01*
X28394285Y-21922438D02*
X28346666Y-21970057D01*
X28013332Y-21874819D02*
X27346666Y-21874819D01*
X27346666Y-21874819D02*
X27775237Y-22874819D01*
X36998570Y-18850057D02*
X36950951Y-18802438D01*
X36950951Y-18802438D02*
X36855713Y-18754819D01*
X36855713Y-18754819D02*
X36617618Y-18754819D01*
X36617618Y-18754819D02*
X36522380Y-18802438D01*
X36522380Y-18802438D02*
X36474761Y-18850057D01*
X36474761Y-18850057D02*
X36427142Y-18945295D01*
X36427142Y-18945295D02*
X36427142Y-19040533D01*
X36427142Y-19040533D02*
X36474761Y-19183390D01*
X36474761Y-19183390D02*
X37046189Y-19754819D01*
X37046189Y-19754819D02*
X36427142Y-19754819D01*
X35998570Y-19659580D02*
X35950951Y-19707200D01*
X35950951Y-19707200D02*
X35998570Y-19754819D01*
X35998570Y-19754819D02*
X36046189Y-19707200D01*
X36046189Y-19707200D02*
X35998570Y-19659580D01*
X35998570Y-19659580D02*
X35998570Y-19754819D01*
X35046190Y-18754819D02*
X35522380Y-18754819D01*
X35522380Y-18754819D02*
X35569999Y-19231009D01*
X35569999Y-19231009D02*
X35522380Y-19183390D01*
X35522380Y-19183390D02*
X35427142Y-19135771D01*
X35427142Y-19135771D02*
X35189047Y-19135771D01*
X35189047Y-19135771D02*
X35093809Y-19183390D01*
X35093809Y-19183390D02*
X35046190Y-19231009D01*
X35046190Y-19231009D02*
X34998571Y-19326247D01*
X34998571Y-19326247D02*
X34998571Y-19564342D01*
X34998571Y-19564342D02*
X35046190Y-19659580D01*
X35046190Y-19659580D02*
X35093809Y-19707200D01*
X35093809Y-19707200D02*
X35189047Y-19754819D01*
X35189047Y-19754819D02*
X35427142Y-19754819D01*
X35427142Y-19754819D02*
X35522380Y-19707200D01*
X35522380Y-19707200D02*
X35569999Y-19659580D01*
X34712856Y-18754819D02*
X34379523Y-19754819D01*
X34379523Y-19754819D02*
X34046190Y-18754819D01*
D12*
X28617856Y-54500257D02*
X28367856Y-54500257D01*
X28260713Y-54893114D02*
X28617856Y-54893114D01*
X28617856Y-54893114D02*
X28617856Y-54143114D01*
X28617856Y-54143114D02*
X28260713Y-54143114D01*
X27974999Y-54214542D02*
X27939285Y-54178828D01*
X27939285Y-54178828D02*
X27867857Y-54143114D01*
X27867857Y-54143114D02*
X27689285Y-54143114D01*
X27689285Y-54143114D02*
X27617857Y-54178828D01*
X27617857Y-54178828D02*
X27582142Y-54214542D01*
X27582142Y-54214542D02*
X27546428Y-54285971D01*
X27546428Y-54285971D02*
X27546428Y-54357400D01*
X27546428Y-54357400D02*
X27582142Y-54464542D01*
X27582142Y-54464542D02*
X28010714Y-54893114D01*
X28010714Y-54893114D02*
X27546428Y-54893114D01*
D11*
X14983332Y-50154819D02*
X14649999Y-51154819D01*
X14649999Y-51154819D02*
X14316666Y-50154819D01*
X13411904Y-51059580D02*
X13459523Y-51107200D01*
X13459523Y-51107200D02*
X13602380Y-51154819D01*
X13602380Y-51154819D02*
X13697618Y-51154819D01*
X13697618Y-51154819D02*
X13840475Y-51107200D01*
X13840475Y-51107200D02*
X13935713Y-51011961D01*
X13935713Y-51011961D02*
X13983332Y-50916723D01*
X13983332Y-50916723D02*
X14030951Y-50726247D01*
X14030951Y-50726247D02*
X14030951Y-50583390D01*
X14030951Y-50583390D02*
X13983332Y-50392914D01*
X13983332Y-50392914D02*
X13935713Y-50297676D01*
X13935713Y-50297676D02*
X13840475Y-50202438D01*
X13840475Y-50202438D02*
X13697618Y-50154819D01*
X13697618Y-50154819D02*
X13602380Y-50154819D01*
X13602380Y-50154819D02*
X13459523Y-50202438D01*
X13459523Y-50202438D02*
X13411904Y-50250057D01*
X12411904Y-51059580D02*
X12459523Y-51107200D01*
X12459523Y-51107200D02*
X12602380Y-51154819D01*
X12602380Y-51154819D02*
X12697618Y-51154819D01*
X12697618Y-51154819D02*
X12840475Y-51107200D01*
X12840475Y-51107200D02*
X12935713Y-51011961D01*
X12935713Y-51011961D02*
X12983332Y-50916723D01*
X12983332Y-50916723D02*
X13030951Y-50726247D01*
X13030951Y-50726247D02*
X13030951Y-50583390D01*
X13030951Y-50583390D02*
X12983332Y-50392914D01*
X12983332Y-50392914D02*
X12935713Y-50297676D01*
X12935713Y-50297676D02*
X12840475Y-50202438D01*
X12840475Y-50202438D02*
X12697618Y-50154819D01*
X12697618Y-50154819D02*
X12602380Y-50154819D01*
X12602380Y-50154819D02*
X12459523Y-50202438D01*
X12459523Y-50202438D02*
X12411904Y-50250057D01*
X8292380Y-36564819D02*
X7959047Y-37564819D01*
X7959047Y-37564819D02*
X7625714Y-36564819D01*
X7339999Y-37675295D02*
X7339999Y-37141961D01*
X7339999Y-37294342D02*
X7301904Y-37218152D01*
X7301904Y-37218152D02*
X7263809Y-37180057D01*
X7263809Y-37180057D02*
X7187618Y-37141961D01*
X7187618Y-37141961D02*
X7111428Y-37141961D01*
X6539999Y-37637200D02*
X6616190Y-37675295D01*
X6616190Y-37675295D02*
X6768571Y-37675295D01*
X6768571Y-37675295D02*
X6844761Y-37637200D01*
X6844761Y-37637200D02*
X6882857Y-37561009D01*
X6882857Y-37561009D02*
X6882857Y-37256247D01*
X6882857Y-37256247D02*
X6844761Y-37180057D01*
X6844761Y-37180057D02*
X6768571Y-37141961D01*
X6768571Y-37141961D02*
X6616190Y-37141961D01*
X6616190Y-37141961D02*
X6539999Y-37180057D01*
X6539999Y-37180057D02*
X6501904Y-37256247D01*
X6501904Y-37256247D02*
X6501904Y-37332438D01*
X6501904Y-37332438D02*
X6882857Y-37408628D01*
X6273333Y-37141961D02*
X5968571Y-37141961D01*
X6159047Y-37675295D02*
X6159047Y-36989580D01*
X6159047Y-36989580D02*
X6120952Y-36913390D01*
X6120952Y-36913390D02*
X6044762Y-36875295D01*
X6044762Y-36875295D02*
X5968571Y-36875295D01*
D12*
X18981428Y-7841114D02*
X18981428Y-8448257D01*
X18981428Y-8448257D02*
X18945714Y-8519685D01*
X18945714Y-8519685D02*
X18910000Y-8555400D01*
X18910000Y-8555400D02*
X18838571Y-8591114D01*
X18838571Y-8591114D02*
X18695714Y-8591114D01*
X18695714Y-8591114D02*
X18624285Y-8555400D01*
X18624285Y-8555400D02*
X18588571Y-8519685D01*
X18588571Y-8519685D02*
X18552857Y-8448257D01*
X18552857Y-8448257D02*
X18552857Y-7841114D01*
X17838571Y-7841114D02*
X18195714Y-7841114D01*
X18195714Y-7841114D02*
X18231428Y-8198257D01*
X18231428Y-8198257D02*
X18195714Y-8162542D01*
X18195714Y-8162542D02*
X18124286Y-8126828D01*
X18124286Y-8126828D02*
X17945714Y-8126828D01*
X17945714Y-8126828D02*
X17874286Y-8162542D01*
X17874286Y-8162542D02*
X17838571Y-8198257D01*
X17838571Y-8198257D02*
X17802857Y-8269685D01*
X17802857Y-8269685D02*
X17802857Y-8448257D01*
X17802857Y-8448257D02*
X17838571Y-8519685D01*
X17838571Y-8519685D02*
X17874286Y-8555400D01*
X17874286Y-8555400D02*
X17945714Y-8591114D01*
X17945714Y-8591114D02*
X18124286Y-8591114D01*
X18124286Y-8591114D02*
X18195714Y-8555400D01*
X18195714Y-8555400D02*
X18231428Y-8519685D01*
X39166428Y-19641114D02*
X39416428Y-19283971D01*
X39594999Y-19641114D02*
X39594999Y-18891114D01*
X39594999Y-18891114D02*
X39309285Y-18891114D01*
X39309285Y-18891114D02*
X39237856Y-18926828D01*
X39237856Y-18926828D02*
X39202142Y-18962542D01*
X39202142Y-18962542D02*
X39166428Y-19033971D01*
X39166428Y-19033971D02*
X39166428Y-19141114D01*
X39166428Y-19141114D02*
X39202142Y-19212542D01*
X39202142Y-19212542D02*
X39237856Y-19248257D01*
X39237856Y-19248257D02*
X39309285Y-19283971D01*
X39309285Y-19283971D02*
X39594999Y-19283971D01*
X38952142Y-18891114D02*
X38702142Y-19641114D01*
X38702142Y-19641114D02*
X38452142Y-18891114D01*
X37809285Y-19641114D02*
X38237856Y-19641114D01*
X38023571Y-19641114D02*
X38023571Y-18891114D01*
X38023571Y-18891114D02*
X38094999Y-18998257D01*
X38094999Y-18998257D02*
X38166428Y-19069685D01*
X38166428Y-19069685D02*
X38237856Y-19105400D01*
X40632143Y-2391114D02*
X40882143Y-2033971D01*
X41060714Y-2391114D02*
X41060714Y-1641114D01*
X41060714Y-1641114D02*
X40775000Y-1641114D01*
X40775000Y-1641114D02*
X40703571Y-1676828D01*
X40703571Y-1676828D02*
X40667857Y-1712542D01*
X40667857Y-1712542D02*
X40632143Y-1783971D01*
X40632143Y-1783971D02*
X40632143Y-1891114D01*
X40632143Y-1891114D02*
X40667857Y-1962542D01*
X40667857Y-1962542D02*
X40703571Y-1998257D01*
X40703571Y-1998257D02*
X40775000Y-2033971D01*
X40775000Y-2033971D02*
X41060714Y-2033971D01*
X39917857Y-2391114D02*
X40346428Y-2391114D01*
X40132143Y-2391114D02*
X40132143Y-1641114D01*
X40132143Y-1641114D02*
X40203571Y-1748257D01*
X40203571Y-1748257D02*
X40275000Y-1819685D01*
X40275000Y-1819685D02*
X40346428Y-1855400D01*
X39203571Y-2391114D02*
X39632142Y-2391114D01*
X39417857Y-2391114D02*
X39417857Y-1641114D01*
X39417857Y-1641114D02*
X39489285Y-1748257D01*
X39489285Y-1748257D02*
X39560714Y-1819685D01*
X39560714Y-1819685D02*
X39632142Y-1855400D01*
D11*
X39366666Y-56454819D02*
X39699999Y-55978628D01*
X39938094Y-56454819D02*
X39938094Y-55454819D01*
X39938094Y-55454819D02*
X39557142Y-55454819D01*
X39557142Y-55454819D02*
X39461904Y-55502438D01*
X39461904Y-55502438D02*
X39414285Y-55550057D01*
X39414285Y-55550057D02*
X39366666Y-55645295D01*
X39366666Y-55645295D02*
X39366666Y-55788152D01*
X39366666Y-55788152D02*
X39414285Y-55883390D01*
X39414285Y-55883390D02*
X39461904Y-55931009D01*
X39461904Y-55931009D02*
X39557142Y-55978628D01*
X39557142Y-55978628D02*
X39938094Y-55978628D01*
X38795237Y-55883390D02*
X38890475Y-55835771D01*
X38890475Y-55835771D02*
X38938094Y-55788152D01*
X38938094Y-55788152D02*
X38985713Y-55692914D01*
X38985713Y-55692914D02*
X38985713Y-55645295D01*
X38985713Y-55645295D02*
X38938094Y-55550057D01*
X38938094Y-55550057D02*
X38890475Y-55502438D01*
X38890475Y-55502438D02*
X38795237Y-55454819D01*
X38795237Y-55454819D02*
X38604761Y-55454819D01*
X38604761Y-55454819D02*
X38509523Y-55502438D01*
X38509523Y-55502438D02*
X38461904Y-55550057D01*
X38461904Y-55550057D02*
X38414285Y-55645295D01*
X38414285Y-55645295D02*
X38414285Y-55692914D01*
X38414285Y-55692914D02*
X38461904Y-55788152D01*
X38461904Y-55788152D02*
X38509523Y-55835771D01*
X38509523Y-55835771D02*
X38604761Y-55883390D01*
X38604761Y-55883390D02*
X38795237Y-55883390D01*
X38795237Y-55883390D02*
X38890475Y-55931009D01*
X38890475Y-55931009D02*
X38938094Y-55978628D01*
X38938094Y-55978628D02*
X38985713Y-56073866D01*
X38985713Y-56073866D02*
X38985713Y-56264342D01*
X38985713Y-56264342D02*
X38938094Y-56359580D01*
X38938094Y-56359580D02*
X38890475Y-56407200D01*
X38890475Y-56407200D02*
X38795237Y-56454819D01*
X38795237Y-56454819D02*
X38604761Y-56454819D01*
X38604761Y-56454819D02*
X38509523Y-56407200D01*
X38509523Y-56407200D02*
X38461904Y-56359580D01*
X38461904Y-56359580D02*
X38414285Y-56264342D01*
X38414285Y-56264342D02*
X38414285Y-56073866D01*
X38414285Y-56073866D02*
X38461904Y-55978628D01*
X38461904Y-55978628D02*
X38509523Y-55931009D01*
X38509523Y-55931009D02*
X38604761Y-55883390D01*
D10*
%TO.C,U6*%
X35560000Y-17800000D02*
X37510000Y-17800000D01*
X35560000Y-17800000D02*
X33610000Y-17800000D01*
X35560000Y-12680000D02*
X39010000Y-12680000D01*
X35560000Y-12680000D02*
X33610000Y-12680000D01*
%TO.C,J1*%
X29015000Y-30910000D02*
X27575000Y-30910000D01*
X27575000Y-45700000D02*
X22375000Y-45700000D01*
X27575000Y-45130000D02*
X27575000Y-45700000D01*
X27575000Y-42590000D02*
X27575000Y-43610000D01*
X27575000Y-40050000D02*
X27575000Y-41070000D01*
X27575000Y-37510000D02*
X27575000Y-38530000D01*
X27575000Y-34970000D02*
X27575000Y-35990000D01*
X27575000Y-32430000D02*
X27575000Y-33450000D01*
X27575000Y-30340000D02*
X27575000Y-30910000D01*
X27575000Y-30340000D02*
X22375000Y-30340000D01*
X22375000Y-45130000D02*
X22375000Y-45700000D01*
X22375000Y-42590000D02*
X22375000Y-43610000D01*
X22375000Y-40050000D02*
X22375000Y-41070000D01*
X22375000Y-37510000D02*
X22375000Y-38530000D01*
X22375000Y-34970000D02*
X22375000Y-35990000D01*
X22375000Y-32430000D02*
X22375000Y-33450000D01*
X22375000Y-30340000D02*
X22375000Y-30910000D01*
%TO.C,5V*%
X19400000Y-39700000D02*
X19400000Y-38300000D01*
X19400000Y-38300000D02*
X18000000Y-38300000D01*
X18000000Y-39700000D02*
X19400000Y-39700000D01*
X18000000Y-38300000D02*
X18000000Y-39700000D01*
%TO.C,E3*%
X16400000Y-2400000D02*
X16400000Y-1000000D01*
X16400000Y-1000000D02*
X15000000Y-1000000D01*
X15000000Y-2400000D02*
X16400000Y-2400000D01*
X15000000Y-1000000D02*
X15000000Y-2400000D01*
%TO.C,U7*%
X34160000Y-10440000D02*
X34960000Y-10440000D01*
X34160000Y-10440000D02*
X33360000Y-10440000D01*
X34160000Y-7320000D02*
X35960000Y-7320000D01*
X34160000Y-7320000D02*
X33360000Y-7320000D01*
%TO.C,C8*%
X9791252Y-50075000D02*
X9268748Y-50075000D01*
X9791252Y-48605000D02*
X9268748Y-48605000D01*
%TO.C,L4*%
X29350000Y-2400000D02*
X29350000Y-1000000D01*
X29350000Y-1000000D02*
X27950000Y-1000000D01*
X27950000Y-2400000D02*
X29350000Y-2400000D01*
X27950000Y-1000000D02*
X27950000Y-2400000D01*
%TO.C,R13*%
X36735000Y-21772936D02*
X36735000Y-22227064D01*
X35265000Y-21772936D02*
X35265000Y-22227064D01*
%TO.C,R7*%
X32727064Y-56735000D02*
X32272936Y-56735000D01*
X32727064Y-55265000D02*
X32272936Y-55265000D01*
%TO.C,C2*%
X7199081Y-5735000D02*
X6676577Y-5735000D01*
X7199081Y-4265000D02*
X6676577Y-4265000D01*
%TO.C,Y1*%
X6375000Y-8725000D02*
X6375000Y-10075000D01*
X4625000Y-8725000D02*
X4625000Y-10075000D01*
%TO.C,R9*%
X11227064Y-2835000D02*
X10772936Y-2835000D01*
X11227064Y-1365000D02*
X10772936Y-1365000D01*
%TO.C,C3*%
X11261252Y-5735000D02*
X10738748Y-5735000D01*
X11261252Y-4265000D02*
X10738748Y-4265000D01*
%TO.C,C1*%
X41735000Y-15738748D02*
X41735000Y-16261252D01*
X40265000Y-15738748D02*
X40265000Y-16261252D01*
%TO.C,GND*%
X19400000Y-41700000D02*
X19400000Y-40300000D01*
X19400000Y-40300000D02*
X18000000Y-40300000D01*
X18000000Y-41700000D02*
X19400000Y-41700000D01*
X18000000Y-40300000D02*
X18000000Y-41700000D01*
%TO.C,R5*%
X7977064Y-56735000D02*
X7522936Y-56735000D01*
X7977064Y-55265000D02*
X7522936Y-55265000D01*
%TO.C,U8*%
X25760000Y-25720000D02*
X25760000Y-24920000D01*
X25760000Y-25720000D02*
X25760000Y-26520000D01*
X22640000Y-25720000D02*
X22640000Y-23920000D01*
X22640000Y-25720000D02*
X22640000Y-26520000D01*
%TO.C,C6*%
X38605000Y-8748748D02*
X38605000Y-9271252D01*
X37135000Y-8748748D02*
X37135000Y-9271252D01*
%TO.C,JMPR2*%
X37872936Y-28065000D02*
X38327064Y-28065000D01*
X37872936Y-29535000D02*
X38327064Y-29535000D01*
%TO.C,C4*%
X3485000Y-9488748D02*
X3485000Y-10011252D01*
X2015000Y-9488748D02*
X2015000Y-10011252D01*
%TO.C,L1*%
X16850000Y-56700000D02*
X16850000Y-55300000D01*
X16850000Y-55300000D02*
X15450000Y-55300000D01*
X15450000Y-56700000D02*
X16850000Y-56700000D01*
X15450000Y-55300000D02*
X15450000Y-56700000D01*
%TO.C,R14*%
X8735000Y-9022936D02*
X8735000Y-9477064D01*
X7265000Y-9022936D02*
X7265000Y-9477064D01*
%TO.C,JMPR1*%
X5322936Y-26205000D02*
X5777064Y-26205000D01*
X5322936Y-27675000D02*
X5777064Y-27675000D01*
%TO.C,U9*%
X8160000Y-45630000D02*
X8160000Y-46430000D01*
X8160000Y-45630000D02*
X8160000Y-44830000D01*
X11280000Y-45630000D02*
X11280000Y-47430000D01*
X11280000Y-45630000D02*
X11280000Y-44830000D01*
%TO.C,E4*%
X27200000Y-2400000D02*
X27200000Y-1000000D01*
X27200000Y-1000000D02*
X25800000Y-1000000D01*
X25800000Y-2400000D02*
X27200000Y-2400000D01*
X25800000Y-1000000D02*
X25800000Y-2400000D01*
%TO.C,R3*%
X7657064Y-34355000D02*
X7202936Y-34355000D01*
X7657064Y-32885000D02*
X7202936Y-32885000D01*
%TO.C,L3*%
X18300000Y-2400000D02*
X18300000Y-1000000D01*
X18300000Y-1000000D02*
X16900000Y-1000000D01*
X16900000Y-2400000D02*
X18300000Y-2400000D01*
X16900000Y-1000000D02*
X16900000Y-2400000D01*
%TO.C,R10*%
X7227064Y-2835000D02*
X6772936Y-2835000D01*
X7227064Y-1365000D02*
X6772936Y-1365000D01*
%TO.C,E1*%
X18700000Y-56700000D02*
X18700000Y-55300000D01*
X18700000Y-55300000D02*
X17300000Y-55300000D01*
X17300000Y-56700000D02*
X18700000Y-56700000D01*
X17300000Y-55300000D02*
X17300000Y-56700000D01*
%TO.C,R12*%
X33227064Y-2735000D02*
X32772936Y-2735000D01*
X33227064Y-1265000D02*
X32772936Y-1265000D01*
%TO.C,R6*%
X12727064Y-56735000D02*
X12272936Y-56735000D01*
X12727064Y-55265000D02*
X12272936Y-55265000D01*
%TO.C,R4*%
X7657064Y-31355000D02*
X7202936Y-31355000D01*
X7657064Y-29885000D02*
X7202936Y-29885000D01*
%TO.C,C5*%
X5661252Y-13745000D02*
X5138748Y-13745000D01*
X5661252Y-12275000D02*
X5138748Y-12275000D01*
%TO.C,L2*%
X26950000Y-56700000D02*
X26950000Y-55300000D01*
X26950000Y-55300000D02*
X25550000Y-55300000D01*
X25550000Y-56700000D02*
X26950000Y-56700000D01*
X25550000Y-55300000D02*
X25550000Y-56700000D01*
%TO.C,C7*%
X25018748Y-21725000D02*
X25541252Y-21725000D01*
X25018748Y-23195000D02*
X25541252Y-23195000D01*
%TO.C,2.5V*%
X33760000Y-19920000D02*
X33760000Y-18520000D01*
X33760000Y-18520000D02*
X32360000Y-18520000D01*
X32360000Y-19920000D02*
X33760000Y-19920000D01*
X32360000Y-18520000D02*
X32360000Y-19920000D01*
%TO.C,E2*%
X28800000Y-56700000D02*
X28800000Y-55300000D01*
X28800000Y-55300000D02*
X27400000Y-55300000D01*
X27400000Y-56700000D02*
X28800000Y-56700000D01*
X27400000Y-55300000D02*
X27400000Y-56700000D01*
%TO.C,VCC*%
X16640000Y-50870000D02*
X16640000Y-49470000D01*
X16640000Y-49470000D02*
X15240000Y-49470000D01*
X15240000Y-50870000D02*
X16640000Y-50870000D01*
X15240000Y-49470000D02*
X15240000Y-50870000D01*
%TO.C,V_{ref}*%
X7580000Y-36320000D02*
X7580000Y-34920000D01*
X7580000Y-34920000D02*
X6180000Y-34920000D01*
X6180000Y-36320000D02*
X7580000Y-36320000D01*
X6180000Y-34920000D02*
X6180000Y-36320000D01*
%TO.C,U5*%
X19610000Y-26460000D02*
X19610000Y-25815000D01*
X19610000Y-8185000D02*
X21450000Y-8185000D01*
X19610000Y-7540000D02*
X19610000Y-8185000D01*
X15750000Y-26460000D02*
X19610000Y-26460000D01*
X15750000Y-26460000D02*
X11890000Y-26460000D01*
X15750000Y-7540000D02*
X19610000Y-7540000D01*
X15750000Y-7540000D02*
X11890000Y-7540000D01*
X11890000Y-26460000D02*
X11890000Y-25815000D01*
X11890000Y-7540000D02*
X11890000Y-8185000D01*
%TO.C,RV1*%
X42520000Y-23870000D02*
X41240000Y-23870000D01*
X42520000Y-20130000D02*
X42520000Y-23870000D01*
X42520000Y-20130000D02*
X42140000Y-20130000D01*
X40360000Y-20130000D02*
X39640000Y-20130000D01*
X38760000Y-23870000D02*
X37480000Y-23870000D01*
X37860000Y-20130000D02*
X37480000Y-20130000D01*
X37480000Y-20130000D02*
X37480000Y-23870000D01*
%TO.C,R11*%
X37227064Y-2735000D02*
X36772936Y-2735000D01*
X37227064Y-1265000D02*
X36772936Y-1265000D01*
%TO.C,R8*%
X36727064Y-56735000D02*
X36272936Y-56735000D01*
X36727064Y-55265000D02*
X36272936Y-55265000D01*
%TD*%
M02*
