M48
; DRILL file {KiCad 7.0.7} date 2024 April 02, Tuesday 12:31:07
; FORMAT={-:-/ absolute / inch / decimal}
; #@! TF.CreationDate,2024-04-02T12:31:07-04:00
; #@! TF.GenerationSoftware,Kicad,Pcbnew,7.0.7
; #@! TF.FileFunction,Plated,1,4,PTH
FMAT,2
INCH
; #@! TA.AperFunction,Plated,PTH,ViaDrill
T1C0.0100
%
G90
G05
T1
X0.0394Y-0.2736
X0.0394Y-1.9961
X0.0394Y-2.0394
X0.0408Y-0.2265
X0.0591Y-0.128
X0.065Y-1.9961
X0.065Y-2.0394
X0.0662Y-0.2265
X0.0669Y-0.2736
X0.0823Y-0.5138
X0.122Y-2.0906
X0.1287Y-0.5138
X0.1508Y-2.139
X0.1732Y-0.1654
X0.2154Y-1.7539
X0.2287Y-1.4476
X0.2323Y-0.1516
X0.237Y-2.0996
X0.2531Y-1.1496
X0.2571Y-1.1201
X0.2673Y-1.7539
X0.2677Y-2.1614
X0.2807Y-0.0823
X0.2941Y-1.1366
X0.3071Y-2.2047
X0.3075Y-0.8205
X0.3136Y-0.514
X0.3138Y-0.1563
X0.3331Y-1.1177
X0.3484Y-0.8205
X0.3571Y-1.4465
X0.3594Y-0.5138
X0.3615Y-1.1177
X0.3642Y-0.1583
X0.3858Y-2.0488
X0.4055Y-2.2016
X0.4083Y-0.1504
X0.4516Y-1.4469
X0.452Y-0.1508
X0.4728Y-1.1409
X0.4736Y-2.0484
X0.4752Y-1.7539
X0.4945Y-2.2035
X0.4957Y-0.5134
X0.5177Y-0.1528
X0.5193Y-0.0827
X0.5343Y-0.5146
X0.5402Y-0.8205
X0.5756Y-0.8209
X0.611Y-0.8205
X0.613Y-1.1406
X0.6465Y-0.8205
X0.6516Y-0.1693
X0.6638Y-1.7539
X0.6677Y-1.4469
X0.6819Y-0.8205
X0.6831Y-1.1386
X0.6886Y-1.7535
X0.7016Y-1.4465
X0.7028Y-2.1004
X0.7067Y-0.5138
X0.7146Y-1.7535
X0.7173Y-0.8209
X0.7252Y-1.1386
X0.7299Y-0.1902
X0.7339Y-1.4469
X0.7398Y-0.1307
X0.7398Y-1.7535
X0.7646Y-1.7539
X0.7661Y-1.4465
X0.7776Y-2.1654
X0.81Y-1.1201
X0.8803Y-0.5138
X0.9016Y-0.8205
X0.915Y-1.1193
X0.9189Y-0.5134
X0.9535Y-0.8209
X0.9575Y-0.1775
X0.9827Y-0.5138
X0.9831Y-1.7543
X1.0094Y-1.1382
X1.0118Y-2.0748
X1.0307Y-0.8209
X1.0358Y-0.5138
X1.0803Y-0.1524
X1.0854Y-0.8217
X1.0866Y-2.0906
X1.1689Y-1.7531
X1.1756Y-1.4465
X1.187Y-0.5134
X1.1909Y-2.1539
X1.2Y-1.1398
X1.2157Y-0.2114
X1.2449Y-0.2126
X1.2909Y-1.4472
X1.3031Y-0.8209
X1.3035Y-0.0791
X1.3583Y-2.1732
X1.3583Y-2.2165
X1.4114Y-1.1339
X1.4201Y-0.213
X1.4618Y-0.0787
X1.502Y-0.1673
X1.5276Y-2.2165
X1.5591Y-2.1024
X1.5669Y-0.5138
X1.5748Y-0.8209
X1.5807Y-0.1929
X1.628Y-0.5138
X1.6398Y-0.2102
X1.6654Y-2.1417
X1.6713Y-0.1476
X1.685Y-2.0669
T0
M30
