M48
; DRILL file {KiCad 7.0.7} date 2024 December 12, Thursday 20:18:09
; FORMAT={-:-/ absolute / metric / decimal}
; #@! TF.CreationDate,2024-12-12T20:18:09-05:00
; #@! TF.GenerationSoftware,Kicad,Pcbnew,7.0.7
; #@! TF.FileFunction,Plated,1,4,PTH
FMAT,2
METRIC
; #@! TA.AperFunction,Plated,PTH,ViaDrill
T1C0.400
; #@! TA.AperFunction,Plated,PTH,ViaDrill
T2C0.800
; #@! TA.AperFunction,Plated,PTH,ComponentDrill
T3C1.000
%
G90
G05
T1
X20.07Y-55.19
X20.1Y-51.16
X22.79Y-52.7
X22.81Y-48.7
X22.81Y-51.299
X22.81Y-55.299
X24.06Y-53.99
X25.08Y-42.21
X27.77Y-46.04
X29.667Y-42.203
X30.5Y-24.0
X31.9Y-29.1
X35.7Y-51.5
X35.75Y-49.79
X36.84Y-42.17
X38.29Y-38.82
X39.13Y-23.78
X39.16Y-29.115
X39.19Y-62.53
X40.148Y-22.108
X41.7Y-29.1
X41.91Y-42.17
X42.3Y-51.01
X42.59Y-54.59
X44.2Y-24.85
X44.21Y-56.1
X44.26Y-63.24
X45.1Y-49.7
X45.26Y-42.17
X45.68Y-53.93
X46.37Y-36.06
X46.67Y-61.35
X46.78Y-24.87
X46.99Y-38.45
X48.01Y-54.32
X48.03Y-31.9
X48.86Y-44.68
X49.005Y-45.93
X49.27Y-24.06
X49.33Y-56.84
X50.22Y-34.57
X50.36Y-42.17
X50.58Y-54.36
X51.8Y-22.9
X51.8Y-29.1
X52.8Y-55.875
X52.9Y-35.9
X52.9Y-54.2
X53.1Y-27.0
X53.27Y-39.6
X54.32Y-52.57
X55.08Y-24.71
X56.22Y-39.86
X57.0Y-62.1
X57.985Y-49.17
X58.54Y-60.44
X58.7Y-39.7
X59.7Y-23.8
X59.98Y-52.85
X60.11Y-27.84
X60.24Y-44.67
X60.8Y-23.005
X61.1Y-21.224
X61.6Y-26.45
X61.842Y-32.132
X62.08Y-23.65
X62.6Y-20.5
X62.97Y-31.11
X63.6Y-23.325
X63.77Y-58.12
X64.16Y-53.0
X64.268Y-48.639
X64.6Y-24.8
X65.0Y-57.0
X65.11Y-22.724
X65.429Y-32.605
X66.59Y-45.35
X66.63Y-20.424
X66.63Y-24.86
X67.97Y-26.73
X68.3Y-56.276
X68.98Y-20.39
X69.16Y-37.45
X69.6Y-29.1
X70.02Y-36.28
X70.46Y-42.17
X70.49Y-39.5
X70.5Y-26.8
X70.85Y-34.11
X70.85Y-55.77
X70.86Y-37.3
X70.97Y-25.09
X71.1Y-21.4
X71.55Y-50.39
X71.65Y-62.88
X72.33Y-56.21
X72.8Y-20.9
X73.0Y-58.2
X73.29Y-32.21
X73.37Y-24.44
X74.1Y-42.17
X74.3Y-61.2
X75.18Y-36.19
X75.27Y-28.86
X75.49Y-32.51
X75.58Y-58.88
X75.78Y-53.91
X76.01Y-46.27
X76.47Y-42.174
X76.94Y-48.2
X77.0Y-29.3
X78.1Y-26.8
X78.2Y-58.45
X79.3Y-24.7
X79.3Y-34.1
X79.3Y-51.8
X79.4Y-29.1
X79.43Y-39.58
X80.2Y-55.8
X80.36Y-46.3
X80.4Y-51.8
X80.5Y-35.69
X80.5Y-53.9
X80.74Y-20.07
X81.94Y-42.19
T2
X34.17Y-37.88
X34.21Y-45.89
T3
X35.65Y-17.84
X38.19Y-17.84
X40.73Y-17.84
X43.27Y-17.84
X44.79Y-66.09
X45.81Y-17.84
X47.33Y-66.09
X48.35Y-17.84
X49.87Y-66.09
X50.89Y-17.84
X52.41Y-66.09
X53.43Y-17.84
X54.95Y-66.09
X55.97Y-17.84
X57.49Y-66.09
X58.51Y-17.84
X60.03Y-66.09
X62.57Y-17.84
X62.57Y-66.09
X65.11Y-17.84
X67.65Y-17.84
X67.65Y-66.09
X70.19Y-17.84
X70.19Y-66.09
X72.73Y-17.84
X72.73Y-66.09
X75.27Y-17.84
X75.27Y-66.09
X77.81Y-17.84
X77.81Y-66.09
X80.35Y-17.84
X80.35Y-66.09
T3
G00X21.32Y-28.06
M15
G01X19.82Y-28.06
M16
G05
G00X21.32Y-37.06
M15
G01X19.82Y-37.06
M16
G05
G00X21.57Y-31.91
M15
G01X21.57Y-33.21
M16
G05
G00X27.57Y-31.56
M15
G01X27.57Y-33.56
M16
G05
T0
M30
