%TF.GenerationSoftware,KiCad,Pcbnew,7.0.7*%
%TF.CreationDate,2024-12-12T20:18:20-05:00*%
%TF.ProjectId,design-files_CB,64657369-676e-42d6-9669-6c65735f4342,rev?*%
%TF.SameCoordinates,Original*%
%TF.FileFunction,Copper,L3,Inr*%
%TF.FilePolarity,Positive*%
%FSLAX46Y46*%
G04 Gerber Fmt 4.6, Leading zero omitted, Abs format (unit mm)*
G04 Created by KiCad (PCBNEW 7.0.7) date 2024-12-12 20:18:20*
%MOMM*%
%LPD*%
G01*
G04 APERTURE LIST*
%TA.AperFunction,ComponentPad*%
%ADD10R,2.000000X4.000000*%
%TD*%
%TA.AperFunction,ComponentPad*%
%ADD11O,2.000000X3.300000*%
%TD*%
%TA.AperFunction,ComponentPad*%
%ADD12O,3.500000X2.000000*%
%TD*%
%TA.AperFunction,ComponentPad*%
%ADD13R,1.700000X1.700000*%
%TD*%
%TA.AperFunction,ComponentPad*%
%ADD14O,1.700000X1.700000*%
%TD*%
%TA.AperFunction,ViaPad*%
%ADD15C,0.800000*%
%TD*%
%TA.AperFunction,ViaPad*%
%ADD16C,1.600000*%
%TD*%
%TA.AperFunction,Conductor*%
%ADD17C,0.250000*%
%TD*%
G04 APERTURE END LIST*
D10*
%TO.N,/9V_IN*%
%TO.C,J1*%
X27570000Y-32560000D03*
D11*
%TO.N,GND*%
X21570000Y-32560000D03*
D12*
%TO.N,N/C*%
X20570000Y-28060000D03*
X20570000Y-37060000D03*
%TD*%
D13*
%TO.N,H2-D12*%
%TO.C,J8*%
X35650000Y-17840000D03*
D14*
%TO.N,H1-D13*%
X38190000Y-17840000D03*
%TO.N,AREF*%
X40730000Y-17840000D03*
%TO.N,GND*%
X43270000Y-17840000D03*
%TO.N,H4-D19*%
X45810000Y-17840000D03*
%TO.N,H3-D18*%
X48350000Y-17840000D03*
%TO.N,S-D11*%
X50890000Y-17840000D03*
%TO.N,S-D10*%
X53430000Y-17840000D03*
%TO.N,S-D9*%
X55970000Y-17840000D03*
%TO.N,S-D8*%
X58510000Y-17840000D03*
%TD*%
D13*
%TO.N,A5*%
%TO.C,J7*%
X80350000Y-66090000D03*
D14*
%TO.N,A4*%
X77810000Y-66090000D03*
%TO.N,A3*%
X75270000Y-66090000D03*
%TO.N,A2*%
X72730000Y-66090000D03*
%TO.N,A1*%
X70190000Y-66090000D03*
%TO.N,A0*%
X67650000Y-66090000D03*
%TD*%
D13*
%TO.N,Vin*%
%TO.C,J6*%
X62570000Y-66090000D03*
D14*
%TO.N,GND*%
X60030000Y-66090000D03*
X57490000Y-66090000D03*
%TO.N,+5V*%
X54950000Y-66090000D03*
%TO.N,+3V3*%
X52410000Y-66090000D03*
%TO.N,Reset*%
X49870000Y-66090000D03*
%TO.N,IOREF*%
X47330000Y-66090000D03*
%TO.N,unconnected-(J6-Pin_8-Pad8)*%
X44790000Y-66090000D03*
%TD*%
D13*
%TO.N,DIN*%
%TO.C,J9*%
X62570000Y-17840000D03*
D14*
%TO.N,~{ENABLE}*%
X65110000Y-17840000D03*
%TO.N,DOUT*%
X67650000Y-17840000D03*
%TO.N,~{RST}*%
X70190000Y-17840000D03*
%TO.N,CS*%
X72730000Y-17840000D03*
%TO.N,CLK*%
X75270000Y-17840000D03*
%TO.N,unconnected-(J9-Pin_7-Pad7)*%
X77810000Y-17840000D03*
%TO.N,unconnected-(J9-Pin_8-Pad8)*%
X80350000Y-17840000D03*
%TD*%
D15*
%TO.N,+9V*%
X41910000Y-42170000D03*
X76470000Y-42173524D03*
X45260000Y-42170000D03*
X70460000Y-42170000D03*
X81940000Y-42190000D03*
D16*
X34210000Y-45890000D03*
D15*
X74100000Y-42170000D03*
X50360000Y-42170000D03*
D16*
X34170000Y-37880000D03*
D15*
X36840000Y-42170000D03*
%TO.N,GND*%
X70490000Y-39500000D03*
X52900000Y-54200000D03*
X80500000Y-53900000D03*
X22810000Y-55299500D03*
X29667324Y-42203068D03*
X80400000Y-51800000D03*
X69160000Y-37450000D03*
X48860000Y-44680000D03*
X60240000Y-44670000D03*
X22790000Y-52700500D03*
X38290000Y-38820000D03*
X80200000Y-55800000D03*
X49004500Y-45930000D03*
X53100000Y-27000000D03*
X51800000Y-22900000D03*
X22810000Y-48700500D03*
X80360000Y-46300000D03*
X79400000Y-29100000D03*
X27770000Y-46040000D03*
X46370000Y-36060000D03*
X79300000Y-51800000D03*
X66590000Y-45350000D03*
X50220000Y-34570000D03*
X59700000Y-23800000D03*
X52800000Y-55875500D03*
X51800000Y-29100000D03*
X79300000Y-24700000D03*
X58700000Y-39700000D03*
X22810000Y-51299500D03*
X25080000Y-42210000D03*
X35750000Y-49790000D03*
%TO.N,+5V*%
X61600000Y-26450000D03*
X70970000Y-25090000D03*
X44210000Y-56100000D03*
X70850000Y-55770000D03*
X24060000Y-53990000D03*
X53270000Y-39600000D03*
X44200000Y-24850000D03*
%TO.N,2-Heater*%
X49330000Y-56840000D03*
X42300000Y-51010000D03*
X48010000Y-54320000D03*
%TO.N,1-Heater*%
X48030000Y-31900000D03*
%TO.N,3-Heater*%
X75580000Y-58880000D03*
%TO.N,4-Heater*%
X75490000Y-32510000D03*
%TO.N,H3-D18*%
X75180000Y-36190000D03*
X80500000Y-35690000D03*
X80740000Y-20070000D03*
%TO.N,H4-D19*%
X76010000Y-46270000D03*
X72800000Y-20900000D03*
%TO.N,CS*%
X71100000Y-21400000D03*
X62080000Y-23650000D03*
X61100000Y-21224500D03*
%TO.N,~{ENABLE}*%
X60800000Y-23004500D03*
X65110000Y-22724500D03*
%TO.N,Net-(D17-A)*%
X20070000Y-55190000D03*
%TO.N,Net-(D18-A)*%
X20100000Y-51160000D03*
%TO.N,2-CS*%
X39190000Y-62530000D03*
X57000000Y-62100000D03*
%TO.N,DIN*%
X30500000Y-24000000D03*
X66630000Y-24860000D03*
X39130000Y-23780000D03*
X66630000Y-20424500D03*
X62600000Y-20500000D03*
%TO.N,~{RST}*%
X41700000Y-29100000D03*
X68980000Y-20390000D03*
X40147604Y-22107603D03*
X68300000Y-56275500D03*
X42590000Y-54590000D03*
%TO.N,DOUT*%
X78200000Y-58450000D03*
X70500000Y-26800000D03*
X67970000Y-26730000D03*
X78100000Y-26800000D03*
X71650000Y-62880000D03*
X73000000Y-58200000D03*
X44260000Y-63240000D03*
%TO.N,2-CS_T1*%
X58540000Y-60440000D03*
X46670000Y-61350000D03*
%TO.N,2-CS_T2*%
X59980000Y-52850000D03*
X45680000Y-53930000D03*
%TO.N,CLK*%
X49270000Y-24060000D03*
X73370000Y-24440000D03*
X50580000Y-54360000D03*
X75780000Y-53910000D03*
%TO.N,1-CS*%
X31900000Y-29100000D03*
X39160000Y-29114502D03*
X35700000Y-51500000D03*
X54320000Y-52570000D03*
%TO.N,1-CS_T2*%
X55080000Y-24710000D03*
X46780000Y-24870000D03*
%TO.N,1-CS_T3*%
X52900000Y-35900000D03*
X56220000Y-39860000D03*
%TO.N,3-CS_T1*%
X74300000Y-61200000D03*
X63770000Y-58120000D03*
%TO.N,3-CS_T2*%
X72330000Y-56210000D03*
X65000000Y-57000000D03*
%TO.N,4-CS_T1*%
X65429283Y-32605316D03*
X73290000Y-32210000D03*
%TO.N,4-CS_T2*%
X75270000Y-28860000D03*
X62970000Y-31110000D03*
%TO.N,4-CS_T3*%
X79300000Y-34100000D03*
X61842299Y-32132299D03*
%TO.N,Net-(U4A--)*%
X64160000Y-53000000D03*
X64268137Y-48638853D03*
%TO.N,/current-sensing/V_{h1}*%
X60110000Y-27840000D03*
X63600000Y-23324500D03*
%TO.N,/current-sensing/V_{h2}*%
X64600000Y-24800000D03*
X57985500Y-49170000D03*
%TO.N,/current-sensing/V_{h4}*%
X70020000Y-36280000D03*
X69600000Y-29100000D03*
%TO.N,/current-sensing/V_{h3}*%
X77000000Y-29300000D03*
X76940000Y-48200000D03*
%TO.N,Net-(R1-Pad1)*%
X46990000Y-38450000D03*
%TO.N,Net-(R2-Pad1)*%
X45100000Y-49700000D03*
%TO.N,Net-(R11-Pad2)*%
X71550000Y-50390000D03*
%TO.N,Net-(R14-Pad1)*%
X70850000Y-34110000D03*
X79430000Y-39580000D03*
X70860000Y-37300000D03*
%TD*%
D17*
%TO.N,~{RST}*%
X42590000Y-55505305D02*
X45379695Y-58295000D01*
X42590000Y-54590000D02*
X42590000Y-55505305D01*
X62505000Y-58295000D02*
X64524500Y-56275500D01*
X45379695Y-58295000D02*
X62505000Y-58295000D01*
X64524500Y-56275500D02*
X68300000Y-56275500D01*
%TD*%
%TA.AperFunction,Conductor*%
%TO.N,GND*%
G36*
X59483692Y-65859685D02*
G01*
X59529447Y-65912489D01*
X59539391Y-65981647D01*
X59535631Y-65998933D01*
X59530000Y-66018111D01*
X59530000Y-66161888D01*
X59535631Y-66181067D01*
X59535630Y-66250936D01*
X59497855Y-66309714D01*
X59434299Y-66338738D01*
X59416653Y-66340000D01*
X58103347Y-66340000D01*
X58036308Y-66320315D01*
X57990553Y-66267511D01*
X57980609Y-66198353D01*
X57984369Y-66181067D01*
X57990000Y-66161888D01*
X57990000Y-66018111D01*
X57984369Y-65998933D01*
X57984370Y-65929064D01*
X58022145Y-65870286D01*
X58085701Y-65841262D01*
X58103347Y-65840000D01*
X59416653Y-65840000D01*
X59483692Y-65859685D01*
G37*
%TD.AperFunction*%
%TA.AperFunction,Conductor*%
G36*
X31898622Y-16019685D02*
G01*
X31944377Y-16072489D01*
X31954321Y-16141647D01*
X31925296Y-16205203D01*
X31866518Y-16242977D01*
X31860529Y-16244574D01*
X31755655Y-16269751D01*
X31733473Y-16268641D01*
X31690932Y-16284776D01*
X31683414Y-16287094D01*
X31640836Y-16297318D01*
X31640834Y-16297318D01*
X31456054Y-16373856D01*
X31454051Y-16374616D01*
X31451706Y-16375656D01*
X31413306Y-16391563D01*
X31413294Y-16391569D01*
X31203316Y-16520245D01*
X31203313Y-16520246D01*
X31016036Y-16680197D01*
X30856085Y-16867474D01*
X30856084Y-16867477D01*
X30727404Y-17077461D01*
X30633156Y-17304997D01*
X30575662Y-17544479D01*
X30556340Y-17790000D01*
X30575662Y-18035520D01*
X30633156Y-18275002D01*
X30727404Y-18502538D01*
X30856084Y-18712522D01*
X30856085Y-18712525D01*
X30910286Y-18775986D01*
X31016036Y-18899803D01*
X31150745Y-19014855D01*
X31203313Y-19059753D01*
X31203316Y-19059754D01*
X31406213Y-19184091D01*
X31413301Y-19188434D01*
X31418286Y-19190499D01*
X31451690Y-19204335D01*
X31454040Y-19205379D01*
X31454204Y-19205441D01*
X31456037Y-19206136D01*
X31640837Y-19282682D01*
X31683418Y-19292904D01*
X31690933Y-19295222D01*
X31726475Y-19308702D01*
X31755689Y-19310255D01*
X31880315Y-19340176D01*
X31928067Y-19343934D01*
X31935584Y-19344994D01*
X31936994Y-19345282D01*
X31937000Y-19345282D01*
X31941872Y-19346277D01*
X31941883Y-19346279D01*
X31972831Y-19352597D01*
X32000750Y-19349654D01*
X32125839Y-19359499D01*
X32177683Y-19355418D01*
X32185035Y-19355278D01*
X32188924Y-19355435D01*
X32188927Y-19355434D01*
X32190822Y-19355511D01*
X32190872Y-19355511D01*
X32222949Y-19356802D01*
X32248894Y-19349814D01*
X32371363Y-19340176D01*
X32425995Y-19327059D01*
X32432996Y-19325799D01*
X32470474Y-19321248D01*
X32493890Y-19310759D01*
X32610841Y-19282682D01*
X32666681Y-19259552D01*
X32673144Y-19257286D01*
X32681400Y-19254895D01*
X32681402Y-19254893D01*
X32683242Y-19254361D01*
X32683278Y-19254349D01*
X32709173Y-19246848D01*
X32729583Y-19233497D01*
X32838377Y-19188434D01*
X32893597Y-19154594D01*
X32899378Y-19151463D01*
X32909192Y-19146807D01*
X32909196Y-19146803D01*
X32910014Y-19146416D01*
X32910044Y-19146400D01*
X32932945Y-19135533D01*
X32950048Y-19120001D01*
X33048367Y-19059751D01*
X33100946Y-19014843D01*
X33105977Y-19010975D01*
X33116695Y-19003578D01*
X33116698Y-19003574D01*
X33117515Y-19003011D01*
X33117534Y-19002997D01*
X33136140Y-18990154D01*
X33149762Y-18973151D01*
X33235642Y-18899803D01*
X33283465Y-18843808D01*
X33287642Y-18839380D01*
X33298535Y-18828918D01*
X33298539Y-18828912D01*
X33299209Y-18828269D01*
X33299220Y-18828258D01*
X33313626Y-18814420D01*
X33323729Y-18796665D01*
X33373946Y-18737870D01*
X34299500Y-18737870D01*
X34299501Y-18737876D01*
X34305908Y-18797483D01*
X34356202Y-18932328D01*
X34356206Y-18932335D01*
X34442452Y-19047544D01*
X34442455Y-19047547D01*
X34557664Y-19133793D01*
X34557671Y-19133797D01*
X34692517Y-19184091D01*
X34692516Y-19184091D01*
X34699444Y-19184835D01*
X34752127Y-19190500D01*
X36547872Y-19190499D01*
X36607483Y-19184091D01*
X36742331Y-19133796D01*
X36857546Y-19047546D01*
X36943796Y-18932331D01*
X36992810Y-18800916D01*
X37034681Y-18744984D01*
X37100145Y-18720566D01*
X37168418Y-18735417D01*
X37196673Y-18756569D01*
X37318599Y-18878495D01*
X37415384Y-18946264D01*
X37512165Y-19014032D01*
X37512167Y-19014033D01*
X37512170Y-19014035D01*
X37726337Y-19113903D01*
X37954592Y-19175063D01*
X38131034Y-19190500D01*
X38189999Y-19195659D01*
X38190000Y-19195659D01*
X38190001Y-19195659D01*
X38248966Y-19190500D01*
X38425408Y-19175063D01*
X38653663Y-19113903D01*
X38867830Y-19014035D01*
X39061401Y-18878495D01*
X39228495Y-18711401D01*
X39358424Y-18525842D01*
X39413002Y-18482217D01*
X39482500Y-18475023D01*
X39544855Y-18506546D01*
X39561575Y-18525842D01*
X39691500Y-18711395D01*
X39691505Y-18711401D01*
X39858599Y-18878495D01*
X39955384Y-18946264D01*
X40052165Y-19014032D01*
X40052167Y-19014033D01*
X40052170Y-19014035D01*
X40266337Y-19113903D01*
X40494592Y-19175063D01*
X40671034Y-19190500D01*
X40729999Y-19195659D01*
X40730000Y-19195659D01*
X40730001Y-19195659D01*
X40788966Y-19190500D01*
X40965408Y-19175063D01*
X41193663Y-19113903D01*
X41407830Y-19014035D01*
X41601401Y-18878495D01*
X41768495Y-18711401D01*
X41898730Y-18525405D01*
X41953307Y-18481781D01*
X42022805Y-18474587D01*
X42085160Y-18506110D01*
X42101879Y-18525405D01*
X42231890Y-18711078D01*
X42398917Y-18878105D01*
X42592421Y-19013600D01*
X42806507Y-19113429D01*
X42806516Y-19113433D01*
X43020000Y-19170634D01*
X43020000Y-18452301D01*
X43039685Y-18385262D01*
X43092489Y-18339507D01*
X43161647Y-18329563D01*
X43234237Y-18340000D01*
X43234238Y-18340000D01*
X43305762Y-18340000D01*
X43305763Y-18340000D01*
X43378353Y-18329563D01*
X43447512Y-18339507D01*
X43500315Y-18385262D01*
X43520000Y-18452301D01*
X43520000Y-19170633D01*
X43733483Y-19113433D01*
X43733492Y-19113429D01*
X43947578Y-19013600D01*
X44141082Y-18878105D01*
X44308105Y-18711082D01*
X44438119Y-18525405D01*
X44492696Y-18481781D01*
X44562195Y-18474588D01*
X44624549Y-18506110D01*
X44641269Y-18525405D01*
X44771505Y-18711401D01*
X44938599Y-18878495D01*
X45035384Y-18946264D01*
X45132165Y-19014032D01*
X45132167Y-19014033D01*
X45132170Y-19014035D01*
X45346337Y-19113903D01*
X45574592Y-19175063D01*
X45751034Y-19190500D01*
X45809999Y-19195659D01*
X45810000Y-19195659D01*
X45810001Y-19195659D01*
X45868966Y-19190500D01*
X46045408Y-19175063D01*
X46273663Y-19113903D01*
X46487830Y-19014035D01*
X46681401Y-18878495D01*
X46848495Y-18711401D01*
X46978424Y-18525842D01*
X47033002Y-18482217D01*
X47102500Y-18475023D01*
X47164855Y-18506546D01*
X47181575Y-18525842D01*
X47311500Y-18711395D01*
X47311505Y-18711401D01*
X47478599Y-18878495D01*
X47575384Y-18946264D01*
X47672165Y-19014032D01*
X47672167Y-19014033D01*
X47672170Y-19014035D01*
X47886337Y-19113903D01*
X48114592Y-19175063D01*
X48291034Y-19190500D01*
X48349999Y-19195659D01*
X48350000Y-19195659D01*
X48350001Y-19195659D01*
X48408966Y-19190500D01*
X48585408Y-19175063D01*
X48813663Y-19113903D01*
X49027830Y-19014035D01*
X49221401Y-18878495D01*
X49388495Y-18711401D01*
X49518424Y-18525842D01*
X49573002Y-18482217D01*
X49642500Y-18475023D01*
X49704855Y-18506546D01*
X49721575Y-18525842D01*
X49851500Y-18711395D01*
X49851505Y-18711401D01*
X50018599Y-18878495D01*
X50115384Y-18946264D01*
X50212165Y-19014032D01*
X50212167Y-19014033D01*
X50212170Y-19014035D01*
X50426337Y-19113903D01*
X50654592Y-19175063D01*
X50831034Y-19190500D01*
X50889999Y-19195659D01*
X50890000Y-19195659D01*
X50890001Y-19195659D01*
X50948966Y-19190500D01*
X51125408Y-19175063D01*
X51353663Y-19113903D01*
X51567830Y-19014035D01*
X51761401Y-18878495D01*
X51928495Y-18711401D01*
X52058424Y-18525842D01*
X52113002Y-18482217D01*
X52182500Y-18475023D01*
X52244855Y-18506546D01*
X52261575Y-18525842D01*
X52391500Y-18711395D01*
X52391505Y-18711401D01*
X52558599Y-18878495D01*
X52655384Y-18946264D01*
X52752165Y-19014032D01*
X52752167Y-19014033D01*
X52752170Y-19014035D01*
X52966337Y-19113903D01*
X53194592Y-19175063D01*
X53371034Y-19190500D01*
X53429999Y-19195659D01*
X53430000Y-19195659D01*
X53430001Y-19195659D01*
X53488966Y-19190500D01*
X53665408Y-19175063D01*
X53893663Y-19113903D01*
X54107830Y-19014035D01*
X54301401Y-18878495D01*
X54468495Y-18711401D01*
X54598424Y-18525842D01*
X54653002Y-18482217D01*
X54722500Y-18475023D01*
X54784855Y-18506546D01*
X54801575Y-18525842D01*
X54931500Y-18711395D01*
X54931505Y-18711401D01*
X55098599Y-18878495D01*
X55195384Y-18946264D01*
X55292165Y-19014032D01*
X55292167Y-19014033D01*
X55292170Y-19014035D01*
X55506337Y-19113903D01*
X55734592Y-19175063D01*
X55911034Y-19190500D01*
X55969999Y-19195659D01*
X55970000Y-19195659D01*
X55970001Y-19195659D01*
X56028966Y-19190500D01*
X56205408Y-19175063D01*
X56433663Y-19113903D01*
X56647830Y-19014035D01*
X56841401Y-18878495D01*
X57008495Y-18711401D01*
X57138424Y-18525842D01*
X57193002Y-18482217D01*
X57262500Y-18475023D01*
X57324855Y-18506546D01*
X57341575Y-18525842D01*
X57471500Y-18711395D01*
X57471505Y-18711401D01*
X57638599Y-18878495D01*
X57735384Y-18946264D01*
X57832165Y-19014032D01*
X57832167Y-19014033D01*
X57832170Y-19014035D01*
X58046337Y-19113903D01*
X58274592Y-19175063D01*
X58451034Y-19190500D01*
X58509999Y-19195659D01*
X58510000Y-19195659D01*
X58510001Y-19195659D01*
X58568966Y-19190500D01*
X58745408Y-19175063D01*
X58973663Y-19113903D01*
X59187830Y-19014035D01*
X59381401Y-18878495D01*
X59522026Y-18737870D01*
X61219500Y-18737870D01*
X61219501Y-18737876D01*
X61225908Y-18797483D01*
X61276202Y-18932328D01*
X61276206Y-18932335D01*
X61362452Y-19047544D01*
X61362455Y-19047547D01*
X61477664Y-19133793D01*
X61477671Y-19133797D01*
X61612517Y-19184091D01*
X61612516Y-19184091D01*
X61619444Y-19184835D01*
X61672127Y-19190500D01*
X63467872Y-19190499D01*
X63527483Y-19184091D01*
X63662331Y-19133796D01*
X63777546Y-19047546D01*
X63863796Y-18932331D01*
X63912810Y-18800916D01*
X63954681Y-18744984D01*
X64020145Y-18720566D01*
X64088418Y-18735417D01*
X64116672Y-18756569D01*
X64238599Y-18878495D01*
X64335384Y-18946265D01*
X64432165Y-19014032D01*
X64432167Y-19014033D01*
X64432170Y-19014035D01*
X64646337Y-19113903D01*
X64874592Y-19175063D01*
X65051034Y-19190500D01*
X65109999Y-19195659D01*
X65110000Y-19195659D01*
X65110001Y-19195659D01*
X65168966Y-19190500D01*
X65345408Y-19175063D01*
X65573663Y-19113903D01*
X65787830Y-19014035D01*
X65981401Y-18878495D01*
X66148495Y-18711401D01*
X66278424Y-18525842D01*
X66333002Y-18482217D01*
X66402500Y-18475023D01*
X66464855Y-18506546D01*
X66481575Y-18525842D01*
X66611500Y-18711395D01*
X66611505Y-18711401D01*
X66778599Y-18878495D01*
X66875384Y-18946265D01*
X66972165Y-19014032D01*
X66972167Y-19014033D01*
X66972170Y-19014035D01*
X67186337Y-19113903D01*
X67414592Y-19175063D01*
X67591034Y-19190500D01*
X67649999Y-19195659D01*
X67650000Y-19195659D01*
X67650001Y-19195659D01*
X67708966Y-19190500D01*
X67885408Y-19175063D01*
X68113663Y-19113903D01*
X68327830Y-19014035D01*
X68521401Y-18878495D01*
X68688495Y-18711401D01*
X68818424Y-18525842D01*
X68873002Y-18482217D01*
X68942500Y-18475023D01*
X69004855Y-18506546D01*
X69021575Y-18525842D01*
X69151500Y-18711395D01*
X69151505Y-18711401D01*
X69318599Y-18878495D01*
X69415384Y-18946265D01*
X69512165Y-19014032D01*
X69512167Y-19014033D01*
X69512170Y-19014035D01*
X69726337Y-19113903D01*
X69954592Y-19175063D01*
X70131034Y-19190500D01*
X70189999Y-19195659D01*
X70190000Y-19195659D01*
X70190001Y-19195659D01*
X70248966Y-19190500D01*
X70425408Y-19175063D01*
X70653663Y-19113903D01*
X70867830Y-19014035D01*
X71061401Y-18878495D01*
X71228495Y-18711401D01*
X71358424Y-18525842D01*
X71413002Y-18482217D01*
X71482500Y-18475023D01*
X71544855Y-18506546D01*
X71561575Y-18525842D01*
X71691500Y-18711395D01*
X71691505Y-18711401D01*
X71858599Y-18878495D01*
X71955384Y-18946265D01*
X72052165Y-19014032D01*
X72052167Y-19014033D01*
X72052170Y-19014035D01*
X72266337Y-19113903D01*
X72494592Y-19175063D01*
X72671034Y-19190500D01*
X72729999Y-19195659D01*
X72730000Y-19195659D01*
X72730001Y-19195659D01*
X72788966Y-19190500D01*
X72965408Y-19175063D01*
X73193663Y-19113903D01*
X73407830Y-19014035D01*
X73601401Y-18878495D01*
X73768495Y-18711401D01*
X73898424Y-18525842D01*
X73953002Y-18482217D01*
X74022500Y-18475023D01*
X74084855Y-18506546D01*
X74101575Y-18525842D01*
X74231500Y-18711395D01*
X74231505Y-18711401D01*
X74398599Y-18878495D01*
X74495384Y-18946265D01*
X74592165Y-19014032D01*
X74592167Y-19014033D01*
X74592170Y-19014035D01*
X74806337Y-19113903D01*
X75034592Y-19175063D01*
X75211034Y-19190500D01*
X75269999Y-19195659D01*
X75270000Y-19195659D01*
X75270001Y-19195659D01*
X75328966Y-19190500D01*
X75505408Y-19175063D01*
X75733663Y-19113903D01*
X75947830Y-19014035D01*
X76141401Y-18878495D01*
X76308495Y-18711401D01*
X76438424Y-18525842D01*
X76493002Y-18482217D01*
X76562500Y-18475023D01*
X76624855Y-18506546D01*
X76641575Y-18525842D01*
X76771500Y-18711395D01*
X76771505Y-18711401D01*
X76938599Y-18878495D01*
X77035384Y-18946265D01*
X77132165Y-19014032D01*
X77132167Y-19014033D01*
X77132170Y-19014035D01*
X77346337Y-19113903D01*
X77574592Y-19175063D01*
X77751034Y-19190500D01*
X77809999Y-19195659D01*
X77810000Y-19195659D01*
X77810001Y-19195659D01*
X77868966Y-19190500D01*
X78045408Y-19175063D01*
X78273663Y-19113903D01*
X78487830Y-19014035D01*
X78681401Y-18878495D01*
X78848495Y-18711401D01*
X78978424Y-18525842D01*
X79033002Y-18482217D01*
X79102500Y-18475023D01*
X79164855Y-18506546D01*
X79181575Y-18525842D01*
X79311500Y-18711395D01*
X79311505Y-18711401D01*
X79478599Y-18878495D01*
X79575384Y-18946265D01*
X79672165Y-19014032D01*
X79672167Y-19014033D01*
X79672170Y-19014035D01*
X79886337Y-19113903D01*
X79886343Y-19113904D01*
X79886344Y-19113905D01*
X79960583Y-19133797D01*
X80093830Y-19169500D01*
X80101030Y-19171429D01*
X80160691Y-19207794D01*
X80191220Y-19270640D01*
X80182926Y-19340016D01*
X80141825Y-19391520D01*
X80134130Y-19397110D01*
X80134129Y-19397111D01*
X80007466Y-19537785D01*
X79912821Y-19701715D01*
X79912818Y-19701722D01*
X79854327Y-19881740D01*
X79854326Y-19881744D01*
X79834540Y-20070000D01*
X79854326Y-20258256D01*
X79854327Y-20258259D01*
X79912818Y-20438277D01*
X79912821Y-20438284D01*
X80007467Y-20602216D01*
X80084938Y-20688256D01*
X80134129Y-20742888D01*
X80287265Y-20854148D01*
X80287270Y-20854151D01*
X80460192Y-20931142D01*
X80460197Y-20931144D01*
X80645354Y-20970500D01*
X80645355Y-20970500D01*
X80834644Y-20970500D01*
X80834646Y-20970500D01*
X81019803Y-20931144D01*
X81192730Y-20854151D01*
X81345871Y-20742888D01*
X81472533Y-20602216D01*
X81567179Y-20438284D01*
X81625674Y-20258256D01*
X81645460Y-20070000D01*
X81625674Y-19881744D01*
X81567179Y-19701716D01*
X81472533Y-19537784D01*
X81345871Y-19397112D01*
X81345870Y-19397111D01*
X81192734Y-19285851D01*
X81192732Y-19285850D01*
X81185623Y-19282685D01*
X81165674Y-19273803D01*
X81054844Y-19224457D01*
X81001608Y-19179206D01*
X80981287Y-19112357D01*
X81000333Y-19045134D01*
X81034154Y-19009606D01*
X81221401Y-18878495D01*
X81388495Y-18711401D01*
X81524035Y-18517830D01*
X81623903Y-18303663D01*
X81685063Y-18075408D01*
X81705659Y-17840000D01*
X81685063Y-17604592D01*
X81623903Y-17376337D01*
X81524035Y-17162171D01*
X81518731Y-17154595D01*
X81388494Y-16968597D01*
X81221402Y-16801506D01*
X81221395Y-16801501D01*
X81027834Y-16665967D01*
X81027830Y-16665965D01*
X81027829Y-16665964D01*
X80813663Y-16566097D01*
X80813659Y-16566096D01*
X80813655Y-16566094D01*
X80585413Y-16504938D01*
X80585403Y-16504936D01*
X80350001Y-16484341D01*
X80349999Y-16484341D01*
X80114596Y-16504936D01*
X80114586Y-16504938D01*
X79886344Y-16566094D01*
X79886337Y-16566096D01*
X79886337Y-16566097D01*
X79872816Y-16572401D01*
X79672171Y-16665964D01*
X79672169Y-16665965D01*
X79478597Y-16801505D01*
X79311505Y-16968597D01*
X79181575Y-17154158D01*
X79126998Y-17197783D01*
X79057500Y-17204977D01*
X78995145Y-17173454D01*
X78978425Y-17154158D01*
X78848494Y-16968597D01*
X78681402Y-16801506D01*
X78681395Y-16801501D01*
X78487834Y-16665967D01*
X78487830Y-16665965D01*
X78487829Y-16665964D01*
X78273663Y-16566097D01*
X78273659Y-16566096D01*
X78273655Y-16566094D01*
X78045413Y-16504938D01*
X78045403Y-16504936D01*
X77810001Y-16484341D01*
X77809999Y-16484341D01*
X77574596Y-16504936D01*
X77574586Y-16504938D01*
X77346344Y-16566094D01*
X77346337Y-16566096D01*
X77346337Y-16566097D01*
X77332816Y-16572401D01*
X77132171Y-16665964D01*
X77132169Y-16665965D01*
X76938597Y-16801505D01*
X76771505Y-16968597D01*
X76641575Y-17154158D01*
X76586998Y-17197783D01*
X76517500Y-17204977D01*
X76455145Y-17173454D01*
X76438425Y-17154158D01*
X76308494Y-16968597D01*
X76141402Y-16801506D01*
X76141395Y-16801501D01*
X75947834Y-16665967D01*
X75947830Y-16665965D01*
X75947830Y-16665964D01*
X75733663Y-16566097D01*
X75733659Y-16566096D01*
X75733655Y-16566094D01*
X75505413Y-16504938D01*
X75505403Y-16504936D01*
X75270001Y-16484341D01*
X75269999Y-16484341D01*
X75034596Y-16504936D01*
X75034586Y-16504938D01*
X74806344Y-16566094D01*
X74806337Y-16566096D01*
X74806337Y-16566097D01*
X74792816Y-16572401D01*
X74592171Y-16665964D01*
X74592169Y-16665965D01*
X74398597Y-16801505D01*
X74231508Y-16968594D01*
X74101574Y-17154159D01*
X74046997Y-17197784D01*
X73977498Y-17204976D01*
X73915144Y-17173454D01*
X73898424Y-17154158D01*
X73768494Y-16968597D01*
X73601402Y-16801506D01*
X73601395Y-16801501D01*
X73407834Y-16665967D01*
X73407830Y-16665965D01*
X73407830Y-16665964D01*
X73193663Y-16566097D01*
X73193659Y-16566096D01*
X73193655Y-16566094D01*
X72965413Y-16504938D01*
X72965403Y-16504936D01*
X72730001Y-16484341D01*
X72729999Y-16484341D01*
X72494596Y-16504936D01*
X72494586Y-16504938D01*
X72266344Y-16566094D01*
X72266337Y-16566096D01*
X72266337Y-16566097D01*
X72252816Y-16572401D01*
X72052171Y-16665964D01*
X72052169Y-16665965D01*
X71858597Y-16801505D01*
X71691505Y-16968597D01*
X71561575Y-17154158D01*
X71506998Y-17197783D01*
X71437500Y-17204977D01*
X71375145Y-17173454D01*
X71358425Y-17154158D01*
X71228494Y-16968597D01*
X71061402Y-16801506D01*
X71061395Y-16801501D01*
X70867834Y-16665967D01*
X70867830Y-16665965D01*
X70867829Y-16665964D01*
X70653663Y-16566097D01*
X70653659Y-16566096D01*
X70653655Y-16566094D01*
X70425413Y-16504938D01*
X70425403Y-16504936D01*
X70190001Y-16484341D01*
X70189999Y-16484341D01*
X69954596Y-16504936D01*
X69954586Y-16504938D01*
X69726344Y-16566094D01*
X69726337Y-16566096D01*
X69726337Y-16566097D01*
X69712816Y-16572401D01*
X69512171Y-16665964D01*
X69512169Y-16665965D01*
X69318597Y-16801505D01*
X69151505Y-16968597D01*
X69021575Y-17154158D01*
X68966998Y-17197783D01*
X68897500Y-17204977D01*
X68835145Y-17173454D01*
X68818425Y-17154158D01*
X68688494Y-16968597D01*
X68521402Y-16801506D01*
X68521395Y-16801501D01*
X68327834Y-16665967D01*
X68327830Y-16665965D01*
X68327829Y-16665964D01*
X68113663Y-16566097D01*
X68113659Y-16566096D01*
X68113655Y-16566094D01*
X67885413Y-16504938D01*
X67885403Y-16504936D01*
X67650001Y-16484341D01*
X67649999Y-16484341D01*
X67414596Y-16504936D01*
X67414586Y-16504938D01*
X67186344Y-16566094D01*
X67186337Y-16566096D01*
X67186337Y-16566097D01*
X67172816Y-16572401D01*
X66972171Y-16665964D01*
X66972169Y-16665965D01*
X66778597Y-16801505D01*
X66611505Y-16968597D01*
X66481575Y-17154158D01*
X66426998Y-17197783D01*
X66357500Y-17204977D01*
X66295145Y-17173454D01*
X66278425Y-17154158D01*
X66148494Y-16968597D01*
X65981402Y-16801506D01*
X65981395Y-16801501D01*
X65787834Y-16665967D01*
X65787830Y-16665965D01*
X65787830Y-16665964D01*
X65573663Y-16566097D01*
X65573659Y-16566096D01*
X65573655Y-16566094D01*
X65345413Y-16504938D01*
X65345403Y-16504936D01*
X65110001Y-16484341D01*
X65109999Y-16484341D01*
X64874596Y-16504936D01*
X64874586Y-16504938D01*
X64646344Y-16566094D01*
X64646337Y-16566096D01*
X64646337Y-16566097D01*
X64632816Y-16572401D01*
X64432171Y-16665964D01*
X64432169Y-16665965D01*
X64238600Y-16801503D01*
X64116673Y-16923430D01*
X64055350Y-16956914D01*
X63985658Y-16951930D01*
X63929725Y-16910058D01*
X63912810Y-16879081D01*
X63863797Y-16747671D01*
X63863793Y-16747664D01*
X63777547Y-16632455D01*
X63777544Y-16632452D01*
X63662335Y-16546206D01*
X63662328Y-16546202D01*
X63527482Y-16495908D01*
X63527483Y-16495908D01*
X63467883Y-16489501D01*
X63467881Y-16489500D01*
X63467873Y-16489500D01*
X63467864Y-16489500D01*
X61672129Y-16489500D01*
X61672123Y-16489501D01*
X61612516Y-16495908D01*
X61477671Y-16546202D01*
X61477664Y-16546206D01*
X61362455Y-16632452D01*
X61362452Y-16632455D01*
X61276206Y-16747664D01*
X61276202Y-16747671D01*
X61225908Y-16882517D01*
X61219501Y-16942116D01*
X61219500Y-16942135D01*
X61219500Y-18737870D01*
X59522026Y-18737870D01*
X59548495Y-18711401D01*
X59684035Y-18517830D01*
X59783903Y-18303663D01*
X59845063Y-18075408D01*
X59865659Y-17840000D01*
X59845063Y-17604592D01*
X59783903Y-17376337D01*
X59684035Y-17162171D01*
X59678731Y-17154595D01*
X59548494Y-16968597D01*
X59381402Y-16801506D01*
X59381395Y-16801501D01*
X59187834Y-16665967D01*
X59187830Y-16665965D01*
X59187830Y-16665964D01*
X58973663Y-16566097D01*
X58973659Y-16566096D01*
X58973655Y-16566094D01*
X58745413Y-16504938D01*
X58745403Y-16504936D01*
X58510001Y-16484341D01*
X58509999Y-16484341D01*
X58274596Y-16504936D01*
X58274586Y-16504938D01*
X58046344Y-16566094D01*
X58046337Y-16566096D01*
X58046337Y-16566097D01*
X58032816Y-16572401D01*
X57832171Y-16665964D01*
X57832169Y-16665965D01*
X57638597Y-16801505D01*
X57471508Y-16968594D01*
X57341574Y-17154159D01*
X57286997Y-17197784D01*
X57217498Y-17204976D01*
X57155144Y-17173454D01*
X57138424Y-17154158D01*
X57008494Y-16968597D01*
X56841402Y-16801506D01*
X56841395Y-16801501D01*
X56647834Y-16665967D01*
X56647830Y-16665965D01*
X56647829Y-16665964D01*
X56433663Y-16566097D01*
X56433659Y-16566096D01*
X56433655Y-16566094D01*
X56205413Y-16504938D01*
X56205403Y-16504936D01*
X55970001Y-16484341D01*
X55969999Y-16484341D01*
X55734596Y-16504936D01*
X55734586Y-16504938D01*
X55506344Y-16566094D01*
X55506337Y-16566096D01*
X55506337Y-16566097D01*
X55492816Y-16572401D01*
X55292171Y-16665964D01*
X55292169Y-16665965D01*
X55098597Y-16801505D01*
X54931505Y-16968597D01*
X54801575Y-17154158D01*
X54746998Y-17197783D01*
X54677500Y-17204977D01*
X54615145Y-17173454D01*
X54598425Y-17154158D01*
X54468494Y-16968597D01*
X54301402Y-16801506D01*
X54301395Y-16801501D01*
X54107834Y-16665967D01*
X54107830Y-16665965D01*
X54107830Y-16665964D01*
X53893663Y-16566097D01*
X53893659Y-16566096D01*
X53893655Y-16566094D01*
X53665413Y-16504938D01*
X53665403Y-16504936D01*
X53430001Y-16484341D01*
X53429999Y-16484341D01*
X53194596Y-16504936D01*
X53194586Y-16504938D01*
X52966344Y-16566094D01*
X52966337Y-16566096D01*
X52966337Y-16566097D01*
X52952816Y-16572401D01*
X52752171Y-16665964D01*
X52752169Y-16665965D01*
X52558597Y-16801505D01*
X52391505Y-16968597D01*
X52261575Y-17154158D01*
X52206998Y-17197783D01*
X52137500Y-17204977D01*
X52075145Y-17173454D01*
X52058425Y-17154158D01*
X51928494Y-16968597D01*
X51761402Y-16801506D01*
X51761395Y-16801501D01*
X51567834Y-16665967D01*
X51567830Y-16665965D01*
X51567829Y-16665964D01*
X51353663Y-16566097D01*
X51353659Y-16566096D01*
X51353655Y-16566094D01*
X51125413Y-16504938D01*
X51125403Y-16504936D01*
X50890001Y-16484341D01*
X50889999Y-16484341D01*
X50654596Y-16504936D01*
X50654586Y-16504938D01*
X50426344Y-16566094D01*
X50426337Y-16566096D01*
X50426337Y-16566097D01*
X50412816Y-16572401D01*
X50212171Y-16665964D01*
X50212169Y-16665965D01*
X50018597Y-16801505D01*
X49851505Y-16968597D01*
X49721575Y-17154158D01*
X49666998Y-17197783D01*
X49597500Y-17204977D01*
X49535145Y-17173454D01*
X49518425Y-17154158D01*
X49388494Y-16968597D01*
X49221402Y-16801506D01*
X49221395Y-16801501D01*
X49027834Y-16665967D01*
X49027830Y-16665965D01*
X49027828Y-16665964D01*
X48813663Y-16566097D01*
X48813659Y-16566096D01*
X48813655Y-16566094D01*
X48585413Y-16504938D01*
X48585403Y-16504936D01*
X48350001Y-16484341D01*
X48349999Y-16484341D01*
X48114596Y-16504936D01*
X48114586Y-16504938D01*
X47886344Y-16566094D01*
X47886337Y-16566096D01*
X47886337Y-16566097D01*
X47872816Y-16572401D01*
X47672171Y-16665964D01*
X47672169Y-16665965D01*
X47478597Y-16801505D01*
X47311508Y-16968594D01*
X47181574Y-17154159D01*
X47126997Y-17197784D01*
X47057498Y-17204976D01*
X46995144Y-17173454D01*
X46978424Y-17154158D01*
X46848494Y-16968597D01*
X46681402Y-16801506D01*
X46681395Y-16801501D01*
X46487834Y-16665967D01*
X46487830Y-16665965D01*
X46487828Y-16665964D01*
X46273663Y-16566097D01*
X46273659Y-16566096D01*
X46273655Y-16566094D01*
X46045413Y-16504938D01*
X46045403Y-16504936D01*
X45810001Y-16484341D01*
X45809999Y-16484341D01*
X45574596Y-16504936D01*
X45574586Y-16504938D01*
X45346344Y-16566094D01*
X45346337Y-16566096D01*
X45346337Y-16566097D01*
X45332816Y-16572401D01*
X45132171Y-16665964D01*
X45132169Y-16665965D01*
X44938597Y-16801505D01*
X44771508Y-16968594D01*
X44641269Y-17154595D01*
X44586692Y-17198219D01*
X44517193Y-17205412D01*
X44454839Y-17173890D01*
X44438119Y-17154594D01*
X44308113Y-16968926D01*
X44308108Y-16968920D01*
X44141082Y-16801894D01*
X43947578Y-16666399D01*
X43733492Y-16566570D01*
X43733486Y-16566567D01*
X43520000Y-16509364D01*
X43520000Y-17227698D01*
X43500315Y-17294737D01*
X43447511Y-17340492D01*
X43378355Y-17350436D01*
X43305766Y-17340000D01*
X43305763Y-17340000D01*
X43234237Y-17340000D01*
X43234233Y-17340000D01*
X43161645Y-17350436D01*
X43092487Y-17340492D01*
X43039684Y-17294736D01*
X43020000Y-17227698D01*
X43020000Y-16509364D01*
X43019999Y-16509364D01*
X42806513Y-16566567D01*
X42806507Y-16566570D01*
X42592422Y-16666399D01*
X42592420Y-16666400D01*
X42398926Y-16801886D01*
X42398920Y-16801891D01*
X42231891Y-16968920D01*
X42231890Y-16968922D01*
X42101880Y-17154595D01*
X42047303Y-17198219D01*
X41977804Y-17205412D01*
X41915450Y-17173890D01*
X41898730Y-17154594D01*
X41768494Y-16968597D01*
X41601402Y-16801506D01*
X41601395Y-16801501D01*
X41407834Y-16665967D01*
X41407830Y-16665965D01*
X41407828Y-16665964D01*
X41193663Y-16566097D01*
X41193659Y-16566096D01*
X41193655Y-16566094D01*
X40965413Y-16504938D01*
X40965403Y-16504936D01*
X40730001Y-16484341D01*
X40729999Y-16484341D01*
X40494596Y-16504936D01*
X40494586Y-16504938D01*
X40266344Y-16566094D01*
X40266337Y-16566096D01*
X40266337Y-16566097D01*
X40252816Y-16572401D01*
X40052171Y-16665964D01*
X40052169Y-16665965D01*
X39858597Y-16801505D01*
X39691505Y-16968597D01*
X39561575Y-17154158D01*
X39506998Y-17197783D01*
X39437500Y-17204977D01*
X39375145Y-17173454D01*
X39358425Y-17154158D01*
X39228494Y-16968597D01*
X39061402Y-16801506D01*
X39061395Y-16801501D01*
X38867834Y-16665967D01*
X38867830Y-16665965D01*
X38867828Y-16665964D01*
X38653663Y-16566097D01*
X38653659Y-16566096D01*
X38653655Y-16566094D01*
X38425413Y-16504938D01*
X38425403Y-16504936D01*
X38190001Y-16484341D01*
X38189999Y-16484341D01*
X37954596Y-16504936D01*
X37954586Y-16504938D01*
X37726344Y-16566094D01*
X37726337Y-16566096D01*
X37726337Y-16566097D01*
X37712816Y-16572401D01*
X37512171Y-16665964D01*
X37512169Y-16665965D01*
X37318600Y-16801503D01*
X37196673Y-16923430D01*
X37135350Y-16956914D01*
X37065658Y-16951930D01*
X37009725Y-16910058D01*
X36992810Y-16879081D01*
X36943797Y-16747671D01*
X36943793Y-16747664D01*
X36857547Y-16632455D01*
X36857544Y-16632452D01*
X36742335Y-16546206D01*
X36742328Y-16546202D01*
X36607482Y-16495908D01*
X36607483Y-16495908D01*
X36547883Y-16489501D01*
X36547881Y-16489500D01*
X36547873Y-16489500D01*
X36547864Y-16489500D01*
X34752129Y-16489500D01*
X34752123Y-16489501D01*
X34692516Y-16495908D01*
X34557671Y-16546202D01*
X34557664Y-16546206D01*
X34442455Y-16632452D01*
X34442452Y-16632455D01*
X34356206Y-16747664D01*
X34356202Y-16747671D01*
X34305908Y-16882517D01*
X34299501Y-16942116D01*
X34299500Y-16942135D01*
X34299500Y-18737870D01*
X33373946Y-18737870D01*
X33395590Y-18712528D01*
X33436482Y-18645798D01*
X33439731Y-18641019D01*
X33450003Y-18627351D01*
X33450007Y-18627341D01*
X33451259Y-18625677D01*
X33451287Y-18625638D01*
X33454744Y-18621036D01*
X33455129Y-18620748D01*
X33456026Y-18619330D01*
X33460921Y-18612816D01*
X33467611Y-18595001D01*
X33524273Y-18502538D01*
X33556011Y-18425914D01*
X33558383Y-18420848D01*
X33567176Y-18404096D01*
X33567176Y-18404094D01*
X33568133Y-18402272D01*
X33569374Y-18400988D01*
X33571828Y-18395230D01*
X33574303Y-18390513D01*
X33577820Y-18373261D01*
X33618521Y-18275002D01*
X33639010Y-18189658D01*
X33640486Y-18184506D01*
X33645904Y-18168276D01*
X33647640Y-18165779D01*
X33650012Y-18156155D01*
X33650071Y-18146155D01*
X33650994Y-18140474D01*
X33651895Y-18135987D01*
X33676015Y-18035524D01*
X33683295Y-17943015D01*
X33683900Y-17937992D01*
X33687464Y-17916067D01*
X33687464Y-17916064D01*
X33687741Y-17914361D01*
X33687746Y-17914321D01*
X33688903Y-17907198D01*
X33687795Y-17899566D01*
X33688131Y-17882924D01*
X33688309Y-17879309D01*
X33695338Y-17790000D01*
X33688308Y-17700684D01*
X33688131Y-17697074D01*
X33688049Y-17693041D01*
X33687795Y-17680434D01*
X33689265Y-17675028D01*
X33688165Y-17668258D01*
X33688163Y-17668236D01*
X33683904Y-17642030D01*
X33683292Y-17636946D01*
X33680746Y-17604596D01*
X33676015Y-17544476D01*
X33651900Y-17444032D01*
X33650993Y-17439520D01*
X33650070Y-17433836D01*
X33650947Y-17426831D01*
X33650187Y-17424553D01*
X33648059Y-17415920D01*
X33645904Y-17411722D01*
X33640486Y-17395493D01*
X33639007Y-17390329D01*
X33635649Y-17376344D01*
X33618521Y-17304998D01*
X33589532Y-17235012D01*
X33577822Y-17206741D01*
X33576395Y-17193472D01*
X33571830Y-17184774D01*
X33569784Y-17179972D01*
X33568133Y-17177728D01*
X33558391Y-17159166D01*
X33556007Y-17154076D01*
X33524273Y-17077463D01*
X33524273Y-17077462D01*
X33467610Y-16984997D01*
X33463842Y-16971067D01*
X33456025Y-16960665D01*
X33455291Y-16959505D01*
X33454760Y-16958982D01*
X33451513Y-16954662D01*
X33451474Y-16954606D01*
X33442102Y-16942135D01*
X33439749Y-16939004D01*
X33436458Y-16934162D01*
X33421687Y-16910058D01*
X33395590Y-16867472D01*
X33323730Y-16783335D01*
X33317395Y-16769197D01*
X33287647Y-16740623D01*
X33283449Y-16736172D01*
X33235645Y-16680200D01*
X33235643Y-16680198D01*
X33235642Y-16680197D01*
X33149761Y-16606848D01*
X33140727Y-16593009D01*
X33105986Y-16569028D01*
X33100937Y-16565147D01*
X33048368Y-16520249D01*
X33048364Y-16520246D01*
X32950048Y-16459998D01*
X32938287Y-16446999D01*
X32904550Y-16430990D01*
X32903345Y-16430418D01*
X32899395Y-16428544D01*
X32893591Y-16425401D01*
X32838377Y-16391566D01*
X32838374Y-16391565D01*
X32838373Y-16391564D01*
X32729586Y-16346503D01*
X32715174Y-16334889D01*
X32683274Y-16325649D01*
X32683254Y-16325642D01*
X32673145Y-16322713D01*
X32666670Y-16320442D01*
X32610841Y-16297318D01*
X32493887Y-16269239D01*
X32476999Y-16259542D01*
X32432990Y-16254199D01*
X32425984Y-16252937D01*
X32391149Y-16244574D01*
X32330556Y-16209784D01*
X32298392Y-16147758D01*
X32304868Y-16078189D01*
X32347927Y-16023165D01*
X32413899Y-16000155D01*
X32420095Y-16000000D01*
X80962456Y-16000000D01*
X81029495Y-16019685D01*
X81031239Y-16020826D01*
X82444784Y-16963189D01*
X82489644Y-17016753D01*
X82500000Y-17066362D01*
X82500000Y-28500000D01*
X84963681Y-30963681D01*
X84997166Y-31025004D01*
X85000000Y-31051362D01*
X85000000Y-62948638D01*
X84980315Y-63015677D01*
X84963681Y-63036319D01*
X82000000Y-65999999D01*
X82000000Y-67875027D01*
X81980315Y-67942066D01*
X81927511Y-67987821D01*
X81875031Y-67999023D01*
X31810454Y-67607892D01*
X31743571Y-67587685D01*
X31698230Y-67534525D01*
X31688827Y-67465291D01*
X31718347Y-67401964D01*
X31746629Y-67378171D01*
X31776689Y-67359751D01*
X31829268Y-67314843D01*
X31834299Y-67310975D01*
X31845017Y-67303578D01*
X31845020Y-67303574D01*
X31845837Y-67303011D01*
X31845856Y-67302997D01*
X31864462Y-67290154D01*
X31878084Y-67273151D01*
X31963964Y-67199803D01*
X32011787Y-67143808D01*
X32015964Y-67139380D01*
X32026857Y-67128918D01*
X32026861Y-67128912D01*
X32027531Y-67128269D01*
X32027542Y-67128258D01*
X32041948Y-67114420D01*
X32052051Y-67096665D01*
X32123912Y-67012528D01*
X32164804Y-66945798D01*
X32168053Y-66941019D01*
X32178325Y-66927351D01*
X32178329Y-66927341D01*
X32179581Y-66925677D01*
X32179609Y-66925638D01*
X32183066Y-66921036D01*
X32183451Y-66920748D01*
X32184348Y-66919330D01*
X32189243Y-66912816D01*
X32195933Y-66895001D01*
X32252595Y-66802538D01*
X32284333Y-66725914D01*
X32286705Y-66720848D01*
X32295498Y-66704096D01*
X32295498Y-66704094D01*
X32296455Y-66702272D01*
X32297696Y-66700988D01*
X32300150Y-66695230D01*
X32302625Y-66690513D01*
X32306142Y-66673261D01*
X32346843Y-66575002D01*
X32367332Y-66489658D01*
X32368808Y-66484506D01*
X32374226Y-66468276D01*
X32375962Y-66465779D01*
X32378334Y-66456155D01*
X32378393Y-66446155D01*
X32379316Y-66440474D01*
X32380217Y-66435987D01*
X32404337Y-66335524D01*
X32411617Y-66243015D01*
X32412222Y-66237992D01*
X32415786Y-66216067D01*
X32415786Y-66216064D01*
X32416063Y-66214361D01*
X32416068Y-66214321D01*
X32417225Y-66207198D01*
X32416117Y-66199566D01*
X32416453Y-66182924D01*
X32416631Y-66179309D01*
X32418002Y-66161888D01*
X32423660Y-66090000D01*
X43434341Y-66090000D01*
X43454936Y-66325403D01*
X43454938Y-66325413D01*
X43516094Y-66553655D01*
X43516096Y-66553659D01*
X43516097Y-66553663D01*
X43596004Y-66725023D01*
X43615965Y-66767830D01*
X43615967Y-66767834D01*
X43705008Y-66894996D01*
X43751505Y-66961401D01*
X43918599Y-67128495D01*
X44014542Y-67195675D01*
X44112165Y-67264032D01*
X44112167Y-67264033D01*
X44112170Y-67264035D01*
X44326337Y-67363903D01*
X44554592Y-67425063D01*
X44731034Y-67440500D01*
X44789999Y-67445659D01*
X44790000Y-67445659D01*
X44790001Y-67445659D01*
X44848966Y-67440500D01*
X45025408Y-67425063D01*
X45253663Y-67363903D01*
X45467830Y-67264035D01*
X45661401Y-67128495D01*
X45828495Y-66961401D01*
X45958424Y-66775842D01*
X46013002Y-66732217D01*
X46082500Y-66725023D01*
X46144855Y-66756546D01*
X46161575Y-66775842D01*
X46291500Y-66961395D01*
X46291505Y-66961401D01*
X46458599Y-67128495D01*
X46554542Y-67195675D01*
X46652165Y-67264032D01*
X46652167Y-67264033D01*
X46652170Y-67264035D01*
X46866337Y-67363903D01*
X47094592Y-67425063D01*
X47271034Y-67440500D01*
X47329999Y-67445659D01*
X47330000Y-67445659D01*
X47330001Y-67445659D01*
X47388966Y-67440500D01*
X47565408Y-67425063D01*
X47793663Y-67363903D01*
X48007830Y-67264035D01*
X48201401Y-67128495D01*
X48368495Y-66961401D01*
X48498424Y-66775842D01*
X48553002Y-66732217D01*
X48622500Y-66725023D01*
X48684855Y-66756546D01*
X48701575Y-66775842D01*
X48831500Y-66961395D01*
X48831505Y-66961401D01*
X48998599Y-67128495D01*
X49094542Y-67195675D01*
X49192165Y-67264032D01*
X49192167Y-67264033D01*
X49192170Y-67264035D01*
X49406337Y-67363903D01*
X49634592Y-67425063D01*
X49811034Y-67440500D01*
X49869999Y-67445659D01*
X49870000Y-67445659D01*
X49870001Y-67445659D01*
X49928966Y-67440500D01*
X50105408Y-67425063D01*
X50333663Y-67363903D01*
X50547830Y-67264035D01*
X50741401Y-67128495D01*
X50908495Y-66961401D01*
X51038424Y-66775842D01*
X51093002Y-66732217D01*
X51162500Y-66725023D01*
X51224855Y-66756546D01*
X51241575Y-66775842D01*
X51371500Y-66961395D01*
X51371505Y-66961401D01*
X51538599Y-67128495D01*
X51634542Y-67195675D01*
X51732165Y-67264032D01*
X51732167Y-67264033D01*
X51732170Y-67264035D01*
X51946337Y-67363903D01*
X52174592Y-67425063D01*
X52351034Y-67440500D01*
X52409999Y-67445659D01*
X52410000Y-67445659D01*
X52410001Y-67445659D01*
X52468966Y-67440500D01*
X52645408Y-67425063D01*
X52873663Y-67363903D01*
X53087830Y-67264035D01*
X53281401Y-67128495D01*
X53448495Y-66961401D01*
X53578424Y-66775842D01*
X53633002Y-66732217D01*
X53702500Y-66725023D01*
X53764855Y-66756546D01*
X53781575Y-66775842D01*
X53911500Y-66961395D01*
X53911505Y-66961401D01*
X54078599Y-67128495D01*
X54174542Y-67195675D01*
X54272165Y-67264032D01*
X54272167Y-67264033D01*
X54272170Y-67264035D01*
X54486337Y-67363903D01*
X54714592Y-67425063D01*
X54891034Y-67440500D01*
X54949999Y-67445659D01*
X54950000Y-67445659D01*
X54950001Y-67445659D01*
X55008966Y-67440500D01*
X55185408Y-67425063D01*
X55413663Y-67363903D01*
X55627830Y-67264035D01*
X55821401Y-67128495D01*
X55988495Y-66961401D01*
X56118730Y-66775405D01*
X56173307Y-66731781D01*
X56242805Y-66724587D01*
X56305160Y-66756110D01*
X56321879Y-66775405D01*
X56451890Y-66961078D01*
X56618917Y-67128105D01*
X56812421Y-67263600D01*
X57026507Y-67363429D01*
X57026516Y-67363433D01*
X57240000Y-67420634D01*
X57240000Y-66702301D01*
X57259685Y-66635262D01*
X57312489Y-66589507D01*
X57381647Y-66579563D01*
X57454237Y-66590000D01*
X57454238Y-66590000D01*
X57525762Y-66590000D01*
X57525763Y-66590000D01*
X57598353Y-66579563D01*
X57667512Y-66589507D01*
X57720315Y-66635262D01*
X57740000Y-66702301D01*
X57740000Y-67420633D01*
X57953483Y-67363433D01*
X57953492Y-67363429D01*
X58167578Y-67263600D01*
X58361082Y-67128105D01*
X58528105Y-66961082D01*
X58658425Y-66774968D01*
X58713002Y-66731344D01*
X58782501Y-66724151D01*
X58844855Y-66755673D01*
X58861575Y-66774968D01*
X58991894Y-66961082D01*
X59158917Y-67128105D01*
X59352421Y-67263600D01*
X59566507Y-67363429D01*
X59566516Y-67363433D01*
X59780000Y-67420634D01*
X59780000Y-66702301D01*
X59799685Y-66635262D01*
X59852489Y-66589507D01*
X59921647Y-66579563D01*
X59994237Y-66590000D01*
X59994238Y-66590000D01*
X60065762Y-66590000D01*
X60065763Y-66590000D01*
X60138353Y-66579563D01*
X60207512Y-66589507D01*
X60260315Y-66635262D01*
X60280000Y-66702301D01*
X60280000Y-67420633D01*
X60493483Y-67363433D01*
X60493492Y-67363429D01*
X60707578Y-67263600D01*
X60901078Y-67128108D01*
X61023133Y-67006053D01*
X61084456Y-66972568D01*
X61154148Y-66977552D01*
X61210082Y-67019423D01*
X61226997Y-67050401D01*
X61276202Y-67182328D01*
X61276206Y-67182335D01*
X61362452Y-67297544D01*
X61362455Y-67297547D01*
X61477664Y-67383793D01*
X61477671Y-67383797D01*
X61612517Y-67434091D01*
X61612516Y-67434091D01*
X61619444Y-67434835D01*
X61672127Y-67440500D01*
X63467872Y-67440499D01*
X63527483Y-67434091D01*
X63662331Y-67383796D01*
X63777546Y-67297546D01*
X63863796Y-67182331D01*
X63914091Y-67047483D01*
X63920500Y-66987873D01*
X63920499Y-66090000D01*
X66294341Y-66090000D01*
X66314936Y-66325403D01*
X66314938Y-66325413D01*
X66376094Y-66553655D01*
X66376096Y-66553659D01*
X66376097Y-66553663D01*
X66456004Y-66725023D01*
X66475965Y-66767830D01*
X66475967Y-66767834D01*
X66565008Y-66894996D01*
X66611505Y-66961401D01*
X66778599Y-67128495D01*
X66874542Y-67195675D01*
X66972165Y-67264032D01*
X66972167Y-67264033D01*
X66972170Y-67264035D01*
X67186337Y-67363903D01*
X67414592Y-67425063D01*
X67591034Y-67440500D01*
X67649999Y-67445659D01*
X67650000Y-67445659D01*
X67650001Y-67445659D01*
X67708966Y-67440500D01*
X67885408Y-67425063D01*
X68113663Y-67363903D01*
X68327830Y-67264035D01*
X68521401Y-67128495D01*
X68688495Y-66961401D01*
X68818424Y-66775842D01*
X68873002Y-66732217D01*
X68942500Y-66725023D01*
X69004855Y-66756546D01*
X69021575Y-66775842D01*
X69151500Y-66961395D01*
X69151505Y-66961401D01*
X69318599Y-67128495D01*
X69414542Y-67195675D01*
X69512165Y-67264032D01*
X69512167Y-67264033D01*
X69512170Y-67264035D01*
X69726337Y-67363903D01*
X69954592Y-67425063D01*
X70131034Y-67440500D01*
X70189999Y-67445659D01*
X70190000Y-67445659D01*
X70190001Y-67445659D01*
X70248966Y-67440500D01*
X70425408Y-67425063D01*
X70653663Y-67363903D01*
X70867830Y-67264035D01*
X71061401Y-67128495D01*
X71228495Y-66961401D01*
X71358424Y-66775842D01*
X71413002Y-66732217D01*
X71482500Y-66725023D01*
X71544855Y-66756546D01*
X71561575Y-66775842D01*
X71691500Y-66961395D01*
X71691505Y-66961401D01*
X71858599Y-67128495D01*
X71954542Y-67195675D01*
X72052165Y-67264032D01*
X72052167Y-67264033D01*
X72052170Y-67264035D01*
X72266337Y-67363903D01*
X72494592Y-67425063D01*
X72671034Y-67440500D01*
X72729999Y-67445659D01*
X72730000Y-67445659D01*
X72730001Y-67445659D01*
X72788966Y-67440500D01*
X72965408Y-67425063D01*
X73193663Y-67363903D01*
X73407830Y-67264035D01*
X73601401Y-67128495D01*
X73768495Y-66961401D01*
X73898424Y-66775842D01*
X73953002Y-66732217D01*
X74022500Y-66725023D01*
X74084855Y-66756546D01*
X74101575Y-66775842D01*
X74231500Y-66961395D01*
X74231505Y-66961401D01*
X74398599Y-67128495D01*
X74494542Y-67195675D01*
X74592165Y-67264032D01*
X74592167Y-67264033D01*
X74592170Y-67264035D01*
X74806337Y-67363903D01*
X75034592Y-67425063D01*
X75211034Y-67440500D01*
X75269999Y-67445659D01*
X75270000Y-67445659D01*
X75270001Y-67445659D01*
X75328966Y-67440500D01*
X75505408Y-67425063D01*
X75733663Y-67363903D01*
X75947830Y-67264035D01*
X76141401Y-67128495D01*
X76308495Y-66961401D01*
X76438424Y-66775842D01*
X76493002Y-66732217D01*
X76562500Y-66725023D01*
X76624855Y-66756546D01*
X76641575Y-66775842D01*
X76771500Y-66961395D01*
X76771505Y-66961401D01*
X76938599Y-67128495D01*
X77034542Y-67195675D01*
X77132165Y-67264032D01*
X77132167Y-67264033D01*
X77132170Y-67264035D01*
X77346337Y-67363903D01*
X77574592Y-67425063D01*
X77751034Y-67440500D01*
X77809999Y-67445659D01*
X77810000Y-67445659D01*
X77810001Y-67445659D01*
X77868966Y-67440500D01*
X78045408Y-67425063D01*
X78273663Y-67363903D01*
X78487830Y-67264035D01*
X78681401Y-67128495D01*
X78803329Y-67006566D01*
X78864648Y-66973084D01*
X78934340Y-66978068D01*
X78990274Y-67019939D01*
X79007189Y-67050917D01*
X79056202Y-67182328D01*
X79056206Y-67182335D01*
X79142452Y-67297544D01*
X79142455Y-67297547D01*
X79257664Y-67383793D01*
X79257671Y-67383797D01*
X79392517Y-67434091D01*
X79392516Y-67434091D01*
X79399444Y-67434835D01*
X79452127Y-67440500D01*
X81247872Y-67440499D01*
X81307483Y-67434091D01*
X81442331Y-67383796D01*
X81557546Y-67297546D01*
X81643796Y-67182331D01*
X81694091Y-67047483D01*
X81700500Y-66987873D01*
X81700499Y-65192128D01*
X81694091Y-65132517D01*
X81693002Y-65129598D01*
X81643797Y-64997671D01*
X81643793Y-64997664D01*
X81557547Y-64882455D01*
X81557544Y-64882452D01*
X81442335Y-64796206D01*
X81442328Y-64796202D01*
X81307482Y-64745908D01*
X81307483Y-64745908D01*
X81247883Y-64739501D01*
X81247881Y-64739500D01*
X81247873Y-64739500D01*
X81247864Y-64739500D01*
X79452129Y-64739500D01*
X79452123Y-64739501D01*
X79392516Y-64745908D01*
X79257671Y-64796202D01*
X79257664Y-64796206D01*
X79142455Y-64882452D01*
X79142452Y-64882455D01*
X79056206Y-64997664D01*
X79056203Y-64997669D01*
X79007189Y-65129083D01*
X78965317Y-65185016D01*
X78899853Y-65209433D01*
X78831580Y-65194581D01*
X78803326Y-65173430D01*
X78681402Y-65051506D01*
X78681395Y-65051501D01*
X78487834Y-64915967D01*
X78487830Y-64915965D01*
X78438601Y-64893009D01*
X78273663Y-64816097D01*
X78273659Y-64816096D01*
X78273655Y-64816094D01*
X78045413Y-64754938D01*
X78045403Y-64754936D01*
X77810001Y-64734341D01*
X77809999Y-64734341D01*
X77574596Y-64754936D01*
X77574586Y-64754938D01*
X77346344Y-64816094D01*
X77346335Y-64816098D01*
X77132171Y-64915964D01*
X77132169Y-64915965D01*
X76938597Y-65051505D01*
X76771505Y-65218597D01*
X76641575Y-65404158D01*
X76586998Y-65447783D01*
X76517500Y-65454977D01*
X76455145Y-65423454D01*
X76438425Y-65404158D01*
X76308494Y-65218597D01*
X76141402Y-65051506D01*
X76141395Y-65051501D01*
X75947834Y-64915967D01*
X75947830Y-64915965D01*
X75898601Y-64893009D01*
X75733663Y-64816097D01*
X75733659Y-64816096D01*
X75733655Y-64816094D01*
X75505413Y-64754938D01*
X75505403Y-64754936D01*
X75270001Y-64734341D01*
X75269999Y-64734341D01*
X75034596Y-64754936D01*
X75034586Y-64754938D01*
X74806344Y-64816094D01*
X74806335Y-64816098D01*
X74592171Y-64915964D01*
X74592169Y-64915965D01*
X74398597Y-65051505D01*
X74231505Y-65218597D01*
X74101575Y-65404158D01*
X74046998Y-65447783D01*
X73977500Y-65454977D01*
X73915145Y-65423454D01*
X73898425Y-65404158D01*
X73768494Y-65218597D01*
X73601402Y-65051506D01*
X73601395Y-65051501D01*
X73407834Y-64915967D01*
X73407830Y-64915965D01*
X73358601Y-64893009D01*
X73193663Y-64816097D01*
X73193659Y-64816096D01*
X73193655Y-64816094D01*
X72965413Y-64754938D01*
X72965403Y-64754936D01*
X72730001Y-64734341D01*
X72729999Y-64734341D01*
X72494596Y-64754936D01*
X72494586Y-64754938D01*
X72266344Y-64816094D01*
X72266335Y-64816098D01*
X72052171Y-64915964D01*
X72052169Y-64915965D01*
X71858597Y-65051505D01*
X71691505Y-65218597D01*
X71561575Y-65404158D01*
X71506998Y-65447783D01*
X71437500Y-65454977D01*
X71375145Y-65423454D01*
X71358425Y-65404158D01*
X71228494Y-65218597D01*
X71061402Y-65051506D01*
X71061395Y-65051501D01*
X70867834Y-64915967D01*
X70867830Y-64915965D01*
X70818601Y-64893009D01*
X70653663Y-64816097D01*
X70653659Y-64816096D01*
X70653655Y-64816094D01*
X70425413Y-64754938D01*
X70425403Y-64754936D01*
X70190001Y-64734341D01*
X70189999Y-64734341D01*
X69954596Y-64754936D01*
X69954586Y-64754938D01*
X69726344Y-64816094D01*
X69726335Y-64816098D01*
X69512171Y-64915964D01*
X69512169Y-64915965D01*
X69318597Y-65051505D01*
X69151505Y-65218597D01*
X69021575Y-65404158D01*
X68966998Y-65447783D01*
X68897500Y-65454977D01*
X68835145Y-65423454D01*
X68818425Y-65404158D01*
X68688494Y-65218597D01*
X68521402Y-65051506D01*
X68521395Y-65051501D01*
X68327834Y-64915967D01*
X68327830Y-64915965D01*
X68278601Y-64893009D01*
X68113663Y-64816097D01*
X68113659Y-64816096D01*
X68113655Y-64816094D01*
X67885413Y-64754938D01*
X67885403Y-64754936D01*
X67650001Y-64734341D01*
X67649999Y-64734341D01*
X67414596Y-64754936D01*
X67414586Y-64754938D01*
X67186344Y-64816094D01*
X67186335Y-64816098D01*
X66972171Y-64915964D01*
X66972169Y-64915965D01*
X66778597Y-65051505D01*
X66611505Y-65218597D01*
X66475965Y-65412169D01*
X66475964Y-65412171D01*
X66376098Y-65626335D01*
X66376094Y-65626344D01*
X66314938Y-65854586D01*
X66314936Y-65854596D01*
X66294341Y-66089999D01*
X66294341Y-66090000D01*
X63920499Y-66090000D01*
X63920499Y-65192128D01*
X63914091Y-65132517D01*
X63913002Y-65129598D01*
X63863797Y-64997671D01*
X63863793Y-64997664D01*
X63777547Y-64882455D01*
X63777544Y-64882452D01*
X63662335Y-64796206D01*
X63662328Y-64796202D01*
X63527482Y-64745908D01*
X63527483Y-64745908D01*
X63467883Y-64739501D01*
X63467881Y-64739500D01*
X63467873Y-64739500D01*
X63467864Y-64739500D01*
X61672129Y-64739500D01*
X61672123Y-64739501D01*
X61612516Y-64745908D01*
X61477671Y-64796202D01*
X61477664Y-64796206D01*
X61362455Y-64882452D01*
X61362452Y-64882455D01*
X61276206Y-64997664D01*
X61276202Y-64997671D01*
X61226997Y-65129598D01*
X61185126Y-65185532D01*
X61119661Y-65209949D01*
X61051388Y-65195097D01*
X61023134Y-65173946D01*
X60901082Y-65051894D01*
X60707578Y-64916399D01*
X60493492Y-64816570D01*
X60493486Y-64816567D01*
X60280000Y-64759364D01*
X60280000Y-65477698D01*
X60260315Y-65544737D01*
X60207511Y-65590492D01*
X60138355Y-65600436D01*
X60065766Y-65590000D01*
X60065763Y-65590000D01*
X59994237Y-65590000D01*
X59994233Y-65590000D01*
X59921645Y-65600436D01*
X59852487Y-65590492D01*
X59799684Y-65544736D01*
X59780000Y-65477698D01*
X59780000Y-64759364D01*
X59779999Y-64759364D01*
X59566513Y-64816567D01*
X59566507Y-64816570D01*
X59352422Y-64916399D01*
X59352420Y-64916400D01*
X59158926Y-65051886D01*
X59158920Y-65051891D01*
X58991891Y-65218920D01*
X58991890Y-65218922D01*
X58861575Y-65405031D01*
X58806998Y-65448655D01*
X58737499Y-65455848D01*
X58675145Y-65424326D01*
X58658425Y-65405031D01*
X58528109Y-65218922D01*
X58528108Y-65218920D01*
X58361082Y-65051894D01*
X58167578Y-64916399D01*
X57953492Y-64816570D01*
X57953486Y-64816567D01*
X57740000Y-64759364D01*
X57740000Y-65477698D01*
X57720315Y-65544737D01*
X57667511Y-65590492D01*
X57598355Y-65600436D01*
X57525766Y-65590000D01*
X57525763Y-65590000D01*
X57454237Y-65590000D01*
X57454233Y-65590000D01*
X57381645Y-65600436D01*
X57312487Y-65590492D01*
X57259684Y-65544736D01*
X57240000Y-65477698D01*
X57240000Y-64759364D01*
X57239999Y-64759364D01*
X57026513Y-64816567D01*
X57026507Y-64816570D01*
X56812422Y-64916399D01*
X56812420Y-64916400D01*
X56618926Y-65051886D01*
X56618920Y-65051891D01*
X56451891Y-65218920D01*
X56451890Y-65218922D01*
X56321880Y-65404595D01*
X56267303Y-65448219D01*
X56197804Y-65455412D01*
X56135450Y-65423890D01*
X56118730Y-65404594D01*
X55988494Y-65218597D01*
X55821402Y-65051506D01*
X55821395Y-65051501D01*
X55627834Y-64915967D01*
X55627830Y-64915965D01*
X55578601Y-64893009D01*
X55413663Y-64816097D01*
X55413659Y-64816096D01*
X55413655Y-64816094D01*
X55185413Y-64754938D01*
X55185403Y-64754936D01*
X54950001Y-64734341D01*
X54949999Y-64734341D01*
X54714596Y-64754936D01*
X54714586Y-64754938D01*
X54486344Y-64816094D01*
X54486335Y-64816098D01*
X54272171Y-64915964D01*
X54272169Y-64915965D01*
X54078597Y-65051505D01*
X53911505Y-65218597D01*
X53781575Y-65404158D01*
X53726998Y-65447783D01*
X53657500Y-65454977D01*
X53595145Y-65423454D01*
X53578425Y-65404158D01*
X53448494Y-65218597D01*
X53281402Y-65051506D01*
X53281395Y-65051501D01*
X53087834Y-64915967D01*
X53087830Y-64915965D01*
X53038601Y-64893009D01*
X52873663Y-64816097D01*
X52873659Y-64816096D01*
X52873655Y-64816094D01*
X52645413Y-64754938D01*
X52645403Y-64754936D01*
X52410001Y-64734341D01*
X52409999Y-64734341D01*
X52174596Y-64754936D01*
X52174586Y-64754938D01*
X51946344Y-64816094D01*
X51946335Y-64816098D01*
X51732171Y-64915964D01*
X51732169Y-64915965D01*
X51538597Y-65051505D01*
X51371505Y-65218597D01*
X51241575Y-65404158D01*
X51186998Y-65447783D01*
X51117500Y-65454977D01*
X51055145Y-65423454D01*
X51038425Y-65404158D01*
X50908494Y-65218597D01*
X50741402Y-65051506D01*
X50741395Y-65051501D01*
X50547834Y-64915967D01*
X50547830Y-64915965D01*
X50498601Y-64893009D01*
X50333663Y-64816097D01*
X50333659Y-64816096D01*
X50333655Y-64816094D01*
X50105413Y-64754938D01*
X50105403Y-64754936D01*
X49870001Y-64734341D01*
X49869999Y-64734341D01*
X49634596Y-64754936D01*
X49634586Y-64754938D01*
X49406344Y-64816094D01*
X49406335Y-64816098D01*
X49192171Y-64915964D01*
X49192169Y-64915965D01*
X48998597Y-65051505D01*
X48831508Y-65218594D01*
X48701574Y-65404159D01*
X48646997Y-65447784D01*
X48577498Y-65454976D01*
X48515144Y-65423454D01*
X48498424Y-65404158D01*
X48479731Y-65377462D01*
X48414989Y-65285000D01*
X48368494Y-65218597D01*
X48201402Y-65051506D01*
X48201395Y-65051501D01*
X48007834Y-64915967D01*
X48007830Y-64915965D01*
X47958601Y-64893009D01*
X47793663Y-64816097D01*
X47793659Y-64816096D01*
X47793655Y-64816094D01*
X47565413Y-64754938D01*
X47565403Y-64754936D01*
X47330001Y-64734341D01*
X47329999Y-64734341D01*
X47094596Y-64754936D01*
X47094586Y-64754938D01*
X46866344Y-64816094D01*
X46866335Y-64816098D01*
X46652171Y-64915964D01*
X46652169Y-64915965D01*
X46458597Y-65051505D01*
X46291505Y-65218597D01*
X46161575Y-65404158D01*
X46106998Y-65447783D01*
X46037500Y-65454977D01*
X45975145Y-65423454D01*
X45958425Y-65404158D01*
X45828494Y-65218597D01*
X45661402Y-65051506D01*
X45661395Y-65051501D01*
X45467834Y-64915967D01*
X45467830Y-64915965D01*
X45418601Y-64893009D01*
X45253663Y-64816097D01*
X45253659Y-64816096D01*
X45253655Y-64816094D01*
X45025413Y-64754938D01*
X45025403Y-64754936D01*
X44790001Y-64734341D01*
X44789999Y-64734341D01*
X44554596Y-64754936D01*
X44554586Y-64754938D01*
X44326344Y-64816094D01*
X44326335Y-64816098D01*
X44112171Y-64915964D01*
X44112169Y-64915965D01*
X43918597Y-65051505D01*
X43751505Y-65218597D01*
X43615965Y-65412169D01*
X43615964Y-65412171D01*
X43516098Y-65626335D01*
X43516094Y-65626344D01*
X43454938Y-65854586D01*
X43454936Y-65854596D01*
X43434341Y-66089999D01*
X43434341Y-66090000D01*
X32423660Y-66090000D01*
X32416630Y-66000684D01*
X32416453Y-65997074D01*
X32416371Y-65993041D01*
X32416117Y-65980434D01*
X32417587Y-65975028D01*
X32416487Y-65968258D01*
X32416485Y-65968236D01*
X32412226Y-65942030D01*
X32411614Y-65936946D01*
X32409689Y-65912489D01*
X32404337Y-65844476D01*
X32380222Y-65744032D01*
X32379315Y-65739520D01*
X32378392Y-65733836D01*
X32379269Y-65726831D01*
X32378509Y-65724553D01*
X32376381Y-65715920D01*
X32374226Y-65711722D01*
X32368808Y-65695493D01*
X32367329Y-65690329D01*
X32351965Y-65626335D01*
X32346843Y-65604998D01*
X32306144Y-65506741D01*
X32304717Y-65493472D01*
X32300152Y-65484774D01*
X32298106Y-65479972D01*
X32296455Y-65477728D01*
X32286713Y-65459166D01*
X32284329Y-65454076D01*
X32281723Y-65447784D01*
X32252595Y-65377462D01*
X32195932Y-65284997D01*
X32192164Y-65271067D01*
X32184347Y-65260665D01*
X32183613Y-65259505D01*
X32183082Y-65258982D01*
X32179835Y-65254662D01*
X32179796Y-65254606D01*
X32176285Y-65249934D01*
X32168071Y-65239004D01*
X32164780Y-65234162D01*
X32140841Y-65195097D01*
X32123912Y-65167472D01*
X32052052Y-65083335D01*
X32045717Y-65069197D01*
X32015969Y-65040623D01*
X32011771Y-65036172D01*
X31963967Y-64980200D01*
X31963965Y-64980198D01*
X31963964Y-64980197D01*
X31878083Y-64906848D01*
X31869049Y-64893009D01*
X31834308Y-64869028D01*
X31829259Y-64865147D01*
X31776690Y-64820249D01*
X31776686Y-64820246D01*
X31678370Y-64759998D01*
X31666609Y-64746999D01*
X31632872Y-64730990D01*
X31631667Y-64730418D01*
X31627717Y-64728544D01*
X31621913Y-64725401D01*
X31566699Y-64691566D01*
X31566696Y-64691565D01*
X31566695Y-64691564D01*
X31457908Y-64646503D01*
X31443496Y-64634889D01*
X31411596Y-64625649D01*
X31411576Y-64625642D01*
X31401467Y-64622713D01*
X31394992Y-64620442D01*
X31339163Y-64597318D01*
X31222209Y-64569239D01*
X31205321Y-64559542D01*
X31161312Y-64554199D01*
X31154306Y-64552937D01*
X31099686Y-64539824D01*
X31099677Y-64539823D01*
X30977212Y-64530185D01*
X30958146Y-64522918D01*
X30919756Y-64524464D01*
X30919739Y-64524464D01*
X30913354Y-64524721D01*
X30905992Y-64524580D01*
X30871626Y-64521875D01*
X30854161Y-64520501D01*
X30854160Y-64520501D01*
X30729060Y-64530345D01*
X30708199Y-64525962D01*
X30663909Y-64535004D01*
X30656368Y-64536067D01*
X30608642Y-64539823D01*
X30608632Y-64539825D01*
X30483977Y-64569751D01*
X30461795Y-64568641D01*
X30419254Y-64584776D01*
X30411736Y-64587094D01*
X30369158Y-64597318D01*
X30369156Y-64597318D01*
X30184376Y-64673856D01*
X30182373Y-64674616D01*
X30180028Y-64675656D01*
X30141628Y-64691563D01*
X30141616Y-64691569D01*
X29931638Y-64820245D01*
X29931635Y-64820246D01*
X29744358Y-64980197D01*
X29584407Y-65167474D01*
X29584406Y-65167477D01*
X29455726Y-65377461D01*
X29361478Y-65604997D01*
X29303984Y-65844479D01*
X29284662Y-66089999D01*
X29303984Y-66335520D01*
X29361478Y-66575002D01*
X29455726Y-66802538D01*
X29584406Y-67012522D01*
X29584407Y-67012525D01*
X29617197Y-67050917D01*
X29744358Y-67199803D01*
X29931633Y-67359751D01*
X29936965Y-67363019D01*
X29983841Y-67414829D01*
X29995265Y-67483759D01*
X29967609Y-67547922D01*
X29909654Y-67586948D01*
X29871208Y-67592743D01*
X18123031Y-67500961D01*
X18056148Y-67480754D01*
X18010807Y-67427594D01*
X18000000Y-67376965D01*
X18000000Y-62530000D01*
X38284540Y-62530000D01*
X38304326Y-62718256D01*
X38304327Y-62718259D01*
X38362818Y-62898277D01*
X38362821Y-62898284D01*
X38457467Y-63062216D01*
X38584128Y-63202888D01*
X38584129Y-63202888D01*
X38737265Y-63314148D01*
X38737270Y-63314151D01*
X38910192Y-63391142D01*
X38910197Y-63391144D01*
X39095354Y-63430500D01*
X39095355Y-63430500D01*
X39284644Y-63430500D01*
X39284646Y-63430500D01*
X39469803Y-63391144D01*
X39642730Y-63314151D01*
X39744791Y-63240000D01*
X43354540Y-63240000D01*
X43374326Y-63428256D01*
X43374327Y-63428259D01*
X43432818Y-63608277D01*
X43432821Y-63608284D01*
X43527467Y-63772216D01*
X43654129Y-63912888D01*
X43807265Y-64024148D01*
X43807270Y-64024151D01*
X43980192Y-64101142D01*
X43980197Y-64101144D01*
X44165354Y-64140500D01*
X44165355Y-64140500D01*
X44354644Y-64140500D01*
X44354646Y-64140500D01*
X44539803Y-64101144D01*
X44712730Y-64024151D01*
X44865871Y-63912888D01*
X44992533Y-63772216D01*
X45087179Y-63608284D01*
X45145674Y-63428256D01*
X45165460Y-63240000D01*
X45145674Y-63051744D01*
X45087179Y-62871716D01*
X44992533Y-62707784D01*
X44865871Y-62567112D01*
X44814791Y-62530000D01*
X44712734Y-62455851D01*
X44712729Y-62455848D01*
X44539807Y-62378857D01*
X44539802Y-62378855D01*
X44365184Y-62341740D01*
X44354646Y-62339500D01*
X44165354Y-62339500D01*
X44154816Y-62341740D01*
X43980197Y-62378855D01*
X43980192Y-62378857D01*
X43807270Y-62455848D01*
X43807265Y-62455851D01*
X43654129Y-62567111D01*
X43527466Y-62707785D01*
X43432821Y-62871715D01*
X43432818Y-62871722D01*
X43374327Y-63051740D01*
X43374326Y-63051744D01*
X43354540Y-63240000D01*
X39744791Y-63240000D01*
X39795871Y-63202888D01*
X39922533Y-63062216D01*
X40017179Y-62898284D01*
X40075674Y-62718256D01*
X40095460Y-62530000D01*
X40075674Y-62341744D01*
X40017179Y-62161716D01*
X39922533Y-61997784D01*
X39795871Y-61857112D01*
X39795870Y-61857111D01*
X39642734Y-61745851D01*
X39642729Y-61745848D01*
X39469807Y-61668857D01*
X39469802Y-61668855D01*
X39324000Y-61637865D01*
X39284646Y-61629500D01*
X39095354Y-61629500D01*
X39062897Y-61636398D01*
X38910197Y-61668855D01*
X38910192Y-61668857D01*
X38737270Y-61745848D01*
X38737265Y-61745851D01*
X38584129Y-61857111D01*
X38457466Y-61997785D01*
X38362821Y-62161715D01*
X38362818Y-62161722D01*
X38327194Y-62271363D01*
X38304326Y-62341744D01*
X38284540Y-62530000D01*
X18000000Y-62530000D01*
X18000000Y-61350000D01*
X45764540Y-61350000D01*
X45784326Y-61538256D01*
X45784327Y-61538259D01*
X45842818Y-61718277D01*
X45842821Y-61718284D01*
X45937467Y-61882216D01*
X45979484Y-61928880D01*
X46064129Y-62022888D01*
X46217265Y-62134148D01*
X46217270Y-62134151D01*
X46390192Y-62211142D01*
X46390197Y-62211144D01*
X46575354Y-62250500D01*
X46575355Y-62250500D01*
X46764644Y-62250500D01*
X46764646Y-62250500D01*
X46949803Y-62211144D01*
X47122730Y-62134151D01*
X47169735Y-62100000D01*
X56094540Y-62100000D01*
X56114326Y-62288256D01*
X56114327Y-62288259D01*
X56172818Y-62468277D01*
X56172821Y-62468284D01*
X56267467Y-62632216D01*
X56394129Y-62772888D01*
X56547265Y-62884148D01*
X56547270Y-62884151D01*
X56720192Y-62961142D01*
X56720197Y-62961144D01*
X56905354Y-63000500D01*
X56905355Y-63000500D01*
X57094644Y-63000500D01*
X57094646Y-63000500D01*
X57279803Y-62961144D01*
X57452730Y-62884151D01*
X57458443Y-62880000D01*
X70744540Y-62880000D01*
X70764326Y-63068256D01*
X70764327Y-63068259D01*
X70822818Y-63248277D01*
X70822821Y-63248284D01*
X70917467Y-63412216D01*
X71041529Y-63550000D01*
X71044129Y-63552888D01*
X71197265Y-63664148D01*
X71197270Y-63664151D01*
X71370192Y-63741142D01*
X71370197Y-63741144D01*
X71555354Y-63780500D01*
X71555355Y-63780500D01*
X71744644Y-63780500D01*
X71744646Y-63780500D01*
X71929803Y-63741144D01*
X72102730Y-63664151D01*
X72255871Y-63552888D01*
X72382533Y-63412216D01*
X72477179Y-63248284D01*
X72535674Y-63068256D01*
X72555460Y-62880000D01*
X72535674Y-62691744D01*
X72477179Y-62511716D01*
X72382533Y-62347784D01*
X72255871Y-62207112D01*
X72255870Y-62207111D01*
X72102734Y-62095851D01*
X72102729Y-62095848D01*
X71929807Y-62018857D01*
X71929802Y-62018855D01*
X71766513Y-61984148D01*
X71744646Y-61979500D01*
X71555354Y-61979500D01*
X71533487Y-61984148D01*
X71370197Y-62018855D01*
X71370192Y-62018857D01*
X71197270Y-62095848D01*
X71197265Y-62095851D01*
X71044129Y-62207111D01*
X70917466Y-62347785D01*
X70822821Y-62511715D01*
X70822818Y-62511722D01*
X70774066Y-62661767D01*
X70764326Y-62691744D01*
X70744540Y-62880000D01*
X57458443Y-62880000D01*
X57605871Y-62772888D01*
X57732533Y-62632216D01*
X57827179Y-62468284D01*
X57885674Y-62288256D01*
X57905460Y-62100000D01*
X57885674Y-61911744D01*
X57831112Y-61743823D01*
X57827181Y-61731722D01*
X57827180Y-61731721D01*
X57827179Y-61731716D01*
X57732533Y-61567784D01*
X57605871Y-61427112D01*
X57596926Y-61420613D01*
X57452734Y-61315851D01*
X57452729Y-61315848D01*
X57279807Y-61238857D01*
X57279802Y-61238855D01*
X57129489Y-61206906D01*
X57094646Y-61199500D01*
X56905354Y-61199500D01*
X56872897Y-61206398D01*
X56720197Y-61238855D01*
X56720192Y-61238857D01*
X56547270Y-61315848D01*
X56547265Y-61315851D01*
X56394129Y-61427111D01*
X56267466Y-61567785D01*
X56172821Y-61731715D01*
X56172818Y-61731722D01*
X56114611Y-61910867D01*
X56114326Y-61911744D01*
X56094540Y-62100000D01*
X47169735Y-62100000D01*
X47275871Y-62022888D01*
X47402533Y-61882216D01*
X47497179Y-61718284D01*
X47555674Y-61538256D01*
X47575460Y-61350000D01*
X47555674Y-61161744D01*
X47497179Y-60981716D01*
X47402533Y-60817784D01*
X47275871Y-60677112D01*
X47275870Y-60677111D01*
X47122734Y-60565851D01*
X47122729Y-60565848D01*
X46949807Y-60488857D01*
X46949802Y-60488855D01*
X46796826Y-60456340D01*
X46764646Y-60449500D01*
X46575354Y-60449500D01*
X46543174Y-60456340D01*
X46390197Y-60488855D01*
X46390192Y-60488857D01*
X46217270Y-60565848D01*
X46217265Y-60565851D01*
X46064129Y-60677111D01*
X45937466Y-60817785D01*
X45842821Y-60981715D01*
X45842818Y-60981722D01*
X45802197Y-61106742D01*
X45784326Y-61161744D01*
X45764540Y-61350000D01*
X18000000Y-61350000D01*
X18000000Y-60440000D01*
X57634540Y-60440000D01*
X57654326Y-60628256D01*
X57654327Y-60628259D01*
X57712818Y-60808277D01*
X57712821Y-60808284D01*
X57807467Y-60972216D01*
X57925504Y-61103309D01*
X57934129Y-61112888D01*
X58087265Y-61224148D01*
X58087270Y-61224151D01*
X58260192Y-61301142D01*
X58260197Y-61301144D01*
X58445354Y-61340500D01*
X58445355Y-61340500D01*
X58634644Y-61340500D01*
X58634646Y-61340500D01*
X58819803Y-61301144D01*
X58992730Y-61224151D01*
X59025971Y-61200000D01*
X73394540Y-61200000D01*
X73414326Y-61388256D01*
X73414327Y-61388259D01*
X73472818Y-61568277D01*
X73472821Y-61568284D01*
X73567467Y-61732216D01*
X73611599Y-61781229D01*
X73694129Y-61872888D01*
X73847265Y-61984148D01*
X73847270Y-61984151D01*
X74020192Y-62061142D01*
X74020197Y-62061144D01*
X74205354Y-62100500D01*
X74205355Y-62100500D01*
X74394644Y-62100500D01*
X74394646Y-62100500D01*
X74579803Y-62061144D01*
X74659101Y-62025838D01*
X81284662Y-62025838D01*
X81303984Y-62271359D01*
X81361478Y-62510841D01*
X81455726Y-62738377D01*
X81584406Y-62948361D01*
X81584407Y-62948364D01*
X81628936Y-63000500D01*
X81744358Y-63135642D01*
X81874524Y-63246814D01*
X81931635Y-63295592D01*
X81931638Y-63295593D01*
X82121947Y-63412216D01*
X82141623Y-63424273D01*
X82156656Y-63430500D01*
X82180012Y-63440174D01*
X82182362Y-63441218D01*
X82182526Y-63441280D01*
X82184359Y-63441975D01*
X82369159Y-63518521D01*
X82411740Y-63528743D01*
X82419255Y-63531061D01*
X82454797Y-63544541D01*
X82484011Y-63546094D01*
X82608637Y-63576015D01*
X82656389Y-63579773D01*
X82663906Y-63580833D01*
X82665316Y-63581121D01*
X82665322Y-63581121D01*
X82670194Y-63582116D01*
X82670205Y-63582118D01*
X82701153Y-63588436D01*
X82729072Y-63585493D01*
X82854161Y-63595338D01*
X82906005Y-63591257D01*
X82913357Y-63591117D01*
X82917246Y-63591274D01*
X82917249Y-63591273D01*
X82919144Y-63591350D01*
X82919194Y-63591350D01*
X82951271Y-63592641D01*
X82977216Y-63585653D01*
X83099685Y-63576015D01*
X83154317Y-63562898D01*
X83161318Y-63561638D01*
X83198796Y-63557087D01*
X83222212Y-63546598D01*
X83339163Y-63518521D01*
X83395003Y-63495391D01*
X83401466Y-63493125D01*
X83409722Y-63490734D01*
X83409724Y-63490732D01*
X83411564Y-63490200D01*
X83411600Y-63490188D01*
X83437495Y-63482687D01*
X83457905Y-63469336D01*
X83566699Y-63424273D01*
X83621919Y-63390433D01*
X83627700Y-63387302D01*
X83637514Y-63382646D01*
X83637518Y-63382642D01*
X83638336Y-63382255D01*
X83638366Y-63382239D01*
X83661267Y-63371372D01*
X83678370Y-63355840D01*
X83776689Y-63295590D01*
X83829268Y-63250682D01*
X83834299Y-63246814D01*
X83845017Y-63239417D01*
X83845020Y-63239413D01*
X83845837Y-63238850D01*
X83845856Y-63238836D01*
X83864462Y-63225993D01*
X83878084Y-63208990D01*
X83963964Y-63135642D01*
X84011787Y-63079647D01*
X84015964Y-63075219D01*
X84026857Y-63064757D01*
X84026861Y-63064751D01*
X84027531Y-63064108D01*
X84027542Y-63064097D01*
X84041948Y-63050259D01*
X84052051Y-63032504D01*
X84123912Y-62948367D01*
X84164804Y-62881637D01*
X84168053Y-62876858D01*
X84178325Y-62863190D01*
X84178329Y-62863180D01*
X84179581Y-62861516D01*
X84179609Y-62861477D01*
X84183066Y-62856875D01*
X84183451Y-62856587D01*
X84184348Y-62855169D01*
X84189243Y-62848655D01*
X84195933Y-62830840D01*
X84252595Y-62738377D01*
X84284333Y-62661753D01*
X84286705Y-62656687D01*
X84295498Y-62639935D01*
X84295498Y-62639933D01*
X84296455Y-62638111D01*
X84297696Y-62636827D01*
X84300150Y-62631069D01*
X84302625Y-62626352D01*
X84306142Y-62609100D01*
X84346843Y-62510841D01*
X84367332Y-62425497D01*
X84368808Y-62420345D01*
X84374226Y-62404115D01*
X84375962Y-62401618D01*
X84378334Y-62391994D01*
X84378393Y-62381994D01*
X84378903Y-62378855D01*
X84379316Y-62376313D01*
X84380217Y-62371826D01*
X84404337Y-62271363D01*
X84411617Y-62178854D01*
X84412222Y-62173831D01*
X84415786Y-62151906D01*
X84415786Y-62151903D01*
X84416063Y-62150200D01*
X84416068Y-62150160D01*
X84417225Y-62143037D01*
X84416117Y-62135405D01*
X84416453Y-62118763D01*
X84416631Y-62115148D01*
X84417823Y-62100000D01*
X84423660Y-62025839D01*
X84416630Y-61936523D01*
X84416453Y-61932913D01*
X84416371Y-61928880D01*
X84416117Y-61916273D01*
X84417587Y-61910867D01*
X84416487Y-61904097D01*
X84416485Y-61904075D01*
X84415786Y-61899772D01*
X84412224Y-61877858D01*
X84411614Y-61872785D01*
X84410380Y-61857111D01*
X84404337Y-61780315D01*
X84380222Y-61679871D01*
X84379315Y-61675359D01*
X84378392Y-61669675D01*
X84379269Y-61662670D01*
X84378509Y-61660392D01*
X84376381Y-61651759D01*
X84374226Y-61647561D01*
X84368808Y-61631332D01*
X84367329Y-61626168D01*
X84353312Y-61567785D01*
X84346843Y-61540837D01*
X84306144Y-61442580D01*
X84304717Y-61429311D01*
X84300152Y-61420613D01*
X84298106Y-61415811D01*
X84296455Y-61413567D01*
X84286713Y-61395005D01*
X84284329Y-61389915D01*
X84267796Y-61350000D01*
X84252595Y-61313301D01*
X84195932Y-61220836D01*
X84192164Y-61206906D01*
X84184347Y-61196504D01*
X84183613Y-61195344D01*
X84183082Y-61194821D01*
X84179835Y-61190501D01*
X84179796Y-61190445D01*
X84176285Y-61185773D01*
X84168071Y-61174843D01*
X84164780Y-61170001D01*
X84129781Y-61112888D01*
X84123912Y-61103311D01*
X84052052Y-61019174D01*
X84045717Y-61005036D01*
X84015969Y-60976462D01*
X84011771Y-60972011D01*
X83963967Y-60916039D01*
X83963965Y-60916037D01*
X83963964Y-60916036D01*
X83878083Y-60842687D01*
X83869049Y-60828848D01*
X83834308Y-60804867D01*
X83829259Y-60800986D01*
X83776690Y-60756088D01*
X83776686Y-60756085D01*
X83678370Y-60695837D01*
X83666609Y-60682838D01*
X83632872Y-60666829D01*
X83631667Y-60666257D01*
X83627717Y-60664383D01*
X83621913Y-60661240D01*
X83566699Y-60627405D01*
X83566696Y-60627404D01*
X83566695Y-60627403D01*
X83457908Y-60582342D01*
X83443496Y-60570728D01*
X83411596Y-60561488D01*
X83411576Y-60561481D01*
X83401467Y-60558552D01*
X83394992Y-60556281D01*
X83339163Y-60533157D01*
X83222209Y-60505078D01*
X83205321Y-60495381D01*
X83161312Y-60490038D01*
X83154306Y-60488776D01*
X83099686Y-60475663D01*
X83099677Y-60475662D01*
X82977212Y-60466024D01*
X82958146Y-60458757D01*
X82919756Y-60460303D01*
X82919739Y-60460303D01*
X82913354Y-60460560D01*
X82905992Y-60460419D01*
X82871626Y-60457714D01*
X82854161Y-60456340D01*
X82854160Y-60456340D01*
X82729060Y-60466184D01*
X82708199Y-60461801D01*
X82663909Y-60470843D01*
X82656368Y-60471906D01*
X82608642Y-60475662D01*
X82608632Y-60475664D01*
X82483977Y-60505590D01*
X82461795Y-60504480D01*
X82419254Y-60520615D01*
X82411736Y-60522933D01*
X82369158Y-60533157D01*
X82369156Y-60533157D01*
X82184376Y-60609695D01*
X82182373Y-60610455D01*
X82180028Y-60611495D01*
X82141628Y-60627402D01*
X82141616Y-60627408D01*
X81931638Y-60756084D01*
X81931635Y-60756085D01*
X81744358Y-60916036D01*
X81584407Y-61103313D01*
X81584406Y-61103316D01*
X81455726Y-61313300D01*
X81361478Y-61540836D01*
X81303984Y-61780318D01*
X81284662Y-62025838D01*
X74659101Y-62025838D01*
X74752730Y-61984151D01*
X74905871Y-61872888D01*
X75032533Y-61732216D01*
X75127179Y-61568284D01*
X75185674Y-61388256D01*
X75205460Y-61200000D01*
X75185674Y-61011744D01*
X75127179Y-60831716D01*
X75032533Y-60667784D01*
X74905871Y-60527112D01*
X74896929Y-60520615D01*
X74752734Y-60415851D01*
X74752729Y-60415848D01*
X74579807Y-60338857D01*
X74579802Y-60338855D01*
X74434001Y-60307865D01*
X74394646Y-60299500D01*
X74205354Y-60299500D01*
X74172897Y-60306398D01*
X74020197Y-60338855D01*
X74020192Y-60338857D01*
X73847270Y-60415848D01*
X73847265Y-60415851D01*
X73694129Y-60527111D01*
X73567466Y-60667785D01*
X73472821Y-60831715D01*
X73472818Y-60831722D01*
X73414327Y-61011740D01*
X73414326Y-61011744D01*
X73394540Y-61200000D01*
X59025971Y-61200000D01*
X59145871Y-61112888D01*
X59272533Y-60972216D01*
X59367179Y-60808284D01*
X59425674Y-60628256D01*
X59445460Y-60440000D01*
X59425674Y-60251744D01*
X59367179Y-60071716D01*
X59272533Y-59907784D01*
X59145871Y-59767112D01*
X59145870Y-59767111D01*
X58992734Y-59655851D01*
X58992729Y-59655848D01*
X58819807Y-59578857D01*
X58819802Y-59578855D01*
X58674000Y-59547865D01*
X58634646Y-59539500D01*
X58445354Y-59539500D01*
X58412897Y-59546398D01*
X58260197Y-59578855D01*
X58260192Y-59578857D01*
X58087270Y-59655848D01*
X58087265Y-59655851D01*
X57934129Y-59767111D01*
X57807466Y-59907785D01*
X57712821Y-60071715D01*
X57712818Y-60071722D01*
X57654327Y-60251740D01*
X57654326Y-60251744D01*
X57634540Y-60440000D01*
X18000000Y-60440000D01*
X18000000Y-55190000D01*
X19164540Y-55190000D01*
X19184326Y-55378256D01*
X19184327Y-55378259D01*
X19242818Y-55558277D01*
X19242821Y-55558284D01*
X19337467Y-55722216D01*
X19451715Y-55849101D01*
X19464129Y-55862888D01*
X19617265Y-55974148D01*
X19617270Y-55974151D01*
X19790192Y-56051142D01*
X19790197Y-56051144D01*
X19975354Y-56090500D01*
X19975355Y-56090500D01*
X20164644Y-56090500D01*
X20164646Y-56090500D01*
X20349803Y-56051144D01*
X20522730Y-55974151D01*
X20675871Y-55862888D01*
X20802533Y-55722216D01*
X20897179Y-55558284D01*
X20955674Y-55378256D01*
X20975460Y-55190000D01*
X20955674Y-55001744D01*
X20897179Y-54821716D01*
X20802533Y-54657784D01*
X20675871Y-54517112D01*
X20663682Y-54508256D01*
X20522734Y-54405851D01*
X20522729Y-54405848D01*
X20349807Y-54328857D01*
X20349802Y-54328855D01*
X20204001Y-54297865D01*
X20164646Y-54289500D01*
X19975354Y-54289500D01*
X19942897Y-54296398D01*
X19790197Y-54328855D01*
X19790192Y-54328857D01*
X19617270Y-54405848D01*
X19617265Y-54405851D01*
X19464129Y-54517111D01*
X19337466Y-54657785D01*
X19242821Y-54821715D01*
X19242818Y-54821722D01*
X19184327Y-55001740D01*
X19184326Y-55001744D01*
X19164540Y-55190000D01*
X18000000Y-55190000D01*
X18000000Y-53990000D01*
X23154540Y-53990000D01*
X23174326Y-54178256D01*
X23174327Y-54178259D01*
X23232818Y-54358277D01*
X23232821Y-54358284D01*
X23327467Y-54522216D01*
X23400105Y-54602888D01*
X23454129Y-54662888D01*
X23607265Y-54774148D01*
X23607270Y-54774151D01*
X23780192Y-54851142D01*
X23780197Y-54851144D01*
X23965354Y-54890500D01*
X23965355Y-54890500D01*
X24154644Y-54890500D01*
X24154646Y-54890500D01*
X24339803Y-54851144D01*
X24512730Y-54774151D01*
X24665871Y-54662888D01*
X24731500Y-54590000D01*
X41684540Y-54590000D01*
X41704326Y-54778256D01*
X41704327Y-54778259D01*
X41762818Y-54958277D01*
X41762821Y-54958284D01*
X41857467Y-55122216D01*
X41877215Y-55144148D01*
X41932650Y-55205715D01*
X41962880Y-55268706D01*
X41964500Y-55288687D01*
X41964500Y-55422560D01*
X41962775Y-55438177D01*
X41963061Y-55438204D01*
X41962326Y-55445970D01*
X41964500Y-55515119D01*
X41964500Y-55544648D01*
X41964501Y-55544665D01*
X41965368Y-55551536D01*
X41965826Y-55557355D01*
X41967290Y-55603929D01*
X41967291Y-55603932D01*
X41972880Y-55623172D01*
X41976824Y-55642216D01*
X41979336Y-55662097D01*
X41996490Y-55705424D01*
X41998382Y-55710952D01*
X42011381Y-55755693D01*
X42021580Y-55772939D01*
X42030138Y-55790408D01*
X42037514Y-55809037D01*
X42064898Y-55846728D01*
X42068106Y-55851612D01*
X42091827Y-55891721D01*
X42091833Y-55891729D01*
X42105990Y-55905885D01*
X42118628Y-55920681D01*
X42130405Y-55936891D01*
X42130406Y-55936892D01*
X42166309Y-55966593D01*
X42170620Y-55970515D01*
X43538960Y-57338855D01*
X44878889Y-58678784D01*
X44888714Y-58691048D01*
X44888935Y-58690866D01*
X44893905Y-58696873D01*
X44893908Y-58696876D01*
X44893909Y-58696877D01*
X44944346Y-58744241D01*
X44965225Y-58765120D01*
X44970699Y-58769366D01*
X44975137Y-58773156D01*
X45009113Y-58805062D01*
X45009117Y-58805064D01*
X45026668Y-58814713D01*
X45042926Y-58825392D01*
X45058759Y-58837674D01*
X45080710Y-58847172D01*
X45101532Y-58856183D01*
X45106776Y-58858752D01*
X45147603Y-58881197D01*
X45167007Y-58886179D01*
X45185405Y-58892478D01*
X45203800Y-58900438D01*
X45249824Y-58907726D01*
X45255527Y-58908907D01*
X45300676Y-58920500D01*
X45320711Y-58920500D01*
X45340108Y-58922026D01*
X45359891Y-58925160D01*
X45406278Y-58920775D01*
X45412117Y-58920500D01*
X62422257Y-58920500D01*
X62437877Y-58922224D01*
X62437904Y-58921939D01*
X62445660Y-58922671D01*
X62445667Y-58922673D01*
X62514814Y-58920500D01*
X62544350Y-58920500D01*
X62551228Y-58919630D01*
X62557041Y-58919172D01*
X62603627Y-58917709D01*
X62622869Y-58912117D01*
X62641912Y-58908174D01*
X62661792Y-58905664D01*
X62705122Y-58888507D01*
X62710646Y-58886617D01*
X62714396Y-58885527D01*
X62755390Y-58873618D01*
X62772629Y-58863422D01*
X62790103Y-58854862D01*
X62808727Y-58847488D01*
X62808727Y-58847487D01*
X62808732Y-58847486D01*
X62846449Y-58820082D01*
X62851305Y-58816892D01*
X62891420Y-58793170D01*
X62905589Y-58778999D01*
X62920379Y-58766368D01*
X62936587Y-58754594D01*
X62937456Y-58753542D01*
X62938349Y-58752939D01*
X62942274Y-58749254D01*
X62942868Y-58749886D01*
X62995352Y-58714431D01*
X63065204Y-58712829D01*
X63124832Y-58749246D01*
X63125156Y-58749604D01*
X63164129Y-58792888D01*
X63317265Y-58904148D01*
X63317270Y-58904151D01*
X63490192Y-58981142D01*
X63490197Y-58981144D01*
X63675354Y-59020500D01*
X63675355Y-59020500D01*
X63864644Y-59020500D01*
X63864646Y-59020500D01*
X64049803Y-58981144D01*
X64222730Y-58904151D01*
X64375871Y-58792888D01*
X64502533Y-58652216D01*
X64597179Y-58488284D01*
X64655674Y-58308256D01*
X64667052Y-58200000D01*
X72094540Y-58200000D01*
X72114326Y-58388256D01*
X72114327Y-58388259D01*
X72172818Y-58568277D01*
X72172821Y-58568284D01*
X72267467Y-58732216D01*
X72345047Y-58818377D01*
X72394129Y-58872888D01*
X72547265Y-58984148D01*
X72547270Y-58984151D01*
X72720192Y-59061142D01*
X72720197Y-59061144D01*
X72905354Y-59100500D01*
X72905355Y-59100500D01*
X73094644Y-59100500D01*
X73094646Y-59100500D01*
X73279803Y-59061144D01*
X73452730Y-58984151D01*
X73596082Y-58880000D01*
X74674540Y-58880000D01*
X74694326Y-59068256D01*
X74694327Y-59068259D01*
X74752818Y-59248277D01*
X74752821Y-59248284D01*
X74847467Y-59412216D01*
X74962074Y-59539500D01*
X74974129Y-59552888D01*
X75127265Y-59664148D01*
X75127270Y-59664151D01*
X75300192Y-59741142D01*
X75300197Y-59741144D01*
X75485354Y-59780500D01*
X75485355Y-59780500D01*
X75674644Y-59780500D01*
X75674646Y-59780500D01*
X75859803Y-59741144D01*
X76032730Y-59664151D01*
X76185871Y-59552888D01*
X76312533Y-59412216D01*
X76407179Y-59248284D01*
X76465674Y-59068256D01*
X76485460Y-58880000D01*
X76465674Y-58691744D01*
X76407179Y-58511716D01*
X76371547Y-58450000D01*
X77294540Y-58450000D01*
X77314326Y-58638256D01*
X77314327Y-58638259D01*
X77372818Y-58818277D01*
X77372821Y-58818284D01*
X77467467Y-58982216D01*
X77544938Y-59068256D01*
X77594129Y-59122888D01*
X77747265Y-59234148D01*
X77747270Y-59234151D01*
X77920192Y-59311142D01*
X77920197Y-59311144D01*
X78105354Y-59350500D01*
X78105355Y-59350500D01*
X78294644Y-59350500D01*
X78294646Y-59350500D01*
X78479803Y-59311144D01*
X78652730Y-59234151D01*
X78805871Y-59122888D01*
X78932533Y-58982216D01*
X79027179Y-58818284D01*
X79085674Y-58638256D01*
X79105460Y-58450000D01*
X79085674Y-58261744D01*
X79027179Y-58081716D01*
X78932533Y-57917784D01*
X78805871Y-57777112D01*
X78805870Y-57777111D01*
X78652734Y-57665851D01*
X78652729Y-57665848D01*
X78479807Y-57588857D01*
X78479802Y-57588855D01*
X78334000Y-57557865D01*
X78294646Y-57549500D01*
X78105354Y-57549500D01*
X78072897Y-57556398D01*
X77920197Y-57588855D01*
X77920192Y-57588857D01*
X77747270Y-57665848D01*
X77747265Y-57665851D01*
X77594129Y-57777111D01*
X77467466Y-57917785D01*
X77372821Y-58081715D01*
X77372818Y-58081722D01*
X77332077Y-58207111D01*
X77314326Y-58261744D01*
X77294540Y-58450000D01*
X76371547Y-58450000D01*
X76312533Y-58347784D01*
X76185871Y-58207112D01*
X76185870Y-58207111D01*
X76032734Y-58095851D01*
X76032729Y-58095848D01*
X75859807Y-58018857D01*
X75859802Y-58018855D01*
X75714000Y-57987865D01*
X75674646Y-57979500D01*
X75485354Y-57979500D01*
X75452897Y-57986398D01*
X75300197Y-58018855D01*
X75300192Y-58018857D01*
X75127270Y-58095848D01*
X75127265Y-58095851D01*
X74974129Y-58207111D01*
X74847466Y-58347785D01*
X74752821Y-58511715D01*
X74752818Y-58511722D01*
X74698537Y-58678784D01*
X74694326Y-58691744D01*
X74674540Y-58880000D01*
X73596082Y-58880000D01*
X73605871Y-58872888D01*
X73732533Y-58732216D01*
X73827179Y-58568284D01*
X73885674Y-58388256D01*
X73905460Y-58200000D01*
X73885674Y-58011744D01*
X73827179Y-57831716D01*
X73732533Y-57667784D01*
X73605871Y-57527112D01*
X73605870Y-57527111D01*
X73452734Y-57415851D01*
X73452729Y-57415848D01*
X73279807Y-57338857D01*
X73279802Y-57338855D01*
X73134001Y-57307865D01*
X73094646Y-57299500D01*
X72905354Y-57299500D01*
X72872897Y-57306398D01*
X72720197Y-57338855D01*
X72720192Y-57338857D01*
X72547270Y-57415848D01*
X72547265Y-57415851D01*
X72394129Y-57527111D01*
X72267466Y-57667785D01*
X72172821Y-57831715D01*
X72172818Y-57831722D01*
X72114327Y-58011740D01*
X72114326Y-58011744D01*
X72094540Y-58200000D01*
X64667052Y-58200000D01*
X64675460Y-58120000D01*
X64664448Y-58015233D01*
X64677017Y-57946508D01*
X64724749Y-57895484D01*
X64792489Y-57878366D01*
X64813542Y-57880985D01*
X64905354Y-57900500D01*
X64905355Y-57900500D01*
X65094644Y-57900500D01*
X65094646Y-57900500D01*
X65279803Y-57861144D01*
X65452730Y-57784151D01*
X65605871Y-57672888D01*
X65732533Y-57532216D01*
X65827179Y-57368284D01*
X65885674Y-57188256D01*
X65904194Y-57012036D01*
X65930778Y-56947424D01*
X65988076Y-56907439D01*
X66027515Y-56901000D01*
X67596252Y-56901000D01*
X67663291Y-56920685D01*
X67688400Y-56942026D01*
X67694126Y-56948385D01*
X67694130Y-56948389D01*
X67847265Y-57059648D01*
X67847270Y-57059651D01*
X68020192Y-57136642D01*
X68020197Y-57136644D01*
X68205354Y-57176000D01*
X68205355Y-57176000D01*
X68394644Y-57176000D01*
X68394646Y-57176000D01*
X68579803Y-57136644D01*
X68752730Y-57059651D01*
X68905871Y-56948388D01*
X69032533Y-56807716D01*
X69127179Y-56643784D01*
X69185674Y-56463756D01*
X69205460Y-56275500D01*
X69185674Y-56087244D01*
X69127179Y-55907216D01*
X69047957Y-55770000D01*
X69944540Y-55770000D01*
X69964326Y-55958256D01*
X69964327Y-55958259D01*
X70022818Y-56138277D01*
X70022821Y-56138284D01*
X70117467Y-56302216D01*
X70203942Y-56398256D01*
X70244129Y-56442888D01*
X70397265Y-56554148D01*
X70397270Y-56554151D01*
X70570192Y-56631142D01*
X70570197Y-56631144D01*
X70755354Y-56670500D01*
X70755355Y-56670500D01*
X70944644Y-56670500D01*
X70944646Y-56670500D01*
X71129803Y-56631144D01*
X71302730Y-56554151D01*
X71322460Y-56539816D01*
X71388267Y-56516335D01*
X71456321Y-56532160D01*
X71502734Y-56578133D01*
X71502820Y-56578283D01*
X71502821Y-56578284D01*
X71597467Y-56742216D01*
X71724128Y-56882888D01*
X71724129Y-56882888D01*
X71877265Y-56994148D01*
X71877270Y-56994151D01*
X72050192Y-57071142D01*
X72050197Y-57071144D01*
X72235354Y-57110500D01*
X72235355Y-57110500D01*
X72424644Y-57110500D01*
X72424646Y-57110500D01*
X72609803Y-57071144D01*
X72782730Y-56994151D01*
X72935871Y-56882888D01*
X73062533Y-56742216D01*
X73157179Y-56578284D01*
X73215674Y-56398256D01*
X73235460Y-56210000D01*
X73215674Y-56021744D01*
X73157179Y-55841716D01*
X73062533Y-55677784D01*
X72935871Y-55537112D01*
X72934919Y-55536420D01*
X72782734Y-55425851D01*
X72782729Y-55425848D01*
X72609807Y-55348857D01*
X72609802Y-55348855D01*
X72454511Y-55315848D01*
X72424646Y-55309500D01*
X72235354Y-55309500D01*
X72205489Y-55315848D01*
X72050197Y-55348855D01*
X72050192Y-55348857D01*
X71877270Y-55425848D01*
X71877269Y-55425849D01*
X71857534Y-55440187D01*
X71791727Y-55463664D01*
X71723673Y-55447836D01*
X71677265Y-55401865D01*
X71582536Y-55237788D01*
X71582534Y-55237785D01*
X71498225Y-55144151D01*
X71455871Y-55097112D01*
X71455870Y-55097111D01*
X71302734Y-54985851D01*
X71302729Y-54985848D01*
X71129807Y-54908857D01*
X71129802Y-54908855D01*
X70984000Y-54877865D01*
X70944646Y-54869500D01*
X70755354Y-54869500D01*
X70722897Y-54876398D01*
X70570197Y-54908855D01*
X70570192Y-54908857D01*
X70397270Y-54985848D01*
X70397265Y-54985851D01*
X70244129Y-55097111D01*
X70117466Y-55237785D01*
X70022821Y-55401715D01*
X70022818Y-55401722D01*
X69964327Y-55581740D01*
X69964326Y-55581744D01*
X69944540Y-55770000D01*
X69047957Y-55770000D01*
X69032533Y-55743284D01*
X68905871Y-55602612D01*
X68905870Y-55602611D01*
X68752734Y-55491351D01*
X68752729Y-55491348D01*
X68579807Y-55414357D01*
X68579802Y-55414355D01*
X68434001Y-55383365D01*
X68394646Y-55375000D01*
X68205354Y-55375000D01*
X68172897Y-55381898D01*
X68020197Y-55414355D01*
X68020192Y-55414357D01*
X67847270Y-55491348D01*
X67847265Y-55491351D01*
X67694130Y-55602610D01*
X67694126Y-55602614D01*
X67688400Y-55608974D01*
X67628913Y-55645621D01*
X67596252Y-55650000D01*
X64607237Y-55650000D01*
X64591620Y-55648276D01*
X64591593Y-55648562D01*
X64583831Y-55647827D01*
X64514703Y-55650000D01*
X64485150Y-55650000D01*
X64484429Y-55650090D01*
X64478257Y-55650869D01*
X64472445Y-55651326D01*
X64425878Y-55652790D01*
X64425867Y-55652792D01*
X64406634Y-55658379D01*
X64387594Y-55662322D01*
X64367717Y-55664834D01*
X64367710Y-55664835D01*
X64367708Y-55664836D01*
X64367706Y-55664836D01*
X64367705Y-55664837D01*
X64324368Y-55681994D01*
X64318842Y-55683886D01*
X64274111Y-55696882D01*
X64274108Y-55696883D01*
X64256863Y-55707081D01*
X64239401Y-55715635D01*
X64220772Y-55723011D01*
X64220767Y-55723013D01*
X64183064Y-55750406D01*
X64178182Y-55753612D01*
X64138080Y-55777328D01*
X64123908Y-55791500D01*
X64109123Y-55804128D01*
X64092912Y-55815907D01*
X64063209Y-55851810D01*
X64059277Y-55856131D01*
X62282228Y-57633181D01*
X62220905Y-57666666D01*
X62194547Y-57669500D01*
X50073365Y-57669500D01*
X50006326Y-57649815D01*
X49960571Y-57597011D01*
X49950627Y-57527853D01*
X49979652Y-57464297D01*
X49981144Y-57462606D01*
X50062533Y-57372216D01*
X50157179Y-57208284D01*
X50215674Y-57028256D01*
X50235460Y-56840000D01*
X50215674Y-56651744D01*
X50157179Y-56471716D01*
X50062533Y-56307784D01*
X49935871Y-56167112D01*
X49896183Y-56138277D01*
X49782734Y-56055851D01*
X49782729Y-56055848D01*
X49609807Y-55978857D01*
X49609802Y-55978855D01*
X49464000Y-55947865D01*
X49424646Y-55939500D01*
X49235354Y-55939500D01*
X49202897Y-55946398D01*
X49050197Y-55978855D01*
X49050192Y-55978857D01*
X48877270Y-56055848D01*
X48877265Y-56055851D01*
X48724129Y-56167111D01*
X48597466Y-56307785D01*
X48502821Y-56471715D01*
X48502818Y-56471722D01*
X48446912Y-56643784D01*
X48444326Y-56651744D01*
X48424540Y-56840000D01*
X48444326Y-57028256D01*
X48444327Y-57028259D01*
X48502818Y-57208277D01*
X48502821Y-57208284D01*
X48597464Y-57372212D01*
X48597465Y-57372214D01*
X48597467Y-57372216D01*
X48678786Y-57462530D01*
X48709015Y-57525519D01*
X48700390Y-57594854D01*
X48655649Y-57648520D01*
X48588996Y-57669478D01*
X48586635Y-57669500D01*
X45690148Y-57669500D01*
X45623109Y-57649815D01*
X45602467Y-57633181D01*
X44864160Y-56894874D01*
X44830675Y-56833551D01*
X44835659Y-56763859D01*
X44859691Y-56724221D01*
X44942533Y-56632216D01*
X45037179Y-56468284D01*
X45095674Y-56288256D01*
X45115460Y-56100000D01*
X45095674Y-55911744D01*
X45037179Y-55731716D01*
X44942533Y-55567784D01*
X44815871Y-55427112D01*
X44815870Y-55427111D01*
X44662734Y-55315851D01*
X44662729Y-55315848D01*
X44489807Y-55238857D01*
X44489802Y-55238855D01*
X44344000Y-55207865D01*
X44304646Y-55199500D01*
X44115354Y-55199500D01*
X44082897Y-55206398D01*
X43930197Y-55238855D01*
X43930192Y-55238857D01*
X43757270Y-55315848D01*
X43757265Y-55315851D01*
X43604131Y-55427110D01*
X43604128Y-55427112D01*
X43593140Y-55439316D01*
X43533653Y-55475964D01*
X43463796Y-55474633D01*
X43413310Y-55444024D01*
X43296277Y-55326991D01*
X43262792Y-55265668D01*
X43267776Y-55195976D01*
X43291808Y-55156339D01*
X43322533Y-55122216D01*
X43417179Y-54958284D01*
X43475674Y-54778256D01*
X43495460Y-54590000D01*
X43475674Y-54401744D01*
X43417179Y-54221716D01*
X43322533Y-54057784D01*
X43207475Y-53930000D01*
X44774540Y-53930000D01*
X44794326Y-54118256D01*
X44794327Y-54118259D01*
X44852818Y-54298277D01*
X44852821Y-54298284D01*
X44947467Y-54462216D01*
X45024938Y-54548256D01*
X45074129Y-54602888D01*
X45227265Y-54714148D01*
X45227270Y-54714151D01*
X45400192Y-54791142D01*
X45400197Y-54791144D01*
X45585354Y-54830500D01*
X45585355Y-54830500D01*
X45774644Y-54830500D01*
X45774646Y-54830500D01*
X45959803Y-54791144D01*
X46132730Y-54714151D01*
X46285871Y-54602888D01*
X46412533Y-54462216D01*
X46494641Y-54320000D01*
X47104540Y-54320000D01*
X47124326Y-54508256D01*
X47124327Y-54508259D01*
X47182818Y-54688277D01*
X47182821Y-54688284D01*
X47277467Y-54852216D01*
X47397790Y-54985848D01*
X47404129Y-54992888D01*
X47557265Y-55104148D01*
X47557270Y-55104151D01*
X47730192Y-55181142D01*
X47730197Y-55181144D01*
X47915354Y-55220500D01*
X47915355Y-55220500D01*
X48104644Y-55220500D01*
X48104646Y-55220500D01*
X48289803Y-55181144D01*
X48462730Y-55104151D01*
X48615871Y-54992888D01*
X48742533Y-54852216D01*
X48837179Y-54688284D01*
X48895674Y-54508256D01*
X48911256Y-54360000D01*
X49674540Y-54360000D01*
X49694326Y-54548256D01*
X49694327Y-54548259D01*
X49752818Y-54728277D01*
X49752821Y-54728284D01*
X49847467Y-54892216D01*
X49862450Y-54908856D01*
X49974129Y-55032888D01*
X50127265Y-55144148D01*
X50127270Y-55144151D01*
X50300192Y-55221142D01*
X50300197Y-55221144D01*
X50485354Y-55260500D01*
X50485355Y-55260500D01*
X50674644Y-55260500D01*
X50674646Y-55260500D01*
X50859803Y-55221144D01*
X51032730Y-55144151D01*
X51185871Y-55032888D01*
X51312533Y-54892216D01*
X51407179Y-54728284D01*
X51465674Y-54548256D01*
X51485460Y-54360000D01*
X51465674Y-54171744D01*
X51407179Y-53991716D01*
X51360000Y-53910000D01*
X74874540Y-53910000D01*
X74894326Y-54098256D01*
X74894327Y-54098259D01*
X74952818Y-54278277D01*
X74952821Y-54278284D01*
X75047467Y-54442216D01*
X75106930Y-54508256D01*
X75174129Y-54582888D01*
X75327265Y-54694148D01*
X75327270Y-54694151D01*
X75500192Y-54771142D01*
X75500197Y-54771144D01*
X75685354Y-54810500D01*
X75685355Y-54810500D01*
X75874644Y-54810500D01*
X75874646Y-54810500D01*
X76059803Y-54771144D01*
X76232730Y-54694151D01*
X76385871Y-54582888D01*
X76512533Y-54442216D01*
X76607179Y-54278284D01*
X76665674Y-54098256D01*
X76685460Y-53910000D01*
X76665674Y-53721744D01*
X76607179Y-53541716D01*
X76512533Y-53377784D01*
X76385871Y-53237112D01*
X76385870Y-53237111D01*
X76232734Y-53125851D01*
X76232729Y-53125848D01*
X76059807Y-53048857D01*
X76059802Y-53048855D01*
X75914001Y-53017865D01*
X75874646Y-53009500D01*
X75685354Y-53009500D01*
X75652897Y-53016398D01*
X75500197Y-53048855D01*
X75500192Y-53048857D01*
X75327270Y-53125848D01*
X75327265Y-53125851D01*
X75174129Y-53237111D01*
X75047466Y-53377785D01*
X74952821Y-53541715D01*
X74952818Y-53541722D01*
X74897770Y-53711144D01*
X74894326Y-53721744D01*
X74874540Y-53910000D01*
X51360000Y-53910000D01*
X51312533Y-53827784D01*
X51185871Y-53687112D01*
X51185870Y-53687111D01*
X51032734Y-53575851D01*
X51032729Y-53575848D01*
X50859807Y-53498857D01*
X50859802Y-53498855D01*
X50714000Y-53467865D01*
X50674646Y-53459500D01*
X50485354Y-53459500D01*
X50452897Y-53466398D01*
X50300197Y-53498855D01*
X50300192Y-53498857D01*
X50127270Y-53575848D01*
X50127265Y-53575851D01*
X49974129Y-53687111D01*
X49847466Y-53827785D01*
X49752821Y-53991715D01*
X49752818Y-53991722D01*
X49694327Y-54171740D01*
X49694326Y-54171744D01*
X49674540Y-54360000D01*
X48911256Y-54360000D01*
X48915460Y-54320000D01*
X48895674Y-54131744D01*
X48837179Y-53951716D01*
X48742533Y-53787784D01*
X48615871Y-53647112D01*
X48580925Y-53621722D01*
X48462734Y-53535851D01*
X48462729Y-53535848D01*
X48289807Y-53458857D01*
X48289802Y-53458855D01*
X48144001Y-53427865D01*
X48104646Y-53419500D01*
X47915354Y-53419500D01*
X47882897Y-53426398D01*
X47730197Y-53458855D01*
X47730192Y-53458857D01*
X47557270Y-53535848D01*
X47557265Y-53535851D01*
X47404129Y-53647111D01*
X47277466Y-53787785D01*
X47182821Y-53951715D01*
X47182818Y-53951722D01*
X47124327Y-54131740D01*
X47124326Y-54131744D01*
X47104540Y-54320000D01*
X46494641Y-54320000D01*
X46507179Y-54298284D01*
X46565674Y-54118256D01*
X46585460Y-53930000D01*
X46565674Y-53741744D01*
X46507179Y-53561716D01*
X46412533Y-53397784D01*
X46285871Y-53257112D01*
X46285870Y-53257111D01*
X46132734Y-53145851D01*
X46132729Y-53145848D01*
X45959807Y-53068857D01*
X45959802Y-53068855D01*
X45814001Y-53037865D01*
X45774646Y-53029500D01*
X45585354Y-53029500D01*
X45552897Y-53036398D01*
X45400197Y-53068855D01*
X45400192Y-53068857D01*
X45227270Y-53145848D01*
X45227265Y-53145851D01*
X45074129Y-53257111D01*
X44947466Y-53397785D01*
X44852821Y-53561715D01*
X44852818Y-53561722D01*
X44798513Y-53728857D01*
X44794326Y-53741744D01*
X44774540Y-53930000D01*
X43207475Y-53930000D01*
X43195871Y-53917112D01*
X43195870Y-53917111D01*
X43042734Y-53805851D01*
X43042729Y-53805848D01*
X42869807Y-53728857D01*
X42869802Y-53728855D01*
X42724000Y-53697865D01*
X42684646Y-53689500D01*
X42495354Y-53689500D01*
X42462897Y-53696398D01*
X42310197Y-53728855D01*
X42310192Y-53728857D01*
X42137270Y-53805848D01*
X42137265Y-53805851D01*
X41984129Y-53917111D01*
X41857466Y-54057785D01*
X41762821Y-54221715D01*
X41762818Y-54221722D01*
X41704327Y-54401740D01*
X41704326Y-54401744D01*
X41684540Y-54590000D01*
X24731500Y-54590000D01*
X24792533Y-54522216D01*
X24887179Y-54358284D01*
X24945674Y-54178256D01*
X24965460Y-53990000D01*
X24945674Y-53801744D01*
X24887179Y-53621716D01*
X24792533Y-53457784D01*
X24665871Y-53317112D01*
X24665870Y-53317111D01*
X24512734Y-53205851D01*
X24512729Y-53205848D01*
X24339807Y-53128857D01*
X24339802Y-53128855D01*
X24194000Y-53097865D01*
X24154646Y-53089500D01*
X23965354Y-53089500D01*
X23932897Y-53096398D01*
X23780197Y-53128855D01*
X23780192Y-53128857D01*
X23607270Y-53205848D01*
X23607265Y-53205851D01*
X23454129Y-53317111D01*
X23327466Y-53457785D01*
X23232821Y-53621715D01*
X23232818Y-53621722D01*
X23174327Y-53801740D01*
X23174326Y-53801744D01*
X23154540Y-53990000D01*
X18000000Y-53990000D01*
X18000000Y-52570000D01*
X53414540Y-52570000D01*
X53434326Y-52758256D01*
X53434327Y-52758259D01*
X53492818Y-52938277D01*
X53492821Y-52938284D01*
X53587467Y-53102216D01*
X53708927Y-53237111D01*
X53714129Y-53242888D01*
X53867265Y-53354148D01*
X53867270Y-53354151D01*
X54040192Y-53431142D01*
X54040197Y-53431144D01*
X54225354Y-53470500D01*
X54225355Y-53470500D01*
X54414644Y-53470500D01*
X54414646Y-53470500D01*
X54599803Y-53431144D01*
X54772730Y-53354151D01*
X54925871Y-53242888D01*
X55052533Y-53102216D01*
X55147179Y-52938284D01*
X55175864Y-52850000D01*
X59074540Y-52850000D01*
X59094326Y-53038256D01*
X59094327Y-53038259D01*
X59152818Y-53218277D01*
X59152821Y-53218284D01*
X59247467Y-53382216D01*
X59352491Y-53498857D01*
X59374129Y-53522888D01*
X59527265Y-53634148D01*
X59527270Y-53634151D01*
X59700192Y-53711142D01*
X59700197Y-53711144D01*
X59885354Y-53750500D01*
X59885355Y-53750500D01*
X60074644Y-53750500D01*
X60074646Y-53750500D01*
X60259803Y-53711144D01*
X60432730Y-53634151D01*
X60585871Y-53522888D01*
X60712533Y-53382216D01*
X60807179Y-53218284D01*
X60865674Y-53038256D01*
X60869695Y-53000000D01*
X63254540Y-53000000D01*
X63274326Y-53188256D01*
X63274327Y-53188259D01*
X63332818Y-53368277D01*
X63332821Y-53368284D01*
X63427467Y-53532216D01*
X63508059Y-53621722D01*
X63554129Y-53672888D01*
X63707265Y-53784148D01*
X63707270Y-53784151D01*
X63880192Y-53861142D01*
X63880197Y-53861144D01*
X64065354Y-53900500D01*
X64065355Y-53900500D01*
X64254644Y-53900500D01*
X64254646Y-53900500D01*
X64439803Y-53861144D01*
X64612730Y-53784151D01*
X64765871Y-53672888D01*
X64892533Y-53532216D01*
X64987179Y-53368284D01*
X65045674Y-53188256D01*
X65065460Y-53000000D01*
X65045674Y-52811744D01*
X64987179Y-52631716D01*
X64892533Y-52467784D01*
X64765871Y-52327112D01*
X64765870Y-52327111D01*
X64612734Y-52215851D01*
X64612729Y-52215848D01*
X64439807Y-52138857D01*
X64439802Y-52138855D01*
X64294000Y-52107865D01*
X64254646Y-52099500D01*
X64065354Y-52099500D01*
X64032897Y-52106398D01*
X63880197Y-52138855D01*
X63880192Y-52138857D01*
X63707270Y-52215848D01*
X63707265Y-52215851D01*
X63554129Y-52327111D01*
X63427466Y-52467785D01*
X63332821Y-52631715D01*
X63332818Y-52631722D01*
X63291705Y-52758256D01*
X63274326Y-52811744D01*
X63254540Y-53000000D01*
X60869695Y-53000000D01*
X60885460Y-52850000D01*
X60865674Y-52661744D01*
X60807179Y-52481716D01*
X60712533Y-52317784D01*
X60585871Y-52177112D01*
X60585870Y-52177111D01*
X60432734Y-52065851D01*
X60432729Y-52065848D01*
X60259807Y-51988857D01*
X60259802Y-51988855D01*
X60114000Y-51957865D01*
X60074646Y-51949500D01*
X59885354Y-51949500D01*
X59852897Y-51956398D01*
X59700197Y-51988855D01*
X59700192Y-51988857D01*
X59527270Y-52065848D01*
X59527265Y-52065851D01*
X59374129Y-52177111D01*
X59247466Y-52317785D01*
X59152821Y-52481715D01*
X59152818Y-52481722D01*
X59094327Y-52661740D01*
X59094326Y-52661744D01*
X59074540Y-52850000D01*
X55175864Y-52850000D01*
X55205674Y-52758256D01*
X55225460Y-52570000D01*
X55205674Y-52381744D01*
X55147179Y-52201716D01*
X55052533Y-52037784D01*
X54925871Y-51897112D01*
X54925870Y-51897111D01*
X54772734Y-51785851D01*
X54772729Y-51785848D01*
X54599807Y-51708857D01*
X54599802Y-51708855D01*
X54454001Y-51677865D01*
X54414646Y-51669500D01*
X54225354Y-51669500D01*
X54192897Y-51676398D01*
X54040197Y-51708855D01*
X54040192Y-51708857D01*
X53867270Y-51785848D01*
X53867265Y-51785851D01*
X53714129Y-51897111D01*
X53587466Y-52037785D01*
X53492821Y-52201715D01*
X53492818Y-52201722D01*
X53452077Y-52327111D01*
X53434326Y-52381744D01*
X53414540Y-52570000D01*
X18000000Y-52570000D01*
X18000000Y-51160000D01*
X19194540Y-51160000D01*
X19214326Y-51348256D01*
X19214327Y-51348259D01*
X19272818Y-51528277D01*
X19272821Y-51528284D01*
X19367467Y-51692216D01*
X19382450Y-51708856D01*
X19494129Y-51832888D01*
X19647265Y-51944148D01*
X19647270Y-51944151D01*
X19820192Y-52021142D01*
X19820197Y-52021144D01*
X20005354Y-52060500D01*
X20005355Y-52060500D01*
X20194644Y-52060500D01*
X20194646Y-52060500D01*
X20379803Y-52021144D01*
X20552730Y-51944151D01*
X20705871Y-51832888D01*
X20832533Y-51692216D01*
X20927179Y-51528284D01*
X20936369Y-51500000D01*
X34794540Y-51500000D01*
X34814326Y-51688256D01*
X34814327Y-51688259D01*
X34872818Y-51868277D01*
X34872821Y-51868284D01*
X34967467Y-52032216D01*
X35063487Y-52138857D01*
X35094129Y-52172888D01*
X35247265Y-52284148D01*
X35247270Y-52284151D01*
X35420192Y-52361142D01*
X35420197Y-52361144D01*
X35605354Y-52400500D01*
X35605355Y-52400500D01*
X35794644Y-52400500D01*
X35794646Y-52400500D01*
X35979803Y-52361144D01*
X36152730Y-52284151D01*
X36305871Y-52172888D01*
X36432533Y-52032216D01*
X36527179Y-51868284D01*
X36585674Y-51688256D01*
X36605460Y-51500000D01*
X36585674Y-51311744D01*
X36527179Y-51131716D01*
X36456906Y-51010000D01*
X41394540Y-51010000D01*
X41414326Y-51198256D01*
X41414327Y-51198259D01*
X41472818Y-51378277D01*
X41472821Y-51378284D01*
X41567467Y-51542216D01*
X41682074Y-51669500D01*
X41694129Y-51682888D01*
X41847265Y-51794148D01*
X41847270Y-51794151D01*
X42020192Y-51871142D01*
X42020197Y-51871144D01*
X42205354Y-51910500D01*
X42205355Y-51910500D01*
X42394644Y-51910500D01*
X42394646Y-51910500D01*
X42579803Y-51871144D01*
X42752730Y-51794151D01*
X42905871Y-51682888D01*
X43032533Y-51542216D01*
X43127179Y-51378284D01*
X43185674Y-51198256D01*
X43205460Y-51010000D01*
X43185674Y-50821744D01*
X43127179Y-50641716D01*
X43032533Y-50477784D01*
X42905871Y-50337112D01*
X42905870Y-50337111D01*
X42752734Y-50225851D01*
X42752729Y-50225848D01*
X42579807Y-50148857D01*
X42579802Y-50148855D01*
X42434000Y-50117865D01*
X42394646Y-50109500D01*
X42205354Y-50109500D01*
X42172897Y-50116398D01*
X42020197Y-50148855D01*
X42020192Y-50148857D01*
X41847270Y-50225848D01*
X41847265Y-50225851D01*
X41694129Y-50337111D01*
X41567466Y-50477785D01*
X41472821Y-50641715D01*
X41472818Y-50641722D01*
X41414327Y-50821740D01*
X41414326Y-50821744D01*
X41394540Y-51010000D01*
X36456906Y-51010000D01*
X36432533Y-50967784D01*
X36305871Y-50827112D01*
X36257161Y-50791722D01*
X36152734Y-50715851D01*
X36152729Y-50715848D01*
X35979807Y-50638857D01*
X35979802Y-50638855D01*
X35834000Y-50607865D01*
X35794646Y-50599500D01*
X35605354Y-50599500D01*
X35572897Y-50606398D01*
X35420197Y-50638855D01*
X35420192Y-50638857D01*
X35247270Y-50715848D01*
X35247265Y-50715851D01*
X35094129Y-50827111D01*
X34967466Y-50967785D01*
X34872821Y-51131715D01*
X34872818Y-51131722D01*
X34814327Y-51311740D01*
X34814326Y-51311744D01*
X34794540Y-51500000D01*
X20936369Y-51500000D01*
X20985674Y-51348256D01*
X21005460Y-51160000D01*
X20985674Y-50971744D01*
X20927179Y-50791716D01*
X20832533Y-50627784D01*
X20705871Y-50487112D01*
X20701796Y-50484151D01*
X20552734Y-50375851D01*
X20552729Y-50375848D01*
X20379807Y-50298857D01*
X20379802Y-50298855D01*
X20234000Y-50267865D01*
X20194646Y-50259500D01*
X20005354Y-50259500D01*
X19972897Y-50266398D01*
X19820197Y-50298855D01*
X19820192Y-50298857D01*
X19647270Y-50375848D01*
X19647265Y-50375851D01*
X19494129Y-50487111D01*
X19367466Y-50627785D01*
X19272821Y-50791715D01*
X19272818Y-50791722D01*
X19215612Y-50967785D01*
X19214326Y-50971744D01*
X19194540Y-51160000D01*
X18000000Y-51160000D01*
X18000000Y-49700000D01*
X44194540Y-49700000D01*
X44214326Y-49888256D01*
X44214327Y-49888259D01*
X44272818Y-50068277D01*
X44272821Y-50068284D01*
X44367467Y-50232216D01*
X44427471Y-50298857D01*
X44494129Y-50372888D01*
X44647265Y-50484148D01*
X44647270Y-50484151D01*
X44820192Y-50561142D01*
X44820197Y-50561144D01*
X45005354Y-50600500D01*
X45005355Y-50600500D01*
X45194644Y-50600500D01*
X45194646Y-50600500D01*
X45379803Y-50561144D01*
X45552730Y-50484151D01*
X45682318Y-50390000D01*
X70644540Y-50390000D01*
X70664326Y-50578256D01*
X70664327Y-50578259D01*
X70722818Y-50758277D01*
X70722821Y-50758284D01*
X70817467Y-50922216D01*
X70944128Y-51062888D01*
X70944129Y-51062888D01*
X71097265Y-51174148D01*
X71097270Y-51174151D01*
X71270192Y-51251142D01*
X71270197Y-51251144D01*
X71455354Y-51290500D01*
X71455355Y-51290500D01*
X71644644Y-51290500D01*
X71644646Y-51290500D01*
X71829803Y-51251144D01*
X72002730Y-51174151D01*
X72155871Y-51062888D01*
X72282533Y-50922216D01*
X72377179Y-50758284D01*
X72435674Y-50578256D01*
X72455460Y-50390000D01*
X72435674Y-50201744D01*
X72377179Y-50021716D01*
X72282533Y-49857784D01*
X72155871Y-49717112D01*
X72155870Y-49717111D01*
X72002734Y-49605851D01*
X72002729Y-49605848D01*
X71829807Y-49528857D01*
X71829802Y-49528855D01*
X71684001Y-49497865D01*
X71644646Y-49489500D01*
X71455354Y-49489500D01*
X71422897Y-49496398D01*
X71270197Y-49528855D01*
X71270192Y-49528857D01*
X71097270Y-49605848D01*
X71097265Y-49605851D01*
X70944129Y-49717111D01*
X70817466Y-49857785D01*
X70722821Y-50021715D01*
X70722818Y-50021722D01*
X70681510Y-50148856D01*
X70664326Y-50201744D01*
X70644540Y-50390000D01*
X45682318Y-50390000D01*
X45705871Y-50372888D01*
X45832533Y-50232216D01*
X45927179Y-50068284D01*
X45985674Y-49888256D01*
X46005460Y-49700000D01*
X45985674Y-49511744D01*
X45927179Y-49331716D01*
X45833812Y-49170000D01*
X57080040Y-49170000D01*
X57099826Y-49358256D01*
X57099827Y-49358259D01*
X57158318Y-49538277D01*
X57158321Y-49538284D01*
X57252967Y-49702216D01*
X57379628Y-49842888D01*
X57379629Y-49842888D01*
X57532765Y-49954148D01*
X57532770Y-49954151D01*
X57705692Y-50031142D01*
X57705697Y-50031144D01*
X57890854Y-50070500D01*
X57890855Y-50070500D01*
X58080144Y-50070500D01*
X58080146Y-50070500D01*
X58265303Y-50031144D01*
X58438230Y-49954151D01*
X58591371Y-49842888D01*
X58718033Y-49702216D01*
X58812679Y-49538284D01*
X58871174Y-49358256D01*
X58890960Y-49170000D01*
X58871174Y-48981744D01*
X58812679Y-48801716D01*
X58718650Y-48638853D01*
X63362677Y-48638853D01*
X63382463Y-48827109D01*
X63382464Y-48827112D01*
X63440955Y-49007130D01*
X63440958Y-49007137D01*
X63535604Y-49171069D01*
X63662266Y-49311740D01*
X63662266Y-49311741D01*
X63815402Y-49423001D01*
X63815407Y-49423004D01*
X63988329Y-49499995D01*
X63988334Y-49499997D01*
X64173491Y-49539353D01*
X64173492Y-49539353D01*
X64362781Y-49539353D01*
X64362783Y-49539353D01*
X64547940Y-49499997D01*
X64720867Y-49423004D01*
X64874008Y-49311741D01*
X65000670Y-49171069D01*
X65095316Y-49007137D01*
X65153811Y-48827109D01*
X65173597Y-48638853D01*
X65153811Y-48450597D01*
X65095316Y-48270569D01*
X65054573Y-48200000D01*
X76034540Y-48200000D01*
X76054326Y-48388256D01*
X76054327Y-48388259D01*
X76112818Y-48568277D01*
X76112821Y-48568284D01*
X76207467Y-48732216D01*
X76303487Y-48838857D01*
X76334129Y-48872888D01*
X76487265Y-48984148D01*
X76487270Y-48984151D01*
X76660192Y-49061142D01*
X76660197Y-49061144D01*
X76845354Y-49100500D01*
X76845355Y-49100500D01*
X77034644Y-49100500D01*
X77034646Y-49100500D01*
X77219803Y-49061144D01*
X77392730Y-48984151D01*
X77545871Y-48872888D01*
X77672533Y-48732216D01*
X77767179Y-48568284D01*
X77825674Y-48388256D01*
X77845460Y-48200000D01*
X77825674Y-48011744D01*
X77767179Y-47831716D01*
X77672533Y-47667784D01*
X77545871Y-47527112D01*
X77545870Y-47527111D01*
X77392734Y-47415851D01*
X77392729Y-47415848D01*
X77219807Y-47338857D01*
X77219802Y-47338855D01*
X77074001Y-47307865D01*
X77034646Y-47299500D01*
X76845354Y-47299500D01*
X76812897Y-47306398D01*
X76660197Y-47338855D01*
X76660192Y-47338857D01*
X76487270Y-47415848D01*
X76487265Y-47415851D01*
X76334129Y-47527111D01*
X76207466Y-47667785D01*
X76112821Y-47831715D01*
X76112818Y-47831722D01*
X76054327Y-48011740D01*
X76054326Y-48011744D01*
X76034540Y-48200000D01*
X65054573Y-48200000D01*
X65000670Y-48106637D01*
X64874008Y-47965965D01*
X64874007Y-47965964D01*
X64720871Y-47854704D01*
X64720866Y-47854701D01*
X64547944Y-47777710D01*
X64547939Y-47777708D01*
X64402138Y-47746718D01*
X64362783Y-47738353D01*
X64173491Y-47738353D01*
X64141034Y-47745251D01*
X63988334Y-47777708D01*
X63988329Y-47777710D01*
X63815407Y-47854701D01*
X63815402Y-47854704D01*
X63662266Y-47965964D01*
X63535603Y-48106638D01*
X63440958Y-48270568D01*
X63440955Y-48270575D01*
X63382464Y-48450593D01*
X63382463Y-48450597D01*
X63362677Y-48638853D01*
X58718650Y-48638853D01*
X58718033Y-48637784D01*
X58591371Y-48497112D01*
X58591370Y-48497111D01*
X58438234Y-48385851D01*
X58438229Y-48385848D01*
X58265307Y-48308857D01*
X58265302Y-48308855D01*
X58119501Y-48277865D01*
X58080146Y-48269500D01*
X57890854Y-48269500D01*
X57858397Y-48276398D01*
X57705697Y-48308855D01*
X57705692Y-48308857D01*
X57532770Y-48385848D01*
X57532765Y-48385851D01*
X57379629Y-48497111D01*
X57252966Y-48637785D01*
X57158321Y-48801715D01*
X57158318Y-48801722D01*
X57099827Y-48981740D01*
X57099826Y-48981744D01*
X57080040Y-49170000D01*
X45833812Y-49170000D01*
X45832533Y-49167784D01*
X45705871Y-49027112D01*
X45678378Y-49007137D01*
X45552734Y-48915851D01*
X45552729Y-48915848D01*
X45379807Y-48838857D01*
X45379802Y-48838855D01*
X45234001Y-48807865D01*
X45194646Y-48799500D01*
X45005354Y-48799500D01*
X44972897Y-48806398D01*
X44820197Y-48838855D01*
X44820192Y-48838857D01*
X44647270Y-48915848D01*
X44647265Y-48915851D01*
X44494129Y-49027111D01*
X44367466Y-49167785D01*
X44272821Y-49331715D01*
X44272818Y-49331722D01*
X44218143Y-49499997D01*
X44214326Y-49511744D01*
X44194540Y-49700000D01*
X18000000Y-49700000D01*
X18000000Y-45890001D01*
X32904532Y-45890001D01*
X32924364Y-46116686D01*
X32924366Y-46116697D01*
X32983258Y-46336488D01*
X32983261Y-46336497D01*
X33079431Y-46542732D01*
X33079432Y-46542734D01*
X33209954Y-46729141D01*
X33370858Y-46890045D01*
X33370861Y-46890047D01*
X33557266Y-47020568D01*
X33763504Y-47116739D01*
X33983308Y-47175635D01*
X34145230Y-47189801D01*
X34209998Y-47195468D01*
X34210000Y-47195468D01*
X34210002Y-47195468D01*
X34266673Y-47190509D01*
X34436692Y-47175635D01*
X34656496Y-47116739D01*
X34862734Y-47020568D01*
X35049139Y-46890047D01*
X35210047Y-46729139D01*
X35340568Y-46542734D01*
X35436739Y-46336496D01*
X35454556Y-46270000D01*
X75104540Y-46270000D01*
X75124326Y-46458256D01*
X75124327Y-46458259D01*
X75182818Y-46638277D01*
X75182821Y-46638284D01*
X75277467Y-46802216D01*
X75356549Y-46890045D01*
X75404129Y-46942888D01*
X75557265Y-47054148D01*
X75557270Y-47054151D01*
X75730192Y-47131142D01*
X75730197Y-47131144D01*
X75915354Y-47170500D01*
X75915355Y-47170500D01*
X76104644Y-47170500D01*
X76104646Y-47170500D01*
X76289803Y-47131144D01*
X76462730Y-47054151D01*
X76615871Y-46942888D01*
X76742533Y-46802216D01*
X76837179Y-46638284D01*
X76895674Y-46458256D01*
X76915460Y-46270000D01*
X76895674Y-46081744D01*
X76837179Y-45901716D01*
X76742533Y-45737784D01*
X76615871Y-45597112D01*
X76615870Y-45597111D01*
X76462734Y-45485851D01*
X76462729Y-45485848D01*
X76289807Y-45408857D01*
X76289802Y-45408855D01*
X76144001Y-45377865D01*
X76104646Y-45369500D01*
X75915354Y-45369500D01*
X75882897Y-45376398D01*
X75730197Y-45408855D01*
X75730192Y-45408857D01*
X75557270Y-45485848D01*
X75557265Y-45485851D01*
X75404129Y-45597111D01*
X75277466Y-45737785D01*
X75182821Y-45901715D01*
X75182818Y-45901722D01*
X75124327Y-46081740D01*
X75124326Y-46081744D01*
X75104540Y-46270000D01*
X35454556Y-46270000D01*
X35495635Y-46116692D01*
X35512634Y-45922384D01*
X35515468Y-45890001D01*
X35515468Y-45889998D01*
X35495635Y-45663313D01*
X35495635Y-45663308D01*
X35436739Y-45443504D01*
X35340568Y-45237266D01*
X35210047Y-45050861D01*
X35210045Y-45050858D01*
X35049141Y-44889954D01*
X34862734Y-44759432D01*
X34862732Y-44759431D01*
X34656497Y-44663261D01*
X34656488Y-44663258D01*
X34436697Y-44604366D01*
X34436693Y-44604365D01*
X34436692Y-44604365D01*
X34436691Y-44604364D01*
X34436686Y-44604364D01*
X34210002Y-44584532D01*
X34209998Y-44584532D01*
X33983313Y-44604364D01*
X33983302Y-44604366D01*
X33763511Y-44663258D01*
X33763502Y-44663261D01*
X33557267Y-44759431D01*
X33557265Y-44759432D01*
X33370858Y-44889954D01*
X33209954Y-45050858D01*
X33079432Y-45237265D01*
X33079431Y-45237267D01*
X32983261Y-45443502D01*
X32983258Y-45443511D01*
X32924366Y-45663302D01*
X32924364Y-45663313D01*
X32904532Y-45889998D01*
X32904532Y-45890001D01*
X18000000Y-45890001D01*
X18000000Y-42170000D01*
X35934540Y-42170000D01*
X35954326Y-42358256D01*
X35954327Y-42358259D01*
X36012818Y-42538277D01*
X36012821Y-42538284D01*
X36107467Y-42702216D01*
X36234129Y-42842888D01*
X36387265Y-42954148D01*
X36387270Y-42954151D01*
X36560192Y-43031142D01*
X36560197Y-43031144D01*
X36745354Y-43070500D01*
X36745355Y-43070500D01*
X36934644Y-43070500D01*
X36934646Y-43070500D01*
X37119803Y-43031144D01*
X37292730Y-42954151D01*
X37445871Y-42842888D01*
X37572533Y-42702216D01*
X37667179Y-42538284D01*
X37725674Y-42358256D01*
X37745460Y-42170000D01*
X41004540Y-42170000D01*
X41024326Y-42358256D01*
X41024327Y-42358259D01*
X41082818Y-42538277D01*
X41082821Y-42538284D01*
X41177467Y-42702216D01*
X41304129Y-42842888D01*
X41457265Y-42954148D01*
X41457270Y-42954151D01*
X41630192Y-43031142D01*
X41630197Y-43031144D01*
X41815354Y-43070500D01*
X41815355Y-43070500D01*
X42004644Y-43070500D01*
X42004646Y-43070500D01*
X42189803Y-43031144D01*
X42362730Y-42954151D01*
X42515871Y-42842888D01*
X42642533Y-42702216D01*
X42737179Y-42538284D01*
X42795674Y-42358256D01*
X42815460Y-42170000D01*
X44354540Y-42170000D01*
X44374326Y-42358256D01*
X44374327Y-42358259D01*
X44432818Y-42538277D01*
X44432821Y-42538284D01*
X44527467Y-42702216D01*
X44654129Y-42842888D01*
X44807265Y-42954148D01*
X44807270Y-42954151D01*
X44980192Y-43031142D01*
X44980197Y-43031144D01*
X45165354Y-43070500D01*
X45165355Y-43070500D01*
X45354644Y-43070500D01*
X45354646Y-43070500D01*
X45539803Y-43031144D01*
X45712730Y-42954151D01*
X45865871Y-42842888D01*
X45992533Y-42702216D01*
X46087179Y-42538284D01*
X46145674Y-42358256D01*
X46165460Y-42170000D01*
X49454540Y-42170000D01*
X49474326Y-42358256D01*
X49474327Y-42358259D01*
X49532818Y-42538277D01*
X49532821Y-42538284D01*
X49627467Y-42702216D01*
X49754128Y-42842888D01*
X49754129Y-42842888D01*
X49907265Y-42954148D01*
X49907270Y-42954151D01*
X50080192Y-43031142D01*
X50080197Y-43031144D01*
X50265354Y-43070500D01*
X50265355Y-43070500D01*
X50454644Y-43070500D01*
X50454646Y-43070500D01*
X50639803Y-43031144D01*
X50812730Y-42954151D01*
X50965871Y-42842888D01*
X51092533Y-42702216D01*
X51187179Y-42538284D01*
X51245674Y-42358256D01*
X51265460Y-42170000D01*
X69554540Y-42170000D01*
X69574326Y-42358256D01*
X69574327Y-42358259D01*
X69632818Y-42538277D01*
X69632821Y-42538284D01*
X69727467Y-42702216D01*
X69854128Y-42842888D01*
X69854129Y-42842888D01*
X70007265Y-42954148D01*
X70007270Y-42954151D01*
X70180192Y-43031142D01*
X70180197Y-43031144D01*
X70365354Y-43070500D01*
X70365355Y-43070500D01*
X70554644Y-43070500D01*
X70554646Y-43070500D01*
X70739803Y-43031144D01*
X70912730Y-42954151D01*
X71065871Y-42842888D01*
X71192533Y-42702216D01*
X71287179Y-42538284D01*
X71345674Y-42358256D01*
X71365460Y-42170000D01*
X73194540Y-42170000D01*
X73214326Y-42358256D01*
X73214327Y-42358259D01*
X73272818Y-42538277D01*
X73272821Y-42538284D01*
X73367467Y-42702216D01*
X73494129Y-42842888D01*
X73647265Y-42954148D01*
X73647270Y-42954151D01*
X73820192Y-43031142D01*
X73820197Y-43031144D01*
X74005354Y-43070500D01*
X74005355Y-43070500D01*
X74194644Y-43070500D01*
X74194646Y-43070500D01*
X74379803Y-43031144D01*
X74552730Y-42954151D01*
X74705871Y-42842888D01*
X74832533Y-42702216D01*
X74927179Y-42538284D01*
X74985674Y-42358256D01*
X75005090Y-42173524D01*
X75564540Y-42173524D01*
X75584326Y-42361780D01*
X75584327Y-42361783D01*
X75642818Y-42541801D01*
X75642821Y-42541808D01*
X75737467Y-42705740D01*
X75860956Y-42842888D01*
X75864129Y-42846412D01*
X76017265Y-42957672D01*
X76017270Y-42957675D01*
X76190192Y-43034666D01*
X76190197Y-43034668D01*
X76375354Y-43074024D01*
X76375355Y-43074024D01*
X76564644Y-43074024D01*
X76564646Y-43074024D01*
X76749803Y-43034668D01*
X76922730Y-42957675D01*
X77075871Y-42846412D01*
X77202533Y-42705740D01*
X77297179Y-42541808D01*
X77355674Y-42361780D01*
X77373728Y-42190000D01*
X81034540Y-42190000D01*
X81054326Y-42378256D01*
X81054327Y-42378259D01*
X81112818Y-42558277D01*
X81112821Y-42558284D01*
X81207467Y-42722216D01*
X81316121Y-42842888D01*
X81334129Y-42862888D01*
X81487265Y-42974148D01*
X81487270Y-42974151D01*
X81660192Y-43051142D01*
X81660197Y-43051144D01*
X81845354Y-43090500D01*
X81845355Y-43090500D01*
X82034644Y-43090500D01*
X82034646Y-43090500D01*
X82219803Y-43051144D01*
X82392730Y-42974151D01*
X82545871Y-42862888D01*
X82672533Y-42722216D01*
X82767179Y-42558284D01*
X82825674Y-42378256D01*
X82845460Y-42190000D01*
X82825674Y-42001744D01*
X82767179Y-41821716D01*
X82672533Y-41657784D01*
X82545871Y-41517112D01*
X82523194Y-41500636D01*
X82392734Y-41405851D01*
X82392729Y-41405848D01*
X82219807Y-41328857D01*
X82219802Y-41328855D01*
X82074000Y-41297865D01*
X82034646Y-41289500D01*
X81845354Y-41289500D01*
X81812897Y-41296398D01*
X81660197Y-41328855D01*
X81660192Y-41328857D01*
X81487270Y-41405848D01*
X81487265Y-41405851D01*
X81334129Y-41517111D01*
X81207466Y-41657785D01*
X81112821Y-41821715D01*
X81112818Y-41821722D01*
X81059679Y-41985268D01*
X81054326Y-42001744D01*
X81034540Y-42190000D01*
X77373728Y-42190000D01*
X77375460Y-42173524D01*
X77355674Y-41985268D01*
X77297179Y-41805240D01*
X77202533Y-41641308D01*
X77075871Y-41500636D01*
X77071021Y-41497112D01*
X76922734Y-41389375D01*
X76922729Y-41389372D01*
X76749807Y-41312381D01*
X76749802Y-41312379D01*
X76604001Y-41281389D01*
X76564646Y-41273024D01*
X76375354Y-41273024D01*
X76342897Y-41279922D01*
X76190197Y-41312379D01*
X76190192Y-41312381D01*
X76017270Y-41389372D01*
X76017265Y-41389375D01*
X75864129Y-41500635D01*
X75737466Y-41641309D01*
X75642821Y-41805239D01*
X75642818Y-41805246D01*
X75585472Y-41981740D01*
X75584326Y-41985268D01*
X75564540Y-42173524D01*
X75005090Y-42173524D01*
X75005460Y-42170000D01*
X74985674Y-41981744D01*
X74927179Y-41801716D01*
X74832533Y-41637784D01*
X74705871Y-41497112D01*
X74705870Y-41497111D01*
X74552734Y-41385851D01*
X74552729Y-41385848D01*
X74379807Y-41308857D01*
X74379802Y-41308855D01*
X74211225Y-41273024D01*
X74194646Y-41269500D01*
X74005354Y-41269500D01*
X73988775Y-41273024D01*
X73820197Y-41308855D01*
X73820192Y-41308857D01*
X73647270Y-41385848D01*
X73647265Y-41385851D01*
X73494129Y-41497111D01*
X73367466Y-41637785D01*
X73272821Y-41801715D01*
X73272818Y-41801722D01*
X73214327Y-41981740D01*
X73214326Y-41981744D01*
X73194540Y-42170000D01*
X71365460Y-42170000D01*
X71345674Y-41981744D01*
X71287179Y-41801716D01*
X71192533Y-41637784D01*
X71065871Y-41497112D01*
X71065870Y-41497111D01*
X70912734Y-41385851D01*
X70912729Y-41385848D01*
X70739807Y-41308857D01*
X70739802Y-41308855D01*
X70571225Y-41273024D01*
X70554646Y-41269500D01*
X70365354Y-41269500D01*
X70348775Y-41273024D01*
X70180197Y-41308855D01*
X70180192Y-41308857D01*
X70007270Y-41385848D01*
X70007265Y-41385851D01*
X69854129Y-41497111D01*
X69727466Y-41637785D01*
X69632821Y-41801715D01*
X69632818Y-41801722D01*
X69574327Y-41981740D01*
X69574326Y-41981744D01*
X69554540Y-42170000D01*
X51265460Y-42170000D01*
X51245674Y-41981744D01*
X51187179Y-41801716D01*
X51092533Y-41637784D01*
X50965871Y-41497112D01*
X50965870Y-41497111D01*
X50812734Y-41385851D01*
X50812729Y-41385848D01*
X50639807Y-41308857D01*
X50639802Y-41308855D01*
X50471225Y-41273024D01*
X50454646Y-41269500D01*
X50265354Y-41269500D01*
X50248775Y-41273024D01*
X50080197Y-41308855D01*
X50080192Y-41308857D01*
X49907270Y-41385848D01*
X49907265Y-41385851D01*
X49754129Y-41497111D01*
X49627466Y-41637785D01*
X49532821Y-41801715D01*
X49532818Y-41801722D01*
X49474327Y-41981740D01*
X49474326Y-41981744D01*
X49454540Y-42170000D01*
X46165460Y-42170000D01*
X46145674Y-41981744D01*
X46087179Y-41801716D01*
X45992533Y-41637784D01*
X45865871Y-41497112D01*
X45865870Y-41497111D01*
X45712734Y-41385851D01*
X45712729Y-41385848D01*
X45539807Y-41308857D01*
X45539802Y-41308855D01*
X45371225Y-41273024D01*
X45354646Y-41269500D01*
X45165354Y-41269500D01*
X45148775Y-41273024D01*
X44980197Y-41308855D01*
X44980192Y-41308857D01*
X44807270Y-41385848D01*
X44807265Y-41385851D01*
X44654129Y-41497111D01*
X44527466Y-41637785D01*
X44432821Y-41801715D01*
X44432818Y-41801722D01*
X44374327Y-41981740D01*
X44374326Y-41981744D01*
X44354540Y-42170000D01*
X42815460Y-42170000D01*
X42795674Y-41981744D01*
X42737179Y-41801716D01*
X42642533Y-41637784D01*
X42515871Y-41497112D01*
X42515870Y-41497111D01*
X42362734Y-41385851D01*
X42362729Y-41385848D01*
X42189807Y-41308857D01*
X42189802Y-41308855D01*
X42021225Y-41273024D01*
X42004646Y-41269500D01*
X41815354Y-41269500D01*
X41798775Y-41273024D01*
X41630197Y-41308855D01*
X41630192Y-41308857D01*
X41457270Y-41385848D01*
X41457265Y-41385851D01*
X41304129Y-41497111D01*
X41177466Y-41637785D01*
X41082821Y-41801715D01*
X41082818Y-41801722D01*
X41024327Y-41981740D01*
X41024326Y-41981744D01*
X41004540Y-42170000D01*
X37745460Y-42170000D01*
X37725674Y-41981744D01*
X37667179Y-41801716D01*
X37572533Y-41637784D01*
X37445871Y-41497112D01*
X37445870Y-41497111D01*
X37292734Y-41385851D01*
X37292729Y-41385848D01*
X37119807Y-41308857D01*
X37119802Y-41308855D01*
X36951225Y-41273024D01*
X36934646Y-41269500D01*
X36745354Y-41269500D01*
X36728775Y-41273024D01*
X36560197Y-41308855D01*
X36560192Y-41308857D01*
X36387270Y-41385848D01*
X36387265Y-41385851D01*
X36234129Y-41497111D01*
X36107466Y-41637785D01*
X36012821Y-41801715D01*
X36012818Y-41801722D01*
X35954327Y-41981740D01*
X35954326Y-41981744D01*
X35934540Y-42170000D01*
X18000000Y-42170000D01*
X18000000Y-39600000D01*
X52364540Y-39600000D01*
X52384326Y-39788256D01*
X52384327Y-39788259D01*
X52442818Y-39968277D01*
X52442821Y-39968284D01*
X52537467Y-40132216D01*
X52646121Y-40252888D01*
X52664129Y-40272888D01*
X52817265Y-40384148D01*
X52817270Y-40384151D01*
X52990192Y-40461142D01*
X52990197Y-40461144D01*
X53175354Y-40500500D01*
X53175355Y-40500500D01*
X53364644Y-40500500D01*
X53364646Y-40500500D01*
X53549803Y-40461144D01*
X53722730Y-40384151D01*
X53875871Y-40272888D01*
X54002533Y-40132216D01*
X54097179Y-39968284D01*
X54132363Y-39860000D01*
X55314540Y-39860000D01*
X55334326Y-40048256D01*
X55334327Y-40048259D01*
X55392818Y-40228277D01*
X55392821Y-40228284D01*
X55487467Y-40392216D01*
X55584967Y-40500500D01*
X55614129Y-40532888D01*
X55767265Y-40644148D01*
X55767270Y-40644151D01*
X55940192Y-40721142D01*
X55940197Y-40721144D01*
X56125354Y-40760500D01*
X56125355Y-40760500D01*
X56314644Y-40760500D01*
X56314646Y-40760500D01*
X56499803Y-40721144D01*
X56672730Y-40644151D01*
X56825871Y-40532888D01*
X56952533Y-40392216D01*
X57047179Y-40228284D01*
X57105674Y-40048256D01*
X57125460Y-39860000D01*
X57105674Y-39671744D01*
X57075864Y-39580000D01*
X78524540Y-39580000D01*
X78544326Y-39768256D01*
X78544327Y-39768259D01*
X78602818Y-39948277D01*
X78602821Y-39948284D01*
X78697467Y-40112216D01*
X78824128Y-40252887D01*
X78824129Y-40252888D01*
X78977265Y-40364148D01*
X78977270Y-40364151D01*
X79150192Y-40441142D01*
X79150197Y-40441144D01*
X79335354Y-40480500D01*
X79335355Y-40480500D01*
X79524644Y-40480500D01*
X79524646Y-40480500D01*
X79709803Y-40441144D01*
X79882730Y-40364151D01*
X80035871Y-40252888D01*
X80162533Y-40112216D01*
X80257179Y-39948284D01*
X80315674Y-39768256D01*
X80335460Y-39580000D01*
X80315674Y-39391744D01*
X80257179Y-39211716D01*
X80162533Y-39047784D01*
X80035871Y-38907112D01*
X80035870Y-38907111D01*
X79882734Y-38795851D01*
X79882729Y-38795848D01*
X79709807Y-38718857D01*
X79709802Y-38718855D01*
X79564000Y-38687865D01*
X79524646Y-38679500D01*
X79335354Y-38679500D01*
X79302897Y-38686398D01*
X79150197Y-38718855D01*
X79150192Y-38718857D01*
X78977270Y-38795848D01*
X78977265Y-38795851D01*
X78824129Y-38907111D01*
X78697466Y-39047785D01*
X78602821Y-39211715D01*
X78602818Y-39211722D01*
X78557727Y-39350500D01*
X78544326Y-39391744D01*
X78524540Y-39580000D01*
X57075864Y-39580000D01*
X57047179Y-39491716D01*
X56952533Y-39327784D01*
X56825871Y-39187112D01*
X56825870Y-39187111D01*
X56672734Y-39075851D01*
X56672729Y-39075848D01*
X56499807Y-38998857D01*
X56499802Y-38998855D01*
X56354000Y-38967865D01*
X56314646Y-38959500D01*
X56125354Y-38959500D01*
X56092897Y-38966398D01*
X55940197Y-38998855D01*
X55940192Y-38998857D01*
X55767270Y-39075848D01*
X55767265Y-39075851D01*
X55614129Y-39187111D01*
X55487466Y-39327785D01*
X55392821Y-39491715D01*
X55392818Y-39491722D01*
X55357637Y-39600000D01*
X55334326Y-39671744D01*
X55314540Y-39860000D01*
X54132363Y-39860000D01*
X54155674Y-39788256D01*
X54175460Y-39600000D01*
X54155674Y-39411744D01*
X54097179Y-39231716D01*
X54002533Y-39067784D01*
X53875871Y-38927112D01*
X53875870Y-38927111D01*
X53722734Y-38815851D01*
X53722729Y-38815848D01*
X53549807Y-38738857D01*
X53549802Y-38738855D01*
X53404000Y-38707865D01*
X53364646Y-38699500D01*
X53175354Y-38699500D01*
X53142897Y-38706398D01*
X52990197Y-38738855D01*
X52990192Y-38738857D01*
X52817270Y-38815848D01*
X52817265Y-38815851D01*
X52664129Y-38927111D01*
X52537466Y-39067785D01*
X52442821Y-39231715D01*
X52442818Y-39231722D01*
X52390824Y-39391744D01*
X52384326Y-39411744D01*
X52364540Y-39600000D01*
X18000000Y-39600000D01*
X18000000Y-37184335D01*
X18319500Y-37184335D01*
X18326664Y-37227265D01*
X18360429Y-37429616D01*
X18441169Y-37664802D01*
X18441172Y-37664811D01*
X18559524Y-37883506D01*
X18559526Y-37883509D01*
X18712262Y-38079744D01*
X18843438Y-38200500D01*
X18895217Y-38248166D01*
X19103393Y-38384173D01*
X19331118Y-38484063D01*
X19523315Y-38532734D01*
X19572179Y-38545108D01*
X19572181Y-38545108D01*
X19572186Y-38545109D01*
X19705376Y-38556145D01*
X19757933Y-38560500D01*
X19757935Y-38560500D01*
X21382065Y-38560500D01*
X21382067Y-38560500D01*
X21443284Y-38555427D01*
X21567813Y-38545109D01*
X21567816Y-38545108D01*
X21567821Y-38545108D01*
X21808881Y-38484063D01*
X22036607Y-38384173D01*
X22244785Y-38248164D01*
X22427738Y-38079744D01*
X22580474Y-37883509D01*
X22582372Y-37880001D01*
X32864532Y-37880001D01*
X32884364Y-38106686D01*
X32884366Y-38106697D01*
X32943258Y-38326488D01*
X32943261Y-38326497D01*
X33039431Y-38532732D01*
X33039432Y-38532734D01*
X33169954Y-38719141D01*
X33330858Y-38880045D01*
X33330861Y-38880047D01*
X33517266Y-39010568D01*
X33723504Y-39106739D01*
X33943308Y-39165635D01*
X34105230Y-39179801D01*
X34169998Y-39185468D01*
X34170000Y-39185468D01*
X34170002Y-39185468D01*
X34226672Y-39180509D01*
X34396692Y-39165635D01*
X34616496Y-39106739D01*
X34822734Y-39010568D01*
X35009139Y-38880047D01*
X35170047Y-38719139D01*
X35300568Y-38532734D01*
X35339148Y-38450000D01*
X46084540Y-38450000D01*
X46104326Y-38638256D01*
X46104327Y-38638259D01*
X46162818Y-38818277D01*
X46162821Y-38818284D01*
X46257467Y-38982216D01*
X46369588Y-39106739D01*
X46384129Y-39122888D01*
X46537265Y-39234148D01*
X46537270Y-39234151D01*
X46710192Y-39311142D01*
X46710197Y-39311144D01*
X46895354Y-39350500D01*
X46895355Y-39350500D01*
X47084644Y-39350500D01*
X47084646Y-39350500D01*
X47269803Y-39311144D01*
X47442730Y-39234151D01*
X47595871Y-39122888D01*
X47722533Y-38982216D01*
X47817179Y-38818284D01*
X47875674Y-38638256D01*
X47895460Y-38450000D01*
X47875674Y-38261744D01*
X47817179Y-38081716D01*
X47722533Y-37917784D01*
X47595871Y-37777112D01*
X47595870Y-37777111D01*
X47442734Y-37665851D01*
X47442729Y-37665848D01*
X47269807Y-37588857D01*
X47269802Y-37588855D01*
X47124000Y-37557865D01*
X47084646Y-37549500D01*
X46895354Y-37549500D01*
X46862897Y-37556398D01*
X46710197Y-37588855D01*
X46710192Y-37588857D01*
X46537270Y-37665848D01*
X46537265Y-37665851D01*
X46384129Y-37777111D01*
X46257466Y-37917785D01*
X46162821Y-38081715D01*
X46162818Y-38081722D01*
X46104327Y-38261740D01*
X46104326Y-38261744D01*
X46084540Y-38450000D01*
X35339148Y-38450000D01*
X35396739Y-38326496D01*
X35455635Y-38106692D01*
X35475468Y-37880000D01*
X35455635Y-37653308D01*
X35396739Y-37433504D01*
X35300568Y-37227266D01*
X35170047Y-37040861D01*
X35170045Y-37040858D01*
X35009141Y-36879954D01*
X34822734Y-36749432D01*
X34822732Y-36749431D01*
X34616497Y-36653261D01*
X34616488Y-36653258D01*
X34396697Y-36594366D01*
X34396693Y-36594365D01*
X34396692Y-36594365D01*
X34396691Y-36594364D01*
X34396686Y-36594364D01*
X34170002Y-36574532D01*
X34169998Y-36574532D01*
X33943313Y-36594364D01*
X33943302Y-36594366D01*
X33723511Y-36653258D01*
X33723502Y-36653261D01*
X33517267Y-36749431D01*
X33517265Y-36749432D01*
X33330858Y-36879954D01*
X33169954Y-37040858D01*
X33039432Y-37227265D01*
X33039431Y-37227267D01*
X32943261Y-37433502D01*
X32943258Y-37433511D01*
X32884366Y-37653302D01*
X32884364Y-37653313D01*
X32864532Y-37879998D01*
X32864532Y-37880001D01*
X22582372Y-37880001D01*
X22698828Y-37664810D01*
X22779571Y-37429614D01*
X22820500Y-37184335D01*
X22820500Y-36935665D01*
X22779571Y-36690386D01*
X22777429Y-36684148D01*
X22746607Y-36594365D01*
X22698828Y-36455190D01*
X22689988Y-36438856D01*
X22604019Y-36279999D01*
X22580474Y-36236491D01*
X22427738Y-36040256D01*
X22275379Y-35900000D01*
X51994540Y-35900000D01*
X52014326Y-36088256D01*
X52014327Y-36088259D01*
X52072818Y-36268277D01*
X52072821Y-36268284D01*
X52167467Y-36432216D01*
X52294128Y-36572887D01*
X52294129Y-36572888D01*
X52447265Y-36684148D01*
X52447270Y-36684151D01*
X52620192Y-36761142D01*
X52620197Y-36761144D01*
X52805354Y-36800500D01*
X52805355Y-36800500D01*
X52994644Y-36800500D01*
X52994646Y-36800500D01*
X53179803Y-36761144D01*
X53352730Y-36684151D01*
X53505871Y-36572888D01*
X53632533Y-36432216D01*
X53720415Y-36280000D01*
X69114540Y-36280000D01*
X69134326Y-36468256D01*
X69134327Y-36468259D01*
X69192818Y-36648277D01*
X69192821Y-36648284D01*
X69287467Y-36812216D01*
X69348458Y-36879953D01*
X69414129Y-36952888D01*
X69567265Y-37064148D01*
X69567270Y-37064151D01*
X69740192Y-37141142D01*
X69740197Y-37141144D01*
X69856977Y-37165966D01*
X69918458Y-37199158D01*
X69952235Y-37260321D01*
X69954133Y-37293501D01*
X69954540Y-37293501D01*
X69954540Y-37299997D01*
X69954540Y-37300000D01*
X69974326Y-37488256D01*
X69974327Y-37488259D01*
X70032818Y-37668277D01*
X70032821Y-37668284D01*
X70127467Y-37832216D01*
X70170493Y-37880001D01*
X70254129Y-37972888D01*
X70407265Y-38084148D01*
X70407270Y-38084151D01*
X70580192Y-38161142D01*
X70580197Y-38161144D01*
X70765354Y-38200500D01*
X70765355Y-38200500D01*
X70954644Y-38200500D01*
X70954646Y-38200500D01*
X71139803Y-38161144D01*
X71312730Y-38084151D01*
X71465871Y-37972888D01*
X71592533Y-37832216D01*
X71687179Y-37668284D01*
X71745674Y-37488256D01*
X71765460Y-37300000D01*
X71745674Y-37111744D01*
X71687179Y-36931716D01*
X71592533Y-36767784D01*
X71465871Y-36627112D01*
X71420800Y-36594366D01*
X71312734Y-36515851D01*
X71312729Y-36515848D01*
X71139807Y-36438857D01*
X71139802Y-36438855D01*
X71023022Y-36414033D01*
X70961540Y-36380840D01*
X70927764Y-36319677D01*
X70925869Y-36286499D01*
X70925460Y-36286499D01*
X70925460Y-36280002D01*
X70925460Y-36279999D01*
X70916001Y-36190000D01*
X74274540Y-36190000D01*
X74294326Y-36378256D01*
X74294327Y-36378259D01*
X74352818Y-36558277D01*
X74352821Y-36558284D01*
X74447467Y-36722216D01*
X74528502Y-36812214D01*
X74574129Y-36862888D01*
X74727265Y-36974148D01*
X74727270Y-36974151D01*
X74900192Y-37051142D01*
X74900197Y-37051144D01*
X75085354Y-37090500D01*
X75085355Y-37090500D01*
X75274644Y-37090500D01*
X75274646Y-37090500D01*
X75459803Y-37051144D01*
X75632730Y-36974151D01*
X75785871Y-36862888D01*
X75912533Y-36722216D01*
X76007179Y-36558284D01*
X76065674Y-36378256D01*
X76085460Y-36190000D01*
X76065674Y-36001744D01*
X76007179Y-35821716D01*
X75912533Y-35657784D01*
X75785871Y-35517112D01*
X75764719Y-35501744D01*
X75632734Y-35405851D01*
X75632729Y-35405848D01*
X75459807Y-35328857D01*
X75459802Y-35328855D01*
X75314001Y-35297865D01*
X75274646Y-35289500D01*
X75085354Y-35289500D01*
X75052897Y-35296398D01*
X74900197Y-35328855D01*
X74900192Y-35328857D01*
X74727270Y-35405848D01*
X74727265Y-35405851D01*
X74574129Y-35517111D01*
X74447466Y-35657785D01*
X74352821Y-35821715D01*
X74352818Y-35821722D01*
X74294327Y-36001740D01*
X74294326Y-36001744D01*
X74274540Y-36190000D01*
X70916001Y-36190000D01*
X70905674Y-36091744D01*
X70847179Y-35911716D01*
X70752533Y-35747784D01*
X70625871Y-35607112D01*
X70581524Y-35574892D01*
X70472734Y-35495851D01*
X70472729Y-35495848D01*
X70299807Y-35418857D01*
X70299802Y-35418855D01*
X70154000Y-35387865D01*
X70114646Y-35379500D01*
X69925354Y-35379500D01*
X69892897Y-35386398D01*
X69740197Y-35418855D01*
X69740192Y-35418857D01*
X69567270Y-35495848D01*
X69567265Y-35495851D01*
X69414129Y-35607111D01*
X69287466Y-35747785D01*
X69192821Y-35911715D01*
X69192818Y-35911722D01*
X69135459Y-36088256D01*
X69134326Y-36091744D01*
X69114540Y-36280000D01*
X53720415Y-36280000D01*
X53727179Y-36268284D01*
X53785674Y-36088256D01*
X53805460Y-35900000D01*
X53785674Y-35711744D01*
X53727179Y-35531716D01*
X53632533Y-35367784D01*
X53505871Y-35227112D01*
X53505870Y-35227111D01*
X53352734Y-35115851D01*
X53352729Y-35115848D01*
X53179807Y-35038857D01*
X53179802Y-35038855D01*
X53029268Y-35006859D01*
X52994646Y-34999500D01*
X52805354Y-34999500D01*
X52785157Y-35003793D01*
X52620197Y-35038855D01*
X52620192Y-35038857D01*
X52447270Y-35115848D01*
X52447265Y-35115851D01*
X52294129Y-35227111D01*
X52167466Y-35367785D01*
X52072821Y-35531715D01*
X52072818Y-35531722D01*
X52031858Y-35657785D01*
X52014326Y-35711744D01*
X51994540Y-35900000D01*
X22275379Y-35900000D01*
X22244785Y-35871836D01*
X22244782Y-35871833D01*
X22036606Y-35735826D01*
X21808881Y-35635936D01*
X21567824Y-35574892D01*
X21567813Y-35574890D01*
X21402548Y-35561197D01*
X21382067Y-35559500D01*
X19757933Y-35559500D01*
X19738521Y-35561108D01*
X19572186Y-35574890D01*
X19572175Y-35574892D01*
X19331118Y-35635936D01*
X19103393Y-35735826D01*
X18895217Y-35871833D01*
X18712261Y-36040257D01*
X18559524Y-36236493D01*
X18441172Y-36455188D01*
X18441169Y-36455197D01*
X18360429Y-36690383D01*
X18328796Y-36879954D01*
X18319500Y-36935665D01*
X18319500Y-37184335D01*
X18000000Y-37184335D01*
X18000000Y-33652032D01*
X18019685Y-33584993D01*
X18072489Y-33539238D01*
X18141647Y-33529294D01*
X18159952Y-33534333D01*
X18160216Y-33533463D01*
X18166043Y-33535230D01*
X18166046Y-33535232D01*
X18364066Y-33595300D01*
X18364065Y-33595300D01*
X18402647Y-33599100D01*
X18518392Y-33610500D01*
X18518395Y-33610500D01*
X18621605Y-33610500D01*
X18621608Y-33610500D01*
X18775934Y-33595300D01*
X18973954Y-33535232D01*
X19156450Y-33437685D01*
X19316410Y-33306410D01*
X19344616Y-33272041D01*
X20070000Y-33272041D01*
X20085385Y-33457730D01*
X20085387Y-33457738D01*
X20146412Y-33698717D01*
X20246267Y-33926367D01*
X20382232Y-34134478D01*
X20550592Y-34317364D01*
X20550602Y-34317373D01*
X20746762Y-34470051D01*
X20746771Y-34470057D01*
X20965385Y-34588364D01*
X20965396Y-34588369D01*
X21200507Y-34669083D01*
X21319999Y-34689023D01*
X21320000Y-34689022D01*
X21320000Y-33823346D01*
X21339685Y-33756307D01*
X21392489Y-33710552D01*
X21461647Y-33700608D01*
X21478937Y-33704370D01*
X21498108Y-33709999D01*
X21498110Y-33710000D01*
X21498111Y-33710000D01*
X21641890Y-33710000D01*
X21641890Y-33709999D01*
X21661063Y-33704369D01*
X21730932Y-33704368D01*
X21789711Y-33742141D01*
X21818737Y-33805696D01*
X21820000Y-33823346D01*
X21820000Y-34689023D01*
X21939492Y-34669083D01*
X22174603Y-34588369D01*
X22174614Y-34588364D01*
X22393228Y-34470057D01*
X22393237Y-34470051D01*
X22589397Y-34317373D01*
X22589407Y-34317364D01*
X22757767Y-34134478D01*
X22893732Y-33926367D01*
X22993587Y-33698717D01*
X23054612Y-33457738D01*
X23054614Y-33457730D01*
X23070000Y-33272041D01*
X23070000Y-32810000D01*
X22194000Y-32810000D01*
X22126961Y-32790315D01*
X22081206Y-32737511D01*
X22070000Y-32686000D01*
X22070000Y-32434000D01*
X22089685Y-32366961D01*
X22142489Y-32321206D01*
X22194000Y-32310000D01*
X23070000Y-32310000D01*
X23070000Y-31847959D01*
X23054614Y-31662269D01*
X23054612Y-31662261D01*
X22993587Y-31421282D01*
X22893732Y-31193632D01*
X22757767Y-30985521D01*
X22589407Y-30802635D01*
X22589397Y-30802626D01*
X22393237Y-30649948D01*
X22393228Y-30649942D01*
X22174614Y-30531635D01*
X22174603Y-30531630D01*
X22117816Y-30512135D01*
X26069500Y-30512135D01*
X26069501Y-34607866D01*
X26069501Y-34607876D01*
X26075908Y-34667483D01*
X26126202Y-34802328D01*
X26126206Y-34802335D01*
X26212452Y-34917544D01*
X26212455Y-34917547D01*
X26327664Y-35003793D01*
X26327671Y-35003797D01*
X26462517Y-35054091D01*
X26462516Y-35054091D01*
X26469444Y-35054835D01*
X26522127Y-35060500D01*
X28617872Y-35060499D01*
X28677483Y-35054091D01*
X28812331Y-35003796D01*
X28927546Y-34917546D01*
X29013796Y-34802331D01*
X29064091Y-34667483D01*
X29070500Y-34607873D01*
X29070500Y-34110000D01*
X69944540Y-34110000D01*
X69964326Y-34298256D01*
X69964327Y-34298259D01*
X70022818Y-34478277D01*
X70022821Y-34478284D01*
X70117467Y-34642216D01*
X70235125Y-34772888D01*
X70244129Y-34782888D01*
X70397265Y-34894148D01*
X70397270Y-34894151D01*
X70570192Y-34971142D01*
X70570197Y-34971144D01*
X70755354Y-35010500D01*
X70755355Y-35010500D01*
X70944644Y-35010500D01*
X70944646Y-35010500D01*
X71129803Y-34971144D01*
X71302730Y-34894151D01*
X71455871Y-34782888D01*
X71582533Y-34642216D01*
X71677179Y-34478284D01*
X71735674Y-34298256D01*
X71755460Y-34110000D01*
X71754409Y-34100000D01*
X78394540Y-34100000D01*
X78414326Y-34288256D01*
X78414327Y-34288259D01*
X78472818Y-34468277D01*
X78472821Y-34468284D01*
X78567467Y-34632216D01*
X78694129Y-34772887D01*
X78694129Y-34772888D01*
X78847265Y-34884148D01*
X78847270Y-34884151D01*
X79020192Y-34961142D01*
X79020197Y-34961144D01*
X79205354Y-35000500D01*
X79205355Y-35000500D01*
X79394644Y-35000500D01*
X79394646Y-35000500D01*
X79579803Y-34961144D01*
X79655631Y-34927382D01*
X79724877Y-34918097D01*
X79788155Y-34947725D01*
X79825369Y-35006859D01*
X79824705Y-35076726D01*
X79798216Y-35123633D01*
X79767466Y-35157785D01*
X79672821Y-35321715D01*
X79672818Y-35321722D01*
X79614327Y-35501740D01*
X79614326Y-35501744D01*
X79594540Y-35690000D01*
X79614326Y-35878256D01*
X79614327Y-35878259D01*
X79672818Y-36058277D01*
X79672821Y-36058284D01*
X79767467Y-36222216D01*
X79819498Y-36280002D01*
X79894129Y-36362888D01*
X80047265Y-36474148D01*
X80047270Y-36474151D01*
X80220192Y-36551142D01*
X80220197Y-36551144D01*
X80405354Y-36590500D01*
X80405355Y-36590500D01*
X80594644Y-36590500D01*
X80594646Y-36590500D01*
X80779803Y-36551144D01*
X80952730Y-36474151D01*
X81105871Y-36362888D01*
X81232533Y-36222216D01*
X81327179Y-36058284D01*
X81385674Y-35878256D01*
X81405460Y-35690000D01*
X81385674Y-35501744D01*
X81327179Y-35321716D01*
X81232533Y-35157784D01*
X81105871Y-35017112D01*
X81105870Y-35017111D01*
X80952734Y-34905851D01*
X80952729Y-34905848D01*
X80779807Y-34828857D01*
X80779802Y-34828855D01*
X80634000Y-34797865D01*
X80594646Y-34789500D01*
X80405354Y-34789500D01*
X80372897Y-34796398D01*
X80220197Y-34828855D01*
X80220192Y-34828857D01*
X80144370Y-34862616D01*
X80075120Y-34871901D01*
X80011843Y-34842273D01*
X79974630Y-34783138D01*
X79975295Y-34713271D01*
X80001781Y-34666368D01*
X80032533Y-34632216D01*
X80127179Y-34468284D01*
X80185674Y-34288256D01*
X80205460Y-34100000D01*
X80185674Y-33911744D01*
X80127179Y-33731716D01*
X80032533Y-33567784D01*
X79905871Y-33427112D01*
X79905870Y-33427111D01*
X79752734Y-33315851D01*
X79752729Y-33315848D01*
X79579807Y-33238857D01*
X79579802Y-33238855D01*
X79434000Y-33207865D01*
X79394646Y-33199500D01*
X79205354Y-33199500D01*
X79172897Y-33206398D01*
X79020197Y-33238855D01*
X79020192Y-33238857D01*
X78847270Y-33315848D01*
X78847265Y-33315851D01*
X78694129Y-33427111D01*
X78567466Y-33567785D01*
X78472821Y-33731715D01*
X78472818Y-33731722D01*
X78414327Y-33911740D01*
X78414326Y-33911744D01*
X78394540Y-34100000D01*
X71754409Y-34100000D01*
X71735674Y-33921744D01*
X71677179Y-33741716D01*
X71582533Y-33577784D01*
X71455871Y-33437112D01*
X71454280Y-33435956D01*
X71302734Y-33325851D01*
X71302729Y-33325848D01*
X71129807Y-33248857D01*
X71129802Y-33248855D01*
X70984000Y-33217865D01*
X70944646Y-33209500D01*
X70755354Y-33209500D01*
X70732673Y-33214321D01*
X70570197Y-33248855D01*
X70570192Y-33248857D01*
X70397270Y-33325848D01*
X70397265Y-33325851D01*
X70244129Y-33437111D01*
X70117466Y-33577785D01*
X70022821Y-33741715D01*
X70022818Y-33741722D01*
X69964556Y-33921036D01*
X69964326Y-33921744D01*
X69944540Y-34110000D01*
X29070500Y-34110000D01*
X29070499Y-31900000D01*
X47124540Y-31900000D01*
X47144326Y-32088256D01*
X47144327Y-32088259D01*
X47202818Y-32268277D01*
X47202821Y-32268284D01*
X47297467Y-32432216D01*
X47412525Y-32560000D01*
X47424129Y-32572888D01*
X47577265Y-32684148D01*
X47577270Y-32684151D01*
X47750192Y-32761142D01*
X47750197Y-32761144D01*
X47935354Y-32800500D01*
X47935355Y-32800500D01*
X48124644Y-32800500D01*
X48124646Y-32800500D01*
X48309803Y-32761144D01*
X48482730Y-32684151D01*
X48635871Y-32572888D01*
X48762533Y-32432216D01*
X48857179Y-32268284D01*
X48901363Y-32132299D01*
X60936839Y-32132299D01*
X60956625Y-32320555D01*
X60956626Y-32320558D01*
X61015117Y-32500576D01*
X61015120Y-32500583D01*
X61109766Y-32664515D01*
X61230672Y-32798794D01*
X61236428Y-32805187D01*
X61389564Y-32916447D01*
X61389569Y-32916450D01*
X61562491Y-32993441D01*
X61562496Y-32993443D01*
X61747653Y-33032799D01*
X61747654Y-33032799D01*
X61936943Y-33032799D01*
X61936945Y-33032799D01*
X62122102Y-32993443D01*
X62295029Y-32916450D01*
X62448170Y-32805187D01*
X62574832Y-32664515D01*
X62609010Y-32605316D01*
X64523823Y-32605316D01*
X64543609Y-32793572D01*
X64543610Y-32793575D01*
X64602101Y-32973593D01*
X64602104Y-32973600D01*
X64696750Y-33137532D01*
X64787205Y-33237992D01*
X64823412Y-33278204D01*
X64976548Y-33389464D01*
X64976553Y-33389467D01*
X65149475Y-33466458D01*
X65149480Y-33466460D01*
X65334637Y-33505816D01*
X65334638Y-33505816D01*
X65523927Y-33505816D01*
X65523929Y-33505816D01*
X65709086Y-33466460D01*
X65882013Y-33389467D01*
X66035154Y-33278204D01*
X66161816Y-33137532D01*
X66256462Y-32973600D01*
X66314957Y-32793572D01*
X66334743Y-32605316D01*
X66314957Y-32417060D01*
X66256462Y-32237032D01*
X66240855Y-32210000D01*
X72384540Y-32210000D01*
X72404326Y-32398256D01*
X72404327Y-32398259D01*
X72462818Y-32578277D01*
X72462821Y-32578284D01*
X72557467Y-32742216D01*
X72649546Y-32844480D01*
X72684129Y-32882888D01*
X72837265Y-32994148D01*
X72837270Y-32994151D01*
X73010192Y-33071142D01*
X73010197Y-33071144D01*
X73195354Y-33110500D01*
X73195355Y-33110500D01*
X73384644Y-33110500D01*
X73384646Y-33110500D01*
X73569803Y-33071144D01*
X73742730Y-32994151D01*
X73895871Y-32882888D01*
X74022533Y-32742216D01*
X74117179Y-32578284D01*
X74139366Y-32510000D01*
X74584540Y-32510000D01*
X74604326Y-32698256D01*
X74604327Y-32698259D01*
X74662818Y-32878277D01*
X74662821Y-32878284D01*
X74757467Y-33042216D01*
X74843290Y-33137532D01*
X74884129Y-33182888D01*
X75037265Y-33294148D01*
X75037270Y-33294151D01*
X75210192Y-33371142D01*
X75210197Y-33371144D01*
X75395354Y-33410500D01*
X75395355Y-33410500D01*
X75584644Y-33410500D01*
X75584646Y-33410500D01*
X75769803Y-33371144D01*
X75942730Y-33294151D01*
X76095871Y-33182888D01*
X76179509Y-33089999D01*
X81284662Y-33089999D01*
X81303984Y-33335520D01*
X81361478Y-33575002D01*
X81455726Y-33802538D01*
X81584406Y-34012522D01*
X81584407Y-34012525D01*
X81584410Y-34012528D01*
X81744358Y-34199803D01*
X81859632Y-34298256D01*
X81931635Y-34359753D01*
X81931638Y-34359754D01*
X82125059Y-34478284D01*
X82141623Y-34488434D01*
X82141628Y-34488436D01*
X82180012Y-34504335D01*
X82182362Y-34505379D01*
X82182526Y-34505441D01*
X82184359Y-34506136D01*
X82369159Y-34582682D01*
X82411740Y-34592904D01*
X82419255Y-34595222D01*
X82454797Y-34608702D01*
X82484011Y-34610255D01*
X82608637Y-34640176D01*
X82656389Y-34643934D01*
X82663906Y-34644994D01*
X82665316Y-34645282D01*
X82665322Y-34645282D01*
X82670194Y-34646277D01*
X82670205Y-34646279D01*
X82701153Y-34652597D01*
X82729072Y-34649654D01*
X82854161Y-34659499D01*
X82906005Y-34655418D01*
X82913357Y-34655278D01*
X82917246Y-34655435D01*
X82917249Y-34655434D01*
X82919144Y-34655511D01*
X82919194Y-34655511D01*
X82951271Y-34656802D01*
X82977216Y-34649814D01*
X83099685Y-34640176D01*
X83154317Y-34627059D01*
X83161318Y-34625799D01*
X83198796Y-34621248D01*
X83222212Y-34610759D01*
X83339163Y-34582682D01*
X83395003Y-34559552D01*
X83401466Y-34557286D01*
X83409722Y-34554895D01*
X83409724Y-34554893D01*
X83411564Y-34554361D01*
X83411600Y-34554349D01*
X83437495Y-34546848D01*
X83457905Y-34533497D01*
X83566699Y-34488434D01*
X83621919Y-34454594D01*
X83627700Y-34451463D01*
X83637514Y-34446807D01*
X83637518Y-34446803D01*
X83638336Y-34446416D01*
X83638366Y-34446400D01*
X83661267Y-34435533D01*
X83678370Y-34420001D01*
X83776689Y-34359751D01*
X83829268Y-34314843D01*
X83834299Y-34310975D01*
X83845017Y-34303578D01*
X83845020Y-34303574D01*
X83845837Y-34303011D01*
X83845856Y-34302997D01*
X83864462Y-34290154D01*
X83878084Y-34273151D01*
X83963964Y-34199803D01*
X84011787Y-34143808D01*
X84015964Y-34139380D01*
X84026857Y-34128918D01*
X84026861Y-34128912D01*
X84027531Y-34128269D01*
X84027542Y-34128258D01*
X84041948Y-34114420D01*
X84052051Y-34096665D01*
X84123912Y-34012528D01*
X84164804Y-33945798D01*
X84168053Y-33941019D01*
X84178325Y-33927351D01*
X84178329Y-33927341D01*
X84179581Y-33925677D01*
X84179609Y-33925638D01*
X84183066Y-33921036D01*
X84183451Y-33920748D01*
X84184348Y-33919330D01*
X84189243Y-33912816D01*
X84195933Y-33895001D01*
X84252595Y-33802538D01*
X84284333Y-33725914D01*
X84286705Y-33720848D01*
X84295498Y-33704096D01*
X84295498Y-33704094D01*
X84296455Y-33702272D01*
X84297696Y-33700988D01*
X84300150Y-33695230D01*
X84302625Y-33690513D01*
X84306142Y-33673261D01*
X84346843Y-33575002D01*
X84367332Y-33489658D01*
X84368808Y-33484506D01*
X84374226Y-33468276D01*
X84375962Y-33465779D01*
X84378334Y-33456155D01*
X84378393Y-33446155D01*
X84379316Y-33440474D01*
X84380217Y-33435987D01*
X84404337Y-33335524D01*
X84411617Y-33243015D01*
X84412222Y-33237992D01*
X84415786Y-33216067D01*
X84415786Y-33216064D01*
X84416063Y-33214361D01*
X84416068Y-33214321D01*
X84417225Y-33207198D01*
X84416117Y-33199566D01*
X84416453Y-33182924D01*
X84416631Y-33179309D01*
X84419919Y-33137530D01*
X84423660Y-33090000D01*
X84416630Y-33000684D01*
X84416453Y-32997074D01*
X84416371Y-32993041D01*
X84416117Y-32980434D01*
X84417587Y-32975028D01*
X84416487Y-32968258D01*
X84416485Y-32968236D01*
X84412226Y-32942030D01*
X84411614Y-32936946D01*
X84406997Y-32878284D01*
X84404337Y-32844476D01*
X84380222Y-32744032D01*
X84379315Y-32739520D01*
X84378392Y-32733836D01*
X84379269Y-32726831D01*
X84378509Y-32724553D01*
X84376381Y-32715920D01*
X84374226Y-32711722D01*
X84368808Y-32695493D01*
X84367329Y-32690329D01*
X84346843Y-32604999D01*
X84346842Y-32604997D01*
X84306144Y-32506741D01*
X84304717Y-32493472D01*
X84300152Y-32484774D01*
X84298106Y-32479972D01*
X84296455Y-32477728D01*
X84286713Y-32459166D01*
X84284329Y-32454076D01*
X84252595Y-32377462D01*
X84195932Y-32284997D01*
X84192164Y-32271067D01*
X84184347Y-32260665D01*
X84183613Y-32259505D01*
X84183082Y-32258982D01*
X84179835Y-32254662D01*
X84179796Y-32254606D01*
X84176285Y-32249934D01*
X84168071Y-32239004D01*
X84164780Y-32234162D01*
X84149973Y-32209999D01*
X84123912Y-32167472D01*
X84052052Y-32083335D01*
X84045717Y-32069197D01*
X84015969Y-32040623D01*
X84011771Y-32036172D01*
X83963967Y-31980200D01*
X83963965Y-31980198D01*
X83963964Y-31980197D01*
X83878083Y-31906848D01*
X83869049Y-31893009D01*
X83834308Y-31869028D01*
X83829259Y-31865147D01*
X83776690Y-31820249D01*
X83776686Y-31820246D01*
X83678370Y-31759998D01*
X83666609Y-31746999D01*
X83632872Y-31730990D01*
X83631667Y-31730418D01*
X83627717Y-31728544D01*
X83621913Y-31725401D01*
X83566699Y-31691566D01*
X83566696Y-31691565D01*
X83566695Y-31691564D01*
X83457908Y-31646503D01*
X83443496Y-31634889D01*
X83411596Y-31625649D01*
X83411576Y-31625642D01*
X83401467Y-31622713D01*
X83394992Y-31620442D01*
X83339163Y-31597318D01*
X83222209Y-31569239D01*
X83205321Y-31559542D01*
X83161312Y-31554199D01*
X83154306Y-31552937D01*
X83099686Y-31539824D01*
X83099677Y-31539823D01*
X82977212Y-31530185D01*
X82958146Y-31522918D01*
X82919756Y-31524464D01*
X82919739Y-31524464D01*
X82913354Y-31524721D01*
X82905992Y-31524580D01*
X82871626Y-31521875D01*
X82854161Y-31520501D01*
X82854160Y-31520501D01*
X82729060Y-31530345D01*
X82708199Y-31525962D01*
X82663909Y-31535004D01*
X82656368Y-31536067D01*
X82608642Y-31539823D01*
X82608632Y-31539825D01*
X82483977Y-31569751D01*
X82461795Y-31568641D01*
X82419254Y-31584776D01*
X82411736Y-31587094D01*
X82369158Y-31597318D01*
X82369156Y-31597318D01*
X82184376Y-31673856D01*
X82182373Y-31674616D01*
X82180028Y-31675656D01*
X82141628Y-31691563D01*
X82141616Y-31691569D01*
X81931638Y-31820245D01*
X81931635Y-31820246D01*
X81744358Y-31980197D01*
X81584407Y-32167474D01*
X81584406Y-32167477D01*
X81455726Y-32377461D01*
X81361478Y-32604997D01*
X81303984Y-32844479D01*
X81284662Y-33089999D01*
X76179509Y-33089999D01*
X76222533Y-33042216D01*
X76317179Y-32878284D01*
X76375674Y-32698256D01*
X76395460Y-32510000D01*
X76375674Y-32321744D01*
X76317179Y-32141716D01*
X76222533Y-31977784D01*
X76095871Y-31837112D01*
X76073922Y-31821165D01*
X75942734Y-31725851D01*
X75942729Y-31725848D01*
X75769807Y-31648857D01*
X75769802Y-31648855D01*
X75624000Y-31617865D01*
X75584646Y-31609500D01*
X75395354Y-31609500D01*
X75362897Y-31616398D01*
X75210197Y-31648855D01*
X75210192Y-31648857D01*
X75037270Y-31725848D01*
X75037265Y-31725851D01*
X74884129Y-31837111D01*
X74757466Y-31977785D01*
X74662821Y-32141715D01*
X74662818Y-32141722D01*
X74608142Y-32310000D01*
X74604326Y-32321744D01*
X74584540Y-32510000D01*
X74139366Y-32510000D01*
X74175674Y-32398256D01*
X74195460Y-32210000D01*
X74175674Y-32021744D01*
X74121112Y-31853823D01*
X74117181Y-31841722D01*
X74117180Y-31841721D01*
X74117179Y-31841716D01*
X74022533Y-31677784D01*
X73895871Y-31537112D01*
X73892970Y-31535004D01*
X73742734Y-31425851D01*
X73742729Y-31425848D01*
X73569807Y-31348857D01*
X73569802Y-31348855D01*
X73424000Y-31317865D01*
X73384646Y-31309500D01*
X73195354Y-31309500D01*
X73162897Y-31316398D01*
X73010197Y-31348855D01*
X73010192Y-31348857D01*
X72837270Y-31425848D01*
X72837265Y-31425851D01*
X72684129Y-31537111D01*
X72557466Y-31677785D01*
X72462821Y-31841715D01*
X72462818Y-31841722D01*
X72416484Y-31984325D01*
X72404326Y-32021744D01*
X72384540Y-32210000D01*
X66240855Y-32210000D01*
X66161816Y-32073100D01*
X66035154Y-31932428D01*
X65990521Y-31900000D01*
X65882017Y-31821167D01*
X65882012Y-31821164D01*
X65709090Y-31744173D01*
X65709085Y-31744171D01*
X65556504Y-31711740D01*
X65523929Y-31704816D01*
X65334637Y-31704816D01*
X65302180Y-31711714D01*
X65149480Y-31744171D01*
X65149475Y-31744173D01*
X64976553Y-31821164D01*
X64976548Y-31821167D01*
X64823412Y-31932427D01*
X64696749Y-32073101D01*
X64602104Y-32237031D01*
X64602101Y-32237038D01*
X64543610Y-32417056D01*
X64543609Y-32417060D01*
X64523823Y-32605316D01*
X62609010Y-32605316D01*
X62669478Y-32500583D01*
X62727973Y-32320555D01*
X62747759Y-32132299D01*
X62747758Y-32132297D01*
X62748438Y-32125836D01*
X62750247Y-32126026D01*
X62767444Y-32067461D01*
X62820248Y-32021706D01*
X62871759Y-32010500D01*
X63064644Y-32010500D01*
X63064646Y-32010500D01*
X63249803Y-31971144D01*
X63422730Y-31894151D01*
X63575871Y-31782888D01*
X63702533Y-31642216D01*
X63797179Y-31478284D01*
X63855674Y-31298256D01*
X63875460Y-31110000D01*
X63855674Y-30921744D01*
X63797179Y-30741716D01*
X63702533Y-30577784D01*
X63575871Y-30437112D01*
X63575870Y-30437111D01*
X63422734Y-30325851D01*
X63422729Y-30325848D01*
X63249807Y-30248857D01*
X63249802Y-30248855D01*
X63104000Y-30217865D01*
X63064646Y-30209500D01*
X62875354Y-30209500D01*
X62842897Y-30216398D01*
X62690197Y-30248855D01*
X62690192Y-30248857D01*
X62517270Y-30325848D01*
X62517265Y-30325851D01*
X62364129Y-30437111D01*
X62237466Y-30577785D01*
X62142821Y-30741715D01*
X62142818Y-30741722D01*
X62084327Y-30921740D01*
X62084326Y-30921744D01*
X62070703Y-31051362D01*
X62063861Y-31116463D01*
X62062051Y-31116272D01*
X62044855Y-31174838D01*
X61992051Y-31220593D01*
X61940540Y-31231799D01*
X61936945Y-31231799D01*
X61747653Y-31231799D01*
X61715196Y-31238697D01*
X61562496Y-31271154D01*
X61562491Y-31271156D01*
X61389569Y-31348147D01*
X61389564Y-31348150D01*
X61236428Y-31459410D01*
X61109765Y-31600084D01*
X61015120Y-31764014D01*
X61015117Y-31764021D01*
X60968709Y-31906852D01*
X60956625Y-31944043D01*
X60936839Y-32132299D01*
X48901363Y-32132299D01*
X48915674Y-32088256D01*
X48935460Y-31900000D01*
X48915674Y-31711744D01*
X48857179Y-31531716D01*
X48762533Y-31367784D01*
X48635871Y-31227112D01*
X48635870Y-31227111D01*
X48482734Y-31115851D01*
X48482729Y-31115848D01*
X48309807Y-31038857D01*
X48309802Y-31038855D01*
X48164001Y-31007865D01*
X48124646Y-30999500D01*
X47935354Y-30999500D01*
X47902897Y-31006398D01*
X47750197Y-31038855D01*
X47750192Y-31038857D01*
X47577270Y-31115848D01*
X47577265Y-31115851D01*
X47424129Y-31227111D01*
X47297466Y-31367785D01*
X47202821Y-31531715D01*
X47202818Y-31531722D01*
X47155360Y-31677784D01*
X47144326Y-31711744D01*
X47124540Y-31900000D01*
X29070499Y-31900000D01*
X29070499Y-30512128D01*
X29064091Y-30452517D01*
X29058345Y-30437112D01*
X29013797Y-30317671D01*
X29013793Y-30317664D01*
X28927547Y-30202455D01*
X28927544Y-30202452D01*
X28812335Y-30116206D01*
X28812328Y-30116202D01*
X28677482Y-30065908D01*
X28677483Y-30065908D01*
X28617883Y-30059501D01*
X28617881Y-30059500D01*
X28617873Y-30059500D01*
X28617864Y-30059500D01*
X26522129Y-30059500D01*
X26522123Y-30059501D01*
X26462516Y-30065908D01*
X26327671Y-30116202D01*
X26327664Y-30116206D01*
X26212455Y-30202452D01*
X26212452Y-30202455D01*
X26126206Y-30317664D01*
X26126202Y-30317671D01*
X26075908Y-30452517D01*
X26069501Y-30512116D01*
X26069501Y-30512123D01*
X26069500Y-30512135D01*
X22117816Y-30512135D01*
X21939492Y-30450916D01*
X21820000Y-30430976D01*
X21820000Y-31296653D01*
X21800315Y-31363692D01*
X21747511Y-31409447D01*
X21678353Y-31419391D01*
X21661067Y-31415631D01*
X21641889Y-31410000D01*
X21498111Y-31410000D01*
X21478933Y-31415631D01*
X21409064Y-31415630D01*
X21350286Y-31377855D01*
X21321262Y-31314299D01*
X21320000Y-31296653D01*
X21320000Y-30430976D01*
X21319999Y-30430976D01*
X21200507Y-30450916D01*
X20965396Y-30531630D01*
X20965385Y-30531635D01*
X20746771Y-30649942D01*
X20746762Y-30649948D01*
X20550602Y-30802626D01*
X20550592Y-30802635D01*
X20382232Y-30985521D01*
X20246267Y-31193632D01*
X20146412Y-31421282D01*
X20085387Y-31662261D01*
X20085385Y-31662269D01*
X20070000Y-31847959D01*
X20070000Y-32310000D01*
X20946000Y-32310000D01*
X21013039Y-32329685D01*
X21058794Y-32382489D01*
X21070000Y-32434000D01*
X21070000Y-32686000D01*
X21050315Y-32753039D01*
X20997511Y-32798794D01*
X20946000Y-32810000D01*
X20070000Y-32810000D01*
X20070000Y-33272041D01*
X19344616Y-33272041D01*
X19447685Y-33146450D01*
X19545232Y-32963954D01*
X19605300Y-32765934D01*
X19625583Y-32560000D01*
X19605300Y-32354066D01*
X19545232Y-32156046D01*
X19447685Y-31973550D01*
X19392948Y-31906852D01*
X19316410Y-31813589D01*
X19198677Y-31716969D01*
X19156450Y-31682315D01*
X18973954Y-31584768D01*
X18775934Y-31524700D01*
X18775932Y-31524699D01*
X18775934Y-31524699D01*
X18656805Y-31512966D01*
X18621608Y-31509500D01*
X18518392Y-31509500D01*
X18480298Y-31513251D01*
X18364067Y-31524699D01*
X18252493Y-31558545D01*
X18166046Y-31584768D01*
X18166043Y-31584769D01*
X18160216Y-31586537D01*
X18159407Y-31583871D01*
X18101728Y-31589950D01*
X18039314Y-31558545D01*
X18003788Y-31498382D01*
X18000000Y-31467967D01*
X18000000Y-28184335D01*
X18319500Y-28184335D01*
X18328805Y-28240099D01*
X18360429Y-28429616D01*
X18441169Y-28664802D01*
X18441172Y-28664811D01*
X18559524Y-28883506D01*
X18559526Y-28883509D01*
X18712262Y-29079744D01*
X18849413Y-29206000D01*
X18895217Y-29248166D01*
X19103393Y-29384173D01*
X19331118Y-29484063D01*
X19572175Y-29545107D01*
X19572179Y-29545108D01*
X19572181Y-29545108D01*
X19572186Y-29545109D01*
X19705376Y-29556145D01*
X19757933Y-29560500D01*
X19757935Y-29560500D01*
X21382065Y-29560500D01*
X21382067Y-29560500D01*
X21443284Y-29555427D01*
X21567813Y-29545109D01*
X21567816Y-29545108D01*
X21567821Y-29545108D01*
X21808881Y-29484063D01*
X22036607Y-29384173D01*
X22244785Y-29248164D01*
X22405734Y-29100000D01*
X30994540Y-29100000D01*
X31014326Y-29288256D01*
X31014327Y-29288259D01*
X31072818Y-29468277D01*
X31072821Y-29468284D01*
X31167467Y-29632216D01*
X31282975Y-29760500D01*
X31294129Y-29772888D01*
X31447265Y-29884148D01*
X31447270Y-29884151D01*
X31620192Y-29961142D01*
X31620197Y-29961144D01*
X31805354Y-30000500D01*
X31805355Y-30000500D01*
X31994644Y-30000500D01*
X31994646Y-30000500D01*
X32179803Y-29961144D01*
X32352730Y-29884151D01*
X32505871Y-29772888D01*
X32632533Y-29632216D01*
X32727179Y-29468284D01*
X32785674Y-29288256D01*
X32803936Y-29114502D01*
X38254540Y-29114502D01*
X38274326Y-29302758D01*
X38274327Y-29302761D01*
X38332818Y-29482779D01*
X38332821Y-29482786D01*
X38427467Y-29646718D01*
X38494479Y-29721142D01*
X38554129Y-29787390D01*
X38707265Y-29898650D01*
X38707270Y-29898653D01*
X38880192Y-29975644D01*
X38880197Y-29975646D01*
X39065354Y-30015002D01*
X39065355Y-30015002D01*
X39254644Y-30015002D01*
X39254646Y-30015002D01*
X39439803Y-29975646D01*
X39612730Y-29898653D01*
X39765871Y-29787390D01*
X39892533Y-29646718D01*
X39987179Y-29482786D01*
X40045674Y-29302758D01*
X40065460Y-29114502D01*
X40063936Y-29100000D01*
X40794540Y-29100000D01*
X40814326Y-29288256D01*
X40814327Y-29288259D01*
X40872818Y-29468277D01*
X40872821Y-29468284D01*
X40967467Y-29632216D01*
X41082975Y-29760500D01*
X41094129Y-29772888D01*
X41247265Y-29884148D01*
X41247270Y-29884151D01*
X41420192Y-29961142D01*
X41420197Y-29961144D01*
X41605354Y-30000500D01*
X41605355Y-30000500D01*
X41794644Y-30000500D01*
X41794646Y-30000500D01*
X41979803Y-29961144D01*
X42152730Y-29884151D01*
X42305871Y-29772888D01*
X42432533Y-29632216D01*
X42527179Y-29468284D01*
X42585674Y-29288256D01*
X42605460Y-29100000D01*
X68694540Y-29100000D01*
X68714326Y-29288256D01*
X68714327Y-29288259D01*
X68772818Y-29468277D01*
X68772821Y-29468284D01*
X68867467Y-29632216D01*
X68982975Y-29760500D01*
X68994129Y-29772888D01*
X69147265Y-29884148D01*
X69147270Y-29884151D01*
X69320192Y-29961142D01*
X69320197Y-29961144D01*
X69505354Y-30000500D01*
X69505355Y-30000500D01*
X69694644Y-30000500D01*
X69694646Y-30000500D01*
X69879803Y-29961144D01*
X70052730Y-29884151D01*
X70205871Y-29772888D01*
X70332533Y-29632216D01*
X70427179Y-29468284D01*
X70485674Y-29288256D01*
X70505460Y-29100000D01*
X70485674Y-28911744D01*
X70468861Y-28860000D01*
X74364540Y-28860000D01*
X74384326Y-29048256D01*
X74384327Y-29048259D01*
X74442818Y-29228277D01*
X74442821Y-29228284D01*
X74537467Y-29392216D01*
X74623942Y-29488256D01*
X74664129Y-29532888D01*
X74817265Y-29644148D01*
X74817270Y-29644151D01*
X74990192Y-29721142D01*
X74990197Y-29721144D01*
X75175354Y-29760500D01*
X75175355Y-29760500D01*
X75364644Y-29760500D01*
X75364646Y-29760500D01*
X75549803Y-29721144D01*
X75722730Y-29644151D01*
X75875871Y-29532888D01*
X75918040Y-29486053D01*
X75977525Y-29449407D01*
X76047382Y-29450736D01*
X76105430Y-29489623D01*
X76128120Y-29530709D01*
X76172818Y-29668278D01*
X76172821Y-29668284D01*
X76267467Y-29832216D01*
X76383553Y-29961142D01*
X76394129Y-29972888D01*
X76547265Y-30084148D01*
X76547270Y-30084151D01*
X76720192Y-30161142D01*
X76720197Y-30161144D01*
X76905354Y-30200500D01*
X76905355Y-30200500D01*
X77094644Y-30200500D01*
X77094646Y-30200500D01*
X77279803Y-30161144D01*
X77452730Y-30084151D01*
X77605871Y-29972888D01*
X77732533Y-29832216D01*
X77827179Y-29668284D01*
X77885674Y-29488256D01*
X77905460Y-29300000D01*
X77885674Y-29111744D01*
X77827179Y-28931716D01*
X77732533Y-28767784D01*
X77605871Y-28627112D01*
X77605870Y-28627111D01*
X77452734Y-28515851D01*
X77452729Y-28515848D01*
X77279807Y-28438857D01*
X77279802Y-28438855D01*
X77134000Y-28407865D01*
X77094646Y-28399500D01*
X76905354Y-28399500D01*
X76872897Y-28406398D01*
X76720197Y-28438855D01*
X76720192Y-28438857D01*
X76547270Y-28515848D01*
X76547265Y-28515851D01*
X76394131Y-28627110D01*
X76351959Y-28673946D01*
X76292472Y-28710593D01*
X76222615Y-28709262D01*
X76164567Y-28670374D01*
X76141879Y-28629289D01*
X76141171Y-28627111D01*
X76105021Y-28515851D01*
X76097182Y-28491724D01*
X76097180Y-28491720D01*
X76097179Y-28491716D01*
X76002533Y-28327784D01*
X75875871Y-28187112D01*
X75872049Y-28184335D01*
X75722734Y-28075851D01*
X75722729Y-28075848D01*
X75549807Y-27998857D01*
X75549802Y-27998855D01*
X75404000Y-27967865D01*
X75364646Y-27959500D01*
X75175354Y-27959500D01*
X75142897Y-27966398D01*
X74990197Y-27998855D01*
X74990192Y-27998857D01*
X74817270Y-28075848D01*
X74817265Y-28075851D01*
X74664129Y-28187111D01*
X74537466Y-28327785D01*
X74442821Y-28491715D01*
X74442818Y-28491722D01*
X74384771Y-28670374D01*
X74384326Y-28671744D01*
X74364540Y-28860000D01*
X70468861Y-28860000D01*
X70427179Y-28731716D01*
X70332533Y-28567784D01*
X70205871Y-28427112D01*
X70205870Y-28427111D01*
X70052734Y-28315851D01*
X70052729Y-28315848D01*
X69879807Y-28238857D01*
X69879802Y-28238855D01*
X69734000Y-28207865D01*
X69694646Y-28199500D01*
X69505354Y-28199500D01*
X69472897Y-28206398D01*
X69320197Y-28238855D01*
X69320192Y-28238857D01*
X69147270Y-28315848D01*
X69147265Y-28315851D01*
X68994129Y-28427111D01*
X68867466Y-28567785D01*
X68772821Y-28731715D01*
X68772818Y-28731722D01*
X68723501Y-28883506D01*
X68714326Y-28911744D01*
X68694540Y-29100000D01*
X42605460Y-29100000D01*
X42585674Y-28911744D01*
X42527179Y-28731716D01*
X42432533Y-28567784D01*
X42305871Y-28427112D01*
X42305870Y-28427111D01*
X42152734Y-28315851D01*
X42152729Y-28315848D01*
X41979807Y-28238857D01*
X41979802Y-28238855D01*
X41834000Y-28207865D01*
X41794646Y-28199500D01*
X41605354Y-28199500D01*
X41572897Y-28206398D01*
X41420197Y-28238855D01*
X41420192Y-28238857D01*
X41247270Y-28315848D01*
X41247265Y-28315851D01*
X41094129Y-28427111D01*
X40967466Y-28567785D01*
X40872821Y-28731715D01*
X40872818Y-28731722D01*
X40823501Y-28883506D01*
X40814326Y-28911744D01*
X40794540Y-29100000D01*
X40063936Y-29100000D01*
X40045674Y-28926246D01*
X39987179Y-28746218D01*
X39892533Y-28582286D01*
X39765871Y-28441614D01*
X39765870Y-28441613D01*
X39612734Y-28330353D01*
X39612729Y-28330350D01*
X39439807Y-28253359D01*
X39439802Y-28253357D01*
X39294000Y-28222367D01*
X39254646Y-28214002D01*
X39065354Y-28214002D01*
X39032897Y-28220900D01*
X38880197Y-28253357D01*
X38880192Y-28253359D01*
X38707270Y-28330350D01*
X38707265Y-28330353D01*
X38554129Y-28441613D01*
X38427466Y-28582287D01*
X38332821Y-28746217D01*
X38332818Y-28746224D01*
X38288213Y-28883506D01*
X38274326Y-28926246D01*
X38254540Y-29114502D01*
X32803936Y-29114502D01*
X32805460Y-29100000D01*
X32785674Y-28911744D01*
X32727179Y-28731716D01*
X32632533Y-28567784D01*
X32505871Y-28427112D01*
X32505870Y-28427111D01*
X32352734Y-28315851D01*
X32352729Y-28315848D01*
X32179807Y-28238857D01*
X32179802Y-28238855D01*
X32034001Y-28207865D01*
X31994646Y-28199500D01*
X31805354Y-28199500D01*
X31772897Y-28206398D01*
X31620197Y-28238855D01*
X31620192Y-28238857D01*
X31447270Y-28315848D01*
X31447265Y-28315851D01*
X31294129Y-28427111D01*
X31167466Y-28567785D01*
X31072821Y-28731715D01*
X31072818Y-28731722D01*
X31023501Y-28883506D01*
X31014326Y-28911744D01*
X30994540Y-29100000D01*
X22405734Y-29100000D01*
X22427738Y-29079744D01*
X22580474Y-28883509D01*
X22698828Y-28664810D01*
X22779571Y-28429614D01*
X22820500Y-28184335D01*
X22820500Y-27935665D01*
X22804537Y-27840000D01*
X59204540Y-27840000D01*
X59224326Y-28028256D01*
X59224327Y-28028259D01*
X59282818Y-28208277D01*
X59282821Y-28208284D01*
X59377467Y-28372216D01*
X59485065Y-28491715D01*
X59504129Y-28512888D01*
X59657265Y-28624148D01*
X59657270Y-28624151D01*
X59830192Y-28701142D01*
X59830197Y-28701144D01*
X60015354Y-28740500D01*
X60015355Y-28740500D01*
X60204644Y-28740500D01*
X60204646Y-28740500D01*
X60389803Y-28701144D01*
X60562730Y-28624151D01*
X60715871Y-28512888D01*
X60842533Y-28372216D01*
X60937179Y-28208284D01*
X60995674Y-28028256D01*
X61015460Y-27840000D01*
X60995674Y-27651744D01*
X60937179Y-27471716D01*
X60842533Y-27307784D01*
X60842532Y-27307783D01*
X60840799Y-27304781D01*
X60824326Y-27236881D01*
X60847179Y-27170854D01*
X60902100Y-27127663D01*
X60971653Y-27121022D01*
X61021071Y-27142463D01*
X61147265Y-27234148D01*
X61147270Y-27234151D01*
X61320192Y-27311142D01*
X61320197Y-27311144D01*
X61505354Y-27350500D01*
X61505355Y-27350500D01*
X61694644Y-27350500D01*
X61694646Y-27350500D01*
X61879803Y-27311144D01*
X62052730Y-27234151D01*
X62205871Y-27122888D01*
X62332533Y-26982216D01*
X62427179Y-26818284D01*
X62455864Y-26730000D01*
X67064540Y-26730000D01*
X67084326Y-26918256D01*
X67084327Y-26918259D01*
X67142818Y-27098277D01*
X67142821Y-27098284D01*
X67237467Y-27262216D01*
X67364128Y-27402888D01*
X67364129Y-27402888D01*
X67517265Y-27514148D01*
X67517270Y-27514151D01*
X67690192Y-27591142D01*
X67690197Y-27591144D01*
X67875354Y-27630500D01*
X67875355Y-27630500D01*
X68064644Y-27630500D01*
X68064646Y-27630500D01*
X68249803Y-27591144D01*
X68422730Y-27514151D01*
X68575871Y-27402888D01*
X68702533Y-27262216D01*
X68797179Y-27098284D01*
X68855674Y-26918256D01*
X68868103Y-26800000D01*
X69594540Y-26800000D01*
X69614326Y-26988256D01*
X69614327Y-26988259D01*
X69672818Y-27168277D01*
X69672821Y-27168284D01*
X69767467Y-27332216D01*
X69831101Y-27402888D01*
X69894129Y-27472888D01*
X70047265Y-27584148D01*
X70047270Y-27584151D01*
X70220192Y-27661142D01*
X70220197Y-27661144D01*
X70405354Y-27700500D01*
X70405355Y-27700500D01*
X70594644Y-27700500D01*
X70594646Y-27700500D01*
X70779803Y-27661144D01*
X70952730Y-27584151D01*
X71105871Y-27472888D01*
X71232533Y-27332216D01*
X71327179Y-27168284D01*
X71385674Y-26988256D01*
X71405460Y-26800000D01*
X77194540Y-26800000D01*
X77214326Y-26988256D01*
X77214327Y-26988259D01*
X77272818Y-27168277D01*
X77272821Y-27168284D01*
X77367467Y-27332216D01*
X77431101Y-27402888D01*
X77494129Y-27472888D01*
X77647265Y-27584148D01*
X77647270Y-27584151D01*
X77820192Y-27661142D01*
X77820197Y-27661144D01*
X78005354Y-27700500D01*
X78005355Y-27700500D01*
X78194644Y-27700500D01*
X78194646Y-27700500D01*
X78379803Y-27661144D01*
X78552730Y-27584151D01*
X78705871Y-27472888D01*
X78832533Y-27332216D01*
X78927179Y-27168284D01*
X78985674Y-26988256D01*
X79005460Y-26800000D01*
X78985674Y-26611744D01*
X78927179Y-26431716D01*
X78832533Y-26267784D01*
X78705871Y-26127112D01*
X78670904Y-26101707D01*
X78552734Y-26015851D01*
X78552729Y-26015848D01*
X78379807Y-25938857D01*
X78379802Y-25938855D01*
X78234000Y-25907865D01*
X78194646Y-25899500D01*
X78005354Y-25899500D01*
X77972897Y-25906398D01*
X77820197Y-25938855D01*
X77820192Y-25938857D01*
X77647270Y-26015848D01*
X77647265Y-26015851D01*
X77494129Y-26127111D01*
X77367466Y-26267785D01*
X77272821Y-26431715D01*
X77272818Y-26431722D01*
X77226300Y-26574892D01*
X77214326Y-26611744D01*
X77194540Y-26800000D01*
X71405460Y-26800000D01*
X71385674Y-26611744D01*
X71327179Y-26431716D01*
X71232533Y-26267784D01*
X71139714Y-26164698D01*
X71109484Y-26101707D01*
X71118109Y-26032371D01*
X71162851Y-25978706D01*
X71206080Y-25960437D01*
X71249803Y-25951144D01*
X71422730Y-25874151D01*
X71575871Y-25762888D01*
X71702533Y-25622216D01*
X71797179Y-25458284D01*
X71855674Y-25278256D01*
X71875460Y-25090000D01*
X71855674Y-24901744D01*
X71797179Y-24721716D01*
X71702533Y-24557784D01*
X71596480Y-24440000D01*
X72464540Y-24440000D01*
X72484326Y-24628256D01*
X72484327Y-24628259D01*
X72542818Y-24808277D01*
X72542821Y-24808284D01*
X72637467Y-24972216D01*
X72764128Y-25112887D01*
X72764129Y-25112888D01*
X72917265Y-25224148D01*
X72917270Y-25224151D01*
X73090192Y-25301142D01*
X73090197Y-25301144D01*
X73275354Y-25340500D01*
X73275355Y-25340500D01*
X73464644Y-25340500D01*
X73464646Y-25340500D01*
X73649803Y-25301144D01*
X73822730Y-25224151D01*
X73975871Y-25112888D01*
X74102533Y-24972216D01*
X74197179Y-24808284D01*
X74255674Y-24628256D01*
X74275460Y-24440000D01*
X74255674Y-24251744D01*
X74197179Y-24071716D01*
X74102533Y-23907784D01*
X73975871Y-23767112D01*
X73963127Y-23757853D01*
X73822734Y-23655851D01*
X73822729Y-23655848D01*
X73649807Y-23578857D01*
X73649802Y-23578855D01*
X73504000Y-23547865D01*
X73464646Y-23539500D01*
X73275354Y-23539500D01*
X73242897Y-23546398D01*
X73090197Y-23578855D01*
X73090192Y-23578857D01*
X72917270Y-23655848D01*
X72917265Y-23655851D01*
X72764129Y-23767111D01*
X72637466Y-23907785D01*
X72542821Y-24071715D01*
X72542818Y-24071722D01*
X72485459Y-24248256D01*
X72484326Y-24251744D01*
X72464540Y-24440000D01*
X71596480Y-24440000D01*
X71575871Y-24417112D01*
X71567460Y-24411001D01*
X71422734Y-24305851D01*
X71422729Y-24305848D01*
X71249807Y-24228857D01*
X71249802Y-24228855D01*
X71100453Y-24197111D01*
X71064646Y-24189500D01*
X70875354Y-24189500D01*
X70842897Y-24196398D01*
X70690197Y-24228855D01*
X70690192Y-24228857D01*
X70517270Y-24305848D01*
X70517265Y-24305851D01*
X70364129Y-24417111D01*
X70237466Y-24557785D01*
X70142821Y-24721715D01*
X70142818Y-24721722D01*
X70094640Y-24870000D01*
X70084326Y-24901744D01*
X70064540Y-25090000D01*
X70084326Y-25278256D01*
X70084327Y-25278259D01*
X70142818Y-25458277D01*
X70142821Y-25458284D01*
X70237467Y-25622216D01*
X70298532Y-25690036D01*
X70330285Y-25725301D01*
X70360515Y-25788293D01*
X70351890Y-25857628D01*
X70307148Y-25911293D01*
X70263916Y-25929563D01*
X70220197Y-25938855D01*
X70220192Y-25938857D01*
X70047270Y-26015848D01*
X70047265Y-26015851D01*
X69894129Y-26127111D01*
X69767466Y-26267785D01*
X69672821Y-26431715D01*
X69672818Y-26431722D01*
X69626300Y-26574892D01*
X69614326Y-26611744D01*
X69594540Y-26800000D01*
X68868103Y-26800000D01*
X68875460Y-26730000D01*
X68855674Y-26541744D01*
X68797179Y-26361716D01*
X68702533Y-26197784D01*
X68575871Y-26057112D01*
X68541818Y-26032371D01*
X68422734Y-25945851D01*
X68422729Y-25945848D01*
X68249807Y-25868857D01*
X68249802Y-25868855D01*
X68104000Y-25837865D01*
X68064646Y-25829500D01*
X67875354Y-25829500D01*
X67842897Y-25836398D01*
X67690197Y-25868855D01*
X67690192Y-25868857D01*
X67517270Y-25945848D01*
X67517265Y-25945851D01*
X67364129Y-26057111D01*
X67237466Y-26197785D01*
X67142821Y-26361715D01*
X67142818Y-26361722D01*
X67084327Y-26541740D01*
X67084326Y-26541744D01*
X67064540Y-26730000D01*
X62455864Y-26730000D01*
X62485674Y-26638256D01*
X62505460Y-26450000D01*
X62485674Y-26261744D01*
X62427179Y-26081716D01*
X62332533Y-25917784D01*
X62205871Y-25777112D01*
X62205870Y-25777111D01*
X62052734Y-25665851D01*
X62052729Y-25665848D01*
X61879807Y-25588857D01*
X61879802Y-25588855D01*
X61734001Y-25557865D01*
X61694646Y-25549500D01*
X61505354Y-25549500D01*
X61472897Y-25556398D01*
X61320197Y-25588855D01*
X61320192Y-25588857D01*
X61147270Y-25665848D01*
X61147265Y-25665851D01*
X60994129Y-25777111D01*
X60867466Y-25917785D01*
X60772821Y-26081715D01*
X60772818Y-26081722D01*
X60714327Y-26261740D01*
X60714326Y-26261744D01*
X60694540Y-26450000D01*
X60714326Y-26638256D01*
X60714327Y-26638259D01*
X60772818Y-26818277D01*
X60772821Y-26818284D01*
X60869200Y-26985218D01*
X60885673Y-27053119D01*
X60862820Y-27119145D01*
X60807899Y-27162336D01*
X60738345Y-27168977D01*
X60688928Y-27147536D01*
X60562734Y-27055851D01*
X60562729Y-27055848D01*
X60389807Y-26978857D01*
X60389802Y-26978855D01*
X60244001Y-26947865D01*
X60204646Y-26939500D01*
X60015354Y-26939500D01*
X59982897Y-26946398D01*
X59830197Y-26978855D01*
X59830192Y-26978857D01*
X59657270Y-27055848D01*
X59657265Y-27055851D01*
X59504129Y-27167111D01*
X59377466Y-27307785D01*
X59282821Y-27471715D01*
X59282818Y-27471722D01*
X59224327Y-27651740D01*
X59224326Y-27651744D01*
X59204540Y-27840000D01*
X22804537Y-27840000D01*
X22779571Y-27690386D01*
X22698828Y-27455190D01*
X22580474Y-27236491D01*
X22427738Y-27040256D01*
X22244785Y-26871836D01*
X22244782Y-26871833D01*
X22036606Y-26735826D01*
X21808881Y-26635936D01*
X21567824Y-26574892D01*
X21567813Y-26574890D01*
X21402548Y-26561197D01*
X21382067Y-26559500D01*
X19757933Y-26559500D01*
X19738521Y-26561108D01*
X19572186Y-26574890D01*
X19572175Y-26574892D01*
X19331118Y-26635936D01*
X19103393Y-26735826D01*
X18895217Y-26871833D01*
X18712261Y-27040257D01*
X18559524Y-27236493D01*
X18441172Y-27455188D01*
X18441169Y-27455197D01*
X18360429Y-27690383D01*
X18335463Y-27840000D01*
X18319500Y-27935665D01*
X18319500Y-28184335D01*
X18000000Y-28184335D01*
X18000000Y-24000000D01*
X29594540Y-24000000D01*
X29614326Y-24188256D01*
X29614327Y-24188259D01*
X29672818Y-24368277D01*
X29672821Y-24368284D01*
X29767467Y-24532216D01*
X29884091Y-24661740D01*
X29894129Y-24672888D01*
X30047265Y-24784148D01*
X30047270Y-24784151D01*
X30220192Y-24861142D01*
X30220197Y-24861144D01*
X30405354Y-24900500D01*
X30405355Y-24900500D01*
X30594644Y-24900500D01*
X30594646Y-24900500D01*
X30779803Y-24861144D01*
X30804833Y-24850000D01*
X43294540Y-24850000D01*
X43314326Y-25038256D01*
X43314327Y-25038259D01*
X43372818Y-25218277D01*
X43372821Y-25218284D01*
X43467467Y-25382216D01*
X43535953Y-25458277D01*
X43594129Y-25522888D01*
X43747265Y-25634148D01*
X43747270Y-25634151D01*
X43920192Y-25711142D01*
X43920197Y-25711144D01*
X44105354Y-25750500D01*
X44105355Y-25750500D01*
X44294644Y-25750500D01*
X44294646Y-25750500D01*
X44479803Y-25711144D01*
X44652730Y-25634151D01*
X44805871Y-25522888D01*
X44932533Y-25382216D01*
X45027179Y-25218284D01*
X45085674Y-25038256D01*
X45103358Y-24870000D01*
X45874540Y-24870000D01*
X45894326Y-25058256D01*
X45894327Y-25058259D01*
X45952818Y-25238277D01*
X45952821Y-25238284D01*
X46047467Y-25402216D01*
X46097945Y-25458277D01*
X46174129Y-25542888D01*
X46327265Y-25654148D01*
X46327270Y-25654151D01*
X46500192Y-25731142D01*
X46500197Y-25731144D01*
X46685354Y-25770500D01*
X46685355Y-25770500D01*
X46874644Y-25770500D01*
X46874646Y-25770500D01*
X47059803Y-25731144D01*
X47232730Y-25654151D01*
X47385871Y-25542888D01*
X47512533Y-25402216D01*
X47607179Y-25238284D01*
X47665674Y-25058256D01*
X47685460Y-24870000D01*
X47665674Y-24681744D01*
X47607179Y-24501716D01*
X47512533Y-24337784D01*
X47385871Y-24197112D01*
X47373682Y-24188256D01*
X47232734Y-24085851D01*
X47232729Y-24085848D01*
X47174674Y-24060000D01*
X48364540Y-24060000D01*
X48384326Y-24248256D01*
X48384327Y-24248259D01*
X48442818Y-24428277D01*
X48442821Y-24428284D01*
X48537467Y-24592216D01*
X48654069Y-24721715D01*
X48664129Y-24732888D01*
X48817265Y-24844148D01*
X48817270Y-24844151D01*
X48990192Y-24921142D01*
X48990197Y-24921144D01*
X49175354Y-24960500D01*
X49175355Y-24960500D01*
X49364644Y-24960500D01*
X49364646Y-24960500D01*
X49549803Y-24921144D01*
X49722730Y-24844151D01*
X49875871Y-24732888D01*
X49896480Y-24710000D01*
X54174540Y-24710000D01*
X54194326Y-24898256D01*
X54194327Y-24898259D01*
X54252818Y-25078277D01*
X54252821Y-25078284D01*
X54347467Y-25242216D01*
X54428502Y-25332214D01*
X54474129Y-25382888D01*
X54627265Y-25494148D01*
X54627270Y-25494151D01*
X54800192Y-25571142D01*
X54800197Y-25571144D01*
X54985354Y-25610500D01*
X54985355Y-25610500D01*
X55174644Y-25610500D01*
X55174646Y-25610500D01*
X55359803Y-25571144D01*
X55532730Y-25494151D01*
X55685871Y-25382888D01*
X55812533Y-25242216D01*
X55907179Y-25078284D01*
X55965674Y-24898256D01*
X55985460Y-24710000D01*
X55965674Y-24521744D01*
X55907179Y-24341716D01*
X55812533Y-24177784D01*
X55685871Y-24037112D01*
X55685870Y-24037111D01*
X55532734Y-23925851D01*
X55532729Y-23925848D01*
X55359807Y-23848857D01*
X55359802Y-23848855D01*
X55185184Y-23811740D01*
X55174646Y-23809500D01*
X54985354Y-23809500D01*
X54974816Y-23811740D01*
X54800197Y-23848855D01*
X54800192Y-23848857D01*
X54627270Y-23925848D01*
X54627265Y-23925851D01*
X54474129Y-24037111D01*
X54347466Y-24177785D01*
X54252821Y-24341715D01*
X54252818Y-24341722D01*
X54197770Y-24511144D01*
X54194326Y-24521744D01*
X54174540Y-24710000D01*
X49896480Y-24710000D01*
X50002533Y-24592216D01*
X50097179Y-24428284D01*
X50155674Y-24248256D01*
X50175460Y-24060000D01*
X50155674Y-23871744D01*
X50097179Y-23691716D01*
X50002533Y-23527784D01*
X49875871Y-23387112D01*
X49875870Y-23387111D01*
X49722734Y-23275851D01*
X49722729Y-23275848D01*
X49549807Y-23198857D01*
X49549802Y-23198855D01*
X49404000Y-23167865D01*
X49364646Y-23159500D01*
X49175354Y-23159500D01*
X49142897Y-23166398D01*
X48990197Y-23198855D01*
X48990192Y-23198857D01*
X48817270Y-23275848D01*
X48817265Y-23275851D01*
X48664129Y-23387111D01*
X48537466Y-23527785D01*
X48442821Y-23691715D01*
X48442818Y-23691722D01*
X48384327Y-23871740D01*
X48384326Y-23871744D01*
X48364540Y-24060000D01*
X47174674Y-24060000D01*
X47059807Y-24008857D01*
X47059802Y-24008855D01*
X46914000Y-23977865D01*
X46874646Y-23969500D01*
X46685354Y-23969500D01*
X46652897Y-23976398D01*
X46500197Y-24008855D01*
X46500192Y-24008857D01*
X46327270Y-24085848D01*
X46327265Y-24085851D01*
X46174129Y-24197111D01*
X46047466Y-24337785D01*
X45952821Y-24501715D01*
X45952818Y-24501722D01*
X45894730Y-24680500D01*
X45894326Y-24681744D01*
X45874540Y-24870000D01*
X45103358Y-24870000D01*
X45105460Y-24850000D01*
X45085674Y-24661744D01*
X45027179Y-24481716D01*
X44932533Y-24317784D01*
X44805871Y-24177112D01*
X44766183Y-24148277D01*
X44652734Y-24065851D01*
X44652729Y-24065848D01*
X44479807Y-23988857D01*
X44479802Y-23988855D01*
X44334001Y-23957865D01*
X44294646Y-23949500D01*
X44105354Y-23949500D01*
X44072897Y-23956398D01*
X43920197Y-23988855D01*
X43920192Y-23988857D01*
X43747270Y-24065848D01*
X43747265Y-24065851D01*
X43594129Y-24177111D01*
X43467466Y-24317785D01*
X43372821Y-24481715D01*
X43372818Y-24481722D01*
X43336917Y-24592216D01*
X43314326Y-24661744D01*
X43294540Y-24850000D01*
X30804833Y-24850000D01*
X30952730Y-24784151D01*
X31105871Y-24672888D01*
X31232533Y-24532216D01*
X31327179Y-24368284D01*
X31385674Y-24188256D01*
X31405460Y-24000000D01*
X31385674Y-23811744D01*
X31375360Y-23780000D01*
X38224540Y-23780000D01*
X38244326Y-23968256D01*
X38244327Y-23968259D01*
X38302818Y-24148277D01*
X38302821Y-24148284D01*
X38397467Y-24312216D01*
X38505065Y-24431715D01*
X38524129Y-24452888D01*
X38677265Y-24564148D01*
X38677270Y-24564151D01*
X38850192Y-24641142D01*
X38850197Y-24641144D01*
X39035354Y-24680500D01*
X39035355Y-24680500D01*
X39224644Y-24680500D01*
X39224646Y-24680500D01*
X39409803Y-24641144D01*
X39582730Y-24564151D01*
X39735871Y-24452888D01*
X39862533Y-24312216D01*
X39957179Y-24148284D01*
X40015674Y-23968256D01*
X40035460Y-23780000D01*
X40015674Y-23591744D01*
X39957179Y-23411716D01*
X39862533Y-23247784D01*
X39805934Y-23184925D01*
X39775705Y-23121935D01*
X39784330Y-23052600D01*
X39829071Y-22998934D01*
X39895724Y-22977976D01*
X39923866Y-22980664D01*
X39969922Y-22990453D01*
X40052958Y-23008103D01*
X40052959Y-23008103D01*
X40242248Y-23008103D01*
X40242250Y-23008103D01*
X40259201Y-23004500D01*
X59894540Y-23004500D01*
X59914326Y-23192756D01*
X59914327Y-23192759D01*
X59972818Y-23372777D01*
X59972821Y-23372784D01*
X60067467Y-23536716D01*
X60153005Y-23631715D01*
X60194129Y-23677388D01*
X60347265Y-23788648D01*
X60347270Y-23788651D01*
X60520192Y-23865642D01*
X60520197Y-23865644D01*
X60705354Y-23905000D01*
X60705355Y-23905000D01*
X60894644Y-23905000D01*
X60894646Y-23905000D01*
X61079803Y-23865644D01*
X61079803Y-23865643D01*
X61086041Y-23864318D01*
X61155708Y-23869634D01*
X61211442Y-23911771D01*
X61229753Y-23947289D01*
X61252819Y-24018280D01*
X61252821Y-24018284D01*
X61347467Y-24182216D01*
X61424513Y-24267784D01*
X61474129Y-24322888D01*
X61627265Y-24434148D01*
X61627270Y-24434151D01*
X61800192Y-24511142D01*
X61800197Y-24511144D01*
X61985354Y-24550500D01*
X61985355Y-24550500D01*
X62174644Y-24550500D01*
X62174646Y-24550500D01*
X62359803Y-24511144D01*
X62532730Y-24434151D01*
X62685871Y-24322888D01*
X62812533Y-24182216D01*
X62872514Y-24078324D01*
X62923082Y-24030109D01*
X62991689Y-24016885D01*
X63052787Y-24040006D01*
X63147265Y-24108648D01*
X63147270Y-24108651D01*
X63320192Y-24185642D01*
X63320197Y-24185644D01*
X63505354Y-24225000D01*
X63505355Y-24225000D01*
X63677395Y-24225000D01*
X63744434Y-24244685D01*
X63790189Y-24297489D01*
X63800133Y-24366647D01*
X63784783Y-24410995D01*
X63772822Y-24431715D01*
X63772819Y-24431720D01*
X63772818Y-24431722D01*
X63720671Y-24592216D01*
X63714326Y-24611744D01*
X63694540Y-24800000D01*
X63714326Y-24988256D01*
X63714327Y-24988258D01*
X63714327Y-24988259D01*
X63772818Y-25168277D01*
X63772821Y-25168284D01*
X63867467Y-25332216D01*
X63994128Y-25472887D01*
X63994129Y-25472888D01*
X64147265Y-25584148D01*
X64147270Y-25584151D01*
X64320192Y-25661142D01*
X64320197Y-25661144D01*
X64505354Y-25700500D01*
X64505355Y-25700500D01*
X64694644Y-25700500D01*
X64694646Y-25700500D01*
X64879803Y-25661144D01*
X65052730Y-25584151D01*
X65205871Y-25472888D01*
X65332533Y-25332216D01*
X65427179Y-25168284D01*
X65485674Y-24988256D01*
X65488526Y-24961113D01*
X65515107Y-24896502D01*
X65572404Y-24856516D01*
X65642223Y-24853854D01*
X65702397Y-24889362D01*
X65733822Y-24951766D01*
X65735167Y-24961113D01*
X65744326Y-25048256D01*
X65744327Y-25048259D01*
X65802818Y-25228277D01*
X65802821Y-25228284D01*
X65897467Y-25392216D01*
X65956949Y-25458277D01*
X66024129Y-25532888D01*
X66177265Y-25644148D01*
X66177270Y-25644151D01*
X66350192Y-25721142D01*
X66350197Y-25721144D01*
X66535354Y-25760500D01*
X66535355Y-25760500D01*
X66724644Y-25760500D01*
X66724646Y-25760500D01*
X66909803Y-25721144D01*
X67082730Y-25644151D01*
X67235871Y-25532888D01*
X67362533Y-25392216D01*
X67457179Y-25228284D01*
X67515674Y-25048256D01*
X67535460Y-24860000D01*
X67515674Y-24671744D01*
X67457179Y-24491716D01*
X67362533Y-24327784D01*
X67235871Y-24187112D01*
X67235870Y-24187111D01*
X67082734Y-24075851D01*
X67082729Y-24075848D01*
X66909807Y-23998857D01*
X66909802Y-23998855D01*
X66764000Y-23967865D01*
X66724646Y-23959500D01*
X66535354Y-23959500D01*
X66502897Y-23966398D01*
X66350197Y-23998855D01*
X66350192Y-23998857D01*
X66177270Y-24075848D01*
X66177265Y-24075851D01*
X66024129Y-24187111D01*
X65897466Y-24327785D01*
X65802821Y-24491715D01*
X65802818Y-24491722D01*
X65747575Y-24661744D01*
X65744326Y-24671744D01*
X65741473Y-24698886D01*
X65714889Y-24763500D01*
X65657591Y-24803484D01*
X65587772Y-24806144D01*
X65527599Y-24770634D01*
X65496176Y-24708229D01*
X65494834Y-24698898D01*
X65485674Y-24611744D01*
X65427179Y-24431716D01*
X65332533Y-24267784D01*
X65205871Y-24127112D01*
X65180462Y-24108651D01*
X65052734Y-24015851D01*
X65052729Y-24015848D01*
X64879807Y-23938857D01*
X64879802Y-23938855D01*
X64733619Y-23907784D01*
X64694646Y-23899500D01*
X64522605Y-23899500D01*
X64455566Y-23879815D01*
X64409811Y-23827011D01*
X64399867Y-23757853D01*
X64415216Y-23713504D01*
X64427179Y-23692784D01*
X64432182Y-23677388D01*
X64461991Y-23585644D01*
X64466784Y-23570891D01*
X64506221Y-23513216D01*
X64570579Y-23486017D01*
X64639426Y-23497931D01*
X64655675Y-23507730D01*
X64657270Y-23508651D01*
X64830192Y-23585642D01*
X64830197Y-23585644D01*
X65015354Y-23625000D01*
X65015355Y-23625000D01*
X65204644Y-23625000D01*
X65204646Y-23625000D01*
X65389803Y-23585644D01*
X65562730Y-23508651D01*
X65715871Y-23397388D01*
X65842533Y-23256716D01*
X65937179Y-23092784D01*
X65995674Y-22912756D01*
X66015460Y-22724500D01*
X65995674Y-22536244D01*
X65937179Y-22356216D01*
X65842533Y-22192284D01*
X65715871Y-22051612D01*
X65715870Y-22051611D01*
X65562734Y-21940351D01*
X65562729Y-21940348D01*
X65389807Y-21863357D01*
X65389802Y-21863355D01*
X65244000Y-21832365D01*
X65204646Y-21824000D01*
X65015354Y-21824000D01*
X64982897Y-21830898D01*
X64830197Y-21863355D01*
X64830192Y-21863357D01*
X64657270Y-21940348D01*
X64657265Y-21940351D01*
X64504129Y-22051611D01*
X64377466Y-22192285D01*
X64282821Y-22356215D01*
X64282819Y-22356219D01*
X64243215Y-22478109D01*
X64203777Y-22535784D01*
X64139418Y-22562982D01*
X64070572Y-22551067D01*
X64054321Y-22541267D01*
X64052729Y-22540348D01*
X63879807Y-22463357D01*
X63879802Y-22463355D01*
X63734001Y-22432365D01*
X63694646Y-22424000D01*
X63505354Y-22424000D01*
X63472897Y-22430898D01*
X63320197Y-22463355D01*
X63320192Y-22463357D01*
X63147270Y-22540348D01*
X63147265Y-22540351D01*
X62994129Y-22651611D01*
X62867465Y-22792285D01*
X62807485Y-22896175D01*
X62756918Y-22944391D01*
X62688311Y-22957614D01*
X62627214Y-22934494D01*
X62532733Y-22865850D01*
X62532729Y-22865848D01*
X62359807Y-22788857D01*
X62359802Y-22788855D01*
X62214001Y-22757865D01*
X62174646Y-22749500D01*
X61985354Y-22749500D01*
X61909294Y-22765667D01*
X61793958Y-22790182D01*
X61724291Y-22784866D01*
X61668557Y-22742729D01*
X61650246Y-22707209D01*
X61627182Y-22636224D01*
X61627180Y-22636220D01*
X61627179Y-22636216D01*
X61532533Y-22472284D01*
X61405871Y-22331612D01*
X61359809Y-22298146D01*
X61317145Y-22242817D01*
X61311166Y-22173203D01*
X61343772Y-22111408D01*
X61382260Y-22084550D01*
X61552730Y-22008651D01*
X61705871Y-21897388D01*
X61832533Y-21756716D01*
X61927179Y-21592784D01*
X61985674Y-21412756D01*
X61987970Y-21390903D01*
X62014551Y-21326293D01*
X62071847Y-21286306D01*
X62141666Y-21283644D01*
X62161722Y-21290585D01*
X62320197Y-21361144D01*
X62505354Y-21400500D01*
X62505355Y-21400500D01*
X62694644Y-21400500D01*
X62694646Y-21400500D01*
X62696998Y-21400000D01*
X70194540Y-21400000D01*
X70214326Y-21588256D01*
X70214327Y-21588259D01*
X70272818Y-21768277D01*
X70272821Y-21768284D01*
X70367467Y-21932216D01*
X70436287Y-22008648D01*
X70494129Y-22072888D01*
X70647265Y-22184148D01*
X70647270Y-22184151D01*
X70820192Y-22261142D01*
X70820197Y-22261144D01*
X71005354Y-22300500D01*
X71005355Y-22300500D01*
X71194644Y-22300500D01*
X71194646Y-22300500D01*
X71379803Y-22261144D01*
X71552730Y-22184151D01*
X71705871Y-22072888D01*
X71832533Y-21932216D01*
X71927179Y-21768284D01*
X71978250Y-21611101D01*
X72017687Y-21553428D01*
X72082046Y-21526229D01*
X72150892Y-21538143D01*
X72188328Y-21566445D01*
X72194129Y-21572888D01*
X72221504Y-21592777D01*
X72347265Y-21684148D01*
X72347270Y-21684151D01*
X72520192Y-21761142D01*
X72520197Y-21761144D01*
X72705354Y-21800500D01*
X72705355Y-21800500D01*
X72894644Y-21800500D01*
X72894646Y-21800500D01*
X73079803Y-21761144D01*
X73252730Y-21684151D01*
X73405871Y-21572888D01*
X73532533Y-21432216D01*
X73627179Y-21268284D01*
X73685674Y-21088256D01*
X73705460Y-20900000D01*
X73685674Y-20711744D01*
X73627179Y-20531716D01*
X73532533Y-20367784D01*
X73405871Y-20227112D01*
X73370955Y-20201744D01*
X73252734Y-20115851D01*
X73252729Y-20115848D01*
X73079807Y-20038857D01*
X73079802Y-20038855D01*
X72934001Y-20007865D01*
X72894646Y-19999500D01*
X72705354Y-19999500D01*
X72672897Y-20006398D01*
X72520197Y-20038855D01*
X72520192Y-20038857D01*
X72347270Y-20115848D01*
X72347265Y-20115851D01*
X72194129Y-20227111D01*
X72067466Y-20367785D01*
X71972821Y-20531715D01*
X71972819Y-20531719D01*
X71921749Y-20688897D01*
X71882311Y-20746572D01*
X71817952Y-20773770D01*
X71749106Y-20761855D01*
X71711669Y-20733551D01*
X71705871Y-20727112D01*
X71705870Y-20727111D01*
X71552734Y-20615851D01*
X71552729Y-20615848D01*
X71379807Y-20538857D01*
X71379802Y-20538855D01*
X71234001Y-20507865D01*
X71194646Y-20499500D01*
X71005354Y-20499500D01*
X70972897Y-20506398D01*
X70820197Y-20538855D01*
X70820192Y-20538857D01*
X70647270Y-20615848D01*
X70647265Y-20615851D01*
X70494129Y-20727111D01*
X70367466Y-20867785D01*
X70272821Y-21031715D01*
X70272818Y-21031722D01*
X70215834Y-21207103D01*
X70214326Y-21211744D01*
X70194540Y-21400000D01*
X62696998Y-21400000D01*
X62879803Y-21361144D01*
X63052730Y-21284151D01*
X63205871Y-21172888D01*
X63332533Y-21032216D01*
X63427179Y-20868284D01*
X63485674Y-20688256D01*
X63505460Y-20500000D01*
X63497525Y-20424500D01*
X65724540Y-20424500D01*
X65744326Y-20612756D01*
X65744327Y-20612759D01*
X65802818Y-20792777D01*
X65802821Y-20792784D01*
X65897467Y-20956716D01*
X66015909Y-21088259D01*
X66024129Y-21097388D01*
X66177265Y-21208648D01*
X66177270Y-21208651D01*
X66350192Y-21285642D01*
X66350197Y-21285644D01*
X66535354Y-21325000D01*
X66535355Y-21325000D01*
X66724644Y-21325000D01*
X66724646Y-21325000D01*
X66909803Y-21285644D01*
X67082730Y-21208651D01*
X67235871Y-21097388D01*
X67362533Y-20956716D01*
X67457179Y-20792784D01*
X67515674Y-20612756D01*
X67535460Y-20424500D01*
X67531834Y-20390000D01*
X68074540Y-20390000D01*
X68094326Y-20578256D01*
X68094327Y-20578259D01*
X68152818Y-20758277D01*
X68152821Y-20758284D01*
X68247467Y-20922216D01*
X68346061Y-21031715D01*
X68374129Y-21062888D01*
X68527265Y-21174148D01*
X68527270Y-21174151D01*
X68700192Y-21251142D01*
X68700197Y-21251144D01*
X68885354Y-21290500D01*
X68885355Y-21290500D01*
X69074644Y-21290500D01*
X69074646Y-21290500D01*
X69259803Y-21251144D01*
X69432730Y-21174151D01*
X69585871Y-21062888D01*
X69712533Y-20922216D01*
X69807179Y-20758284D01*
X69865674Y-20578256D01*
X69885460Y-20390000D01*
X69865674Y-20201744D01*
X69807179Y-20021716D01*
X69712533Y-19857784D01*
X69585871Y-19717112D01*
X69585870Y-19717111D01*
X69432734Y-19605851D01*
X69432729Y-19605848D01*
X69259807Y-19528857D01*
X69259802Y-19528855D01*
X69114000Y-19497865D01*
X69074646Y-19489500D01*
X68885354Y-19489500D01*
X68852897Y-19496398D01*
X68700197Y-19528855D01*
X68700192Y-19528857D01*
X68527270Y-19605848D01*
X68527265Y-19605851D01*
X68374129Y-19717111D01*
X68247466Y-19857785D01*
X68152821Y-20021715D01*
X68152818Y-20021722D01*
X68094327Y-20201740D01*
X68094326Y-20201744D01*
X68074540Y-20390000D01*
X67531834Y-20390000D01*
X67515674Y-20236244D01*
X67457179Y-20056216D01*
X67362533Y-19892284D01*
X67235871Y-19751612D01*
X67188386Y-19717112D01*
X67082734Y-19640351D01*
X67082729Y-19640348D01*
X66909807Y-19563357D01*
X66909802Y-19563355D01*
X66764000Y-19532365D01*
X66724646Y-19524000D01*
X66535354Y-19524000D01*
X66502897Y-19530898D01*
X66350197Y-19563355D01*
X66350192Y-19563357D01*
X66177270Y-19640348D01*
X66177265Y-19640351D01*
X66024129Y-19751611D01*
X65897466Y-19892285D01*
X65802821Y-20056215D01*
X65802818Y-20056222D01*
X65747293Y-20227112D01*
X65744326Y-20236244D01*
X65724540Y-20424500D01*
X63497525Y-20424500D01*
X63485674Y-20311744D01*
X63427179Y-20131716D01*
X63332533Y-19967784D01*
X63205871Y-19827112D01*
X63205870Y-19827111D01*
X63052734Y-19715851D01*
X63052729Y-19715848D01*
X62879807Y-19638857D01*
X62879802Y-19638855D01*
X62724511Y-19605848D01*
X62694646Y-19599500D01*
X62505354Y-19599500D01*
X62475489Y-19605848D01*
X62320197Y-19638855D01*
X62320192Y-19638857D01*
X62147270Y-19715848D01*
X62147265Y-19715851D01*
X61994129Y-19827111D01*
X61867466Y-19967785D01*
X61772821Y-20131715D01*
X61772818Y-20131722D01*
X61731705Y-20258256D01*
X61714326Y-20311744D01*
X61712029Y-20333596D01*
X61685445Y-20398210D01*
X61628147Y-20438194D01*
X61558328Y-20440854D01*
X61538273Y-20433912D01*
X61379807Y-20363357D01*
X61379802Y-20363355D01*
X61234000Y-20332365D01*
X61194646Y-20324000D01*
X61005354Y-20324000D01*
X60972897Y-20330898D01*
X60820197Y-20363355D01*
X60820192Y-20363357D01*
X60647270Y-20440348D01*
X60647265Y-20440351D01*
X60494129Y-20551611D01*
X60367466Y-20692285D01*
X60272821Y-20856215D01*
X60272818Y-20856222D01*
X60214327Y-21036240D01*
X60214326Y-21036244D01*
X60194540Y-21224500D01*
X60214326Y-21412756D01*
X60214327Y-21412758D01*
X60214327Y-21412759D01*
X60272818Y-21592777D01*
X60272821Y-21592784D01*
X60367467Y-21756716D01*
X60463487Y-21863357D01*
X60494129Y-21897388D01*
X60540188Y-21930852D01*
X60582854Y-21986182D01*
X60588833Y-22055795D01*
X60556227Y-22117590D01*
X60517740Y-22144449D01*
X60347267Y-22220350D01*
X60347265Y-22220351D01*
X60194129Y-22331611D01*
X60067466Y-22472285D01*
X59972821Y-22636215D01*
X59972818Y-22636222D01*
X59914327Y-22816240D01*
X59914326Y-22816244D01*
X59894540Y-23004500D01*
X40259201Y-23004500D01*
X40427407Y-22968747D01*
X40600334Y-22891754D01*
X40753475Y-22780491D01*
X40880137Y-22639819D01*
X40974783Y-22475887D01*
X41033278Y-22295859D01*
X41053064Y-22107603D01*
X41033278Y-21919347D01*
X40974783Y-21739319D01*
X40880137Y-21575387D01*
X40753475Y-21434715D01*
X40753474Y-21434714D01*
X40600338Y-21323454D01*
X40600333Y-21323451D01*
X40427411Y-21246460D01*
X40427406Y-21246458D01*
X40264084Y-21211744D01*
X40242250Y-21207103D01*
X40052958Y-21207103D01*
X40031124Y-21211744D01*
X39867801Y-21246458D01*
X39867796Y-21246460D01*
X39694874Y-21323451D01*
X39694869Y-21323454D01*
X39541733Y-21434714D01*
X39415070Y-21575388D01*
X39320425Y-21739318D01*
X39320422Y-21739325D01*
X39280122Y-21863357D01*
X39261930Y-21919347D01*
X39242144Y-22107603D01*
X39261930Y-22295859D01*
X39261931Y-22295862D01*
X39320422Y-22475880D01*
X39320425Y-22475887D01*
X39415071Y-22639819D01*
X39431357Y-22657906D01*
X39471668Y-22702676D01*
X39501898Y-22765667D01*
X39493273Y-22835002D01*
X39448532Y-22888668D01*
X39381879Y-22909626D01*
X39353738Y-22906939D01*
X39338016Y-22903597D01*
X39224646Y-22879500D01*
X39035354Y-22879500D01*
X39002897Y-22886398D01*
X38850197Y-22918855D01*
X38850192Y-22918857D01*
X38677270Y-22995848D01*
X38677265Y-22995851D01*
X38524129Y-23107111D01*
X38397466Y-23247785D01*
X38302821Y-23411715D01*
X38302818Y-23411722D01*
X38246308Y-23585644D01*
X38244326Y-23591744D01*
X38224540Y-23780000D01*
X31375360Y-23780000D01*
X31327179Y-23631716D01*
X31232533Y-23467784D01*
X31105871Y-23327112D01*
X31105870Y-23327111D01*
X30952734Y-23215851D01*
X30952729Y-23215848D01*
X30779807Y-23138857D01*
X30779802Y-23138855D01*
X30630453Y-23107111D01*
X30594646Y-23099500D01*
X30405354Y-23099500D01*
X30372897Y-23106398D01*
X30220197Y-23138855D01*
X30220192Y-23138857D01*
X30047270Y-23215848D01*
X30047265Y-23215851D01*
X29894129Y-23327111D01*
X29767466Y-23467785D01*
X29672821Y-23631715D01*
X29672818Y-23631722D01*
X29624640Y-23780000D01*
X29614326Y-23811744D01*
X29600966Y-23938856D01*
X29594815Y-23997388D01*
X29594540Y-24000000D01*
X18000000Y-24000000D01*
X18000000Y-16124000D01*
X18019685Y-16056961D01*
X18072489Y-16011206D01*
X18124000Y-16000000D01*
X31831583Y-16000000D01*
X31898622Y-16019685D01*
G37*
%TD.AperFunction*%
%TD*%
M02*
