%TF.GenerationSoftware,KiCad,Pcbnew,7.0.7*%
%TF.CreationDate,2024-12-12T20:18:20-05:00*%
%TF.ProjectId,design-files_CB,64657369-676e-42d6-9669-6c65735f4342,rev?*%
%TF.SameCoordinates,Original*%
%TF.FileFunction,Copper,L4,Bot*%
%TF.FilePolarity,Positive*%
%FSLAX46Y46*%
G04 Gerber Fmt 4.6, Leading zero omitted, Abs format (unit mm)*
G04 Created by KiCad (PCBNEW 7.0.7) date 2024-12-12 20:18:20*
%MOMM*%
%LPD*%
G01*
G04 APERTURE LIST*
G04 Aperture macros list*
%AMRoundRect*
0 Rectangle with rounded corners*
0 $1 Rounding radius*
0 $2 $3 $4 $5 $6 $7 $8 $9 X,Y pos of 4 corners*
0 Add a 4 corners polygon primitive as box body*
4,1,4,$2,$3,$4,$5,$6,$7,$8,$9,$2,$3,0*
0 Add four circle primitives for the rounded corners*
1,1,$1+$1,$2,$3*
1,1,$1+$1,$4,$5*
1,1,$1+$1,$6,$7*
1,1,$1+$1,$8,$9*
0 Add four rect primitives between the rounded corners*
20,1,$1+$1,$2,$3,$4,$5,0*
20,1,$1+$1,$4,$5,$6,$7,0*
20,1,$1+$1,$6,$7,$8,$9,0*
20,1,$1+$1,$8,$9,$2,$3,0*%
G04 Aperture macros list end*
%TA.AperFunction,ComponentPad*%
%ADD10R,2.000000X4.000000*%
%TD*%
%TA.AperFunction,ComponentPad*%
%ADD11O,2.000000X3.300000*%
%TD*%
%TA.AperFunction,ComponentPad*%
%ADD12O,3.500000X2.000000*%
%TD*%
%TA.AperFunction,SMDPad,CuDef*%
%ADD13RoundRect,0.250000X1.425000X-0.362500X1.425000X0.362500X-1.425000X0.362500X-1.425000X-0.362500X0*%
%TD*%
%TA.AperFunction,SMDPad,CuDef*%
%ADD14RoundRect,0.250000X-0.262500X-0.450000X0.262500X-0.450000X0.262500X0.450000X-0.262500X0.450000X0*%
%TD*%
%TA.AperFunction,SMDPad,CuDef*%
%ADD15RoundRect,0.250000X0.262500X0.450000X-0.262500X0.450000X-0.262500X-0.450000X0.262500X-0.450000X0*%
%TD*%
%TA.AperFunction,ComponentPad*%
%ADD16R,1.700000X1.700000*%
%TD*%
%TA.AperFunction,ComponentPad*%
%ADD17O,1.700000X1.700000*%
%TD*%
%TA.AperFunction,SMDPad,CuDef*%
%ADD18RoundRect,0.150000X0.150000X-0.825000X0.150000X0.825000X-0.150000X0.825000X-0.150000X-0.825000X0*%
%TD*%
%TA.AperFunction,SMDPad,CuDef*%
%ADD19RoundRect,0.250000X0.475000X-0.250000X0.475000X0.250000X-0.475000X0.250000X-0.475000X-0.250000X0*%
%TD*%
%TA.AperFunction,SMDPad,CuDef*%
%ADD20RoundRect,0.250000X-1.425000X0.362500X-1.425000X-0.362500X1.425000X-0.362500X1.425000X0.362500X0*%
%TD*%
%TA.AperFunction,SMDPad,CuDef*%
%ADD21RoundRect,0.250000X-0.712500X-2.475000X0.712500X-2.475000X0.712500X2.475000X-0.712500X2.475000X0*%
%TD*%
%TA.AperFunction,SMDPad,CuDef*%
%ADD22RoundRect,0.150000X-0.150000X0.825000X-0.150000X-0.825000X0.150000X-0.825000X0.150000X0.825000X0*%
%TD*%
%TA.AperFunction,SMDPad,CuDef*%
%ADD23RoundRect,0.250000X-0.475000X0.250000X-0.475000X-0.250000X0.475000X-0.250000X0.475000X0.250000X0*%
%TD*%
%TA.AperFunction,SMDPad,CuDef*%
%ADD24RoundRect,0.075000X-0.075000X0.650000X-0.075000X-0.650000X0.075000X-0.650000X0.075000X0.650000X0*%
%TD*%
%TA.AperFunction,SMDPad,CuDef*%
%ADD25RoundRect,0.250000X-0.250000X-0.475000X0.250000X-0.475000X0.250000X0.475000X-0.250000X0.475000X0*%
%TD*%
%TA.AperFunction,ViaPad*%
%ADD26C,0.800000*%
%TD*%
%TA.AperFunction,ViaPad*%
%ADD27C,1.600000*%
%TD*%
%TA.AperFunction,Conductor*%
%ADD28C,0.250000*%
%TD*%
%TA.AperFunction,Conductor*%
%ADD29C,2.350000*%
%TD*%
%TA.AperFunction,Conductor*%
%ADD30C,0.750000*%
%TD*%
%TA.AperFunction,Conductor*%
%ADD31C,1.000000*%
%TD*%
%TA.AperFunction,Conductor*%
%ADD32C,1.500000*%
%TD*%
%TA.AperFunction,Conductor*%
%ADD33C,3.000000*%
%TD*%
G04 APERTURE END LIST*
D10*
%TO.P,J1,1*%
%TO.N,/9V_IN*%
X27570000Y-32560000D03*
D11*
%TO.P,J1,2*%
%TO.N,GND*%
X21570000Y-32560000D03*
D12*
%TO.P,J1,MP*%
%TO.N,N/C*%
X20570000Y-28060000D03*
X20570000Y-37060000D03*
%TD*%
D13*
%TO.P,R14,1*%
%TO.N,Net-(R14-Pad1)*%
X75510000Y-39592500D03*
%TO.P,R14,2*%
%TO.N,4-Heater*%
X75510000Y-33667500D03*
%TD*%
D14*
%TO.P,R6,1*%
%TO.N,/current-sensing/V_{h1}*%
X39187500Y-36380000D03*
%TO.P,R6,2*%
%TO.N,Net-(U2A--)*%
X41012500Y-36380000D03*
%TD*%
D15*
%TO.P,R18,1*%
%TO.N,+9V*%
X22912500Y-50000000D03*
%TO.P,R18,2*%
%TO.N,Net-(D18-A)*%
X21087500Y-50000000D03*
%TD*%
%TO.P,R22,1*%
%TO.N,/current-sensing/V_{h4}*%
X64622500Y-37420000D03*
%TO.P,R22,2*%
%TO.N,Net-(U4B--)*%
X62797500Y-37420000D03*
%TD*%
D13*
%TO.P,R1,1*%
%TO.N,Net-(R1-Pad1)*%
X47560000Y-39480000D03*
%TO.P,R1,2*%
%TO.N,1-Heater*%
X47560000Y-33555000D03*
%TD*%
D14*
%TO.P,R11,1*%
%TO.N,Net-(U4A-+)*%
X60127500Y-49430000D03*
%TO.P,R11,2*%
%TO.N,Net-(R11-Pad2)*%
X61952500Y-49430000D03*
%TD*%
D16*
%TO.P,J8,1,Pin_1*%
%TO.N,H2-D12*%
X35650000Y-17840000D03*
D17*
%TO.P,J8,2,Pin_2*%
%TO.N,H1-D13*%
X38190000Y-17840000D03*
%TO.P,J8,3,Pin_3*%
%TO.N,AREF*%
X40730000Y-17840000D03*
%TO.P,J8,4,Pin_4*%
%TO.N,GND*%
X43270000Y-17840000D03*
%TO.P,J8,5,Pin_5*%
%TO.N,H4-D19*%
X45810000Y-17840000D03*
%TO.P,J8,6,Pin_6*%
%TO.N,H3-D18*%
X48350000Y-17840000D03*
%TO.P,J8,7,Pin_7*%
%TO.N,S-D11*%
X50890000Y-17840000D03*
%TO.P,J8,8,Pin_8*%
%TO.N,S-D10*%
X53430000Y-17840000D03*
%TO.P,J8,9,Pin_9*%
%TO.N,S-D9*%
X55970000Y-17840000D03*
%TO.P,J8,10,Pin_10*%
%TO.N,S-D8*%
X58510000Y-17840000D03*
%TD*%
D15*
%TO.P,R10,1*%
%TO.N,3-Heater*%
X66222500Y-51500000D03*
%TO.P,R10,2*%
%TO.N,Net-(U4A--)*%
X64397500Y-51500000D03*
%TD*%
D18*
%TO.P,U4,1*%
%TO.N,/current-sensing/V_{h3}*%
X65120000Y-44645000D03*
%TO.P,U4,2,-*%
%TO.N,Net-(U4A--)*%
X63850000Y-44645000D03*
%TO.P,U4,3,+*%
%TO.N,Net-(U4A-+)*%
X62580000Y-44645000D03*
%TO.P,U4,4,V-*%
%TO.N,GND*%
X61310000Y-44645000D03*
%TO.P,U4,5,+*%
%TO.N,Net-(U4B-+)*%
X61310000Y-39695000D03*
%TO.P,U4,6,-*%
%TO.N,Net-(U4B--)*%
X62580000Y-39695000D03*
%TO.P,U4,7*%
%TO.N,/current-sensing/V_{h4}*%
X63850000Y-39695000D03*
%TO.P,U4,8,V+*%
%TO.N,+9V*%
X65120000Y-39695000D03*
%TD*%
D19*
%TO.P,C3,1*%
%TO.N,+9V*%
X67790000Y-39650000D03*
%TO.P,C3,2*%
%TO.N,GND*%
X67790000Y-37750000D03*
%TD*%
D14*
%TO.P,R4,1*%
%TO.N,Net-(U2B-+)*%
X45357500Y-46700000D03*
%TO.P,R4,2*%
%TO.N,Net-(R2-Pad1)*%
X47182500Y-46700000D03*
%TD*%
D20*
%TO.P,R9,1*%
%TO.N,Net-(R11-Pad2)*%
X75500000Y-50395000D03*
%TO.P,R9,2*%
%TO.N,3-Heater*%
X75500000Y-56320000D03*
%TD*%
%TO.P,R2,1*%
%TO.N,Net-(R2-Pad1)*%
X49540000Y-49660000D03*
%TO.P,R2,2*%
%TO.N,2-Heater*%
X49540000Y-55585000D03*
%TD*%
D15*
%TO.P,R5,1*%
%TO.N,1-Heater*%
X41012500Y-34400000D03*
%TO.P,R5,2*%
%TO.N,Net-(U2A--)*%
X39187500Y-34400000D03*
%TD*%
D16*
%TO.P,J7,1,Pin_1*%
%TO.N,A5*%
X80350000Y-66090000D03*
D17*
%TO.P,J7,2,Pin_2*%
%TO.N,A4*%
X77810000Y-66090000D03*
%TO.P,J7,3,Pin_3*%
%TO.N,A3*%
X75270000Y-66090000D03*
%TO.P,J7,4,Pin_4*%
%TO.N,A2*%
X72730000Y-66090000D03*
%TO.P,J7,5,Pin_5*%
%TO.N,A1*%
X70190000Y-66090000D03*
%TO.P,J7,6,Pin_6*%
%TO.N,A0*%
X67650000Y-66090000D03*
%TD*%
D15*
%TO.P,R12,1*%
%TO.N,Net-(U4A-+)*%
X62312500Y-46960000D03*
%TO.P,R12,2*%
%TO.N,GND*%
X60487500Y-46960000D03*
%TD*%
D21*
%TO.P,F1,1*%
%TO.N,/9V_IN*%
X27632500Y-42170000D03*
%TO.P,F1,2*%
%TO.N,+9V*%
X34407500Y-42170000D03*
%TD*%
D22*
%TO.P,U2,1*%
%TO.N,/current-sensing/V_{h1}*%
X39860000Y-39695000D03*
%TO.P,U2,2,-*%
%TO.N,Net-(U2A--)*%
X41130000Y-39695000D03*
%TO.P,U2,3,+*%
%TO.N,Net-(U2A-+)*%
X42400000Y-39695000D03*
%TO.P,U2,4,V-*%
%TO.N,GND*%
X43670000Y-39695000D03*
%TO.P,U2,5,+*%
%TO.N,Net-(U2B-+)*%
X43670000Y-44645000D03*
%TO.P,U2,6,-*%
%TO.N,Net-(U2B--)*%
X42400000Y-44645000D03*
%TO.P,U2,7*%
%TO.N,/current-sensing/V_{h2}*%
X41130000Y-44645000D03*
%TO.P,U2,8,V+*%
%TO.N,+9V*%
X39860000Y-44645000D03*
%TD*%
D14*
%TO.P,R8,1*%
%TO.N,/current-sensing/V_{h2}*%
X40377500Y-47010000D03*
%TO.P,R8,2*%
%TO.N,Net-(U2B--)*%
X42202500Y-47010000D03*
%TD*%
D15*
%TO.P,R13,1*%
%TO.N,/current-sensing/V_{h3}*%
X66122500Y-47090000D03*
%TO.P,R13,2*%
%TO.N,Net-(U4A--)*%
X64297500Y-47090000D03*
%TD*%
%TO.P,R3,1*%
%TO.N,2-Heater*%
X42282500Y-49650000D03*
%TO.P,R3,2*%
%TO.N,Net-(U2B--)*%
X40457500Y-49650000D03*
%TD*%
%TO.P,R16,1*%
%TO.N,Net-(U4B-+)*%
X61132500Y-35130000D03*
%TO.P,R16,2*%
%TO.N,Net-(R14-Pad1)*%
X59307500Y-35130000D03*
%TD*%
D14*
%TO.P,R20,1*%
%TO.N,Net-(U2A-+)*%
X42687500Y-37130000D03*
%TO.P,R20,2*%
%TO.N,GND*%
X44512500Y-37130000D03*
%TD*%
%TO.P,R7,1*%
%TO.N,Net-(U2B-+)*%
X45367500Y-44710000D03*
%TO.P,R7,2*%
%TO.N,GND*%
X47192500Y-44710000D03*
%TD*%
%TO.P,R19,1*%
%TO.N,Net-(U2A-+)*%
X42687500Y-35150000D03*
%TO.P,R19,2*%
%TO.N,Net-(R1-Pad1)*%
X44512500Y-35150000D03*
%TD*%
D16*
%TO.P,J6,1,Pin_1*%
%TO.N,Vin*%
X62570000Y-66090000D03*
D17*
%TO.P,J6,2,Pin_2*%
%TO.N,GND*%
X60030000Y-66090000D03*
%TO.P,J6,3,Pin_3*%
X57490000Y-66090000D03*
%TO.P,J6,4,Pin_4*%
%TO.N,+5V*%
X54950000Y-66090000D03*
%TO.P,J6,5,Pin_5*%
%TO.N,+3V3*%
X52410000Y-66090000D03*
%TO.P,J6,6,Pin_6*%
%TO.N,Reset*%
X49870000Y-66090000D03*
%TO.P,J6,7,Pin_7*%
%TO.N,IOREF*%
X47330000Y-66090000D03*
%TO.P,J6,8,Pin_8*%
%TO.N,unconnected-(J6-Pin_8-Pad8)*%
X44790000Y-66090000D03*
%TD*%
D23*
%TO.P,C7,1*%
%TO.N,+9V*%
X37600000Y-44750000D03*
%TO.P,C7,2*%
%TO.N,GND*%
X37600000Y-46650000D03*
%TD*%
D15*
%TO.P,R15,1*%
%TO.N,4-Heater*%
X64592500Y-35370000D03*
%TO.P,R15,2*%
%TO.N,Net-(U4B--)*%
X62767500Y-35370000D03*
%TD*%
%TO.P,R17,1*%
%TO.N,+5V*%
X22912500Y-54000000D03*
%TO.P,R17,2*%
%TO.N,Net-(D17-A)*%
X21087500Y-54000000D03*
%TD*%
D24*
%TO.P,U3,1,SCLK*%
%TO.N,CLK*%
X61580000Y-24880000D03*
%TO.P,U3,2,~{CS}*%
%TO.N,CS*%
X62080000Y-24880000D03*
%TO.P,U3,3,VDD*%
%TO.N,+5V*%
X62580000Y-24880000D03*
%TO.P,U3,4,AIN0*%
%TO.N,/current-sensing/V_{h1}*%
X63080000Y-24880000D03*
%TO.P,U3,5,AIN1*%
%TO.N,/current-sensing/V_{h2}*%
X63580000Y-24880000D03*
%TO.P,U3,6,AIN2*%
%TO.N,/current-sensing/V_{h4}*%
X63580000Y-29280000D03*
%TO.P,U3,7,AIN3*%
%TO.N,/current-sensing/V_{h3}*%
X63080000Y-29280000D03*
%TO.P,U3,8*%
%TO.N,N/C*%
X62580000Y-29280000D03*
%TO.P,U3,9,DOUT/~{DRDY}*%
%TO.N,DOUT*%
X62080000Y-29280000D03*
%TO.P,U3,10,DIN*%
%TO.N,DIN*%
X61580000Y-29280000D03*
%TD*%
D25*
%TO.P,C2,1*%
%TO.N,GND*%
X50420000Y-38020000D03*
%TO.P,C2,2*%
%TO.N,+5V*%
X52320000Y-38020000D03*
%TD*%
D16*
%TO.P,J9,1,Pin_1*%
%TO.N,DIN*%
X62570000Y-17840000D03*
D17*
%TO.P,J9,2,Pin_2*%
%TO.N,~{ENABLE}*%
X65110000Y-17840000D03*
%TO.P,J9,3,Pin_3*%
%TO.N,DOUT*%
X67650000Y-17840000D03*
%TO.P,J9,4,Pin_4*%
%TO.N,~{RST}*%
X70190000Y-17840000D03*
%TO.P,J9,5,Pin_5*%
%TO.N,CS*%
X72730000Y-17840000D03*
%TO.P,J9,6,Pin_6*%
%TO.N,CLK*%
X75270000Y-17840000D03*
%TO.P,J9,7,Pin_7*%
%TO.N,unconnected-(J9-Pin_7-Pad7)*%
X77810000Y-17840000D03*
%TO.P,J9,8,Pin_8*%
%TO.N,unconnected-(J9-Pin_8-Pad8)*%
X80350000Y-17840000D03*
%TD*%
D15*
%TO.P,R21,1*%
%TO.N,Net-(U4B-+)*%
X61132500Y-37130000D03*
%TO.P,R21,2*%
%TO.N,GND*%
X59307500Y-37130000D03*
%TD*%
D26*
%TO.N,+9V*%
X41910000Y-42170000D03*
X76470000Y-42173524D03*
X45260000Y-42170000D03*
X70460000Y-42170000D03*
X81940000Y-42190000D03*
D27*
X34210000Y-45890000D03*
D26*
X74100000Y-42170000D03*
X50360000Y-42170000D03*
D27*
X34170000Y-37880000D03*
D26*
X36840000Y-42170000D03*
%TO.N,GND*%
X70490000Y-39500000D03*
X52900000Y-54200000D03*
X80500000Y-53900000D03*
X22810000Y-55299500D03*
X29667324Y-42203068D03*
X80400000Y-51800000D03*
X69160000Y-37450000D03*
X48860000Y-44680000D03*
X60240000Y-44670000D03*
X22790000Y-52700500D03*
X38290000Y-38820000D03*
X80200000Y-55800000D03*
X49004500Y-45930000D03*
X53100000Y-27000000D03*
X51800000Y-22900000D03*
X22810000Y-48700500D03*
X80360000Y-46300000D03*
X79400000Y-29100000D03*
X27770000Y-46040000D03*
X46370000Y-36060000D03*
X79300000Y-51800000D03*
X66590000Y-45350000D03*
X50220000Y-34570000D03*
X59700000Y-23800000D03*
X52800000Y-55875500D03*
X51800000Y-29100000D03*
X79300000Y-24700000D03*
X58700000Y-39700000D03*
X22810000Y-51299500D03*
X25080000Y-42210000D03*
X35750000Y-49790000D03*
%TO.N,+5V*%
X61600000Y-26450000D03*
X70970000Y-25090000D03*
X44210000Y-56100000D03*
X70850000Y-55770000D03*
X24060000Y-53990000D03*
X53270000Y-39600000D03*
X44200000Y-24850000D03*
%TO.N,2-Heater*%
X49330000Y-56840000D03*
X42300000Y-51010000D03*
X48010000Y-54320000D03*
%TO.N,1-Heater*%
X48030000Y-31900000D03*
%TO.N,3-Heater*%
X75580000Y-58880000D03*
%TO.N,4-Heater*%
X75490000Y-32510000D03*
%TO.N,H3-D18*%
X75180000Y-36190000D03*
X80500000Y-35690000D03*
X80740000Y-20070000D03*
%TO.N,H4-D19*%
X76010000Y-46270000D03*
X72800000Y-20900000D03*
%TO.N,CS*%
X71100000Y-21400000D03*
X62080000Y-23650000D03*
X61100000Y-21224500D03*
%TO.N,~{ENABLE}*%
X60800000Y-23004500D03*
X65110000Y-22724500D03*
%TO.N,Net-(D17-A)*%
X20070000Y-55190000D03*
%TO.N,Net-(D18-A)*%
X20100000Y-51160000D03*
%TO.N,2-CS*%
X39190000Y-62530000D03*
X57000000Y-62100000D03*
%TO.N,DIN*%
X30500000Y-24000000D03*
X66630000Y-24860000D03*
X39130000Y-23780000D03*
X66630000Y-20424500D03*
X62600000Y-20500000D03*
%TO.N,~{RST}*%
X41700000Y-29100000D03*
X68980000Y-20390000D03*
X40147604Y-22107603D03*
X68300000Y-56275500D03*
X42590000Y-54590000D03*
%TO.N,DOUT*%
X78200000Y-58450000D03*
X70500000Y-26800000D03*
X67970000Y-26730000D03*
X78100000Y-26800000D03*
X71650000Y-62880000D03*
X73000000Y-58200000D03*
X44260000Y-63240000D03*
%TO.N,2-CS_T1*%
X58540000Y-60440000D03*
X46670000Y-61350000D03*
%TO.N,2-CS_T2*%
X59980000Y-52850000D03*
X45680000Y-53930000D03*
%TO.N,CLK*%
X49270000Y-24060000D03*
X73370000Y-24440000D03*
X50580000Y-54360000D03*
X75780000Y-53910000D03*
%TO.N,1-CS*%
X31900000Y-29100000D03*
X39160000Y-29114502D03*
X35700000Y-51500000D03*
X54320000Y-52570000D03*
%TO.N,1-CS_T2*%
X55080000Y-24710000D03*
X46780000Y-24870000D03*
%TO.N,1-CS_T3*%
X52900000Y-35900000D03*
X56220000Y-39860000D03*
%TO.N,3-CS_T1*%
X74300000Y-61200000D03*
X63770000Y-58120000D03*
%TO.N,3-CS_T2*%
X72330000Y-56210000D03*
X65000000Y-57000000D03*
%TO.N,4-CS_T1*%
X65429283Y-32605316D03*
X73290000Y-32210000D03*
%TO.N,4-CS_T2*%
X75270000Y-28860000D03*
X62970000Y-31110000D03*
%TO.N,4-CS_T3*%
X79300000Y-34100000D03*
X61842299Y-32132299D03*
%TO.N,Net-(U4A--)*%
X64160000Y-53000000D03*
X64268137Y-48638853D03*
%TO.N,/current-sensing/V_{h1}*%
X60110000Y-27840000D03*
X63600000Y-23324500D03*
%TO.N,/current-sensing/V_{h2}*%
X64600000Y-24800000D03*
X57985500Y-49170000D03*
%TO.N,/current-sensing/V_{h4}*%
X70020000Y-36280000D03*
X69600000Y-29100000D03*
%TO.N,/current-sensing/V_{h3}*%
X77000000Y-29300000D03*
X76940000Y-48200000D03*
%TO.N,Net-(R1-Pad1)*%
X46990000Y-38450000D03*
%TO.N,Net-(R2-Pad1)*%
X45100000Y-49700000D03*
%TO.N,Net-(R11-Pad2)*%
X71550000Y-50390000D03*
%TO.N,Net-(R14-Pad1)*%
X70850000Y-34110000D03*
X79430000Y-39580000D03*
X70860000Y-37300000D03*
%TD*%
D28*
%TO.N,+9V*%
X37600000Y-42930000D02*
X36840000Y-42170000D01*
D29*
X34210000Y-45890000D02*
X34210000Y-42367500D01*
X34210000Y-42367500D02*
X34407500Y-42170000D01*
X41910000Y-42170000D02*
X36840000Y-42170000D01*
D28*
X39755000Y-44750000D02*
X39860000Y-44645000D01*
D29*
X74100000Y-42170000D02*
X75300000Y-42170000D01*
D30*
X37600000Y-44750000D02*
X39755000Y-44750000D01*
D29*
X67880000Y-42170000D02*
X70460000Y-42170000D01*
D28*
X54700000Y-42270000D02*
X54600000Y-42170000D01*
X75800000Y-42670000D02*
X75300000Y-42170000D01*
D29*
X81940000Y-42190000D02*
X81960000Y-42170000D01*
X34170000Y-41932500D02*
X34407500Y-42170000D01*
X41910000Y-42170000D02*
X45260000Y-42170000D01*
D28*
X30100000Y-50000000D02*
X34210000Y-45890000D01*
D29*
X70460000Y-42170000D02*
X74100000Y-42170000D01*
X34170000Y-37880000D02*
X34170000Y-41932500D01*
D28*
X67790000Y-42080000D02*
X67880000Y-42170000D01*
D29*
X50360000Y-42170000D02*
X54600000Y-42170000D01*
X36840000Y-42170000D02*
X34407500Y-42170000D01*
D31*
X67790000Y-39650000D02*
X67780000Y-39660000D01*
D28*
X81960000Y-42170000D02*
X81970000Y-42180000D01*
D31*
X67780000Y-39660000D02*
X65175000Y-39660000D01*
D28*
X22912500Y-50000000D02*
X30100000Y-50000000D01*
D29*
X54600000Y-42170000D02*
X67880000Y-42170000D01*
D31*
X67790000Y-39650000D02*
X67790000Y-42080000D01*
D30*
X37600000Y-44750000D02*
X37600000Y-42930000D01*
D29*
X45260000Y-42170000D02*
X50360000Y-42170000D01*
X75300000Y-42170000D02*
X81940000Y-42190000D01*
D28*
%TO.N,GND*%
X43670000Y-37972500D02*
X44512500Y-37130000D01*
X59307500Y-37130000D02*
X59307500Y-39092500D01*
X61310000Y-46137500D02*
X60487500Y-46960000D01*
X48830000Y-44710000D02*
X48860000Y-44680000D01*
X61310000Y-44645000D02*
X60265000Y-44645000D01*
X60265000Y-44645000D02*
X60240000Y-44670000D01*
X44512500Y-37130000D02*
X45300000Y-37130000D01*
X67790000Y-37750000D02*
X68860000Y-37750000D01*
X37600000Y-47940000D02*
X35750000Y-49790000D01*
X68860000Y-37750000D02*
X69160000Y-37450000D01*
X50420000Y-34770000D02*
X50220000Y-34570000D01*
X47192500Y-44710000D02*
X48830000Y-44710000D01*
X59307500Y-39092500D02*
X58700000Y-39700000D01*
X45300000Y-37130000D02*
X46370000Y-36060000D01*
X50420000Y-38020000D02*
X50420000Y-34770000D01*
X43670000Y-39695000D02*
X43670000Y-37972500D01*
X61310000Y-44645000D02*
X61310000Y-46137500D01*
X37600000Y-46650000D02*
X37600000Y-47940000D01*
%TO.N,+5V*%
X53270000Y-39600000D02*
X53270000Y-38970000D01*
X62580000Y-25670685D02*
X62580000Y-24880000D01*
X53270000Y-38970000D02*
X52320000Y-38020000D01*
X61600000Y-26450000D02*
X61800685Y-26450000D01*
X61800685Y-26450000D02*
X62580000Y-25670685D01*
X22912500Y-54000000D02*
X24050000Y-54000000D01*
X24050000Y-54000000D02*
X24060000Y-53990000D01*
%TO.N,2-Heater*%
X48010000Y-54320000D02*
X49240000Y-54320000D01*
D32*
X49540000Y-56630000D02*
X49330000Y-56840000D01*
D28*
X49540000Y-54620000D02*
X49540000Y-55585000D01*
X42300000Y-51010000D02*
X42300000Y-49667500D01*
X42300000Y-49667500D02*
X42282500Y-49650000D01*
D32*
X49540000Y-55585000D02*
X49540000Y-56630000D01*
D28*
X49240000Y-54320000D02*
X49540000Y-54620000D01*
%TO.N,1-Heater*%
X41857500Y-33555000D02*
X47560000Y-33555000D01*
X41012500Y-34400000D02*
X41857500Y-33555000D01*
D32*
X47560000Y-33555000D02*
X47560000Y-32370000D01*
X47560000Y-32370000D02*
X48030000Y-31900000D01*
D28*
%TO.N,3-Heater*%
X75500000Y-58800000D02*
X75580000Y-58880000D01*
X66222500Y-51500000D02*
X69512500Y-54790000D01*
X69512500Y-54790000D02*
X75200000Y-54790000D01*
X75500000Y-55090000D02*
X75500000Y-56320000D01*
X75200000Y-54790000D02*
X75500000Y-55090000D01*
D32*
X75500000Y-56320000D02*
X75500000Y-58800000D01*
%TO.N,4-Heater*%
X75510000Y-33667500D02*
X75510000Y-32530000D01*
D28*
X64592500Y-35370000D02*
X74770000Y-35370000D01*
X75510000Y-32530000D02*
X75490000Y-32510000D01*
X75510000Y-34630000D02*
X75510000Y-33667500D01*
X74770000Y-35370000D02*
X75510000Y-34630000D01*
%TO.N,H3-D18*%
X80190000Y-20070000D02*
X79100000Y-18980000D01*
X79100000Y-18980000D02*
X79100000Y-17468299D01*
X80740000Y-20070000D02*
X80190000Y-20070000D01*
X75680000Y-35690000D02*
X75180000Y-36190000D01*
X78201701Y-16570000D02*
X49620000Y-16570000D01*
X80500000Y-35690000D02*
X75680000Y-35690000D01*
X79100000Y-17468299D02*
X78201701Y-16570000D01*
X49620000Y-16570000D02*
X48350000Y-17840000D01*
%TO.N,H4-D19*%
X72700000Y-20900000D02*
X70950000Y-19150000D01*
X72800000Y-20900000D02*
X72700000Y-20900000D01*
X47120000Y-19150000D02*
X45810000Y-17840000D01*
X70950000Y-19150000D02*
X47120000Y-19150000D01*
%TO.N,CS*%
X62080000Y-23650000D02*
X62080000Y-24880000D01*
X71000000Y-21300000D02*
X71100000Y-21400000D01*
X61100000Y-21224500D02*
X61175500Y-21300000D01*
X61175500Y-21300000D02*
X71000000Y-21300000D01*
%TO.N,~{ENABLE}*%
X64985500Y-22600000D02*
X61204500Y-22600000D01*
X61204500Y-22600000D02*
X60800000Y-23004500D01*
X65110000Y-22724500D02*
X64985500Y-22600000D01*
%TO.N,Net-(D17-A)*%
X20070000Y-55017500D02*
X21087500Y-54000000D01*
X20070000Y-55190000D02*
X20070000Y-55017500D01*
%TO.N,Net-(D18-A)*%
X20100000Y-50987500D02*
X21087500Y-50000000D01*
X20100000Y-51160000D02*
X20100000Y-50987500D01*
%TO.N,/9V_IN*%
X27570000Y-42107500D02*
X27632500Y-42170000D01*
D33*
X27570000Y-32560000D02*
X27570000Y-42107500D01*
D28*
%TO.N,2-CS*%
X57000000Y-62100000D02*
X56580000Y-62520000D01*
X56580000Y-62520000D02*
X44565305Y-62520000D01*
X39205000Y-62515000D02*
X39190000Y-62530000D01*
X44560305Y-62515000D02*
X39205000Y-62515000D01*
X44565305Y-62520000D02*
X44560305Y-62515000D01*
%TO.N,DIN*%
X65520000Y-25970000D02*
X63962919Y-25970000D01*
X42779805Y-20500000D02*
X39499805Y-23780000D01*
X38910000Y-24000000D02*
X39130000Y-23780000D01*
X66630000Y-20424500D02*
X66605500Y-20400000D01*
X39499805Y-23780000D02*
X39130000Y-23780000D01*
X30500000Y-24000000D02*
X38910000Y-24000000D01*
X66605500Y-20400000D02*
X62700000Y-20400000D01*
X63962919Y-25970000D02*
X61580000Y-28352919D01*
X66630000Y-24860000D02*
X65520000Y-25970000D01*
X62700000Y-20400000D02*
X62600000Y-20500000D01*
X61580000Y-28352919D02*
X61580000Y-29280000D01*
X62600000Y-20500000D02*
X42779805Y-20500000D01*
%TO.N,~{RST}*%
X42555207Y-19700000D02*
X68290000Y-19700000D01*
X40147604Y-22107603D02*
X42555207Y-19700000D01*
X68290000Y-19700000D02*
X68980000Y-20390000D01*
%TO.N,DOUT*%
X70500000Y-26800000D02*
X78100000Y-26800000D01*
X62080000Y-28489315D02*
X63839315Y-26730000D01*
X44260000Y-63240000D02*
X71290000Y-63240000D01*
X63839315Y-26730000D02*
X67970000Y-26730000D01*
X74350000Y-60190000D02*
X73000000Y-58840000D01*
X67970000Y-26730000D02*
X70430000Y-26730000D01*
X71290000Y-63240000D02*
X71650000Y-62880000D01*
X78200000Y-59610000D02*
X77620000Y-60190000D01*
X77620000Y-60190000D02*
X74350000Y-60190000D01*
X62080000Y-29280000D02*
X62080000Y-28489315D01*
X70430000Y-26730000D02*
X70500000Y-26800000D01*
X73000000Y-58840000D02*
X73000000Y-58200000D01*
X78200000Y-58450000D02*
X78200000Y-59610000D01*
%TO.N,2-CS_T1*%
X57830000Y-61150000D02*
X46870000Y-61150000D01*
X46870000Y-61150000D02*
X46670000Y-61350000D01*
X58540000Y-60440000D02*
X57830000Y-61150000D01*
%TO.N,2-CS_T2*%
X59480000Y-53350000D02*
X59980000Y-52850000D01*
X45680000Y-53930000D02*
X46260000Y-53350000D01*
X46260000Y-53350000D02*
X59480000Y-53350000D01*
%TO.N,CLK*%
X73370000Y-24440000D02*
X71444695Y-24440000D01*
X59070000Y-24870000D02*
X58185000Y-23985000D01*
X58185000Y-23985000D02*
X58100000Y-23985000D01*
X61580000Y-24880000D02*
X61570000Y-24870000D01*
X58215000Y-23985000D02*
X49345000Y-23985000D01*
X69004695Y-22000000D02*
X60200000Y-22000000D01*
X60200000Y-22000000D02*
X58215000Y-23985000D01*
X71444695Y-24440000D02*
X69004695Y-22000000D01*
X49345000Y-23985000D02*
X49270000Y-24060000D01*
X61570000Y-24870000D02*
X59070000Y-24870000D01*
%TO.N,1-CS*%
X54320000Y-52570000D02*
X54260000Y-52630000D01*
X36830000Y-52630000D02*
X35700000Y-51500000D01*
X54260000Y-52630000D02*
X36830000Y-52630000D01*
X39160000Y-29114502D02*
X39145498Y-29100000D01*
X39145498Y-29100000D02*
X31900000Y-29100000D01*
%TO.N,1-CS_T2*%
X46850000Y-24800000D02*
X46780000Y-24870000D01*
X55080000Y-24710000D02*
X54990000Y-24800000D01*
X54990000Y-24800000D02*
X46850000Y-24800000D01*
%TO.N,1-CS_T3*%
X52900000Y-35900000D02*
X52900000Y-36540000D01*
X52900000Y-36540000D02*
X56220000Y-39860000D01*
%TO.N,3-CS_T1*%
X74300000Y-61200000D02*
X74300000Y-61070000D01*
X74300000Y-61070000D02*
X71350000Y-58120000D01*
X71350000Y-58120000D02*
X63770000Y-58120000D01*
%TO.N,3-CS_T2*%
X71540000Y-57000000D02*
X65000000Y-57000000D01*
X72330000Y-56210000D02*
X71540000Y-57000000D01*
%TO.N,4-CS_T1*%
X73290000Y-32210000D02*
X72830000Y-31750000D01*
X66284599Y-31750000D02*
X65429283Y-32605316D01*
X72830000Y-31750000D02*
X66284599Y-31750000D01*
%TO.N,4-CS_T2*%
X65400000Y-30700000D02*
X64990000Y-31110000D01*
X75270000Y-28860000D02*
X73430000Y-30700000D01*
X64990000Y-31110000D02*
X62970000Y-31110000D01*
X73430000Y-30700000D02*
X65400000Y-30700000D01*
%TO.N,4-CS_T3*%
X76400000Y-31200000D02*
X79300000Y-34100000D01*
X64877701Y-32132299D02*
X65810000Y-31200000D01*
X65810000Y-31200000D02*
X76400000Y-31200000D01*
X61842299Y-32132299D02*
X64877701Y-32132299D01*
%TO.N,Net-(U4A--)*%
X64297500Y-47090000D02*
X64297500Y-48609490D01*
X64297500Y-48609490D02*
X64268137Y-48638853D01*
X63850000Y-46642500D02*
X64297500Y-47090000D01*
X63850000Y-44645000D02*
X63850000Y-46642500D01*
X64160000Y-51737500D02*
X64397500Y-51500000D01*
X64160000Y-53000000D02*
X64160000Y-51737500D01*
%TO.N,/current-sensing/V_{h1}*%
X37000000Y-32700000D02*
X37000000Y-35225305D01*
X57940000Y-25670000D02*
X44030000Y-25670000D01*
X44030000Y-25670000D02*
X37000000Y-32700000D01*
X39275000Y-36380000D02*
X39860000Y-36965000D01*
X63600000Y-23324500D02*
X63080000Y-23844500D01*
X37000000Y-35225305D02*
X38154695Y-36380000D01*
X60110000Y-27840000D02*
X57940000Y-25670000D01*
X38154695Y-36380000D02*
X39275000Y-36380000D01*
X63080000Y-23844500D02*
X63080000Y-24880000D01*
X39860000Y-36965000D02*
X39860000Y-39695000D01*
%TO.N,Net-(U4B--)*%
X62797500Y-37420000D02*
X62797500Y-39477500D01*
X62797500Y-37420000D02*
X62797500Y-35400000D01*
%TO.N,/current-sensing/V_{h2}*%
X39130000Y-48450000D02*
X40377500Y-47202500D01*
X64520000Y-24880000D02*
X64600000Y-24800000D01*
X55385500Y-51770000D02*
X39990000Y-51770000D01*
X40377500Y-47010000D02*
X41130000Y-46257500D01*
X63580000Y-24880000D02*
X64520000Y-24880000D01*
X39990000Y-51770000D02*
X39130000Y-50910000D01*
X40377500Y-47202500D02*
X40377500Y-47010000D01*
X40630000Y-47497500D02*
X40630000Y-46590000D01*
X57985500Y-49170000D02*
X55385500Y-51770000D01*
X41130000Y-46257500D02*
X41130000Y-44645000D01*
X39130000Y-50910000D02*
X39130000Y-48450000D01*
%TO.N,/current-sensing/V_{h4}*%
X63850000Y-38192500D02*
X64622500Y-37420000D01*
X70020000Y-36280000D02*
X66730000Y-36280000D01*
X63850000Y-39695000D02*
X63850000Y-38192500D01*
X65590000Y-37420000D02*
X64622500Y-37420000D01*
X66730000Y-36280000D02*
X65590000Y-37420000D01*
X63760000Y-29100000D02*
X63580000Y-29280000D01*
X69600000Y-29100000D02*
X63760000Y-29100000D01*
%TO.N,/current-sensing/V_{h3}*%
X74210000Y-46600000D02*
X66612500Y-46600000D01*
X66612500Y-46600000D02*
X66122500Y-47090000D01*
X64520000Y-30380000D02*
X63380000Y-30380000D01*
X77000000Y-28290000D02*
X76000000Y-27290000D01*
X76940000Y-48200000D02*
X75810000Y-48200000D01*
X70690000Y-30000000D02*
X64900000Y-30000000D01*
X75810000Y-48200000D02*
X74210000Y-46600000D01*
X64900000Y-30000000D02*
X64520000Y-30380000D01*
X63380000Y-30380000D02*
X63080000Y-30080000D01*
X77000000Y-29300000D02*
X77000000Y-28290000D01*
X73400000Y-27290000D02*
X70690000Y-30000000D01*
X65120000Y-46087500D02*
X65120000Y-44645000D01*
X76000000Y-27290000D02*
X73400000Y-27290000D01*
X63080000Y-30080000D02*
X63080000Y-29280000D01*
X66122500Y-47090000D02*
X65120000Y-46087500D01*
%TO.N,Net-(U2A--)*%
X41130000Y-39695000D02*
X41130000Y-36497500D01*
X39187500Y-34555000D02*
X39187500Y-34400000D01*
X41012500Y-36380000D02*
X39187500Y-34555000D01*
%TO.N,Net-(U2B--)*%
X42400000Y-44645000D02*
X42400000Y-47552500D01*
X40457500Y-49650000D02*
X40457500Y-49495000D01*
X40457500Y-49495000D02*
X42282500Y-47670000D01*
X42400000Y-47552500D02*
X42282500Y-47670000D01*
%TO.N,Net-(R1-Pad1)*%
X47870000Y-37570000D02*
X46990000Y-38450000D01*
X47020000Y-35150000D02*
X47870000Y-36000000D01*
X47870000Y-36000000D02*
X47870000Y-37570000D01*
D32*
X47560000Y-39480000D02*
X47560000Y-39020000D01*
X47560000Y-39020000D02*
X46990000Y-38450000D01*
D28*
X44512500Y-35150000D02*
X47020000Y-35150000D01*
D32*
%TO.N,Net-(R2-Pad1)*%
X45100000Y-49700000D02*
X49500000Y-49700000D01*
D28*
X48230000Y-46700000D02*
X49540000Y-48010000D01*
X49540000Y-48010000D02*
X49540000Y-49660000D01*
X47182500Y-46700000D02*
X48230000Y-46700000D01*
X49500000Y-49700000D02*
X49540000Y-49660000D01*
%TO.N,Net-(R11-Pad2)*%
X70810000Y-52890000D02*
X74510000Y-52890000D01*
X67350000Y-49430000D02*
X70810000Y-52890000D01*
X71555000Y-50395000D02*
X71550000Y-50390000D01*
D32*
X75500000Y-50395000D02*
X71555000Y-50395000D01*
D28*
X74510000Y-52890000D02*
X75500000Y-51900000D01*
X61952500Y-49430000D02*
X67350000Y-49430000D01*
X75500000Y-51900000D02*
X75500000Y-50395000D01*
%TO.N,Net-(U4A-+)*%
X62580000Y-46692500D02*
X62312500Y-46960000D01*
X62312500Y-46960000D02*
X62312500Y-47245000D01*
X62312500Y-47245000D02*
X60127500Y-49430000D01*
X62580000Y-44645000D02*
X62580000Y-46692500D01*
%TO.N,Net-(R14-Pad1)*%
X70070316Y-33330316D02*
X61107184Y-33330316D01*
X61107184Y-33330316D02*
X59307500Y-35130000D01*
X79417500Y-39592500D02*
X79430000Y-39580000D01*
D32*
X75510000Y-39592500D02*
X79417500Y-39592500D01*
D28*
X74790000Y-37300000D02*
X75510000Y-38020000D01*
X75510000Y-38020000D02*
X75510000Y-39592500D01*
X70850000Y-34110000D02*
X70070316Y-33330316D01*
X70860000Y-37300000D02*
X74790000Y-37300000D01*
%TO.N,Net-(U2A-+)*%
X42400000Y-39695000D02*
X42400000Y-37337500D01*
X42400000Y-37337500D02*
X42607500Y-37130000D01*
X42687500Y-37130000D02*
X42687500Y-35150000D01*
%TO.N,Net-(U2B-+)*%
X43670000Y-44645000D02*
X45302500Y-44645000D01*
X45367500Y-46690000D02*
X45357500Y-46700000D01*
X45367500Y-44710000D02*
X45367500Y-46690000D01*
X45302500Y-44645000D02*
X45367500Y-44710000D01*
%TO.N,Net-(U4B-+)*%
X61132500Y-37130000D02*
X61132500Y-35130000D01*
X61310000Y-39695000D02*
X61310000Y-37307500D01*
%TD*%
M02*
