%TF.GenerationSoftware,KiCad,Pcbnew,9.0.0*%
%TF.CreationDate,2025-05-12T15:22:34-04:00*%
%TF.ProjectId,design-files_BM,64657369-676e-42d6-9669-6c65735f424d,rev?*%
%TF.SameCoordinates,Original*%
%TF.FileFunction,Legend,Bot*%
%TF.FilePolarity,Positive*%
%FSLAX46Y46*%
G04 Gerber Fmt 4.6, Leading zero omitted, Abs format (unit mm)*
G04 Created by KiCad (PCBNEW 9.0.0) date 2025-05-12 15:22:34*
%MOMM*%
%LPD*%
G01*
G04 APERTURE LIST*
%ADD10C,0.120000*%
%ADD11C,0.150000*%
%ADD12C,0.112500*%
%ADD13C,0.125000*%
G04 APERTURE END LIST*
D10*
X49705000Y-38255000D02*
X49705000Y-45255000D01*
X46065000Y-38260000D02*
X53435000Y-38260000D01*
X53435000Y-45250000D01*
X46065000Y-45250000D01*
X46065000Y-38260000D01*
X46418553Y-45255000D02*
G75*
G02*
X45711447Y-45255000I-353553J0D01*
G01*
X45711447Y-45255000D02*
G75*
G02*
X46418553Y-45255000I353553J0D01*
G01*
D11*
X13112579Y-58602855D02*
X13148293Y-58638570D01*
X13148293Y-58638570D02*
X13255436Y-58709998D01*
X13255436Y-58709998D02*
X13326865Y-58745713D01*
X13326865Y-58745713D02*
X13434008Y-58781427D01*
X13434008Y-58781427D02*
X13612579Y-58817141D01*
X13612579Y-58817141D02*
X13755436Y-58817141D01*
X13755436Y-58817141D02*
X13934008Y-58781427D01*
X13934008Y-58781427D02*
X14041150Y-58745713D01*
X14041150Y-58745713D02*
X14112579Y-58709998D01*
X14112579Y-58709998D02*
X14219722Y-58638570D01*
X14219722Y-58638570D02*
X14255436Y-58602855D01*
X14219722Y-58567141D02*
X13255436Y-57924284D01*
X13326865Y-57995713D02*
X13326865Y-57424284D01*
X13326865Y-57424284D02*
X13326865Y-56852855D01*
X14184008Y-56138569D02*
X13219722Y-56781426D01*
X13112579Y-55959998D02*
X13148293Y-55924283D01*
X13148293Y-55924283D02*
X13255436Y-55852855D01*
X13255436Y-55852855D02*
X13326865Y-55817141D01*
X13326865Y-55817141D02*
X13434008Y-55781426D01*
X13434008Y-55781426D02*
X13612579Y-55745712D01*
X13612579Y-55745712D02*
X13755436Y-55745712D01*
X13755436Y-55745712D02*
X13934008Y-55781426D01*
X13934008Y-55781426D02*
X14041150Y-55817141D01*
X14041150Y-55817141D02*
X14112579Y-55852855D01*
X14112579Y-55852855D02*
X14219722Y-55924283D01*
X14219722Y-55924283D02*
X14255436Y-55959998D01*
X11905121Y-59067140D02*
X11940835Y-59102855D01*
X11940835Y-59102855D02*
X12047978Y-59174283D01*
X12047978Y-59174283D02*
X12119407Y-59209998D01*
X12119407Y-59209998D02*
X12226550Y-59245712D01*
X12226550Y-59245712D02*
X12405121Y-59281426D01*
X12405121Y-59281426D02*
X12547978Y-59281426D01*
X12547978Y-59281426D02*
X12726550Y-59245712D01*
X12726550Y-59245712D02*
X12833692Y-59209998D01*
X12833692Y-59209998D02*
X12905121Y-59174283D01*
X12905121Y-59174283D02*
X13012264Y-59102855D01*
X13012264Y-59102855D02*
X13047978Y-59067140D01*
X12547978Y-57995711D02*
X12405121Y-57995711D01*
X12405121Y-57959997D02*
X12547978Y-57959997D01*
X12583692Y-57924283D02*
X12369407Y-57924283D01*
X12405121Y-57888569D02*
X12547978Y-57888569D01*
X12547978Y-57852854D02*
X12405121Y-57852854D01*
X12440835Y-57995711D02*
X12369407Y-57924283D01*
X12369407Y-57924283D02*
X12440835Y-57852854D01*
X12512264Y-57995711D02*
X12583692Y-57924283D01*
X12583692Y-57924283D02*
X12512264Y-57852854D01*
X12547978Y-57995711D02*
X12583692Y-57924283D01*
X12583692Y-57924283D02*
X12547978Y-57852854D01*
X12547978Y-57852854D02*
X12476550Y-57817140D01*
X12476550Y-57817140D02*
X12405121Y-57852854D01*
X12405121Y-57852854D02*
X12369407Y-57924283D01*
X12369407Y-57924283D02*
X12405121Y-57995711D01*
X12405121Y-57995711D02*
X12476550Y-58031426D01*
X12476550Y-58031426D02*
X12547978Y-57995711D01*
X12476550Y-57281426D02*
X12476550Y-56709998D01*
X12547978Y-56138569D02*
X12405121Y-56138569D01*
X12405121Y-56102855D02*
X12547978Y-56102855D01*
X12583692Y-56067141D02*
X12369407Y-56067141D01*
X12405121Y-56031427D02*
X12547978Y-56031427D01*
X12547978Y-55995712D02*
X12405121Y-55995712D01*
X12440835Y-56138569D02*
X12369407Y-56067141D01*
X12369407Y-56067141D02*
X12440835Y-55995712D01*
X12512264Y-56138569D02*
X12583692Y-56067141D01*
X12583692Y-56067141D02*
X12512264Y-55995712D01*
X12547978Y-56138569D02*
X12583692Y-56067141D01*
X12583692Y-56067141D02*
X12547978Y-55995712D01*
X12547978Y-55995712D02*
X12476550Y-55959998D01*
X12476550Y-55959998D02*
X12405121Y-55995712D01*
X12405121Y-55995712D02*
X12369407Y-56067141D01*
X12369407Y-56067141D02*
X12405121Y-56138569D01*
X12405121Y-56138569D02*
X12476550Y-56174284D01*
X12476550Y-56174284D02*
X12547978Y-56138569D01*
X11905121Y-55495713D02*
X11940835Y-55459998D01*
X11940835Y-55459998D02*
X12047978Y-55388570D01*
X12047978Y-55388570D02*
X12119407Y-55352856D01*
X12119407Y-55352856D02*
X12226550Y-55317141D01*
X12226550Y-55317141D02*
X12405121Y-55281427D01*
X12405121Y-55281427D02*
X12547978Y-55281427D01*
X12547978Y-55281427D02*
X12726550Y-55317141D01*
X12726550Y-55317141D02*
X12833692Y-55352856D01*
X12833692Y-55352856D02*
X12905121Y-55388570D01*
X12905121Y-55388570D02*
X13012264Y-55459998D01*
X13012264Y-55459998D02*
X13047978Y-55495713D01*
X11769092Y-58852856D02*
X10804806Y-59495713D01*
X11483377Y-57459998D02*
X11269092Y-56888570D01*
X11269092Y-56888570D02*
X11054806Y-57459998D01*
D12*
X53218129Y-39466912D02*
X52860987Y-39466912D01*
X53289558Y-39681198D02*
X53039558Y-38931198D01*
X53039558Y-38931198D02*
X52789558Y-39681198D01*
X52539558Y-39681198D02*
X52539558Y-38931198D01*
X52539558Y-38931198D02*
X52360987Y-38931198D01*
X52360987Y-38931198D02*
X52253844Y-38966912D01*
X52253844Y-38966912D02*
X52182415Y-39038341D01*
X52182415Y-39038341D02*
X52146701Y-39109769D01*
X52146701Y-39109769D02*
X52110987Y-39252626D01*
X52110987Y-39252626D02*
X52110987Y-39359769D01*
X52110987Y-39359769D02*
X52146701Y-39502626D01*
X52146701Y-39502626D02*
X52182415Y-39574055D01*
X52182415Y-39574055D02*
X52253844Y-39645484D01*
X52253844Y-39645484D02*
X52360987Y-39681198D01*
X52360987Y-39681198D02*
X52539558Y-39681198D01*
X51360987Y-39609769D02*
X51396701Y-39645484D01*
X51396701Y-39645484D02*
X51503844Y-39681198D01*
X51503844Y-39681198D02*
X51575272Y-39681198D01*
X51575272Y-39681198D02*
X51682415Y-39645484D01*
X51682415Y-39645484D02*
X51753844Y-39574055D01*
X51753844Y-39574055D02*
X51789558Y-39502626D01*
X51789558Y-39502626D02*
X51825272Y-39359769D01*
X51825272Y-39359769D02*
X51825272Y-39252626D01*
X51825272Y-39252626D02*
X51789558Y-39109769D01*
X51789558Y-39109769D02*
X51753844Y-39038341D01*
X51753844Y-39038341D02*
X51682415Y-38966912D01*
X51682415Y-38966912D02*
X51575272Y-38931198D01*
X51575272Y-38931198D02*
X51503844Y-38931198D01*
X51503844Y-38931198D02*
X51396701Y-38966912D01*
X51396701Y-38966912D02*
X51360987Y-39002626D01*
X50646701Y-39681198D02*
X51075272Y-39681198D01*
X50860987Y-39681198D02*
X50860987Y-38931198D01*
X50860987Y-38931198D02*
X50932415Y-39038341D01*
X50932415Y-39038341D02*
X51003844Y-39109769D01*
X51003844Y-39109769D02*
X51075272Y-39145484D01*
X53285987Y-38722984D02*
X50578844Y-38722984D01*
X53182415Y-40888656D02*
X53182415Y-40138656D01*
X53182415Y-40138656D02*
X53003844Y-40138656D01*
X53003844Y-40138656D02*
X52896701Y-40174370D01*
X52896701Y-40174370D02*
X52825272Y-40245799D01*
X52825272Y-40245799D02*
X52789558Y-40317227D01*
X52789558Y-40317227D02*
X52753844Y-40460084D01*
X52753844Y-40460084D02*
X52753844Y-40567227D01*
X52753844Y-40567227D02*
X52789558Y-40710084D01*
X52789558Y-40710084D02*
X52825272Y-40781513D01*
X52825272Y-40781513D02*
X52896701Y-40852942D01*
X52896701Y-40852942D02*
X53003844Y-40888656D01*
X53003844Y-40888656D02*
X53182415Y-40888656D01*
X52432415Y-40888656D02*
X52432415Y-40138656D01*
X52075272Y-40888656D02*
X52075272Y-40138656D01*
X52075272Y-40138656D02*
X51646701Y-40888656D01*
X51646701Y-40888656D02*
X51646701Y-40138656D01*
X52789558Y-41381828D02*
X52860987Y-41346114D01*
X52860987Y-41346114D02*
X52968129Y-41346114D01*
X52968129Y-41346114D02*
X53075272Y-41381828D01*
X53075272Y-41381828D02*
X53146701Y-41453257D01*
X53146701Y-41453257D02*
X53182415Y-41524685D01*
X53182415Y-41524685D02*
X53218129Y-41667542D01*
X53218129Y-41667542D02*
X53218129Y-41774685D01*
X53218129Y-41774685D02*
X53182415Y-41917542D01*
X53182415Y-41917542D02*
X53146701Y-41988971D01*
X53146701Y-41988971D02*
X53075272Y-42060400D01*
X53075272Y-42060400D02*
X52968129Y-42096114D01*
X52968129Y-42096114D02*
X52896701Y-42096114D01*
X52896701Y-42096114D02*
X52789558Y-42060400D01*
X52789558Y-42060400D02*
X52753844Y-42024685D01*
X52753844Y-42024685D02*
X52753844Y-41774685D01*
X52753844Y-41774685D02*
X52896701Y-41774685D01*
X52432415Y-42096114D02*
X52432415Y-41346114D01*
X52432415Y-41346114D02*
X52003844Y-42096114D01*
X52003844Y-42096114D02*
X52003844Y-41346114D01*
X51646701Y-42096114D02*
X51646701Y-41346114D01*
X51646701Y-41346114D02*
X51468130Y-41346114D01*
X51468130Y-41346114D02*
X51360987Y-41381828D01*
X51360987Y-41381828D02*
X51289558Y-41453257D01*
X51289558Y-41453257D02*
X51253844Y-41524685D01*
X51253844Y-41524685D02*
X51218130Y-41667542D01*
X51218130Y-41667542D02*
X51218130Y-41774685D01*
X51218130Y-41774685D02*
X51253844Y-41917542D01*
X51253844Y-41917542D02*
X51289558Y-41988971D01*
X51289558Y-41988971D02*
X51360987Y-42060400D01*
X51360987Y-42060400D02*
X51468130Y-42096114D01*
X51468130Y-42096114D02*
X51646701Y-42096114D01*
X53182415Y-43017858D02*
X52610987Y-43017858D01*
X52896701Y-43303572D02*
X52896701Y-42732143D01*
X51896701Y-42553572D02*
X52253844Y-42553572D01*
X52253844Y-42553572D02*
X52289558Y-42910715D01*
X52289558Y-42910715D02*
X52253844Y-42875000D01*
X52253844Y-42875000D02*
X52182416Y-42839286D01*
X52182416Y-42839286D02*
X52003844Y-42839286D01*
X52003844Y-42839286D02*
X51932416Y-42875000D01*
X51932416Y-42875000D02*
X51896701Y-42910715D01*
X51896701Y-42910715D02*
X51860987Y-42982143D01*
X51860987Y-42982143D02*
X51860987Y-43160715D01*
X51860987Y-43160715D02*
X51896701Y-43232143D01*
X51896701Y-43232143D02*
X51932416Y-43267858D01*
X51932416Y-43267858D02*
X52003844Y-43303572D01*
X52003844Y-43303572D02*
X52182416Y-43303572D01*
X52182416Y-43303572D02*
X52253844Y-43267858D01*
X52253844Y-43267858D02*
X52289558Y-43232143D01*
X51646701Y-42553572D02*
X51396701Y-43303572D01*
X51396701Y-43303572D02*
X51146701Y-42553572D01*
X53218129Y-44296744D02*
X52860987Y-44296744D01*
X53289558Y-44511030D02*
X53039558Y-43761030D01*
X53039558Y-43761030D02*
X52789558Y-44511030D01*
X52539558Y-44511030D02*
X52539558Y-43761030D01*
X52539558Y-43761030D02*
X52360987Y-43761030D01*
X52360987Y-43761030D02*
X52253844Y-43796744D01*
X52253844Y-43796744D02*
X52182415Y-43868173D01*
X52182415Y-43868173D02*
X52146701Y-43939601D01*
X52146701Y-43939601D02*
X52110987Y-44082458D01*
X52110987Y-44082458D02*
X52110987Y-44189601D01*
X52110987Y-44189601D02*
X52146701Y-44332458D01*
X52146701Y-44332458D02*
X52182415Y-44403887D01*
X52182415Y-44403887D02*
X52253844Y-44475316D01*
X52253844Y-44475316D02*
X52360987Y-44511030D01*
X52360987Y-44511030D02*
X52539558Y-44511030D01*
X51360987Y-44439601D02*
X51396701Y-44475316D01*
X51396701Y-44475316D02*
X51503844Y-44511030D01*
X51503844Y-44511030D02*
X51575272Y-44511030D01*
X51575272Y-44511030D02*
X51682415Y-44475316D01*
X51682415Y-44475316D02*
X51753844Y-44403887D01*
X51753844Y-44403887D02*
X51789558Y-44332458D01*
X51789558Y-44332458D02*
X51825272Y-44189601D01*
X51825272Y-44189601D02*
X51825272Y-44082458D01*
X51825272Y-44082458D02*
X51789558Y-43939601D01*
X51789558Y-43939601D02*
X51753844Y-43868173D01*
X51753844Y-43868173D02*
X51682415Y-43796744D01*
X51682415Y-43796744D02*
X51575272Y-43761030D01*
X51575272Y-43761030D02*
X51503844Y-43761030D01*
X51503844Y-43761030D02*
X51396701Y-43796744D01*
X51396701Y-43796744D02*
X51360987Y-43832458D01*
X51110987Y-43761030D02*
X50646701Y-43761030D01*
X50646701Y-43761030D02*
X50896701Y-44046744D01*
X50896701Y-44046744D02*
X50789558Y-44046744D01*
X50789558Y-44046744D02*
X50718130Y-44082458D01*
X50718130Y-44082458D02*
X50682415Y-44118173D01*
X50682415Y-44118173D02*
X50646701Y-44189601D01*
X50646701Y-44189601D02*
X50646701Y-44368173D01*
X50646701Y-44368173D02*
X50682415Y-44439601D01*
X50682415Y-44439601D02*
X50718130Y-44475316D01*
X50718130Y-44475316D02*
X50789558Y-44511030D01*
X50789558Y-44511030D02*
X51003844Y-44511030D01*
X51003844Y-44511030D02*
X51075272Y-44475316D01*
X51075272Y-44475316D02*
X51110987Y-44439601D01*
X53285987Y-43552816D02*
X50578844Y-43552816D01*
D11*
X13507594Y-54394649D02*
X13507594Y-54161316D01*
X13140927Y-54061316D02*
X13140927Y-54394649D01*
X13140927Y-54394649D02*
X13840927Y-54394649D01*
X13840927Y-54394649D02*
X13840927Y-54061316D01*
X13840927Y-53861316D02*
X13840927Y-53461316D01*
X13140927Y-53661316D02*
X13840927Y-53661316D01*
X13140927Y-52894650D02*
X13140927Y-53227983D01*
X13140927Y-53227983D02*
X13840927Y-53227983D01*
X13140927Y-52127983D02*
X13840927Y-52127983D01*
X13840927Y-52127983D02*
X13340927Y-51894650D01*
X13340927Y-51894650D02*
X13840927Y-51661316D01*
X13840927Y-51661316D02*
X13140927Y-51661316D01*
X13140927Y-51227983D02*
X13174261Y-51294650D01*
X13174261Y-51294650D02*
X13207594Y-51327983D01*
X13207594Y-51327983D02*
X13274261Y-51361316D01*
X13274261Y-51361316D02*
X13474261Y-51361316D01*
X13474261Y-51361316D02*
X13540927Y-51327983D01*
X13540927Y-51327983D02*
X13574261Y-51294650D01*
X13574261Y-51294650D02*
X13607594Y-51227983D01*
X13607594Y-51227983D02*
X13607594Y-51127983D01*
X13607594Y-51127983D02*
X13574261Y-51061316D01*
X13574261Y-51061316D02*
X13540927Y-51027983D01*
X13540927Y-51027983D02*
X13474261Y-50994650D01*
X13474261Y-50994650D02*
X13274261Y-50994650D01*
X13274261Y-50994650D02*
X13207594Y-51027983D01*
X13207594Y-51027983D02*
X13174261Y-51061316D01*
X13174261Y-51061316D02*
X13140927Y-51127983D01*
X13140927Y-51127983D02*
X13140927Y-51227983D01*
X13140927Y-50394650D02*
X13840927Y-50394650D01*
X13174261Y-50394650D02*
X13140927Y-50461317D01*
X13140927Y-50461317D02*
X13140927Y-50594650D01*
X13140927Y-50594650D02*
X13174261Y-50661317D01*
X13174261Y-50661317D02*
X13207594Y-50694650D01*
X13207594Y-50694650D02*
X13274261Y-50727983D01*
X13274261Y-50727983D02*
X13474261Y-50727983D01*
X13474261Y-50727983D02*
X13540927Y-50694650D01*
X13540927Y-50694650D02*
X13574261Y-50661317D01*
X13574261Y-50661317D02*
X13607594Y-50594650D01*
X13607594Y-50594650D02*
X13607594Y-50461317D01*
X13607594Y-50461317D02*
X13574261Y-50394650D01*
X13607594Y-49761317D02*
X13140927Y-49761317D01*
X13607594Y-50061317D02*
X13240927Y-50061317D01*
X13240927Y-50061317D02*
X13174261Y-50027984D01*
X13174261Y-50027984D02*
X13140927Y-49961317D01*
X13140927Y-49961317D02*
X13140927Y-49861317D01*
X13140927Y-49861317D02*
X13174261Y-49794650D01*
X13174261Y-49794650D02*
X13207594Y-49761317D01*
X13140927Y-49327984D02*
X13174261Y-49394651D01*
X13174261Y-49394651D02*
X13240927Y-49427984D01*
X13240927Y-49427984D02*
X13840927Y-49427984D01*
X13174261Y-48794650D02*
X13140927Y-48861317D01*
X13140927Y-48861317D02*
X13140927Y-48994650D01*
X13140927Y-48994650D02*
X13174261Y-49061317D01*
X13174261Y-49061317D02*
X13240927Y-49094650D01*
X13240927Y-49094650D02*
X13507594Y-49094650D01*
X13507594Y-49094650D02*
X13574261Y-49061317D01*
X13574261Y-49061317D02*
X13607594Y-48994650D01*
X13607594Y-48994650D02*
X13607594Y-48861317D01*
X13607594Y-48861317D02*
X13574261Y-48794650D01*
X13574261Y-48794650D02*
X13507594Y-48761317D01*
X13507594Y-48761317D02*
X13440927Y-48761317D01*
X13440927Y-48761317D02*
X13374261Y-49094650D01*
X13140927Y-47927984D02*
X13840927Y-47927984D01*
X13840927Y-47927984D02*
X13840927Y-47661317D01*
X13840927Y-47661317D02*
X13807594Y-47594651D01*
X13807594Y-47594651D02*
X13774261Y-47561317D01*
X13774261Y-47561317D02*
X13707594Y-47527984D01*
X13707594Y-47527984D02*
X13607594Y-47527984D01*
X13607594Y-47527984D02*
X13540927Y-47561317D01*
X13540927Y-47561317D02*
X13507594Y-47594651D01*
X13507594Y-47594651D02*
X13474261Y-47661317D01*
X13474261Y-47661317D02*
X13474261Y-47927984D01*
X13207594Y-46827984D02*
X13174261Y-46861317D01*
X13174261Y-46861317D02*
X13140927Y-46961317D01*
X13140927Y-46961317D02*
X13140927Y-47027984D01*
X13140927Y-47027984D02*
X13174261Y-47127984D01*
X13174261Y-47127984D02*
X13240927Y-47194651D01*
X13240927Y-47194651D02*
X13307594Y-47227984D01*
X13307594Y-47227984D02*
X13440927Y-47261317D01*
X13440927Y-47261317D02*
X13540927Y-47261317D01*
X13540927Y-47261317D02*
X13674261Y-47227984D01*
X13674261Y-47227984D02*
X13740927Y-47194651D01*
X13740927Y-47194651D02*
X13807594Y-47127984D01*
X13807594Y-47127984D02*
X13840927Y-47027984D01*
X13840927Y-47027984D02*
X13840927Y-46961317D01*
X13840927Y-46961317D02*
X13807594Y-46861317D01*
X13807594Y-46861317D02*
X13774261Y-46827984D01*
X13507594Y-46294651D02*
X13474261Y-46194651D01*
X13474261Y-46194651D02*
X13440927Y-46161317D01*
X13440927Y-46161317D02*
X13374261Y-46127984D01*
X13374261Y-46127984D02*
X13274261Y-46127984D01*
X13274261Y-46127984D02*
X13207594Y-46161317D01*
X13207594Y-46161317D02*
X13174261Y-46194651D01*
X13174261Y-46194651D02*
X13140927Y-46261317D01*
X13140927Y-46261317D02*
X13140927Y-46527984D01*
X13140927Y-46527984D02*
X13840927Y-46527984D01*
X13840927Y-46527984D02*
X13840927Y-46294651D01*
X13840927Y-46294651D02*
X13807594Y-46227984D01*
X13807594Y-46227984D02*
X13774261Y-46194651D01*
X13774261Y-46194651D02*
X13707594Y-46161317D01*
X13707594Y-46161317D02*
X13640927Y-46161317D01*
X13640927Y-46161317D02*
X13574261Y-46194651D01*
X13574261Y-46194651D02*
X13540927Y-46227984D01*
X13540927Y-46227984D02*
X13507594Y-46294651D01*
X13507594Y-46294651D02*
X13507594Y-46527984D01*
X13507594Y-45061318D02*
X13474261Y-44961318D01*
X13474261Y-44961318D02*
X13440927Y-44927984D01*
X13440927Y-44927984D02*
X13374261Y-44894651D01*
X13374261Y-44894651D02*
X13274261Y-44894651D01*
X13274261Y-44894651D02*
X13207594Y-44927984D01*
X13207594Y-44927984D02*
X13174261Y-44961318D01*
X13174261Y-44961318D02*
X13140927Y-45027984D01*
X13140927Y-45027984D02*
X13140927Y-45294651D01*
X13140927Y-45294651D02*
X13840927Y-45294651D01*
X13840927Y-45294651D02*
X13840927Y-45061318D01*
X13840927Y-45061318D02*
X13807594Y-44994651D01*
X13807594Y-44994651D02*
X13774261Y-44961318D01*
X13774261Y-44961318D02*
X13707594Y-44927984D01*
X13707594Y-44927984D02*
X13640927Y-44927984D01*
X13640927Y-44927984D02*
X13574261Y-44961318D01*
X13574261Y-44961318D02*
X13540927Y-44994651D01*
X13540927Y-44994651D02*
X13507594Y-45061318D01*
X13507594Y-45061318D02*
X13507594Y-45294651D01*
X13607594Y-44294651D02*
X13140927Y-44294651D01*
X13607594Y-44594651D02*
X13240927Y-44594651D01*
X13240927Y-44594651D02*
X13174261Y-44561318D01*
X13174261Y-44561318D02*
X13140927Y-44494651D01*
X13140927Y-44494651D02*
X13140927Y-44394651D01*
X13140927Y-44394651D02*
X13174261Y-44327984D01*
X13174261Y-44327984D02*
X13207594Y-44294651D01*
X13140927Y-43961318D02*
X13607594Y-43961318D01*
X13540927Y-43961318D02*
X13574261Y-43927985D01*
X13574261Y-43927985D02*
X13607594Y-43861318D01*
X13607594Y-43861318D02*
X13607594Y-43761318D01*
X13607594Y-43761318D02*
X13574261Y-43694651D01*
X13574261Y-43694651D02*
X13507594Y-43661318D01*
X13507594Y-43661318D02*
X13140927Y-43661318D01*
X13507594Y-43661318D02*
X13574261Y-43627985D01*
X13574261Y-43627985D02*
X13607594Y-43561318D01*
X13607594Y-43561318D02*
X13607594Y-43461318D01*
X13607594Y-43461318D02*
X13574261Y-43394651D01*
X13574261Y-43394651D02*
X13507594Y-43361318D01*
X13507594Y-43361318D02*
X13140927Y-43361318D01*
X13607594Y-43027985D02*
X12907594Y-43027985D01*
X13574261Y-43027985D02*
X13607594Y-42961318D01*
X13607594Y-42961318D02*
X13607594Y-42827985D01*
X13607594Y-42827985D02*
X13574261Y-42761318D01*
X13574261Y-42761318D02*
X13540927Y-42727985D01*
X13540927Y-42727985D02*
X13474261Y-42694652D01*
X13474261Y-42694652D02*
X13274261Y-42694652D01*
X13274261Y-42694652D02*
X13207594Y-42727985D01*
X13207594Y-42727985D02*
X13174261Y-42761318D01*
X13174261Y-42761318D02*
X13140927Y-42827985D01*
X13140927Y-42827985D02*
X13140927Y-42961318D01*
X13140927Y-42961318D02*
X13174261Y-43027985D01*
X13140927Y-42394652D02*
X13840927Y-42394652D01*
X13574261Y-42394652D02*
X13607594Y-42327985D01*
X13607594Y-42327985D02*
X13607594Y-42194652D01*
X13607594Y-42194652D02*
X13574261Y-42127985D01*
X13574261Y-42127985D02*
X13540927Y-42094652D01*
X13540927Y-42094652D02*
X13474261Y-42061319D01*
X13474261Y-42061319D02*
X13274261Y-42061319D01*
X13274261Y-42061319D02*
X13207594Y-42094652D01*
X13207594Y-42094652D02*
X13174261Y-42127985D01*
X13174261Y-42127985D02*
X13140927Y-42194652D01*
X13140927Y-42194652D02*
X13140927Y-42327985D01*
X13140927Y-42327985D02*
X13174261Y-42394652D01*
X13140927Y-41661319D02*
X13174261Y-41727986D01*
X13174261Y-41727986D02*
X13207594Y-41761319D01*
X13207594Y-41761319D02*
X13274261Y-41794652D01*
X13274261Y-41794652D02*
X13474261Y-41794652D01*
X13474261Y-41794652D02*
X13540927Y-41761319D01*
X13540927Y-41761319D02*
X13574261Y-41727986D01*
X13574261Y-41727986D02*
X13607594Y-41661319D01*
X13607594Y-41661319D02*
X13607594Y-41561319D01*
X13607594Y-41561319D02*
X13574261Y-41494652D01*
X13574261Y-41494652D02*
X13540927Y-41461319D01*
X13540927Y-41461319D02*
X13474261Y-41427986D01*
X13474261Y-41427986D02*
X13274261Y-41427986D01*
X13274261Y-41427986D02*
X13207594Y-41461319D01*
X13207594Y-41461319D02*
X13174261Y-41494652D01*
X13174261Y-41494652D02*
X13140927Y-41561319D01*
X13140927Y-41561319D02*
X13140927Y-41661319D01*
X13607594Y-41127986D02*
X13140927Y-41127986D01*
X13540927Y-41127986D02*
X13574261Y-41094653D01*
X13574261Y-41094653D02*
X13607594Y-41027986D01*
X13607594Y-41027986D02*
X13607594Y-40927986D01*
X13607594Y-40927986D02*
X13574261Y-40861319D01*
X13574261Y-40861319D02*
X13507594Y-40827986D01*
X13507594Y-40827986D02*
X13140927Y-40827986D01*
X13140927Y-40194653D02*
X13840927Y-40194653D01*
X13174261Y-40194653D02*
X13140927Y-40261320D01*
X13140927Y-40261320D02*
X13140927Y-40394653D01*
X13140927Y-40394653D02*
X13174261Y-40461320D01*
X13174261Y-40461320D02*
X13207594Y-40494653D01*
X13207594Y-40494653D02*
X13274261Y-40527986D01*
X13274261Y-40527986D02*
X13474261Y-40527986D01*
X13474261Y-40527986D02*
X13540927Y-40494653D01*
X13540927Y-40494653D02*
X13574261Y-40461320D01*
X13574261Y-40461320D02*
X13607594Y-40394653D01*
X13607594Y-40394653D02*
X13607594Y-40261320D01*
X13607594Y-40261320D02*
X13574261Y-40194653D01*
X13140927Y-39327987D02*
X13840927Y-39327987D01*
X13840927Y-39327987D02*
X13340927Y-39094654D01*
X13340927Y-39094654D02*
X13840927Y-38861320D01*
X13840927Y-38861320D02*
X13140927Y-38861320D01*
X13140927Y-38427987D02*
X13174261Y-38494654D01*
X13174261Y-38494654D02*
X13207594Y-38527987D01*
X13207594Y-38527987D02*
X13274261Y-38561320D01*
X13274261Y-38561320D02*
X13474261Y-38561320D01*
X13474261Y-38561320D02*
X13540927Y-38527987D01*
X13540927Y-38527987D02*
X13574261Y-38494654D01*
X13574261Y-38494654D02*
X13607594Y-38427987D01*
X13607594Y-38427987D02*
X13607594Y-38327987D01*
X13607594Y-38327987D02*
X13574261Y-38261320D01*
X13574261Y-38261320D02*
X13540927Y-38227987D01*
X13540927Y-38227987D02*
X13474261Y-38194654D01*
X13474261Y-38194654D02*
X13274261Y-38194654D01*
X13274261Y-38194654D02*
X13207594Y-38227987D01*
X13207594Y-38227987D02*
X13174261Y-38261320D01*
X13174261Y-38261320D02*
X13140927Y-38327987D01*
X13140927Y-38327987D02*
X13140927Y-38427987D01*
X13174261Y-37594654D02*
X13140927Y-37661321D01*
X13140927Y-37661321D02*
X13140927Y-37794654D01*
X13140927Y-37794654D02*
X13174261Y-37861321D01*
X13174261Y-37861321D02*
X13207594Y-37894654D01*
X13207594Y-37894654D02*
X13274261Y-37927987D01*
X13274261Y-37927987D02*
X13474261Y-37927987D01*
X13474261Y-37927987D02*
X13540927Y-37894654D01*
X13540927Y-37894654D02*
X13574261Y-37861321D01*
X13574261Y-37861321D02*
X13607594Y-37794654D01*
X13607594Y-37794654D02*
X13607594Y-37661321D01*
X13607594Y-37661321D02*
X13574261Y-37594654D01*
X13140927Y-37294654D02*
X13840927Y-37294654D01*
X13407594Y-37227987D02*
X13140927Y-37027987D01*
X13607594Y-37027987D02*
X13340927Y-37294654D01*
X13607594Y-36427987D02*
X13140927Y-36427987D01*
X13607594Y-36727987D02*
X13240927Y-36727987D01*
X13240927Y-36727987D02*
X13174261Y-36694654D01*
X13174261Y-36694654D02*
X13140927Y-36627987D01*
X13140927Y-36627987D02*
X13140927Y-36527987D01*
X13140927Y-36527987D02*
X13174261Y-36461320D01*
X13174261Y-36461320D02*
X13207594Y-36427987D01*
X13607594Y-36094654D02*
X12907594Y-36094654D01*
X13574261Y-36094654D02*
X13607594Y-36027987D01*
X13607594Y-36027987D02*
X13607594Y-35894654D01*
X13607594Y-35894654D02*
X13574261Y-35827987D01*
X13574261Y-35827987D02*
X13540927Y-35794654D01*
X13540927Y-35794654D02*
X13474261Y-35761321D01*
X13474261Y-35761321D02*
X13274261Y-35761321D01*
X13274261Y-35761321D02*
X13207594Y-35794654D01*
X13207594Y-35794654D02*
X13174261Y-35827987D01*
X13174261Y-35827987D02*
X13140927Y-35894654D01*
X13140927Y-35894654D02*
X13140927Y-36027987D01*
X13140927Y-36027987D02*
X13174261Y-36094654D01*
X13840927Y-35027988D02*
X13140927Y-34794655D01*
X13140927Y-34794655D02*
X13840927Y-34561321D01*
X13140927Y-33961321D02*
X13140927Y-34361321D01*
X13140927Y-34161321D02*
X13840927Y-34161321D01*
X13840927Y-34161321D02*
X13740927Y-34227988D01*
X13740927Y-34227988D02*
X13674261Y-34294655D01*
X13674261Y-34294655D02*
X13640927Y-34361321D01*
X13207594Y-33661321D02*
X13174261Y-33627988D01*
X13174261Y-33627988D02*
X13140927Y-33661321D01*
X13140927Y-33661321D02*
X13174261Y-33694654D01*
X13174261Y-33694654D02*
X13207594Y-33661321D01*
X13207594Y-33661321D02*
X13140927Y-33661321D01*
X13840927Y-33194655D02*
X13840927Y-33127988D01*
X13840927Y-33127988D02*
X13807594Y-33061321D01*
X13807594Y-33061321D02*
X13774261Y-33027988D01*
X13774261Y-33027988D02*
X13707594Y-32994655D01*
X13707594Y-32994655D02*
X13574261Y-32961321D01*
X13574261Y-32961321D02*
X13407594Y-32961321D01*
X13407594Y-32961321D02*
X13274261Y-32994655D01*
X13274261Y-32994655D02*
X13207594Y-33027988D01*
X13207594Y-33027988D02*
X13174261Y-33061321D01*
X13174261Y-33061321D02*
X13140927Y-33127988D01*
X13140927Y-33127988D02*
X13140927Y-33194655D01*
X13140927Y-33194655D02*
X13174261Y-33261321D01*
X13174261Y-33261321D02*
X13207594Y-33294655D01*
X13207594Y-33294655D02*
X13274261Y-33327988D01*
X13274261Y-33327988D02*
X13407594Y-33361321D01*
X13407594Y-33361321D02*
X13574261Y-33361321D01*
X13574261Y-33361321D02*
X13707594Y-33327988D01*
X13707594Y-33327988D02*
X13774261Y-33294655D01*
X13774261Y-33294655D02*
X13807594Y-33261321D01*
X13807594Y-33261321D02*
X13840927Y-33194655D01*
X12380633Y-54161316D02*
X12347300Y-54061316D01*
X12347300Y-54061316D02*
X12313966Y-54027982D01*
X12313966Y-54027982D02*
X12247300Y-53994649D01*
X12247300Y-53994649D02*
X12147300Y-53994649D01*
X12147300Y-53994649D02*
X12080633Y-54027982D01*
X12080633Y-54027982D02*
X12047300Y-54061316D01*
X12047300Y-54061316D02*
X12013966Y-54127982D01*
X12013966Y-54127982D02*
X12013966Y-54394649D01*
X12013966Y-54394649D02*
X12713966Y-54394649D01*
X12713966Y-54394649D02*
X12713966Y-54161316D01*
X12713966Y-54161316D02*
X12680633Y-54094649D01*
X12680633Y-54094649D02*
X12647300Y-54061316D01*
X12647300Y-54061316D02*
X12580633Y-54027982D01*
X12580633Y-54027982D02*
X12513966Y-54027982D01*
X12513966Y-54027982D02*
X12447300Y-54061316D01*
X12447300Y-54061316D02*
X12413966Y-54094649D01*
X12413966Y-54094649D02*
X12380633Y-54161316D01*
X12380633Y-54161316D02*
X12380633Y-54394649D01*
X12013966Y-53594649D02*
X12047300Y-53661316D01*
X12047300Y-53661316D02*
X12080633Y-53694649D01*
X12080633Y-53694649D02*
X12147300Y-53727982D01*
X12147300Y-53727982D02*
X12347300Y-53727982D01*
X12347300Y-53727982D02*
X12413966Y-53694649D01*
X12413966Y-53694649D02*
X12447300Y-53661316D01*
X12447300Y-53661316D02*
X12480633Y-53594649D01*
X12480633Y-53594649D02*
X12480633Y-53494649D01*
X12480633Y-53494649D02*
X12447300Y-53427982D01*
X12447300Y-53427982D02*
X12413966Y-53394649D01*
X12413966Y-53394649D02*
X12347300Y-53361316D01*
X12347300Y-53361316D02*
X12147300Y-53361316D01*
X12147300Y-53361316D02*
X12080633Y-53394649D01*
X12080633Y-53394649D02*
X12047300Y-53427982D01*
X12047300Y-53427982D02*
X12013966Y-53494649D01*
X12013966Y-53494649D02*
X12013966Y-53594649D01*
X12047300Y-53094649D02*
X12013966Y-53027983D01*
X12013966Y-53027983D02*
X12013966Y-52894649D01*
X12013966Y-52894649D02*
X12047300Y-52827983D01*
X12047300Y-52827983D02*
X12113966Y-52794649D01*
X12113966Y-52794649D02*
X12147300Y-52794649D01*
X12147300Y-52794649D02*
X12213966Y-52827983D01*
X12213966Y-52827983D02*
X12247300Y-52894649D01*
X12247300Y-52894649D02*
X12247300Y-52994649D01*
X12247300Y-52994649D02*
X12280633Y-53061316D01*
X12280633Y-53061316D02*
X12347300Y-53094649D01*
X12347300Y-53094649D02*
X12380633Y-53094649D01*
X12380633Y-53094649D02*
X12447300Y-53061316D01*
X12447300Y-53061316D02*
X12480633Y-52994649D01*
X12480633Y-52994649D02*
X12480633Y-52894649D01*
X12480633Y-52894649D02*
X12447300Y-52827983D01*
X12480633Y-52594649D02*
X12480633Y-52327982D01*
X12713966Y-52494649D02*
X12113966Y-52494649D01*
X12113966Y-52494649D02*
X12047300Y-52461316D01*
X12047300Y-52461316D02*
X12013966Y-52394649D01*
X12013966Y-52394649D02*
X12013966Y-52327982D01*
X12013966Y-51994649D02*
X12047300Y-52061316D01*
X12047300Y-52061316D02*
X12080633Y-52094649D01*
X12080633Y-52094649D02*
X12147300Y-52127982D01*
X12147300Y-52127982D02*
X12347300Y-52127982D01*
X12347300Y-52127982D02*
X12413966Y-52094649D01*
X12413966Y-52094649D02*
X12447300Y-52061316D01*
X12447300Y-52061316D02*
X12480633Y-51994649D01*
X12480633Y-51994649D02*
X12480633Y-51894649D01*
X12480633Y-51894649D02*
X12447300Y-51827982D01*
X12447300Y-51827982D02*
X12413966Y-51794649D01*
X12413966Y-51794649D02*
X12347300Y-51761316D01*
X12347300Y-51761316D02*
X12147300Y-51761316D01*
X12147300Y-51761316D02*
X12080633Y-51794649D01*
X12080633Y-51794649D02*
X12047300Y-51827982D01*
X12047300Y-51827982D02*
X12013966Y-51894649D01*
X12013966Y-51894649D02*
X12013966Y-51994649D01*
X12480633Y-51461316D02*
X12013966Y-51461316D01*
X12413966Y-51461316D02*
X12447300Y-51427983D01*
X12447300Y-51427983D02*
X12480633Y-51361316D01*
X12480633Y-51361316D02*
X12480633Y-51261316D01*
X12480633Y-51261316D02*
X12447300Y-51194649D01*
X12447300Y-51194649D02*
X12380633Y-51161316D01*
X12380633Y-51161316D02*
X12013966Y-51161316D01*
X12713966Y-50294650D02*
X12147300Y-50294650D01*
X12147300Y-50294650D02*
X12080633Y-50261317D01*
X12080633Y-50261317D02*
X12047300Y-50227983D01*
X12047300Y-50227983D02*
X12013966Y-50161317D01*
X12013966Y-50161317D02*
X12013966Y-50027983D01*
X12013966Y-50027983D02*
X12047300Y-49961317D01*
X12047300Y-49961317D02*
X12080633Y-49927983D01*
X12080633Y-49927983D02*
X12147300Y-49894650D01*
X12147300Y-49894650D02*
X12713966Y-49894650D01*
X12480633Y-49561317D02*
X12013966Y-49561317D01*
X12413966Y-49561317D02*
X12447300Y-49527984D01*
X12447300Y-49527984D02*
X12480633Y-49461317D01*
X12480633Y-49461317D02*
X12480633Y-49361317D01*
X12480633Y-49361317D02*
X12447300Y-49294650D01*
X12447300Y-49294650D02*
X12380633Y-49261317D01*
X12380633Y-49261317D02*
X12013966Y-49261317D01*
X12013966Y-48927984D02*
X12480633Y-48927984D01*
X12713966Y-48927984D02*
X12680633Y-48961317D01*
X12680633Y-48961317D02*
X12647300Y-48927984D01*
X12647300Y-48927984D02*
X12680633Y-48894651D01*
X12680633Y-48894651D02*
X12713966Y-48927984D01*
X12713966Y-48927984D02*
X12647300Y-48927984D01*
X12480633Y-48661318D02*
X12013966Y-48494651D01*
X12013966Y-48494651D02*
X12480633Y-48327984D01*
X12047300Y-47794651D02*
X12013966Y-47861318D01*
X12013966Y-47861318D02*
X12013966Y-47994651D01*
X12013966Y-47994651D02*
X12047300Y-48061318D01*
X12047300Y-48061318D02*
X12113966Y-48094651D01*
X12113966Y-48094651D02*
X12380633Y-48094651D01*
X12380633Y-48094651D02*
X12447300Y-48061318D01*
X12447300Y-48061318D02*
X12480633Y-47994651D01*
X12480633Y-47994651D02*
X12480633Y-47861318D01*
X12480633Y-47861318D02*
X12447300Y-47794651D01*
X12447300Y-47794651D02*
X12380633Y-47761318D01*
X12380633Y-47761318D02*
X12313966Y-47761318D01*
X12313966Y-47761318D02*
X12247300Y-48094651D01*
X12013966Y-47461318D02*
X12480633Y-47461318D01*
X12347300Y-47461318D02*
X12413966Y-47427985D01*
X12413966Y-47427985D02*
X12447300Y-47394651D01*
X12447300Y-47394651D02*
X12480633Y-47327985D01*
X12480633Y-47327985D02*
X12480633Y-47261318D01*
X12047300Y-47061318D02*
X12013966Y-46994652D01*
X12013966Y-46994652D02*
X12013966Y-46861318D01*
X12013966Y-46861318D02*
X12047300Y-46794652D01*
X12047300Y-46794652D02*
X12113966Y-46761318D01*
X12113966Y-46761318D02*
X12147300Y-46761318D01*
X12147300Y-46761318D02*
X12213966Y-46794652D01*
X12213966Y-46794652D02*
X12247300Y-46861318D01*
X12247300Y-46861318D02*
X12247300Y-46961318D01*
X12247300Y-46961318D02*
X12280633Y-47027985D01*
X12280633Y-47027985D02*
X12347300Y-47061318D01*
X12347300Y-47061318D02*
X12380633Y-47061318D01*
X12380633Y-47061318D02*
X12447300Y-47027985D01*
X12447300Y-47027985D02*
X12480633Y-46961318D01*
X12480633Y-46961318D02*
X12480633Y-46861318D01*
X12480633Y-46861318D02*
X12447300Y-46794652D01*
X12013966Y-46461318D02*
X12480633Y-46461318D01*
X12713966Y-46461318D02*
X12680633Y-46494651D01*
X12680633Y-46494651D02*
X12647300Y-46461318D01*
X12647300Y-46461318D02*
X12680633Y-46427985D01*
X12680633Y-46427985D02*
X12713966Y-46461318D01*
X12713966Y-46461318D02*
X12647300Y-46461318D01*
X12480633Y-46227985D02*
X12480633Y-45961318D01*
X12713966Y-46127985D02*
X12113966Y-46127985D01*
X12113966Y-46127985D02*
X12047300Y-46094652D01*
X12047300Y-46094652D02*
X12013966Y-46027985D01*
X12013966Y-46027985D02*
X12013966Y-45961318D01*
X12480633Y-45794652D02*
X12013966Y-45627985D01*
X12480633Y-45461318D02*
X12013966Y-45627985D01*
X12013966Y-45627985D02*
X11847300Y-45694652D01*
X11847300Y-45694652D02*
X11813966Y-45727985D01*
X11813966Y-45727985D02*
X11780633Y-45794652D01*
X10887005Y-54394649D02*
X11587005Y-54394649D01*
X11587005Y-54394649D02*
X10887005Y-53994649D01*
X10887005Y-53994649D02*
X11587005Y-53994649D01*
X10953672Y-53661316D02*
X10920339Y-53627983D01*
X10920339Y-53627983D02*
X10887005Y-53661316D01*
X10887005Y-53661316D02*
X10920339Y-53694649D01*
X10920339Y-53694649D02*
X10953672Y-53661316D01*
X10953672Y-53661316D02*
X10887005Y-53661316D01*
X11553672Y-52427983D02*
X11587005Y-52494650D01*
X11587005Y-52494650D02*
X11587005Y-52594650D01*
X11587005Y-52594650D02*
X11553672Y-52694650D01*
X11553672Y-52694650D02*
X11487005Y-52761317D01*
X11487005Y-52761317D02*
X11420339Y-52794650D01*
X11420339Y-52794650D02*
X11287005Y-52827983D01*
X11287005Y-52827983D02*
X11187005Y-52827983D01*
X11187005Y-52827983D02*
X11053672Y-52794650D01*
X11053672Y-52794650D02*
X10987005Y-52761317D01*
X10987005Y-52761317D02*
X10920339Y-52694650D01*
X10920339Y-52694650D02*
X10887005Y-52594650D01*
X10887005Y-52594650D02*
X10887005Y-52527983D01*
X10887005Y-52527983D02*
X10920339Y-52427983D01*
X10920339Y-52427983D02*
X10953672Y-52394650D01*
X10953672Y-52394650D02*
X11187005Y-52394650D01*
X11187005Y-52394650D02*
X11187005Y-52527983D01*
X10887005Y-51994650D02*
X10920339Y-52061317D01*
X10920339Y-52061317D02*
X10953672Y-52094650D01*
X10953672Y-52094650D02*
X11020339Y-52127983D01*
X11020339Y-52127983D02*
X11220339Y-52127983D01*
X11220339Y-52127983D02*
X11287005Y-52094650D01*
X11287005Y-52094650D02*
X11320339Y-52061317D01*
X11320339Y-52061317D02*
X11353672Y-51994650D01*
X11353672Y-51994650D02*
X11353672Y-51894650D01*
X11353672Y-51894650D02*
X11320339Y-51827983D01*
X11320339Y-51827983D02*
X11287005Y-51794650D01*
X11287005Y-51794650D02*
X11220339Y-51761317D01*
X11220339Y-51761317D02*
X11020339Y-51761317D01*
X11020339Y-51761317D02*
X10953672Y-51794650D01*
X10953672Y-51794650D02*
X10920339Y-51827983D01*
X10920339Y-51827983D02*
X10887005Y-51894650D01*
X10887005Y-51894650D02*
X10887005Y-51994650D01*
X11353672Y-51461317D02*
X10887005Y-51461317D01*
X11287005Y-51461317D02*
X11320339Y-51427984D01*
X11320339Y-51427984D02*
X11353672Y-51361317D01*
X11353672Y-51361317D02*
X11353672Y-51261317D01*
X11353672Y-51261317D02*
X11320339Y-51194650D01*
X11320339Y-51194650D02*
X11253672Y-51161317D01*
X11253672Y-51161317D02*
X10887005Y-51161317D01*
X11353672Y-50894651D02*
X11353672Y-50527984D01*
X11353672Y-50527984D02*
X10887005Y-50894651D01*
X10887005Y-50894651D02*
X10887005Y-50527984D01*
X10887005Y-49961317D02*
X11253672Y-49961317D01*
X11253672Y-49961317D02*
X11320339Y-49994650D01*
X11320339Y-49994650D02*
X11353672Y-50061317D01*
X11353672Y-50061317D02*
X11353672Y-50194650D01*
X11353672Y-50194650D02*
X11320339Y-50261317D01*
X10920339Y-49961317D02*
X10887005Y-50027984D01*
X10887005Y-50027984D02*
X10887005Y-50194650D01*
X10887005Y-50194650D02*
X10920339Y-50261317D01*
X10920339Y-50261317D02*
X10987005Y-50294650D01*
X10987005Y-50294650D02*
X11053672Y-50294650D01*
X11053672Y-50294650D02*
X11120339Y-50261317D01*
X11120339Y-50261317D02*
X11153672Y-50194650D01*
X11153672Y-50194650D02*
X11153672Y-50027984D01*
X11153672Y-50027984D02*
X11187005Y-49961317D01*
X10887005Y-49527984D02*
X10920339Y-49594651D01*
X10920339Y-49594651D02*
X10987005Y-49627984D01*
X10987005Y-49627984D02*
X11587005Y-49627984D01*
X10920339Y-48994650D02*
X10887005Y-49061317D01*
X10887005Y-49061317D02*
X10887005Y-49194650D01*
X10887005Y-49194650D02*
X10920339Y-49261317D01*
X10920339Y-49261317D02*
X10987005Y-49294650D01*
X10987005Y-49294650D02*
X11253672Y-49294650D01*
X11253672Y-49294650D02*
X11320339Y-49261317D01*
X11320339Y-49261317D02*
X11353672Y-49194650D01*
X11353672Y-49194650D02*
X11353672Y-49061317D01*
X11353672Y-49061317D02*
X11320339Y-48994650D01*
X11320339Y-48994650D02*
X11253672Y-48961317D01*
X11253672Y-48961317D02*
X11187005Y-48961317D01*
X11187005Y-48961317D02*
X11120339Y-49294650D01*
X11353672Y-48727984D02*
X11353672Y-48361317D01*
X11353672Y-48361317D02*
X10887005Y-48727984D01*
X10887005Y-48727984D02*
X10887005Y-48361317D01*
X11587005Y-47427984D02*
X11587005Y-47361317D01*
X11587005Y-47361317D02*
X11553672Y-47294650D01*
X11553672Y-47294650D02*
X11520339Y-47261317D01*
X11520339Y-47261317D02*
X11453672Y-47227984D01*
X11453672Y-47227984D02*
X11320339Y-47194650D01*
X11320339Y-47194650D02*
X11153672Y-47194650D01*
X11153672Y-47194650D02*
X11020339Y-47227984D01*
X11020339Y-47227984D02*
X10953672Y-47261317D01*
X10953672Y-47261317D02*
X10920339Y-47294650D01*
X10920339Y-47294650D02*
X10887005Y-47361317D01*
X10887005Y-47361317D02*
X10887005Y-47427984D01*
X10887005Y-47427984D02*
X10920339Y-47494650D01*
X10920339Y-47494650D02*
X10953672Y-47527984D01*
X10953672Y-47527984D02*
X11020339Y-47561317D01*
X11020339Y-47561317D02*
X11153672Y-47594650D01*
X11153672Y-47594650D02*
X11320339Y-47594650D01*
X11320339Y-47594650D02*
X11453672Y-47561317D01*
X11453672Y-47561317D02*
X11520339Y-47527984D01*
X11520339Y-47527984D02*
X11553672Y-47494650D01*
X11553672Y-47494650D02*
X11587005Y-47427984D01*
X11587005Y-46561317D02*
X11587005Y-46894650D01*
X11587005Y-46894650D02*
X11253672Y-46927983D01*
X11253672Y-46927983D02*
X11287005Y-46894650D01*
X11287005Y-46894650D02*
X11320339Y-46827983D01*
X11320339Y-46827983D02*
X11320339Y-46661317D01*
X11320339Y-46661317D02*
X11287005Y-46594650D01*
X11287005Y-46594650D02*
X11253672Y-46561317D01*
X11253672Y-46561317D02*
X11187005Y-46527983D01*
X11187005Y-46527983D02*
X11020339Y-46527983D01*
X11020339Y-46527983D02*
X10953672Y-46561317D01*
X10953672Y-46561317D02*
X10920339Y-46594650D01*
X10920339Y-46594650D02*
X10887005Y-46661317D01*
X10887005Y-46661317D02*
X10887005Y-46827983D01*
X10887005Y-46827983D02*
X10920339Y-46894650D01*
X10920339Y-46894650D02*
X10953672Y-46927983D01*
X11153672Y-46227983D02*
X11153672Y-45694650D01*
X11520339Y-45394649D02*
X11553672Y-45361316D01*
X11553672Y-45361316D02*
X11587005Y-45294649D01*
X11587005Y-45294649D02*
X11587005Y-45127983D01*
X11587005Y-45127983D02*
X11553672Y-45061316D01*
X11553672Y-45061316D02*
X11520339Y-45027983D01*
X11520339Y-45027983D02*
X11453672Y-44994649D01*
X11453672Y-44994649D02*
X11387005Y-44994649D01*
X11387005Y-44994649D02*
X11287005Y-45027983D01*
X11287005Y-45027983D02*
X10887005Y-45427983D01*
X10887005Y-45427983D02*
X10887005Y-44994649D01*
X11587005Y-44561316D02*
X11587005Y-44494649D01*
X11587005Y-44494649D02*
X11553672Y-44427982D01*
X11553672Y-44427982D02*
X11520339Y-44394649D01*
X11520339Y-44394649D02*
X11453672Y-44361316D01*
X11453672Y-44361316D02*
X11320339Y-44327982D01*
X11320339Y-44327982D02*
X11153672Y-44327982D01*
X11153672Y-44327982D02*
X11020339Y-44361316D01*
X11020339Y-44361316D02*
X10953672Y-44394649D01*
X10953672Y-44394649D02*
X10920339Y-44427982D01*
X10920339Y-44427982D02*
X10887005Y-44494649D01*
X10887005Y-44494649D02*
X10887005Y-44561316D01*
X10887005Y-44561316D02*
X10920339Y-44627982D01*
X10920339Y-44627982D02*
X10953672Y-44661316D01*
X10953672Y-44661316D02*
X11020339Y-44694649D01*
X11020339Y-44694649D02*
X11153672Y-44727982D01*
X11153672Y-44727982D02*
X11320339Y-44727982D01*
X11320339Y-44727982D02*
X11453672Y-44694649D01*
X11453672Y-44694649D02*
X11520339Y-44661316D01*
X11520339Y-44661316D02*
X11553672Y-44627982D01*
X11553672Y-44627982D02*
X11587005Y-44561316D01*
X11520339Y-44061315D02*
X11553672Y-44027982D01*
X11553672Y-44027982D02*
X11587005Y-43961315D01*
X11587005Y-43961315D02*
X11587005Y-43794649D01*
X11587005Y-43794649D02*
X11553672Y-43727982D01*
X11553672Y-43727982D02*
X11520339Y-43694649D01*
X11520339Y-43694649D02*
X11453672Y-43661315D01*
X11453672Y-43661315D02*
X11387005Y-43661315D01*
X11387005Y-43661315D02*
X11287005Y-43694649D01*
X11287005Y-43694649D02*
X10887005Y-44094649D01*
X10887005Y-44094649D02*
X10887005Y-43661315D01*
X11587005Y-43027982D02*
X11587005Y-43361315D01*
X11587005Y-43361315D02*
X11253672Y-43394648D01*
X11253672Y-43394648D02*
X11287005Y-43361315D01*
X11287005Y-43361315D02*
X11320339Y-43294648D01*
X11320339Y-43294648D02*
X11320339Y-43127982D01*
X11320339Y-43127982D02*
X11287005Y-43061315D01*
X11287005Y-43061315D02*
X11253672Y-43027982D01*
X11253672Y-43027982D02*
X11187005Y-42994648D01*
X11187005Y-42994648D02*
X11020339Y-42994648D01*
X11020339Y-42994648D02*
X10953672Y-43027982D01*
X10953672Y-43027982D02*
X10920339Y-43061315D01*
X10920339Y-43061315D02*
X10887005Y-43127982D01*
X10887005Y-43127982D02*
X10887005Y-43294648D01*
X10887005Y-43294648D02*
X10920339Y-43361315D01*
X10920339Y-43361315D02*
X10953672Y-43394648D01*
D12*
X47639013Y-39609769D02*
X47674727Y-39645484D01*
X47674727Y-39645484D02*
X47781870Y-39681198D01*
X47781870Y-39681198D02*
X47853298Y-39681198D01*
X47853298Y-39681198D02*
X47960441Y-39645484D01*
X47960441Y-39645484D02*
X48031870Y-39574055D01*
X48031870Y-39574055D02*
X48067584Y-39502626D01*
X48067584Y-39502626D02*
X48103298Y-39359769D01*
X48103298Y-39359769D02*
X48103298Y-39252626D01*
X48103298Y-39252626D02*
X48067584Y-39109769D01*
X48067584Y-39109769D02*
X48031870Y-39038341D01*
X48031870Y-39038341D02*
X47960441Y-38966912D01*
X47960441Y-38966912D02*
X47853298Y-38931198D01*
X47853298Y-38931198D02*
X47781870Y-38931198D01*
X47781870Y-38931198D02*
X47674727Y-38966912D01*
X47674727Y-38966912D02*
X47639013Y-39002626D01*
X46960441Y-39681198D02*
X47317584Y-39681198D01*
X47317584Y-39681198D02*
X47317584Y-38931198D01*
X46710441Y-39681198D02*
X46710441Y-38931198D01*
X46281870Y-39681198D02*
X46603298Y-39252626D01*
X46281870Y-38931198D02*
X46710441Y-39359769D01*
X48853298Y-40888656D02*
X48853298Y-40138656D01*
X48853298Y-40138656D02*
X48674727Y-40138656D01*
X48674727Y-40138656D02*
X48567584Y-40174370D01*
X48567584Y-40174370D02*
X48496155Y-40245799D01*
X48496155Y-40245799D02*
X48460441Y-40317227D01*
X48460441Y-40317227D02*
X48424727Y-40460084D01*
X48424727Y-40460084D02*
X48424727Y-40567227D01*
X48424727Y-40567227D02*
X48460441Y-40710084D01*
X48460441Y-40710084D02*
X48496155Y-40781513D01*
X48496155Y-40781513D02*
X48567584Y-40852942D01*
X48567584Y-40852942D02*
X48674727Y-40888656D01*
X48674727Y-40888656D02*
X48853298Y-40888656D01*
X47960441Y-40138656D02*
X47817584Y-40138656D01*
X47817584Y-40138656D02*
X47746155Y-40174370D01*
X47746155Y-40174370D02*
X47674727Y-40245799D01*
X47674727Y-40245799D02*
X47639012Y-40388656D01*
X47639012Y-40388656D02*
X47639012Y-40638656D01*
X47639012Y-40638656D02*
X47674727Y-40781513D01*
X47674727Y-40781513D02*
X47746155Y-40852942D01*
X47746155Y-40852942D02*
X47817584Y-40888656D01*
X47817584Y-40888656D02*
X47960441Y-40888656D01*
X47960441Y-40888656D02*
X48031870Y-40852942D01*
X48031870Y-40852942D02*
X48103298Y-40781513D01*
X48103298Y-40781513D02*
X48139012Y-40638656D01*
X48139012Y-40638656D02*
X48139012Y-40388656D01*
X48139012Y-40388656D02*
X48103298Y-40245799D01*
X48103298Y-40245799D02*
X48031870Y-40174370D01*
X48031870Y-40174370D02*
X47960441Y-40138656D01*
X47317584Y-40138656D02*
X47317584Y-40745799D01*
X47317584Y-40745799D02*
X47281870Y-40817227D01*
X47281870Y-40817227D02*
X47246156Y-40852942D01*
X47246156Y-40852942D02*
X47174727Y-40888656D01*
X47174727Y-40888656D02*
X47031870Y-40888656D01*
X47031870Y-40888656D02*
X46960441Y-40852942D01*
X46960441Y-40852942D02*
X46924727Y-40817227D01*
X46924727Y-40817227D02*
X46889013Y-40745799D01*
X46889013Y-40745799D02*
X46889013Y-40138656D01*
X46639013Y-40138656D02*
X46210442Y-40138656D01*
X46424727Y-40888656D02*
X46424727Y-40138656D01*
X48853300Y-42024685D02*
X48889014Y-42060400D01*
X48889014Y-42060400D02*
X48996157Y-42096114D01*
X48996157Y-42096114D02*
X49067585Y-42096114D01*
X49067585Y-42096114D02*
X49174728Y-42060400D01*
X49174728Y-42060400D02*
X49246157Y-41988971D01*
X49246157Y-41988971D02*
X49281871Y-41917542D01*
X49281871Y-41917542D02*
X49317585Y-41774685D01*
X49317585Y-41774685D02*
X49317585Y-41667542D01*
X49317585Y-41667542D02*
X49281871Y-41524685D01*
X49281871Y-41524685D02*
X49246157Y-41453257D01*
X49246157Y-41453257D02*
X49174728Y-41381828D01*
X49174728Y-41381828D02*
X49067585Y-41346114D01*
X49067585Y-41346114D02*
X48996157Y-41346114D01*
X48996157Y-41346114D02*
X48889014Y-41381828D01*
X48889014Y-41381828D02*
X48853300Y-41417542D01*
X48567585Y-42060400D02*
X48460443Y-42096114D01*
X48460443Y-42096114D02*
X48281871Y-42096114D01*
X48281871Y-42096114D02*
X48210443Y-42060400D01*
X48210443Y-42060400D02*
X48174728Y-42024685D01*
X48174728Y-42024685D02*
X48139014Y-41953257D01*
X48139014Y-41953257D02*
X48139014Y-41881828D01*
X48139014Y-41881828D02*
X48174728Y-41810400D01*
X48174728Y-41810400D02*
X48210443Y-41774685D01*
X48210443Y-41774685D02*
X48281871Y-41738971D01*
X48281871Y-41738971D02*
X48424728Y-41703257D01*
X48424728Y-41703257D02*
X48496157Y-41667542D01*
X48496157Y-41667542D02*
X48531871Y-41631828D01*
X48531871Y-41631828D02*
X48567585Y-41560400D01*
X48567585Y-41560400D02*
X48567585Y-41488971D01*
X48567585Y-41488971D02*
X48531871Y-41417542D01*
X48531871Y-41417542D02*
X48496157Y-41381828D01*
X48496157Y-41381828D02*
X48424728Y-41346114D01*
X48424728Y-41346114D02*
X48246157Y-41346114D01*
X48246157Y-41346114D02*
X48139014Y-41381828D01*
X47996157Y-42167542D02*
X47424728Y-42167542D01*
X47353299Y-41346114D02*
X46924728Y-41346114D01*
X47139013Y-42096114D02*
X47139013Y-41346114D01*
X46710441Y-41417542D02*
X46674727Y-41381828D01*
X46674727Y-41381828D02*
X46603299Y-41346114D01*
X46603299Y-41346114D02*
X46424727Y-41346114D01*
X46424727Y-41346114D02*
X46353299Y-41381828D01*
X46353299Y-41381828D02*
X46317584Y-41417542D01*
X46317584Y-41417542D02*
X46281870Y-41488971D01*
X46281870Y-41488971D02*
X46281870Y-41560400D01*
X46281870Y-41560400D02*
X46317584Y-41667542D01*
X46317584Y-41667542D02*
X46746156Y-42096114D01*
X46746156Y-42096114D02*
X46281870Y-42096114D01*
X49385443Y-41137900D02*
X46214013Y-41137900D01*
X48853300Y-43232143D02*
X48889014Y-43267858D01*
X48889014Y-43267858D02*
X48996157Y-43303572D01*
X48996157Y-43303572D02*
X49067585Y-43303572D01*
X49067585Y-43303572D02*
X49174728Y-43267858D01*
X49174728Y-43267858D02*
X49246157Y-43196429D01*
X49246157Y-43196429D02*
X49281871Y-43125000D01*
X49281871Y-43125000D02*
X49317585Y-42982143D01*
X49317585Y-42982143D02*
X49317585Y-42875000D01*
X49317585Y-42875000D02*
X49281871Y-42732143D01*
X49281871Y-42732143D02*
X49246157Y-42660715D01*
X49246157Y-42660715D02*
X49174728Y-42589286D01*
X49174728Y-42589286D02*
X49067585Y-42553572D01*
X49067585Y-42553572D02*
X48996157Y-42553572D01*
X48996157Y-42553572D02*
X48889014Y-42589286D01*
X48889014Y-42589286D02*
X48853300Y-42625000D01*
X48567585Y-43267858D02*
X48460443Y-43303572D01*
X48460443Y-43303572D02*
X48281871Y-43303572D01*
X48281871Y-43303572D02*
X48210443Y-43267858D01*
X48210443Y-43267858D02*
X48174728Y-43232143D01*
X48174728Y-43232143D02*
X48139014Y-43160715D01*
X48139014Y-43160715D02*
X48139014Y-43089286D01*
X48139014Y-43089286D02*
X48174728Y-43017858D01*
X48174728Y-43017858D02*
X48210443Y-42982143D01*
X48210443Y-42982143D02*
X48281871Y-42946429D01*
X48281871Y-42946429D02*
X48424728Y-42910715D01*
X48424728Y-42910715D02*
X48496157Y-42875000D01*
X48496157Y-42875000D02*
X48531871Y-42839286D01*
X48531871Y-42839286D02*
X48567585Y-42767858D01*
X48567585Y-42767858D02*
X48567585Y-42696429D01*
X48567585Y-42696429D02*
X48531871Y-42625000D01*
X48531871Y-42625000D02*
X48496157Y-42589286D01*
X48496157Y-42589286D02*
X48424728Y-42553572D01*
X48424728Y-42553572D02*
X48246157Y-42553572D01*
X48246157Y-42553572D02*
X48139014Y-42589286D01*
X47996157Y-43375000D02*
X47424728Y-43375000D01*
X47353299Y-42553572D02*
X46924728Y-42553572D01*
X47139013Y-43303572D02*
X47139013Y-42553572D01*
X46281870Y-43303572D02*
X46710441Y-43303572D01*
X46496156Y-43303572D02*
X46496156Y-42553572D01*
X46496156Y-42553572D02*
X46567584Y-42660715D01*
X46567584Y-42660715D02*
X46639013Y-42732143D01*
X46639013Y-42732143D02*
X46710441Y-42767858D01*
X49385443Y-42345358D02*
X46214013Y-42345358D01*
X48853298Y-44296744D02*
X48496156Y-44296744D01*
X48924727Y-44511030D02*
X48674727Y-43761030D01*
X48674727Y-43761030D02*
X48424727Y-44511030D01*
X48174727Y-44511030D02*
X48174727Y-43761030D01*
X48174727Y-43761030D02*
X47996156Y-43761030D01*
X47996156Y-43761030D02*
X47889013Y-43796744D01*
X47889013Y-43796744D02*
X47817584Y-43868173D01*
X47817584Y-43868173D02*
X47781870Y-43939601D01*
X47781870Y-43939601D02*
X47746156Y-44082458D01*
X47746156Y-44082458D02*
X47746156Y-44189601D01*
X47746156Y-44189601D02*
X47781870Y-44332458D01*
X47781870Y-44332458D02*
X47817584Y-44403887D01*
X47817584Y-44403887D02*
X47889013Y-44475316D01*
X47889013Y-44475316D02*
X47996156Y-44511030D01*
X47996156Y-44511030D02*
X48174727Y-44511030D01*
X46996156Y-44439601D02*
X47031870Y-44475316D01*
X47031870Y-44475316D02*
X47139013Y-44511030D01*
X47139013Y-44511030D02*
X47210441Y-44511030D01*
X47210441Y-44511030D02*
X47317584Y-44475316D01*
X47317584Y-44475316D02*
X47389013Y-44403887D01*
X47389013Y-44403887D02*
X47424727Y-44332458D01*
X47424727Y-44332458D02*
X47460441Y-44189601D01*
X47460441Y-44189601D02*
X47460441Y-44082458D01*
X47460441Y-44082458D02*
X47424727Y-43939601D01*
X47424727Y-43939601D02*
X47389013Y-43868173D01*
X47389013Y-43868173D02*
X47317584Y-43796744D01*
X47317584Y-43796744D02*
X47210441Y-43761030D01*
X47210441Y-43761030D02*
X47139013Y-43761030D01*
X47139013Y-43761030D02*
X47031870Y-43796744D01*
X47031870Y-43796744D02*
X46996156Y-43832458D01*
X46746156Y-43761030D02*
X46281870Y-43761030D01*
X46281870Y-43761030D02*
X46531870Y-44046744D01*
X46531870Y-44046744D02*
X46424727Y-44046744D01*
X46424727Y-44046744D02*
X46353299Y-44082458D01*
X46353299Y-44082458D02*
X46317584Y-44118173D01*
X46317584Y-44118173D02*
X46281870Y-44189601D01*
X46281870Y-44189601D02*
X46281870Y-44368173D01*
X46281870Y-44368173D02*
X46317584Y-44439601D01*
X46317584Y-44439601D02*
X46353299Y-44475316D01*
X46353299Y-44475316D02*
X46424727Y-44511030D01*
X46424727Y-44511030D02*
X46639013Y-44511030D01*
X46639013Y-44511030D02*
X46710441Y-44475316D01*
X46710441Y-44475316D02*
X46746156Y-44439601D01*
X48921156Y-43552816D02*
X46214013Y-43552816D01*
D13*
X43333333Y-46677190D02*
X43357142Y-46701000D01*
X43357142Y-46701000D02*
X43428571Y-46724809D01*
X43428571Y-46724809D02*
X43476190Y-46724809D01*
X43476190Y-46724809D02*
X43547618Y-46701000D01*
X43547618Y-46701000D02*
X43595237Y-46653380D01*
X43595237Y-46653380D02*
X43619047Y-46605761D01*
X43619047Y-46605761D02*
X43642856Y-46510523D01*
X43642856Y-46510523D02*
X43642856Y-46439095D01*
X43642856Y-46439095D02*
X43619047Y-46343857D01*
X43619047Y-46343857D02*
X43595237Y-46296238D01*
X43595237Y-46296238D02*
X43547618Y-46248619D01*
X43547618Y-46248619D02*
X43476190Y-46224809D01*
X43476190Y-46224809D02*
X43428571Y-46224809D01*
X43428571Y-46224809D02*
X43357142Y-46248619D01*
X43357142Y-46248619D02*
X43333333Y-46272428D01*
X43047618Y-46439095D02*
X43095237Y-46415285D01*
X43095237Y-46415285D02*
X43119047Y-46391476D01*
X43119047Y-46391476D02*
X43142856Y-46343857D01*
X43142856Y-46343857D02*
X43142856Y-46320047D01*
X43142856Y-46320047D02*
X43119047Y-46272428D01*
X43119047Y-46272428D02*
X43095237Y-46248619D01*
X43095237Y-46248619D02*
X43047618Y-46224809D01*
X43047618Y-46224809D02*
X42952380Y-46224809D01*
X42952380Y-46224809D02*
X42904761Y-46248619D01*
X42904761Y-46248619D02*
X42880952Y-46272428D01*
X42880952Y-46272428D02*
X42857142Y-46320047D01*
X42857142Y-46320047D02*
X42857142Y-46343857D01*
X42857142Y-46343857D02*
X42880952Y-46391476D01*
X42880952Y-46391476D02*
X42904761Y-46415285D01*
X42904761Y-46415285D02*
X42952380Y-46439095D01*
X42952380Y-46439095D02*
X43047618Y-46439095D01*
X43047618Y-46439095D02*
X43095237Y-46462904D01*
X43095237Y-46462904D02*
X43119047Y-46486714D01*
X43119047Y-46486714D02*
X43142856Y-46534333D01*
X43142856Y-46534333D02*
X43142856Y-46629571D01*
X43142856Y-46629571D02*
X43119047Y-46677190D01*
X43119047Y-46677190D02*
X43095237Y-46701000D01*
X43095237Y-46701000D02*
X43047618Y-46724809D01*
X43047618Y-46724809D02*
X42952380Y-46724809D01*
X42952380Y-46724809D02*
X42904761Y-46701000D01*
X42904761Y-46701000D02*
X42880952Y-46677190D01*
X42880952Y-46677190D02*
X42857142Y-46629571D01*
X42857142Y-46629571D02*
X42857142Y-46534333D01*
X42857142Y-46534333D02*
X42880952Y-46486714D01*
X42880952Y-46486714D02*
X42904761Y-46462904D01*
X42904761Y-46462904D02*
X42952380Y-46439095D01*
D11*
X44602143Y-17277164D02*
X44173572Y-17277164D01*
X44387857Y-18027164D02*
X44387857Y-17277164D01*
X43923571Y-18027164D02*
X43923571Y-17277164D01*
X43923571Y-17277164D02*
X43637857Y-17277164D01*
X43637857Y-17277164D02*
X43566428Y-17312878D01*
X43566428Y-17312878D02*
X43530714Y-17348592D01*
X43530714Y-17348592D02*
X43495000Y-17420021D01*
X43495000Y-17420021D02*
X43495000Y-17527164D01*
X43495000Y-17527164D02*
X43530714Y-17598592D01*
X43530714Y-17598592D02*
X43566428Y-17634307D01*
X43566428Y-17634307D02*
X43637857Y-17670021D01*
X43637857Y-17670021D02*
X43923571Y-17670021D01*
X42852143Y-17527164D02*
X42852143Y-18027164D01*
X43030714Y-17241450D02*
X43209285Y-17777164D01*
X43209285Y-17777164D02*
X42745000Y-17777164D01*
X42459285Y-17955735D02*
X42423571Y-17991450D01*
X42423571Y-17991450D02*
X42459285Y-18027164D01*
X42459285Y-18027164D02*
X42494999Y-17991450D01*
X42494999Y-17991450D02*
X42459285Y-17955735D01*
X42459285Y-17955735D02*
X42459285Y-18027164D01*
X42459285Y-17562878D02*
X42423571Y-17598592D01*
X42423571Y-17598592D02*
X42459285Y-17634307D01*
X42459285Y-17634307D02*
X42494999Y-17598592D01*
X42494999Y-17598592D02*
X42459285Y-17562878D01*
X42459285Y-17562878D02*
X42459285Y-17634307D01*
X41780714Y-17527164D02*
X41780714Y-18027164D01*
X41959285Y-17241450D02*
X42137856Y-17777164D01*
X42137856Y-17777164D02*
X41673571Y-17777164D01*
X18352143Y-17027164D02*
X17923572Y-17027164D01*
X18137857Y-17777164D02*
X18137857Y-17027164D01*
X17673571Y-17777164D02*
X17673571Y-17027164D01*
X17673571Y-17027164D02*
X17387857Y-17027164D01*
X17387857Y-17027164D02*
X17316428Y-17062878D01*
X17316428Y-17062878D02*
X17280714Y-17098592D01*
X17280714Y-17098592D02*
X17245000Y-17170021D01*
X17245000Y-17170021D02*
X17245000Y-17277164D01*
X17245000Y-17277164D02*
X17280714Y-17348592D01*
X17280714Y-17348592D02*
X17316428Y-17384307D01*
X17316428Y-17384307D02*
X17387857Y-17420021D01*
X17387857Y-17420021D02*
X17673571Y-17420021D01*
X16995000Y-17027164D02*
X16530714Y-17027164D01*
X16530714Y-17027164D02*
X16780714Y-17312878D01*
X16780714Y-17312878D02*
X16673571Y-17312878D01*
X16673571Y-17312878D02*
X16602143Y-17348592D01*
X16602143Y-17348592D02*
X16566428Y-17384307D01*
X16566428Y-17384307D02*
X16530714Y-17455735D01*
X16530714Y-17455735D02*
X16530714Y-17634307D01*
X16530714Y-17634307D02*
X16566428Y-17705735D01*
X16566428Y-17705735D02*
X16602143Y-17741450D01*
X16602143Y-17741450D02*
X16673571Y-17777164D01*
X16673571Y-17777164D02*
X16887857Y-17777164D01*
X16887857Y-17777164D02*
X16959285Y-17741450D01*
X16959285Y-17741450D02*
X16995000Y-17705735D01*
X16209285Y-17705735D02*
X16173571Y-17741450D01*
X16173571Y-17741450D02*
X16209285Y-17777164D01*
X16209285Y-17777164D02*
X16244999Y-17741450D01*
X16244999Y-17741450D02*
X16209285Y-17705735D01*
X16209285Y-17705735D02*
X16209285Y-17777164D01*
X16209285Y-17312878D02*
X16173571Y-17348592D01*
X16173571Y-17348592D02*
X16209285Y-17384307D01*
X16209285Y-17384307D02*
X16244999Y-17348592D01*
X16244999Y-17348592D02*
X16209285Y-17312878D01*
X16209285Y-17312878D02*
X16209285Y-17384307D01*
X15530714Y-17027164D02*
X15673571Y-17027164D01*
X15673571Y-17027164D02*
X15744999Y-17062878D01*
X15744999Y-17062878D02*
X15780714Y-17098592D01*
X15780714Y-17098592D02*
X15852142Y-17205735D01*
X15852142Y-17205735D02*
X15887856Y-17348592D01*
X15887856Y-17348592D02*
X15887856Y-17634307D01*
X15887856Y-17634307D02*
X15852142Y-17705735D01*
X15852142Y-17705735D02*
X15816428Y-17741450D01*
X15816428Y-17741450D02*
X15744999Y-17777164D01*
X15744999Y-17777164D02*
X15602142Y-17777164D01*
X15602142Y-17777164D02*
X15530714Y-17741450D01*
X15530714Y-17741450D02*
X15494999Y-17705735D01*
X15494999Y-17705735D02*
X15459285Y-17634307D01*
X15459285Y-17634307D02*
X15459285Y-17455735D01*
X15459285Y-17455735D02*
X15494999Y-17384307D01*
X15494999Y-17384307D02*
X15530714Y-17348592D01*
X15530714Y-17348592D02*
X15602142Y-17312878D01*
X15602142Y-17312878D02*
X15744999Y-17312878D01*
X15744999Y-17312878D02*
X15816428Y-17348592D01*
X15816428Y-17348592D02*
X15852142Y-17384307D01*
X15852142Y-17384307D02*
X15887856Y-17455735D01*
D13*
X23303928Y-38677190D02*
X23327737Y-38701000D01*
X23327737Y-38701000D02*
X23399166Y-38724809D01*
X23399166Y-38724809D02*
X23446785Y-38724809D01*
X23446785Y-38724809D02*
X23518213Y-38701000D01*
X23518213Y-38701000D02*
X23565832Y-38653380D01*
X23565832Y-38653380D02*
X23589642Y-38605761D01*
X23589642Y-38605761D02*
X23613451Y-38510523D01*
X23613451Y-38510523D02*
X23613451Y-38439095D01*
X23613451Y-38439095D02*
X23589642Y-38343857D01*
X23589642Y-38343857D02*
X23565832Y-38296238D01*
X23565832Y-38296238D02*
X23518213Y-38248619D01*
X23518213Y-38248619D02*
X23446785Y-38224809D01*
X23446785Y-38224809D02*
X23399166Y-38224809D01*
X23399166Y-38224809D02*
X23327737Y-38248619D01*
X23327737Y-38248619D02*
X23303928Y-38272428D01*
X22827737Y-38724809D02*
X23113451Y-38724809D01*
X22970594Y-38724809D02*
X22970594Y-38224809D01*
X22970594Y-38224809D02*
X23018213Y-38296238D01*
X23018213Y-38296238D02*
X23065832Y-38343857D01*
X23065832Y-38343857D02*
X23113451Y-38367666D01*
X22637261Y-38272428D02*
X22613452Y-38248619D01*
X22613452Y-38248619D02*
X22565833Y-38224809D01*
X22565833Y-38224809D02*
X22446785Y-38224809D01*
X22446785Y-38224809D02*
X22399166Y-38248619D01*
X22399166Y-38248619D02*
X22375357Y-38272428D01*
X22375357Y-38272428D02*
X22351547Y-38320047D01*
X22351547Y-38320047D02*
X22351547Y-38367666D01*
X22351547Y-38367666D02*
X22375357Y-38439095D01*
X22375357Y-38439095D02*
X22661071Y-38724809D01*
X22661071Y-38724809D02*
X22351547Y-38724809D01*
D11*
X35602143Y-17277164D02*
X35173572Y-17277164D01*
X35387857Y-18027164D02*
X35387857Y-17277164D01*
X34923571Y-18027164D02*
X34923571Y-17277164D01*
X34923571Y-17277164D02*
X34637857Y-17277164D01*
X34637857Y-17277164D02*
X34566428Y-17312878D01*
X34566428Y-17312878D02*
X34530714Y-17348592D01*
X34530714Y-17348592D02*
X34495000Y-17420021D01*
X34495000Y-17420021D02*
X34495000Y-17527164D01*
X34495000Y-17527164D02*
X34530714Y-17598592D01*
X34530714Y-17598592D02*
X34566428Y-17634307D01*
X34566428Y-17634307D02*
X34637857Y-17670021D01*
X34637857Y-17670021D02*
X34923571Y-17670021D01*
X33852143Y-17527164D02*
X33852143Y-18027164D01*
X34030714Y-17241450D02*
X34209285Y-17777164D01*
X34209285Y-17777164D02*
X33745000Y-17777164D01*
X33459285Y-17955735D02*
X33423571Y-17991450D01*
X33423571Y-17991450D02*
X33459285Y-18027164D01*
X33459285Y-18027164D02*
X33494999Y-17991450D01*
X33494999Y-17991450D02*
X33459285Y-17955735D01*
X33459285Y-17955735D02*
X33459285Y-18027164D01*
X33459285Y-17562878D02*
X33423571Y-17598592D01*
X33423571Y-17598592D02*
X33459285Y-17634307D01*
X33459285Y-17634307D02*
X33494999Y-17598592D01*
X33494999Y-17598592D02*
X33459285Y-17562878D01*
X33459285Y-17562878D02*
X33459285Y-17634307D01*
X32994999Y-17598592D02*
X33066428Y-17562878D01*
X33066428Y-17562878D02*
X33102142Y-17527164D01*
X33102142Y-17527164D02*
X33137856Y-17455735D01*
X33137856Y-17455735D02*
X33137856Y-17420021D01*
X33137856Y-17420021D02*
X33102142Y-17348592D01*
X33102142Y-17348592D02*
X33066428Y-17312878D01*
X33066428Y-17312878D02*
X32994999Y-17277164D01*
X32994999Y-17277164D02*
X32852142Y-17277164D01*
X32852142Y-17277164D02*
X32780714Y-17312878D01*
X32780714Y-17312878D02*
X32744999Y-17348592D01*
X32744999Y-17348592D02*
X32709285Y-17420021D01*
X32709285Y-17420021D02*
X32709285Y-17455735D01*
X32709285Y-17455735D02*
X32744999Y-17527164D01*
X32744999Y-17527164D02*
X32780714Y-17562878D01*
X32780714Y-17562878D02*
X32852142Y-17598592D01*
X32852142Y-17598592D02*
X32994999Y-17598592D01*
X32994999Y-17598592D02*
X33066428Y-17634307D01*
X33066428Y-17634307D02*
X33102142Y-17670021D01*
X33102142Y-17670021D02*
X33137856Y-17741450D01*
X33137856Y-17741450D02*
X33137856Y-17884307D01*
X33137856Y-17884307D02*
X33102142Y-17955735D01*
X33102142Y-17955735D02*
X33066428Y-17991450D01*
X33066428Y-17991450D02*
X32994999Y-18027164D01*
X32994999Y-18027164D02*
X32852142Y-18027164D01*
X32852142Y-18027164D02*
X32780714Y-17991450D01*
X32780714Y-17991450D02*
X32744999Y-17955735D01*
X32744999Y-17955735D02*
X32709285Y-17884307D01*
X32709285Y-17884307D02*
X32709285Y-17741450D01*
X32709285Y-17741450D02*
X32744999Y-17670021D01*
X32744999Y-17670021D02*
X32780714Y-17634307D01*
X32780714Y-17634307D02*
X32852142Y-17598592D01*
D13*
X47341428Y-10934809D02*
X47508094Y-10696714D01*
X47627142Y-10934809D02*
X47627142Y-10434809D01*
X47627142Y-10434809D02*
X47436666Y-10434809D01*
X47436666Y-10434809D02*
X47389047Y-10458619D01*
X47389047Y-10458619D02*
X47365237Y-10482428D01*
X47365237Y-10482428D02*
X47341428Y-10530047D01*
X47341428Y-10530047D02*
X47341428Y-10601476D01*
X47341428Y-10601476D02*
X47365237Y-10649095D01*
X47365237Y-10649095D02*
X47389047Y-10672904D01*
X47389047Y-10672904D02*
X47436666Y-10696714D01*
X47436666Y-10696714D02*
X47627142Y-10696714D01*
X46865237Y-10934809D02*
X47150951Y-10934809D01*
X47008094Y-10934809D02*
X47008094Y-10434809D01*
X47008094Y-10434809D02*
X47055713Y-10506238D01*
X47055713Y-10506238D02*
X47103332Y-10553857D01*
X47103332Y-10553857D02*
X47150951Y-10577666D01*
X46389047Y-10934809D02*
X46674761Y-10934809D01*
X46531904Y-10934809D02*
X46531904Y-10434809D01*
X46531904Y-10434809D02*
X46579523Y-10506238D01*
X46579523Y-10506238D02*
X46627142Y-10553857D01*
X46627142Y-10553857D02*
X46674761Y-10577666D01*
X15953333Y-66014809D02*
X16119999Y-65776714D01*
X16239047Y-66014809D02*
X16239047Y-65514809D01*
X16239047Y-65514809D02*
X16048571Y-65514809D01*
X16048571Y-65514809D02*
X16000952Y-65538619D01*
X16000952Y-65538619D02*
X15977142Y-65562428D01*
X15977142Y-65562428D02*
X15953333Y-65610047D01*
X15953333Y-65610047D02*
X15953333Y-65681476D01*
X15953333Y-65681476D02*
X15977142Y-65729095D01*
X15977142Y-65729095D02*
X16000952Y-65752904D01*
X16000952Y-65752904D02*
X16048571Y-65776714D01*
X16048571Y-65776714D02*
X16239047Y-65776714D01*
X15500952Y-65514809D02*
X15739047Y-65514809D01*
X15739047Y-65514809D02*
X15762856Y-65752904D01*
X15762856Y-65752904D02*
X15739047Y-65729095D01*
X15739047Y-65729095D02*
X15691428Y-65705285D01*
X15691428Y-65705285D02*
X15572380Y-65705285D01*
X15572380Y-65705285D02*
X15524761Y-65729095D01*
X15524761Y-65729095D02*
X15500952Y-65752904D01*
X15500952Y-65752904D02*
X15477142Y-65800523D01*
X15477142Y-65800523D02*
X15477142Y-65919571D01*
X15477142Y-65919571D02*
X15500952Y-65967190D01*
X15500952Y-65967190D02*
X15524761Y-65991000D01*
X15524761Y-65991000D02*
X15572380Y-66014809D01*
X15572380Y-66014809D02*
X15691428Y-66014809D01*
X15691428Y-66014809D02*
X15739047Y-65991000D01*
X15739047Y-65991000D02*
X15762856Y-65967190D01*
X20453333Y-66014809D02*
X20619999Y-65776714D01*
X20739047Y-66014809D02*
X20739047Y-65514809D01*
X20739047Y-65514809D02*
X20548571Y-65514809D01*
X20548571Y-65514809D02*
X20500952Y-65538619D01*
X20500952Y-65538619D02*
X20477142Y-65562428D01*
X20477142Y-65562428D02*
X20453333Y-65610047D01*
X20453333Y-65610047D02*
X20453333Y-65681476D01*
X20453333Y-65681476D02*
X20477142Y-65729095D01*
X20477142Y-65729095D02*
X20500952Y-65752904D01*
X20500952Y-65752904D02*
X20548571Y-65776714D01*
X20548571Y-65776714D02*
X20739047Y-65776714D01*
X20024761Y-65514809D02*
X20119999Y-65514809D01*
X20119999Y-65514809D02*
X20167618Y-65538619D01*
X20167618Y-65538619D02*
X20191428Y-65562428D01*
X20191428Y-65562428D02*
X20239047Y-65633857D01*
X20239047Y-65633857D02*
X20262856Y-65729095D01*
X20262856Y-65729095D02*
X20262856Y-65919571D01*
X20262856Y-65919571D02*
X20239047Y-65967190D01*
X20239047Y-65967190D02*
X20215237Y-65991000D01*
X20215237Y-65991000D02*
X20167618Y-66014809D01*
X20167618Y-66014809D02*
X20072380Y-66014809D01*
X20072380Y-66014809D02*
X20024761Y-65991000D01*
X20024761Y-65991000D02*
X20000952Y-65967190D01*
X20000952Y-65967190D02*
X19977142Y-65919571D01*
X19977142Y-65919571D02*
X19977142Y-65800523D01*
X19977142Y-65800523D02*
X20000952Y-65752904D01*
X20000952Y-65752904D02*
X20024761Y-65729095D01*
X20024761Y-65729095D02*
X20072380Y-65705285D01*
X20072380Y-65705285D02*
X20167618Y-65705285D01*
X20167618Y-65705285D02*
X20215237Y-65729095D01*
X20215237Y-65729095D02*
X20239047Y-65752904D01*
X20239047Y-65752904D02*
X20262856Y-65800523D01*
D11*
X53602143Y-62027164D02*
X53173572Y-62027164D01*
X53387857Y-62777164D02*
X53387857Y-62027164D01*
X52923571Y-62777164D02*
X52923571Y-62027164D01*
X52923571Y-62027164D02*
X52637857Y-62027164D01*
X52637857Y-62027164D02*
X52566428Y-62062878D01*
X52566428Y-62062878D02*
X52530714Y-62098592D01*
X52530714Y-62098592D02*
X52495000Y-62170021D01*
X52495000Y-62170021D02*
X52495000Y-62277164D01*
X52495000Y-62277164D02*
X52530714Y-62348592D01*
X52530714Y-62348592D02*
X52566428Y-62384307D01*
X52566428Y-62384307D02*
X52637857Y-62420021D01*
X52637857Y-62420021D02*
X52923571Y-62420021D01*
X52209285Y-62098592D02*
X52173571Y-62062878D01*
X52173571Y-62062878D02*
X52102143Y-62027164D01*
X52102143Y-62027164D02*
X51923571Y-62027164D01*
X51923571Y-62027164D02*
X51852143Y-62062878D01*
X51852143Y-62062878D02*
X51816428Y-62098592D01*
X51816428Y-62098592D02*
X51780714Y-62170021D01*
X51780714Y-62170021D02*
X51780714Y-62241450D01*
X51780714Y-62241450D02*
X51816428Y-62348592D01*
X51816428Y-62348592D02*
X52245000Y-62777164D01*
X52245000Y-62777164D02*
X51780714Y-62777164D01*
X51459285Y-62705735D02*
X51423571Y-62741450D01*
X51423571Y-62741450D02*
X51459285Y-62777164D01*
X51459285Y-62777164D02*
X51494999Y-62741450D01*
X51494999Y-62741450D02*
X51459285Y-62705735D01*
X51459285Y-62705735D02*
X51459285Y-62777164D01*
X51459285Y-62312878D02*
X51423571Y-62348592D01*
X51423571Y-62348592D02*
X51459285Y-62384307D01*
X51459285Y-62384307D02*
X51494999Y-62348592D01*
X51494999Y-62348592D02*
X51459285Y-62312878D01*
X51459285Y-62312878D02*
X51459285Y-62384307D01*
X50994999Y-62348592D02*
X51066428Y-62312878D01*
X51066428Y-62312878D02*
X51102142Y-62277164D01*
X51102142Y-62277164D02*
X51137856Y-62205735D01*
X51137856Y-62205735D02*
X51137856Y-62170021D01*
X51137856Y-62170021D02*
X51102142Y-62098592D01*
X51102142Y-62098592D02*
X51066428Y-62062878D01*
X51066428Y-62062878D02*
X50994999Y-62027164D01*
X50994999Y-62027164D02*
X50852142Y-62027164D01*
X50852142Y-62027164D02*
X50780714Y-62062878D01*
X50780714Y-62062878D02*
X50744999Y-62098592D01*
X50744999Y-62098592D02*
X50709285Y-62170021D01*
X50709285Y-62170021D02*
X50709285Y-62205735D01*
X50709285Y-62205735D02*
X50744999Y-62277164D01*
X50744999Y-62277164D02*
X50780714Y-62312878D01*
X50780714Y-62312878D02*
X50852142Y-62348592D01*
X50852142Y-62348592D02*
X50994999Y-62348592D01*
X50994999Y-62348592D02*
X51066428Y-62384307D01*
X51066428Y-62384307D02*
X51102142Y-62420021D01*
X51102142Y-62420021D02*
X51137856Y-62491450D01*
X51137856Y-62491450D02*
X51137856Y-62634307D01*
X51137856Y-62634307D02*
X51102142Y-62705735D01*
X51102142Y-62705735D02*
X51066428Y-62741450D01*
X51066428Y-62741450D02*
X50994999Y-62777164D01*
X50994999Y-62777164D02*
X50852142Y-62777164D01*
X50852142Y-62777164D02*
X50780714Y-62741450D01*
X50780714Y-62741450D02*
X50744999Y-62705735D01*
X50744999Y-62705735D02*
X50709285Y-62634307D01*
X50709285Y-62634307D02*
X50709285Y-62491450D01*
X50709285Y-62491450D02*
X50744999Y-62420021D01*
X50744999Y-62420021D02*
X50780714Y-62384307D01*
X50780714Y-62384307D02*
X50852142Y-62348592D01*
D13*
X39753333Y-13562809D02*
X39991428Y-13562809D01*
X39991428Y-13562809D02*
X39991428Y-13062809D01*
X39372380Y-13229476D02*
X39372380Y-13562809D01*
X39491428Y-13039000D02*
X39610475Y-13396142D01*
X39610475Y-13396142D02*
X39300952Y-13396142D01*
D11*
X28602143Y-59339164D02*
X28173572Y-59339164D01*
X28387857Y-60089164D02*
X28387857Y-59339164D01*
X27923571Y-60089164D02*
X27923571Y-59339164D01*
X27923571Y-59339164D02*
X27637857Y-59339164D01*
X27637857Y-59339164D02*
X27566428Y-59374878D01*
X27566428Y-59374878D02*
X27530714Y-59410592D01*
X27530714Y-59410592D02*
X27495000Y-59482021D01*
X27495000Y-59482021D02*
X27495000Y-59589164D01*
X27495000Y-59589164D02*
X27530714Y-59660592D01*
X27530714Y-59660592D02*
X27566428Y-59696307D01*
X27566428Y-59696307D02*
X27637857Y-59732021D01*
X27637857Y-59732021D02*
X27923571Y-59732021D01*
X26780714Y-60089164D02*
X27209285Y-60089164D01*
X26995000Y-60089164D02*
X26995000Y-59339164D01*
X26995000Y-59339164D02*
X27066428Y-59446307D01*
X27066428Y-59446307D02*
X27137857Y-59517735D01*
X27137857Y-59517735D02*
X27209285Y-59553450D01*
X26459285Y-60017735D02*
X26423571Y-60053450D01*
X26423571Y-60053450D02*
X26459285Y-60089164D01*
X26459285Y-60089164D02*
X26494999Y-60053450D01*
X26494999Y-60053450D02*
X26459285Y-60017735D01*
X26459285Y-60017735D02*
X26459285Y-60089164D01*
X26459285Y-59624878D02*
X26423571Y-59660592D01*
X26423571Y-59660592D02*
X26459285Y-59696307D01*
X26459285Y-59696307D02*
X26494999Y-59660592D01*
X26494999Y-59660592D02*
X26459285Y-59624878D01*
X26459285Y-59624878D02*
X26459285Y-59696307D01*
X26173571Y-59339164D02*
X25673571Y-59339164D01*
X25673571Y-59339164D02*
X25994999Y-60089164D01*
X46852143Y-14589164D02*
X46423572Y-14589164D01*
X46637857Y-15339164D02*
X46637857Y-14589164D01*
X46173571Y-15339164D02*
X46173571Y-14589164D01*
X46173571Y-14589164D02*
X45887857Y-14589164D01*
X45887857Y-14589164D02*
X45816428Y-14624878D01*
X45816428Y-14624878D02*
X45780714Y-14660592D01*
X45780714Y-14660592D02*
X45745000Y-14732021D01*
X45745000Y-14732021D02*
X45745000Y-14839164D01*
X45745000Y-14839164D02*
X45780714Y-14910592D01*
X45780714Y-14910592D02*
X45816428Y-14946307D01*
X45816428Y-14946307D02*
X45887857Y-14982021D01*
X45887857Y-14982021D02*
X46173571Y-14982021D01*
X45102143Y-14839164D02*
X45102143Y-15339164D01*
X45280714Y-14553450D02*
X45459285Y-15089164D01*
X45459285Y-15089164D02*
X44995000Y-15089164D01*
X44709285Y-15267735D02*
X44673571Y-15303450D01*
X44673571Y-15303450D02*
X44709285Y-15339164D01*
X44709285Y-15339164D02*
X44744999Y-15303450D01*
X44744999Y-15303450D02*
X44709285Y-15267735D01*
X44709285Y-15267735D02*
X44709285Y-15339164D01*
X44709285Y-14874878D02*
X44673571Y-14910592D01*
X44673571Y-14910592D02*
X44709285Y-14946307D01*
X44709285Y-14946307D02*
X44744999Y-14910592D01*
X44744999Y-14910592D02*
X44709285Y-14874878D01*
X44709285Y-14874878D02*
X44709285Y-14946307D01*
X44423571Y-14589164D02*
X43959285Y-14589164D01*
X43959285Y-14589164D02*
X44209285Y-14874878D01*
X44209285Y-14874878D02*
X44102142Y-14874878D01*
X44102142Y-14874878D02*
X44030714Y-14910592D01*
X44030714Y-14910592D02*
X43994999Y-14946307D01*
X43994999Y-14946307D02*
X43959285Y-15017735D01*
X43959285Y-15017735D02*
X43959285Y-15196307D01*
X43959285Y-15196307D02*
X43994999Y-15267735D01*
X43994999Y-15267735D02*
X44030714Y-15303450D01*
X44030714Y-15303450D02*
X44102142Y-15339164D01*
X44102142Y-15339164D02*
X44316428Y-15339164D01*
X44316428Y-15339164D02*
X44387856Y-15303450D01*
X44387856Y-15303450D02*
X44423571Y-15267735D01*
X17352143Y-62027164D02*
X16923572Y-62027164D01*
X17137857Y-62777164D02*
X17137857Y-62027164D01*
X16673571Y-62777164D02*
X16673571Y-62027164D01*
X16673571Y-62027164D02*
X16387857Y-62027164D01*
X16387857Y-62027164D02*
X16316428Y-62062878D01*
X16316428Y-62062878D02*
X16280714Y-62098592D01*
X16280714Y-62098592D02*
X16245000Y-62170021D01*
X16245000Y-62170021D02*
X16245000Y-62277164D01*
X16245000Y-62277164D02*
X16280714Y-62348592D01*
X16280714Y-62348592D02*
X16316428Y-62384307D01*
X16316428Y-62384307D02*
X16387857Y-62420021D01*
X16387857Y-62420021D02*
X16673571Y-62420021D01*
X15530714Y-62777164D02*
X15959285Y-62777164D01*
X15745000Y-62777164D02*
X15745000Y-62027164D01*
X15745000Y-62027164D02*
X15816428Y-62134307D01*
X15816428Y-62134307D02*
X15887857Y-62205735D01*
X15887857Y-62205735D02*
X15959285Y-62241450D01*
X15209285Y-62705735D02*
X15173571Y-62741450D01*
X15173571Y-62741450D02*
X15209285Y-62777164D01*
X15209285Y-62777164D02*
X15244999Y-62741450D01*
X15244999Y-62741450D02*
X15209285Y-62705735D01*
X15209285Y-62705735D02*
X15209285Y-62777164D01*
X15209285Y-62312878D02*
X15173571Y-62348592D01*
X15173571Y-62348592D02*
X15209285Y-62384307D01*
X15209285Y-62384307D02*
X15244999Y-62348592D01*
X15244999Y-62348592D02*
X15209285Y-62312878D01*
X15209285Y-62312878D02*
X15209285Y-62384307D01*
X14887856Y-62098592D02*
X14852142Y-62062878D01*
X14852142Y-62062878D02*
X14780714Y-62027164D01*
X14780714Y-62027164D02*
X14602142Y-62027164D01*
X14602142Y-62027164D02*
X14530714Y-62062878D01*
X14530714Y-62062878D02*
X14494999Y-62098592D01*
X14494999Y-62098592D02*
X14459285Y-62170021D01*
X14459285Y-62170021D02*
X14459285Y-62241450D01*
X14459285Y-62241450D02*
X14494999Y-62348592D01*
X14494999Y-62348592D02*
X14923571Y-62777164D01*
X14923571Y-62777164D02*
X14459285Y-62777164D01*
D13*
X39571428Y-45177190D02*
X39595237Y-45201000D01*
X39595237Y-45201000D02*
X39666666Y-45224809D01*
X39666666Y-45224809D02*
X39714285Y-45224809D01*
X39714285Y-45224809D02*
X39785713Y-45201000D01*
X39785713Y-45201000D02*
X39833332Y-45153380D01*
X39833332Y-45153380D02*
X39857142Y-45105761D01*
X39857142Y-45105761D02*
X39880951Y-45010523D01*
X39880951Y-45010523D02*
X39880951Y-44939095D01*
X39880951Y-44939095D02*
X39857142Y-44843857D01*
X39857142Y-44843857D02*
X39833332Y-44796238D01*
X39833332Y-44796238D02*
X39785713Y-44748619D01*
X39785713Y-44748619D02*
X39714285Y-44724809D01*
X39714285Y-44724809D02*
X39666666Y-44724809D01*
X39666666Y-44724809D02*
X39595237Y-44748619D01*
X39595237Y-44748619D02*
X39571428Y-44772428D01*
X39095237Y-45224809D02*
X39380951Y-45224809D01*
X39238094Y-45224809D02*
X39238094Y-44724809D01*
X39238094Y-44724809D02*
X39285713Y-44796238D01*
X39285713Y-44796238D02*
X39333332Y-44843857D01*
X39333332Y-44843857D02*
X39380951Y-44867666D01*
X38928571Y-44724809D02*
X38595238Y-44724809D01*
X38595238Y-44724809D02*
X38809523Y-45224809D01*
D11*
X42352143Y-59339164D02*
X41923572Y-59339164D01*
X42137857Y-60089164D02*
X42137857Y-59339164D01*
X41673571Y-60089164D02*
X41673571Y-59339164D01*
X41673571Y-59339164D02*
X41387857Y-59339164D01*
X41387857Y-59339164D02*
X41316428Y-59374878D01*
X41316428Y-59374878D02*
X41280714Y-59410592D01*
X41280714Y-59410592D02*
X41245000Y-59482021D01*
X41245000Y-59482021D02*
X41245000Y-59589164D01*
X41245000Y-59589164D02*
X41280714Y-59660592D01*
X41280714Y-59660592D02*
X41316428Y-59696307D01*
X41316428Y-59696307D02*
X41387857Y-59732021D01*
X41387857Y-59732021D02*
X41673571Y-59732021D01*
X40959285Y-59410592D02*
X40923571Y-59374878D01*
X40923571Y-59374878D02*
X40852143Y-59339164D01*
X40852143Y-59339164D02*
X40673571Y-59339164D01*
X40673571Y-59339164D02*
X40602143Y-59374878D01*
X40602143Y-59374878D02*
X40566428Y-59410592D01*
X40566428Y-59410592D02*
X40530714Y-59482021D01*
X40530714Y-59482021D02*
X40530714Y-59553450D01*
X40530714Y-59553450D02*
X40566428Y-59660592D01*
X40566428Y-59660592D02*
X40995000Y-60089164D01*
X40995000Y-60089164D02*
X40530714Y-60089164D01*
X40209285Y-60017735D02*
X40173571Y-60053450D01*
X40173571Y-60053450D02*
X40209285Y-60089164D01*
X40209285Y-60089164D02*
X40244999Y-60053450D01*
X40244999Y-60053450D02*
X40209285Y-60017735D01*
X40209285Y-60017735D02*
X40209285Y-60089164D01*
X40209285Y-59624878D02*
X40173571Y-59660592D01*
X40173571Y-59660592D02*
X40209285Y-59696307D01*
X40209285Y-59696307D02*
X40244999Y-59660592D01*
X40244999Y-59660592D02*
X40209285Y-59624878D01*
X40209285Y-59624878D02*
X40209285Y-59696307D01*
X39923571Y-59339164D02*
X39459285Y-59339164D01*
X39459285Y-59339164D02*
X39709285Y-59624878D01*
X39709285Y-59624878D02*
X39602142Y-59624878D01*
X39602142Y-59624878D02*
X39530714Y-59660592D01*
X39530714Y-59660592D02*
X39494999Y-59696307D01*
X39494999Y-59696307D02*
X39459285Y-59767735D01*
X39459285Y-59767735D02*
X39459285Y-59946307D01*
X39459285Y-59946307D02*
X39494999Y-60017735D01*
X39494999Y-60017735D02*
X39530714Y-60053450D01*
X39530714Y-60053450D02*
X39602142Y-60089164D01*
X39602142Y-60089164D02*
X39816428Y-60089164D01*
X39816428Y-60089164D02*
X39887856Y-60053450D01*
X39887856Y-60053450D02*
X39923571Y-60017735D01*
X24102143Y-59339164D02*
X23673572Y-59339164D01*
X23887857Y-60089164D02*
X23887857Y-59339164D01*
X23423571Y-60089164D02*
X23423571Y-59339164D01*
X23423571Y-59339164D02*
X23137857Y-59339164D01*
X23137857Y-59339164D02*
X23066428Y-59374878D01*
X23066428Y-59374878D02*
X23030714Y-59410592D01*
X23030714Y-59410592D02*
X22995000Y-59482021D01*
X22995000Y-59482021D02*
X22995000Y-59589164D01*
X22995000Y-59589164D02*
X23030714Y-59660592D01*
X23030714Y-59660592D02*
X23066428Y-59696307D01*
X23066428Y-59696307D02*
X23137857Y-59732021D01*
X23137857Y-59732021D02*
X23423571Y-59732021D01*
X22280714Y-60089164D02*
X22709285Y-60089164D01*
X22495000Y-60089164D02*
X22495000Y-59339164D01*
X22495000Y-59339164D02*
X22566428Y-59446307D01*
X22566428Y-59446307D02*
X22637857Y-59517735D01*
X22637857Y-59517735D02*
X22709285Y-59553450D01*
X21959285Y-60017735D02*
X21923571Y-60053450D01*
X21923571Y-60053450D02*
X21959285Y-60089164D01*
X21959285Y-60089164D02*
X21994999Y-60053450D01*
X21994999Y-60053450D02*
X21959285Y-60017735D01*
X21959285Y-60017735D02*
X21959285Y-60089164D01*
X21959285Y-59624878D02*
X21923571Y-59660592D01*
X21923571Y-59660592D02*
X21959285Y-59696307D01*
X21959285Y-59696307D02*
X21994999Y-59660592D01*
X21994999Y-59660592D02*
X21959285Y-59624878D01*
X21959285Y-59624878D02*
X21959285Y-59696307D01*
X21244999Y-59339164D02*
X21602142Y-59339164D01*
X21602142Y-59339164D02*
X21637856Y-59696307D01*
X21637856Y-59696307D02*
X21602142Y-59660592D01*
X21602142Y-59660592D02*
X21530714Y-59624878D01*
X21530714Y-59624878D02*
X21352142Y-59624878D01*
X21352142Y-59624878D02*
X21280714Y-59660592D01*
X21280714Y-59660592D02*
X21244999Y-59696307D01*
X21244999Y-59696307D02*
X21209285Y-59767735D01*
X21209285Y-59767735D02*
X21209285Y-59946307D01*
X21209285Y-59946307D02*
X21244999Y-60017735D01*
X21244999Y-60017735D02*
X21280714Y-60053450D01*
X21280714Y-60053450D02*
X21352142Y-60089164D01*
X21352142Y-60089164D02*
X21530714Y-60089164D01*
X21530714Y-60089164D02*
X21602142Y-60053450D01*
X21602142Y-60053450D02*
X21637856Y-60017735D01*
X21852143Y-62027164D02*
X21423572Y-62027164D01*
X21637857Y-62777164D02*
X21637857Y-62027164D01*
X21173571Y-62777164D02*
X21173571Y-62027164D01*
X21173571Y-62027164D02*
X20887857Y-62027164D01*
X20887857Y-62027164D02*
X20816428Y-62062878D01*
X20816428Y-62062878D02*
X20780714Y-62098592D01*
X20780714Y-62098592D02*
X20745000Y-62170021D01*
X20745000Y-62170021D02*
X20745000Y-62277164D01*
X20745000Y-62277164D02*
X20780714Y-62348592D01*
X20780714Y-62348592D02*
X20816428Y-62384307D01*
X20816428Y-62384307D02*
X20887857Y-62420021D01*
X20887857Y-62420021D02*
X21173571Y-62420021D01*
X20030714Y-62777164D02*
X20459285Y-62777164D01*
X20245000Y-62777164D02*
X20245000Y-62027164D01*
X20245000Y-62027164D02*
X20316428Y-62134307D01*
X20316428Y-62134307D02*
X20387857Y-62205735D01*
X20387857Y-62205735D02*
X20459285Y-62241450D01*
X19709285Y-62705735D02*
X19673571Y-62741450D01*
X19673571Y-62741450D02*
X19709285Y-62777164D01*
X19709285Y-62777164D02*
X19744999Y-62741450D01*
X19744999Y-62741450D02*
X19709285Y-62705735D01*
X19709285Y-62705735D02*
X19709285Y-62777164D01*
X19709285Y-62312878D02*
X19673571Y-62348592D01*
X19673571Y-62348592D02*
X19709285Y-62384307D01*
X19709285Y-62384307D02*
X19744999Y-62348592D01*
X19744999Y-62348592D02*
X19709285Y-62312878D01*
X19709285Y-62312878D02*
X19709285Y-62384307D01*
X19030714Y-62277164D02*
X19030714Y-62777164D01*
X19209285Y-61991450D02*
X19387856Y-62527164D01*
X19387856Y-62527164D02*
X18923571Y-62527164D01*
D13*
X19561428Y-22177190D02*
X19585237Y-22201000D01*
X19585237Y-22201000D02*
X19656666Y-22224809D01*
X19656666Y-22224809D02*
X19704285Y-22224809D01*
X19704285Y-22224809D02*
X19775713Y-22201000D01*
X19775713Y-22201000D02*
X19823332Y-22153380D01*
X19823332Y-22153380D02*
X19847142Y-22105761D01*
X19847142Y-22105761D02*
X19870951Y-22010523D01*
X19870951Y-22010523D02*
X19870951Y-21939095D01*
X19870951Y-21939095D02*
X19847142Y-21843857D01*
X19847142Y-21843857D02*
X19823332Y-21796238D01*
X19823332Y-21796238D02*
X19775713Y-21748619D01*
X19775713Y-21748619D02*
X19704285Y-21724809D01*
X19704285Y-21724809D02*
X19656666Y-21724809D01*
X19656666Y-21724809D02*
X19585237Y-21748619D01*
X19585237Y-21748619D02*
X19561428Y-21772428D01*
X19085237Y-22224809D02*
X19370951Y-22224809D01*
X19228094Y-22224809D02*
X19228094Y-21724809D01*
X19228094Y-21724809D02*
X19275713Y-21796238D01*
X19275713Y-21796238D02*
X19323332Y-21843857D01*
X19323332Y-21843857D02*
X19370951Y-21867666D01*
X18847142Y-22224809D02*
X18751904Y-22224809D01*
X18751904Y-22224809D02*
X18704285Y-22201000D01*
X18704285Y-22201000D02*
X18680476Y-22177190D01*
X18680476Y-22177190D02*
X18632857Y-22105761D01*
X18632857Y-22105761D02*
X18609047Y-22010523D01*
X18609047Y-22010523D02*
X18609047Y-21820047D01*
X18609047Y-21820047D02*
X18632857Y-21772428D01*
X18632857Y-21772428D02*
X18656666Y-21748619D01*
X18656666Y-21748619D02*
X18704285Y-21724809D01*
X18704285Y-21724809D02*
X18799523Y-21724809D01*
X18799523Y-21724809D02*
X18847142Y-21748619D01*
X18847142Y-21748619D02*
X18870952Y-21772428D01*
X18870952Y-21772428D02*
X18894761Y-21820047D01*
X18894761Y-21820047D02*
X18894761Y-21939095D01*
X18894761Y-21939095D02*
X18870952Y-21986714D01*
X18870952Y-21986714D02*
X18847142Y-22010523D01*
X18847142Y-22010523D02*
X18799523Y-22034333D01*
X18799523Y-22034333D02*
X18704285Y-22034333D01*
X18704285Y-22034333D02*
X18656666Y-22010523D01*
X18656666Y-22010523D02*
X18632857Y-21986714D01*
X18632857Y-21986714D02*
X18609047Y-21939095D01*
D11*
X16102143Y-14299164D02*
X15673572Y-14299164D01*
X15887857Y-15049164D02*
X15887857Y-14299164D01*
X15423571Y-15049164D02*
X15423571Y-14299164D01*
X15423571Y-14299164D02*
X15137857Y-14299164D01*
X15137857Y-14299164D02*
X15066428Y-14334878D01*
X15066428Y-14334878D02*
X15030714Y-14370592D01*
X15030714Y-14370592D02*
X14995000Y-14442021D01*
X14995000Y-14442021D02*
X14995000Y-14549164D01*
X14995000Y-14549164D02*
X15030714Y-14620592D01*
X15030714Y-14620592D02*
X15066428Y-14656307D01*
X15066428Y-14656307D02*
X15137857Y-14692021D01*
X15137857Y-14692021D02*
X15423571Y-14692021D01*
X14745000Y-14299164D02*
X14280714Y-14299164D01*
X14280714Y-14299164D02*
X14530714Y-14584878D01*
X14530714Y-14584878D02*
X14423571Y-14584878D01*
X14423571Y-14584878D02*
X14352143Y-14620592D01*
X14352143Y-14620592D02*
X14316428Y-14656307D01*
X14316428Y-14656307D02*
X14280714Y-14727735D01*
X14280714Y-14727735D02*
X14280714Y-14906307D01*
X14280714Y-14906307D02*
X14316428Y-14977735D01*
X14316428Y-14977735D02*
X14352143Y-15013450D01*
X14352143Y-15013450D02*
X14423571Y-15049164D01*
X14423571Y-15049164D02*
X14637857Y-15049164D01*
X14637857Y-15049164D02*
X14709285Y-15013450D01*
X14709285Y-15013450D02*
X14745000Y-14977735D01*
X13959285Y-14977735D02*
X13923571Y-15013450D01*
X13923571Y-15013450D02*
X13959285Y-15049164D01*
X13959285Y-15049164D02*
X13994999Y-15013450D01*
X13994999Y-15013450D02*
X13959285Y-14977735D01*
X13959285Y-14977735D02*
X13959285Y-15049164D01*
X13959285Y-14584878D02*
X13923571Y-14620592D01*
X13923571Y-14620592D02*
X13959285Y-14656307D01*
X13959285Y-14656307D02*
X13994999Y-14620592D01*
X13994999Y-14620592D02*
X13959285Y-14584878D01*
X13959285Y-14584878D02*
X13959285Y-14656307D01*
X13673571Y-14299164D02*
X13173571Y-14299164D01*
X13173571Y-14299164D02*
X13494999Y-15049164D01*
X49102143Y-62027164D02*
X48673572Y-62027164D01*
X48887857Y-62777164D02*
X48887857Y-62027164D01*
X48423571Y-62777164D02*
X48423571Y-62027164D01*
X48423571Y-62027164D02*
X48137857Y-62027164D01*
X48137857Y-62027164D02*
X48066428Y-62062878D01*
X48066428Y-62062878D02*
X48030714Y-62098592D01*
X48030714Y-62098592D02*
X47995000Y-62170021D01*
X47995000Y-62170021D02*
X47995000Y-62277164D01*
X47995000Y-62277164D02*
X48030714Y-62348592D01*
X48030714Y-62348592D02*
X48066428Y-62384307D01*
X48066428Y-62384307D02*
X48137857Y-62420021D01*
X48137857Y-62420021D02*
X48423571Y-62420021D01*
X47709285Y-62098592D02*
X47673571Y-62062878D01*
X47673571Y-62062878D02*
X47602143Y-62027164D01*
X47602143Y-62027164D02*
X47423571Y-62027164D01*
X47423571Y-62027164D02*
X47352143Y-62062878D01*
X47352143Y-62062878D02*
X47316428Y-62098592D01*
X47316428Y-62098592D02*
X47280714Y-62170021D01*
X47280714Y-62170021D02*
X47280714Y-62241450D01*
X47280714Y-62241450D02*
X47316428Y-62348592D01*
X47316428Y-62348592D02*
X47745000Y-62777164D01*
X47745000Y-62777164D02*
X47280714Y-62777164D01*
X46959285Y-62705735D02*
X46923571Y-62741450D01*
X46923571Y-62741450D02*
X46959285Y-62777164D01*
X46959285Y-62777164D02*
X46994999Y-62741450D01*
X46994999Y-62741450D02*
X46959285Y-62705735D01*
X46959285Y-62705735D02*
X46959285Y-62777164D01*
X46959285Y-62312878D02*
X46923571Y-62348592D01*
X46923571Y-62348592D02*
X46959285Y-62384307D01*
X46959285Y-62384307D02*
X46994999Y-62348592D01*
X46994999Y-62348592D02*
X46959285Y-62312878D01*
X46959285Y-62312878D02*
X46959285Y-62384307D01*
X46280714Y-62027164D02*
X46423571Y-62027164D01*
X46423571Y-62027164D02*
X46494999Y-62062878D01*
X46494999Y-62062878D02*
X46530714Y-62098592D01*
X46530714Y-62098592D02*
X46602142Y-62205735D01*
X46602142Y-62205735D02*
X46637856Y-62348592D01*
X46637856Y-62348592D02*
X46637856Y-62634307D01*
X46637856Y-62634307D02*
X46602142Y-62705735D01*
X46602142Y-62705735D02*
X46566428Y-62741450D01*
X46566428Y-62741450D02*
X46494999Y-62777164D01*
X46494999Y-62777164D02*
X46352142Y-62777164D01*
X46352142Y-62777164D02*
X46280714Y-62741450D01*
X46280714Y-62741450D02*
X46244999Y-62705735D01*
X46244999Y-62705735D02*
X46209285Y-62634307D01*
X46209285Y-62634307D02*
X46209285Y-62455735D01*
X46209285Y-62455735D02*
X46244999Y-62384307D01*
X46244999Y-62384307D02*
X46280714Y-62348592D01*
X46280714Y-62348592D02*
X46352142Y-62312878D01*
X46352142Y-62312878D02*
X46494999Y-62312878D01*
X46494999Y-62312878D02*
X46566428Y-62348592D01*
X46566428Y-62348592D02*
X46602142Y-62384307D01*
X46602142Y-62384307D02*
X46637856Y-62455735D01*
X37852143Y-14589164D02*
X37423572Y-14589164D01*
X37637857Y-15339164D02*
X37637857Y-14589164D01*
X37173571Y-15339164D02*
X37173571Y-14589164D01*
X37173571Y-14589164D02*
X36887857Y-14589164D01*
X36887857Y-14589164D02*
X36816428Y-14624878D01*
X36816428Y-14624878D02*
X36780714Y-14660592D01*
X36780714Y-14660592D02*
X36745000Y-14732021D01*
X36745000Y-14732021D02*
X36745000Y-14839164D01*
X36745000Y-14839164D02*
X36780714Y-14910592D01*
X36780714Y-14910592D02*
X36816428Y-14946307D01*
X36816428Y-14946307D02*
X36887857Y-14982021D01*
X36887857Y-14982021D02*
X37173571Y-14982021D01*
X36102143Y-14839164D02*
X36102143Y-15339164D01*
X36280714Y-14553450D02*
X36459285Y-15089164D01*
X36459285Y-15089164D02*
X35995000Y-15089164D01*
X35709285Y-15267735D02*
X35673571Y-15303450D01*
X35673571Y-15303450D02*
X35709285Y-15339164D01*
X35709285Y-15339164D02*
X35744999Y-15303450D01*
X35744999Y-15303450D02*
X35709285Y-15267735D01*
X35709285Y-15267735D02*
X35709285Y-15339164D01*
X35709285Y-14874878D02*
X35673571Y-14910592D01*
X35673571Y-14910592D02*
X35709285Y-14946307D01*
X35709285Y-14946307D02*
X35744999Y-14910592D01*
X35744999Y-14910592D02*
X35709285Y-14874878D01*
X35709285Y-14874878D02*
X35709285Y-14946307D01*
X35423571Y-14589164D02*
X34923571Y-14589164D01*
X34923571Y-14589164D02*
X35244999Y-15339164D01*
D13*
X21113333Y-10804809D02*
X21279999Y-10566714D01*
X21399047Y-10804809D02*
X21399047Y-10304809D01*
X21399047Y-10304809D02*
X21208571Y-10304809D01*
X21208571Y-10304809D02*
X21160952Y-10328619D01*
X21160952Y-10328619D02*
X21137142Y-10352428D01*
X21137142Y-10352428D02*
X21113333Y-10400047D01*
X21113333Y-10400047D02*
X21113333Y-10471476D01*
X21113333Y-10471476D02*
X21137142Y-10519095D01*
X21137142Y-10519095D02*
X21160952Y-10542904D01*
X21160952Y-10542904D02*
X21208571Y-10566714D01*
X21208571Y-10566714D02*
X21399047Y-10566714D01*
X20875237Y-10804809D02*
X20779999Y-10804809D01*
X20779999Y-10804809D02*
X20732380Y-10781000D01*
X20732380Y-10781000D02*
X20708571Y-10757190D01*
X20708571Y-10757190D02*
X20660952Y-10685761D01*
X20660952Y-10685761D02*
X20637142Y-10590523D01*
X20637142Y-10590523D02*
X20637142Y-10400047D01*
X20637142Y-10400047D02*
X20660952Y-10352428D01*
X20660952Y-10352428D02*
X20684761Y-10328619D01*
X20684761Y-10328619D02*
X20732380Y-10304809D01*
X20732380Y-10304809D02*
X20827618Y-10304809D01*
X20827618Y-10304809D02*
X20875237Y-10328619D01*
X20875237Y-10328619D02*
X20899047Y-10352428D01*
X20899047Y-10352428D02*
X20922856Y-10400047D01*
X20922856Y-10400047D02*
X20922856Y-10519095D01*
X20922856Y-10519095D02*
X20899047Y-10566714D01*
X20899047Y-10566714D02*
X20875237Y-10590523D01*
X20875237Y-10590523D02*
X20827618Y-10614333D01*
X20827618Y-10614333D02*
X20732380Y-10614333D01*
X20732380Y-10614333D02*
X20684761Y-10590523D01*
X20684761Y-10590523D02*
X20660952Y-10566714D01*
X20660952Y-10566714D02*
X20637142Y-10519095D01*
X33321428Y-61214809D02*
X33488094Y-60976714D01*
X33607142Y-61214809D02*
X33607142Y-60714809D01*
X33607142Y-60714809D02*
X33416666Y-60714809D01*
X33416666Y-60714809D02*
X33369047Y-60738619D01*
X33369047Y-60738619D02*
X33345237Y-60762428D01*
X33345237Y-60762428D02*
X33321428Y-60810047D01*
X33321428Y-60810047D02*
X33321428Y-60881476D01*
X33321428Y-60881476D02*
X33345237Y-60929095D01*
X33345237Y-60929095D02*
X33369047Y-60952904D01*
X33369047Y-60952904D02*
X33416666Y-60976714D01*
X33416666Y-60976714D02*
X33607142Y-60976714D01*
X32845237Y-61214809D02*
X33130951Y-61214809D01*
X32988094Y-61214809D02*
X32988094Y-60714809D01*
X32988094Y-60714809D02*
X33035713Y-60786238D01*
X33035713Y-60786238D02*
X33083332Y-60833857D01*
X33083332Y-60833857D02*
X33130951Y-60857666D01*
X32392857Y-60714809D02*
X32630952Y-60714809D01*
X32630952Y-60714809D02*
X32654761Y-60952904D01*
X32654761Y-60952904D02*
X32630952Y-60929095D01*
X32630952Y-60929095D02*
X32583333Y-60905285D01*
X32583333Y-60905285D02*
X32464285Y-60905285D01*
X32464285Y-60905285D02*
X32416666Y-60929095D01*
X32416666Y-60929095D02*
X32392857Y-60952904D01*
X32392857Y-60952904D02*
X32369047Y-61000523D01*
X32369047Y-61000523D02*
X32369047Y-61119571D01*
X32369047Y-61119571D02*
X32392857Y-61167190D01*
X32392857Y-61167190D02*
X32416666Y-61191000D01*
X32416666Y-61191000D02*
X32464285Y-61214809D01*
X32464285Y-61214809D02*
X32583333Y-61214809D01*
X32583333Y-61214809D02*
X32630952Y-61191000D01*
X32630952Y-61191000D02*
X32654761Y-61167190D01*
D11*
X40102143Y-17277164D02*
X39673572Y-17277164D01*
X39887857Y-18027164D02*
X39887857Y-17277164D01*
X39423571Y-18027164D02*
X39423571Y-17277164D01*
X39423571Y-17277164D02*
X39137857Y-17277164D01*
X39137857Y-17277164D02*
X39066428Y-17312878D01*
X39066428Y-17312878D02*
X39030714Y-17348592D01*
X39030714Y-17348592D02*
X38995000Y-17420021D01*
X38995000Y-17420021D02*
X38995000Y-17527164D01*
X38995000Y-17527164D02*
X39030714Y-17598592D01*
X39030714Y-17598592D02*
X39066428Y-17634307D01*
X39066428Y-17634307D02*
X39137857Y-17670021D01*
X39137857Y-17670021D02*
X39423571Y-17670021D01*
X38352143Y-17527164D02*
X38352143Y-18027164D01*
X38530714Y-17241450D02*
X38709285Y-17777164D01*
X38709285Y-17777164D02*
X38245000Y-17777164D01*
X37959285Y-17955735D02*
X37923571Y-17991450D01*
X37923571Y-17991450D02*
X37959285Y-18027164D01*
X37959285Y-18027164D02*
X37994999Y-17991450D01*
X37994999Y-17991450D02*
X37959285Y-17955735D01*
X37959285Y-17955735D02*
X37959285Y-18027164D01*
X37959285Y-17562878D02*
X37923571Y-17598592D01*
X37923571Y-17598592D02*
X37959285Y-17634307D01*
X37959285Y-17634307D02*
X37994999Y-17598592D01*
X37994999Y-17598592D02*
X37959285Y-17562878D01*
X37959285Y-17562878D02*
X37959285Y-17634307D01*
X37280714Y-17277164D02*
X37423571Y-17277164D01*
X37423571Y-17277164D02*
X37494999Y-17312878D01*
X37494999Y-17312878D02*
X37530714Y-17348592D01*
X37530714Y-17348592D02*
X37602142Y-17455735D01*
X37602142Y-17455735D02*
X37637856Y-17598592D01*
X37637856Y-17598592D02*
X37637856Y-17884307D01*
X37637856Y-17884307D02*
X37602142Y-17955735D01*
X37602142Y-17955735D02*
X37566428Y-17991450D01*
X37566428Y-17991450D02*
X37494999Y-18027164D01*
X37494999Y-18027164D02*
X37352142Y-18027164D01*
X37352142Y-18027164D02*
X37280714Y-17991450D01*
X37280714Y-17991450D02*
X37244999Y-17955735D01*
X37244999Y-17955735D02*
X37209285Y-17884307D01*
X37209285Y-17884307D02*
X37209285Y-17705735D01*
X37209285Y-17705735D02*
X37244999Y-17634307D01*
X37244999Y-17634307D02*
X37280714Y-17598592D01*
X37280714Y-17598592D02*
X37352142Y-17562878D01*
X37352142Y-17562878D02*
X37494999Y-17562878D01*
X37494999Y-17562878D02*
X37566428Y-17598592D01*
X37566428Y-17598592D02*
X37602142Y-17634307D01*
X37602142Y-17634307D02*
X37637856Y-17705735D01*
D13*
X24380952Y-51474809D02*
X24380952Y-51879571D01*
X24380952Y-51879571D02*
X24357142Y-51927190D01*
X24357142Y-51927190D02*
X24333333Y-51951000D01*
X24333333Y-51951000D02*
X24285714Y-51974809D01*
X24285714Y-51974809D02*
X24190476Y-51974809D01*
X24190476Y-51974809D02*
X24142857Y-51951000D01*
X24142857Y-51951000D02*
X24119047Y-51927190D01*
X24119047Y-51927190D02*
X24095238Y-51879571D01*
X24095238Y-51879571D02*
X24095238Y-51474809D01*
X23785713Y-51689095D02*
X23833332Y-51665285D01*
X23833332Y-51665285D02*
X23857142Y-51641476D01*
X23857142Y-51641476D02*
X23880951Y-51593857D01*
X23880951Y-51593857D02*
X23880951Y-51570047D01*
X23880951Y-51570047D02*
X23857142Y-51522428D01*
X23857142Y-51522428D02*
X23833332Y-51498619D01*
X23833332Y-51498619D02*
X23785713Y-51474809D01*
X23785713Y-51474809D02*
X23690475Y-51474809D01*
X23690475Y-51474809D02*
X23642856Y-51498619D01*
X23642856Y-51498619D02*
X23619047Y-51522428D01*
X23619047Y-51522428D02*
X23595237Y-51570047D01*
X23595237Y-51570047D02*
X23595237Y-51593857D01*
X23595237Y-51593857D02*
X23619047Y-51641476D01*
X23619047Y-51641476D02*
X23642856Y-51665285D01*
X23642856Y-51665285D02*
X23690475Y-51689095D01*
X23690475Y-51689095D02*
X23785713Y-51689095D01*
X23785713Y-51689095D02*
X23833332Y-51712904D01*
X23833332Y-51712904D02*
X23857142Y-51736714D01*
X23857142Y-51736714D02*
X23880951Y-51784333D01*
X23880951Y-51784333D02*
X23880951Y-51879571D01*
X23880951Y-51879571D02*
X23857142Y-51927190D01*
X23857142Y-51927190D02*
X23833332Y-51951000D01*
X23833332Y-51951000D02*
X23785713Y-51974809D01*
X23785713Y-51974809D02*
X23690475Y-51974809D01*
X23690475Y-51974809D02*
X23642856Y-51951000D01*
X23642856Y-51951000D02*
X23619047Y-51927190D01*
X23619047Y-51927190D02*
X23595237Y-51879571D01*
X23595237Y-51879571D02*
X23595237Y-51784333D01*
X23595237Y-51784333D02*
X23619047Y-51736714D01*
X23619047Y-51736714D02*
X23642856Y-51712904D01*
X23642856Y-51712904D02*
X23690475Y-51689095D01*
X51666666Y-24974809D02*
X51666666Y-25331952D01*
X51666666Y-25331952D02*
X51690475Y-25403380D01*
X51690475Y-25403380D02*
X51738094Y-25451000D01*
X51738094Y-25451000D02*
X51809523Y-25474809D01*
X51809523Y-25474809D02*
X51857142Y-25474809D01*
X51452380Y-25022428D02*
X51428571Y-24998619D01*
X51428571Y-24998619D02*
X51380952Y-24974809D01*
X51380952Y-24974809D02*
X51261904Y-24974809D01*
X51261904Y-24974809D02*
X51214285Y-24998619D01*
X51214285Y-24998619D02*
X51190476Y-25022428D01*
X51190476Y-25022428D02*
X51166666Y-25070047D01*
X51166666Y-25070047D02*
X51166666Y-25117666D01*
X51166666Y-25117666D02*
X51190476Y-25189095D01*
X51190476Y-25189095D02*
X51476190Y-25474809D01*
X51476190Y-25474809D02*
X51166666Y-25474809D01*
X38465237Y-64002904D02*
X38298570Y-64002904D01*
X38227142Y-64264809D02*
X38465237Y-64264809D01*
X38465237Y-64264809D02*
X38465237Y-63764809D01*
X38465237Y-63764809D02*
X38227142Y-63764809D01*
X38036665Y-63812428D02*
X38012856Y-63788619D01*
X38012856Y-63788619D02*
X37965237Y-63764809D01*
X37965237Y-63764809D02*
X37846189Y-63764809D01*
X37846189Y-63764809D02*
X37798570Y-63788619D01*
X37798570Y-63788619D02*
X37774761Y-63812428D01*
X37774761Y-63812428D02*
X37750951Y-63860047D01*
X37750951Y-63860047D02*
X37750951Y-63907666D01*
X37750951Y-63907666D02*
X37774761Y-63979095D01*
X37774761Y-63979095D02*
X38060475Y-64264809D01*
X38060475Y-64264809D02*
X37750951Y-64264809D01*
X51071428Y-47677190D02*
X51095237Y-47701000D01*
X51095237Y-47701000D02*
X51166666Y-47724809D01*
X51166666Y-47724809D02*
X51214285Y-47724809D01*
X51214285Y-47724809D02*
X51285713Y-47701000D01*
X51285713Y-47701000D02*
X51333332Y-47653380D01*
X51333332Y-47653380D02*
X51357142Y-47605761D01*
X51357142Y-47605761D02*
X51380951Y-47510523D01*
X51380951Y-47510523D02*
X51380951Y-47439095D01*
X51380951Y-47439095D02*
X51357142Y-47343857D01*
X51357142Y-47343857D02*
X51333332Y-47296238D01*
X51333332Y-47296238D02*
X51285713Y-47248619D01*
X51285713Y-47248619D02*
X51214285Y-47224809D01*
X51214285Y-47224809D02*
X51166666Y-47224809D01*
X51166666Y-47224809D02*
X51095237Y-47248619D01*
X51095237Y-47248619D02*
X51071428Y-47272428D01*
X50595237Y-47724809D02*
X50880951Y-47724809D01*
X50738094Y-47724809D02*
X50738094Y-47224809D01*
X50738094Y-47224809D02*
X50785713Y-47296238D01*
X50785713Y-47296238D02*
X50833332Y-47343857D01*
X50833332Y-47343857D02*
X50880951Y-47367666D01*
X50142857Y-47224809D02*
X50380952Y-47224809D01*
X50380952Y-47224809D02*
X50404761Y-47462904D01*
X50404761Y-47462904D02*
X50380952Y-47439095D01*
X50380952Y-47439095D02*
X50333333Y-47415285D01*
X50333333Y-47415285D02*
X50214285Y-47415285D01*
X50214285Y-47415285D02*
X50166666Y-47439095D01*
X50166666Y-47439095D02*
X50142857Y-47462904D01*
X50142857Y-47462904D02*
X50119047Y-47510523D01*
X50119047Y-47510523D02*
X50119047Y-47629571D01*
X50119047Y-47629571D02*
X50142857Y-47677190D01*
X50142857Y-47677190D02*
X50166666Y-47701000D01*
X50166666Y-47701000D02*
X50214285Y-47724809D01*
X50214285Y-47724809D02*
X50333333Y-47724809D01*
X50333333Y-47724809D02*
X50380952Y-47701000D01*
X50380952Y-47701000D02*
X50404761Y-47677190D01*
X24833333Y-27367190D02*
X24857142Y-27391000D01*
X24857142Y-27391000D02*
X24928571Y-27414809D01*
X24928571Y-27414809D02*
X24976190Y-27414809D01*
X24976190Y-27414809D02*
X25047618Y-27391000D01*
X25047618Y-27391000D02*
X25095237Y-27343380D01*
X25095237Y-27343380D02*
X25119047Y-27295761D01*
X25119047Y-27295761D02*
X25142856Y-27200523D01*
X25142856Y-27200523D02*
X25142856Y-27129095D01*
X25142856Y-27129095D02*
X25119047Y-27033857D01*
X25119047Y-27033857D02*
X25095237Y-26986238D01*
X25095237Y-26986238D02*
X25047618Y-26938619D01*
X25047618Y-26938619D02*
X24976190Y-26914809D01*
X24976190Y-26914809D02*
X24928571Y-26914809D01*
X24928571Y-26914809D02*
X24857142Y-26938619D01*
X24857142Y-26938619D02*
X24833333Y-26962428D01*
X24595237Y-27414809D02*
X24499999Y-27414809D01*
X24499999Y-27414809D02*
X24452380Y-27391000D01*
X24452380Y-27391000D02*
X24428571Y-27367190D01*
X24428571Y-27367190D02*
X24380952Y-27295761D01*
X24380952Y-27295761D02*
X24357142Y-27200523D01*
X24357142Y-27200523D02*
X24357142Y-27010047D01*
X24357142Y-27010047D02*
X24380952Y-26962428D01*
X24380952Y-26962428D02*
X24404761Y-26938619D01*
X24404761Y-26938619D02*
X24452380Y-26914809D01*
X24452380Y-26914809D02*
X24547618Y-26914809D01*
X24547618Y-26914809D02*
X24595237Y-26938619D01*
X24595237Y-26938619D02*
X24619047Y-26962428D01*
X24619047Y-26962428D02*
X24642856Y-27010047D01*
X24642856Y-27010047D02*
X24642856Y-27129095D01*
X24642856Y-27129095D02*
X24619047Y-27176714D01*
X24619047Y-27176714D02*
X24595237Y-27200523D01*
X24595237Y-27200523D02*
X24547618Y-27224333D01*
X24547618Y-27224333D02*
X24452380Y-27224333D01*
X24452380Y-27224333D02*
X24404761Y-27200523D01*
X24404761Y-27200523D02*
X24380952Y-27176714D01*
X24380952Y-27176714D02*
X24357142Y-27129095D01*
D11*
X19602143Y-59339164D02*
X19173572Y-59339164D01*
X19387857Y-60089164D02*
X19387857Y-59339164D01*
X18923571Y-60089164D02*
X18923571Y-59339164D01*
X18923571Y-59339164D02*
X18637857Y-59339164D01*
X18637857Y-59339164D02*
X18566428Y-59374878D01*
X18566428Y-59374878D02*
X18530714Y-59410592D01*
X18530714Y-59410592D02*
X18495000Y-59482021D01*
X18495000Y-59482021D02*
X18495000Y-59589164D01*
X18495000Y-59589164D02*
X18530714Y-59660592D01*
X18530714Y-59660592D02*
X18566428Y-59696307D01*
X18566428Y-59696307D02*
X18637857Y-59732021D01*
X18637857Y-59732021D02*
X18923571Y-59732021D01*
X17780714Y-60089164D02*
X18209285Y-60089164D01*
X17995000Y-60089164D02*
X17995000Y-59339164D01*
X17995000Y-59339164D02*
X18066428Y-59446307D01*
X18066428Y-59446307D02*
X18137857Y-59517735D01*
X18137857Y-59517735D02*
X18209285Y-59553450D01*
X17459285Y-60017735D02*
X17423571Y-60053450D01*
X17423571Y-60053450D02*
X17459285Y-60089164D01*
X17459285Y-60089164D02*
X17494999Y-60053450D01*
X17494999Y-60053450D02*
X17459285Y-60017735D01*
X17459285Y-60017735D02*
X17459285Y-60089164D01*
X17459285Y-59624878D02*
X17423571Y-59660592D01*
X17423571Y-59660592D02*
X17459285Y-59696307D01*
X17459285Y-59696307D02*
X17494999Y-59660592D01*
X17494999Y-59660592D02*
X17459285Y-59624878D01*
X17459285Y-59624878D02*
X17459285Y-59696307D01*
X17173571Y-59339164D02*
X16709285Y-59339164D01*
X16709285Y-59339164D02*
X16959285Y-59624878D01*
X16959285Y-59624878D02*
X16852142Y-59624878D01*
X16852142Y-59624878D02*
X16780714Y-59660592D01*
X16780714Y-59660592D02*
X16744999Y-59696307D01*
X16744999Y-59696307D02*
X16709285Y-59767735D01*
X16709285Y-59767735D02*
X16709285Y-59946307D01*
X16709285Y-59946307D02*
X16744999Y-60017735D01*
X16744999Y-60017735D02*
X16780714Y-60053450D01*
X16780714Y-60053450D02*
X16852142Y-60089164D01*
X16852142Y-60089164D02*
X17066428Y-60089164D01*
X17066428Y-60089164D02*
X17137856Y-60053450D01*
X17137856Y-60053450D02*
X17173571Y-60017735D01*
D13*
X26571428Y-38427190D02*
X26595237Y-38451000D01*
X26595237Y-38451000D02*
X26666666Y-38474809D01*
X26666666Y-38474809D02*
X26714285Y-38474809D01*
X26714285Y-38474809D02*
X26785713Y-38451000D01*
X26785713Y-38451000D02*
X26833332Y-38403380D01*
X26833332Y-38403380D02*
X26857142Y-38355761D01*
X26857142Y-38355761D02*
X26880951Y-38260523D01*
X26880951Y-38260523D02*
X26880951Y-38189095D01*
X26880951Y-38189095D02*
X26857142Y-38093857D01*
X26857142Y-38093857D02*
X26833332Y-38046238D01*
X26833332Y-38046238D02*
X26785713Y-37998619D01*
X26785713Y-37998619D02*
X26714285Y-37974809D01*
X26714285Y-37974809D02*
X26666666Y-37974809D01*
X26666666Y-37974809D02*
X26595237Y-37998619D01*
X26595237Y-37998619D02*
X26571428Y-38022428D01*
X26095237Y-38474809D02*
X26380951Y-38474809D01*
X26238094Y-38474809D02*
X26238094Y-37974809D01*
X26238094Y-37974809D02*
X26285713Y-38046238D01*
X26285713Y-38046238D02*
X26333332Y-38093857D01*
X26333332Y-38093857D02*
X26380951Y-38117666D01*
X25928571Y-37974809D02*
X25619047Y-37974809D01*
X25619047Y-37974809D02*
X25785714Y-38165285D01*
X25785714Y-38165285D02*
X25714285Y-38165285D01*
X25714285Y-38165285D02*
X25666666Y-38189095D01*
X25666666Y-38189095D02*
X25642857Y-38212904D01*
X25642857Y-38212904D02*
X25619047Y-38260523D01*
X25619047Y-38260523D02*
X25619047Y-38379571D01*
X25619047Y-38379571D02*
X25642857Y-38427190D01*
X25642857Y-38427190D02*
X25666666Y-38451000D01*
X25666666Y-38451000D02*
X25714285Y-38474809D01*
X25714285Y-38474809D02*
X25857142Y-38474809D01*
X25857142Y-38474809D02*
X25904761Y-38451000D01*
X25904761Y-38451000D02*
X25928571Y-38427190D01*
X12871428Y-62584809D02*
X13038094Y-62346714D01*
X13157142Y-62584809D02*
X13157142Y-62084809D01*
X13157142Y-62084809D02*
X12966666Y-62084809D01*
X12966666Y-62084809D02*
X12919047Y-62108619D01*
X12919047Y-62108619D02*
X12895237Y-62132428D01*
X12895237Y-62132428D02*
X12871428Y-62180047D01*
X12871428Y-62180047D02*
X12871428Y-62251476D01*
X12871428Y-62251476D02*
X12895237Y-62299095D01*
X12895237Y-62299095D02*
X12919047Y-62322904D01*
X12919047Y-62322904D02*
X12966666Y-62346714D01*
X12966666Y-62346714D02*
X13157142Y-62346714D01*
X12395237Y-62584809D02*
X12680951Y-62584809D01*
X12538094Y-62584809D02*
X12538094Y-62084809D01*
X12538094Y-62084809D02*
X12585713Y-62156238D01*
X12585713Y-62156238D02*
X12633332Y-62203857D01*
X12633332Y-62203857D02*
X12680951Y-62227666D01*
X11966666Y-62084809D02*
X12061904Y-62084809D01*
X12061904Y-62084809D02*
X12109523Y-62108619D01*
X12109523Y-62108619D02*
X12133333Y-62132428D01*
X12133333Y-62132428D02*
X12180952Y-62203857D01*
X12180952Y-62203857D02*
X12204761Y-62299095D01*
X12204761Y-62299095D02*
X12204761Y-62489571D01*
X12204761Y-62489571D02*
X12180952Y-62537190D01*
X12180952Y-62537190D02*
X12157142Y-62561000D01*
X12157142Y-62561000D02*
X12109523Y-62584809D01*
X12109523Y-62584809D02*
X12014285Y-62584809D01*
X12014285Y-62584809D02*
X11966666Y-62561000D01*
X11966666Y-62561000D02*
X11942857Y-62537190D01*
X11942857Y-62537190D02*
X11919047Y-62489571D01*
X11919047Y-62489571D02*
X11919047Y-62370523D01*
X11919047Y-62370523D02*
X11942857Y-62322904D01*
X11942857Y-62322904D02*
X11966666Y-62299095D01*
X11966666Y-62299095D02*
X12014285Y-62275285D01*
X12014285Y-62275285D02*
X12109523Y-62275285D01*
X12109523Y-62275285D02*
X12157142Y-62299095D01*
X12157142Y-62299095D02*
X12180952Y-62322904D01*
X12180952Y-62322904D02*
X12204761Y-62370523D01*
D11*
X44602143Y-62027164D02*
X44173572Y-62027164D01*
X44387857Y-62777164D02*
X44387857Y-62027164D01*
X43923571Y-62777164D02*
X43923571Y-62027164D01*
X43923571Y-62027164D02*
X43637857Y-62027164D01*
X43637857Y-62027164D02*
X43566428Y-62062878D01*
X43566428Y-62062878D02*
X43530714Y-62098592D01*
X43530714Y-62098592D02*
X43495000Y-62170021D01*
X43495000Y-62170021D02*
X43495000Y-62277164D01*
X43495000Y-62277164D02*
X43530714Y-62348592D01*
X43530714Y-62348592D02*
X43566428Y-62384307D01*
X43566428Y-62384307D02*
X43637857Y-62420021D01*
X43637857Y-62420021D02*
X43923571Y-62420021D01*
X43209285Y-62098592D02*
X43173571Y-62062878D01*
X43173571Y-62062878D02*
X43102143Y-62027164D01*
X43102143Y-62027164D02*
X42923571Y-62027164D01*
X42923571Y-62027164D02*
X42852143Y-62062878D01*
X42852143Y-62062878D02*
X42816428Y-62098592D01*
X42816428Y-62098592D02*
X42780714Y-62170021D01*
X42780714Y-62170021D02*
X42780714Y-62241450D01*
X42780714Y-62241450D02*
X42816428Y-62348592D01*
X42816428Y-62348592D02*
X43245000Y-62777164D01*
X43245000Y-62777164D02*
X42780714Y-62777164D01*
X42459285Y-62705735D02*
X42423571Y-62741450D01*
X42423571Y-62741450D02*
X42459285Y-62777164D01*
X42459285Y-62777164D02*
X42494999Y-62741450D01*
X42494999Y-62741450D02*
X42459285Y-62705735D01*
X42459285Y-62705735D02*
X42459285Y-62777164D01*
X42459285Y-62312878D02*
X42423571Y-62348592D01*
X42423571Y-62348592D02*
X42459285Y-62384307D01*
X42459285Y-62384307D02*
X42494999Y-62348592D01*
X42494999Y-62348592D02*
X42459285Y-62312878D01*
X42459285Y-62312878D02*
X42459285Y-62384307D01*
X41780714Y-62277164D02*
X41780714Y-62777164D01*
X41959285Y-61991450D02*
X42137856Y-62527164D01*
X42137856Y-62527164D02*
X41673571Y-62527164D01*
X20602143Y-14279164D02*
X20173572Y-14279164D01*
X20387857Y-15029164D02*
X20387857Y-14279164D01*
X19923571Y-15029164D02*
X19923571Y-14279164D01*
X19923571Y-14279164D02*
X19637857Y-14279164D01*
X19637857Y-14279164D02*
X19566428Y-14314878D01*
X19566428Y-14314878D02*
X19530714Y-14350592D01*
X19530714Y-14350592D02*
X19495000Y-14422021D01*
X19495000Y-14422021D02*
X19495000Y-14529164D01*
X19495000Y-14529164D02*
X19530714Y-14600592D01*
X19530714Y-14600592D02*
X19566428Y-14636307D01*
X19566428Y-14636307D02*
X19637857Y-14672021D01*
X19637857Y-14672021D02*
X19923571Y-14672021D01*
X19245000Y-14279164D02*
X18780714Y-14279164D01*
X18780714Y-14279164D02*
X19030714Y-14564878D01*
X19030714Y-14564878D02*
X18923571Y-14564878D01*
X18923571Y-14564878D02*
X18852143Y-14600592D01*
X18852143Y-14600592D02*
X18816428Y-14636307D01*
X18816428Y-14636307D02*
X18780714Y-14707735D01*
X18780714Y-14707735D02*
X18780714Y-14886307D01*
X18780714Y-14886307D02*
X18816428Y-14957735D01*
X18816428Y-14957735D02*
X18852143Y-14993450D01*
X18852143Y-14993450D02*
X18923571Y-15029164D01*
X18923571Y-15029164D02*
X19137857Y-15029164D01*
X19137857Y-15029164D02*
X19209285Y-14993450D01*
X19209285Y-14993450D02*
X19245000Y-14957735D01*
X18459285Y-14957735D02*
X18423571Y-14993450D01*
X18423571Y-14993450D02*
X18459285Y-15029164D01*
X18459285Y-15029164D02*
X18494999Y-14993450D01*
X18494999Y-14993450D02*
X18459285Y-14957735D01*
X18459285Y-14957735D02*
X18459285Y-15029164D01*
X18459285Y-14564878D02*
X18423571Y-14600592D01*
X18423571Y-14600592D02*
X18459285Y-14636307D01*
X18459285Y-14636307D02*
X18494999Y-14600592D01*
X18494999Y-14600592D02*
X18459285Y-14564878D01*
X18459285Y-14564878D02*
X18459285Y-14636307D01*
X17744999Y-14279164D02*
X18102142Y-14279164D01*
X18102142Y-14279164D02*
X18137856Y-14636307D01*
X18137856Y-14636307D02*
X18102142Y-14600592D01*
X18102142Y-14600592D02*
X18030714Y-14564878D01*
X18030714Y-14564878D02*
X17852142Y-14564878D01*
X17852142Y-14564878D02*
X17780714Y-14600592D01*
X17780714Y-14600592D02*
X17744999Y-14636307D01*
X17744999Y-14636307D02*
X17709285Y-14707735D01*
X17709285Y-14707735D02*
X17709285Y-14886307D01*
X17709285Y-14886307D02*
X17744999Y-14957735D01*
X17744999Y-14957735D02*
X17780714Y-14993450D01*
X17780714Y-14993450D02*
X17852142Y-15029164D01*
X17852142Y-15029164D02*
X18030714Y-15029164D01*
X18030714Y-15029164D02*
X18102142Y-14993450D01*
X18102142Y-14993450D02*
X18137856Y-14957735D01*
X27352143Y-17027164D02*
X26923572Y-17027164D01*
X27137857Y-17777164D02*
X27137857Y-17027164D01*
X26673571Y-17777164D02*
X26673571Y-17027164D01*
X26673571Y-17027164D02*
X26387857Y-17027164D01*
X26387857Y-17027164D02*
X26316428Y-17062878D01*
X26316428Y-17062878D02*
X26280714Y-17098592D01*
X26280714Y-17098592D02*
X26245000Y-17170021D01*
X26245000Y-17170021D02*
X26245000Y-17277164D01*
X26245000Y-17277164D02*
X26280714Y-17348592D01*
X26280714Y-17348592D02*
X26316428Y-17384307D01*
X26316428Y-17384307D02*
X26387857Y-17420021D01*
X26387857Y-17420021D02*
X26673571Y-17420021D01*
X25995000Y-17027164D02*
X25530714Y-17027164D01*
X25530714Y-17027164D02*
X25780714Y-17312878D01*
X25780714Y-17312878D02*
X25673571Y-17312878D01*
X25673571Y-17312878D02*
X25602143Y-17348592D01*
X25602143Y-17348592D02*
X25566428Y-17384307D01*
X25566428Y-17384307D02*
X25530714Y-17455735D01*
X25530714Y-17455735D02*
X25530714Y-17634307D01*
X25530714Y-17634307D02*
X25566428Y-17705735D01*
X25566428Y-17705735D02*
X25602143Y-17741450D01*
X25602143Y-17741450D02*
X25673571Y-17777164D01*
X25673571Y-17777164D02*
X25887857Y-17777164D01*
X25887857Y-17777164D02*
X25959285Y-17741450D01*
X25959285Y-17741450D02*
X25995000Y-17705735D01*
X25209285Y-17705735D02*
X25173571Y-17741450D01*
X25173571Y-17741450D02*
X25209285Y-17777164D01*
X25209285Y-17777164D02*
X25244999Y-17741450D01*
X25244999Y-17741450D02*
X25209285Y-17705735D01*
X25209285Y-17705735D02*
X25209285Y-17777164D01*
X25209285Y-17312878D02*
X25173571Y-17348592D01*
X25173571Y-17348592D02*
X25209285Y-17384307D01*
X25209285Y-17384307D02*
X25244999Y-17348592D01*
X25244999Y-17348592D02*
X25209285Y-17312878D01*
X25209285Y-17312878D02*
X25209285Y-17384307D01*
X24887856Y-17098592D02*
X24852142Y-17062878D01*
X24852142Y-17062878D02*
X24780714Y-17027164D01*
X24780714Y-17027164D02*
X24602142Y-17027164D01*
X24602142Y-17027164D02*
X24530714Y-17062878D01*
X24530714Y-17062878D02*
X24494999Y-17098592D01*
X24494999Y-17098592D02*
X24459285Y-17170021D01*
X24459285Y-17170021D02*
X24459285Y-17241450D01*
X24459285Y-17241450D02*
X24494999Y-17348592D01*
X24494999Y-17348592D02*
X24923571Y-17777164D01*
X24923571Y-17777164D02*
X24459285Y-17777164D01*
X51352143Y-59339164D02*
X50923572Y-59339164D01*
X51137857Y-60089164D02*
X51137857Y-59339164D01*
X50673571Y-60089164D02*
X50673571Y-59339164D01*
X50673571Y-59339164D02*
X50387857Y-59339164D01*
X50387857Y-59339164D02*
X50316428Y-59374878D01*
X50316428Y-59374878D02*
X50280714Y-59410592D01*
X50280714Y-59410592D02*
X50245000Y-59482021D01*
X50245000Y-59482021D02*
X50245000Y-59589164D01*
X50245000Y-59589164D02*
X50280714Y-59660592D01*
X50280714Y-59660592D02*
X50316428Y-59696307D01*
X50316428Y-59696307D02*
X50387857Y-59732021D01*
X50387857Y-59732021D02*
X50673571Y-59732021D01*
X49959285Y-59410592D02*
X49923571Y-59374878D01*
X49923571Y-59374878D02*
X49852143Y-59339164D01*
X49852143Y-59339164D02*
X49673571Y-59339164D01*
X49673571Y-59339164D02*
X49602143Y-59374878D01*
X49602143Y-59374878D02*
X49566428Y-59410592D01*
X49566428Y-59410592D02*
X49530714Y-59482021D01*
X49530714Y-59482021D02*
X49530714Y-59553450D01*
X49530714Y-59553450D02*
X49566428Y-59660592D01*
X49566428Y-59660592D02*
X49995000Y-60089164D01*
X49995000Y-60089164D02*
X49530714Y-60089164D01*
X49209285Y-60017735D02*
X49173571Y-60053450D01*
X49173571Y-60053450D02*
X49209285Y-60089164D01*
X49209285Y-60089164D02*
X49244999Y-60053450D01*
X49244999Y-60053450D02*
X49209285Y-60017735D01*
X49209285Y-60017735D02*
X49209285Y-60089164D01*
X49209285Y-59624878D02*
X49173571Y-59660592D01*
X49173571Y-59660592D02*
X49209285Y-59696307D01*
X49209285Y-59696307D02*
X49244999Y-59660592D01*
X49244999Y-59660592D02*
X49209285Y-59624878D01*
X49209285Y-59624878D02*
X49209285Y-59696307D01*
X48923571Y-59339164D02*
X48423571Y-59339164D01*
X48423571Y-59339164D02*
X48744999Y-60089164D01*
D13*
X38321428Y-27427190D02*
X38345237Y-27451000D01*
X38345237Y-27451000D02*
X38416666Y-27474809D01*
X38416666Y-27474809D02*
X38464285Y-27474809D01*
X38464285Y-27474809D02*
X38535713Y-27451000D01*
X38535713Y-27451000D02*
X38583332Y-27403380D01*
X38583332Y-27403380D02*
X38607142Y-27355761D01*
X38607142Y-27355761D02*
X38630951Y-27260523D01*
X38630951Y-27260523D02*
X38630951Y-27189095D01*
X38630951Y-27189095D02*
X38607142Y-27093857D01*
X38607142Y-27093857D02*
X38583332Y-27046238D01*
X38583332Y-27046238D02*
X38535713Y-26998619D01*
X38535713Y-26998619D02*
X38464285Y-26974809D01*
X38464285Y-26974809D02*
X38416666Y-26974809D01*
X38416666Y-26974809D02*
X38345237Y-26998619D01*
X38345237Y-26998619D02*
X38321428Y-27022428D01*
X37845237Y-27474809D02*
X38130951Y-27474809D01*
X37988094Y-27474809D02*
X37988094Y-26974809D01*
X37988094Y-26974809D02*
X38035713Y-27046238D01*
X38035713Y-27046238D02*
X38083332Y-27093857D01*
X38083332Y-27093857D02*
X38130951Y-27117666D01*
X37369047Y-27474809D02*
X37654761Y-27474809D01*
X37511904Y-27474809D02*
X37511904Y-26974809D01*
X37511904Y-26974809D02*
X37559523Y-27046238D01*
X37559523Y-27046238D02*
X37607142Y-27093857D01*
X37607142Y-27093857D02*
X37654761Y-27117666D01*
X26203333Y-64264809D02*
X26441428Y-64264809D01*
X26441428Y-64264809D02*
X26441428Y-63764809D01*
X25774761Y-64264809D02*
X26060475Y-64264809D01*
X25917618Y-64264809D02*
X25917618Y-63764809D01*
X25917618Y-63764809D02*
X25965237Y-63836238D01*
X25965237Y-63836238D02*
X26012856Y-63883857D01*
X26012856Y-63883857D02*
X26060475Y-63907666D01*
D11*
X42352143Y-14589164D02*
X41923572Y-14589164D01*
X42137857Y-15339164D02*
X42137857Y-14589164D01*
X41673571Y-15339164D02*
X41673571Y-14589164D01*
X41673571Y-14589164D02*
X41387857Y-14589164D01*
X41387857Y-14589164D02*
X41316428Y-14624878D01*
X41316428Y-14624878D02*
X41280714Y-14660592D01*
X41280714Y-14660592D02*
X41245000Y-14732021D01*
X41245000Y-14732021D02*
X41245000Y-14839164D01*
X41245000Y-14839164D02*
X41280714Y-14910592D01*
X41280714Y-14910592D02*
X41316428Y-14946307D01*
X41316428Y-14946307D02*
X41387857Y-14982021D01*
X41387857Y-14982021D02*
X41673571Y-14982021D01*
X40602143Y-14839164D02*
X40602143Y-15339164D01*
X40780714Y-14553450D02*
X40959285Y-15089164D01*
X40959285Y-15089164D02*
X40495000Y-15089164D01*
X40209285Y-15267735D02*
X40173571Y-15303450D01*
X40173571Y-15303450D02*
X40209285Y-15339164D01*
X40209285Y-15339164D02*
X40244999Y-15303450D01*
X40244999Y-15303450D02*
X40209285Y-15267735D01*
X40209285Y-15267735D02*
X40209285Y-15339164D01*
X40209285Y-14874878D02*
X40173571Y-14910592D01*
X40173571Y-14910592D02*
X40209285Y-14946307D01*
X40209285Y-14946307D02*
X40244999Y-14910592D01*
X40244999Y-14910592D02*
X40209285Y-14874878D01*
X40209285Y-14874878D02*
X40209285Y-14946307D01*
X39494999Y-14589164D02*
X39852142Y-14589164D01*
X39852142Y-14589164D02*
X39887856Y-14946307D01*
X39887856Y-14946307D02*
X39852142Y-14910592D01*
X39852142Y-14910592D02*
X39780714Y-14874878D01*
X39780714Y-14874878D02*
X39602142Y-14874878D01*
X39602142Y-14874878D02*
X39530714Y-14910592D01*
X39530714Y-14910592D02*
X39494999Y-14946307D01*
X39494999Y-14946307D02*
X39459285Y-15017735D01*
X39459285Y-15017735D02*
X39459285Y-15196307D01*
X39459285Y-15196307D02*
X39494999Y-15267735D01*
X39494999Y-15267735D02*
X39530714Y-15303450D01*
X39530714Y-15303450D02*
X39602142Y-15339164D01*
X39602142Y-15339164D02*
X39780714Y-15339164D01*
X39780714Y-15339164D02*
X39852142Y-15303450D01*
X39852142Y-15303450D02*
X39887856Y-15267735D01*
D13*
X40333333Y-38224809D02*
X40499999Y-37986714D01*
X40619047Y-38224809D02*
X40619047Y-37724809D01*
X40619047Y-37724809D02*
X40428571Y-37724809D01*
X40428571Y-37724809D02*
X40380952Y-37748619D01*
X40380952Y-37748619D02*
X40357142Y-37772428D01*
X40357142Y-37772428D02*
X40333333Y-37820047D01*
X40333333Y-37820047D02*
X40333333Y-37891476D01*
X40333333Y-37891476D02*
X40357142Y-37939095D01*
X40357142Y-37939095D02*
X40380952Y-37962904D01*
X40380952Y-37962904D02*
X40428571Y-37986714D01*
X40428571Y-37986714D02*
X40619047Y-37986714D01*
X39904761Y-37891476D02*
X39904761Y-38224809D01*
X40023809Y-37701000D02*
X40142856Y-38058142D01*
X40142856Y-38058142D02*
X39833333Y-38058142D01*
X28365237Y-64002904D02*
X28198570Y-64002904D01*
X28127142Y-64264809D02*
X28365237Y-64264809D01*
X28365237Y-64264809D02*
X28365237Y-63764809D01*
X28365237Y-63764809D02*
X28127142Y-63764809D01*
X27650951Y-64264809D02*
X27936665Y-64264809D01*
X27793808Y-64264809D02*
X27793808Y-63764809D01*
X27793808Y-63764809D02*
X27841427Y-63836238D01*
X27841427Y-63836238D02*
X27889046Y-63883857D01*
X27889046Y-63883857D02*
X27936665Y-63907666D01*
X35683452Y-50377309D02*
X35683452Y-50782071D01*
X35683452Y-50782071D02*
X35659642Y-50829690D01*
X35659642Y-50829690D02*
X35635833Y-50853500D01*
X35635833Y-50853500D02*
X35588214Y-50877309D01*
X35588214Y-50877309D02*
X35492976Y-50877309D01*
X35492976Y-50877309D02*
X35445357Y-50853500D01*
X35445357Y-50853500D02*
X35421547Y-50829690D01*
X35421547Y-50829690D02*
X35397738Y-50782071D01*
X35397738Y-50782071D02*
X35397738Y-50377309D01*
X35207261Y-50377309D02*
X34873928Y-50377309D01*
X34873928Y-50377309D02*
X35088213Y-50877309D01*
X50321428Y-51927190D02*
X50345237Y-51951000D01*
X50345237Y-51951000D02*
X50416666Y-51974809D01*
X50416666Y-51974809D02*
X50464285Y-51974809D01*
X50464285Y-51974809D02*
X50535713Y-51951000D01*
X50535713Y-51951000D02*
X50583332Y-51903380D01*
X50583332Y-51903380D02*
X50607142Y-51855761D01*
X50607142Y-51855761D02*
X50630951Y-51760523D01*
X50630951Y-51760523D02*
X50630951Y-51689095D01*
X50630951Y-51689095D02*
X50607142Y-51593857D01*
X50607142Y-51593857D02*
X50583332Y-51546238D01*
X50583332Y-51546238D02*
X50535713Y-51498619D01*
X50535713Y-51498619D02*
X50464285Y-51474809D01*
X50464285Y-51474809D02*
X50416666Y-51474809D01*
X50416666Y-51474809D02*
X50345237Y-51498619D01*
X50345237Y-51498619D02*
X50321428Y-51522428D01*
X49845237Y-51974809D02*
X50130951Y-51974809D01*
X49988094Y-51974809D02*
X49988094Y-51474809D01*
X49988094Y-51474809D02*
X50035713Y-51546238D01*
X50035713Y-51546238D02*
X50083332Y-51593857D01*
X50083332Y-51593857D02*
X50130951Y-51617666D01*
X49416666Y-51474809D02*
X49511904Y-51474809D01*
X49511904Y-51474809D02*
X49559523Y-51498619D01*
X49559523Y-51498619D02*
X49583333Y-51522428D01*
X49583333Y-51522428D02*
X49630952Y-51593857D01*
X49630952Y-51593857D02*
X49654761Y-51689095D01*
X49654761Y-51689095D02*
X49654761Y-51879571D01*
X49654761Y-51879571D02*
X49630952Y-51927190D01*
X49630952Y-51927190D02*
X49607142Y-51951000D01*
X49607142Y-51951000D02*
X49559523Y-51974809D01*
X49559523Y-51974809D02*
X49464285Y-51974809D01*
X49464285Y-51974809D02*
X49416666Y-51951000D01*
X49416666Y-51951000D02*
X49392857Y-51927190D01*
X49392857Y-51927190D02*
X49369047Y-51879571D01*
X49369047Y-51879571D02*
X49369047Y-51760523D01*
X49369047Y-51760523D02*
X49392857Y-51712904D01*
X49392857Y-51712904D02*
X49416666Y-51689095D01*
X49416666Y-51689095D02*
X49464285Y-51665285D01*
X49464285Y-51665285D02*
X49559523Y-51665285D01*
X49559523Y-51665285D02*
X49607142Y-51689095D01*
X49607142Y-51689095D02*
X49630952Y-51712904D01*
X49630952Y-51712904D02*
X49654761Y-51760523D01*
X29391428Y-17564809D02*
X29558094Y-17326714D01*
X29677142Y-17564809D02*
X29677142Y-17064809D01*
X29677142Y-17064809D02*
X29486666Y-17064809D01*
X29486666Y-17064809D02*
X29439047Y-17088619D01*
X29439047Y-17088619D02*
X29415237Y-17112428D01*
X29415237Y-17112428D02*
X29391428Y-17160047D01*
X29391428Y-17160047D02*
X29391428Y-17231476D01*
X29391428Y-17231476D02*
X29415237Y-17279095D01*
X29415237Y-17279095D02*
X29439047Y-17302904D01*
X29439047Y-17302904D02*
X29486666Y-17326714D01*
X29486666Y-17326714D02*
X29677142Y-17326714D01*
X28915237Y-17564809D02*
X29200951Y-17564809D01*
X29058094Y-17564809D02*
X29058094Y-17064809D01*
X29058094Y-17064809D02*
X29105713Y-17136238D01*
X29105713Y-17136238D02*
X29153332Y-17183857D01*
X29153332Y-17183857D02*
X29200951Y-17207666D01*
X28486666Y-17231476D02*
X28486666Y-17564809D01*
X28605714Y-17041000D02*
X28724761Y-17398142D01*
X28724761Y-17398142D02*
X28415238Y-17398142D01*
X41630952Y-47474809D02*
X41630952Y-47879571D01*
X41630952Y-47879571D02*
X41607142Y-47927190D01*
X41607142Y-47927190D02*
X41583333Y-47951000D01*
X41583333Y-47951000D02*
X41535714Y-47974809D01*
X41535714Y-47974809D02*
X41440476Y-47974809D01*
X41440476Y-47974809D02*
X41392857Y-47951000D01*
X41392857Y-47951000D02*
X41369047Y-47927190D01*
X41369047Y-47927190D02*
X41345238Y-47879571D01*
X41345238Y-47879571D02*
X41345238Y-47474809D01*
X40892856Y-47474809D02*
X40988094Y-47474809D01*
X40988094Y-47474809D02*
X41035713Y-47498619D01*
X41035713Y-47498619D02*
X41059523Y-47522428D01*
X41059523Y-47522428D02*
X41107142Y-47593857D01*
X41107142Y-47593857D02*
X41130951Y-47689095D01*
X41130951Y-47689095D02*
X41130951Y-47879571D01*
X41130951Y-47879571D02*
X41107142Y-47927190D01*
X41107142Y-47927190D02*
X41083332Y-47951000D01*
X41083332Y-47951000D02*
X41035713Y-47974809D01*
X41035713Y-47974809D02*
X40940475Y-47974809D01*
X40940475Y-47974809D02*
X40892856Y-47951000D01*
X40892856Y-47951000D02*
X40869047Y-47927190D01*
X40869047Y-47927190D02*
X40845237Y-47879571D01*
X40845237Y-47879571D02*
X40845237Y-47760523D01*
X40845237Y-47760523D02*
X40869047Y-47712904D01*
X40869047Y-47712904D02*
X40892856Y-47689095D01*
X40892856Y-47689095D02*
X40940475Y-47665285D01*
X40940475Y-47665285D02*
X41035713Y-47665285D01*
X41035713Y-47665285D02*
X41083332Y-47689095D01*
X41083332Y-47689095D02*
X41107142Y-47712904D01*
X41107142Y-47712904D02*
X41130951Y-47760523D01*
X33440833Y-57389690D02*
X33464642Y-57413500D01*
X33464642Y-57413500D02*
X33536071Y-57437309D01*
X33536071Y-57437309D02*
X33583690Y-57437309D01*
X33583690Y-57437309D02*
X33655118Y-57413500D01*
X33655118Y-57413500D02*
X33702737Y-57365880D01*
X33702737Y-57365880D02*
X33726547Y-57318261D01*
X33726547Y-57318261D02*
X33750356Y-57223023D01*
X33750356Y-57223023D02*
X33750356Y-57151595D01*
X33750356Y-57151595D02*
X33726547Y-57056357D01*
X33726547Y-57056357D02*
X33702737Y-57008738D01*
X33702737Y-57008738D02*
X33655118Y-56961119D01*
X33655118Y-56961119D02*
X33583690Y-56937309D01*
X33583690Y-56937309D02*
X33536071Y-56937309D01*
X33536071Y-56937309D02*
X33464642Y-56961119D01*
X33464642Y-56961119D02*
X33440833Y-56984928D01*
X33012261Y-56937309D02*
X33107499Y-56937309D01*
X33107499Y-56937309D02*
X33155118Y-56961119D01*
X33155118Y-56961119D02*
X33178928Y-56984928D01*
X33178928Y-56984928D02*
X33226547Y-57056357D01*
X33226547Y-57056357D02*
X33250356Y-57151595D01*
X33250356Y-57151595D02*
X33250356Y-57342071D01*
X33250356Y-57342071D02*
X33226547Y-57389690D01*
X33226547Y-57389690D02*
X33202737Y-57413500D01*
X33202737Y-57413500D02*
X33155118Y-57437309D01*
X33155118Y-57437309D02*
X33059880Y-57437309D01*
X33059880Y-57437309D02*
X33012261Y-57413500D01*
X33012261Y-57413500D02*
X32988452Y-57389690D01*
X32988452Y-57389690D02*
X32964642Y-57342071D01*
X32964642Y-57342071D02*
X32964642Y-57223023D01*
X32964642Y-57223023D02*
X32988452Y-57175404D01*
X32988452Y-57175404D02*
X33012261Y-57151595D01*
X33012261Y-57151595D02*
X33059880Y-57127785D01*
X33059880Y-57127785D02*
X33155118Y-57127785D01*
X33155118Y-57127785D02*
X33202737Y-57151595D01*
X33202737Y-57151595D02*
X33226547Y-57175404D01*
X33226547Y-57175404D02*
X33250356Y-57223023D01*
X26703333Y-13562809D02*
X26941428Y-13562809D01*
X26941428Y-13562809D02*
X26941428Y-13062809D01*
X26584285Y-13062809D02*
X26274761Y-13062809D01*
X26274761Y-13062809D02*
X26441428Y-13253285D01*
X26441428Y-13253285D02*
X26369999Y-13253285D01*
X26369999Y-13253285D02*
X26322380Y-13277095D01*
X26322380Y-13277095D02*
X26298571Y-13300904D01*
X26298571Y-13300904D02*
X26274761Y-13348523D01*
X26274761Y-13348523D02*
X26274761Y-13467571D01*
X26274761Y-13467571D02*
X26298571Y-13515190D01*
X26298571Y-13515190D02*
X26322380Y-13539000D01*
X26322380Y-13539000D02*
X26369999Y-13562809D01*
X26369999Y-13562809D02*
X26512856Y-13562809D01*
X26512856Y-13562809D02*
X26560475Y-13539000D01*
X26560475Y-13539000D02*
X26584285Y-13515190D01*
X52321428Y-15224809D02*
X52488094Y-14986714D01*
X52607142Y-15224809D02*
X52607142Y-14724809D01*
X52607142Y-14724809D02*
X52416666Y-14724809D01*
X52416666Y-14724809D02*
X52369047Y-14748619D01*
X52369047Y-14748619D02*
X52345237Y-14772428D01*
X52345237Y-14772428D02*
X52321428Y-14820047D01*
X52321428Y-14820047D02*
X52321428Y-14891476D01*
X52321428Y-14891476D02*
X52345237Y-14939095D01*
X52345237Y-14939095D02*
X52369047Y-14962904D01*
X52369047Y-14962904D02*
X52416666Y-14986714D01*
X52416666Y-14986714D02*
X52607142Y-14986714D01*
X51845237Y-15224809D02*
X52130951Y-15224809D01*
X51988094Y-15224809D02*
X51988094Y-14724809D01*
X51988094Y-14724809D02*
X52035713Y-14796238D01*
X52035713Y-14796238D02*
X52083332Y-14843857D01*
X52083332Y-14843857D02*
X52130951Y-14867666D01*
X51678571Y-14724809D02*
X51369047Y-14724809D01*
X51369047Y-14724809D02*
X51535714Y-14915285D01*
X51535714Y-14915285D02*
X51464285Y-14915285D01*
X51464285Y-14915285D02*
X51416666Y-14939095D01*
X51416666Y-14939095D02*
X51392857Y-14962904D01*
X51392857Y-14962904D02*
X51369047Y-15010523D01*
X51369047Y-15010523D02*
X51369047Y-15129571D01*
X51369047Y-15129571D02*
X51392857Y-15177190D01*
X51392857Y-15177190D02*
X51416666Y-15201000D01*
X51416666Y-15201000D02*
X51464285Y-15224809D01*
X51464285Y-15224809D02*
X51607142Y-15224809D01*
X51607142Y-15224809D02*
X51654761Y-15201000D01*
X51654761Y-15201000D02*
X51678571Y-15177190D01*
D11*
X49102143Y-17277164D02*
X48673572Y-17277164D01*
X48887857Y-18027164D02*
X48887857Y-17277164D01*
X48423571Y-18027164D02*
X48423571Y-17277164D01*
X48423571Y-17277164D02*
X48137857Y-17277164D01*
X48137857Y-17277164D02*
X48066428Y-17312878D01*
X48066428Y-17312878D02*
X48030714Y-17348592D01*
X48030714Y-17348592D02*
X47995000Y-17420021D01*
X47995000Y-17420021D02*
X47995000Y-17527164D01*
X47995000Y-17527164D02*
X48030714Y-17598592D01*
X48030714Y-17598592D02*
X48066428Y-17634307D01*
X48066428Y-17634307D02*
X48137857Y-17670021D01*
X48137857Y-17670021D02*
X48423571Y-17670021D01*
X47352143Y-17527164D02*
X47352143Y-18027164D01*
X47530714Y-17241450D02*
X47709285Y-17777164D01*
X47709285Y-17777164D02*
X47245000Y-17777164D01*
X46959285Y-17955735D02*
X46923571Y-17991450D01*
X46923571Y-17991450D02*
X46959285Y-18027164D01*
X46959285Y-18027164D02*
X46994999Y-17991450D01*
X46994999Y-17991450D02*
X46959285Y-17955735D01*
X46959285Y-17955735D02*
X46959285Y-18027164D01*
X46959285Y-17562878D02*
X46923571Y-17598592D01*
X46923571Y-17598592D02*
X46959285Y-17634307D01*
X46959285Y-17634307D02*
X46994999Y-17598592D01*
X46994999Y-17598592D02*
X46959285Y-17562878D01*
X46959285Y-17562878D02*
X46959285Y-17634307D01*
X46637856Y-17348592D02*
X46602142Y-17312878D01*
X46602142Y-17312878D02*
X46530714Y-17277164D01*
X46530714Y-17277164D02*
X46352142Y-17277164D01*
X46352142Y-17277164D02*
X46280714Y-17312878D01*
X46280714Y-17312878D02*
X46244999Y-17348592D01*
X46244999Y-17348592D02*
X46209285Y-17420021D01*
X46209285Y-17420021D02*
X46209285Y-17491450D01*
X46209285Y-17491450D02*
X46244999Y-17598592D01*
X46244999Y-17598592D02*
X46673571Y-18027164D01*
X46673571Y-18027164D02*
X46209285Y-18027164D01*
D13*
X18821428Y-36927190D02*
X18845237Y-36951000D01*
X18845237Y-36951000D02*
X18916666Y-36974809D01*
X18916666Y-36974809D02*
X18964285Y-36974809D01*
X18964285Y-36974809D02*
X19035713Y-36951000D01*
X19035713Y-36951000D02*
X19083332Y-36903380D01*
X19083332Y-36903380D02*
X19107142Y-36855761D01*
X19107142Y-36855761D02*
X19130951Y-36760523D01*
X19130951Y-36760523D02*
X19130951Y-36689095D01*
X19130951Y-36689095D02*
X19107142Y-36593857D01*
X19107142Y-36593857D02*
X19083332Y-36546238D01*
X19083332Y-36546238D02*
X19035713Y-36498619D01*
X19035713Y-36498619D02*
X18964285Y-36474809D01*
X18964285Y-36474809D02*
X18916666Y-36474809D01*
X18916666Y-36474809D02*
X18845237Y-36498619D01*
X18845237Y-36498619D02*
X18821428Y-36522428D01*
X18345237Y-36974809D02*
X18630951Y-36974809D01*
X18488094Y-36974809D02*
X18488094Y-36474809D01*
X18488094Y-36474809D02*
X18535713Y-36546238D01*
X18535713Y-36546238D02*
X18583332Y-36593857D01*
X18583332Y-36593857D02*
X18630951Y-36617666D01*
X18059523Y-36689095D02*
X18107142Y-36665285D01*
X18107142Y-36665285D02*
X18130952Y-36641476D01*
X18130952Y-36641476D02*
X18154761Y-36593857D01*
X18154761Y-36593857D02*
X18154761Y-36570047D01*
X18154761Y-36570047D02*
X18130952Y-36522428D01*
X18130952Y-36522428D02*
X18107142Y-36498619D01*
X18107142Y-36498619D02*
X18059523Y-36474809D01*
X18059523Y-36474809D02*
X17964285Y-36474809D01*
X17964285Y-36474809D02*
X17916666Y-36498619D01*
X17916666Y-36498619D02*
X17892857Y-36522428D01*
X17892857Y-36522428D02*
X17869047Y-36570047D01*
X17869047Y-36570047D02*
X17869047Y-36593857D01*
X17869047Y-36593857D02*
X17892857Y-36641476D01*
X17892857Y-36641476D02*
X17916666Y-36665285D01*
X17916666Y-36665285D02*
X17964285Y-36689095D01*
X17964285Y-36689095D02*
X18059523Y-36689095D01*
X18059523Y-36689095D02*
X18107142Y-36712904D01*
X18107142Y-36712904D02*
X18130952Y-36736714D01*
X18130952Y-36736714D02*
X18154761Y-36784333D01*
X18154761Y-36784333D02*
X18154761Y-36879571D01*
X18154761Y-36879571D02*
X18130952Y-36927190D01*
X18130952Y-36927190D02*
X18107142Y-36951000D01*
X18107142Y-36951000D02*
X18059523Y-36974809D01*
X18059523Y-36974809D02*
X17964285Y-36974809D01*
X17964285Y-36974809D02*
X17916666Y-36951000D01*
X17916666Y-36951000D02*
X17892857Y-36927190D01*
X17892857Y-36927190D02*
X17869047Y-36879571D01*
X17869047Y-36879571D02*
X17869047Y-36784333D01*
X17869047Y-36784333D02*
X17892857Y-36736714D01*
X17892857Y-36736714D02*
X17916666Y-36712904D01*
X17916666Y-36712904D02*
X17964285Y-36689095D01*
D11*
X30852143Y-62027164D02*
X30423572Y-62027164D01*
X30637857Y-62777164D02*
X30637857Y-62027164D01*
X30173571Y-62777164D02*
X30173571Y-62027164D01*
X30173571Y-62027164D02*
X29887857Y-62027164D01*
X29887857Y-62027164D02*
X29816428Y-62062878D01*
X29816428Y-62062878D02*
X29780714Y-62098592D01*
X29780714Y-62098592D02*
X29745000Y-62170021D01*
X29745000Y-62170021D02*
X29745000Y-62277164D01*
X29745000Y-62277164D02*
X29780714Y-62348592D01*
X29780714Y-62348592D02*
X29816428Y-62384307D01*
X29816428Y-62384307D02*
X29887857Y-62420021D01*
X29887857Y-62420021D02*
X30173571Y-62420021D01*
X29030714Y-62777164D02*
X29459285Y-62777164D01*
X29245000Y-62777164D02*
X29245000Y-62027164D01*
X29245000Y-62027164D02*
X29316428Y-62134307D01*
X29316428Y-62134307D02*
X29387857Y-62205735D01*
X29387857Y-62205735D02*
X29459285Y-62241450D01*
X28709285Y-62705735D02*
X28673571Y-62741450D01*
X28673571Y-62741450D02*
X28709285Y-62777164D01*
X28709285Y-62777164D02*
X28744999Y-62741450D01*
X28744999Y-62741450D02*
X28709285Y-62705735D01*
X28709285Y-62705735D02*
X28709285Y-62777164D01*
X28709285Y-62312878D02*
X28673571Y-62348592D01*
X28673571Y-62348592D02*
X28709285Y-62384307D01*
X28709285Y-62384307D02*
X28744999Y-62348592D01*
X28744999Y-62348592D02*
X28709285Y-62312878D01*
X28709285Y-62312878D02*
X28709285Y-62384307D01*
X28244999Y-62348592D02*
X28316428Y-62312878D01*
X28316428Y-62312878D02*
X28352142Y-62277164D01*
X28352142Y-62277164D02*
X28387856Y-62205735D01*
X28387856Y-62205735D02*
X28387856Y-62170021D01*
X28387856Y-62170021D02*
X28352142Y-62098592D01*
X28352142Y-62098592D02*
X28316428Y-62062878D01*
X28316428Y-62062878D02*
X28244999Y-62027164D01*
X28244999Y-62027164D02*
X28102142Y-62027164D01*
X28102142Y-62027164D02*
X28030714Y-62062878D01*
X28030714Y-62062878D02*
X27994999Y-62098592D01*
X27994999Y-62098592D02*
X27959285Y-62170021D01*
X27959285Y-62170021D02*
X27959285Y-62205735D01*
X27959285Y-62205735D02*
X27994999Y-62277164D01*
X27994999Y-62277164D02*
X28030714Y-62312878D01*
X28030714Y-62312878D02*
X28102142Y-62348592D01*
X28102142Y-62348592D02*
X28244999Y-62348592D01*
X28244999Y-62348592D02*
X28316428Y-62384307D01*
X28316428Y-62384307D02*
X28352142Y-62420021D01*
X28352142Y-62420021D02*
X28387856Y-62491450D01*
X28387856Y-62491450D02*
X28387856Y-62634307D01*
X28387856Y-62634307D02*
X28352142Y-62705735D01*
X28352142Y-62705735D02*
X28316428Y-62741450D01*
X28316428Y-62741450D02*
X28244999Y-62777164D01*
X28244999Y-62777164D02*
X28102142Y-62777164D01*
X28102142Y-62777164D02*
X28030714Y-62741450D01*
X28030714Y-62741450D02*
X27994999Y-62705735D01*
X27994999Y-62705735D02*
X27959285Y-62634307D01*
X27959285Y-62634307D02*
X27959285Y-62491450D01*
X27959285Y-62491450D02*
X27994999Y-62420021D01*
X27994999Y-62420021D02*
X28030714Y-62384307D01*
X28030714Y-62384307D02*
X28102142Y-62348592D01*
X25082143Y-14239164D02*
X24653572Y-14239164D01*
X24867857Y-14989164D02*
X24867857Y-14239164D01*
X24403571Y-14989164D02*
X24403571Y-14239164D01*
X24403571Y-14239164D02*
X24117857Y-14239164D01*
X24117857Y-14239164D02*
X24046428Y-14274878D01*
X24046428Y-14274878D02*
X24010714Y-14310592D01*
X24010714Y-14310592D02*
X23975000Y-14382021D01*
X23975000Y-14382021D02*
X23975000Y-14489164D01*
X23975000Y-14489164D02*
X24010714Y-14560592D01*
X24010714Y-14560592D02*
X24046428Y-14596307D01*
X24046428Y-14596307D02*
X24117857Y-14632021D01*
X24117857Y-14632021D02*
X24403571Y-14632021D01*
X23725000Y-14239164D02*
X23260714Y-14239164D01*
X23260714Y-14239164D02*
X23510714Y-14524878D01*
X23510714Y-14524878D02*
X23403571Y-14524878D01*
X23403571Y-14524878D02*
X23332143Y-14560592D01*
X23332143Y-14560592D02*
X23296428Y-14596307D01*
X23296428Y-14596307D02*
X23260714Y-14667735D01*
X23260714Y-14667735D02*
X23260714Y-14846307D01*
X23260714Y-14846307D02*
X23296428Y-14917735D01*
X23296428Y-14917735D02*
X23332143Y-14953450D01*
X23332143Y-14953450D02*
X23403571Y-14989164D01*
X23403571Y-14989164D02*
X23617857Y-14989164D01*
X23617857Y-14989164D02*
X23689285Y-14953450D01*
X23689285Y-14953450D02*
X23725000Y-14917735D01*
X22939285Y-14917735D02*
X22903571Y-14953450D01*
X22903571Y-14953450D02*
X22939285Y-14989164D01*
X22939285Y-14989164D02*
X22974999Y-14953450D01*
X22974999Y-14953450D02*
X22939285Y-14917735D01*
X22939285Y-14917735D02*
X22939285Y-14989164D01*
X22939285Y-14524878D02*
X22903571Y-14560592D01*
X22903571Y-14560592D02*
X22939285Y-14596307D01*
X22939285Y-14596307D02*
X22974999Y-14560592D01*
X22974999Y-14560592D02*
X22939285Y-14524878D01*
X22939285Y-14524878D02*
X22939285Y-14596307D01*
X22653571Y-14239164D02*
X22189285Y-14239164D01*
X22189285Y-14239164D02*
X22439285Y-14524878D01*
X22439285Y-14524878D02*
X22332142Y-14524878D01*
X22332142Y-14524878D02*
X22260714Y-14560592D01*
X22260714Y-14560592D02*
X22224999Y-14596307D01*
X22224999Y-14596307D02*
X22189285Y-14667735D01*
X22189285Y-14667735D02*
X22189285Y-14846307D01*
X22189285Y-14846307D02*
X22224999Y-14917735D01*
X22224999Y-14917735D02*
X22260714Y-14953450D01*
X22260714Y-14953450D02*
X22332142Y-14989164D01*
X22332142Y-14989164D02*
X22546428Y-14989164D01*
X22546428Y-14989164D02*
X22617856Y-14953450D01*
X22617856Y-14953450D02*
X22653571Y-14917735D01*
D13*
X17341428Y-10834809D02*
X17508094Y-10596714D01*
X17627142Y-10834809D02*
X17627142Y-10334809D01*
X17627142Y-10334809D02*
X17436666Y-10334809D01*
X17436666Y-10334809D02*
X17389047Y-10358619D01*
X17389047Y-10358619D02*
X17365237Y-10382428D01*
X17365237Y-10382428D02*
X17341428Y-10430047D01*
X17341428Y-10430047D02*
X17341428Y-10501476D01*
X17341428Y-10501476D02*
X17365237Y-10549095D01*
X17365237Y-10549095D02*
X17389047Y-10572904D01*
X17389047Y-10572904D02*
X17436666Y-10596714D01*
X17436666Y-10596714D02*
X17627142Y-10596714D01*
X16865237Y-10834809D02*
X17150951Y-10834809D01*
X17008094Y-10834809D02*
X17008094Y-10334809D01*
X17008094Y-10334809D02*
X17055713Y-10406238D01*
X17055713Y-10406238D02*
X17103332Y-10453857D01*
X17103332Y-10453857D02*
X17150951Y-10477666D01*
X16555714Y-10334809D02*
X16508095Y-10334809D01*
X16508095Y-10334809D02*
X16460476Y-10358619D01*
X16460476Y-10358619D02*
X16436666Y-10382428D01*
X16436666Y-10382428D02*
X16412857Y-10430047D01*
X16412857Y-10430047D02*
X16389047Y-10525285D01*
X16389047Y-10525285D02*
X16389047Y-10644333D01*
X16389047Y-10644333D02*
X16412857Y-10739571D01*
X16412857Y-10739571D02*
X16436666Y-10787190D01*
X16436666Y-10787190D02*
X16460476Y-10811000D01*
X16460476Y-10811000D02*
X16508095Y-10834809D01*
X16508095Y-10834809D02*
X16555714Y-10834809D01*
X16555714Y-10834809D02*
X16603333Y-10811000D01*
X16603333Y-10811000D02*
X16627142Y-10787190D01*
X16627142Y-10787190D02*
X16650952Y-10739571D01*
X16650952Y-10739571D02*
X16674761Y-10644333D01*
X16674761Y-10644333D02*
X16674761Y-10525285D01*
X16674761Y-10525285D02*
X16650952Y-10430047D01*
X16650952Y-10430047D02*
X16627142Y-10382428D01*
X16627142Y-10382428D02*
X16603333Y-10358619D01*
X16603333Y-10358619D02*
X16555714Y-10334809D01*
D11*
X26352143Y-62027164D02*
X25923572Y-62027164D01*
X26137857Y-62777164D02*
X26137857Y-62027164D01*
X25673571Y-62777164D02*
X25673571Y-62027164D01*
X25673571Y-62027164D02*
X25387857Y-62027164D01*
X25387857Y-62027164D02*
X25316428Y-62062878D01*
X25316428Y-62062878D02*
X25280714Y-62098592D01*
X25280714Y-62098592D02*
X25245000Y-62170021D01*
X25245000Y-62170021D02*
X25245000Y-62277164D01*
X25245000Y-62277164D02*
X25280714Y-62348592D01*
X25280714Y-62348592D02*
X25316428Y-62384307D01*
X25316428Y-62384307D02*
X25387857Y-62420021D01*
X25387857Y-62420021D02*
X25673571Y-62420021D01*
X24530714Y-62777164D02*
X24959285Y-62777164D01*
X24745000Y-62777164D02*
X24745000Y-62027164D01*
X24745000Y-62027164D02*
X24816428Y-62134307D01*
X24816428Y-62134307D02*
X24887857Y-62205735D01*
X24887857Y-62205735D02*
X24959285Y-62241450D01*
X24209285Y-62705735D02*
X24173571Y-62741450D01*
X24173571Y-62741450D02*
X24209285Y-62777164D01*
X24209285Y-62777164D02*
X24244999Y-62741450D01*
X24244999Y-62741450D02*
X24209285Y-62705735D01*
X24209285Y-62705735D02*
X24209285Y-62777164D01*
X24209285Y-62312878D02*
X24173571Y-62348592D01*
X24173571Y-62348592D02*
X24209285Y-62384307D01*
X24209285Y-62384307D02*
X24244999Y-62348592D01*
X24244999Y-62348592D02*
X24209285Y-62312878D01*
X24209285Y-62312878D02*
X24209285Y-62384307D01*
X23530714Y-62027164D02*
X23673571Y-62027164D01*
X23673571Y-62027164D02*
X23744999Y-62062878D01*
X23744999Y-62062878D02*
X23780714Y-62098592D01*
X23780714Y-62098592D02*
X23852142Y-62205735D01*
X23852142Y-62205735D02*
X23887856Y-62348592D01*
X23887856Y-62348592D02*
X23887856Y-62634307D01*
X23887856Y-62634307D02*
X23852142Y-62705735D01*
X23852142Y-62705735D02*
X23816428Y-62741450D01*
X23816428Y-62741450D02*
X23744999Y-62777164D01*
X23744999Y-62777164D02*
X23602142Y-62777164D01*
X23602142Y-62777164D02*
X23530714Y-62741450D01*
X23530714Y-62741450D02*
X23494999Y-62705735D01*
X23494999Y-62705735D02*
X23459285Y-62634307D01*
X23459285Y-62634307D02*
X23459285Y-62455735D01*
X23459285Y-62455735D02*
X23494999Y-62384307D01*
X23494999Y-62384307D02*
X23530714Y-62348592D01*
X23530714Y-62348592D02*
X23602142Y-62312878D01*
X23602142Y-62312878D02*
X23744999Y-62312878D01*
X23744999Y-62312878D02*
X23816428Y-62348592D01*
X23816428Y-62348592D02*
X23852142Y-62384307D01*
X23852142Y-62384307D02*
X23887856Y-62455735D01*
D13*
X27553928Y-44927190D02*
X27577737Y-44951000D01*
X27577737Y-44951000D02*
X27649166Y-44974809D01*
X27649166Y-44974809D02*
X27696785Y-44974809D01*
X27696785Y-44974809D02*
X27768213Y-44951000D01*
X27768213Y-44951000D02*
X27815832Y-44903380D01*
X27815832Y-44903380D02*
X27839642Y-44855761D01*
X27839642Y-44855761D02*
X27863451Y-44760523D01*
X27863451Y-44760523D02*
X27863451Y-44689095D01*
X27863451Y-44689095D02*
X27839642Y-44593857D01*
X27839642Y-44593857D02*
X27815832Y-44546238D01*
X27815832Y-44546238D02*
X27768213Y-44498619D01*
X27768213Y-44498619D02*
X27696785Y-44474809D01*
X27696785Y-44474809D02*
X27649166Y-44474809D01*
X27649166Y-44474809D02*
X27577737Y-44498619D01*
X27577737Y-44498619D02*
X27553928Y-44522428D01*
X27077737Y-44974809D02*
X27363451Y-44974809D01*
X27220594Y-44974809D02*
X27220594Y-44474809D01*
X27220594Y-44474809D02*
X27268213Y-44546238D01*
X27268213Y-44546238D02*
X27315832Y-44593857D01*
X27315832Y-44593857D02*
X27363451Y-44617666D01*
X26649166Y-44641476D02*
X26649166Y-44974809D01*
X26768214Y-44451000D02*
X26887261Y-44808142D01*
X26887261Y-44808142D02*
X26577738Y-44808142D01*
X43341428Y-10924809D02*
X43508094Y-10686714D01*
X43627142Y-10924809D02*
X43627142Y-10424809D01*
X43627142Y-10424809D02*
X43436666Y-10424809D01*
X43436666Y-10424809D02*
X43389047Y-10448619D01*
X43389047Y-10448619D02*
X43365237Y-10472428D01*
X43365237Y-10472428D02*
X43341428Y-10520047D01*
X43341428Y-10520047D02*
X43341428Y-10591476D01*
X43341428Y-10591476D02*
X43365237Y-10639095D01*
X43365237Y-10639095D02*
X43389047Y-10662904D01*
X43389047Y-10662904D02*
X43436666Y-10686714D01*
X43436666Y-10686714D02*
X43627142Y-10686714D01*
X42865237Y-10924809D02*
X43150951Y-10924809D01*
X43008094Y-10924809D02*
X43008094Y-10424809D01*
X43008094Y-10424809D02*
X43055713Y-10496238D01*
X43055713Y-10496238D02*
X43103332Y-10543857D01*
X43103332Y-10543857D02*
X43150951Y-10567666D01*
X42674761Y-10472428D02*
X42650952Y-10448619D01*
X42650952Y-10448619D02*
X42603333Y-10424809D01*
X42603333Y-10424809D02*
X42484285Y-10424809D01*
X42484285Y-10424809D02*
X42436666Y-10448619D01*
X42436666Y-10448619D02*
X42412857Y-10472428D01*
X42412857Y-10472428D02*
X42389047Y-10520047D01*
X42389047Y-10520047D02*
X42389047Y-10567666D01*
X42389047Y-10567666D02*
X42412857Y-10639095D01*
X42412857Y-10639095D02*
X42698571Y-10924809D01*
X42698571Y-10924809D02*
X42389047Y-10924809D01*
X48953333Y-66264809D02*
X49119999Y-66026714D01*
X49239047Y-66264809D02*
X49239047Y-65764809D01*
X49239047Y-65764809D02*
X49048571Y-65764809D01*
X49048571Y-65764809D02*
X49000952Y-65788619D01*
X49000952Y-65788619D02*
X48977142Y-65812428D01*
X48977142Y-65812428D02*
X48953333Y-65860047D01*
X48953333Y-65860047D02*
X48953333Y-65931476D01*
X48953333Y-65931476D02*
X48977142Y-65979095D01*
X48977142Y-65979095D02*
X49000952Y-66002904D01*
X49000952Y-66002904D02*
X49048571Y-66026714D01*
X49048571Y-66026714D02*
X49239047Y-66026714D01*
X48667618Y-65979095D02*
X48715237Y-65955285D01*
X48715237Y-65955285D02*
X48739047Y-65931476D01*
X48739047Y-65931476D02*
X48762856Y-65883857D01*
X48762856Y-65883857D02*
X48762856Y-65860047D01*
X48762856Y-65860047D02*
X48739047Y-65812428D01*
X48739047Y-65812428D02*
X48715237Y-65788619D01*
X48715237Y-65788619D02*
X48667618Y-65764809D01*
X48667618Y-65764809D02*
X48572380Y-65764809D01*
X48572380Y-65764809D02*
X48524761Y-65788619D01*
X48524761Y-65788619D02*
X48500952Y-65812428D01*
X48500952Y-65812428D02*
X48477142Y-65860047D01*
X48477142Y-65860047D02*
X48477142Y-65883857D01*
X48477142Y-65883857D02*
X48500952Y-65931476D01*
X48500952Y-65931476D02*
X48524761Y-65955285D01*
X48524761Y-65955285D02*
X48572380Y-65979095D01*
X48572380Y-65979095D02*
X48667618Y-65979095D01*
X48667618Y-65979095D02*
X48715237Y-66002904D01*
X48715237Y-66002904D02*
X48739047Y-66026714D01*
X48739047Y-66026714D02*
X48762856Y-66074333D01*
X48762856Y-66074333D02*
X48762856Y-66169571D01*
X48762856Y-66169571D02*
X48739047Y-66217190D01*
X48739047Y-66217190D02*
X48715237Y-66241000D01*
X48715237Y-66241000D02*
X48667618Y-66264809D01*
X48667618Y-66264809D02*
X48572380Y-66264809D01*
X48572380Y-66264809D02*
X48524761Y-66241000D01*
X48524761Y-66241000D02*
X48500952Y-66217190D01*
X48500952Y-66217190D02*
X48477142Y-66169571D01*
X48477142Y-66169571D02*
X48477142Y-66074333D01*
X48477142Y-66074333D02*
X48500952Y-66026714D01*
X48500952Y-66026714D02*
X48524761Y-66002904D01*
X48524761Y-66002904D02*
X48572380Y-65979095D01*
X36353333Y-64264809D02*
X36591428Y-64264809D01*
X36591428Y-64264809D02*
X36591428Y-63764809D01*
X36210475Y-63812428D02*
X36186666Y-63788619D01*
X36186666Y-63788619D02*
X36139047Y-63764809D01*
X36139047Y-63764809D02*
X36019999Y-63764809D01*
X36019999Y-63764809D02*
X35972380Y-63788619D01*
X35972380Y-63788619D02*
X35948571Y-63812428D01*
X35948571Y-63812428D02*
X35924761Y-63860047D01*
X35924761Y-63860047D02*
X35924761Y-63907666D01*
X35924761Y-63907666D02*
X35948571Y-63979095D01*
X35948571Y-63979095D02*
X36234285Y-64264809D01*
X36234285Y-64264809D02*
X35924761Y-64264809D01*
X25065237Y-13300904D02*
X24898570Y-13300904D01*
X24827142Y-13562809D02*
X25065237Y-13562809D01*
X25065237Y-13562809D02*
X25065237Y-13062809D01*
X25065237Y-13062809D02*
X24827142Y-13062809D01*
X24660475Y-13062809D02*
X24350951Y-13062809D01*
X24350951Y-13062809D02*
X24517618Y-13253285D01*
X24517618Y-13253285D02*
X24446189Y-13253285D01*
X24446189Y-13253285D02*
X24398570Y-13277095D01*
X24398570Y-13277095D02*
X24374761Y-13300904D01*
X24374761Y-13300904D02*
X24350951Y-13348523D01*
X24350951Y-13348523D02*
X24350951Y-13467571D01*
X24350951Y-13467571D02*
X24374761Y-13515190D01*
X24374761Y-13515190D02*
X24398570Y-13539000D01*
X24398570Y-13539000D02*
X24446189Y-13562809D01*
X24446189Y-13562809D02*
X24589046Y-13562809D01*
X24589046Y-13562809D02*
X24636665Y-13539000D01*
X24636665Y-13539000D02*
X24660475Y-13515190D01*
X37865237Y-13300904D02*
X37698570Y-13300904D01*
X37627142Y-13562809D02*
X37865237Y-13562809D01*
X37865237Y-13562809D02*
X37865237Y-13062809D01*
X37865237Y-13062809D02*
X37627142Y-13062809D01*
X37198570Y-13229476D02*
X37198570Y-13562809D01*
X37317618Y-13039000D02*
X37436665Y-13396142D01*
X37436665Y-13396142D02*
X37127142Y-13396142D01*
D11*
X22852143Y-17027164D02*
X22423572Y-17027164D01*
X22637857Y-17777164D02*
X22637857Y-17027164D01*
X22173571Y-17777164D02*
X22173571Y-17027164D01*
X22173571Y-17027164D02*
X21887857Y-17027164D01*
X21887857Y-17027164D02*
X21816428Y-17062878D01*
X21816428Y-17062878D02*
X21780714Y-17098592D01*
X21780714Y-17098592D02*
X21745000Y-17170021D01*
X21745000Y-17170021D02*
X21745000Y-17277164D01*
X21745000Y-17277164D02*
X21780714Y-17348592D01*
X21780714Y-17348592D02*
X21816428Y-17384307D01*
X21816428Y-17384307D02*
X21887857Y-17420021D01*
X21887857Y-17420021D02*
X22173571Y-17420021D01*
X21495000Y-17027164D02*
X21030714Y-17027164D01*
X21030714Y-17027164D02*
X21280714Y-17312878D01*
X21280714Y-17312878D02*
X21173571Y-17312878D01*
X21173571Y-17312878D02*
X21102143Y-17348592D01*
X21102143Y-17348592D02*
X21066428Y-17384307D01*
X21066428Y-17384307D02*
X21030714Y-17455735D01*
X21030714Y-17455735D02*
X21030714Y-17634307D01*
X21030714Y-17634307D02*
X21066428Y-17705735D01*
X21066428Y-17705735D02*
X21102143Y-17741450D01*
X21102143Y-17741450D02*
X21173571Y-17777164D01*
X21173571Y-17777164D02*
X21387857Y-17777164D01*
X21387857Y-17777164D02*
X21459285Y-17741450D01*
X21459285Y-17741450D02*
X21495000Y-17705735D01*
X20709285Y-17705735D02*
X20673571Y-17741450D01*
X20673571Y-17741450D02*
X20709285Y-17777164D01*
X20709285Y-17777164D02*
X20744999Y-17741450D01*
X20744999Y-17741450D02*
X20709285Y-17705735D01*
X20709285Y-17705735D02*
X20709285Y-17777164D01*
X20709285Y-17312878D02*
X20673571Y-17348592D01*
X20673571Y-17348592D02*
X20709285Y-17384307D01*
X20709285Y-17384307D02*
X20744999Y-17348592D01*
X20744999Y-17348592D02*
X20709285Y-17312878D01*
X20709285Y-17312878D02*
X20709285Y-17384307D01*
X20030714Y-17277164D02*
X20030714Y-17777164D01*
X20209285Y-16991450D02*
X20387856Y-17527164D01*
X20387856Y-17527164D02*
X19923571Y-17527164D01*
X46852143Y-59339164D02*
X46423572Y-59339164D01*
X46637857Y-60089164D02*
X46637857Y-59339164D01*
X46173571Y-60089164D02*
X46173571Y-59339164D01*
X46173571Y-59339164D02*
X45887857Y-59339164D01*
X45887857Y-59339164D02*
X45816428Y-59374878D01*
X45816428Y-59374878D02*
X45780714Y-59410592D01*
X45780714Y-59410592D02*
X45745000Y-59482021D01*
X45745000Y-59482021D02*
X45745000Y-59589164D01*
X45745000Y-59589164D02*
X45780714Y-59660592D01*
X45780714Y-59660592D02*
X45816428Y-59696307D01*
X45816428Y-59696307D02*
X45887857Y-59732021D01*
X45887857Y-59732021D02*
X46173571Y-59732021D01*
X45459285Y-59410592D02*
X45423571Y-59374878D01*
X45423571Y-59374878D02*
X45352143Y-59339164D01*
X45352143Y-59339164D02*
X45173571Y-59339164D01*
X45173571Y-59339164D02*
X45102143Y-59374878D01*
X45102143Y-59374878D02*
X45066428Y-59410592D01*
X45066428Y-59410592D02*
X45030714Y-59482021D01*
X45030714Y-59482021D02*
X45030714Y-59553450D01*
X45030714Y-59553450D02*
X45066428Y-59660592D01*
X45066428Y-59660592D02*
X45495000Y-60089164D01*
X45495000Y-60089164D02*
X45030714Y-60089164D01*
X44709285Y-60017735D02*
X44673571Y-60053450D01*
X44673571Y-60053450D02*
X44709285Y-60089164D01*
X44709285Y-60089164D02*
X44744999Y-60053450D01*
X44744999Y-60053450D02*
X44709285Y-60017735D01*
X44709285Y-60017735D02*
X44709285Y-60089164D01*
X44709285Y-59624878D02*
X44673571Y-59660592D01*
X44673571Y-59660592D02*
X44709285Y-59696307D01*
X44709285Y-59696307D02*
X44744999Y-59660592D01*
X44744999Y-59660592D02*
X44709285Y-59624878D01*
X44709285Y-59624878D02*
X44709285Y-59696307D01*
X43994999Y-59339164D02*
X44352142Y-59339164D01*
X44352142Y-59339164D02*
X44387856Y-59696307D01*
X44387856Y-59696307D02*
X44352142Y-59660592D01*
X44352142Y-59660592D02*
X44280714Y-59624878D01*
X44280714Y-59624878D02*
X44102142Y-59624878D01*
X44102142Y-59624878D02*
X44030714Y-59660592D01*
X44030714Y-59660592D02*
X43994999Y-59696307D01*
X43994999Y-59696307D02*
X43959285Y-59767735D01*
X43959285Y-59767735D02*
X43959285Y-59946307D01*
X43959285Y-59946307D02*
X43994999Y-60017735D01*
X43994999Y-60017735D02*
X44030714Y-60053450D01*
X44030714Y-60053450D02*
X44102142Y-60089164D01*
X44102142Y-60089164D02*
X44280714Y-60089164D01*
X44280714Y-60089164D02*
X44352142Y-60053450D01*
X44352142Y-60053450D02*
X44387856Y-60017735D01*
D13*
X37583333Y-38224809D02*
X37749999Y-37986714D01*
X37869047Y-38224809D02*
X37869047Y-37724809D01*
X37869047Y-37724809D02*
X37678571Y-37724809D01*
X37678571Y-37724809D02*
X37630952Y-37748619D01*
X37630952Y-37748619D02*
X37607142Y-37772428D01*
X37607142Y-37772428D02*
X37583333Y-37820047D01*
X37583333Y-37820047D02*
X37583333Y-37891476D01*
X37583333Y-37891476D02*
X37607142Y-37939095D01*
X37607142Y-37939095D02*
X37630952Y-37962904D01*
X37630952Y-37962904D02*
X37678571Y-37986714D01*
X37678571Y-37986714D02*
X37869047Y-37986714D01*
X37416666Y-37724809D02*
X37107142Y-37724809D01*
X37107142Y-37724809D02*
X37273809Y-37915285D01*
X37273809Y-37915285D02*
X37202380Y-37915285D01*
X37202380Y-37915285D02*
X37154761Y-37939095D01*
X37154761Y-37939095D02*
X37130952Y-37962904D01*
X37130952Y-37962904D02*
X37107142Y-38010523D01*
X37107142Y-38010523D02*
X37107142Y-38129571D01*
X37107142Y-38129571D02*
X37130952Y-38177190D01*
X37130952Y-38177190D02*
X37154761Y-38201000D01*
X37154761Y-38201000D02*
X37202380Y-38224809D01*
X37202380Y-38224809D02*
X37345237Y-38224809D01*
X37345237Y-38224809D02*
X37392856Y-38201000D01*
X37392856Y-38201000D02*
X37416666Y-38177190D01*
X36203452Y-29724809D02*
X36203452Y-30129571D01*
X36203452Y-30129571D02*
X36179642Y-30177190D01*
X36179642Y-30177190D02*
X36155833Y-30201000D01*
X36155833Y-30201000D02*
X36108214Y-30224809D01*
X36108214Y-30224809D02*
X36012976Y-30224809D01*
X36012976Y-30224809D02*
X35965357Y-30201000D01*
X35965357Y-30201000D02*
X35941547Y-30177190D01*
X35941547Y-30177190D02*
X35917738Y-30129571D01*
X35917738Y-30129571D02*
X35917738Y-29724809D01*
X35655832Y-30224809D02*
X35560594Y-30224809D01*
X35560594Y-30224809D02*
X35512975Y-30201000D01*
X35512975Y-30201000D02*
X35489166Y-30177190D01*
X35489166Y-30177190D02*
X35441547Y-30105761D01*
X35441547Y-30105761D02*
X35417737Y-30010523D01*
X35417737Y-30010523D02*
X35417737Y-29820047D01*
X35417737Y-29820047D02*
X35441547Y-29772428D01*
X35441547Y-29772428D02*
X35465356Y-29748619D01*
X35465356Y-29748619D02*
X35512975Y-29724809D01*
X35512975Y-29724809D02*
X35608213Y-29724809D01*
X35608213Y-29724809D02*
X35655832Y-29748619D01*
X35655832Y-29748619D02*
X35679642Y-29772428D01*
X35679642Y-29772428D02*
X35703451Y-29820047D01*
X35703451Y-29820047D02*
X35703451Y-29939095D01*
X35703451Y-29939095D02*
X35679642Y-29986714D01*
X35679642Y-29986714D02*
X35655832Y-30010523D01*
X35655832Y-30010523D02*
X35608213Y-30034333D01*
X35608213Y-30034333D02*
X35512975Y-30034333D01*
X35512975Y-30034333D02*
X35465356Y-30010523D01*
X35465356Y-30010523D02*
X35441547Y-29986714D01*
X35441547Y-29986714D02*
X35417737Y-29939095D01*
D11*
X40102143Y-62027164D02*
X39673572Y-62027164D01*
X39887857Y-62777164D02*
X39887857Y-62027164D01*
X39423571Y-62777164D02*
X39423571Y-62027164D01*
X39423571Y-62027164D02*
X39137857Y-62027164D01*
X39137857Y-62027164D02*
X39066428Y-62062878D01*
X39066428Y-62062878D02*
X39030714Y-62098592D01*
X39030714Y-62098592D02*
X38995000Y-62170021D01*
X38995000Y-62170021D02*
X38995000Y-62277164D01*
X38995000Y-62277164D02*
X39030714Y-62348592D01*
X39030714Y-62348592D02*
X39066428Y-62384307D01*
X39066428Y-62384307D02*
X39137857Y-62420021D01*
X39137857Y-62420021D02*
X39423571Y-62420021D01*
X38709285Y-62098592D02*
X38673571Y-62062878D01*
X38673571Y-62062878D02*
X38602143Y-62027164D01*
X38602143Y-62027164D02*
X38423571Y-62027164D01*
X38423571Y-62027164D02*
X38352143Y-62062878D01*
X38352143Y-62062878D02*
X38316428Y-62098592D01*
X38316428Y-62098592D02*
X38280714Y-62170021D01*
X38280714Y-62170021D02*
X38280714Y-62241450D01*
X38280714Y-62241450D02*
X38316428Y-62348592D01*
X38316428Y-62348592D02*
X38745000Y-62777164D01*
X38745000Y-62777164D02*
X38280714Y-62777164D01*
X37959285Y-62705735D02*
X37923571Y-62741450D01*
X37923571Y-62741450D02*
X37959285Y-62777164D01*
X37959285Y-62777164D02*
X37994999Y-62741450D01*
X37994999Y-62741450D02*
X37959285Y-62705735D01*
X37959285Y-62705735D02*
X37959285Y-62777164D01*
X37959285Y-62312878D02*
X37923571Y-62348592D01*
X37923571Y-62348592D02*
X37959285Y-62384307D01*
X37959285Y-62384307D02*
X37994999Y-62348592D01*
X37994999Y-62348592D02*
X37959285Y-62312878D01*
X37959285Y-62312878D02*
X37959285Y-62384307D01*
X37637856Y-62098592D02*
X37602142Y-62062878D01*
X37602142Y-62062878D02*
X37530714Y-62027164D01*
X37530714Y-62027164D02*
X37352142Y-62027164D01*
X37352142Y-62027164D02*
X37280714Y-62062878D01*
X37280714Y-62062878D02*
X37244999Y-62098592D01*
X37244999Y-62098592D02*
X37209285Y-62170021D01*
X37209285Y-62170021D02*
X37209285Y-62241450D01*
X37209285Y-62241450D02*
X37244999Y-62348592D01*
X37244999Y-62348592D02*
X37673571Y-62777164D01*
X37673571Y-62777164D02*
X37209285Y-62777164D01*
D13*
X22119047Y-24974809D02*
X22119047Y-25379571D01*
X22119047Y-25379571D02*
X22095237Y-25427190D01*
X22095237Y-25427190D02*
X22071428Y-25451000D01*
X22071428Y-25451000D02*
X22023809Y-25474809D01*
X22023809Y-25474809D02*
X21928571Y-25474809D01*
X21928571Y-25474809D02*
X21880952Y-25451000D01*
X21880952Y-25451000D02*
X21857142Y-25427190D01*
X21857142Y-25427190D02*
X21833333Y-25379571D01*
X21833333Y-25379571D02*
X21833333Y-24974809D01*
X21333332Y-25474809D02*
X21619046Y-25474809D01*
X21476189Y-25474809D02*
X21476189Y-24974809D01*
X21476189Y-24974809D02*
X21523808Y-25046238D01*
X21523808Y-25046238D02*
X21571427Y-25093857D01*
X21571427Y-25093857D02*
X21619046Y-25117666D01*
X21023809Y-24974809D02*
X20976190Y-24974809D01*
X20976190Y-24974809D02*
X20928571Y-24998619D01*
X20928571Y-24998619D02*
X20904761Y-25022428D01*
X20904761Y-25022428D02*
X20880952Y-25070047D01*
X20880952Y-25070047D02*
X20857142Y-25165285D01*
X20857142Y-25165285D02*
X20857142Y-25284333D01*
X20857142Y-25284333D02*
X20880952Y-25379571D01*
X20880952Y-25379571D02*
X20904761Y-25427190D01*
X20904761Y-25427190D02*
X20928571Y-25451000D01*
X20928571Y-25451000D02*
X20976190Y-25474809D01*
X20976190Y-25474809D02*
X21023809Y-25474809D01*
X21023809Y-25474809D02*
X21071428Y-25451000D01*
X21071428Y-25451000D02*
X21095237Y-25427190D01*
X21095237Y-25427190D02*
X21119047Y-25379571D01*
X21119047Y-25379571D02*
X21142856Y-25284333D01*
X21142856Y-25284333D02*
X21142856Y-25165285D01*
X21142856Y-25165285D02*
X21119047Y-25070047D01*
X21119047Y-25070047D02*
X21095237Y-25022428D01*
X21095237Y-25022428D02*
X21071428Y-24998619D01*
X21071428Y-24998619D02*
X21023809Y-24974809D01*
X30833333Y-32927190D02*
X30857142Y-32951000D01*
X30857142Y-32951000D02*
X30928571Y-32974809D01*
X30928571Y-32974809D02*
X30976190Y-32974809D01*
X30976190Y-32974809D02*
X31047618Y-32951000D01*
X31047618Y-32951000D02*
X31095237Y-32903380D01*
X31095237Y-32903380D02*
X31119047Y-32855761D01*
X31119047Y-32855761D02*
X31142856Y-32760523D01*
X31142856Y-32760523D02*
X31142856Y-32689095D01*
X31142856Y-32689095D02*
X31119047Y-32593857D01*
X31119047Y-32593857D02*
X31095237Y-32546238D01*
X31095237Y-32546238D02*
X31047618Y-32498619D01*
X31047618Y-32498619D02*
X30976190Y-32474809D01*
X30976190Y-32474809D02*
X30928571Y-32474809D01*
X30928571Y-32474809D02*
X30857142Y-32498619D01*
X30857142Y-32498619D02*
X30833333Y-32522428D01*
X30666666Y-32474809D02*
X30333333Y-32474809D01*
X30333333Y-32474809D02*
X30547618Y-32974809D01*
D11*
X13852143Y-17027164D02*
X13423572Y-17027164D01*
X13637857Y-17777164D02*
X13637857Y-17027164D01*
X13173571Y-17777164D02*
X13173571Y-17027164D01*
X13173571Y-17027164D02*
X12887857Y-17027164D01*
X12887857Y-17027164D02*
X12816428Y-17062878D01*
X12816428Y-17062878D02*
X12780714Y-17098592D01*
X12780714Y-17098592D02*
X12745000Y-17170021D01*
X12745000Y-17170021D02*
X12745000Y-17277164D01*
X12745000Y-17277164D02*
X12780714Y-17348592D01*
X12780714Y-17348592D02*
X12816428Y-17384307D01*
X12816428Y-17384307D02*
X12887857Y-17420021D01*
X12887857Y-17420021D02*
X13173571Y-17420021D01*
X12495000Y-17027164D02*
X12030714Y-17027164D01*
X12030714Y-17027164D02*
X12280714Y-17312878D01*
X12280714Y-17312878D02*
X12173571Y-17312878D01*
X12173571Y-17312878D02*
X12102143Y-17348592D01*
X12102143Y-17348592D02*
X12066428Y-17384307D01*
X12066428Y-17384307D02*
X12030714Y-17455735D01*
X12030714Y-17455735D02*
X12030714Y-17634307D01*
X12030714Y-17634307D02*
X12066428Y-17705735D01*
X12066428Y-17705735D02*
X12102143Y-17741450D01*
X12102143Y-17741450D02*
X12173571Y-17777164D01*
X12173571Y-17777164D02*
X12387857Y-17777164D01*
X12387857Y-17777164D02*
X12459285Y-17741450D01*
X12459285Y-17741450D02*
X12495000Y-17705735D01*
X11709285Y-17705735D02*
X11673571Y-17741450D01*
X11673571Y-17741450D02*
X11709285Y-17777164D01*
X11709285Y-17777164D02*
X11744999Y-17741450D01*
X11744999Y-17741450D02*
X11709285Y-17705735D01*
X11709285Y-17705735D02*
X11709285Y-17777164D01*
X11709285Y-17312878D02*
X11673571Y-17348592D01*
X11673571Y-17348592D02*
X11709285Y-17384307D01*
X11709285Y-17384307D02*
X11744999Y-17348592D01*
X11744999Y-17348592D02*
X11709285Y-17312878D01*
X11709285Y-17312878D02*
X11709285Y-17384307D01*
X11244999Y-17348592D02*
X11316428Y-17312878D01*
X11316428Y-17312878D02*
X11352142Y-17277164D01*
X11352142Y-17277164D02*
X11387856Y-17205735D01*
X11387856Y-17205735D02*
X11387856Y-17170021D01*
X11387856Y-17170021D02*
X11352142Y-17098592D01*
X11352142Y-17098592D02*
X11316428Y-17062878D01*
X11316428Y-17062878D02*
X11244999Y-17027164D01*
X11244999Y-17027164D02*
X11102142Y-17027164D01*
X11102142Y-17027164D02*
X11030714Y-17062878D01*
X11030714Y-17062878D02*
X10994999Y-17098592D01*
X10994999Y-17098592D02*
X10959285Y-17170021D01*
X10959285Y-17170021D02*
X10959285Y-17205735D01*
X10959285Y-17205735D02*
X10994999Y-17277164D01*
X10994999Y-17277164D02*
X11030714Y-17312878D01*
X11030714Y-17312878D02*
X11102142Y-17348592D01*
X11102142Y-17348592D02*
X11244999Y-17348592D01*
X11244999Y-17348592D02*
X11316428Y-17384307D01*
X11316428Y-17384307D02*
X11352142Y-17420021D01*
X11352142Y-17420021D02*
X11387856Y-17491450D01*
X11387856Y-17491450D02*
X11387856Y-17634307D01*
X11387856Y-17634307D02*
X11352142Y-17705735D01*
X11352142Y-17705735D02*
X11316428Y-17741450D01*
X11316428Y-17741450D02*
X11244999Y-17777164D01*
X11244999Y-17777164D02*
X11102142Y-17777164D01*
X11102142Y-17777164D02*
X11030714Y-17741450D01*
X11030714Y-17741450D02*
X10994999Y-17705735D01*
X10994999Y-17705735D02*
X10959285Y-17634307D01*
X10959285Y-17634307D02*
X10959285Y-17491450D01*
X10959285Y-17491450D02*
X10994999Y-17420021D01*
X10994999Y-17420021D02*
X11030714Y-17384307D01*
X11030714Y-17384307D02*
X11102142Y-17348592D01*
D13*
X26571428Y-30427190D02*
X26595237Y-30451000D01*
X26595237Y-30451000D02*
X26666666Y-30474809D01*
X26666666Y-30474809D02*
X26714285Y-30474809D01*
X26714285Y-30474809D02*
X26785713Y-30451000D01*
X26785713Y-30451000D02*
X26833332Y-30403380D01*
X26833332Y-30403380D02*
X26857142Y-30355761D01*
X26857142Y-30355761D02*
X26880951Y-30260523D01*
X26880951Y-30260523D02*
X26880951Y-30189095D01*
X26880951Y-30189095D02*
X26857142Y-30093857D01*
X26857142Y-30093857D02*
X26833332Y-30046238D01*
X26833332Y-30046238D02*
X26785713Y-29998619D01*
X26785713Y-29998619D02*
X26714285Y-29974809D01*
X26714285Y-29974809D02*
X26666666Y-29974809D01*
X26666666Y-29974809D02*
X26595237Y-29998619D01*
X26595237Y-29998619D02*
X26571428Y-30022428D01*
X26095237Y-30474809D02*
X26380951Y-30474809D01*
X26238094Y-30474809D02*
X26238094Y-29974809D01*
X26238094Y-29974809D02*
X26285713Y-30046238D01*
X26285713Y-30046238D02*
X26333332Y-30093857D01*
X26333332Y-30093857D02*
X26380951Y-30117666D01*
X25785714Y-29974809D02*
X25738095Y-29974809D01*
X25738095Y-29974809D02*
X25690476Y-29998619D01*
X25690476Y-29998619D02*
X25666666Y-30022428D01*
X25666666Y-30022428D02*
X25642857Y-30070047D01*
X25642857Y-30070047D02*
X25619047Y-30165285D01*
X25619047Y-30165285D02*
X25619047Y-30284333D01*
X25619047Y-30284333D02*
X25642857Y-30379571D01*
X25642857Y-30379571D02*
X25666666Y-30427190D01*
X25666666Y-30427190D02*
X25690476Y-30451000D01*
X25690476Y-30451000D02*
X25738095Y-30474809D01*
X25738095Y-30474809D02*
X25785714Y-30474809D01*
X25785714Y-30474809D02*
X25833333Y-30451000D01*
X25833333Y-30451000D02*
X25857142Y-30427190D01*
X25857142Y-30427190D02*
X25880952Y-30379571D01*
X25880952Y-30379571D02*
X25904761Y-30284333D01*
X25904761Y-30284333D02*
X25904761Y-30165285D01*
X25904761Y-30165285D02*
X25880952Y-30070047D01*
X25880952Y-30070047D02*
X25857142Y-30022428D01*
X25857142Y-30022428D02*
X25833333Y-29998619D01*
X25833333Y-29998619D02*
X25785714Y-29974809D01*
X40453333Y-66264809D02*
X40619999Y-66026714D01*
X40739047Y-66264809D02*
X40739047Y-65764809D01*
X40739047Y-65764809D02*
X40548571Y-65764809D01*
X40548571Y-65764809D02*
X40500952Y-65788619D01*
X40500952Y-65788619D02*
X40477142Y-65812428D01*
X40477142Y-65812428D02*
X40453333Y-65860047D01*
X40453333Y-65860047D02*
X40453333Y-65931476D01*
X40453333Y-65931476D02*
X40477142Y-65979095D01*
X40477142Y-65979095D02*
X40500952Y-66002904D01*
X40500952Y-66002904D02*
X40548571Y-66026714D01*
X40548571Y-66026714D02*
X40739047Y-66026714D01*
X40286666Y-65764809D02*
X39953333Y-65764809D01*
X39953333Y-65764809D02*
X40167618Y-66264809D01*
D10*
%TO.C,C8*%
X46018752Y-45755000D02*
X45496248Y-45755000D01*
X46018752Y-47225000D02*
X45496248Y-47225000D01*
%TO.C,TP4:4*%
X42420000Y-15540000D02*
X42420000Y-16940000D01*
X42420000Y-16940000D02*
X43820000Y-16940000D01*
X43820000Y-15540000D02*
X42420000Y-15540000D01*
X43820000Y-16940000D02*
X43820000Y-15540000D01*
%TO.C,TP3:6*%
X16170000Y-15290000D02*
X16170000Y-16690000D01*
X16170000Y-16690000D02*
X17570000Y-16690000D01*
X17570000Y-15290000D02*
X16170000Y-15290000D01*
X17570000Y-16690000D02*
X17570000Y-15290000D01*
%TO.C,C12*%
X23243752Y-39005000D02*
X22721248Y-39005000D01*
X23243752Y-40475000D02*
X22721248Y-40475000D01*
%TO.C,TP4:8*%
X33420000Y-15540000D02*
X33420000Y-16940000D01*
X33420000Y-16940000D02*
X34820000Y-16940000D01*
X34820000Y-15540000D02*
X33420000Y-15540000D01*
X34820000Y-16940000D02*
X34820000Y-15540000D01*
%TO.C,R11*%
X47247064Y-11255000D02*
X46792936Y-11255000D01*
X47247064Y-12725000D02*
X46792936Y-12725000D01*
%TO.C,R5*%
X18347064Y-64555000D02*
X17892936Y-64555000D01*
X18347064Y-66025000D02*
X17892936Y-66025000D01*
%TO.C,R6*%
X22747064Y-64555000D02*
X22292936Y-64555000D01*
X22747064Y-66025000D02*
X22292936Y-66025000D01*
%TO.C,TP2:8*%
X51420000Y-60290000D02*
X51420000Y-61690000D01*
X51420000Y-61690000D02*
X52820000Y-61690000D01*
X52820000Y-60290000D02*
X51420000Y-60290000D01*
X52820000Y-61690000D02*
X52820000Y-60290000D01*
%TO.C,L4*%
X38970000Y-11190000D02*
X38970000Y-12590000D01*
X38970000Y-12590000D02*
X40370000Y-12590000D01*
X40370000Y-11190000D02*
X38970000Y-11190000D01*
X40370000Y-12590000D02*
X40370000Y-11190000D01*
%TO.C,TP1:7*%
X26420000Y-60290000D02*
X26420000Y-61690000D01*
X26420000Y-61690000D02*
X27820000Y-61690000D01*
X27820000Y-60290000D02*
X26420000Y-60290000D01*
X27820000Y-61690000D02*
X27820000Y-60290000D01*
%TO.C,TP4:3*%
X44670000Y-15540000D02*
X44670000Y-16940000D01*
X44670000Y-16940000D02*
X46070000Y-16940000D01*
X46070000Y-15540000D02*
X44670000Y-15540000D01*
X46070000Y-16940000D02*
X46070000Y-15540000D01*
%TO.C,TP1:2*%
X15170000Y-60290000D02*
X15170000Y-61690000D01*
X15170000Y-61690000D02*
X16570000Y-61690000D01*
X16570000Y-60290000D02*
X15170000Y-60290000D01*
X16570000Y-61690000D02*
X16570000Y-60290000D01*
%TO.C,C17*%
X38405000Y-46898748D02*
X38405000Y-47421252D01*
X39875000Y-46898748D02*
X39875000Y-47421252D01*
%TO.C,TP2:3*%
X40170000Y-60290000D02*
X40170000Y-61690000D01*
X40170000Y-61690000D02*
X41570000Y-61690000D01*
X41570000Y-60290000D02*
X40170000Y-60290000D01*
X41570000Y-61690000D02*
X41570000Y-60290000D01*
%TO.C,TP1:5*%
X21920000Y-60290000D02*
X21920000Y-61690000D01*
X21920000Y-61690000D02*
X23320000Y-61690000D01*
X23320000Y-60290000D02*
X21920000Y-60290000D01*
X23320000Y-61690000D02*
X23320000Y-60290000D01*
%TO.C,TP1:4*%
X19670000Y-60290000D02*
X19670000Y-61690000D01*
X19670000Y-61690000D02*
X21070000Y-61690000D01*
X21070000Y-60290000D02*
X19670000Y-60290000D01*
X21070000Y-61690000D02*
X21070000Y-60290000D01*
%TO.C,C19*%
X18978748Y-22485000D02*
X19501252Y-22485000D01*
X18978748Y-23955000D02*
X19501252Y-23955000D01*
%TO.C,TP3:7*%
X13920000Y-15290000D02*
X13920000Y-16690000D01*
X13920000Y-16690000D02*
X15320000Y-16690000D01*
X15320000Y-15290000D02*
X13920000Y-15290000D01*
X15320000Y-16690000D02*
X15320000Y-15290000D01*
%TO.C,TP2:6*%
X46920000Y-60290000D02*
X46920000Y-61690000D01*
X46920000Y-61690000D02*
X48320000Y-61690000D01*
X48320000Y-60290000D02*
X46920000Y-60290000D01*
X48320000Y-61690000D02*
X48320000Y-60290000D01*
%TO.C,TP4:7*%
X35670000Y-15540000D02*
X35670000Y-16940000D01*
X35670000Y-16940000D02*
X37070000Y-16940000D01*
X37070000Y-15540000D02*
X35670000Y-15540000D01*
X37070000Y-16940000D02*
X37070000Y-15540000D01*
%TO.C,R9*%
X21247064Y-11255000D02*
X20792936Y-11255000D01*
X21247064Y-12725000D02*
X20792936Y-12725000D01*
%TO.C,R15*%
X35847064Y-60255000D02*
X35392936Y-60255000D01*
X35847064Y-61725000D02*
X35392936Y-61725000D01*
%TO.C,TP4:6*%
X37920000Y-15540000D02*
X37920000Y-16940000D01*
X37920000Y-16940000D02*
X39320000Y-16940000D01*
X39320000Y-15540000D02*
X37920000Y-15540000D01*
X39320000Y-16940000D02*
X39320000Y-15540000D01*
%TO.C,U8*%
X21232500Y-41280000D02*
X19032500Y-41280000D01*
X21232500Y-41280000D02*
X23432500Y-41280000D01*
X21232500Y-51200000D02*
X19032500Y-51200000D01*
X21232500Y-51200000D02*
X23432500Y-51200000D01*
X24132500Y-41330000D02*
X23892500Y-41000000D01*
X24372500Y-41000000D01*
X24132500Y-41330000D01*
G36*
X24132500Y-41330000D02*
G01*
X23892500Y-41000000D01*
X24372500Y-41000000D01*
X24132500Y-41330000D01*
G37*
%TO.C,J2*%
X44080000Y-37330000D02*
X45520000Y-37330000D01*
X45520000Y-25080000D02*
X50720000Y-25080000D01*
X45520000Y-25650000D02*
X45520000Y-25080000D01*
X45520000Y-28190000D02*
X45520000Y-27170000D01*
X45520000Y-30730000D02*
X45520000Y-29710000D01*
X45520000Y-33270000D02*
X45520000Y-32250000D01*
X45520000Y-35810000D02*
X45520000Y-34790000D01*
X45520000Y-37900000D02*
X45520000Y-37330000D01*
X45520000Y-37900000D02*
X50720000Y-37900000D01*
X50720000Y-25650000D02*
X50720000Y-25080000D01*
X50720000Y-28190000D02*
X50720000Y-27170000D01*
X50720000Y-30730000D02*
X50720000Y-29710000D01*
X50720000Y-33270000D02*
X50720000Y-32250000D01*
X50720000Y-35810000D02*
X50720000Y-34790000D01*
X50720000Y-37900000D02*
X50720000Y-37330000D01*
%TO.C,E2*%
X37420000Y-64590000D02*
X37420000Y-65990000D01*
X37420000Y-65990000D02*
X38820000Y-65990000D01*
X38820000Y-64590000D02*
X37420000Y-64590000D01*
X38820000Y-65990000D02*
X38820000Y-64590000D01*
%TO.C,C15*%
X48272500Y-47751252D02*
X48272500Y-47228748D01*
X49742500Y-47751252D02*
X49742500Y-47228748D01*
%TO.C,C9*%
X27243752Y-26505000D02*
X26721248Y-26505000D01*
X27243752Y-27975000D02*
X26721248Y-27975000D01*
%TO.C,TP1:3*%
X17420000Y-60290000D02*
X17420000Y-61690000D01*
X17420000Y-61690000D02*
X18820000Y-61690000D01*
X18820000Y-60290000D02*
X17420000Y-60290000D01*
X18820000Y-61690000D02*
X18820000Y-60290000D01*
%TO.C,C13*%
X25497500Y-40751252D02*
X25497500Y-40228748D01*
X26967500Y-40751252D02*
X26967500Y-40228748D01*
%TO.C,R16*%
X13097064Y-60255000D02*
X12642936Y-60255000D01*
X13097064Y-61725000D02*
X12642936Y-61725000D01*
%TO.C,TP2:4*%
X42420000Y-60290000D02*
X42420000Y-61690000D01*
X42420000Y-61690000D02*
X43820000Y-61690000D01*
X43820000Y-60290000D02*
X42420000Y-60290000D01*
X43820000Y-61690000D02*
X43820000Y-60290000D01*
%TO.C,TP3:5*%
X18420000Y-15290000D02*
X18420000Y-16690000D01*
X18420000Y-16690000D02*
X19820000Y-16690000D01*
X19820000Y-15290000D02*
X18420000Y-15290000D01*
X19820000Y-16690000D02*
X19820000Y-15290000D01*
%TO.C,TP3:2*%
X25170000Y-15290000D02*
X25170000Y-16690000D01*
X25170000Y-16690000D02*
X26570000Y-16690000D01*
X26570000Y-15290000D02*
X25170000Y-15290000D01*
X26570000Y-16690000D02*
X26570000Y-15290000D01*
%TO.C,TP2:7*%
X49170000Y-60290000D02*
X49170000Y-61690000D01*
X49170000Y-61690000D02*
X50570000Y-61690000D01*
X50570000Y-60290000D02*
X49170000Y-60290000D01*
X50570000Y-61690000D02*
X50570000Y-60290000D01*
%TO.C,C11*%
X37247500Y-29751252D02*
X37247500Y-29228748D01*
X38717500Y-29751252D02*
X38717500Y-29228748D01*
%TO.C,L1*%
X25470000Y-64590000D02*
X25470000Y-65990000D01*
X25470000Y-65990000D02*
X26870000Y-65990000D01*
X26870000Y-64590000D02*
X25470000Y-64590000D01*
X26870000Y-65990000D02*
X26870000Y-64590000D01*
%TO.C,TP4:5*%
X40170000Y-15540000D02*
X40170000Y-16940000D01*
X40170000Y-16940000D02*
X41570000Y-16940000D01*
X41570000Y-15540000D02*
X40170000Y-15540000D01*
X41570000Y-16940000D02*
X41570000Y-15540000D01*
%TO.C,R4*%
X39135000Y-40217064D02*
X39135000Y-39762936D01*
X40605000Y-40217064D02*
X40605000Y-39762936D01*
%TO.C,E1*%
X27320000Y-64590000D02*
X27320000Y-65990000D01*
X27320000Y-65990000D02*
X28720000Y-65990000D01*
X28720000Y-64590000D02*
X27320000Y-64590000D01*
X28720000Y-65990000D02*
X28720000Y-64590000D01*
%TO.C,U7*%
X31710000Y-52342500D02*
X31710000Y-51542500D01*
X31710000Y-52342500D02*
X31710000Y-53142500D01*
X34830000Y-52342500D02*
X34830000Y-51542500D01*
X34830000Y-52342500D02*
X34830000Y-53142500D01*
X35110000Y-53882500D02*
X34780000Y-53642500D01*
X35110000Y-53402500D01*
X35110000Y-53882500D01*
G36*
X35110000Y-53882500D02*
G01*
X34780000Y-53642500D01*
X35110000Y-53402500D01*
X35110000Y-53882500D01*
G37*
%TO.C,C16*%
X49746248Y-49755000D02*
X50268752Y-49755000D01*
X49746248Y-51225000D02*
X50268752Y-51225000D01*
%TO.C,R14*%
X28892936Y-15255000D02*
X29347064Y-15255000D01*
X28892936Y-16725000D02*
X29347064Y-16725000D01*
%TO.C,U6*%
X44120000Y-48030000D02*
X41920000Y-48030000D01*
X44120000Y-48030000D02*
X46320000Y-48030000D01*
X44120000Y-57950000D02*
X41920000Y-57950000D01*
X44120000Y-57950000D02*
X46320000Y-57950000D01*
X47020000Y-48080000D02*
X46780000Y-47750000D01*
X47260000Y-47750000D01*
X47020000Y-48080000D01*
G36*
X47020000Y-48080000D02*
G01*
X46780000Y-47750000D01*
X47260000Y-47750000D01*
X47020000Y-48080000D01*
G37*
%TO.C,C6*%
X33618752Y-55147500D02*
X33096248Y-55147500D01*
X33618752Y-56617500D02*
X33096248Y-56617500D01*
%TO.C,L3*%
X25920000Y-11190000D02*
X25920000Y-12590000D01*
X25920000Y-12590000D02*
X27320000Y-12590000D01*
X27320000Y-11190000D02*
X25920000Y-11190000D01*
X27320000Y-12590000D02*
X27320000Y-11190000D01*
%TO.C,R13*%
X50642936Y-15505000D02*
X51097064Y-15505000D01*
X50642936Y-16975000D02*
X51097064Y-16975000D01*
%TO.C,TP4:2*%
X46920000Y-15540000D02*
X46920000Y-16940000D01*
X46920000Y-16940000D02*
X48320000Y-16940000D01*
X48320000Y-15540000D02*
X46920000Y-15540000D01*
X48320000Y-16940000D02*
X48320000Y-15540000D01*
%TO.C,C18*%
X17575000Y-38728748D02*
X17575000Y-39251252D01*
X19045000Y-38728748D02*
X19045000Y-39251252D01*
%TO.C,TP1:8*%
X28670000Y-60290000D02*
X28670000Y-61690000D01*
X28670000Y-61690000D02*
X30070000Y-61690000D01*
X30070000Y-60290000D02*
X28670000Y-60290000D01*
X30070000Y-61690000D02*
X30070000Y-60290000D01*
%TO.C,TP3:3*%
X22920000Y-15290000D02*
X22920000Y-16690000D01*
X22920000Y-16690000D02*
X24320000Y-16690000D01*
X24320000Y-15290000D02*
X22920000Y-15290000D01*
X24320000Y-16690000D02*
X24320000Y-15290000D01*
%TO.C,R10*%
X17247064Y-11255000D02*
X16792936Y-11255000D01*
X17247064Y-12725000D02*
X16792936Y-12725000D01*
%TO.C,TP1:6*%
X24170000Y-60290000D02*
X24170000Y-61690000D01*
X24170000Y-61690000D02*
X25570000Y-61690000D01*
X25570000Y-60290000D02*
X24170000Y-60290000D01*
X25570000Y-61690000D02*
X25570000Y-60290000D01*
%TO.C,C14*%
X26971248Y-42755000D02*
X27493752Y-42755000D01*
X26971248Y-44225000D02*
X27493752Y-44225000D01*
%TO.C,R12*%
X43247064Y-11255000D02*
X42792936Y-11255000D01*
X43247064Y-12725000D02*
X42792936Y-12725000D01*
%TO.C,R8*%
X46747064Y-64555000D02*
X46292936Y-64555000D01*
X46747064Y-66025000D02*
X46292936Y-66025000D01*
%TO.C,L2*%
X35570000Y-64590000D02*
X35570000Y-65990000D01*
X35570000Y-65990000D02*
X36970000Y-65990000D01*
X36970000Y-64590000D02*
X35570000Y-64590000D01*
X36970000Y-65990000D02*
X36970000Y-64590000D01*
%TO.C,E3*%
X24020000Y-11190000D02*
X24020000Y-12590000D01*
X24020000Y-12590000D02*
X25420000Y-12590000D01*
X25420000Y-11190000D02*
X24020000Y-11190000D01*
X25420000Y-12590000D02*
X25420000Y-11190000D01*
%TO.C,E4*%
X36820000Y-11190000D02*
X36820000Y-12590000D01*
X36820000Y-12590000D02*
X38220000Y-12590000D01*
X38220000Y-11190000D02*
X36820000Y-11190000D01*
X38220000Y-12590000D02*
X38220000Y-11190000D01*
%TO.C,TP3:4*%
X20670000Y-15290000D02*
X20670000Y-16690000D01*
X20670000Y-16690000D02*
X22070000Y-16690000D01*
X22070000Y-15290000D02*
X20670000Y-15290000D01*
X22070000Y-16690000D02*
X22070000Y-15290000D01*
%TO.C,TP2:5*%
X44670000Y-60290000D02*
X44670000Y-61690000D01*
X44670000Y-61690000D02*
X46070000Y-61690000D01*
X46070000Y-60290000D02*
X44670000Y-60290000D01*
X46070000Y-61690000D02*
X46070000Y-60290000D01*
%TO.C,R3*%
X36895000Y-39742936D02*
X36895000Y-40197064D01*
X38365000Y-39742936D02*
X38365000Y-40197064D01*
%TO.C,U9*%
X32870000Y-19780000D02*
X30670000Y-19780000D01*
X32870000Y-19780000D02*
X35070000Y-19780000D01*
X32870000Y-29700000D02*
X30670000Y-29700000D01*
X32870000Y-29700000D02*
X35070000Y-29700000D01*
X30210000Y-29980000D02*
X29730000Y-29980000D01*
X29970000Y-29650000D01*
X30210000Y-29980000D01*
G36*
X30210000Y-29980000D02*
G01*
X29730000Y-29980000D01*
X29970000Y-29650000D01*
X30210000Y-29980000D01*
G37*
%TO.C,TP2:2*%
X37920000Y-60290000D02*
X37920000Y-61690000D01*
X37920000Y-61690000D02*
X39320000Y-61690000D01*
X39320000Y-60290000D02*
X37920000Y-60290000D01*
X39320000Y-61690000D02*
X39320000Y-60290000D01*
%TO.C,U10*%
X17560000Y-26490000D02*
X17560000Y-25690000D01*
X17560000Y-26490000D02*
X17560000Y-27290000D01*
X20680000Y-26490000D02*
X20680000Y-25690000D01*
X20680000Y-26490000D02*
X20680000Y-27290000D01*
X17610000Y-25190000D02*
X17280000Y-25430000D01*
X17280000Y-24950000D01*
X17610000Y-25190000D01*
G36*
X17610000Y-25190000D02*
G01*
X17280000Y-25430000D01*
X17280000Y-24950000D01*
X17610000Y-25190000D01*
G37*
%TO.C,C7*%
X30721248Y-30505000D02*
X31243752Y-30505000D01*
X30721248Y-31975000D02*
X31243752Y-31975000D01*
%TO.C,TP3:8*%
X11670000Y-15290000D02*
X11670000Y-16690000D01*
X11670000Y-16690000D02*
X13070000Y-16690000D01*
X13070000Y-15290000D02*
X11670000Y-15290000D01*
X13070000Y-16690000D02*
X13070000Y-15290000D01*
%TO.C,C10*%
X27247500Y-29978748D02*
X27247500Y-30501252D01*
X28717500Y-29978748D02*
X28717500Y-30501252D01*
%TO.C,R7*%
X42747064Y-64555000D02*
X42292936Y-64555000D01*
X42747064Y-66025000D02*
X42292936Y-66025000D01*
%TD*%
M02*
