%TF.GenerationSoftware,KiCad,Pcbnew,9.0.0*%
%TF.CreationDate,2025-05-12T15:22:34-04:00*%
%TF.ProjectId,design-files_BM,64657369-676e-42d6-9669-6c65735f424d,rev?*%
%TF.SameCoordinates,Original*%
%TF.FileFunction,Soldermask,Top*%
%TF.FilePolarity,Negative*%
%FSLAX46Y46*%
G04 Gerber Fmt 4.6, Leading zero omitted, Abs format (unit mm)*
G04 Created by KiCad (PCBNEW 9.0.0) date 2025-05-12 15:22:34*
%MOMM*%
%LPD*%
G01*
G04 APERTURE LIST*
G04 Aperture macros list*
%AMRoundRect*
0 Rectangle with rounded corners*
0 $1 Rounding radius*
0 $2 $3 $4 $5 $6 $7 $8 $9 X,Y pos of 4 corners*
0 Add a 4 corners polygon primitive as box body*
4,1,4,$2,$3,$4,$5,$6,$7,$8,$9,$2,$3,0*
0 Add four circle primitives for the rounded corners*
1,1,$1+$1,$2,$3*
1,1,$1+$1,$4,$5*
1,1,$1+$1,$6,$7*
1,1,$1+$1,$8,$9*
0 Add four rect primitives between the rounded corners*
20,1,$1+$1,$2,$3,$4,$5,0*
20,1,$1+$1,$4,$5,$6,$7,0*
20,1,$1+$1,$6,$7,$8,$9,0*
20,1,$1+$1,$8,$9,$2,$3,0*%
G04 Aperture macros list end*
%ADD10C,0.600000*%
%ADD11C,2.200000*%
%ADD12RoundRect,0.125000X0.063500X0.127000X-0.063500X0.127000X-0.063500X-0.127000X0.063500X-0.127000X0*%
%ADD13RoundRect,0.125000X-0.063500X-0.127000X0.063500X-0.127000X0.063500X0.127000X-0.063500X0.127000X0*%
G04 APERTURE END LIST*
D10*
%TO.C,REF\u002A\u002A*%
X51630000Y-65490000D02*
G75*
G02*
X51610000Y-65490000I-10000J0D01*
G01*
X51610000Y-65490000D02*
G75*
G02*
X51630000Y-65490000I10000J0D01*
G01*
X12530000Y-11990000D02*
G75*
G02*
X12510000Y-11990000I-10000J0D01*
G01*
X12510000Y-11990000D02*
G75*
G02*
X12530000Y-11990000I10000J0D01*
G01*
X51630000Y-11990000D02*
G75*
G02*
X51610000Y-11990000I-10000J0D01*
G01*
X51610000Y-11990000D02*
G75*
G02*
X51630000Y-11990000I10000J0D01*
G01*
X12530000Y-65490000D02*
G75*
G02*
X12510000Y-65490000I-10000J0D01*
G01*
X12510000Y-65490000D02*
G75*
G02*
X12530000Y-65490000I10000J0D01*
G01*
%TD*%
D11*
%TO.C,REF\u002A\u002A*%
X32070000Y-11590000D03*
%TD*%
D12*
%TO.C,U3*%
X28611329Y-14188127D03*
X28325329Y-14188127D03*
X28039329Y-14188127D03*
X27753329Y-14188127D03*
X27610329Y-13688127D03*
X27467329Y-14188127D03*
X27181329Y-14188127D03*
X27038329Y-13688127D03*
X26037329Y-14188127D03*
X25751329Y-14188127D03*
X25465329Y-14188127D03*
X24321329Y-14188127D03*
X22605329Y-14188127D03*
X18315329Y-14188127D03*
X17171329Y-14188127D03*
X16885329Y-14188127D03*
X15741329Y-14188127D03*
X14025329Y-14188127D03*
X13882329Y-13688127D03*
X13739329Y-14188127D03*
X13453329Y-14188127D03*
X13310329Y-13688127D03*
X12023329Y-14188127D03*
X11737329Y-14188127D03*
X11451329Y-14188127D03*
%TD*%
D13*
%TO.C,U1*%
X13867000Y-63310000D03*
X14153000Y-63310000D03*
X14439000Y-63310000D03*
X14725000Y-63310000D03*
X14868000Y-63810000D03*
X15011000Y-63310000D03*
X15297000Y-63310000D03*
X15440000Y-63810000D03*
X16441000Y-63310000D03*
X16727000Y-63310000D03*
X17013000Y-63310000D03*
X18157000Y-63310000D03*
X19873000Y-63310000D03*
X24163000Y-63310000D03*
X25307000Y-63310000D03*
X25593000Y-63310000D03*
X26737000Y-63310000D03*
X28453000Y-63310000D03*
X28596000Y-63810000D03*
X28739000Y-63310000D03*
X29025000Y-63310000D03*
X29168000Y-63810000D03*
X30455000Y-63310000D03*
X30741000Y-63310000D03*
X31027000Y-63310000D03*
%TD*%
D12*
%TO.C,U4*%
X50261329Y-14158127D03*
X49975329Y-14158127D03*
X49689329Y-14158127D03*
X49403329Y-14158127D03*
X49260329Y-13658127D03*
X49117329Y-14158127D03*
X48831329Y-14158127D03*
X48688329Y-13658127D03*
X47687329Y-14158127D03*
X47401329Y-14158127D03*
X47115329Y-14158127D03*
X45971329Y-14158127D03*
X44255329Y-14158127D03*
X39965329Y-14158127D03*
X38821329Y-14158127D03*
X38535329Y-14158127D03*
X37391329Y-14158127D03*
X35675329Y-14158127D03*
X35532329Y-13658127D03*
X35389329Y-14158127D03*
X35103329Y-14158127D03*
X34960329Y-13658127D03*
X33673329Y-14158127D03*
X33387329Y-14158127D03*
X33101329Y-14158127D03*
%TD*%
D13*
%TO.C,U2*%
X35512000Y-63360000D03*
X35798000Y-63360000D03*
X36084000Y-63360000D03*
X36370000Y-63360000D03*
X36513000Y-63860000D03*
X36656000Y-63360000D03*
X36942000Y-63360000D03*
X37085000Y-63860000D03*
X38086000Y-63360000D03*
X38372000Y-63360000D03*
X38658000Y-63360000D03*
X39802000Y-63360000D03*
X41518000Y-63360000D03*
X45808000Y-63360000D03*
X46952000Y-63360000D03*
X47238000Y-63360000D03*
X48382000Y-63360000D03*
X50098000Y-63360000D03*
X50241000Y-63860000D03*
X50384000Y-63360000D03*
X50670000Y-63360000D03*
X50813000Y-63860000D03*
X52100000Y-63360000D03*
X52386000Y-63360000D03*
X52672000Y-63360000D03*
%TD*%
D11*
%TO.C,REF\u002A\u002A*%
X32070000Y-65890000D03*
%TD*%
M02*
