M48
; DRILL file {KiCad 9.0.0} date 2025-05-12T15:21:41-0400
; FORMAT={-:-/ absolute / metric / decimal}
; #@! TF.CreationDate,2025-05-12T15:21:41-04:00
; #@! TF.GenerationSoftware,Kicad,Pcbnew,9.0.0
; #@! TF.FileFunction,Plated,1,2,PTH
FMAT,2
METRIC
; #@! TA.AperFunction,Plated,PTH,ViaDrill
T1C0.254
; #@! TA.AperFunction,Plated,PTH,ViaDrill
T2C0.400
%
G90
G05
T1
X11.95Y-14.83
X13.35Y-63.29
X13.61Y-64.3
X14.1Y-12.47
X14.23Y-27.59
X14.52Y-13.98
X14.57Y-62.65
X15.0Y-26.16
X15.31Y-13.79
X15.62Y-27.02
X16.01Y-63.7
X16.09Y-62.8
X16.19Y-14.18
X16.83Y-27.61
X16.98Y-45.89
X17.07Y-64.31
X17.1Y-43.14
X17.15Y-23.2
X18.02Y-28.8
X18.39Y-51.26
X18.77Y-63.32
X18.85Y-14.19
X19.54Y-40.0
X19.67Y-42.74
X20.32Y-65.21
X20.39Y-13.81
X21.86Y-26.38
X22.01Y-14.38
X22.11Y-63.27
X22.67Y-41.5
X22.81Y-42.75
X23.56Y-63.31
X23.74Y-14.22
X23.84Y-11.69
X24.11Y-51.17
X24.12Y-28.24
X24.7Y-25.32
X24.7Y-63.5
X25.03Y-39.453
X25.39Y-46.07
X25.42Y-64.56
X26.17Y-63.04
X26.41Y-13.7
X26.64Y-14.43
X26.67Y-36.59
X27.08Y-15.5
X27.29Y-63.32
X28.02Y-63.58
X28.36Y-24.78
X28.92Y-13.18
X28.973Y-32.212
X29.05Y-44.34
X29.11Y-14.19
X29.77Y-64.59
X30.0Y-19.78
X30.42Y-62.68
X31.2Y-28.24
X32.25Y-28.2
X33.47Y-49.8
X34.33Y-28.24
X34.47Y-63.75
X34.711Y-14.499
X35.14Y-62.97
X35.23Y-51.2
X35.4Y-55.91
X35.73Y-19.76
X36.19Y-13.71
X36.19Y-62.72
X36.64Y-12.57
X36.99Y-13.57
X37.22Y-25.01
X37.39Y-63.21
X37.67Y-42.15
X37.78Y-63.72
X37.89Y-14.19
X38.035Y-47.065
X38.48Y-50.0
X39.05Y-64.39
X39.76Y-50.49
X40.2Y-47.73
X40.44Y-63.33
X40.68Y-14.16
X40.93Y-39.04
X40.96Y-27.93
X41.12Y-12.73
X41.17Y-44.01
X41.26Y-58.01
X42.02Y-63.37
X42.14Y-31.29
X42.27Y-28.38
X42.45Y-52.52
X42.92Y-41.16
X43.14Y-40.09
X43.54Y-27.07
X43.65Y-14.14
X43.73Y-32.22
X43.82Y-25.44
X44.52Y-64.49
X44.62Y-45.28
X45.36Y-14.17
X45.54Y-48.27
X45.58Y-49.43
X45.6Y-35.58
X46.29Y-63.36
X46.98Y-58.06
X47.79Y-46.48
X47.91Y-63.0
X48.09Y-13.65
X48.23Y-52.97
X48.42Y-14.43
X48.81Y-15.53
X48.86Y-62.85
X49.64Y-63.61
X50.51Y-13.15
X50.62Y-41.09
X50.87Y-14.17
X51.82Y-51.3
X52.32Y-64.39
X52.46Y-31.49
T2
X33.49Y-44.22
X36.8Y-44.25
X48.58Y-31.48
X50.64Y-30.52
M30
