%TF.GenerationSoftware,KiCad,Pcbnew,7.0.7*%
%TF.CreationDate,2024-11-11T15:48:16-05:00*%
%TF.ProjectId,control-board_v2,636f6e74-726f-46c2-9d62-6f6172645f76,rev?*%
%TF.SameCoordinates,Original*%
%TF.FileFunction,Paste,Bot*%
%TF.FilePolarity,Positive*%
%FSLAX46Y46*%
G04 Gerber Fmt 4.6, Leading zero omitted, Abs format (unit mm)*
G04 Created by KiCad (PCBNEW 7.0.7) date 2024-11-11 15:48:16*
%MOMM*%
%LPD*%
G01*
G04 APERTURE LIST*
G04 Aperture macros list*
%AMRoundRect*
0 Rectangle with rounded corners*
0 $1 Rounding radius*
0 $2 $3 $4 $5 $6 $7 $8 $9 X,Y pos of 4 corners*
0 Add a 4 corners polygon primitive as box body*
4,1,4,$2,$3,$4,$5,$6,$7,$8,$9,$2,$3,0*
0 Add four circle primitives for the rounded corners*
1,1,$1+$1,$2,$3*
1,1,$1+$1,$4,$5*
1,1,$1+$1,$6,$7*
1,1,$1+$1,$8,$9*
0 Add four rect primitives between the rounded corners*
20,1,$1+$1,$2,$3,$4,$5,0*
20,1,$1+$1,$4,$5,$6,$7,0*
20,1,$1+$1,$6,$7,$8,$9,0*
20,1,$1+$1,$8,$9,$2,$3,0*%
G04 Aperture macros list end*
%ADD10RoundRect,0.250000X1.425000X-0.362500X1.425000X0.362500X-1.425000X0.362500X-1.425000X-0.362500X0*%
%ADD11RoundRect,0.250000X-0.262500X-0.450000X0.262500X-0.450000X0.262500X0.450000X-0.262500X0.450000X0*%
%ADD12RoundRect,0.250000X0.262500X0.450000X-0.262500X0.450000X-0.262500X-0.450000X0.262500X-0.450000X0*%
%ADD13RoundRect,0.150000X0.150000X-0.825000X0.150000X0.825000X-0.150000X0.825000X-0.150000X-0.825000X0*%
%ADD14RoundRect,0.250000X0.475000X-0.250000X0.475000X0.250000X-0.475000X0.250000X-0.475000X-0.250000X0*%
%ADD15RoundRect,0.250000X-1.425000X0.362500X-1.425000X-0.362500X1.425000X-0.362500X1.425000X0.362500X0*%
%ADD16RoundRect,0.250000X-0.712500X-2.475000X0.712500X-2.475000X0.712500X2.475000X-0.712500X2.475000X0*%
%ADD17RoundRect,0.150000X-0.150000X0.825000X-0.150000X-0.825000X0.150000X-0.825000X0.150000X0.825000X0*%
%ADD18RoundRect,0.250000X-0.475000X0.250000X-0.475000X-0.250000X0.475000X-0.250000X0.475000X0.250000X0*%
%ADD19RoundRect,0.075000X-0.075000X0.650000X-0.075000X-0.650000X0.075000X-0.650000X0.075000X0.650000X0*%
%ADD20RoundRect,0.250000X-0.250000X-0.475000X0.250000X-0.475000X0.250000X0.475000X-0.250000X0.475000X0*%
G04 APERTURE END LIST*
D10*
%TO.C,R14*%
X75510000Y-39592500D03*
X75510000Y-33667500D03*
%TD*%
D11*
%TO.C,R6*%
X39187500Y-36380000D03*
X41012500Y-36380000D03*
%TD*%
D12*
%TO.C,R18*%
X22912500Y-50000000D03*
X21087500Y-50000000D03*
%TD*%
%TO.C,R22*%
X64622500Y-37420000D03*
X62797500Y-37420000D03*
%TD*%
D10*
%TO.C,R1*%
X47560000Y-39480000D03*
X47560000Y-33555000D03*
%TD*%
D11*
%TO.C,R11*%
X60127500Y-49430000D03*
X61952500Y-49430000D03*
%TD*%
D12*
%TO.C,R10*%
X66222500Y-51500000D03*
X64397500Y-51500000D03*
%TD*%
D13*
%TO.C,U4*%
X65120000Y-44645000D03*
X63850000Y-44645000D03*
X62580000Y-44645000D03*
X61310000Y-44645000D03*
X61310000Y-39695000D03*
X62580000Y-39695000D03*
X63850000Y-39695000D03*
X65120000Y-39695000D03*
%TD*%
D14*
%TO.C,C3*%
X67790000Y-39650000D03*
X67790000Y-37750000D03*
%TD*%
D11*
%TO.C,R4*%
X45357500Y-46700000D03*
X47182500Y-46700000D03*
%TD*%
D15*
%TO.C,R9*%
X75500000Y-50395000D03*
X75500000Y-56320000D03*
%TD*%
%TO.C,R2*%
X49540000Y-49660000D03*
X49540000Y-55585000D03*
%TD*%
D12*
%TO.C,R5*%
X41012500Y-34400000D03*
X39187500Y-34400000D03*
%TD*%
%TO.C,R12*%
X62312500Y-46960000D03*
X60487500Y-46960000D03*
%TD*%
D16*
%TO.C,F1*%
X27632500Y-42170000D03*
X34407500Y-42170000D03*
%TD*%
D17*
%TO.C,U2*%
X39860000Y-39695000D03*
X41130000Y-39695000D03*
X42400000Y-39695000D03*
X43670000Y-39695000D03*
X43670000Y-44645000D03*
X42400000Y-44645000D03*
X41130000Y-44645000D03*
X39860000Y-44645000D03*
%TD*%
D11*
%TO.C,R8*%
X40377500Y-47010000D03*
X42202500Y-47010000D03*
%TD*%
D12*
%TO.C,R13*%
X66122500Y-47090000D03*
X64297500Y-47090000D03*
%TD*%
%TO.C,R3*%
X42282500Y-49650000D03*
X40457500Y-49650000D03*
%TD*%
%TO.C,R16*%
X61132500Y-35130000D03*
X59307500Y-35130000D03*
%TD*%
D11*
%TO.C,R20*%
X42687500Y-37130000D03*
X44512500Y-37130000D03*
%TD*%
%TO.C,R7*%
X45367500Y-44710000D03*
X47192500Y-44710000D03*
%TD*%
%TO.C,R19*%
X42687500Y-35150000D03*
X44512500Y-35150000D03*
%TD*%
D18*
%TO.C,C7*%
X37600000Y-44750000D03*
X37600000Y-46650000D03*
%TD*%
D12*
%TO.C,R15*%
X64592500Y-35370000D03*
X62767500Y-35370000D03*
%TD*%
%TO.C,R17*%
X22912500Y-54000000D03*
X21087500Y-54000000D03*
%TD*%
D19*
%TO.C,U3*%
X61580000Y-24880000D03*
X62080000Y-24880000D03*
X62580000Y-24880000D03*
X63080000Y-24880000D03*
X63580000Y-24880000D03*
X63580000Y-29280000D03*
X63080000Y-29280000D03*
X62580000Y-29280000D03*
X62080000Y-29280000D03*
X61580000Y-29280000D03*
%TD*%
D20*
%TO.C,C2*%
X50420000Y-38020000D03*
X52320000Y-38020000D03*
%TD*%
D12*
%TO.C,R21*%
X61132500Y-37130000D03*
X59307500Y-37130000D03*
%TD*%
M02*
