%TF.GenerationSoftware,KiCad,Pcbnew,7.0.7*%
%TF.CreationDate,2024-11-11T15:48:16-05:00*%
%TF.ProjectId,control-board_v2,636f6e74-726f-46c2-9d62-6f6172645f76,rev?*%
%TF.SameCoordinates,Original*%
%TF.FileFunction,Soldermask,Top*%
%TF.FilePolarity,Negative*%
%FSLAX46Y46*%
G04 Gerber Fmt 4.6, Leading zero omitted, Abs format (unit mm)*
G04 Created by KiCad (PCBNEW 7.0.7) date 2024-11-11 15:48:16*
%MOMM*%
%LPD*%
G01*
G04 APERTURE LIST*
G04 Aperture macros list*
%AMRoundRect*
0 Rectangle with rounded corners*
0 $1 Rounding radius*
0 $2 $3 $4 $5 $6 $7 $8 $9 X,Y pos of 4 corners*
0 Add a 4 corners polygon primitive as box body*
4,1,4,$2,$3,$4,$5,$6,$7,$8,$9,$2,$3,0*
0 Add four circle primitives for the rounded corners*
1,1,$1+$1,$2,$3*
1,1,$1+$1,$4,$5*
1,1,$1+$1,$6,$7*
1,1,$1+$1,$8,$9*
0 Add four rect primitives between the rounded corners*
20,1,$1+$1,$2,$3,$4,$5,0*
20,1,$1+$1,$4,$5,$6,$7,0*
20,1,$1+$1,$6,$7,$8,$9,0*
20,1,$1+$1,$8,$9,$2,$3,0*%
G04 Aperture macros list end*
%ADD10RoundRect,0.250000X0.250000X0.475000X-0.250000X0.475000X-0.250000X-0.475000X0.250000X-0.475000X0*%
%ADD11R,0.650000X2.200000*%
%ADD12R,1.000000X3.150000*%
%ADD13RoundRect,0.150000X0.150000X-0.875000X0.150000X0.875000X-0.150000X0.875000X-0.150000X-0.875000X0*%
%ADD14C,1.600000*%
%ADD15R,2.000000X4.000000*%
%ADD16O,2.000000X3.300000*%
%ADD17O,3.500000X2.000000*%
%ADD18RoundRect,0.218750X0.218750X0.256250X-0.218750X0.256250X-0.218750X-0.256250X0.218750X-0.256250X0*%
%ADD19RoundRect,0.250000X0.875000X1.025000X-0.875000X1.025000X-0.875000X-1.025000X0.875000X-1.025000X0*%
%ADD20R,1.700000X1.700000*%
%ADD21O,1.700000X1.700000*%
G04 APERTURE END LIST*
D10*
%TO.C,C5*%
X61570000Y-25050000D03*
X59670000Y-25050000D03*
%TD*%
D11*
%TO.C,U8*%
X74100000Y-39550000D03*
X71560000Y-39550000D03*
X69020000Y-39550000D03*
X69020000Y-48450000D03*
X71560000Y-48450000D03*
X74100000Y-48450000D03*
%TD*%
D12*
%TO.C,J2*%
X39130000Y-58990000D03*
X39130000Y-53940000D03*
X41670000Y-58990000D03*
X41670000Y-53940000D03*
X44210000Y-58990000D03*
X44210000Y-53940000D03*
X46750000Y-58990000D03*
X46750000Y-53940000D03*
X49290000Y-58990000D03*
X49290000Y-53940000D03*
X51830000Y-58990000D03*
X51830000Y-53940000D03*
%TD*%
%TO.C,J5*%
X66630000Y-31940000D03*
X66630000Y-26890000D03*
X69170000Y-31940000D03*
X69170000Y-26890000D03*
X71710000Y-31940000D03*
X71710000Y-26890000D03*
X74250000Y-31940000D03*
X74250000Y-26890000D03*
X76790000Y-31940000D03*
X76790000Y-26890000D03*
X79330000Y-31940000D03*
X79330000Y-26890000D03*
%TD*%
D13*
%TO.C,U1*%
X52360000Y-47090000D03*
X53630000Y-47090000D03*
X54900000Y-47090000D03*
X56170000Y-47090000D03*
X57440000Y-47090000D03*
X58710000Y-47090000D03*
X59980000Y-47090000D03*
X61250000Y-47090000D03*
X62520000Y-47090000D03*
X63790000Y-47090000D03*
X65060000Y-47090000D03*
X66330000Y-47090000D03*
X66330000Y-37790000D03*
X65060000Y-37790000D03*
X63790000Y-37790000D03*
X62520000Y-37790000D03*
X61250000Y-37790000D03*
X59980000Y-37790000D03*
X58710000Y-37790000D03*
X57440000Y-37790000D03*
X56170000Y-37790000D03*
X54900000Y-37790000D03*
X53630000Y-37790000D03*
X52360000Y-37790000D03*
%TD*%
D11*
%TO.C,U9*%
X76880000Y-46290000D03*
X79420000Y-46290000D03*
X81960000Y-46290000D03*
X81960000Y-37390000D03*
X79420000Y-37390000D03*
X76880000Y-37390000D03*
%TD*%
D14*
%TO.C,J1*%
X18570000Y-32560000D03*
D15*
X27570000Y-32560000D03*
D16*
X21570000Y-32560000D03*
D17*
X20570000Y-28060000D03*
X20570000Y-37060000D03*
%TD*%
D12*
%TO.C,J3*%
X39130000Y-31990000D03*
X39130000Y-26940000D03*
X41670000Y-31990000D03*
X41670000Y-26940000D03*
X44210000Y-31990000D03*
X44210000Y-26940000D03*
X46750000Y-31990000D03*
X46750000Y-26940000D03*
X49290000Y-31990000D03*
X49290000Y-26940000D03*
X51830000Y-31990000D03*
X51830000Y-26940000D03*
%TD*%
D11*
%TO.C,U6*%
X45230000Y-45970000D03*
X47770000Y-45970000D03*
X50310000Y-45970000D03*
X50310000Y-37070000D03*
X47770000Y-37070000D03*
X45230000Y-37070000D03*
%TD*%
D18*
%TO.C,D17*%
X22787500Y-54000000D03*
X21212500Y-54000000D03*
%TD*%
D12*
%TO.C,J4*%
X66630000Y-58940000D03*
X66630000Y-53890000D03*
X69170000Y-58940000D03*
X69170000Y-53890000D03*
X71710000Y-58940000D03*
X71710000Y-53890000D03*
X74250000Y-58940000D03*
X74250000Y-53890000D03*
X76790000Y-58940000D03*
X76790000Y-53890000D03*
X79330000Y-58940000D03*
X79330000Y-53890000D03*
%TD*%
D11*
%TO.C,U5*%
X41910000Y-38800000D03*
X39370000Y-38800000D03*
X36830000Y-38800000D03*
X36830000Y-47700000D03*
X39370000Y-47700000D03*
X41910000Y-47700000D03*
%TD*%
D19*
%TO.C,C1*%
X34170000Y-42210000D03*
X27770000Y-42210000D03*
%TD*%
D18*
%TO.C,D18*%
X22787500Y-50000000D03*
X21212500Y-50000000D03*
%TD*%
D20*
%TO.C,J8*%
X35650000Y-17840000D03*
D21*
X38190000Y-17840000D03*
X40730000Y-17840000D03*
X43270000Y-17840000D03*
X45810000Y-17840000D03*
X48350000Y-17840000D03*
X50890000Y-17840000D03*
X53430000Y-17840000D03*
X55970000Y-17840000D03*
X58510000Y-17840000D03*
%TD*%
D20*
%TO.C,J7*%
X80350000Y-66090000D03*
D21*
X77810000Y-66090000D03*
X75270000Y-66090000D03*
X72730000Y-66090000D03*
X70190000Y-66090000D03*
X67650000Y-66090000D03*
%TD*%
D20*
%TO.C,J6*%
X62570000Y-66090000D03*
D21*
X60030000Y-66090000D03*
X57490000Y-66090000D03*
X54950000Y-66090000D03*
X52410000Y-66090000D03*
X49870000Y-66090000D03*
X47330000Y-66090000D03*
X44790000Y-66090000D03*
%TD*%
D20*
%TO.C,J9*%
X62570000Y-17840000D03*
D21*
X65110000Y-17840000D03*
X67650000Y-17840000D03*
X70190000Y-17840000D03*
X72730000Y-17840000D03*
X75270000Y-17840000D03*
X77810000Y-17840000D03*
X80350000Y-17840000D03*
%TD*%
M02*
